<?xml version="1.0" encoding="us-ascii" standalone="no"?><svg xmlns="http://www.w3.org/2000/svg" xmlns:xlink="http://www.w3.org/1999/xlink" contentStyleType="text/css" height="482px" preserveAspectRatio="none" style="width:947px;height:482px;background:#F5F5F5;" version="1.1" viewBox="0 0 947 482" width="947px" zoomAndPan="magnify"><defs><filter height="300%" id="f1jc4em3k12xhv" width="300%" x="-1" y="-1"><feGaussianBlur result="blurOut" stdDeviation="2.0"/><feColorMatrix in="blurOut" result="blurOut2" type="matrix" values="0 0 0 0 0 0 0 0 0 0 0 0 0 0 0 0 0 0 .4 0"/><feOffset dx="4.0" dy="4.0" in="blurOut2" result="blurOut3"/><feBlend in="SourceGraphic" in2="blurOut3" mode="normal"/></filter><linearGradient id="g1jc4em3k12xhv0" x1="50%" x2="50%" y1="0%" y2="100%"><stop offset="0%" stop-color="#E0E5F0"/><stop offset="100%" stop-color="#D1D9E6"/></linearGradient></defs><g><rect fill="#F5F5F5" height="482" style="stroke:none;stroke-width:1.0;" width="947" x="0" y="0"/><rect fill="#F5E599" height="470.3296" rx="5" ry="5" style="stroke:#181818;stroke-width:0.5;" width="371" x="21" y="6"/><text fill="#000000" font-family="Arial" font-size="14" font-weight="bold" lengthAdjust="spacing" textLength="4" x="24" y="19.1318">&#160;</text><text fill="#000000" font-family="Arial" font-size="14" font-weight="bold" lengthAdjust="spacing" textLength="197" x="108" y="35.2305">KA (Herz-Jesu Krankenhaus)</text><rect fill="#C5F7BA" height="470.3296" rx="5" ry="5" style="stroke:#181818;stroke-width:0.5;" width="333" x="434" y="6"/><text fill="#000000" font-family="Arial" font-size="14" font-weight="bold" lengthAdjust="spacing" textLength="4" x="437" y="19.1318">&#160;</text><text fill="#000000" font-family="Arial" font-size="14" font-weight="bold" lengthAdjust="spacing" textLength="47" x="577" y="35.2305">Moped</text><line style="stroke:#181818;stroke-width:0.5;stroke-dasharray:5.0,5.0;" x1="206.5" x2="206.5" y1="118.2959" y2="397.231"/><line style="stroke:#181818;stroke-width:0.5;stroke-dasharray:5.0,5.0;" x1="600.5" x2="600.5" y1="118.2959" y2="397.231"/><text fill="#000000" font-family="Arial" font-size="14" lengthAdjust="spacing" textLength="186" x="110.5" y="115.3291">KA (Herz-Jesu Krankenhaus)</text><ellipse cx="206.5" cy="50.6973" fill="#E2E2F0" rx="8" ry="8" style="stroke:#181818;stroke-width:0.5;"/><path d="M206.5,58.6973 L206.5,85.6973 M193.5,66.6973 L219.5,66.6973 M206.5,85.6973 L193.5,100.6973 M206.5,85.6973 L219.5,100.6973 " fill="none" style="stroke:#181818;stroke-width:0.5;"/><text fill="#000000" font-family="Arial" font-size="14" lengthAdjust="spacing" textLength="186" x="110.5" y="409.3628">KA (Herz-Jesu Krankenhaus)</text><ellipse cx="206.5" cy="420.8296" fill="#E2E2F0" rx="8" ry="8" style="stroke:#181818;stroke-width:0.5;"/><path d="M206.5,428.8296 L206.5,455.8296 M193.5,436.8296 L219.5,436.8296 M206.5,455.8296 L193.5,470.8296 M206.5,455.8296 L219.5,470.8296 " fill="none" style="stroke:#181818;stroke-width:0.5;"/><rect fill="#FFFFFF" height="30.0986" rx="5" ry="5" style="stroke:#555555;stroke-width:0.5;" width="58" x="571.5" y="87.1973"/><text fill="#000000" font-family="Arial" font-size="14" lengthAdjust="spacing" textLength="44" x="578.5" y="107.3291">Moped</text><rect fill="#FFFFFF" height="30.0986" rx="5" ry="5" style="stroke:#555555;stroke-width:0.5;" width="58" x="571.5" y="396.231"/><text fill="#000000" font-family="Arial" font-size="14" lengthAdjust="spacing" textLength="44" x="578.5" y="416.3628">Moped</text><path d="M605,138.2959 L605,186.2959 A5,5 0 0 0 610,191.2959 L842,191.2959 A5,5 0 0 0 847,186.2959 L847,143.2959 L837,133.2959 L610,133.2959 A5,5 0 0 0 605,138.2959 " fill="#C5F7BA" filter="url(#f1jc4em3k12xhv)" style="stroke:#8B95A5;stroke-width:1.0;"/><path d="M837,133.2959 L837,140.7959 A2.5,2.5 0 0 0 839.5,143.2959 L847,143.2959 L837,133.2959 " fill="#C5F7BA" style="stroke:#8B95A5;stroke-width:1.0;"/><text fill="#111827" font-family="Arial" font-size="14" lengthAdjust="spacing" textLength="56" x="611" y="151.4277">Zustand:</text><text fill="#111827" font-family="Arial" font-size="14" lengthAdjust="spacing" textLength="221" x="611" y="167.5264">- Kein existierender Moped Fall mit</text><text fill="#111827" font-family="Arial" font-size="14" lengthAdjust="spacing" textLength="180" x="619" y="183.625">dieser Schl&#252;sselkombination</text><line style="stroke:#111827;stroke-width:2.0;" x1="598.5" x2="588.5" y1="220.5405" y2="216.5405"/><line style="stroke:#111827;stroke-width:2.0;" x1="598.5" x2="588.5" y1="220.5405" y2="224.5405"/><line style="stroke:#111827;stroke-width:2.0;" x1="206.5" x2="599.5" y1="220.5405" y2="220.5405"/><text fill="#000000" font-family="Arial" font-size="13" font-weight="bold" lengthAdjust="spacing" textLength="7" x="213.5" y="215.7856">1</text><text fill="#000000" font-family="Arial" font-size="13" lengthAdjust="spacing" textLength="111" x="224.5" y="215.7856">POST $aufnehmen</text><path d="M73,238.5405 L73,302.5405 A5,5 0 0 0 78,307.5405 L331,307.5405 A5,5 0 0 0 336,302.5405 L336,243.5405 L326,233.5405 L78,233.5405 A5,5 0 0 0 73,238.5405 " fill="url(#g1jc4em3k12xhv0)" filter="url(#f1jc4em3k12xhv)" style="stroke:#8B95A5;stroke-width:1.0;"/><path d="M326,233.5405 L326,241.0405 A2.5,2.5 0 0 0 328.5,243.5405 L336,243.5405 L326,233.5405 " fill="url(#g1jc4em3k12xhv0)" style="stroke:#8B95A5;stroke-width:1.0;"/><text fill="#111827" font-family="Arial" font-size="14" lengthAdjust="spacing" textLength="207" x="79" y="251.6724">Aufnahme-Bundle wird gesendet</text><text fill="#111827" font-family="Arial" font-size="14" lengthAdjust="spacing" textLength="224" x="79" y="267.771">- Versicherungsdaten als Coverage</text><text fill="#111827" font-family="Arial" font-size="14" lengthAdjust="spacing" textLength="242" x="79" y="283.8696">- Hauptversicherter als RelatedPerson</text><text fill="#111827" font-family="Arial" font-size="14" lengthAdjust="spacing" textLength="239" x="79" y="299.9683">- alle weiteren Aufnahme-Ressourcen</text><path d="M605,325.9351 L605,373.9351 A5,5 0 0 0 610,378.9351 L930,378.9351 A5,5 0 0 0 935,373.9351 L935,330.9351 L925,320.9351 L610,320.9351 A5,5 0 0 0 605,325.9351 " fill="#C5F7BA" filter="url(#f1jc4em3k12xhv)" style="stroke:#8B95A5;stroke-width:1.0;"/><path d="M925,320.9351 L925,328.4351 A2.5,2.5 0 0 0 927.5,330.9351 L935,330.9351 L925,320.9351 " fill="#C5F7BA" style="stroke:#8B95A5;stroke-width:1.0;"/><text fill="#111827" font-family="Arial" font-size="14" lengthAdjust="spacing" textLength="56" x="611" y="339.0669">Zustand:</text><text fill="#111827" font-family="Arial" font-size="14" lengthAdjust="spacing" textLength="139" x="611" y="355.1655">- Moped Fall angelegt</text><text fill="#111827" font-family="Arial" font-size="14" lengthAdjust="spacing" textLength="309" x="611" y="371.2642">- Aufnahme- und Versicherungsdaten vollst&#228;ndig</text><!--SRC=[ZLFBJXin5DtFLro5Bjf590OO82oG046Z8jeeeLrKtJZZEpDM77lg1wHK_Pj-HdVyMAydBm-PLZYRoRd7zvvpRDkPK3KpR0vJRJYQAosrWRtzPYLsMsNvh3JQAxvY55duHGnRCQuVXIgXOD9YL5bjCmeDf75JZWNpqjrevJwoEKBlmWWcUzsCYNX2I8-wYstP4KTfX_0p0RXyQG3tCIls-tiyvGCy3emuWDFf86FP1hslH3vJQ2saX8qZGwVqVyGu3yP3bqXDcgQd1oU4JJRHEECn-HKB7FweqKYXPf65w-ikmcV5cmzS1HndZzyzgdpfTCIC4xcecN8jIrcpNX1sZhLPRT9km3lbzU6q2kjO3iA62sFquyjW6d2RxS4QwfguAInd7HBqdfJNBO-RpilIZhl3ugWuRk-CZxPrCfTw4JbeuLsv9bEzWDut1LthTWXlXsYU-X_GUhWrJCrGLSpRTvtqNdXVc0q699NbZgPG0sQXz-y-lGGLfqUy-B-GzhhJDV9Ny4XFdXKdKqPwwkq1mzseKTMqYGGap3kj_7oAfltTl4OZoig1BiBkTTkltZgc-5dIXriK2d0Xh1DeCDpvbSmR9YNCXICDNA0bV99NylcFjIXdUZuLYZcXLICZ34eIIgj_Vavppc3qQN8FRvWl55PpL4ib-W53iia5mOpW_YLT5OdmA0o7aaRGT4UIlg2n8g_GU5LQpXmge1S8Ls4_Av4OG-Phzx2cEMeR26EKAEOZmabNdx3G78KBnc0pTKoNJtkJOwpzDL55kJ1LeiGogDtq1NBJfVr1IsdTys_5HRcT-1S0]--></g></svg>