<?xml version="1.0" encoding="us-ascii" standalone="no"?><svg xmlns="http://www.w3.org/2000/svg" xmlns:xlink="http://www.w3.org/1999/xlink" contentStyleType="text/css" height="514px" preserveAspectRatio="none" style="width:1070px;height:514px;background:#F5F5F5;" version="1.1" viewBox="0 0 1070 514" width="1070px" zoomAndPan="magnify"><defs><filter height="300%" id="fc12wpk4j5cmo" width="300%" x="-1" y="-1"><feGaussianBlur result="blurOut" stdDeviation="2.0"/><feColorMatrix in="blurOut" result="blurOut2" type="matrix" values="0 0 0 0 0 0 0 0 0 0 0 0 0 0 0 0 0 0 .4 0"/><feOffset dx="4.0" dy="4.0" in="blurOut2" result="blurOut3"/><feBlend in="SourceGraphic" in2="blurOut3" mode="normal"/></filter><linearGradient id="gc12wpk4j5cmo0" x1="50%" x2="50%" y1="0%" y2="100%"><stop offset="0%" stop-color="#E0E5F0"/><stop offset="100%" stop-color="#D1D9E6"/></linearGradient></defs><g><rect fill="#F5F5F5" height="514" style="stroke:none;stroke-width:1.0;" width="1070" x="0" y="0"/><rect fill="#F5E599" height="502.5269" rx="5" ry="5" style="stroke:#181818;stroke-width:0.5;" width="106" x="119" y="6"/><text fill="#000000" font-family="Arial" font-size="14" font-weight="bold" lengthAdjust="spacing" textLength="4" x="122" y="19.1318">&#160;</text><text fill="#000000" font-family="Arial" font-size="14" font-weight="bold" lengthAdjust="spacing" textLength="20" x="158" y="35.2305">KA</text><rect fill="#C5F7BA" height="502.5269" rx="5" ry="5" style="stroke:#181818;stroke-width:0.5;" width="165" x="300.5" y="6"/><text fill="#000000" font-family="Arial" font-size="14" font-weight="bold" lengthAdjust="spacing" textLength="4" x="303.5" y="19.1318">&#160;</text><text fill="#000000" font-family="Arial" font-size="14" font-weight="bold" lengthAdjust="spacing" textLength="47" x="359.5" y="35.2305">Moped</text><rect fill="#C0C0C0" height="502.5269" rx="5" ry="5" style="stroke:#181818;stroke-width:0.5;" width="104" x="507.5" y="6"/><text fill="#000000" font-family="Arial" font-size="14" font-weight="bold" lengthAdjust="spacing" textLength="4" x="510.5" y="19.1318">&#160;</text><text fill="#000000" font-family="Arial" font-size="14" font-weight="bold" lengthAdjust="spacing" textLength="18" x="546.5" y="35.2305">SV</text><rect fill="#C0C0C0" height="502.5269" rx="5" ry="5" style="stroke:#181818;stroke-width:0.5;" width="238" x="653.5" y="6"/><text fill="#000000" font-family="Arial" font-size="14" font-weight="bold" lengthAdjust="spacing" textLength="4" x="656.5" y="19.1318">&#160;</text><text fill="#000000" font-family="Arial" font-size="14" font-weight="bold" lengthAdjust="spacing" textLength="220" x="660.5" y="35.2305">LGF (Landesgesundheitsfonds)</text><rect fill="#C0C0C0" height="502.5269" rx="5" ry="5" style="stroke:#181818;stroke-width:0.5;" width="131" x="933.5" y="6"/><text fill="#000000" font-family="Arial" font-size="14" font-weight="bold" lengthAdjust="spacing" textLength="4" x="936.5" y="19.1318">&#160;</text><text fill="#000000" font-family="Arial" font-size="14" font-weight="bold" lengthAdjust="spacing" textLength="37" x="980.5" y="35.2305">Bund</text><line style="stroke:#181818;stroke-width:0.5;stroke-dasharray:5.0,5.0;" x1="171.5" x2="171.5" y1="118.2959" y2="429.4282"/><line style="stroke:#181818;stroke-width:0.5;stroke-dasharray:5.0,5.0;" x1="383" x2="383" y1="118.2959" y2="429.4282"/><line style="stroke:#181818;stroke-width:0.5;stroke-dasharray:5.0,5.0;" x1="559" x2="559" y1="118.2959" y2="429.4282"/><line style="stroke:#181818;stroke-width:0.5;stroke-dasharray:5.0,5.0;" x1="772" x2="772" y1="118.2959" y2="429.4282"/><line style="stroke:#181818;stroke-width:0.5;stroke-dasharray:5.0,5.0;" x1="998.5" x2="998.5" y1="118.2959" y2="429.4282"/><text fill="#000000" font-family="Arial" font-size="14" lengthAdjust="spacing" textLength="19" x="159.5" y="115.3291">KA</text><ellipse cx="172" cy="50.6973" fill="#E2E2F0" rx="8" ry="8" style="stroke:#181818;stroke-width:0.5;"/><path d="M172,58.6973 L172,85.6973 M159,66.6973 L185,66.6973 M172,85.6973 L159,100.6973 M172,85.6973 L185,100.6973 " fill="none" style="stroke:#181818;stroke-width:0.5;"/><text fill="#000000" font-family="Arial" font-size="14" lengthAdjust="spacing" textLength="19" x="159.5" y="441.5601">KA</text><ellipse cx="172" cy="453.0269" fill="#E2E2F0" rx="8" ry="8" style="stroke:#181818;stroke-width:0.5;"/><path d="M172,461.0269 L172,488.0269 M159,469.0269 L185,469.0269 M172,488.0269 L159,503.0269 M172,488.0269 L185,503.0269 " fill="none" style="stroke:#181818;stroke-width:0.5;"/><rect fill="#FFFFFF" height="30.0986" rx="5" ry="5" style="stroke:#555555;stroke-width:0.5;" width="58" x="354" y="87.1973"/><text fill="#000000" font-family="Arial" font-size="14" lengthAdjust="spacing" textLength="44" x="361" y="107.3291">Moped</text><rect fill="#FFFFFF" height="30.0986" rx="5" ry="5" style="stroke:#555555;stroke-width:0.5;" width="58" x="354" y="428.4282"/><text fill="#000000" font-family="Arial" font-size="14" lengthAdjust="spacing" textLength="44" x="361" y="448.5601">Moped</text><text fill="#000000" font-family="Arial" font-size="14" lengthAdjust="spacing" textLength="18" x="547.5" y="115.3291">SV</text><ellipse cx="559.5" cy="50.6973" fill="#E2E2F0" rx="8" ry="8" style="stroke:#181818;stroke-width:0.5;"/><path d="M559.5,58.6973 L559.5,85.6973 M546.5,66.6973 L572.5,66.6973 M559.5,85.6973 L546.5,100.6973 M559.5,85.6973 L572.5,100.6973 " fill="none" style="stroke:#181818;stroke-width:0.5;"/><text fill="#000000" font-family="Arial" font-size="14" lengthAdjust="spacing" textLength="18" x="547.5" y="441.5601">SV</text><ellipse cx="559.5" cy="453.0269" fill="#E2E2F0" rx="8" ry="8" style="stroke:#181818;stroke-width:0.5;"/><path d="M559.5,461.0269 L559.5,488.0269 M546.5,469.0269 L572.5,469.0269 M559.5,488.0269 L546.5,503.0269 M559.5,488.0269 L572.5,503.0269 " fill="none" style="stroke:#181818;stroke-width:0.5;"/><text fill="#000000" font-family="Arial" font-size="14" lengthAdjust="spacing" textLength="201" x="669" y="115.3291">LGF (Landesgesundheitsfonds)</text><ellipse cx="772.5" cy="50.6973" fill="#E2E2F0" rx="8" ry="8" style="stroke:#181818;stroke-width:0.5;"/><path d="M772.5,58.6973 L772.5,85.6973 M759.5,66.6973 L785.5,66.6973 M772.5,85.6973 L759.5,100.6973 M772.5,85.6973 L785.5,100.6973 " fill="none" style="stroke:#181818;stroke-width:0.5;"/><text fill="#000000" font-family="Arial" font-size="14" lengthAdjust="spacing" textLength="201" x="669" y="441.5601">LGF (Landesgesundheitsfonds)</text><ellipse cx="772.5" cy="453.0269" fill="#E2E2F0" rx="8" ry="8" style="stroke:#181818;stroke-width:0.5;"/><path d="M772.5,461.0269 L772.5,488.0269 M759.5,469.0269 L785.5,469.0269 M772.5,488.0269 L759.5,503.0269 M772.5,488.0269 L785.5,503.0269 " fill="none" style="stroke:#181818;stroke-width:0.5;"/><text fill="#000000" font-family="Arial" font-size="14" lengthAdjust="spacing" textLength="33" x="979.5" y="115.3291">Bund</text><ellipse cx="999" cy="50.6973" fill="#E2E2F0" rx="8" ry="8" style="stroke:#181818;stroke-width:0.5;"/><path d="M999,58.6973 L999,85.6973 M986,66.6973 L1012,66.6973 M999,85.6973 L986,100.6973 M999,85.6973 L1012,100.6973 " fill="none" style="stroke:#181818;stroke-width:0.5;"/><text fill="#000000" font-family="Arial" font-size="14" lengthAdjust="spacing" textLength="33" x="979.5" y="441.5601">Bund</text><ellipse cx="999" cy="453.0269" fill="#E2E2F0" rx="8" ry="8" style="stroke:#181818;stroke-width:0.5;"/><path d="M999,461.0269 L999,488.0269 M986,469.0269 L1012,469.0269 M999,488.0269 L986,503.0269 M999,488.0269 L1012,503.0269 " fill="none" style="stroke:#181818;stroke-width:0.5;"/><path d="M388,138.2959 L388,186.2959 A5,5 0 0 0 393,191.2959 L625,191.2959 A5,5 0 0 0 630,186.2959 L630,143.2959 L620,133.2959 L393,133.2959 A5,5 0 0 0 388,138.2959 " fill="#C5F7BA" filter="url(#fc12wpk4j5cmo)" style="stroke:#8B95A5;stroke-width:1.0;"/><path d="M620,133.2959 L620,140.7959 A2.5,2.5 0 0 0 622.5,143.2959 L630,143.2959 L620,133.2959 " fill="#C5F7BA" style="stroke:#8B95A5;stroke-width:1.0;"/><text fill="#111827" font-family="Arial" font-size="14" lengthAdjust="spacing" textLength="56" x="394" y="151.4277">Zustand:</text><text fill="#111827" font-family="Arial" font-size="14" lengthAdjust="spacing" textLength="221" x="394" y="167.5264">- Kein existierender Moped Fall mit</text><text fill="#111827" font-family="Arial" font-size="14" lengthAdjust="spacing" textLength="180" x="402" y="183.625">dieser Schl&#252;sselkombination</text><line style="stroke:#111827;stroke-width:2.0;" x1="381" x2="371" y1="220.5405" y2="216.5405"/><line style="stroke:#111827;stroke-width:2.0;" x1="381" x2="371" y1="220.5405" y2="224.5405"/><line style="stroke:#111827;stroke-width:2.0;" x1="172" x2="382" y1="220.5405" y2="220.5405"/><text fill="#000000" font-family="Arial" font-size="13" font-weight="bold" lengthAdjust="spacing" textLength="7" x="179" y="215.7856">1</text><text fill="#000000" font-family="Arial" font-size="13" lengthAdjust="spacing" textLength="111" x="190" y="215.7856">POST $aufnehmen</text><path d="M5,238.5405 L5,350.5405 A5,5 0 0 0 10,355.5405 L331,355.5405 A5,5 0 0 0 336,350.5405 L336,243.5405 L326,233.5405 L10,233.5405 A5,5 0 0 0 5,238.5405 " fill="url(#gc12wpk4j5cmo0)" filter="url(#fc12wpk4j5cmo)" style="stroke:#8B95A5;stroke-width:1.0;"/><path d="M326,233.5405 L326,241.0405 A2.5,2.5 0 0 0 328.5,243.5405 L336,243.5405 L326,233.5405 " fill="url(#gc12wpk4j5cmo0)" style="stroke:#8B95A5;stroke-width:1.0;"/><text fill="#111827" font-family="Arial" font-size="14" lengthAdjust="spacing" textLength="207" x="11" y="251.6724">Aufnahme-Bundle wird gesendet</text><text fill="#111827" font-family="Arial" font-size="14" lengthAdjust="spacing" textLength="53" x="11" y="267.771">- Patient</text><text fill="#111827" font-family="Arial" font-size="14" lengthAdjust="spacing" textLength="152" x="11" y="283.8696">- Aufenthalt (Encounter)</text><text fill="#111827" font-family="Arial" font-size="14" lengthAdjust="spacing" textLength="279" x="11" y="299.9683">- Aufnehmende Station (TransferEncounter)</text><text fill="#111827" font-family="Arial" font-size="14" lengthAdjust="spacing" textLength="132" x="11" y="316.0669">- Aufnahmediagnose</text><text fill="#111827" font-family="Arial" font-size="14" lengthAdjust="spacing" textLength="310" x="11" y="332.1655">- ggf. Verischerungsdaten inkl. Hauptversicherter</text><text fill="#111827" font-family="Arial" font-size="14" lengthAdjust="spacing" textLength="203" x="11" y="348.2642">- ggf. &#252;berweisend Organisation</text><path d="M388,374.231 L388,406.231 A5,5 0 0 0 393,411.231 L543,411.231 A5,5 0 0 0 548,406.231 L548,379.231 L538,369.231 L393,369.231 A5,5 0 0 0 388,374.231 " fill="#C5F7BA" filter="url(#fc12wpk4j5cmo)" style="stroke:#8B95A5;stroke-width:1.0;"/><path d="M538,369.231 L538,376.731 A2.5,2.5 0 0 0 540.5,379.231 L548,379.231 L538,369.231 " fill="#C5F7BA" style="stroke:#8B95A5;stroke-width:1.0;"/><text fill="#111827" font-family="Arial" font-size="14" lengthAdjust="spacing" textLength="56" x="394" y="387.3628">Zustand:</text><text fill="#111827" font-family="Arial" font-size="14" lengthAdjust="spacing" textLength="139" x="394" y="403.4614">- Moped Fall angelegt</text><!--SRC=[ZLHDJzj04BtxLun23_GG50C1mW49AY0IKAAQSgXwsNZ7zYhEhBkxRj9M_MVS-6ETTRxin8gwlgndthnvyzPhEr5K22EcCDP6elcaSstWe5Ujm6wo8fwaHfSabuYaxvyQmcP2wfcY51AHMwnbbcM6q41O9vMOY39tTvhSPp55w5mR9V9EEo9Iln72q_PaKtODGzeX_0a0RhO7m1xsarxtG8PoW6SUKJVWOZpeY_uw-fAfU49eBOGS-r8Rw8BVHq9AFxXdgQa9m_3Y-9nZqTeQPqeC_jO53dyLQ795aze8jxTjWAyagmqk3QvxZpzAf7WnwKWOfs9L27ADaVhLsWBi76krcg1TWtVIgyDf95Qs7Fk2QsFqRDkOAhZnzdWLQkkuJYnwdN3edfKNZHdNp8lKpdGdoMborgoi7stZP6xql3P18zxcQp3MS-Xy9rYjXo5iLiVV6EmF1jnSn8xhE2qiT1w6dG19ylMRxr9KwqaNA9iXPelxoVbOC5knCHoUHXLdLR67DdhTukhvPwsCqvubUcsXUBo_WyD7mP-YJT6oinagPnDDqdviu_9uJxQlRgy1DupTgxO2-1P-KwCIfTDKJiTeWg3w2nYLPWvqubrQsVUjj8v5NGPTU415W7DbdKA3_gujdRyJUGvJvRYZL6Wv7iLP_lvcBUOJFHqh4avfgZhxHa70Hzkzkk8-bp1wZbxWWoWJmcoAj9IYVwB_089hZWkETxts766cZ0JsnxTth6d4p4X-nqZUP29tS7XBCN_J3it7HM91BH4YLoc1mnSZo2PeTf2-cLGY9Sq_a2waQN84hsYKZJCq9QLM2eS4_BV9Zs0eoiAnKgjybbbM5UzlxEeCbTS9poOLfEos1_zZUSrVGIdccBeDmpy0]--></g></svg>