<?xml version="1.0" encoding="us-ascii" standalone="no"?><svg xmlns="http://www.w3.org/2000/svg" xmlns:xlink="http://www.w3.org/1999/xlink" contentStyleType="text/css" height="498px" preserveAspectRatio="none" style="width:859px;height:498px;background:#F5F5F5;" version="1.1" viewBox="0 0 859 498" width="859px" zoomAndPan="magnify"><defs><filter height="300%" id="f19fr2y0qwta6n" width="300%" x="-1" y="-1"><feGaussianBlur result="blurOut" stdDeviation="2.0"/><feColorMatrix in="blurOut" result="blurOut2" type="matrix" values="0 0 0 0 0 0 0 0 0 0 0 0 0 0 0 0 0 0 .4 0"/><feOffset dx="4.0" dy="4.0" in="blurOut2" result="blurOut3"/><feBlend in="SourceGraphic" in2="blurOut3" mode="normal"/></filter><linearGradient id="g19fr2y0qwta6n0" x1="50%" x2="50%" y1="0%" y2="100%"><stop offset="0%" stop-color="#E0E5F0"/><stop offset="100%" stop-color="#D1D9E6"/></linearGradient></defs><g><rect fill="#F5F5F5" height="498" style="stroke:none;stroke-width:1.0;" width="859" x="0" y="0"/><rect fill="#F5E599" height="486.4282" rx="5" ry="5" style="stroke:#181818;stroke-width:0.5;" width="371" x="21" y="6"/><text fill="#000000" font-family="Arial" font-size="14" font-weight="bold" lengthAdjust="spacing" textLength="4" x="24" y="19.1318">&#160;</text><text fill="#000000" font-family="Arial" font-size="14" font-weight="bold" lengthAdjust="spacing" textLength="197" x="108" y="35.2305">KA (Herz-Jesu Krankenhaus)</text><rect fill="#C5F7BA" height="486.4282" rx="5" ry="5" style="stroke:#181818;stroke-width:0.5;" width="333" x="434" y="6"/><text fill="#000000" font-family="Arial" font-size="14" font-weight="bold" lengthAdjust="spacing" textLength="4" x="437" y="19.1318">&#160;</text><text fill="#000000" font-family="Arial" font-size="14" font-weight="bold" lengthAdjust="spacing" textLength="47" x="577" y="35.2305">Moped</text><line style="stroke:#181818;stroke-width:0.5;stroke-dasharray:5.0,5.0;" x1="206.5" x2="206.5" y1="118.2959" y2="413.3296"/><line style="stroke:#181818;stroke-width:0.5;stroke-dasharray:5.0,5.0;" x1="600.5" x2="600.5" y1="118.2959" y2="413.3296"/><text fill="#000000" font-family="Arial" font-size="14" lengthAdjust="spacing" textLength="186" x="110.5" y="115.3291">KA (Herz-Jesu Krankenhaus)</text><ellipse cx="206.5" cy="50.6973" fill="#E2E2F0" rx="8" ry="8" style="stroke:#181818;stroke-width:0.5;"/><path d="M206.5,58.6973 L206.5,85.6973 M193.5,66.6973 L219.5,66.6973 M206.5,85.6973 L193.5,100.6973 M206.5,85.6973 L219.5,100.6973 " fill="none" style="stroke:#181818;stroke-width:0.5;"/><text fill="#000000" font-family="Arial" font-size="14" lengthAdjust="spacing" textLength="186" x="110.5" y="425.4614">KA (Herz-Jesu Krankenhaus)</text><ellipse cx="206.5" cy="436.9282" fill="#E2E2F0" rx="8" ry="8" style="stroke:#181818;stroke-width:0.5;"/><path d="M206.5,444.9282 L206.5,471.9282 M193.5,452.9282 L219.5,452.9282 M206.5,471.9282 L193.5,486.9282 M206.5,471.9282 L219.5,486.9282 " fill="none" style="stroke:#181818;stroke-width:0.5;"/><rect fill="#FFFFFF" height="30.0986" rx="5" ry="5" style="stroke:#555555;stroke-width:0.5;" width="58" x="571.5" y="87.1973"/><text fill="#000000" font-family="Arial" font-size="14" lengthAdjust="spacing" textLength="44" x="578.5" y="107.3291">Moped</text><rect fill="#FFFFFF" height="30.0986" rx="5" ry="5" style="stroke:#555555;stroke-width:0.5;" width="58" x="571.5" y="412.3296"/><text fill="#000000" font-family="Arial" font-size="14" lengthAdjust="spacing" textLength="44" x="578.5" y="432.4614">Moped</text><path d="M605,138.2959 L605,186.2959 A5,5 0 0 0 610,191.2959 L842,191.2959 A5,5 0 0 0 847,186.2959 L847,143.2959 L837,133.2959 L610,133.2959 A5,5 0 0 0 605,138.2959 " fill="#C5F7BA" filter="url(#f19fr2y0qwta6n)" style="stroke:#8B95A5;stroke-width:1.0;"/><path d="M837,133.2959 L837,140.7959 A2.5,2.5 0 0 0 839.5,143.2959 L847,143.2959 L837,133.2959 " fill="#C5F7BA" style="stroke:#8B95A5;stroke-width:1.0;"/><text fill="#111827" font-family="Arial" font-size="14" lengthAdjust="spacing" textLength="56" x="611" y="151.4277">Zustand:</text><text fill="#111827" font-family="Arial" font-size="14" lengthAdjust="spacing" textLength="221" x="611" y="167.5264">- Kein existierender Moped Fall mit</text><text fill="#111827" font-family="Arial" font-size="14" lengthAdjust="spacing" textLength="180" x="619" y="183.625">dieser Schl&#252;sselkombination</text><line style="stroke:#111827;stroke-width:2.0;" x1="598.5" x2="588.5" y1="220.5405" y2="216.5405"/><line style="stroke:#111827;stroke-width:2.0;" x1="598.5" x2="588.5" y1="220.5405" y2="224.5405"/><line style="stroke:#111827;stroke-width:2.0;" x1="206.5" x2="599.5" y1="220.5405" y2="220.5405"/><text fill="#000000" font-family="Arial" font-size="13" font-weight="bold" lengthAdjust="spacing" textLength="7" x="213.5" y="215.7856">1</text><text fill="#000000" font-family="Arial" font-size="13" lengthAdjust="spacing" textLength="111" x="224.5" y="215.7856">POST $aufnehmen</text><path d="M75,238.5405 L75,334.5405 A5,5 0 0 0 80,339.5405 L330,339.5405 A5,5 0 0 0 335,334.5405 L335,243.5405 L325,233.5405 L80,233.5405 A5,5 0 0 0 75,238.5405 " fill="url(#g19fr2y0qwta6n0)" filter="url(#f19fr2y0qwta6n)" style="stroke:#8B95A5;stroke-width:1.0;"/><path d="M325,233.5405 L325,241.0405 A2.5,2.5 0 0 0 327.5,243.5405 L335,243.5405 L325,233.5405 " fill="url(#g19fr2y0qwta6n0)" style="stroke:#8B95A5;stroke-width:1.0;"/><text fill="#111827" font-family="Arial" font-size="14" lengthAdjust="spacing" textLength="207" x="81" y="251.6724">Aufnahme-Bundle wird gesendet</text><text fill="#111827" font-family="Arial" font-size="14" lengthAdjust="spacing" textLength="224" x="81" y="267.771">- Patient mit identifizierendem Profil</text><text fill="#111827" font-family="Arial" font-size="14" lengthAdjust="spacing" textLength="67" x="89" y="283.8696">- Kein bPK</text><text fill="#111827" font-family="Arial" font-size="14" lengthAdjust="spacing" textLength="70" x="89" y="299.9683">- Klarname</text><text fill="#111827" font-family="Arial" font-size="14" lengthAdjust="spacing" textLength="61" x="89" y="316.0669">- Adresse</text><text fill="#111827" font-family="Arial" font-size="14" lengthAdjust="spacing" textLength="239" x="81" y="332.1655">- alle weiteren Aufnahme-Ressourcen</text><path d="M605,358.1323 L605,390.1323 A5,5 0 0 0 610,395.1323 L760,395.1323 A5,5 0 0 0 765,390.1323 L765,363.1323 L755,353.1323 L610,353.1323 A5,5 0 0 0 605,358.1323 " fill="#C5F7BA" filter="url(#f19fr2y0qwta6n)" style="stroke:#8B95A5;stroke-width:1.0;"/><path d="M755,353.1323 L755,360.6323 A2.5,2.5 0 0 0 757.5,363.1323 L765,363.1323 L755,353.1323 " fill="#C5F7BA" style="stroke:#8B95A5;stroke-width:1.0;"/><text fill="#111827" font-family="Arial" font-size="14" lengthAdjust="spacing" textLength="56" x="611" y="371.2642">Zustand:</text><text fill="#111827" font-family="Arial" font-size="14" lengthAdjust="spacing" textLength="139" x="611" y="387.3628">- Moped Fall angelegt</text><!--SRC=[ZLHFJzim5B_dKpoL7RP39G84A0UaCi7GAhQ8iikqoqlyqbfrxCvsHWVQDzjjNsmlQTewD9jmB_7xz_jZksuXzH8jbf0PAyY-DyfOE3XiLkHsMSmNCsigBTgA8gb_GOMRep2FKi-WGEKeoBHjLfE5E1mggC1A-HkZ_ISi2GPZAr4D-YkcyeaWFkbFTca7DTfuWkS8uEgb03gaf3WS7eXOZEYqhWWDECz62IRRwCDSvWjDpa7CiVj0q3dlKnIY5bvF2TZ4SNn-TCQnwTOQRokAVeK4RtykoIgf5u64w-k-WYzQD1_K6XnwJzyhqlbQQOhMormkKVkEfAHPBmhsZhLPtQ9zW_VIcyFf93Qs7DKDOslDuqjZck3EswDDg0zncrXZ7NFe0pDVTZHk9wzJU-gEYvFYjDiP7ctdPAxCAb3GYVVv6cLc1ODl6lhMv1RUtf9z6duaLy74ebwGdcFbtlMM3-htHSben5Gnzup20z31uDzp1X5fmOzuzNyYtNLdbYHUKSTyygGuov3vB7S737TfmweP4n28iF96LsL6DegQ5sZbREx157N7PjJNoddKuY8QmeIa1bf9voLPgkzvI-q6bO9IUiOLaXp7f_bS_Vdj7Ac5AJEfqKkZ6-WQA8hOeU7b9UDSGFfv-W1li2eqpKlIBHNpWsexep77aUF3AxuVYk1HMW4pnc1upvnIdaoiaT512lwIXNngwPMGMbD8nRHQybawMMyKMit_PSrcB2pVA-9XB8CHIFgw7xRGzvmsbSqfLF0Qmm9tKCz8qSpl9lm5]--></g></svg>