<?xml version="1.0" encoding="us-ascii" standalone="no"?><svg xmlns="http://www.w3.org/2000/svg" xmlns:xlink="http://www.w3.org/1999/xlink" contentStyleType="text/css" height="482px" preserveAspectRatio="none" style="width:969px;height:482px;background:#F5F5F5;" version="1.1" viewBox="0 0 969 482" width="969px" zoomAndPan="magnify"><defs><filter height="300%" id="fv98lhdbwl45q" width="300%" x="-1" y="-1"><feGaussianBlur result="blurOut" stdDeviation="2.0"/><feColorMatrix in="blurOut" result="blurOut2" type="matrix" values="0 0 0 0 0 0 0 0 0 0 0 0 0 0 0 0 0 0 .4 0"/><feOffset dx="4.0" dy="4.0" in="blurOut2" result="blurOut3"/><feBlend in="SourceGraphic" in2="blurOut3" mode="normal"/></filter><linearGradient id="gv98lhdbwl45q0" x1="50%" x2="50%" y1="0%" y2="100%"><stop offset="0%" stop-color="#E0E5F0"/><stop offset="100%" stop-color="#D1D9E6"/></linearGradient></defs><g><rect fill="#F5F5F5" height="482" style="stroke:none;stroke-width:1.0;" width="969" x="0" y="0"/><rect fill="#F5E599" height="470.3296" rx="5" ry="5" style="stroke:#181818;stroke-width:0.5;" width="371" x="21" y="6"/><text fill="#000000" font-family="Arial" font-size="14" font-weight="bold" lengthAdjust="spacing" textLength="4" x="24" y="19.1318">&#160;</text><text fill="#000000" font-family="Arial" font-size="14" font-weight="bold" lengthAdjust="spacing" textLength="197" x="108" y="35.2305">KH (Herz-Jesu Krankenhaus)</text><rect fill="#C5F7BA" height="470.3296" rx="5" ry="5" style="stroke:#181818;stroke-width:0.5;" width="333" x="434" y="6"/><text fill="#000000" font-family="Arial" font-size="14" font-weight="bold" lengthAdjust="spacing" textLength="4" x="437" y="19.1318">&#160;</text><text fill="#000000" font-family="Arial" font-size="14" font-weight="bold" lengthAdjust="spacing" textLength="47" x="577" y="35.2305">Moped</text><line style="stroke:#181818;stroke-width:0.5;stroke-dasharray:5.0,5.0;" x1="206.5" x2="206.5" y1="118.2959" y2="397.231"/><line style="stroke:#181818;stroke-width:0.5;stroke-dasharray:5.0,5.0;" x1="600.5" x2="600.5" y1="118.2959" y2="397.231"/><text fill="#000000" font-family="Arial" font-size="14" lengthAdjust="spacing" textLength="186" x="110.5" y="115.3291">KH (Herz-Jesu Krankenhaus)</text><ellipse cx="206.5" cy="50.6973" fill="#E2E2F0" rx="8" ry="8" style="stroke:#181818;stroke-width:0.5;"/><path d="M206.5,58.6973 L206.5,85.6973 M193.5,66.6973 L219.5,66.6973 M206.5,85.6973 L193.5,100.6973 M206.5,85.6973 L219.5,100.6973 " fill="none" style="stroke:#181818;stroke-width:0.5;"/><text fill="#000000" font-family="Arial" font-size="14" lengthAdjust="spacing" textLength="186" x="110.5" y="409.3628">KH (Herz-Jesu Krankenhaus)</text><ellipse cx="206.5" cy="420.8296" fill="#E2E2F0" rx="8" ry="8" style="stroke:#181818;stroke-width:0.5;"/><path d="M206.5,428.8296 L206.5,455.8296 M193.5,436.8296 L219.5,436.8296 M206.5,455.8296 L193.5,470.8296 M206.5,455.8296 L219.5,470.8296 " fill="none" style="stroke:#181818;stroke-width:0.5;"/><rect fill="#FFFFFF" height="30.0986" rx="5" ry="5" style="stroke:#555555;stroke-width:0.5;" width="58" x="571.5" y="87.1973"/><text fill="#000000" font-family="Arial" font-size="14" lengthAdjust="spacing" textLength="44" x="578.5" y="107.3291">Moped</text><rect fill="#FFFFFF" height="30.0986" rx="5" ry="5" style="stroke:#555555;stroke-width:0.5;" width="58" x="571.5" y="396.231"/><text fill="#000000" font-family="Arial" font-size="14" lengthAdjust="spacing" textLength="44" x="578.5" y="416.3628">Moped</text><path d="M605,138.2959 L605,186.2959 A5,5 0 0 0 610,191.2959 L842,191.2959 A5,5 0 0 0 847,186.2959 L847,143.2959 L837,133.2959 L610,133.2959 A5,5 0 0 0 605,138.2959 " fill="#C5F7BA" filter="url(#fv98lhdbwl45q)" style="stroke:#8B95A5;stroke-width:1.0;"/><path d="M837,133.2959 L837,140.7959 A2.5,2.5 0 0 0 839.5,143.2959 L847,143.2959 L837,133.2959 " fill="#C5F7BA" style="stroke:#8B95A5;stroke-width:1.0;"/><text fill="#111827" font-family="Arial" font-size="14" lengthAdjust="spacing" textLength="56" x="611" y="151.4277">Zustand:</text><text fill="#111827" font-family="Arial" font-size="14" lengthAdjust="spacing" textLength="221" x="611" y="167.5264">- Kein existierender Moped Fall mit</text><text fill="#111827" font-family="Arial" font-size="14" lengthAdjust="spacing" textLength="180" x="619" y="183.625">dieser Schl&#252;sselkombination</text><line style="stroke:#111827;stroke-width:2.0;" x1="598.5" x2="588.5" y1="220.5405" y2="216.5405"/><line style="stroke:#111827;stroke-width:2.0;" x1="598.5" x2="588.5" y1="220.5405" y2="224.5405"/><line style="stroke:#111827;stroke-width:2.0;" x1="206.5" x2="599.5" y1="220.5405" y2="220.5405"/><text fill="#000000" font-family="Arial" font-size="13" font-weight="bold" lengthAdjust="spacing" textLength="7" x="213.5" y="215.7856">1</text><text fill="#000000" font-family="Arial" font-size="13" lengthAdjust="spacing" textLength="111" x="224.5" y="215.7856">POST $aufnehmen</text><path d="M71,238.5405 L71,302.5405 A5,5 0 0 0 76,307.5405 L333,307.5405 A5,5 0 0 0 338,302.5405 L338,243.5405 L328,233.5405 L76,233.5405 A5,5 0 0 0 71,238.5405 " fill="url(#gv98lhdbwl45q0)" filter="url(#fv98lhdbwl45q)" style="stroke:#8B95A5;stroke-width:1.0;"/><path d="M328,233.5405 L328,241.0405 A2.5,2.5 0 0 0 330.5,243.5405 L338,243.5405 L328,233.5405 " fill="url(#gv98lhdbwl45q0)" style="stroke:#8B95A5;stroke-width:1.0;"/><text fill="#111827" font-family="Arial" font-size="14" lengthAdjust="spacing" textLength="207" x="77" y="251.6724">Aufnahme-Bundle wird gesendet</text><text fill="#111827" font-family="Arial" font-size="14" lengthAdjust="spacing" textLength="246" x="77" y="267.771">- Selbstzahlerinformation als Coverage</text><text fill="#111827" font-family="Arial" font-size="14" lengthAdjust="spacing" textLength="152" x="77" y="283.8696">- kein Hauptversicherter</text><text fill="#111827" font-family="Arial" font-size="14" lengthAdjust="spacing" textLength="239" x="77" y="299.9683">- alle weiteren Aufnahme-Ressourcen</text><path d="M605,325.9351 L605,373.9351 A5,5 0 0 0 610,378.9351 L952,378.9351 A5,5 0 0 0 957,373.9351 L957,330.9351 L947,320.9351 L610,320.9351 A5,5 0 0 0 605,325.9351 " fill="#C5F7BA" filter="url(#fv98lhdbwl45q)" style="stroke:#8B95A5;stroke-width:1.0;"/><path d="M947,320.9351 L947,328.4351 A2.5,2.5 0 0 0 949.5,330.9351 L957,330.9351 L947,320.9351 " fill="#C5F7BA" style="stroke:#8B95A5;stroke-width:1.0;"/><text fill="#111827" font-family="Arial" font-size="14" lengthAdjust="spacing" textLength="56" x="611" y="339.0669">Zustand:</text><text fill="#111827" font-family="Arial" font-size="14" lengthAdjust="spacing" textLength="139" x="611" y="355.1655">- Moped Fall angelegt</text><text fill="#111827" font-family="Arial" font-size="14" lengthAdjust="spacing" textLength="331" x="611" y="371.2642">- Aufnahme- und Selbstzahlerinformation vollst&#228;ndig</text><!--SRC=[ZLDDJzmm4BtdLuoM7jh3IWHOO3aW0OAkYcXNBBrKlJZn9B7YsAdjm7Qh_fl-ZDxuOnrdlnmsL7WlsJVFC-yzsxOKgcQ6LP1emz5SQQaDxEstAxBRAalBtEX6yHKZ6_bVmB05u_f9g1mo9Yq6bTKsez1073RbcB56kXkjt6TM8GmkZ61oqC-OYGL2VDHVxCeEE4exX5yHmELB0xYFesn_kCTZFiPZpmW3E4t68pRQe0-5I4k5ra9Cs7rWw9J-JnddthZl4gY9u_Zqu8ImsIOQPngCVeS29pzhD5AeCh1mVTr7-Afu-u6hWCFiyKU3AbqwdJBZH2fgfbp7qgXTBmWxnzgkBcatu9to-d0wXNKi1tx3XJ7wwMKmBRZDzc0DzKtS59Qp3WdwIChhZiTDvsLfnzrXTfGTTtU6HzivcKiz3nnqyBvSeqJFOV1TGT-wdS3x2Ph5y1FQ1cuDKoMgWZNsGozzuDyNZiPZaifIHrEe0RCmUBtF84B5wH7F_o-ak-vqZVmDFDAJZhAJX96UUdl0S3TjLRLj0W4HQvnMJPMWwNwthz68l72WCxzxtVPROnrJ_2mQmYqA1JWNrWaqwE_yIkODan8guKW35sW9dwM5VFvhBSfILubGp0cjMXb-K1HHMiFpSvfp1jClimTunvfCOL6XMYhHZ-YJZIu8PWGFB-cgI8GdOJZaD8AcEv8qGvbOjs25H2DKfatLJW9wXd3bcx0SYLPwvHFMr8uWAz82ZIFNG-BvfYYSDmIRQVTqwNHZKWmrloMY80-cSfIOUvMRla0kNjNygAMqxlcFuYBVZlq7]--></g></svg>