<?xml version="1.0" encoding="us-ascii" standalone="no"?><svg xmlns="http://www.w3.org/2000/svg" xmlns:xlink="http://www.w3.org/1999/xlink" contentStyleType="text/css" height="450px" preserveAspectRatio="none" style="width:863px;height:450px;background:#F5F5F5;" version="1.1" viewBox="0 0 863 450" width="863px" zoomAndPan="magnify"><defs><filter height="300%" id="f1pjf90bbvc3s8" width="300%" x="-1" y="-1"><feGaussianBlur result="blurOut" stdDeviation="2.0"/><feColorMatrix in="blurOut" result="blurOut2" type="matrix" values="0 0 0 0 0 0 0 0 0 0 0 0 0 0 0 0 0 0 .4 0"/><feOffset dx="4.0" dy="4.0" in="blurOut2" result="blurOut3"/><feBlend in="SourceGraphic" in2="blurOut3" mode="normal"/></filter><linearGradient id="g1pjf90bbvc3s80" x1="50%" x2="50%" y1="0%" y2="100%"><stop offset="0%" stop-color="#E0E5F0"/><stop offset="100%" stop-color="#D1D9E6"/></linearGradient></defs><g><rect fill="#F5F5F5" height="450" style="stroke:none;stroke-width:1.0;" width="863" x="0" y="0"/><rect fill="#F5E599" height="438.1323" rx="5" ry="5" style="stroke:#181818;stroke-width:0.5;" width="371" x="21" y="6"/><text fill="#000000" font-family="Arial" font-size="14" font-weight="bold" lengthAdjust="spacing" textLength="4" x="24" y="19.1318">&#160;</text><text fill="#000000" font-family="Arial" font-size="14" font-weight="bold" lengthAdjust="spacing" textLength="197" x="108" y="35.2305">KA (Herz-Jesu Krankenhaus)</text><rect fill="#C5F7BA" height="438.1323" rx="5" ry="5" style="stroke:#181818;stroke-width:0.5;" width="333" x="434" y="6"/><text fill="#000000" font-family="Arial" font-size="14" font-weight="bold" lengthAdjust="spacing" textLength="4" x="437" y="19.1318">&#160;</text><text fill="#000000" font-family="Arial" font-size="14" font-weight="bold" lengthAdjust="spacing" textLength="47" x="577" y="35.2305">Moped</text><line style="stroke:#181818;stroke-width:0.5;stroke-dasharray:5.0,5.0;" x1="206.5" x2="206.5" y1="118.2959" y2="365.0337"/><line style="stroke:#181818;stroke-width:0.5;stroke-dasharray:5.0,5.0;" x1="600.5" x2="600.5" y1="118.2959" y2="365.0337"/><text fill="#000000" font-family="Arial" font-size="14" lengthAdjust="spacing" textLength="186" x="110.5" y="115.3291">KA (Herz-Jesu Krankenhaus)</text><ellipse cx="206.5" cy="50.6973" fill="#E2E2F0" rx="8" ry="8" style="stroke:#181818;stroke-width:0.5;"/><path d="M206.5,58.6973 L206.5,85.6973 M193.5,66.6973 L219.5,66.6973 M206.5,85.6973 L193.5,100.6973 M206.5,85.6973 L219.5,100.6973 " fill="none" style="stroke:#181818;stroke-width:0.5;"/><text fill="#000000" font-family="Arial" font-size="14" lengthAdjust="spacing" textLength="186" x="110.5" y="377.1655">KA (Herz-Jesu Krankenhaus)</text><ellipse cx="206.5" cy="388.6323" fill="#E2E2F0" rx="8" ry="8" style="stroke:#181818;stroke-width:0.5;"/><path d="M206.5,396.6323 L206.5,423.6323 M193.5,404.6323 L219.5,404.6323 M206.5,423.6323 L193.5,438.6323 M206.5,423.6323 L219.5,438.6323 " fill="none" style="stroke:#181818;stroke-width:0.5;"/><rect fill="#FFFFFF" height="30.0986" rx="5" ry="5" style="stroke:#555555;stroke-width:0.5;" width="58" x="571.5" y="87.1973"/><text fill="#000000" font-family="Arial" font-size="14" lengthAdjust="spacing" textLength="44" x="578.5" y="107.3291">Moped</text><rect fill="#FFFFFF" height="30.0986" rx="5" ry="5" style="stroke:#555555;stroke-width:0.5;" width="58" x="571.5" y="364.0337"/><text fill="#000000" font-family="Arial" font-size="14" lengthAdjust="spacing" textLength="44" x="578.5" y="384.1655">Moped</text><path d="M605,138.2959 L605,186.2959 A5,5 0 0 0 610,191.2959 L846,191.2959 A5,5 0 0 0 851,186.2959 L851,143.2959 L841,133.2959 L610,133.2959 A5,5 0 0 0 605,138.2959 " fill="#C5F7BA" filter="url(#f1pjf90bbvc3s8)" style="stroke:#8B95A5;stroke-width:1.0;"/><path d="M841,133.2959 L841,140.7959 A2.5,2.5 0 0 0 843.5,143.2959 L851,143.2959 L841,133.2959 " fill="#C5F7BA" style="stroke:#8B95A5;stroke-width:1.0;"/><text fill="#111827" font-family="Arial" font-size="14" lengthAdjust="spacing" textLength="56" x="611" y="151.4277">Zustand:</text><text fill="#111827" font-family="Arial" font-size="14" lengthAdjust="spacing" textLength="221" x="611" y="167.5264">- Kein existierender Moped Fall mit</text><text fill="#111827" font-family="Arial" font-size="14" lengthAdjust="spacing" textLength="180" x="619" y="183.625">dieser Schl&#252;sselkombination</text><line style="stroke:#111827;stroke-width:2.0;" x1="598.5" x2="588.5" y1="220.5405" y2="216.5405"/><line style="stroke:#111827;stroke-width:2.0;" x1="598.5" x2="588.5" y1="220.5405" y2="224.5405"/><line style="stroke:#111827;stroke-width:2.0;" x1="206.5" x2="599.5" y1="220.5405" y2="220.5405"/><text fill="#000000" font-family="Arial" font-size="13" font-weight="bold" lengthAdjust="spacing" textLength="7" x="213.5" y="215.7856">1</text><text fill="#000000" font-family="Arial" font-size="13" lengthAdjust="spacing" textLength="111" x="224.5" y="215.7856">POST $aufnehmen</text><path d="M51,238.5405 L51,286.5405 A5,5 0 0 0 56,291.5405 L354,291.5405 A5,5 0 0 0 359,286.5405 L359,243.5405 L349,233.5405 L56,233.5405 A5,5 0 0 0 51,238.5405 " fill="url(#g1pjf90bbvc3s80)" filter="url(#f1pjf90bbvc3s8)" style="stroke:#8B95A5;stroke-width:1.0;"/><path d="M349,233.5405 L349,241.0405 A2.5,2.5 0 0 0 351.5,243.5405 L359,243.5405 L349,233.5405 " fill="url(#g1pjf90bbvc3s80)" style="stroke:#8B95A5;stroke-width:1.0;"/><text fill="#111827" font-family="Arial" font-size="14" lengthAdjust="spacing" textLength="230" x="57" y="251.6724">Aufnahme-Bundle wird gesendet mit</text><text fill="#111827" font-family="Arial" font-size="14" lengthAdjust="spacing" textLength="287" x="57" y="267.771">- Aufnahmedaten mit Aufnahmeart "Transfer"</text><text fill="#111827" font-family="Arial" font-size="14" lengthAdjust="spacing" textLength="231" x="57" y="283.8696">- alle weiteren Aufnahme-Ressource</text><path d="M605,309.8364 L605,341.8364 A5,5 0 0 0 610,346.8364 L760,346.8364 A5,5 0 0 0 765,341.8364 L765,314.8364 L755,304.8364 L610,304.8364 A5,5 0 0 0 605,309.8364 " fill="#C5F7BA" filter="url(#f1pjf90bbvc3s8)" style="stroke:#8B95A5;stroke-width:1.0;"/><path d="M755,304.8364 L755,312.3364 A2.5,2.5 0 0 0 757.5,314.8364 L765,314.8364 L755,304.8364 " fill="#C5F7BA" style="stroke:#8B95A5;stroke-width:1.0;"/><text fill="#111827" font-family="Arial" font-size="14" lengthAdjust="spacing" textLength="56" x="611" y="322.9683">Zustand:</text><text fill="#111827" font-family="Arial" font-size="14" lengthAdjust="spacing" textLength="139" x="611" y="339.0669">- Moped Fall angelegt</text><!--SRC=[ZLDDRzf04BtxLuoS7jg39KpY17A815LIL9GM1NgfUXcyOrXXTkdkkj14_MUzzOzrRBxMu5OPBdZcxSnxRtRjGgeL6bp2L1j1vhtEjO6BLXM1FLOnNSoCBfJO8RAa_7a8EqUXrrBD8CFSabVP7JEA3CH-Kq4P5hbxqCfzmYL1s3CIyx0PCPRF1F5LSx5EsyCexGXU0e3-gG1gKPAreWiHYovTbmZVWCwqcs1oo4xcCbqeiXPYpZrvWZhyFK8XIk5b5uzD7CUTzWtdnWThd2ae-EKJ7FnSaScbMdWIxk-R05-KgFxGpc3VU_fUa4gtIaTed4pb2fMhIKggE06ShRMAEkZSuBFoVZcrmjwMTdcWPunUdnfJ9O_UjlUffec7mdRM9QS-CFDLJUEXyxPqfkuokygkwoVzrTOsqzSRJq4jt-HhCDKR2ByfQ8hX0DuEo3n77yaMC3Ie5gJcMDXtZV2mV5-KTBjC5LF7KxW1MWZ_tISCI0b-n9l_4wd7erwHU0ME-QH9TZD5vhCwBXWUHnMhger78C32QLKifsI2e7g1Hixc3dHMdjYt-bfOXqhS1X4CIIgWZRHEag7odk-eFM2Umr8wuC52akN2E9tdVtvRI_b2BwTIePDQLRFBIK705aLtTppe5aQVnnDuWqMcQBuajUEYVr3fPz3ZF78-wlC5oGdMqWYOyGoUxygXJ6oF4UX8LKJs6NO1mWalm6PaGeOoK-v1qfKA3h3eYM-MBanA7iNNMEBfHpMZd6RksE4l]--></g></svg>