<?xml version="1.0" encoding="us-ascii" standalone="no"?><svg xmlns="http://www.w3.org/2000/svg" xmlns:xlink="http://www.w3.org/1999/xlink" contentStyleType="text/css" height="434px" preserveAspectRatio="none" style="width:947px;height:434px;background:#F5F5F5;" version="1.1" viewBox="0 0 947 434" width="947px" zoomAndPan="magnify"><defs><filter height="300%" id="f1irjhd3w9btpn" width="300%" x="-1" y="-1"><feGaussianBlur result="blurOut" stdDeviation="2.0"/><feColorMatrix in="blurOut" result="blurOut2" type="matrix" values="0 0 0 0 0 0 0 0 0 0 0 0 0 0 0 0 0 0 .4 0"/><feOffset dx="4.0" dy="4.0" in="blurOut2" result="blurOut3"/><feBlend in="SourceGraphic" in2="blurOut3" mode="normal"/></filter><linearGradient id="g1irjhd3w9btpn0" x1="50%" x2="50%" y1="0%" y2="100%"><stop offset="0%" stop-color="#E0E5F0"/><stop offset="100%" stop-color="#D1D9E6"/></linearGradient></defs><g><rect fill="#F5F5F5" height="434" style="stroke:none;stroke-width:1.0;" width="947" x="0" y="0"/><rect fill="#F5E599" height="422.0337" rx="5" ry="5" style="stroke:#181818;stroke-width:0.5;" width="371" x="21" y="6"/><text fill="#000000" font-family="Arial" font-size="14" font-weight="bold" lengthAdjust="spacing" textLength="4" x="24" y="19.1318">&#160;</text><text fill="#000000" font-family="Arial" font-size="14" font-weight="bold" lengthAdjust="spacing" textLength="197" x="108" y="35.2305">KH (Herz-Jesu Krankenhaus)</text><rect fill="#C5F7BA" height="422.0337" rx="5" ry="5" style="stroke:#181818;stroke-width:0.5;" width="333" x="434" y="6"/><text fill="#000000" font-family="Arial" font-size="14" font-weight="bold" lengthAdjust="spacing" textLength="4" x="437" y="19.1318">&#160;</text><text fill="#000000" font-family="Arial" font-size="14" font-weight="bold" lengthAdjust="spacing" textLength="47" x="577" y="35.2305">Moped</text><line style="stroke:#181818;stroke-width:0.5;stroke-dasharray:5.0,5.0;" x1="206.5" x2="206.5" y1="118.2959" y2="348.9351"/><line style="stroke:#181818;stroke-width:0.5;stroke-dasharray:5.0,5.0;" x1="600.5" x2="600.5" y1="118.2959" y2="348.9351"/><text fill="#000000" font-family="Arial" font-size="14" lengthAdjust="spacing" textLength="186" x="110.5" y="115.3291">KH (Herz-Jesu Krankenhaus)</text><ellipse cx="206.5" cy="50.6973" fill="#E2E2F0" rx="8" ry="8" style="stroke:#181818;stroke-width:0.5;"/><path d="M206.5,58.6973 L206.5,85.6973 M193.5,66.6973 L219.5,66.6973 M206.5,85.6973 L193.5,100.6973 M206.5,85.6973 L219.5,100.6973 " fill="none" style="stroke:#181818;stroke-width:0.5;"/><text fill="#000000" font-family="Arial" font-size="14" lengthAdjust="spacing" textLength="186" x="110.5" y="361.0669">KH (Herz-Jesu Krankenhaus)</text><ellipse cx="206.5" cy="372.5337" fill="#E2E2F0" rx="8" ry="8" style="stroke:#181818;stroke-width:0.5;"/><path d="M206.5,380.5337 L206.5,407.5337 M193.5,388.5337 L219.5,388.5337 M206.5,407.5337 L193.5,422.5337 M206.5,407.5337 L219.5,422.5337 " fill="none" style="stroke:#181818;stroke-width:0.5;"/><rect fill="#FFFFFF" height="30.0986" rx="5" ry="5" style="stroke:#555555;stroke-width:0.5;" width="58" x="571.5" y="87.1973"/><text fill="#000000" font-family="Arial" font-size="14" lengthAdjust="spacing" textLength="44" x="578.5" y="107.3291">Moped</text><rect fill="#FFFFFF" height="30.0986" rx="5" ry="5" style="stroke:#555555;stroke-width:0.5;" width="58" x="571.5" y="347.9351"/><text fill="#000000" font-family="Arial" font-size="14" lengthAdjust="spacing" textLength="44" x="578.5" y="368.0669">Moped</text><path d="M605,138.2959 L605,170.2959 A5,5 0 0 0 610,175.2959 L760,175.2959 A5,5 0 0 0 765,170.2959 L765,143.2959 L755,133.2959 L610,133.2959 A5,5 0 0 0 605,138.2959 " fill="#C5F7BA" filter="url(#f1irjhd3w9btpn)" style="stroke:#8B95A5;stroke-width:1.0;"/><path d="M755,133.2959 L755,140.7959 A2.5,2.5 0 0 0 757.5,143.2959 L765,143.2959 L755,133.2959 " fill="#C5F7BA" style="stroke:#8B95A5;stroke-width:1.0;"/><text fill="#111827" font-family="Arial" font-size="14" lengthAdjust="spacing" textLength="56" x="611" y="151.4277">Zustand:</text><text fill="#111827" font-family="Arial" font-size="14" lengthAdjust="spacing" textLength="139" x="611" y="167.5264">- Moped Fall angelegt</text><line style="stroke:#111827;stroke-width:2.0;" x1="598.5" x2="588.5" y1="204.4419" y2="200.4419"/><line style="stroke:#111827;stroke-width:2.0;" x1="598.5" x2="588.5" y1="204.4419" y2="208.4419"/><line style="stroke:#111827;stroke-width:2.0;" x1="206.5" x2="599.5" y1="204.4419" y2="204.4419"/><text fill="#000000" font-family="Arial" font-size="13" font-weight="bold" lengthAdjust="spacing" textLength="7" x="213.5" y="199.687">1</text><text fill="#000000" font-family="Arial" font-size="13" lengthAdjust="spacing" textLength="86" x="224.5" y="199.687">POST $update</text><path d="M65,222.4419 L65,270.4419 A5,5 0 0 0 70,275.4419 L339,275.4419 A5,5 0 0 0 344,270.4419 L344,227.4419 L334,217.4419 L70,217.4419 A5,5 0 0 0 65,222.4419 " fill="url(#g1irjhd3w9btpn0)" filter="url(#f1irjhd3w9btpn)" style="stroke:#8B95A5;stroke-width:1.0;"/><path d="M334,217.4419 L334,224.9419 A2.5,2.5 0 0 0 336.5,227.4419 L344,227.4419 L334,217.4419 " fill="url(#g1irjhd3w9btpn0)" style="stroke:#8B95A5;stroke-width:1.0;"/><text fill="#111827" font-family="Arial" font-size="14" lengthAdjust="spacing" textLength="188" x="71" y="235.5737">Update-Bundle wird gesendet</text><text fill="#111827" font-family="Arial" font-size="14" lengthAdjust="spacing" textLength="224" x="71" y="251.6724">- Versichertenanspruch (Coverage)</text><text fill="#111827" font-family="Arial" font-size="14" lengthAdjust="spacing" textLength="258" x="71" y="267.771">- ggf. Hauptversicherter (RelatedPerson)</text><path d="M605,293.7378 L605,325.7378 A5,5 0 0 0 610,330.7378 L930,330.7378 A5,5 0 0 0 935,325.7378 L935,298.7378 L925,288.7378 L610,288.7378 A5,5 0 0 0 605,293.7378 " fill="#C5F7BA" filter="url(#f1irjhd3w9btpn)" style="stroke:#8B95A5;stroke-width:1.0;"/><path d="M925,288.7378 L925,296.2378 A2.5,2.5 0 0 0 927.5,298.7378 L935,298.7378 L925,288.7378 " fill="#C5F7BA" style="stroke:#8B95A5;stroke-width:1.0;"/><text fill="#111827" font-family="Arial" font-size="14" lengthAdjust="spacing" textLength="56" x="611" y="306.8696">Zustand:</text><text fill="#111827" font-family="Arial" font-size="14" lengthAdjust="spacing" textLength="309" x="611" y="322.9683">- Aufnahme- und Versicherungsdaten vollst&#228;ndig</text><!--SRC=[ZLD9Rjj04Bpp5Gqv1_kWG9HDM_B1W6NO4M8u4Rpa4EJIuZGNYEfXPf4K1_bDVfAFPKXh6LfCuD55xAwkgQh6w5dE9IgSmrGgGUfA5bB1GQy-WTvrCPwbIbeMQqGILJyFeJCKSfbp2WaMchpEUamnAGXzKa49siBSI3QVS4xGkLGv5frsn4F-J12Uj3URiZqCIqFmCm0OlJP0FOgINlT0X698fnN23s0m7KOORQkFMHxFcBI6qDNkFKC3zpr18IhZ5Okd9Wp3GV_CrHwsqHXbAVZb2np_A4aLESyy2zVNRO0d5lKVMWViPq_VBN7yudI2okHnNYARXgMeFgy0UskjJnEq7_1UUxESHcCJIxyQk5HABby7KnTtsVOtfRORjusNkuvTwODJNZOyRfbVMdlkZfEJvBGvwQ-siPcHN7aE6lMsN8EfN47d6qFRkHt3uPZKS_SZQGkt2db6dA7LHwtmJlM-A1eEdLICZRl54Q26phzvEW6nS8zuzNyXpNCdIn9lm3azSPISJT7fANSBXhj9hQgcyGIWDPBjV4eg2Ee7gF8qCo2JQc33zDLgWopEW-vQnWqM1I2dL51gQh9gDWYSv-x5XHizXyddXqTuPqk1LQEcbWkgqWcUwc9tv9PT42np9I0bxLZ8k1k-aD9vd94onCYwL3REuF2g6iQKZXmYJPFtC4PRciKEg-3mdWh7AoQkAFd8a_KMOvSsOSpcr0KdQoV2SgehjGmBMHJQ_FdD8aztt7y1]--></g></svg>