<?xml version="1.0" encoding="us-ascii" standalone="no"?><svg xmlns="http://www.w3.org/2000/svg" xmlns:xlink="http://www.w3.org/1999/xlink" contentStyleType="text/css" height="593px" preserveAspectRatio="none" style="width:804px;height:593px;background:#F5F5F5;" version="1.1" viewBox="0 0 804 593" width="804px" zoomAndPan="magnify"><defs><filter height="300%" id="fsevg3u80fzn" width="300%" x="-1" y="-1"><feGaussianBlur result="blurOut" stdDeviation="2.0"/><feColorMatrix in="blurOut" result="blurOut2" type="matrix" values="0 0 0 0 0 0 0 0 0 0 0 0 0 0 0 0 0 0 .4 0"/><feOffset dx="4.0" dy="4.0" in="blurOut2" result="blurOut3"/><feBlend in="SourceGraphic" in2="blurOut3" mode="normal"/></filter><linearGradient id="gsevg3u80fzn0" x1="50%" x2="50%" y1="0%" y2="100%"><stop offset="0%" stop-color="#E0E5F0"/><stop offset="100%" stop-color="#D1D9E6"/></linearGradient></defs><g><rect fill="#F5F5F5" height="593" style="stroke:none;stroke-width:1.0;" width="804" x="0" y="0"/><rect fill="#F5E599" height="581.377" rx="5" ry="5" style="stroke:#181818;stroke-width:0.5;" width="371" x="21" y="6"/><text fill="#000000" font-family="Arial" font-size="14" font-weight="bold" lengthAdjust="spacing" textLength="4" x="24" y="19.1318">&#160;</text><text fill="#000000" font-family="Arial" font-size="14" font-weight="bold" lengthAdjust="spacing" textLength="197" x="108" y="35.2305">KA (Herz-Jesu Krankenhaus)</text><rect fill="#C5F7BA" height="581.377" rx="5" ry="5" style="stroke:#181818;stroke-width:0.5;" width="333" x="465" y="6"/><text fill="#000000" font-family="Arial" font-size="14" font-weight="bold" lengthAdjust="spacing" textLength="4" x="468" y="19.1318">&#160;</text><text fill="#000000" font-family="Arial" font-size="14" font-weight="bold" lengthAdjust="spacing" textLength="47" x="608" y="35.2305">Moped</text><rect fill="#FFFFFF" height="28" style="stroke:#181818;stroke-width:1.0;" width="10" x="626.5" y="328.7852"/><line style="stroke:#181818;stroke-width:0.5;stroke-dasharray:5.0,5.0;" x1="206.5" x2="206.5" y1="118.2959" y2="508.2783"/><line style="stroke:#181818;stroke-width:0.5;stroke-dasharray:5.0,5.0;" x1="631.5" x2="631.5" y1="118.2959" y2="508.2783"/><text fill="#000000" font-family="Arial" font-size="14" lengthAdjust="spacing" textLength="186" x="110.5" y="115.3291">KA (Herz-Jesu Krankenhaus)</text><ellipse cx="206.5" cy="50.6973" fill="#E2E2F0" rx="8" ry="8" style="stroke:#181818;stroke-width:0.5;"/><path d="M206.5,58.6973 L206.5,85.6973 M193.5,66.6973 L219.5,66.6973 M206.5,85.6973 L193.5,100.6973 M206.5,85.6973 L219.5,100.6973 " fill="none" style="stroke:#181818;stroke-width:0.5;"/><text fill="#000000" font-family="Arial" font-size="14" lengthAdjust="spacing" textLength="186" x="110.5" y="520.4102">KA (Herz-Jesu Krankenhaus)</text><ellipse cx="206.5" cy="531.877" fill="#E2E2F0" rx="8" ry="8" style="stroke:#181818;stroke-width:0.5;"/><path d="M206.5,539.877 L206.5,566.877 M193.5,547.877 L219.5,547.877 M206.5,566.877 L193.5,581.877 M206.5,566.877 L219.5,581.877 " fill="none" style="stroke:#181818;stroke-width:0.5;"/><rect fill="#FFFFFF" height="30.0986" rx="5" ry="5" style="stroke:#555555;stroke-width:0.5;" width="58" x="602.5" y="87.1973"/><text fill="#000000" font-family="Arial" font-size="14" lengthAdjust="spacing" textLength="44" x="609.5" y="107.3291">Moped</text><rect fill="#FFFFFF" height="30.0986" rx="5" ry="5" style="stroke:#555555;stroke-width:0.5;" width="58" x="602.5" y="507.2783"/><text fill="#000000" font-family="Arial" font-size="14" lengthAdjust="spacing" textLength="44" x="609.5" y="527.4102">Moped</text><rect fill="#FFFFFF" height="28" style="stroke:#181818;stroke-width:1.0;" width="10" x="626.5" y="328.7852"/><path d="M472,138.2959 L472,218.2959 A5,5 0 0 0 477,223.2959 L783,223.2959 A5,5 0 0 0 788,218.2959 L788,143.2959 L778,133.2959 L477,133.2959 A5,5 0 0 0 472,138.2959 " fill="#C5F7BA" filter="url(#fsevg3u80fzn)" style="stroke:#8B95A5;stroke-width:1.0;"/><path d="M778,133.2959 L778,140.7959 A2.5,2.5 0 0 0 780.5,143.2959 L788,143.2959 L778,133.2959 " fill="#C5F7BA" style="stroke:#8B95A5;stroke-width:1.0;"/><text fill="#111827" font-family="Arial" font-size="14" lengthAdjust="spacing" textLength="56" x="478" y="151.4277">Zustand:</text><text fill="#111827" font-family="Arial" font-size="14" lengthAdjust="spacing" textLength="250" x="478" y="167.5264">- Aufenthalts-/Besuchsdaten vollst&#228;ndig</text><text fill="#111827" font-family="Arial" font-size="14" lengthAdjust="spacing" textLength="279" x="494" y="183.625">(inklusive Entlassung bei station&#228;ren F&#228;llen)</text><text fill="#111827" font-family="Arial" font-size="14" lengthAdjust="spacing" textLength="177" x="478" y="199.7236">- Hauptdiagnose vorhanden</text><text fill="#111827" font-family="Arial" font-size="14" lengthAdjust="spacing" textLength="196" x="478" y="215.8223">- Keine endg&#252;ltige Abrechnung</text><line style="stroke:#111827;stroke-width:2.0;" x1="629.5" x2="619.5" y1="252.7378" y2="248.7378"/><line style="stroke:#111827;stroke-width:2.0;" x1="629.5" x2="619.5" y1="252.7378" y2="256.7378"/><line style="stroke:#111827;stroke-width:2.0;" x1="206.5" x2="630.5" y1="252.7378" y2="252.7378"/><text fill="#000000" font-family="Arial" font-size="13" font-weight="bold" lengthAdjust="spacing" textLength="7" x="213.5" y="247.9829">1</text><text fill="#000000" font-family="Arial" font-size="13" lengthAdjust="spacing" textLength="191" x="224.5" y="247.9829">$abrechnen (POST LKFRequest)</text><path d="M59,270.7378 L59,286.7378 A5,5 0 0 0 64,291.7378 L345,291.7378 A5,5 0 0 0 350,286.7378 L350,275.7378 L340,265.7378 L64,265.7378 A5,5 0 0 0 59,270.7378 " fill="url(#gsevg3u80fzn0)" filter="url(#fsevg3u80fzn)" style="stroke:#8B95A5;stroke-width:1.0;"/><path d="M340,265.7378 L340,273.2378 A2.5,2.5 0 0 0 342.5,275.7378 L350,275.7378 L340,265.7378 " fill="url(#gsevg3u80fzn0)" style="stroke:#8B95A5;stroke-width:1.0;"/><text fill="#111827" font-family="Arial" font-size="14" lengthAdjust="spacing" textLength="270" x="65" y="283.8696">Die Abrechnung ist als "vorl&#228;ufig" markiert.</text><line style="stroke:#111827;stroke-width:2.0;" x1="636.5" x2="678.5" y1="320.7852" y2="320.7852"/><line style="stroke:#111827;stroke-width:2.0;" x1="678.5" x2="678.5" y1="320.7852" y2="333.7852"/><line style="stroke:#111827;stroke-width:2.0;" x1="637.5" x2="678.5" y1="333.7852" y2="333.7852"/><polygon fill="#111827" points="647.5,329.7852,637.5,333.7852,647.5,337.7852,643.5,333.7852" style="stroke:#111827;stroke-width:1.0;"/><text fill="#000000" font-family="Arial" font-size="13" font-weight="bold" lengthAdjust="spacing" textLength="7" x="643.5" y="316.0303">2</text><text fill="#000000" font-family="Arial" font-size="13" lengthAdjust="spacing" textLength="92" x="654.5" y="316.0303">&#9733;&#10022;&#9733;&#10022;&#9733;&#10022;&#9733;&#10022;</text><path d="M482,381.7852 L482,429.7852 A5,5 0 0 0 487,434.7852 L773,434.7852 A5,5 0 0 0 778,429.7852 L778,386.7852 L768,376.7852 L487,376.7852 A5,5 0 0 0 482,381.7852 " fill="url(#gsevg3u80fzn0)" filter="url(#fsevg3u80fzn)" style="stroke:#8B95A5;stroke-width:1.0;"/><path d="M768,376.7852 L768,384.2852 A2.5,2.5 0 0 0 770.5,386.7852 L778,386.7852 L768,376.7852 " fill="url(#gsevg3u80fzn0)" style="stroke:#8B95A5;stroke-width:1.0;"/><text fill="#111827" font-family="Arial" font-size="14" lengthAdjust="spacing" textLength="246" x="488" y="394.917">durch den neuen LKFRequest wird der</text><text fill="#111827" font-family="Arial" font-size="14" lengthAdjust="spacing" textLength="271" x="488" y="411.0156">vorherige LKFRequest (falls einer existiert)</text><text fill="#111827" font-family="Arial" font-size="14" lengthAdjust="spacing" textLength="157" x="488" y="427.1143">automatisch gecancelled</text><path d="M500,453.0811 L500,485.0811 A5,5 0 0 0 505,490.0811 L755,490.0811 A5,5 0 0 0 760,485.0811 L760,458.0811 L750,448.0811 L505,448.0811 A5,5 0 0 0 500,453.0811 " fill="#C5F7BA" filter="url(#fsevg3u80fzn)" style="stroke:#8B95A5;stroke-width:1.0;"/><path d="M750,448.0811 L750,455.5811 A2.5,2.5 0 0 0 752.5,458.0811 L760,458.0811 L750,448.0811 " fill="#C5F7BA" style="stroke:#8B95A5;stroke-width:1.0;"/><text fill="#111827" font-family="Arial" font-size="14" lengthAdjust="spacing" textLength="56" x="506" y="466.2129">Zustand:</text><text fill="#111827" font-family="Arial" font-size="14" lengthAdjust="spacing" textLength="239" x="506" y="482.3115">- Abrechnung unbeantwortet vorl&#228;ufig</text><!--SRC=[ZLJDSX914BxFKtHjFC013Oaa8OTK4Ksan2YLn8lbPNQdTvbYcS7v0OpbqNVmu97oARpn9daIUvS0im5_cYfgjxldww-_tXuxb6hC3Hz1h8r0yqBdsi3UVcdCRg8y6MP6UoKUCj9MyGiox80BFPKgWvJd5eF8mp6Zq40p11MOSf-xIwtSMpv2Y3f6yZpQdN4Zxn2QptS7gxI37AKTmXS6SFwu0Tp7LhhVs1DDqSQZ8YCKu2HkjtXhxRqTo6Ieq5feakywQEY4tljSYABn0YLWqsmsJmwEoNUpbiOPZ-nhIB3xUOmcbseOj71niIlXlHBb0pu876gFdpogPDbfdnid4pdcobLQQfNsA65hhALLaxO5tWglXbC9h6GvA0vqZD7JnyAKpess1olNhehhmBBM8RbU4VDnfSSryZAqrTrX-ZmzgfuCHrkPpBcU1HrK_BjqPR6UGVHHmIxhTQ7MHNFNU8tMGyzmDKGruDxMTwP7nNvXgzqcgZnnL8K0k8NeppWHGoLeYMT_9rArApr6yHzvn2TffSSn9pxZpO3Xgb-oAc420cJSEwtyA4R3MBc3UaBBGlahe0_UEgx4AMj0nwUet83dpZQUdLDZoS0Axb31HEUvTOkv4Z9Z1P4QxK7khPmWN2YNSsizZIT62OJcf5QBkQ5pbujvdgEg4tYN-x4JacTAMoH0Cw2gg2ZImsANY7Is-9KxcI5qOeF9G15asKl1cp6Il75sHjHFuGbV9b25Ml_TpIsywLrU5wjdNJriizTbBsK81z8weAM5Y0ZaYxbFPHR1Y9kXHEEU1jL8eSQosFttR_S_Vcx_C_eWv8JaeImcC7ohACs4Dyc0Baa52kbs2CZ2L1f14GEi40HDqNmGhj45GsGBVGpWZCWNDEjGJdL4Ebi2pZ3XTEMGpYBW_yzPRpJnAaRwYARQE7Im4MQ3zXi0]--></g></svg>