<?xml version="1.0" encoding="us-ascii" standalone="no"?><svg xmlns="http://www.w3.org/2000/svg" xmlns:xlink="http://www.w3.org/1999/xlink" contentStyleType="text/css" height="625px" preserveAspectRatio="none" style="width:814px;height:625px;background:#F5F5F5;" version="1.1" viewBox="0 0 814 625" width="814px" zoomAndPan="magnify"><defs><filter height="300%" id="f12gbbn6ylye2y" width="300%" x="-1" y="-1"><feGaussianBlur result="blurOut" stdDeviation="2.0"/><feColorMatrix in="blurOut" result="blurOut2" type="matrix" values="0 0 0 0 0 0 0 0 0 0 0 0 0 0 0 0 0 0 .4 0"/><feOffset dx="4.0" dy="4.0" in="blurOut2" result="blurOut3"/><feBlend in="SourceGraphic" in2="blurOut3" mode="normal"/></filter><linearGradient id="g12gbbn6ylye2y0" x1="50%" x2="50%" y1="0%" y2="100%"><stop offset="0%" stop-color="#E0E5F0"/><stop offset="100%" stop-color="#D1D9E6"/></linearGradient></defs><g><rect fill="#F5F5F5" height="625" style="stroke:none;stroke-width:1.0;" width="814" x="0" y="0"/><rect fill="#F5E599" height="613.5742" rx="5" ry="5" style="stroke:#181818;stroke-width:0.5;" width="371" x="21" y="6"/><text fill="#000000" font-family="Arial" font-size="14" font-weight="bold" lengthAdjust="spacing" textLength="4" x="24" y="19.1318">&#160;</text><text fill="#000000" font-family="Arial" font-size="14" font-weight="bold" lengthAdjust="spacing" textLength="197" x="108" y="35.2305">KA (Herz-Jesu Krankenhaus)</text><rect fill="#C5F7BA" height="613.5742" rx="5" ry="5" style="stroke:#181818;stroke-width:0.5;" width="333" x="465.5" y="6"/><text fill="#000000" font-family="Arial" font-size="14" font-weight="bold" lengthAdjust="spacing" textLength="4" x="468.5" y="19.1318">&#160;</text><text fill="#000000" font-family="Arial" font-size="14" font-weight="bold" lengthAdjust="spacing" textLength="47" x="608.5" y="35.2305">Moped</text><rect fill="#FFFFFF" height="28" style="stroke:#181818;stroke-width:1.0;" width="10" x="627" y="360.9824"/><line style="stroke:#181818;stroke-width:0.5;stroke-dasharray:5.0,5.0;" x1="206" x2="206" y1="118.2959" y2="540.4756"/><line style="stroke:#181818;stroke-width:0.5;stroke-dasharray:5.0,5.0;" x1="632" x2="632" y1="118.2959" y2="540.4756"/><text fill="#000000" font-family="Arial" font-size="14" lengthAdjust="spacing" textLength="185" x="111" y="115.3291">KA (Herz-Jesu Krankenhaus)</text><ellipse cx="206.5" cy="50.6973" fill="#E2E2F0" rx="8" ry="8" style="stroke:#181818;stroke-width:0.5;"/><path d="M206.5,58.6973 L206.5,85.6973 M193.5,66.6973 L219.5,66.6973 M206.5,85.6973 L193.5,100.6973 M206.5,85.6973 L219.5,100.6973 " fill="none" style="stroke:#181818;stroke-width:0.5;"/><text fill="#000000" font-family="Arial" font-size="14" lengthAdjust="spacing" textLength="185" x="111" y="552.6074">KA (Herz-Jesu Krankenhaus)</text><ellipse cx="206.5" cy="564.0742" fill="#E2E2F0" rx="8" ry="8" style="stroke:#181818;stroke-width:0.5;"/><path d="M206.5,572.0742 L206.5,599.0742 M193.5,580.0742 L219.5,580.0742 M206.5,599.0742 L193.5,614.0742 M206.5,599.0742 L219.5,614.0742 " fill="none" style="stroke:#181818;stroke-width:0.5;"/><rect fill="#FFFFFF" height="30.0986" rx="5" ry="5" style="stroke:#555555;stroke-width:0.5;" width="58" x="603" y="87.1973"/><text fill="#000000" font-family="Arial" font-size="14" lengthAdjust="spacing" textLength="44" x="610" y="107.3291">Moped</text><rect fill="#FFFFFF" height="30.0986" rx="5" ry="5" style="stroke:#555555;stroke-width:0.5;" width="58" x="603" y="539.4756"/><text fill="#000000" font-family="Arial" font-size="14" lengthAdjust="spacing" textLength="44" x="610" y="559.6074">Moped</text><rect fill="#FFFFFF" height="28" style="stroke:#181818;stroke-width:1.0;" width="10" x="627" y="360.9824"/><path d="M458,138.2959 L458,250.2959 A5,5 0 0 0 463,255.2959 L797,255.2959 A5,5 0 0 0 802,250.2959 L802,143.2959 L792,133.2959 L463,133.2959 A5,5 0 0 0 458,138.2959 " fill="#C5F7BA" filter="url(#f12gbbn6ylye2y)" style="stroke:#8B95A5;stroke-width:1.0;"/><path d="M792,133.2959 L792,140.7959 A2.5,2.5 0 0 0 794.5,143.2959 L802,143.2959 L792,133.2959 " fill="#C5F7BA" style="stroke:#8B95A5;stroke-width:1.0;"/><text fill="#111827" font-family="Arial" font-size="14" lengthAdjust="spacing" textLength="56" x="464" y="151.4277">Zustand:</text><text fill="#111827" font-family="Arial" font-size="14" lengthAdjust="spacing" textLength="250" x="464" y="167.5264">- Aufenthalts-/Besuchsdaten vollst&#228;ndig</text><text fill="#111827" font-family="Arial" font-size="14" lengthAdjust="spacing" textLength="279" x="480" y="183.625">(inklusive Entlassung bei station&#228;ren F&#228;llen)</text><text fill="#111827" font-family="Arial" font-size="14" lengthAdjust="spacing" textLength="177" x="464" y="199.7236">- Hauptdiagnose vorhanden</text><text fill="#111827" font-family="Arial" font-size="14" lengthAdjust="spacing" textLength="323" x="464" y="215.8223">- keine vorl&#228;ufige/finale Abrechnung unbeantwortet</text><text fill="#111827" font-family="Arial" font-size="14" lengthAdjust="spacing" textLength="233" x="464" y="231.9209">- keine finale Abrechnung genehmigt</text><text fill="#111827" font-family="Arial" font-size="14" lengthAdjust="spacing" textLength="4" x="464" y="248.0195">&#160;</text><line style="stroke:#111827;stroke-width:2.0;" x1="630" x2="620" y1="284.9351" y2="280.9351"/><line style="stroke:#111827;stroke-width:2.0;" x1="630" x2="620" y1="284.9351" y2="288.9351"/><line style="stroke:#111827;stroke-width:2.0;" x1="206.5" x2="631" y1="284.9351" y2="284.9351"/><text fill="#000000" font-family="Arial" font-size="13" font-weight="bold" lengthAdjust="spacing" textLength="7" x="213.5" y="280.1802">1</text><text fill="#000000" font-family="Arial" font-size="13" lengthAdjust="spacing" textLength="191" x="224.5" y="280.1802">$abrechnen (POST LKFRequest)</text><path d="M73,302.9351 L73,318.9351 A5,5 0 0 0 78,323.9351 L331,323.9351 A5,5 0 0 0 336,318.9351 L336,307.9351 L326,297.9351 L78,297.9351 A5,5 0 0 0 73,302.9351 " fill="url(#g12gbbn6ylye2y0)" filter="url(#f12gbbn6ylye2y)" style="stroke:#8B95A5;stroke-width:1.0;"/><path d="M326,297.9351 L326,305.4351 A2.5,2.5 0 0 0 328.5,307.9351 L336,307.9351 L326,297.9351 " fill="url(#g12gbbn6ylye2y0)" style="stroke:#8B95A5;stroke-width:1.0;"/><text fill="#111827" font-family="Arial" font-size="14" lengthAdjust="spacing" textLength="242" x="79" y="316.0669">Die Abrechnung ist als "final" markiert.</text><line style="stroke:#111827;stroke-width:2.0;" x1="637" x2="679" y1="352.9824" y2="352.9824"/><line style="stroke:#111827;stroke-width:2.0;" x1="679" x2="679" y1="352.9824" y2="365.9824"/><line style="stroke:#111827;stroke-width:2.0;" x1="638" x2="679" y1="365.9824" y2="365.9824"/><polygon fill="#111827" points="648,361.9824,638,365.9824,648,369.9824,644,365.9824" style="stroke:#111827;stroke-width:1.0;"/><text fill="#000000" font-family="Arial" font-size="13" font-weight="bold" lengthAdjust="spacing" textLength="7" x="644" y="348.2275">2</text><text fill="#000000" font-family="Arial" font-size="13" lengthAdjust="spacing" textLength="92" x="655" y="348.2275">&#9733;&#10022;&#9733;&#10022;&#9733;&#10022;&#9733;&#10022;</text><path d="M484,413.9824 L484,461.9824 A5,5 0 0 0 489,466.9824 L771,466.9824 A5,5 0 0 0 776,461.9824 L776,418.9824 L766,408.9824 L489,408.9824 A5,5 0 0 0 484,413.9824 " fill="url(#g12gbbn6ylye2y0)" filter="url(#f12gbbn6ylye2y)" style="stroke:#8B95A5;stroke-width:1.0;"/><path d="M766,408.9824 L766,416.4824 A2.5,2.5 0 0 0 768.5,418.9824 L776,418.9824 L766,408.9824 " fill="url(#g12gbbn6ylye2y0)" style="stroke:#8B95A5;stroke-width:1.0;"/><text fill="#111827" font-family="Arial" font-size="14" lengthAdjust="spacing" textLength="246" x="490" y="427.1143">durch den neuen LKFRequest wird der</text><text fill="#111827" font-family="Arial" font-size="14" lengthAdjust="spacing" textLength="271" x="490" y="443.2129">vorherige LKFRequest (falls einer existiert)</text><text fill="#111827" font-family="Arial" font-size="14" lengthAdjust="spacing" textLength="157" x="490" y="459.3115">automatisch gecancelled</text><path d="M510,485.2783 L510,517.2783 A5,5 0 0 0 515,522.2783 L745,522.2783 A5,5 0 0 0 750,517.2783 L750,490.2783 L740,480.2783 L515,480.2783 A5,5 0 0 0 510,485.2783 " fill="#C5F7BA" filter="url(#f12gbbn6ylye2y)" style="stroke:#8B95A5;stroke-width:1.0;"/><path d="M740,480.2783 L740,487.7783 A2.5,2.5 0 0 0 742.5,490.2783 L750,490.2783 L740,480.2783 " fill="#C5F7BA" style="stroke:#8B95A5;stroke-width:1.0;"/><text fill="#111827" font-family="Arial" font-size="14" lengthAdjust="spacing" textLength="56" x="516" y="498.4102">Zustand:</text><text fill="#111827" font-family="Arial" font-size="14" lengthAdjust="spacing" textLength="219" x="516" y="514.5088">- finale Abrechnung unbeantwortet</text><!--SRC=[ZLJDJjj04BxlKwnC3-6GGe00uO0KMYXgIXi1lLIzhBrZUnLdDjsV9ANgiU_GGuzHNoHlmfDqx92m9cdfHehicM-__UORpzg1mf4mOiXZRIIOLxhGXc_jLelPnwn81fdH7kK38csNlm1XSo7rH676Kr5O238Fsmo2uQsGL48gVE4kDBhtOWWywXebYcWpuaRT0MyTR4xMPGSOr0xuDyRvsTC2O1VQwMvpIxPa1mvBH6Z0STnfY_OgUfkhP81WBMzHx3eew9ZU-qBAil2I9L3JQhMEzuueThEonXaFx7ieyFBh24oXS12KS7w-2V0HPVK03mQ7tiCN3vWiAkqBurIYHW9ThQHsjPu0rjfQhJfetU2rzB8vjSJIbhroGzSOFNbgJ1Lyz7Pl6TfquYgnE6kVGcz8-QXMuufvaLghRZyzI0_hEyFMrZfpfgT11RNu9bzPhASy-enyq-frUUCIp5tpBLZFUqRW030NtcvlX4VbV46xqo6f8d5q2X48owE_yqGCKD8GJ_yjfBwkz0ZaV-18Jz9EZs91UaQF3UPN_KfLHHC8e2Myq-Y7CHZ6gXdKOneMmY-9Fddh1CeJrkHTdmAwN1JEDdVEgB0ajr8uG3xMHM7TV8PIPQmKqg0vABnLO-3dw0fXhQVsnA0uiJcbSJupjEzYFYiAm6qYlnH-vAGI6MeBH6XoEXMGCWCePuaYnNpcKvN1JgfG5C2xiO4anvBPOmnKw4GR1swrPnsN0K8-L9bZbGjbnOnHivgdfrJq2NyX5bZIrkX_kBdbxteNr-NGMhST6jJhijUgngoiupJkFAeEZVXGc842uru61v6jpSKvzpz_tF_wlVxFw2jIO_AKK4n2-5Ph3vFU93dThCWHw4e9TFA9Cf8oXfKcWY73mco3BYMIMVfZE4n9Tgbok_eGXjGQIxGP989kAMgD3DG_ztayrvKLqny0]--></g></svg>