<?xml version="1.0" encoding="us-ascii" standalone="no"?><svg xmlns="http://www.w3.org/2000/svg" xmlns:xlink="http://www.w3.org/1999/xlink" contentStyleType="text/css" height="734px" preserveAspectRatio="none" style="width:637px;height:734px;background:#FFFFFF;" version="1.1" viewBox="0 0 637 734" width="637px" zoomAndPan="magnify"><defs/><g><g id="A"><rect fill="#F1F1F1" height="50" rx="12.5" ry="12.5" style="stroke:#181818;stroke-width:0.5;" width="147" x="381.58" y="87"/><line style="stroke:#181818;stroke-width:0.5;" x1="381.58" x2="528.58" y1="113.4883" y2="113.4883"/><text fill="#000000" font-family="sans-serif" font-size="14" lengthAdjust="spacing" textLength="127" x="391.58" y="105.5352">Keine Abrechnung</text></g><g id="B"><rect fill="#F1F1F1" height="50" rx="12.5" ry="12.5" style="stroke:#181818;stroke-width:0.5;" width="187" x="215.58" y="214"/><line style="stroke:#181818;stroke-width:0.5;" x1="215.58" x2="402.58" y1="240.4883" y2="240.4883"/><text fill="#000000" font-family="sans-serif" font-size="14" lengthAdjust="spacing" textLength="167" x="225.58" y="232.5352">Unbeantwortet vorl&#228;ufig</text></g><g id="C"><rect fill="#F1F1F1" height="50" rx="12.5" ry="12.5" style="stroke:#181818;stroke-width:0.5;" width="160" x="51.08" y="341"/><line style="stroke:#181818;stroke-width:0.5;" x1="51.08" x2="211.08" y1="367.4883" y2="367.4883"/><text fill="#000000" font-family="sans-serif" font-size="14" lengthAdjust="spacing" textLength="140" x="61.08" y="359.5352">Genehmigt vorl&#228;ufig</text></g><g id="D"><rect fill="#F1F1F1" height="50" rx="12.5" ry="12.5" style="stroke:#181818;stroke-width:0.5;" width="156" x="246.08" y="341"/><line style="stroke:#181818;stroke-width:0.5;" x1="246.08" x2="402.08" y1="367.4883" y2="367.4883"/><text fill="#000000" font-family="sans-serif" font-size="14" lengthAdjust="spacing" textLength="136" x="256.08" y="359.5352">Abgelehnt vorl&#228;ufig</text></g><g id="E"><rect fill="#F1F1F1" height="50" rx="12.5" ry="12.5" style="stroke:#181818;stroke-width:0.5;" width="192" x="302.08" y="468"/><line style="stroke:#181818;stroke-width:0.5;" x1="302.08" x2="494.08" y1="494.4883" y2="494.4883"/><text fill="#000000" font-family="sans-serif" font-size="14" lengthAdjust="spacing" textLength="172" x="312.08" y="486.5352">Unbeantwortet endg&#252;ltig</text></g><g id="F"><rect fill="#F1F1F1" height="50" rx="12.5" ry="12.5" style="stroke:#181818;stroke-width:0.5;" width="165" x="188.58" y="595"/><line style="stroke:#181818;stroke-width:0.5;" x1="188.58" x2="353.58" y1="621.4883" y2="621.4883"/><text fill="#000000" font-family="sans-serif" font-size="14" lengthAdjust="spacing" textLength="145" x="198.58" y="613.5352">Genehmigt endg&#252;ltig</text></g><g id="G"><rect fill="#F1F1F1" height="50" rx="12.5" ry="12.5" style="stroke:#181818;stroke-width:0.5;" width="161" x="406.58" y="595"/><line style="stroke:#181818;stroke-width:0.5;" x1="406.58" x2="567.58" y1="621.4883" y2="621.4883"/><text fill="#000000" font-family="sans-serif" font-size="14" lengthAdjust="spacing" textLength="141" x="416.58" y="613.5352">Abgelehnt endg&#252;ltig</text></g><ellipse cx="455.08" cy="16" fill="#222222" rx="10" ry="10" style="stroke:#222222;stroke-width:1.0;"/><ellipse cx="271.08" cy="717" fill="none" rx="11" ry="11" style="stroke:#222222;stroke-width:1.0;"/><ellipse cx="271.08" cy="717" fill="#222222" rx="6" ry="6" style="stroke:#222222;stroke-width:1.0;"/><!--link *start* to A--><g id="link_*start*_A"><path d="M455.08,26.36 C455.08,40.29 455.08,60.95 455.08,80.65 " fill="none" id="*start*-to-A" style="stroke:#181818;stroke-width:1.0;"/><polygon fill="#181818" points="455.08,86.65,459.08,77.65,455.08,81.65,451.08,77.65,455.08,86.65" style="stroke:#181818;stroke-width:1.0;"/></g><!--link A to B--><g id="link_A_B"><path d="M426.58,137.4 C400.85,159.42 367.758,187.7582 342.058,209.7582 " fill="none" id="A-to-B" style="stroke:#181818;stroke-width:1.0;"/><polygon fill="#181818" points="337.5,213.66,346.9383,210.846,341.2984,210.4085,341.7358,204.7686,337.5,213.66" style="stroke:#181818;stroke-width:1.0;"/><text fill="#000000" font-family="sans-serif" font-size="13" lengthAdjust="spacing" textLength="73" x="391.82" y="180.5684">$abrechnen</text></g><!--link A to E--><g id="link_A_E"><path d="M474.81,137.12 C512.8,186.7 588.54,302.81 543.08,391 C525.08,425.9 494.1519,448.3792 462.4019,464.9092 " fill="none" id="A-to-E" style="stroke:#181818;stroke-width:1.0;"/><polygon fill="#181818" points="457.08,467.68,466.9101,467.0718,461.5149,465.371,463.2157,459.9759,457.08,467.68" style="stroke:#181818;stroke-width:1.0;"/><text fill="#000000" font-family="sans-serif" font-size="13" lengthAdjust="spacing" textLength="73" x="556.88" y="307.5684">$abrechnen</text></g><!--link B to C--><g id="link_B_C"><path d="M215.43,244.99 C141.34,251.13 46.43,264.63 22.08,294 C6,313.38 19.146,326.8711 45.266,338.7211 " fill="none" id="B-to-C" style="stroke:#181818;stroke-width:1.0;"/><polygon fill="#181818" points="50.73,341.2,44.1866,333.839,46.1767,339.1343,40.8814,341.1243,50.73,341.2" style="stroke:#181818;stroke-width:1.0;"/><text fill="#000000" font-family="sans-serif" font-size="13" lengthAdjust="spacing" textLength="85" x="23.08" y="307.5684">$genehmigen</text></g><!--link C to B--><g id="link_C_B"><path d="M142.87,340.59 C151.21,325.48 163.64,306.61 179.08,294 C193.93,281.86 206.3953,274.477 224.1753,266.767 " fill="none" id="C-to-B" style="stroke:#181818;stroke-width:1.0;"/><polygon fill="#181818" points="229.68,264.38,219.8315,264.2907,225.0927,266.3692,223.0143,271.6304,229.68,264.38" style="stroke:#181818;stroke-width:1.0;"/><text fill="#000000" font-family="sans-serif" font-size="13" lengthAdjust="spacing" textLength="73" x="180.08" y="307.5684">$abrechnen</text></g><!--link B to D--><g id="link_B_D"><path d="M279.35,264.3 C266.88,277.57 256.77,294.6 264.08,311 C269.15,322.39 273.4453,328.4267 282.7653,336.6267 " fill="none" id="B-to-D" style="stroke:#181818;stroke-width:1.0;"/><polygon fill="#181818" points="287.27,340.59,283.1552,331.6419,283.5161,337.2872,277.8708,337.6481,287.27,340.59" style="stroke:#181818;stroke-width:1.0;"/><text fill="#000000" font-family="sans-serif" font-size="13" lengthAdjust="spacing" textLength="65" x="265.08" y="307.5684">$ablehnen</text></g><!--link D to B--><g id="link_D_B"><path d="M332.41,340.52 C335.96,326.76 338.57,309.32 335.08,294 C332.76,283.86 331.0208,278.7426 326.4308,269.7626 " fill="none" id="D-to-B" style="stroke:#181818;stroke-width:1.0;"/><polygon fill="#181818" points="323.7,264.42,324.2345,274.2543,325.9756,268.8721,331.3579,270.6133,323.7,264.42" style="stroke:#181818;stroke-width:1.0;"/><text fill="#000000" font-family="sans-serif" font-size="13" lengthAdjust="spacing" textLength="73" x="337.73" y="307.5684">$abrechnen</text></g><!--link B to B--><g id="link_B_B"><path d="M402.92,227.46 C423.03,228.61 437.58,232.46 437.58,239 C437.58,245.54 429.0202,249.0474 408.9102,250.1974 " fill="none" id="B-to-B" style="stroke:#181818;stroke-width:1.0;"/><polygon fill="#181818" points="402.92,250.54,412.1337,254.0196,407.9118,250.2545,411.677,246.0327,402.92,250.54" style="stroke:#181818;stroke-width:1.0;"/><text fill="#000000" font-family="sans-serif" font-size="13" lengthAdjust="spacing" textLength="73" x="443.58" y="244.0684">$abrechnen</text></g><!--link B to E--><g id="link_B_E"><path d="M383.3,264.5 C397.21,272.04 410.39,281.71 420.08,294 C460.44,345.2 471.86,377.3 448.08,438 C443.74,449.06 440.1279,454.8939 431.9679,463.3439 " fill="none" id="B-to-E" style="stroke:#181818;stroke-width:1.0;"/><polygon fill="#181818" points="427.8,467.66,436.9293,463.9645,431.2733,464.0633,431.1745,458.4073,427.8,467.66" style="stroke:#181818;stroke-width:1.0;"/><text fill="#000000" font-family="sans-serif" font-size="13" lengthAdjust="spacing" textLength="73" x="461.38" y="371.0684">$abrechnen</text></g><!--link C to E--><g id="link_C_E"><path d="M178.78,391.43 C206.44,405.41 242.04,423.08 274.08,438 C295.58,448.01 313.9017,456.1513 334.8817,465.2113 " fill="none" id="C-to-E" style="stroke:#181818;stroke-width:1.0;"/><polygon fill="#181818" points="340.39,467.59,333.7133,460.3497,335.7997,465.6077,330.5417,467.6941,340.39,467.59" style="stroke:#181818;stroke-width:1.0;"/><text fill="#000000" font-family="sans-serif" font-size="13" lengthAdjust="spacing" textLength="73" x="275.08" y="434.5684">$abrechnen</text></g><!--link D to E--><g id="link_D_E"><path d="M338.52,391.4 C351.56,413.42 367.5824,440.4975 380.6124,462.4975 " fill="none" id="D-to-E" style="stroke:#181818;stroke-width:1.0;"/><polygon fill="#181818" points="383.67,467.66,382.5253,457.8779,381.122,463.3579,375.642,461.9547,383.67,467.66" style="stroke:#181818;stroke-width:1.0;"/><text fill="#000000" font-family="sans-serif" font-size="13" lengthAdjust="spacing" textLength="73" x="366.51" y="434.5684">$abrechnen</text></g><!--link E to F--><g id="link_E_F"><path d="M333.31,518.35 C319.21,526.09 305.44,535.87 295.08,548 C283.84,561.16 279.0652,573.9449 275.8552,588.8249 " fill="none" id="E-to-F" style="stroke:#181818;stroke-width:1.0;"/><polygon fill="#181818" points="274.59,594.69,280.3979,586.7359,275.6444,589.8024,272.5778,585.0489,274.59,594.69" style="stroke:#181818;stroke-width:1.0;"/><text fill="#000000" font-family="sans-serif" font-size="13" lengthAdjust="spacing" textLength="85" x="296.08" y="561.5684">$genehmigen</text></g><!--link E to G--><g id="link_E_G"><path d="M390.89,518.22 C388.02,532.71 387.05,550.97 395.08,565 C402.07,577.21 407.9641,583.7092 419.9041,591.3392 " fill="none" id="E-to-G" style="stroke:#181818;stroke-width:1.0;"/><polygon fill="#181818" points="424.96,594.57,419.5301,586.3532,420.7468,591.8776,415.2223,593.0943,424.96,594.57" style="stroke:#181818;stroke-width:1.0;"/><text fill="#000000" font-family="sans-serif" font-size="13" lengthAdjust="spacing" textLength="65" x="396.08" y="561.5684">$ablehnen</text></g><!--link G to E--><g id="link_G_E"><path d="M483.68,594.73 C480.77,580.22 475.5,561.96 466.08,548 C458.49,536.75 452.5678,530.4215 441.9378,522.1615 " fill="none" id="G-to-E" style="stroke:#181818;stroke-width:1.0;"/><polygon fill="#181818" points="437.2,518.48,441.8524,527.1608,441.1482,521.5479,446.761,520.8437,437.2,518.48" style="stroke:#181818;stroke-width:1.0;"/><text fill="#000000" font-family="sans-serif" font-size="13" lengthAdjust="spacing" textLength="73" x="475.56" y="561.5684">$abrechnen</text></g><!--link F to *end*--><g id="link_F_*end*"><path d="M271.08,645.46 C271.08,665.04 271.08,685.49 271.08,699.8 " fill="none" id="F-to-*end*" style="stroke:#181818;stroke-width:1.0;"/><polygon fill="#181818" points="271.08,705.8,275.08,696.8,271.08,700.8,267.08,696.8,271.08,705.8" style="stroke:#181818;stroke-width:1.0;"/></g><!--SRC=[TP2n3e8m48Ptdg8nJYQyW8D9Iqi7PoVZKFGi97WaKFI5V0mtNanemOIsJas-VdV_tNL66I2R8rG8X1OjN4liKM-8wWXDElTxmW8KcbVJ6Z3asRJryExlbRFOOab0A1-L3eniCMYXeOOI0uF7am1lUlZKPhP4cEGPUPZa6J99phiBITF3k1wrBoDxibLkTS0PYZLa5cOJr7FuZtAdJd4Zux6UMGoo_r34oZt8Or1Oc7jpEYfNSyfOUMxXUA3a2m00]--></g></svg>