<?xml version="1.0" encoding="us-ascii" standalone="no"?><svg xmlns="http://www.w3.org/2000/svg" xmlns:xlink="http://www.w3.org/1999/xlink" contentStyleType="text/css" height="514px" preserveAspectRatio="none" style="width:1103px;height:514px;background:#F5F5F5;" version="1.1" viewBox="0 0 1103 514" width="1103px" zoomAndPan="magnify"><defs><filter height="300%" id="flq40ivzsw7ka" width="300%" x="-1" y="-1"><feGaussianBlur result="blurOut" stdDeviation="2.0"/><feColorMatrix in="blurOut" result="blurOut2" type="matrix" values="0 0 0 0 0 0 0 0 0 0 0 0 0 0 0 0 0 0 .4 0"/><feOffset dx="4.0" dy="4.0" in="blurOut2" result="blurOut3"/><feBlend in="SourceGraphic" in2="blurOut3" mode="normal"/></filter><linearGradient id="glq40ivzsw7ka0" x1="50%" x2="50%" y1="0%" y2="100%"><stop offset="0%" stop-color="#E0E5F0"/><stop offset="100%" stop-color="#D1D9E6"/></linearGradient></defs><g><rect fill="#F5F5F5" height="514" style="stroke:none;stroke-width:1.0;" width="1103" x="0" y="0"/><rect fill="#F5E599" height="502.5269" rx="5" ry="5" style="stroke:#181818;stroke-width:0.5;" width="106" x="72" y="6"/><text fill="#000000" font-family="Arial" font-size="14" font-weight="bold" lengthAdjust="spacing" textLength="4" x="75" y="19.1318">&#160;</text><text fill="#000000" font-family="Arial" font-size="14" font-weight="bold" lengthAdjust="spacing" textLength="20" x="111" y="35.2305">KH</text><rect fill="#C5F7BA" height="502.5269" rx="5" ry="5" style="stroke:#181818;stroke-width:0.5;" width="165" x="333.5" y="6"/><text fill="#000000" font-family="Arial" font-size="14" font-weight="bold" lengthAdjust="spacing" textLength="4" x="336.5" y="19.1318">&#160;</text><text fill="#000000" font-family="Arial" font-size="14" font-weight="bold" lengthAdjust="spacing" textLength="47" x="392.5" y="35.2305">Moped</text><rect fill="#C0C0C0" height="502.5269" rx="5" ry="5" style="stroke:#181818;stroke-width:0.5;" width="104" x="540.5" y="6"/><text fill="#000000" font-family="Arial" font-size="14" font-weight="bold" lengthAdjust="spacing" textLength="4" x="543.5" y="19.1318">&#160;</text><text fill="#000000" font-family="Arial" font-size="14" font-weight="bold" lengthAdjust="spacing" textLength="18" x="579.5" y="35.2305">SV</text><rect fill="#C0C0C0" height="502.5269" rx="5" ry="5" style="stroke:#181818;stroke-width:0.5;" width="238" x="686.5" y="6"/><text fill="#000000" font-family="Arial" font-size="14" font-weight="bold" lengthAdjust="spacing" textLength="4" x="689.5" y="19.1318">&#160;</text><text fill="#000000" font-family="Arial" font-size="14" font-weight="bold" lengthAdjust="spacing" textLength="220" x="693.5" y="35.2305">LGF (Landesgesundheitsfonds)</text><rect fill="#C0C0C0" height="502.5269" rx="5" ry="5" style="stroke:#181818;stroke-width:0.5;" width="131" x="966.5" y="6"/><text fill="#000000" font-family="Arial" font-size="14" font-weight="bold" lengthAdjust="spacing" textLength="4" x="969.5" y="19.1318">&#160;</text><text fill="#000000" font-family="Arial" font-size="14" font-weight="bold" lengthAdjust="spacing" textLength="37" x="1013.5" y="35.2305">Bund</text><line style="stroke:#181818;stroke-width:0.5;stroke-dasharray:5.0,5.0;" x1="124.5" x2="124.5" y1="118.2959" y2="429.4282"/><line style="stroke:#181818;stroke-width:0.5;stroke-dasharray:5.0,5.0;" x1="416" x2="416" y1="118.2959" y2="429.4282"/><line style="stroke:#181818;stroke-width:0.5;stroke-dasharray:5.0,5.0;" x1="592" x2="592" y1="118.2959" y2="429.4282"/><line style="stroke:#181818;stroke-width:0.5;stroke-dasharray:5.0,5.0;" x1="805" x2="805" y1="118.2959" y2="429.4282"/><line style="stroke:#181818;stroke-width:0.5;stroke-dasharray:5.0,5.0;" x1="1031.5" x2="1031.5" y1="118.2959" y2="429.4282"/><text fill="#000000" font-family="Arial" font-size="14" lengthAdjust="spacing" textLength="19" x="112.5" y="115.3291">KH</text><ellipse cx="125" cy="50.6973" fill="#E2E2F0" rx="8" ry="8" style="stroke:#181818;stroke-width:0.5;"/><path d="M125,58.6973 L125,85.6973 M112,66.6973 L138,66.6973 M125,85.6973 L112,100.6973 M125,85.6973 L138,100.6973 " fill="none" style="stroke:#181818;stroke-width:0.5;"/><text fill="#000000" font-family="Arial" font-size="14" lengthAdjust="spacing" textLength="19" x="112.5" y="441.5601">KH</text><ellipse cx="125" cy="453.0269" fill="#E2E2F0" rx="8" ry="8" style="stroke:#181818;stroke-width:0.5;"/><path d="M125,461.0269 L125,488.0269 M112,469.0269 L138,469.0269 M125,488.0269 L112,503.0269 M125,488.0269 L138,503.0269 " fill="none" style="stroke:#181818;stroke-width:0.5;"/><rect fill="#FFFFFF" height="30.0986" rx="5" ry="5" style="stroke:#555555;stroke-width:0.5;" width="58" x="387" y="87.1973"/><text fill="#000000" font-family="Arial" font-size="14" lengthAdjust="spacing" textLength="44" x="394" y="107.3291">Moped</text><rect fill="#FFFFFF" height="30.0986" rx="5" ry="5" style="stroke:#555555;stroke-width:0.5;" width="58" x="387" y="428.4282"/><text fill="#000000" font-family="Arial" font-size="14" lengthAdjust="spacing" textLength="44" x="394" y="448.5601">Moped</text><text fill="#000000" font-family="Arial" font-size="14" lengthAdjust="spacing" textLength="18" x="580.5" y="115.3291">SV</text><ellipse cx="592.5" cy="50.6973" fill="#E2E2F0" rx="8" ry="8" style="stroke:#181818;stroke-width:0.5;"/><path d="M592.5,58.6973 L592.5,85.6973 M579.5,66.6973 L605.5,66.6973 M592.5,85.6973 L579.5,100.6973 M592.5,85.6973 L605.5,100.6973 " fill="none" style="stroke:#181818;stroke-width:0.5;"/><text fill="#000000" font-family="Arial" font-size="14" lengthAdjust="spacing" textLength="18" x="580.5" y="441.5601">SV</text><ellipse cx="592.5" cy="453.0269" fill="#E2E2F0" rx="8" ry="8" style="stroke:#181818;stroke-width:0.5;"/><path d="M592.5,461.0269 L592.5,488.0269 M579.5,469.0269 L605.5,469.0269 M592.5,488.0269 L579.5,503.0269 M592.5,488.0269 L605.5,503.0269 " fill="none" style="stroke:#181818;stroke-width:0.5;"/><text fill="#000000" font-family="Arial" font-size="14" lengthAdjust="spacing" textLength="201" x="702" y="115.3291">LGF (Landesgesundheitsfonds)</text><ellipse cx="805.5" cy="50.6973" fill="#E2E2F0" rx="8" ry="8" style="stroke:#181818;stroke-width:0.5;"/><path d="M805.5,58.6973 L805.5,85.6973 M792.5,66.6973 L818.5,66.6973 M805.5,85.6973 L792.5,100.6973 M805.5,85.6973 L818.5,100.6973 " fill="none" style="stroke:#181818;stroke-width:0.5;"/><text fill="#000000" font-family="Arial" font-size="14" lengthAdjust="spacing" textLength="201" x="702" y="441.5601">LGF (Landesgesundheitsfonds)</text><ellipse cx="805.5" cy="453.0269" fill="#E2E2F0" rx="8" ry="8" style="stroke:#181818;stroke-width:0.5;"/><path d="M805.5,461.0269 L805.5,488.0269 M792.5,469.0269 L818.5,469.0269 M805.5,488.0269 L792.5,503.0269 M805.5,488.0269 L818.5,503.0269 " fill="none" style="stroke:#181818;stroke-width:0.5;"/><text fill="#000000" font-family="Arial" font-size="14" lengthAdjust="spacing" textLength="33" x="1012.5" y="115.3291">Bund</text><ellipse cx="1032" cy="50.6973" fill="#E2E2F0" rx="8" ry="8" style="stroke:#181818;stroke-width:0.5;"/><path d="M1032,58.6973 L1032,85.6973 M1019,66.6973 L1045,66.6973 M1032,85.6973 L1019,100.6973 M1032,85.6973 L1045,100.6973 " fill="none" style="stroke:#181818;stroke-width:0.5;"/><text fill="#000000" font-family="Arial" font-size="14" lengthAdjust="spacing" textLength="33" x="1012.5" y="441.5601">Bund</text><ellipse cx="1032" cy="453.0269" fill="#E2E2F0" rx="8" ry="8" style="stroke:#181818;stroke-width:0.5;"/><path d="M1032,461.0269 L1032,488.0269 M1019,469.0269 L1045,469.0269 M1032,488.0269 L1019,503.0269 M1032,488.0269 L1045,503.0269 " fill="none" style="stroke:#181818;stroke-width:0.5;"/><path d="M256,138.2959 L256,282.2959 A5,5 0 0 0 261,287.2959 L567,287.2959 A5,5 0 0 0 572,282.2959 L572,143.2959 L562,133.2959 L261,133.2959 A5,5 0 0 0 256,138.2959 " fill="#C5F7BA" filter="url(#flq40ivzsw7ka)" style="stroke:#8B95A5;stroke-width:1.0;"/><path d="M562,133.2959 L562,140.7959 A2.5,2.5 0 0 0 564.5,143.2959 L572,143.2959 L562,133.2959 " fill="#C5F7BA" style="stroke:#8B95A5;stroke-width:1.0;"/><text fill="#111827" font-family="Arial" font-size="14" lengthAdjust="spacing" textLength="56" x="262" y="151.4277">Zustand:</text><text fill="#111827" font-family="Arial" font-size="14" lengthAdjust="spacing" textLength="250" x="262" y="167.5264">- Aufenthalts-/Besuchsdaten vollst&#228;ndig</text><text fill="#111827" font-family="Arial" font-size="14" lengthAdjust="spacing" textLength="279" x="278" y="183.625">(inklusive Entlassung bei station&#228;ren F&#228;llen)</text><text fill="#111827" font-family="Arial" font-size="14" lengthAdjust="spacing" textLength="177" x="262" y="199.7236">- Hauptdiagnose vorhanden</text><text fill="#111827" font-family="Arial" font-size="14" lengthAdjust="spacing" textLength="195" x="262" y="215.8223">G&#252;ltige Abrechnungszust&#228;nde:</text><text fill="#111827" font-family="Arial" font-size="14" lengthAdjust="spacing" textLength="126" x="262" y="231.9209">- Keine Abrechnung</text><text fill="#111827" font-family="Arial" font-size="14" lengthAdjust="spacing" textLength="219" x="262" y="248.0195">- vorl&#228;ufige Abrechnung abgelehnt</text><text fill="#111827" font-family="Arial" font-size="14" lengthAdjust="spacing" textLength="223" x="262" y="264.1182">- vorl&#228;ufige Abrechnung genehmigt</text><text fill="#111827" font-family="Arial" font-size="14" lengthAdjust="spacing" textLength="191" x="262" y="280.2168">- finale Abrechnung abgelehnt</text><line style="stroke:#111827;stroke-width:2.0;" x1="414" x2="404" y1="317.1323" y2="313.1323"/><line style="stroke:#111827;stroke-width:2.0;" x1="414" x2="404" y1="317.1323" y2="321.1323"/><line style="stroke:#111827;stroke-width:2.0;" x1="125" x2="415" y1="317.1323" y2="317.1323"/><text fill="#000000" font-family="Arial" font-size="13" font-weight="bold" lengthAdjust="spacing" textLength="7" x="132" y="312.3774">1</text><text fill="#000000" font-family="Arial" font-size="13" lengthAdjust="spacing" textLength="191" x="143" y="312.3774">$abrechnen (POST LKFRequest)</text><path d="M5,335.1323 L5,351.1323 A5,5 0 0 0 10,356.1323 L238,356.1323 A5,5 0 0 0 243,351.1323 L243,340.1323 L233,330.1323 L10,330.1323 A5,5 0 0 0 5,335.1323 " fill="url(#glq40ivzsw7ka0)" filter="url(#flq40ivzsw7ka)" style="stroke:#8B95A5;stroke-width:1.0;"/><path d="M233,330.1323 L233,337.6323 A2.5,2.5 0 0 0 235.5,340.1323 L243,340.1323 L233,330.1323 " fill="url(#glq40ivzsw7ka0)" style="stroke:#8B95A5;stroke-width:1.0;"/><text fill="#111827" font-family="Arial" font-size="14" lengthAdjust="spacing" textLength="217" x="11" y="348.2642">Die Abrechnung wird bereitgestellt</text><path d="M261,374.231 L261,406.231 A5,5 0 0 0 266,411.231 L562,411.231 A5,5 0 0 0 567,406.231 L567,379.231 L557,369.231 L266,369.231 A5,5 0 0 0 261,374.231 " fill="#C5F7BA" filter="url(#flq40ivzsw7ka)" style="stroke:#8B95A5;stroke-width:1.0;"/><path d="M557,369.231 L557,376.731 A2.5,2.5 0 0 0 559.5,379.231 L567,379.231 L557,369.231 " fill="#C5F7BA" style="stroke:#8B95A5;stroke-width:1.0;"/><text fill="#111827" font-family="Arial" font-size="14" lengthAdjust="spacing" textLength="56" x="267" y="387.3628">Zustand:</text><text fill="#111827" font-family="Arial" font-size="14" lengthAdjust="spacing" textLength="285" x="267" y="403.4614">- vorl&#228;ufige/finale Abrechnung unbeantwortet</text><!--SRC=[XLJ1Kjim4BtxApIX1pXaY840uS1CqX8o4sWpX7Bez29RQriJHN8bcG2T_aq-exVyM5SEIUJ4fEkBlVlsxUvRoMR2PKurdP98QGRwin9AauDMQO7PH6ayIRKg97j796ttU0YJKQPcNAOaeSA05tbFqn8q2NrI1WajXEqhQR_IAP16LtCg6lM8CNy34fxL1wjjUnYfB93V0I6zxG6W1UsarJnW8Ul0kKFu0bn6dJPjhxsF6Oyd4emX8VeUl84kyNj46NE3EnQlcp0CBqykq3TUIsDr0S4Vly71QmvQS3dnHhYvgGDybwnyWNU1VUtXLm4oNauwejhocETKsif8xTAs03jhBQqAsXLu9xnQJYMmakN49NIrLhDjOKhdHjkJbQkkuZgmh7MAhbliFA_Ck6PUXdQcEqtEalDgfh_QocPwwiMReEAlqpK88lL26ZybMTbmG3RMS5S6sfqELgUnnKGCKqCQmq4Z0Cdm_htiKfHsht9WLHUonUta8gB8bcyK9_UZahFCs4CxVjhYQhbdtHc67SlugORYxhPF3kyedaMJWa5fC-3M94eoSrJ7vV2ER5_UNW5wYDtRRGbm9ToBHqKBgsGnZK07GVaRKCzuNr6XbNG_2cEneQkWIRf50j9cL5ZJFEvXVt5c6BKWoRCImjZ5N3AU1gw1GxoAeZ3y6SYDj88Q72Ob4N22R9OhkPXhpEilvaA0F4Bo0IroopXDfJA0X3fpCiZWTl5NM9u2wKOQuamYZtahbiN0TJK4TzitKNHXjbZCYwIQHcYKWe1CseyXAKZ8fZnra8HBAZuWSFevkO803sZp-XeLkoAVw1AAWnsEleqVoTsm_-1-EiOUUU8E1y4NNk6TSOth08tBnhLR4CAlyB-rUACSx_PSo0ZmqC-Kjk2n_WC0]--></g></svg>