<?xml version="1.0" encoding="us-ascii" standalone="no"?><svg xmlns="http://www.w3.org/2000/svg" xmlns:xlink="http://www.w3.org/1999/xlink" contentStyleType="text/css" height="609px" preserveAspectRatio="none" style="width:852px;height:609px;background:#F5F5F5;" version="1.1" viewBox="0 0 852 609" width="852px" zoomAndPan="magnify"><defs><filter height="300%" id="f1fz3fw06ubqeq" width="300%" x="-1" y="-1"><feGaussianBlur result="blurOut" stdDeviation="2.0"/><feColorMatrix in="blurOut" result="blurOut2" type="matrix" values="0 0 0 0 0 0 0 0 0 0 0 0 0 0 0 0 0 0 .4 0"/><feOffset dx="4.0" dy="4.0" in="blurOut2" result="blurOut3"/><feBlend in="SourceGraphic" in2="blurOut3" mode="normal"/></filter><linearGradient id="g1fz3fw06ubqeq0" x1="50%" x2="50%" y1="0%" y2="100%"><stop offset="0%" stop-color="#E0E5F0"/><stop offset="100%" stop-color="#D1D9E6"/></linearGradient></defs><g><rect fill="#F5F5F5" height="609" style="stroke:none;stroke-width:1.0;" width="852" x="0" y="0"/><rect fill="#F5E599" height="597.4756" rx="5" ry="5" style="stroke:#181818;stroke-width:0.5;" width="371" x="21" y="6"/><text fill="#000000" font-family="Arial" font-size="14" font-weight="bold" lengthAdjust="spacing" textLength="4" x="24" y="19.1318">&#160;</text><text fill="#000000" font-family="Arial" font-size="14" font-weight="bold" lengthAdjust="spacing" textLength="197" x="108" y="35.2305">KH (Herz-Jesu Krankenhaus)</text><rect fill="#C5F7BA" height="597.4756" rx="5" ry="5" style="stroke:#181818;stroke-width:0.5;" width="333" x="465" y="6"/><text fill="#000000" font-family="Arial" font-size="14" font-weight="bold" lengthAdjust="spacing" textLength="4" x="468" y="19.1318">&#160;</text><text fill="#000000" font-family="Arial" font-size="14" font-weight="bold" lengthAdjust="spacing" textLength="47" x="608" y="35.2305">Moped</text><rect fill="#FFFFFF" height="28" style="stroke:#181818;stroke-width:1.0;" width="10" x="626.5" y="344.8838"/><line style="stroke:#181818;stroke-width:0.5;stroke-dasharray:5.0,5.0;" x1="206.5" x2="206.5" y1="118.2959" y2="524.377"/><line style="stroke:#181818;stroke-width:0.5;stroke-dasharray:5.0,5.0;" x1="631.5" x2="631.5" y1="118.2959" y2="524.377"/><text fill="#000000" font-family="Arial" font-size="14" lengthAdjust="spacing" textLength="186" x="110.5" y="115.3291">KH (Herz-Jesu Krankenhaus)</text><ellipse cx="206.5" cy="50.6973" fill="#E2E2F0" rx="8" ry="8" style="stroke:#181818;stroke-width:0.5;"/><path d="M206.5,58.6973 L206.5,85.6973 M193.5,66.6973 L219.5,66.6973 M206.5,85.6973 L193.5,100.6973 M206.5,85.6973 L219.5,100.6973 " fill="none" style="stroke:#181818;stroke-width:0.5;"/><text fill="#000000" font-family="Arial" font-size="14" lengthAdjust="spacing" textLength="186" x="110.5" y="536.5088">KH (Herz-Jesu Krankenhaus)</text><ellipse cx="206.5" cy="547.9756" fill="#E2E2F0" rx="8" ry="8" style="stroke:#181818;stroke-width:0.5;"/><path d="M206.5,555.9756 L206.5,582.9756 M193.5,563.9756 L219.5,563.9756 M206.5,582.9756 L193.5,597.9756 M206.5,582.9756 L219.5,597.9756 " fill="none" style="stroke:#181818;stroke-width:0.5;"/><rect fill="#FFFFFF" height="30.0986" rx="5" ry="5" style="stroke:#555555;stroke-width:0.5;" width="58" x="602.5" y="87.1973"/><text fill="#000000" font-family="Arial" font-size="14" lengthAdjust="spacing" textLength="44" x="609.5" y="107.3291">Moped</text><rect fill="#FFFFFF" height="30.0986" rx="5" ry="5" style="stroke:#555555;stroke-width:0.5;" width="58" x="602.5" y="523.377"/><text fill="#000000" font-family="Arial" font-size="14" lengthAdjust="spacing" textLength="44" x="609.5" y="543.5088">Moped</text><rect fill="#FFFFFF" height="28" style="stroke:#181818;stroke-width:1.0;" width="10" x="626.5" y="344.8838"/><path d="M419,138.2959 L419,234.2959 A5,5 0 0 0 424,239.2959 L835,239.2959 A5,5 0 0 0 840,234.2959 L840,143.2959 L830,133.2959 L424,133.2959 A5,5 0 0 0 419,138.2959 " fill="#C5F7BA" filter="url(#f1fz3fw06ubqeq)" style="stroke:#8B95A5;stroke-width:1.0;"/><path d="M830,133.2959 L830,140.7959 A2.5,2.5 0 0 0 832.5,143.2959 L840,143.2959 L830,133.2959 " fill="#C5F7BA" style="stroke:#8B95A5;stroke-width:1.0;"/><text fill="#111827" font-family="Arial" font-size="14" lengthAdjust="spacing" textLength="56" x="425" y="151.4277">Zustand:</text><text fill="#111827" font-family="Arial" font-size="14" lengthAdjust="spacing" textLength="250" x="425" y="167.5264">- Aufenthalts-/Besuchsdaten vollst&#228;ndig</text><text fill="#111827" font-family="Arial" font-size="14" lengthAdjust="spacing" textLength="279" x="441" y="183.625">(inklusive Entlassung bei station&#228;ren F&#228;llen)</text><text fill="#111827" font-family="Arial" font-size="14" lengthAdjust="spacing" textLength="177" x="425" y="199.7236">- Hauptdiagnose vorhanden</text><text fill="#111827" font-family="Arial" font-size="14" lengthAdjust="spacing" textLength="400" x="425" y="215.8223">- Keine Abrechnung mit dem Zustand: Unbeantwortet endg&#252;ltig</text><text fill="#111827" font-family="Arial" font-size="14" lengthAdjust="spacing" textLength="377" x="425" y="231.9209">- Keine Abrechnung mit dem Zustand: Genehmigt endg&#252;ltig</text><line style="stroke:#111827;stroke-width:2.0;" x1="629.5" x2="619.5" y1="268.8364" y2="264.8364"/><line style="stroke:#111827;stroke-width:2.0;" x1="629.5" x2="619.5" y1="268.8364" y2="272.8364"/><line style="stroke:#111827;stroke-width:2.0;" x1="206.5" x2="630.5" y1="268.8364" y2="268.8364"/><text fill="#000000" font-family="Arial" font-size="13" font-weight="bold" lengthAdjust="spacing" textLength="7" x="213.5" y="264.0815">1</text><text fill="#000000" font-family="Arial" font-size="13" lengthAdjust="spacing" textLength="191" x="224.5" y="264.0815">$abrechnen (POST LKFRequest)</text><path d="M53,286.8364 L53,302.8364 A5,5 0 0 0 58,307.8364 L351,307.8364 A5,5 0 0 0 356,302.8364 L356,291.8364 L346,281.8364 L58,281.8364 A5,5 0 0 0 53,286.8364 " fill="url(#g1fz3fw06ubqeq0)" filter="url(#f1fz3fw06ubqeq)" style="stroke:#8B95A5;stroke-width:1.0;"/><path d="M346,281.8364 L346,289.3364 A2.5,2.5 0 0 0 348.5,291.8364 L356,291.8364 L346,281.8364 " fill="url(#g1fz3fw06ubqeq0)" style="stroke:#8B95A5;stroke-width:1.0;"/><text fill="#111827" font-family="Arial" font-size="14" lengthAdjust="spacing" textLength="282" x="59" y="299.9683">Die Abrechnung ist als "endgueltig" markiert.</text><line style="stroke:#111827;stroke-width:2.0;" x1="636.5" x2="678.5" y1="336.8838" y2="336.8838"/><line style="stroke:#111827;stroke-width:2.0;" x1="678.5" x2="678.5" y1="336.8838" y2="349.8838"/><line style="stroke:#111827;stroke-width:2.0;" x1="637.5" x2="678.5" y1="349.8838" y2="349.8838"/><polygon fill="#111827" points="647.5,345.8838,637.5,349.8838,647.5,353.8838,643.5,349.8838" style="stroke:#111827;stroke-width:1.0;"/><text fill="#000000" font-family="Arial" font-size="13" font-weight="bold" lengthAdjust="spacing" textLength="7" x="643.5" y="332.1289">2</text><text fill="#000000" font-family="Arial" font-size="13" lengthAdjust="spacing" textLength="92" x="654.5" y="332.1289">&#9733;&#10022;&#9733;&#10022;&#9733;&#10022;&#9733;&#10022;</text><path d="M484,397.8838 L484,445.8838 A5,5 0 0 0 489,450.8838 L771,450.8838 A5,5 0 0 0 776,445.8838 L776,402.8838 L766,392.8838 L489,392.8838 A5,5 0 0 0 484,397.8838 " fill="url(#g1fz3fw06ubqeq0)" filter="url(#f1fz3fw06ubqeq)" style="stroke:#8B95A5;stroke-width:1.0;"/><path d="M766,392.8838 L766,400.3838 A2.5,2.5 0 0 0 768.5,402.8838 L776,402.8838 L766,392.8838 " fill="url(#g1fz3fw06ubqeq0)" style="stroke:#8B95A5;stroke-width:1.0;"/><text fill="#111827" font-family="Arial" font-size="14" lengthAdjust="spacing" textLength="246" x="490" y="411.0156">durch den neuen LKFRequest wird der</text><text fill="#111827" font-family="Arial" font-size="14" lengthAdjust="spacing" textLength="271" x="490" y="427.1143">vorherige LKFRequest (falls einer existiert)</text><text fill="#111827" font-family="Arial" font-size="14" lengthAdjust="spacing" textLength="157" x="490" y="443.2129">automatisch gecancelled</text><path d="M498,469.1797 L498,501.1797 A5,5 0 0 0 503,506.1797 L757,506.1797 A5,5 0 0 0 762,501.1797 L762,474.1797 L752,464.1797 L503,464.1797 A5,5 0 0 0 498,469.1797 " fill="#C5F7BA" filter="url(#f1fz3fw06ubqeq)" style="stroke:#8B95A5;stroke-width:1.0;"/><path d="M752,464.1797 L752,471.6797 A2.5,2.5 0 0 0 754.5,474.1797 L762,474.1797 L752,464.1797 " fill="#C5F7BA" style="stroke:#8B95A5;stroke-width:1.0;"/><text fill="#111827" font-family="Arial" font-size="14" lengthAdjust="spacing" textLength="56" x="504" y="482.3115">Zustand:</text><text fill="#111827" font-family="Arial" font-size="14" lengthAdjust="spacing" textLength="243" x="504" y="498.4102">- Abrechnung unbeantwortet endg&#252;ltig</text><!--SRC=[ZLJDRjD04BxlKwnS3kaXqBIaRNgeb4BRY528-dD1NDRUiRsAlHls9mb577a73Xmhde9RtgHFmgpJ9EicXMwao9wVRxxvnhDcAEI8QLRIM6aE-eqgbAPREzKXPkLboJ3Joad-496s_I-8C3dZQY9aHbDM60Wy3sbQWgQj49H3obnXpvIq7rW9DEfgmOfeSyILk0NQUhtPMQSTn4XbWNuZb9uyRW1se9tkDBTuYtTWtqU40Xp6dJPhBwtNkKY64eoXBRHT1WqTulk0SUuRzoW1crQhTRXxWBQhfJHMEo3VGuAzhoFGXP33e8NJqqq1Dv9N3_0WSAWzV74Watcd0wQjICI8ILjhgLsTHm5hOwrEFMXTu3NtOZWrnqAMNP_GrLfD7WjJ6LVQxYvCcoek7VDQUsWwH-QZMezBvBbhhRkzz7MwNyyCHrkRp8cQ1XtKx9jq9R6QqkYpf9jElqSRFT2tpNTW7Erh9eSWS-RCziRmoEyNj3iTfCeIYrKGW1aQFOqJ4P0SbtZwRoBrSw56m9yHXtoITdeGC-GpMWsONWmgLXLCG00FSrP9LyQW2QbsK8rnMJ1-0VJ96SiaFo9DsdKfI9kpmfhcgnDiBCaDPnOa7QkYC7Ps9xd8Y2VIm3qed15ZeAVI5imOX-E9GL14iqB9sPt6lBFPNL60t4Rm7dCZomNBf3A0W3h7gY3HqmU_IzrOGv9B3rCAYtTAIHVKw8sC0TkSA6t1Kcmlc_qfB59vJl8vICXBaTKIlKHU3a9maitZOrJaYBvWSnWatXXylBgcx_jdbtwZZTqErUlto5jHAogCfNWNqCYNSE1BHBHaUYX0svT1DHI-EIzs__F7_Q_Vw_y4lpCnHjKnYd08tse39Dpf9CTM9PM0bqv0baw4vkZHnCiCMcGGUXjuRI5NBvocC4NkdkLszQcKE3o3i1aa3Eyn71uFsF_t0refufuQsHBjBm00]--></g></svg>