<?xml version="1.0" encoding="us-ascii" standalone="no"?><svg xmlns="http://www.w3.org/2000/svg" xmlns:xlink="http://www.w3.org/1999/xlink" contentStyleType="text/css" height="466px" preserveAspectRatio="none" style="width:814px;height:466px;background:#F5F5F5;" version="1.1" viewBox="0 0 814 466" width="814px" zoomAndPan="magnify"><defs><filter height="300%" id="f194rfs5w2y6es" width="300%" x="-1" y="-1"><feGaussianBlur result="blurOut" stdDeviation="2.0"/><feColorMatrix in="blurOut" result="blurOut2" type="matrix" values="0 0 0 0 0 0 0 0 0 0 0 0 0 0 0 0 0 0 .4 0"/><feOffset dx="4.0" dy="4.0" in="blurOut2" result="blurOut3"/><feBlend in="SourceGraphic" in2="blurOut3" mode="normal"/></filter><linearGradient id="g194rfs5w2y6es0" x1="50%" x2="50%" y1="0%" y2="100%"><stop offset="0%" stop-color="#E0E5F0"/><stop offset="100%" stop-color="#D1D9E6"/></linearGradient></defs><g><rect fill="#F5F5F5" height="466" style="stroke:none;stroke-width:1.0;" width="814" x="0" y="0"/><rect fill="#F5E599" height="454.231" rx="5" ry="5" style="stroke:#181818;stroke-width:0.5;" width="371" x="21" y="6"/><text fill="#000000" font-family="Arial" font-size="14" font-weight="bold" lengthAdjust="spacing" textLength="4" x="24" y="19.1318">&#160;</text><text fill="#000000" font-family="Arial" font-size="14" font-weight="bold" lengthAdjust="spacing" textLength="197" x="108" y="35.2305">KA (Herz-Jesu Krankenhaus)</text><rect fill="#C5F7BA" height="454.231" rx="5" ry="5" style="stroke:#181818;stroke-width:0.5;" width="333" x="465.5" y="6"/><text fill="#000000" font-family="Arial" font-size="14" font-weight="bold" lengthAdjust="spacing" textLength="4" x="468.5" y="19.1318">&#160;</text><text fill="#000000" font-family="Arial" font-size="14" font-weight="bold" lengthAdjust="spacing" textLength="47" x="608.5" y="35.2305">Moped</text><line style="stroke:#181818;stroke-width:0.5;stroke-dasharray:5.0,5.0;" x1="206" x2="206" y1="118.2959" y2="381.1323"/><line style="stroke:#181818;stroke-width:0.5;stroke-dasharray:5.0,5.0;" x1="632" x2="632" y1="118.2959" y2="381.1323"/><text fill="#000000" font-family="Arial" font-size="14" lengthAdjust="spacing" textLength="185" x="111" y="115.3291">KA (Herz-Jesu Krankenhaus)</text><ellipse cx="206.5" cy="50.6973" fill="#E2E2F0" rx="8" ry="8" style="stroke:#181818;stroke-width:0.5;"/><path d="M206.5,58.6973 L206.5,85.6973 M193.5,66.6973 L219.5,66.6973 M206.5,85.6973 L193.5,100.6973 M206.5,85.6973 L219.5,100.6973 " fill="none" style="stroke:#181818;stroke-width:0.5;"/><text fill="#000000" font-family="Arial" font-size="14" lengthAdjust="spacing" textLength="185" x="111" y="393.2642">KA (Herz-Jesu Krankenhaus)</text><ellipse cx="206.5" cy="404.731" fill="#E2E2F0" rx="8" ry="8" style="stroke:#181818;stroke-width:0.5;"/><path d="M206.5,412.731 L206.5,439.731 M193.5,420.731 L219.5,420.731 M206.5,439.731 L193.5,454.731 M206.5,439.731 L219.5,454.731 " fill="none" style="stroke:#181818;stroke-width:0.5;"/><rect fill="#FFFFFF" height="30.0986" rx="5" ry="5" style="stroke:#555555;stroke-width:0.5;" width="58" x="603" y="87.1973"/><text fill="#000000" font-family="Arial" font-size="14" lengthAdjust="spacing" textLength="44" x="610" y="107.3291">Moped</text><rect fill="#FFFFFF" height="30.0986" rx="5" ry="5" style="stroke:#555555;stroke-width:0.5;" width="58" x="603" y="380.1323"/><text fill="#000000" font-family="Arial" font-size="14" lengthAdjust="spacing" textLength="44" x="610" y="400.2642">Moped</text><path d="M458,138.2959 L458,234.2959 A5,5 0 0 0 463,239.2959 L797,239.2959 A5,5 0 0 0 802,234.2959 L802,143.2959 L792,133.2959 L463,133.2959 A5,5 0 0 0 458,138.2959 " fill="#C5F7BA" filter="url(#f194rfs5w2y6es)" style="stroke:#8B95A5;stroke-width:1.0;"/><path d="M792,133.2959 L792,140.7959 A2.5,2.5 0 0 0 794.5,143.2959 L802,143.2959 L792,133.2959 " fill="#C5F7BA" style="stroke:#8B95A5;stroke-width:1.0;"/><text fill="#111827" font-family="Arial" font-size="14" lengthAdjust="spacing" textLength="56" x="464" y="151.4277">Zustand:</text><text fill="#111827" font-family="Arial" font-size="14" lengthAdjust="spacing" textLength="250" x="464" y="167.5264">- Aufenthalts-/Besuchsdaten vollst&#228;ndig</text><text fill="#111827" font-family="Arial" font-size="14" lengthAdjust="spacing" textLength="279" x="480" y="183.625">(inklusive Entlassung bei station&#228;ren F&#228;llen)</text><text fill="#111827" font-family="Arial" font-size="14" lengthAdjust="spacing" textLength="177" x="464" y="199.7236">- Hauptdiagnose vorhanden</text><text fill="#111827" font-family="Arial" font-size="14" lengthAdjust="spacing" textLength="323" x="464" y="215.8223">- keine vorl&#228;ufige/finale Abrechnung unbeantwortet</text><text fill="#111827" font-family="Arial" font-size="14" lengthAdjust="spacing" textLength="233" x="464" y="231.9209">- keine finale Abrechnung genehmigt</text><line style="stroke:#111827;stroke-width:2.0;" x1="630" x2="620" y1="268.8364" y2="264.8364"/><line style="stroke:#111827;stroke-width:2.0;" x1="630" x2="620" y1="268.8364" y2="272.8364"/><line style="stroke:#111827;stroke-width:2.0;" x1="206.5" x2="631" y1="268.8364" y2="268.8364"/><text fill="#000000" font-family="Arial" font-size="13" font-weight="bold" lengthAdjust="spacing" textLength="7" x="213.5" y="264.0815">1</text><text fill="#000000" font-family="Arial" font-size="13" lengthAdjust="spacing" textLength="191" x="224.5" y="264.0815">$abrechnen (POST LKFRequest)</text><path d="M86,286.8364 L86,302.8364 A5,5 0 0 0 91,307.8364 L319,307.8364 A5,5 0 0 0 324,302.8364 L324,291.8364 L314,281.8364 L91,281.8364 A5,5 0 0 0 86,286.8364 " fill="url(#g194rfs5w2y6es0)" filter="url(#f194rfs5w2y6es)" style="stroke:#8B95A5;stroke-width:1.0;"/><path d="M314,281.8364 L314,289.3364 A2.5,2.5 0 0 0 316.5,291.8364 L324,291.8364 L314,281.8364 " fill="url(#g194rfs5w2y6es0)" style="stroke:#8B95A5;stroke-width:1.0;"/><text fill="#111827" font-family="Arial" font-size="14" lengthAdjust="spacing" textLength="217" x="92" y="299.9683">Die Abrechnung wird bereitgestellt</text><path d="M477,325.9351 L477,357.9351 A5,5 0 0 0 482,362.9351 L778,362.9351 A5,5 0 0 0 783,357.9351 L783,330.9351 L773,320.9351 L482,320.9351 A5,5 0 0 0 477,325.9351 " fill="#C5F7BA" filter="url(#f194rfs5w2y6es)" style="stroke:#8B95A5;stroke-width:1.0;"/><path d="M773,320.9351 L773,328.4351 A2.5,2.5 0 0 0 775.5,330.9351 L783,330.9351 L773,320.9351 " fill="#C5F7BA" style="stroke:#8B95A5;stroke-width:1.0;"/><text fill="#111827" font-family="Arial" font-size="14" lengthAdjust="spacing" textLength="56" x="483" y="339.0669">Zustand:</text><text fill="#111827" font-family="Arial" font-size="14" lengthAdjust="spacing" textLength="285" x="483" y="355.1655">- vorl&#228;ufige/finale Abrechnung unbeantwortet</text><!--SRC=[bLFBKjj04BphAxPC3d1mWG01va2LII1K38aBo2MLoqexahQydbNsWGcf_8t_n3-MaOpD2YklzSMQwUtjxgcn4uaLDtpAKcq4cBTQQSEszfeJsPSkpoQ5qHx5Co9Fwb-0i2KNUYQnO3bN5eBEypM3O5WSaWh8kLVkKgFxoAV0UaCZkUfr8-xa4x3uiBlPbXrWK3jWFoB6pbyRW3r8yht-beZ508vgH1Z0IJf8UBAktfSoco1OosAgtGQ6JkXxp8MeZTSiWPeuZa_sZwbsjux66G_Hpr3WrVSAZ98u2InSN7G1FgDe_i1pm67syCq3PakdOswSp6J5qRKi9Srv1TWOQtFQeCs0DzghuRGQgrZswmj3O_JiTJ1DyINR_LMfwyLrO_dM0PNUa_AgvN7Dl6njk3l83_EZzirmjAt9dEl7m46htfLhbEf7rlkAhEkCXcpx2inJ_mDOpqQ6umImvDxkTC9xzNv1CXYGL9uvUeK8k6Mzt_Fq8a11I_puPo7jSwCh4F-08prPaX-ddFHKBmDcD-D6LKCJ28YuTnhzD0KJHSq6wWTQ5KAlQBvuwpYAqwZFXZu7T2LNplPtpybMLbh17I1xq4fPjvYZa4LKozYcBL3UoWTW5-WKjzRJS5AGZDYSrBYO6xftkPWh1RX3v5VSLqv8Ng2sG8Icf5S1gJE1UfEeeXPpdyi2TdE9N04RfWQo4cjcZocGpPas3jpwpYQk08HoAWlNH50RZYAQLF_iZ3oViZTy2ILfs-DFT_ViUdHvMs-iTJj1FADXz4wsU6VIKA9WGBg2mA1K-CBVWlqVRslMNm00]--></g></svg>