<?xml version="1.0" encoding="us-ascii" standalone="no"?><svg xmlns="http://www.w3.org/2000/svg" xmlns:xlink="http://www.w3.org/1999/xlink" contentStyleType="text/css" height="850px" preserveAspectRatio="none" style="width:757px;height:850px;background:#FFFFFF;" version="1.1" viewBox="0 0 757 850" width="757px" zoomAndPan="magnify"><defs/><g><g id="A"><rect fill="#F1F1F1" height="50.6211" rx="12.5" ry="12.5" style="stroke:#181818;stroke-width:0.5;" width="147" x="475" y="87"/><line style="stroke:#181818;stroke-width:0.5;" x1="475" x2="622" y1="113.4883" y2="113.4883"/><text fill="#000000" font-family="sans-serif" font-size="14" lengthAdjust="spacing" textLength="127" x="485" y="105.5352">Keine Abrechnung</text><text fill="#000000" font-family="sans-serif" font-size="12" lengthAdjust="spacing" textLength="106" x="480" y="130.0898">- kein LKFRequest</text></g><g id="B"><rect fill="#F1F1F1" height="78.8867" rx="12.5" ry="12.5" style="stroke:#181818;stroke-width:0.5;" width="301" x="249" y="214.62"/><line style="stroke:#181818;stroke-width:0.5;" x1="249" x2="550" y1="241.1083" y2="241.1083"/><text fill="#000000" font-family="sans-serif" font-size="14" lengthAdjust="spacing" textLength="263" x="268" y="233.1552">vorl&#228;ufige Abrechnung unbeantwortet</text><text fill="#000000" font-family="sans-serif" font-size="12" lengthAdjust="spacing" textLength="121" x="254" y="257.7098">- aktiver LKFRequest</text><text fill="#000000" font-family="sans-serif" font-size="12" lengthAdjust="spacing" textLength="281" x="254" y="271.8427">- Claim.supportingInfo:FinaleAbrechnung = false</text><text fill="#000000" font-family="sans-serif" font-size="12" lengthAdjust="spacing" textLength="119" x="254" y="285.9755">- ohne LKFResponse</text></g><g id="C"><rect fill="#F1F1F1" height="78.8867" rx="12.5" ry="12.5" style="stroke:#181818;stroke-width:0.5;" width="301" x="7" y="370.51"/><line style="stroke:#181818;stroke-width:0.5;" x1="7" x2="308" y1="396.9983" y2="396.9983"/><text fill="#000000" font-family="sans-serif" font-size="14" lengthAdjust="spacing" textLength="230" x="42.5" y="389.0452">vol&#228;ufige Abrechnung genehmigt</text><text fill="#000000" font-family="sans-serif" font-size="12" lengthAdjust="spacing" textLength="121" x="12" y="413.5998">- aktiver LKFRequest</text><text fill="#000000" font-family="sans-serif" font-size="12" lengthAdjust="spacing" textLength="281" x="12" y="427.7327">- Claim.supportingInfo:FinaleAbrechnung = false</text><text fill="#000000" font-family="sans-serif" font-size="12" lengthAdjust="spacing" textLength="135" x="12" y="441.8655">- positive LKFResponse</text></g><g id="D"><rect fill="#F1F1F1" height="78.8867" rx="12.5" ry="12.5" style="stroke:#181818;stroke-width:0.5;" width="301" x="343" y="370.51"/><line style="stroke:#181818;stroke-width:0.5;" x1="343" x2="644" y1="396.9983" y2="396.9983"/><text fill="#000000" font-family="sans-serif" font-size="14" lengthAdjust="spacing" textLength="225" x="381" y="389.0452">vol&#228;ufige Abrechnung abgelehnt</text><text fill="#000000" font-family="sans-serif" font-size="12" lengthAdjust="spacing" textLength="121" x="348" y="413.5998">- aktiver LKFRequest</text><text fill="#000000" font-family="sans-serif" font-size="12" lengthAdjust="spacing" textLength="281" x="348" y="427.7327">- Claim.supportingInfo:FinaleAbrechnung = false</text><text fill="#000000" font-family="sans-serif" font-size="12" lengthAdjust="spacing" textLength="139" x="348" y="441.8655">- negative LKFResponse</text></g><g id="E"><rect fill="#F1F1F1" height="78.8867" rx="12.5" ry="12.5" style="stroke:#181818;stroke-width:0.5;" width="297" x="345" y="526.4"/><line style="stroke:#181818;stroke-width:0.5;" x1="345" x2="642" y1="552.8883" y2="552.8883"/><text fill="#000000" font-family="sans-serif" font-size="14" lengthAdjust="spacing" textLength="232" x="377.5" y="544.9352">finale Abrechnung unbeantwortet</text><text fill="#000000" font-family="sans-serif" font-size="12" lengthAdjust="spacing" textLength="121" x="350" y="569.4898">- aktiver LKFRequest</text><text fill="#000000" font-family="sans-serif" font-size="12" lengthAdjust="spacing" textLength="277" x="350" y="583.6227">- Claim.supportingInfo:FinaleAbrechnung = true</text><text fill="#000000" font-family="sans-serif" font-size="12" lengthAdjust="spacing" textLength="119" x="350" y="597.7555">- ohne LKFResponse</text></g><g id="F"><rect fill="#F1F1F1" height="78.8867" rx="12.5" ry="12.5" style="stroke:#181818;stroke-width:0.5;" width="297" x="120" y="682.28"/><line style="stroke:#181818;stroke-width:0.5;" x1="120" x2="417" y1="708.7683" y2="708.7683"/><text fill="#000000" font-family="sans-serif" font-size="14" lengthAdjust="spacing" textLength="205" x="166" y="700.8152">finale Abrechnung genehmigt</text><text fill="#000000" font-family="sans-serif" font-size="12" lengthAdjust="spacing" textLength="121" x="125" y="725.3698">- aktiver LKFRequest</text><text fill="#000000" font-family="sans-serif" font-size="12" lengthAdjust="spacing" textLength="277" x="125" y="739.5027">- Claim.supportingInfo:FinaleAbrechnung = true</text><text fill="#000000" font-family="sans-serif" font-size="12" lengthAdjust="spacing" textLength="135" x="125" y="753.6355">- positive LKFResponse</text></g><g id="G"><rect fill="#F1F1F1" height="78.8867" rx="12.5" ry="12.5" style="stroke:#181818;stroke-width:0.5;" width="297" x="452" y="682.28"/><line style="stroke:#181818;stroke-width:0.5;" x1="452" x2="749" y1="708.7683" y2="708.7683"/><text fill="#000000" font-family="sans-serif" font-size="14" lengthAdjust="spacing" textLength="200" x="500.5" y="700.8152">finale Abrechnung abgelehnt</text><text fill="#000000" font-family="sans-serif" font-size="12" lengthAdjust="spacing" textLength="121" x="457" y="725.3698">- aktiver LKFRequest</text><text fill="#000000" font-family="sans-serif" font-size="12" lengthAdjust="spacing" textLength="277" x="457" y="739.5027">- Claim.supportingInfo:FinaleAbrechnung = true</text><text fill="#000000" font-family="sans-serif" font-size="12" lengthAdjust="spacing" textLength="139" x="457" y="753.6355">- negative LKFResponse</text></g><ellipse cx="548.5" cy="16" fill="#222222" rx="10" ry="10" style="stroke:#222222;stroke-width:1.0;"/><ellipse cx="268.5" cy="833.17" fill="none" rx="11" ry="11" style="stroke:#222222;stroke-width:1.0;"/><ellipse cx="268.5" cy="833.17" fill="#222222" rx="6" ry="6" style="stroke:#222222;stroke-width:1.0;"/><!--link *start* to A--><g id="link_*start*_A"><path d="M548.5,26.39 C548.5,40.37 548.5,61.12 548.5,80.88 " fill="none" id="*start*-to-A" style="stroke:#181818;stroke-width:1.0;"/><polygon fill="#181818" points="548.5,86.88,552.5,77.88,548.5,81.88,544.5,77.88,548.5,86.88" style="stroke:#181818;stroke-width:1.0;"/></g><!--link A to B--><g id="link_A_B"><path d="M522.2,137.98 C499.73,159.05 471.3751,185.6441 445.3751,210.0441 " fill="none" id="A-to-B" style="stroke:#181818;stroke-width:1.0;"/><polygon fill="#181818" points="441,214.15,450.2999,210.9079,444.6459,210.7284,444.8254,205.0744,441,214.15" style="stroke:#181818;stroke-width:1.0;"/><text fill="#000000" font-family="sans-serif" font-size="13" lengthAdjust="spacing" textLength="73" x="488.35" y="181.1884">$abrechnen</text></g><!--link A to E--><g id="link_A_E"><path d="M569.88,138.02 C616.6,195.16 719.12,339.9 661.5,449.4 C644.2,482.28 617.9862,504.5419 586.9962,522.9819 " fill="none" id="A-to-E" style="stroke:#181818;stroke-width:1.0;"/><polygon fill="#181818" points="581.84,526.05,591.6197,524.8853,586.1369,523.4932,587.5289,518.0103,581.84,526.05" style="stroke:#181818;stroke-width:1.0;"/><text fill="#000000" font-family="sans-serif" font-size="13" lengthAdjust="spacing" textLength="73" x="676.12" y="337.0784">$abrechnen</text></g><!--link B to C--><g id="link_B_C"><path d="M248.68,281.65 C205.96,292.42 167.48,306.4 154.5,323.51 C144.54,336.63 142.9096,348.5035 145.2496,364.4635 " fill="none" id="B-to-C" style="stroke:#181818;stroke-width:1.0;"/><polygon fill="#181818" points="146.12,370.4,148.7721,360.9149,145.3947,365.4529,140.8567,362.0755,146.12,370.4" style="stroke:#181818;stroke-width:1.0;"/><text fill="#000000" font-family="sans-serif" font-size="13" lengthAdjust="spacing" textLength="85" x="155.5" y="337.0784">$genehmigen</text></g><!--link C to B--><g id="link_C_B"><path d="M218.55,370.13 C255.23,346.81 296.6873,320.4501 333.3673,297.1201 " fill="none" id="C-to-B" style="stroke:#181818;stroke-width:1.0;"/><polygon fill="#181818" points="338.43,293.9,328.6892,295.355,334.2111,296.5834,332.9827,302.1053,338.43,293.9" style="stroke:#181818;stroke-width:1.0;"/><text fill="#000000" font-family="sans-serif" font-size="13" lengthAdjust="spacing" textLength="73" x="286.76" y="337.0784">$abrechnen</text></g><!--link B to D--><g id="link_B_D"><path d="M390.21,293.88 C388.52,309.17 389.19,326.41 396.5,340.51 C402.38,351.86 406.5435,357.8164 416.3835,366.2464 " fill="none" id="B-to-D" style="stroke:#181818;stroke-width:1.0;"/><polygon fill="#181818" points="420.94,370.15,416.7076,361.2569,417.1429,366.897,411.5028,367.3323,420.94,370.15" style="stroke:#181818;stroke-width:1.0;"/><text fill="#000000" font-family="sans-serif" font-size="13" lengthAdjust="spacing" textLength="65" x="397.5" y="337.0784">$ablehnen</text></g><!--link D to B--><g id="link_D_B"><path d="M485.98,370.28 C481.95,355.01 476.01,337.75 467.5,323.51 C461.23,313.01 457.1229,307.2991 448.5729,298.2591 " fill="none" id="D-to-B" style="stroke:#181818;stroke-width:1.0;"/><polygon fill="#181818" points="444.45,293.9,447.7282,303.1873,447.8857,297.5326,453.5404,297.6901,444.45,293.9" style="stroke:#181818;stroke-width:1.0;"/><text fill="#000000" font-family="sans-serif" font-size="13" lengthAdjust="spacing" textLength="73" x="476.21" y="337.0784">$abrechnen</text></g><!--link C to E--><g id="link_C_E"><path d="M242.29,449.79 C293.22,473.11 352.3551,500.1912 403.2851,523.5212 " fill="none" id="C-to-E" style="stroke:#181818;stroke-width:1.0;"/><polygon fill="#181818" points="408.74,526.02,402.2235,518.6352,404.1942,523.9377,398.8918,525.9084,408.74,526.02" style="stroke:#181818;stroke-width:1.0;"/><text fill="#000000" font-family="sans-serif" font-size="13" lengthAdjust="spacing" textLength="73" x="336.57" y="492.9684">$abrechnen</text></g><!--link D to E--><g id="link_D_E"><path d="M493.5,449.79 C493.5,473.11 493.5,496.69 493.5,520.02 " fill="none" id="D-to-E" style="stroke:#181818;stroke-width:1.0;"/><polygon fill="#181818" points="493.5,526.02,497.5,517.02,493.5,521.02,489.5,517.02,493.5,526.02" style="stroke:#181818;stroke-width:1.0;"/><text fill="#000000" font-family="sans-serif" font-size="13" lengthAdjust="spacing" textLength="73" x="494.5" y="492.9684">$abrechnen</text></g><!--link E to F--><g id="link_E_F"><path d="M433.61,605.78 C419.11,615.33 403.7,625.6 389.5,635.28 C367.51,650.28 348.413,663.6375 327.643,678.3775 " fill="none" id="E-to-F" style="stroke:#181818;stroke-width:1.0;"/><polygon fill="#181818" points="322.75,681.85,332.4046,679.9033,326.8275,678.9563,327.7746,673.3792,322.75,681.85" style="stroke:#181818;stroke-width:1.0;"/><text fill="#000000" font-family="sans-serif" font-size="13" lengthAdjust="spacing" textLength="85" x="390.5" y="648.8484">$genehmigen</text></g><!--link E to G--><g id="link_E_G"><path d="M483.85,605.44 C482.03,620.87 482.71,638.27 490.5,652.28 C496.89,663.79 501.4091,669.859 511.8291,678.169 " fill="none" id="E-to-G" style="stroke:#181818;stroke-width:1.0;"/><polygon fill="#181818" points="516.52,681.91,511.9776,673.1712,512.6109,678.7925,506.9896,679.4257,516.52,681.91" style="stroke:#181818;stroke-width:1.0;"/><text fill="#000000" font-family="sans-serif" font-size="13" lengthAdjust="spacing" textLength="65" x="491.5" y="648.8484">$ablehnen</text></g><!--link G to E--><g id="link_G_E"><path d="M586.33,682.17 C579.87,666.91 571.43,649.63 561.5,635.28 C554.35,624.95 549.7268,619.1171 540.8568,609.9271 " fill="none" id="G-to-E" style="stroke:#181818;stroke-width:1.0;"/><polygon fill="#181818" points="536.69,605.61,540.0621,614.8636,540.1623,609.2076,545.8183,609.3078,536.69,605.61" style="stroke:#181818;stroke-width:1.0;"/><text fill="#000000" font-family="sans-serif" font-size="13" lengthAdjust="spacing" textLength="73" x="571.96" y="648.8484">$abrechnen</text></g><!--link F to *end*--><g id="link_F_*end*"><path d="M268.5,761.62 C268.5,783 268.5,801.91 268.5,815.67 " fill="none" id="F-to-*end*" style="stroke:#181818;stroke-width:1.0;"/><polygon fill="#181818" points="268.5,821.67,272.5,812.67,268.5,816.67,264.5,812.67,268.5,821.67" style="stroke:#181818;stroke-width:1.0;"/></g><!--SRC=[hPDBJiCm48RtFiMeOeKK3X09fBo5oeeji73GnB6QJa9ibmjn4ow6OrD8YaitMKNw_3yc4qTfhX4sMvI4aDGZlhPaI6o0AqYOygU7Vkm-FqmZnLm3XchafD_xKQDsZlJN4J8896ptKdXnzh-Orm8xRCcBywEuaSIx2sCKvyNB4ShpmcLznLWI0qImiuk2XstvY6y6bMQfetodvG77sS4pHP1rNEvlb1a6EveaSKzD7vUkQLPq2mtl54w6lhKVmMMeeIU5B5ipVUYLd88M3VcQ3OI2_saeLcZGemalg5mnFBYVQiM2u7eOUxf-WIYwixzRufufn735VG3IDooMC7Kmc-3nHl_Gt4kdosjP7ihCpiEJeZm42mVBatPFgqLx5RAN3jhNPby0]--></g></svg>