<?xml version="1.0" encoding="us-ascii" standalone="no"?><svg xmlns="http://www.w3.org/2000/svg" xmlns:xlink="http://www.w3.org/1999/xlink" contentStyleType="text/css" height="466px" preserveAspectRatio="none" style="width:1103px;height:466px;background:#F5F5F5;" version="1.1" viewBox="0 0 1103 466" width="1103px" zoomAndPan="magnify"><defs><filter height="300%" id="fssmf3v8x20y6" width="300%" x="-1" y="-1"><feGaussianBlur result="blurOut" stdDeviation="2.0"/><feColorMatrix in="blurOut" result="blurOut2" type="matrix" values="0 0 0 0 0 0 0 0 0 0 0 0 0 0 0 0 0 0 .4 0"/><feOffset dx="4.0" dy="4.0" in="blurOut2" result="blurOut3"/><feBlend in="SourceGraphic" in2="blurOut3" mode="normal"/></filter><linearGradient id="gssmf3v8x20y60" x1="50%" x2="50%" y1="0%" y2="100%"><stop offset="0%" stop-color="#E0E5F0"/><stop offset="100%" stop-color="#D1D9E6"/></linearGradient></defs><g><rect fill="#F5F5F5" height="466" style="stroke:none;stroke-width:1.0;" width="1103" x="0" y="0"/><rect fill="#F5E599" height="454.231" rx="5" ry="5" style="stroke:#181818;stroke-width:0.5;" width="106" x="72" y="6"/><text fill="#000000" font-family="Arial" font-size="14" font-weight="bold" lengthAdjust="spacing" textLength="4" x="75" y="19.1318">&#160;</text><text fill="#000000" font-family="Arial" font-size="14" font-weight="bold" lengthAdjust="spacing" textLength="20" x="111" y="35.2305">KH</text><rect fill="#C5F7BA" height="454.231" rx="5" ry="5" style="stroke:#181818;stroke-width:0.5;" width="165" x="333.5" y="6"/><text fill="#000000" font-family="Arial" font-size="14" font-weight="bold" lengthAdjust="spacing" textLength="4" x="336.5" y="19.1318">&#160;</text><text fill="#000000" font-family="Arial" font-size="14" font-weight="bold" lengthAdjust="spacing" textLength="47" x="392.5" y="35.2305">Moped</text><rect fill="#C0C0C0" height="454.231" rx="5" ry="5" style="stroke:#181818;stroke-width:0.5;" width="104" x="540.5" y="6"/><text fill="#000000" font-family="Arial" font-size="14" font-weight="bold" lengthAdjust="spacing" textLength="4" x="543.5" y="19.1318">&#160;</text><text fill="#000000" font-family="Arial" font-size="14" font-weight="bold" lengthAdjust="spacing" textLength="18" x="579.5" y="35.2305">SV</text><rect fill="#C0C0C0" height="454.231" rx="5" ry="5" style="stroke:#181818;stroke-width:0.5;" width="238" x="686.5" y="6"/><text fill="#000000" font-family="Arial" font-size="14" font-weight="bold" lengthAdjust="spacing" textLength="4" x="689.5" y="19.1318">&#160;</text><text fill="#000000" font-family="Arial" font-size="14" font-weight="bold" lengthAdjust="spacing" textLength="220" x="693.5" y="35.2305">LGF (Landesgesundheitsfonds)</text><rect fill="#C0C0C0" height="454.231" rx="5" ry="5" style="stroke:#181818;stroke-width:0.5;" width="131" x="966.5" y="6"/><text fill="#000000" font-family="Arial" font-size="14" font-weight="bold" lengthAdjust="spacing" textLength="4" x="969.5" y="19.1318">&#160;</text><text fill="#000000" font-family="Arial" font-size="14" font-weight="bold" lengthAdjust="spacing" textLength="37" x="1013.5" y="35.2305">Bund</text><line style="stroke:#181818;stroke-width:0.5;stroke-dasharray:5.0,5.0;" x1="124.5" x2="124.5" y1="118.2959" y2="381.1323"/><line style="stroke:#181818;stroke-width:0.5;stroke-dasharray:5.0,5.0;" x1="416" x2="416" y1="118.2959" y2="381.1323"/><line style="stroke:#181818;stroke-width:0.5;stroke-dasharray:5.0,5.0;" x1="592" x2="592" y1="118.2959" y2="381.1323"/><line style="stroke:#181818;stroke-width:0.5;stroke-dasharray:5.0,5.0;" x1="805" x2="805" y1="118.2959" y2="381.1323"/><line style="stroke:#181818;stroke-width:0.5;stroke-dasharray:5.0,5.0;" x1="1031.5" x2="1031.5" y1="118.2959" y2="381.1323"/><text fill="#000000" font-family="Arial" font-size="14" lengthAdjust="spacing" textLength="19" x="112.5" y="115.3291">KH</text><ellipse cx="125" cy="50.6973" fill="#E2E2F0" rx="8" ry="8" style="stroke:#181818;stroke-width:0.5;"/><path d="M125,58.6973 L125,85.6973 M112,66.6973 L138,66.6973 M125,85.6973 L112,100.6973 M125,85.6973 L138,100.6973 " fill="none" style="stroke:#181818;stroke-width:0.5;"/><text fill="#000000" font-family="Arial" font-size="14" lengthAdjust="spacing" textLength="19" x="112.5" y="393.2642">KH</text><ellipse cx="125" cy="404.731" fill="#E2E2F0" rx="8" ry="8" style="stroke:#181818;stroke-width:0.5;"/><path d="M125,412.731 L125,439.731 M112,420.731 L138,420.731 M125,439.731 L112,454.731 M125,439.731 L138,454.731 " fill="none" style="stroke:#181818;stroke-width:0.5;"/><rect fill="#FFFFFF" height="30.0986" rx="5" ry="5" style="stroke:#555555;stroke-width:0.5;" width="58" x="387" y="87.1973"/><text fill="#000000" font-family="Arial" font-size="14" lengthAdjust="spacing" textLength="44" x="394" y="107.3291">Moped</text><rect fill="#FFFFFF" height="30.0986" rx="5" ry="5" style="stroke:#555555;stroke-width:0.5;" width="58" x="387" y="380.1323"/><text fill="#000000" font-family="Arial" font-size="14" lengthAdjust="spacing" textLength="44" x="394" y="400.2642">Moped</text><text fill="#000000" font-family="Arial" font-size="14" lengthAdjust="spacing" textLength="18" x="580.5" y="115.3291">SV</text><ellipse cx="592.5" cy="50.6973" fill="#E2E2F0" rx="8" ry="8" style="stroke:#181818;stroke-width:0.5;"/><path d="M592.5,58.6973 L592.5,85.6973 M579.5,66.6973 L605.5,66.6973 M592.5,85.6973 L579.5,100.6973 M592.5,85.6973 L605.5,100.6973 " fill="none" style="stroke:#181818;stroke-width:0.5;"/><text fill="#000000" font-family="Arial" font-size="14" lengthAdjust="spacing" textLength="18" x="580.5" y="393.2642">SV</text><ellipse cx="592.5" cy="404.731" fill="#E2E2F0" rx="8" ry="8" style="stroke:#181818;stroke-width:0.5;"/><path d="M592.5,412.731 L592.5,439.731 M579.5,420.731 L605.5,420.731 M592.5,439.731 L579.5,454.731 M592.5,439.731 L605.5,454.731 " fill="none" style="stroke:#181818;stroke-width:0.5;"/><text fill="#000000" font-family="Arial" font-size="14" lengthAdjust="spacing" textLength="201" x="702" y="115.3291">LGF (Landesgesundheitsfonds)</text><ellipse cx="805.5" cy="50.6973" fill="#E2E2F0" rx="8" ry="8" style="stroke:#181818;stroke-width:0.5;"/><path d="M805.5,58.6973 L805.5,85.6973 M792.5,66.6973 L818.5,66.6973 M805.5,85.6973 L792.5,100.6973 M805.5,85.6973 L818.5,100.6973 " fill="none" style="stroke:#181818;stroke-width:0.5;"/><text fill="#000000" font-family="Arial" font-size="14" lengthAdjust="spacing" textLength="201" x="702" y="393.2642">LGF (Landesgesundheitsfonds)</text><ellipse cx="805.5" cy="404.731" fill="#E2E2F0" rx="8" ry="8" style="stroke:#181818;stroke-width:0.5;"/><path d="M805.5,412.731 L805.5,439.731 M792.5,420.731 L818.5,420.731 M805.5,439.731 L792.5,454.731 M805.5,439.731 L818.5,454.731 " fill="none" style="stroke:#181818;stroke-width:0.5;"/><text fill="#000000" font-family="Arial" font-size="14" lengthAdjust="spacing" textLength="33" x="1012.5" y="115.3291">Bund</text><ellipse cx="1032" cy="50.6973" fill="#E2E2F0" rx="8" ry="8" style="stroke:#181818;stroke-width:0.5;"/><path d="M1032,58.6973 L1032,85.6973 M1019,66.6973 L1045,66.6973 M1032,85.6973 L1019,100.6973 M1032,85.6973 L1045,100.6973 " fill="none" style="stroke:#181818;stroke-width:0.5;"/><text fill="#000000" font-family="Arial" font-size="14" lengthAdjust="spacing" textLength="33" x="1012.5" y="393.2642">Bund</text><ellipse cx="1032" cy="404.731" fill="#E2E2F0" rx="8" ry="8" style="stroke:#181818;stroke-width:0.5;"/><path d="M1032,412.731 L1032,439.731 M1019,420.731 L1045,420.731 M1032,439.731 L1019,454.731 M1032,439.731 L1045,454.731 " fill="none" style="stroke:#181818;stroke-width:0.5;"/><path d="M204,138.2959 L204,234.2959 A5,5 0 0 0 209,239.2959 L620,239.2959 A5,5 0 0 0 625,234.2959 L625,143.2959 L615,133.2959 L209,133.2959 A5,5 0 0 0 204,138.2959 " fill="#C5F7BA" filter="url(#fssmf3v8x20y6)" style="stroke:#8B95A5;stroke-width:1.0;"/><path d="M615,133.2959 L615,140.7959 A2.5,2.5 0 0 0 617.5,143.2959 L625,143.2959 L615,133.2959 " fill="#C5F7BA" style="stroke:#8B95A5;stroke-width:1.0;"/><text fill="#111827" font-family="Arial" font-size="14" lengthAdjust="spacing" textLength="56" x="210" y="151.4277">Zustand:</text><text fill="#111827" font-family="Arial" font-size="14" lengthAdjust="spacing" textLength="250" x="210" y="167.5264">- Aufenthalts-/Besuchsdaten vollst&#228;ndig</text><text fill="#111827" font-family="Arial" font-size="14" lengthAdjust="spacing" textLength="279" x="226" y="183.625">(inklusive Entlassung bei station&#228;ren F&#228;llen)</text><text fill="#111827" font-family="Arial" font-size="14" lengthAdjust="spacing" textLength="177" x="210" y="199.7236">- Hauptdiagnose vorhanden</text><text fill="#111827" font-family="Arial" font-size="14" lengthAdjust="spacing" textLength="400" x="210" y="215.8223">- Keine Abrechnung mit dem Zustand: Unbeantwortet endg&#252;ltig</text><text fill="#111827" font-family="Arial" font-size="14" lengthAdjust="spacing" textLength="377" x="210" y="231.9209">- Keine Abrechnung mit dem Zustand: Genehmigt endg&#252;ltig</text><line style="stroke:#111827;stroke-width:2.0;" x1="414" x2="404" y1="268.8364" y2="264.8364"/><line style="stroke:#111827;stroke-width:2.0;" x1="414" x2="404" y1="268.8364" y2="272.8364"/><line style="stroke:#111827;stroke-width:2.0;" x1="125" x2="415" y1="268.8364" y2="268.8364"/><text fill="#000000" font-family="Arial" font-size="13" font-weight="bold" lengthAdjust="spacing" textLength="7" x="132" y="264.0815">1</text><text fill="#000000" font-family="Arial" font-size="13" lengthAdjust="spacing" textLength="191" x="143" y="264.0815">$abrechnen (POST LKFRequest)</text><path d="M5,286.8364 L5,302.8364 A5,5 0 0 0 10,307.8364 L238,307.8364 A5,5 0 0 0 243,302.8364 L243,291.8364 L233,281.8364 L10,281.8364 A5,5 0 0 0 5,286.8364 " fill="url(#gssmf3v8x20y60)" filter="url(#fssmf3v8x20y6)" style="stroke:#8B95A5;stroke-width:1.0;"/><path d="M233,281.8364 L233,289.3364 A2.5,2.5 0 0 0 235.5,291.8364 L243,291.8364 L233,281.8364 " fill="url(#gssmf3v8x20y60)" style="stroke:#8B95A5;stroke-width:1.0;"/><text fill="#111827" font-family="Arial" font-size="14" lengthAdjust="spacing" textLength="217" x="11" y="299.9683">Die Abrechnung wird bereitgestellt</text><path d="M253,325.9351 L253,357.9351 A5,5 0 0 0 258,362.9351 L570,362.9351 A5,5 0 0 0 575,357.9351 L575,330.9351 L565,320.9351 L258,320.9351 A5,5 0 0 0 253,325.9351 " fill="#C5F7BA" filter="url(#fssmf3v8x20y6)" style="stroke:#8B95A5;stroke-width:1.0;"/><path d="M565,320.9351 L565,328.4351 A2.5,2.5 0 0 0 567.5,330.9351 L575,330.9351 L565,320.9351 " fill="#C5F7BA" style="stroke:#8B95A5;stroke-width:1.0;"/><text fill="#111827" font-family="Arial" font-size="14" lengthAdjust="spacing" textLength="56" x="259" y="339.0669">Zustand:</text><text fill="#111827" font-family="Arial" font-size="14" lengthAdjust="spacing" textLength="301" x="259" y="355.1655">- Abrechnung unbeantwortet vorl&#228;ufig/endg&#252;ltig</text><!--SRC=[ZLJDSjem4BxxAJIaX-J012SX2Jba1jeGPaXQ9YGvT7gHhRMjGKYk90VQJj-6n-YD5-lA1931Gxk-sFlpxRVVMZ8JBdEgwPH4IZFG7vLGcXorIWlCDahZIQfL8TbxHj9sZvTXCihKZCkK95GOy2BlPLg29g4FoY2XXR1z9UrdEWNIw6fEHQC-Oyn_0WalweDLsbwEL1R8hu2Gtku0q89sqceUiP1ruD9b-09SHvqsRM-ypncF9nAC8I7wdho1hl5xH1bpWpiKZqqOXjTdL-WRRwInke3Wjqzmy2C7BRYSU2FStTKbl4XMli2xmBxsyBq06Qyc7L5jUSnpAcrbf7PfEmbxQosjchGly5vulPnAO2tBcIleQgrckyAKpgssPsjNNSTDODNh75tto3olpBX1NeNsfZjFBfBBQgM_sifcUchkJL3nr-aQ196QayOtITOs792jDToHWNQdWzrfRB4GmzIGnd3G240oF7_pVOZI7bKEhEf2jBYTN4KKqVAjukHnL6AM5GTWnwyxM2ttR9XXsA6CNsiW7kxxvFY1uhzeKZ0eRGRScaH9Paxgi5o-0pjKTr207kOUP5ick1RknOEYXLMoc4QWWw2y1jGRdbTKQ2tTry9O97GJD4ctI43QZ0fhcgSzv1TdXb4Bahmf8OnTBYJZQU087EDH58NXRq3kf1NKu30fYO0JHBDSoUL2Orr_kH02v0c23sYHMyPfAfK11DIPaq5YP0ZkE7SZ3N4c7SoKMxpMfcHDZRp8272nCwKjM8ApfSi_mYAL_oc-1mdPbAULGgUFaoC8y0TitjwY8ZVa0rt18F7ZqPVnCtaOzf_SfMBiYIVUS11yufMUCwvHRj2uJ5oh1I6ir-6Vic-1YigWA99OBeg4fwTrrFy2]--></g></svg>