<?xml version="1.0" encoding="us-ascii" standalone="no"?><svg xmlns="http://www.w3.org/2000/svg" xmlns:xlink="http://www.w3.org/1999/xlink" contentStyleType="text/css" height="673px" preserveAspectRatio="none" style="width:814px;height:673px;background:#F5F5F5;" version="1.1" viewBox="0 0 814 673" width="814px" zoomAndPan="magnify"><defs><filter height="300%" id="f1xo1r3lxgh3au" width="300%" x="-1" y="-1"><feGaussianBlur result="blurOut" stdDeviation="2.0"/><feColorMatrix in="blurOut" result="blurOut2" type="matrix" values="0 0 0 0 0 0 0 0 0 0 0 0 0 0 0 0 0 0 .4 0"/><feOffset dx="4.0" dy="4.0" in="blurOut2" result="blurOut3"/><feBlend in="SourceGraphic" in2="blurOut3" mode="normal"/></filter><linearGradient id="g1xo1r3lxgh3au0" x1="50%" x2="50%" y1="0%" y2="100%"><stop offset="0%" stop-color="#E0E5F0"/><stop offset="100%" stop-color="#D1D9E6"/></linearGradient></defs><g><rect fill="#F5F5F5" height="673" style="stroke:none;stroke-width:1.0;" width="814" x="0" y="0"/><rect fill="#F5E599" height="661.8701" rx="5" ry="5" style="stroke:#181818;stroke-width:0.5;" width="371" x="21" y="6"/><text fill="#000000" font-family="Arial" font-size="14" font-weight="bold" lengthAdjust="spacing" textLength="4" x="24" y="19.1318">&#160;</text><text fill="#000000" font-family="Arial" font-size="14" font-weight="bold" lengthAdjust="spacing" textLength="197" x="108" y="35.2305">KA (Herz-Jesu Krankenhaus)</text><rect fill="#C5F7BA" height="661.8701" rx="5" ry="5" style="stroke:#181818;stroke-width:0.5;" width="333" x="465.5" y="6"/><text fill="#000000" font-family="Arial" font-size="14" font-weight="bold" lengthAdjust="spacing" textLength="4" x="468.5" y="19.1318">&#160;</text><text fill="#000000" font-family="Arial" font-size="14" font-weight="bold" lengthAdjust="spacing" textLength="47" x="608.5" y="35.2305">Moped</text><rect fill="#FFFFFF" height="28" style="stroke:#181818;stroke-width:1.0;" width="10" x="627" y="393.1797"/><line style="stroke:#181818;stroke-width:0.5;stroke-dasharray:5.0,5.0;" x1="206" x2="206" y1="118.2959" y2="588.7715"/><line style="stroke:#181818;stroke-width:0.5;stroke-dasharray:5.0,5.0;" x1="632" x2="632" y1="118.2959" y2="588.7715"/><text fill="#000000" font-family="Arial" font-size="14" lengthAdjust="spacing" textLength="185" x="111" y="115.3291">KA (Herz-Jesu Krankenhaus)</text><ellipse cx="206.5" cy="50.6973" fill="#E2E2F0" rx="8" ry="8" style="stroke:#181818;stroke-width:0.5;"/><path d="M206.5,58.6973 L206.5,85.6973 M193.5,66.6973 L219.5,66.6973 M206.5,85.6973 L193.5,100.6973 M206.5,85.6973 L219.5,100.6973 " fill="none" style="stroke:#181818;stroke-width:0.5;"/><text fill="#000000" font-family="Arial" font-size="14" lengthAdjust="spacing" textLength="185" x="111" y="600.9033">KA (Herz-Jesu Krankenhaus)</text><ellipse cx="206.5" cy="612.3701" fill="#E2E2F0" rx="8" ry="8" style="stroke:#181818;stroke-width:0.5;"/><path d="M206.5,620.3701 L206.5,647.3701 M193.5,628.3701 L219.5,628.3701 M206.5,647.3701 L193.5,662.3701 M206.5,647.3701 L219.5,662.3701 " fill="none" style="stroke:#181818;stroke-width:0.5;"/><rect fill="#FFFFFF" height="30.0986" rx="5" ry="5" style="stroke:#555555;stroke-width:0.5;" width="58" x="603" y="87.1973"/><text fill="#000000" font-family="Arial" font-size="14" lengthAdjust="spacing" textLength="44" x="610" y="107.3291">Moped</text><rect fill="#FFFFFF" height="30.0986" rx="5" ry="5" style="stroke:#555555;stroke-width:0.5;" width="58" x="603" y="587.7715"/><text fill="#000000" font-family="Arial" font-size="14" lengthAdjust="spacing" textLength="44" x="610" y="607.9033">Moped</text><rect fill="#FFFFFF" height="28" style="stroke:#181818;stroke-width:1.0;" width="10" x="627" y="393.1797"/><path d="M458,138.2959 L458,282.2959 A5,5 0 0 0 463,287.2959 L797,287.2959 A5,5 0 0 0 802,282.2959 L802,143.2959 L792,133.2959 L463,133.2959 A5,5 0 0 0 458,138.2959 " fill="#C5F7BA" filter="url(#f1xo1r3lxgh3au)" style="stroke:#8B95A5;stroke-width:1.0;"/><path d="M792,133.2959 L792,140.7959 A2.5,2.5 0 0 0 794.5,143.2959 L802,143.2959 L792,133.2959 " fill="#C5F7BA" style="stroke:#8B95A5;stroke-width:1.0;"/><text fill="#111827" font-family="Arial" font-size="14" lengthAdjust="spacing" textLength="56" x="464" y="151.4277">Zustand:</text><text fill="#111827" font-family="Arial" font-size="14" lengthAdjust="spacing" textLength="250" x="464" y="167.5264">- Aufenthalts-/Besuchsdaten vollst&#228;ndig</text><text fill="#111827" font-family="Arial" font-size="14" lengthAdjust="spacing" textLength="279" x="480" y="183.625">(inklusive Entlassung bei station&#228;ren F&#228;llen)</text><text fill="#111827" font-family="Arial" font-size="14" lengthAdjust="spacing" textLength="177" x="464" y="199.7236">- Hauptdiagnose vorhanden</text><text fill="#111827" font-family="Arial" font-size="14" lengthAdjust="spacing" textLength="195" x="464" y="215.8223">G&#252;ltige Abrechnungszust&#228;nde:</text><text fill="#111827" font-family="Arial" font-size="14" lengthAdjust="spacing" textLength="323" x="464" y="231.9209">- keine vorl&#228;ufige/finale Abrechnung unbeantwortet</text><text fill="#111827" font-family="Arial" font-size="14" lengthAdjust="spacing" textLength="229" x="464" y="248.0195">- keine finale Abrechnung abgelehnt</text><text fill="#111827" font-family="Arial" font-size="14" lengthAdjust="spacing" textLength="233" x="464" y="264.1182">- keine finale Abrechnung genehmigt</text><text fill="#111827" font-family="Arial" font-size="14" lengthAdjust="spacing" textLength="4" x="464" y="280.2168">&#160;</text><line style="stroke:#111827;stroke-width:2.0;" x1="630" x2="620" y1="317.1323" y2="313.1323"/><line style="stroke:#111827;stroke-width:2.0;" x1="630" x2="620" y1="317.1323" y2="321.1323"/><line style="stroke:#111827;stroke-width:2.0;" x1="206.5" x2="631" y1="317.1323" y2="317.1323"/><text fill="#000000" font-family="Arial" font-size="13" font-weight="bold" lengthAdjust="spacing" textLength="7" x="213.5" y="312.3774">1</text><text fill="#000000" font-family="Arial" font-size="13" lengthAdjust="spacing" textLength="191" x="224.5" y="312.3774">$abrechnen (POST LKFRequest)</text><path d="M59,335.1323 L59,351.1323 A5,5 0 0 0 64,356.1323 L345,356.1323 A5,5 0 0 0 350,351.1323 L350,340.1323 L340,330.1323 L64,330.1323 A5,5 0 0 0 59,335.1323 " fill="url(#g1xo1r3lxgh3au0)" filter="url(#f1xo1r3lxgh3au)" style="stroke:#8B95A5;stroke-width:1.0;"/><path d="M340,330.1323 L340,337.6323 A2.5,2.5 0 0 0 342.5,340.1323 L350,340.1323 L340,330.1323 " fill="url(#g1xo1r3lxgh3au0)" style="stroke:#8B95A5;stroke-width:1.0;"/><text fill="#111827" font-family="Arial" font-size="14" lengthAdjust="spacing" textLength="270" x="65" y="348.2642">Die Abrechnung ist als "vorl&#228;ufig" markiert.</text><line style="stroke:#111827;stroke-width:2.0;" x1="637" x2="679" y1="385.1797" y2="385.1797"/><line style="stroke:#111827;stroke-width:2.0;" x1="679" x2="679" y1="385.1797" y2="398.1797"/><line style="stroke:#111827;stroke-width:2.0;" x1="638" x2="679" y1="398.1797" y2="398.1797"/><polygon fill="#111827" points="648,394.1797,638,398.1797,648,402.1797,644,398.1797" style="stroke:#111827;stroke-width:1.0;"/><text fill="#000000" font-family="Arial" font-size="13" font-weight="bold" lengthAdjust="spacing" textLength="7" x="644" y="380.4248">2</text><text fill="#000000" font-family="Arial" font-size="13" lengthAdjust="spacing" textLength="92" x="655" y="380.4248">&#9733;&#10022;&#9733;&#10022;&#9733;&#10022;&#9733;&#10022;</text><path d="M482,446.1797 L482,494.1797 A5,5 0 0 0 487,499.1797 L773,499.1797 A5,5 0 0 0 778,494.1797 L778,451.1797 L768,441.1797 L487,441.1797 A5,5 0 0 0 482,446.1797 " fill="url(#g1xo1r3lxgh3au0)" filter="url(#f1xo1r3lxgh3au)" style="stroke:#8B95A5;stroke-width:1.0;"/><path d="M768,441.1797 L768,448.6797 A2.5,2.5 0 0 0 770.5,451.1797 L778,451.1797 L768,441.1797 " fill="url(#g1xo1r3lxgh3au0)" style="stroke:#8B95A5;stroke-width:1.0;"/><text fill="#111827" font-family="Arial" font-size="14" lengthAdjust="spacing" textLength="246" x="488" y="459.3115">durch den neuen LKFRequest wird der</text><text fill="#111827" font-family="Arial" font-size="14" lengthAdjust="spacing" textLength="271" x="488" y="475.4102">vorherige LKFRequest (falls einer existiert)</text><text fill="#111827" font-family="Arial" font-size="14" lengthAdjust="spacing" textLength="157" x="488" y="491.5088">automatisch gecancelled</text><path d="M496,517.4756 L496,565.4756 A5,5 0 0 0 501,570.4756 L759,570.4756 A5,5 0 0 0 764,565.4756 L764,522.4756 L754,512.4756 L501,512.4756 A5,5 0 0 0 496,517.4756 " fill="#C5F7BA" filter="url(#f1xo1r3lxgh3au)" style="stroke:#8B95A5;stroke-width:1.0;"/><path d="M754,512.4756 L754,519.9756 A2.5,2.5 0 0 0 756.5,522.4756 L764,522.4756 L754,512.4756 " fill="#C5F7BA" style="stroke:#8B95A5;stroke-width:1.0;"/><text fill="#111827" font-family="Arial" font-size="14" lengthAdjust="spacing" textLength="56" x="502" y="530.6074">Zustand:</text><text fill="#111827" font-family="Arial" font-size="14" lengthAdjust="spacing" textLength="247" x="502" y="546.7061">- vorl&#228;ufige Abrechnung unbeantwortet</text><text fill="#111827" font-family="Arial" font-size="14" lengthAdjust="spacing" textLength="4" x="502" y="562.8047">&#160;</text><!--SRC=[ZLJDRjf04BxlKwn83-H04vAIX1mYaJO_AasBalHIzRBsZkqLPfRk3z1KFVOTUkWHzIbwuqto91sR0Ej0qYuIicU-dVtc-pnh-mg7meW1ZxIHO5xhN1k-jLikPbTP4VTJeptA1qJIAdu1mcP2wh72b2SYjn1a7hOP1CEROL49YV2vEzVetei1y5h7A97NDYDkr1tmvglDoIhj08FQ0V_6E3zzt03iGYlPRMp9fcp3GO481JYAsYtHMaPlCnNt4QpbJOfT1mqTqNjFI5aqNbG9s3IRpQEzGuhTBALnnWFx7XAy_3e4aoli1osSdMq2V4HPFi23mA7syCK3nlDEUy8u5QkXG5TfgLMkHu0rMyjL1QqBl9PUc5D9B6JPApPqZD7ZnyAKmPMsUulGfXENYVbP-nIw8ER3Ie_BolFKMdVxoQlaeBepjBRYpAcU11rKufjqPP6UyDfdv9jMjyFhbs3k6c_1Ujur0lk0cV1sUoEyLimNjDfjeYfYHwTG0M5vxUawDGOeQOWdpnEfhYiz1FaVEE8JjvB3I12VuSfWVjKhMPLb0WAqX7SQ_I02mrWvWtf4mqBuHQ5FtZg1yfWrUCSdW2uJkREDdLDgBCwi50wGZtIUMpURebGfAuZKQGvoRzK8-1cwN5ZhoPu85ATgJccSJGtjEvzDynnmcufV2ZzqKeaKjGKgQ38w5P1TpFxaJgN0Ev61E4EgO-_y_30eMFMX63NQaC-cFY7aJg9GvE46xZ42qc6iZGEttBEE4r4AEMJu72O5X6oWKiTA8GlH62E_6oSdfDinVo7cM6gltljmSylVTS-lYxctRZlKkDjXRrIbihAEqut1QwjcQdmWJ5-1SI-3qyYUnlom-vy_xd_zNlzdz3Mg4Nb3A2OXVAlOpAGtSKOtD784kfe2idoiZAICuQnm0qnXGf2kq-r6P0kL38S9aIzeRlFoangGoPOAfn0Bkk_8P1dm_zU75fZvj8khUdy1]--></g></svg>