<?xml version="1.0" encoding="us-ascii" standalone="no"?><svg xmlns="http://www.w3.org/2000/svg" xmlns:xlink="http://www.w3.org/1999/xlink" contentStyleType="text/css" height="514px" preserveAspectRatio="none" style="width:804px;height:514px;background:#F5F5F5;" version="1.1" viewBox="0 0 804 514" width="804px" zoomAndPan="magnify"><defs><filter height="300%" id="f1q9kwnog5p5ef" width="300%" x="-1" y="-1"><feGaussianBlur result="blurOut" stdDeviation="2.0"/><feColorMatrix in="blurOut" result="blurOut2" type="matrix" values="0 0 0 0 0 0 0 0 0 0 0 0 0 0 0 0 0 0 .4 0"/><feOffset dx="4.0" dy="4.0" in="blurOut2" result="blurOut3"/><feBlend in="SourceGraphic" in2="blurOut3" mode="normal"/></filter><linearGradient id="g1q9kwnog5p5ef0" x1="50%" x2="50%" y1="0%" y2="100%"><stop offset="0%" stop-color="#E0E5F0"/><stop offset="100%" stop-color="#D1D9E6"/></linearGradient></defs><g><rect fill="#F5F5F5" height="514" style="stroke:none;stroke-width:1.0;" width="804" x="0" y="0"/><rect fill="#F5E599" height="502.5269" rx="5" ry="5" style="stroke:#181818;stroke-width:0.5;" width="371" x="21" y="6"/><text fill="#000000" font-family="Arial" font-size="14" font-weight="bold" lengthAdjust="spacing" textLength="4" x="24" y="19.1318">&#160;</text><text fill="#000000" font-family="Arial" font-size="14" font-weight="bold" lengthAdjust="spacing" textLength="197" x="108" y="35.2305">KH (Herz-Jesu Krankenhaus)</text><rect fill="#C5F7BA" height="502.5269" rx="5" ry="5" style="stroke:#181818;stroke-width:0.5;" width="333" x="465" y="6"/><text fill="#000000" font-family="Arial" font-size="14" font-weight="bold" lengthAdjust="spacing" textLength="4" x="468" y="19.1318">&#160;</text><text fill="#000000" font-family="Arial" font-size="14" font-weight="bold" lengthAdjust="spacing" textLength="47" x="608" y="35.2305">Moped</text><line style="stroke:#181818;stroke-width:0.5;stroke-dasharray:5.0,5.0;" x1="206.5" x2="206.5" y1="118.2959" y2="429.4282"/><line style="stroke:#181818;stroke-width:0.5;stroke-dasharray:5.0,5.0;" x1="631.5" x2="631.5" y1="118.2959" y2="429.4282"/><text fill="#000000" font-family="Arial" font-size="14" lengthAdjust="spacing" textLength="186" x="110.5" y="115.3291">KH (Herz-Jesu Krankenhaus)</text><ellipse cx="206.5" cy="50.6973" fill="#E2E2F0" rx="8" ry="8" style="stroke:#181818;stroke-width:0.5;"/><path d="M206.5,58.6973 L206.5,85.6973 M193.5,66.6973 L219.5,66.6973 M206.5,85.6973 L193.5,100.6973 M206.5,85.6973 L219.5,100.6973 " fill="none" style="stroke:#181818;stroke-width:0.5;"/><text fill="#000000" font-family="Arial" font-size="14" lengthAdjust="spacing" textLength="186" x="110.5" y="441.5601">KH (Herz-Jesu Krankenhaus)</text><ellipse cx="206.5" cy="453.0269" fill="#E2E2F0" rx="8" ry="8" style="stroke:#181818;stroke-width:0.5;"/><path d="M206.5,461.0269 L206.5,488.0269 M193.5,469.0269 L219.5,469.0269 M206.5,488.0269 L193.5,503.0269 M206.5,488.0269 L219.5,503.0269 " fill="none" style="stroke:#181818;stroke-width:0.5;"/><rect fill="#FFFFFF" height="30.0986" rx="5" ry="5" style="stroke:#555555;stroke-width:0.5;" width="58" x="602.5" y="87.1973"/><text fill="#000000" font-family="Arial" font-size="14" lengthAdjust="spacing" textLength="44" x="609.5" y="107.3291">Moped</text><rect fill="#FFFFFF" height="30.0986" rx="5" ry="5" style="stroke:#555555;stroke-width:0.5;" width="58" x="602.5" y="428.4282"/><text fill="#000000" font-family="Arial" font-size="14" lengthAdjust="spacing" textLength="44" x="609.5" y="448.5601">Moped</text><path d="M472,138.2959 L472,282.2959 A5,5 0 0 0 477,287.2959 L783,287.2959 A5,5 0 0 0 788,282.2959 L788,143.2959 L778,133.2959 L477,133.2959 A5,5 0 0 0 472,138.2959 " fill="#C5F7BA" filter="url(#f1q9kwnog5p5ef)" style="stroke:#8B95A5;stroke-width:1.0;"/><path d="M778,133.2959 L778,140.7959 A2.5,2.5 0 0 0 780.5,143.2959 L788,143.2959 L778,133.2959 " fill="#C5F7BA" style="stroke:#8B95A5;stroke-width:1.0;"/><text fill="#111827" font-family="Arial" font-size="14" lengthAdjust="spacing" textLength="56" x="478" y="151.4277">Zustand:</text><text fill="#111827" font-family="Arial" font-size="14" lengthAdjust="spacing" textLength="250" x="478" y="167.5264">- Aufenthalts-/Besuchsdaten vollst&#228;ndig</text><text fill="#111827" font-family="Arial" font-size="14" lengthAdjust="spacing" textLength="279" x="494" y="183.625">(inklusive Entlassung bei station&#228;ren F&#228;llen)</text><text fill="#111827" font-family="Arial" font-size="14" lengthAdjust="spacing" textLength="177" x="478" y="199.7236">- Hauptdiagnose vorhanden</text><text fill="#111827" font-family="Arial" font-size="14" lengthAdjust="spacing" textLength="195" x="478" y="215.8223">G&#252;ltige Abrechnungszust&#228;nde:</text><text fill="#111827" font-family="Arial" font-size="14" lengthAdjust="spacing" textLength="126" x="478" y="231.9209">- Keine Abrechnung</text><text fill="#111827" font-family="Arial" font-size="14" lengthAdjust="spacing" textLength="219" x="478" y="248.0195">- vorl&#228;ufige Abrechnung abgelehnt</text><text fill="#111827" font-family="Arial" font-size="14" lengthAdjust="spacing" textLength="223" x="478" y="264.1182">- vorl&#228;ufige Abrechnung genehmigt</text><text fill="#111827" font-family="Arial" font-size="14" lengthAdjust="spacing" textLength="191" x="478" y="280.2168">- finale Abrechnung abgelehnt</text><line style="stroke:#111827;stroke-width:2.0;" x1="629.5" x2="619.5" y1="317.1323" y2="313.1323"/><line style="stroke:#111827;stroke-width:2.0;" x1="629.5" x2="619.5" y1="317.1323" y2="321.1323"/><line style="stroke:#111827;stroke-width:2.0;" x1="206.5" x2="630.5" y1="317.1323" y2="317.1323"/><text fill="#000000" font-family="Arial" font-size="13" font-weight="bold" lengthAdjust="spacing" textLength="7" x="213.5" y="312.3774">1</text><text fill="#000000" font-family="Arial" font-size="13" lengthAdjust="spacing" textLength="191" x="224.5" y="312.3774">$abrechnen (POST LKFRequest)</text><path d="M86,335.1323 L86,351.1323 A5,5 0 0 0 91,356.1323 L319,356.1323 A5,5 0 0 0 324,351.1323 L324,340.1323 L314,330.1323 L91,330.1323 A5,5 0 0 0 86,335.1323 " fill="url(#g1q9kwnog5p5ef0)" filter="url(#f1q9kwnog5p5ef)" style="stroke:#8B95A5;stroke-width:1.0;"/><path d="M314,330.1323 L314,337.6323 A2.5,2.5 0 0 0 316.5,340.1323 L324,340.1323 L314,330.1323 " fill="url(#g1q9kwnog5p5ef0)" style="stroke:#8B95A5;stroke-width:1.0;"/><text fill="#111827" font-family="Arial" font-size="14" lengthAdjust="spacing" textLength="217" x="92" y="348.2642">Die Abrechnung wird bereitgestellt</text><path d="M477,374.231 L477,406.231 A5,5 0 0 0 482,411.231 L778,411.231 A5,5 0 0 0 783,406.231 L783,379.231 L773,369.231 L482,369.231 A5,5 0 0 0 477,374.231 " fill="#C5F7BA" filter="url(#f1q9kwnog5p5ef)" style="stroke:#8B95A5;stroke-width:1.0;"/><path d="M773,369.231 L773,376.731 A2.5,2.5 0 0 0 775.5,379.231 L783,379.231 L773,369.231 " fill="#C5F7BA" style="stroke:#8B95A5;stroke-width:1.0;"/><text fill="#111827" font-family="Arial" font-size="14" lengthAdjust="spacing" textLength="56" x="483" y="387.3628">Zustand:</text><text fill="#111827" font-family="Arial" font-size="14" lengthAdjust="spacing" textLength="285" x="483" y="403.4614">- vorl&#228;ufige/finale Abrechnung unbeantwortet</text><!--SRC=[ZLDDKzj03BtxL-o47k2G0KCDX0CpeGKoJMapG2-TNjPUsTx9Hklk1w5q-c_oCthB7wlia6HDGjlD9P6UdfwU8ZkMM7739opLHe1vfvKsREUWUP5TPtasBepsA9uHUL9_0eGjkT1JYGNBkR8GP9xB389XSKWg8ETUkIkDxXEV0ElqZUIginrn9v-0nM-t9zko0mng1-ndnDZ5om7W09ByeBiZOj63uneH6d2QzXAUhABtfSp62DQoc6AtmK2dz7l4XQW7hra2DN4SdnwUKEnkPOqp7g9VeS31ZmgCaZWEHhYyt0RuWgBv0iy6Xzx3Tm-OBIOTSUDa9YkEhZLIqhmNW8srDgyDsZHu8xrSJYknjEMmBkWRewSlZMc2QsyFbw5j7LU9HQyZ2bsJygeruufvaTgOxYX_cn-tAyFLjZPpeH-32LhnRRv6gNvadM_8jhtXWEqEm3nrFu3rR6WuZW5BxktULdYdlYz8UZsIoZD7NOY0MzPvdQSJ0GewuiU_2sc_6rs1-0ySwScI_2JbfATQBvZTZ1fL3KqW8EBUQVIJ54mKDHUe7-XK2Bsa-UgjuoZEeYxh-npGbLmvszs_eB6oqWhk0Dc3Ligw-Go5BA9QnYvTWV9MFW2xHAUujPwMau9anEQanldCKDtLVAOKu1wH3xYld92yG6s124r9NG6Zw_blvMG1h9yQo4ea7lla5ysWLZM4-j3MMGfHjPhFVDukOpmjG469xdL80GZbH1Or99V8rIi4jO6rNL54U-wUdvDZP-mDNq1fiDtHvxjxzd5uTLlVktLxWRd3GVHUjdYdqj0-m81q1O51gR33lzOIZBA_gTbZ2lG7c6hZ863z0m00]--></g></svg>