<?xml version="1.0" encoding="us-ascii" standalone="no"?><svg xmlns="http://www.w3.org/2000/svg" xmlns:xlink="http://www.w3.org/1999/xlink" contentStyleType="text/css" height="466px" preserveAspectRatio="none" style="width:835px;height:466px;background:#F5F5F5;" version="1.1" viewBox="0 0 835 466" width="835px" zoomAndPan="magnify"><defs><filter height="300%" id="fbzle98lkzu20" width="300%" x="-1" y="-1"><feGaussianBlur result="blurOut" stdDeviation="2.0"/><feColorMatrix in="blurOut" result="blurOut2" type="matrix" values="0 0 0 0 0 0 0 0 0 0 0 0 0 0 0 0 0 0 .4 0"/><feOffset dx="4.0" dy="4.0" in="blurOut2" result="blurOut3"/><feBlend in="SourceGraphic" in2="blurOut3" mode="normal"/></filter><linearGradient id="gbzle98lkzu200" x1="50%" x2="50%" y1="0%" y2="100%"><stop offset="0%" stop-color="#E0E5F0"/><stop offset="100%" stop-color="#D1D9E6"/></linearGradient></defs><g><rect fill="#F5F5F5" height="466" style="stroke:none;stroke-width:1.0;" width="835" x="0" y="0"/><rect fill="#F5E599" height="454.231" rx="5" ry="5" style="stroke:#181818;stroke-width:0.5;" width="371" x="42" y="6"/><text fill="#000000" font-family="Arial" font-size="14" font-weight="bold" lengthAdjust="spacing" textLength="4" x="45" y="19.1318">&#160;</text><text fill="#000000" font-family="Arial" font-size="14" font-weight="bold" lengthAdjust="spacing" textLength="197" x="129" y="35.2305">KA (Herz-Jesu Krankenhaus)</text><rect fill="#C5F7BA" height="454.231" rx="5" ry="5" style="stroke:#181818;stroke-width:0.5;" width="333" x="486.5" y="6"/><text fill="#000000" font-family="Arial" font-size="14" font-weight="bold" lengthAdjust="spacing" textLength="4" x="489.5" y="19.1318">&#160;</text><text fill="#000000" font-family="Arial" font-size="14" font-weight="bold" lengthAdjust="spacing" textLength="47" x="629.5" y="35.2305">Moped</text><line style="stroke:#181818;stroke-width:0.5;stroke-dasharray:5.0,5.0;" x1="227" x2="227" y1="118.2959" y2="381.1323"/><line style="stroke:#181818;stroke-width:0.5;stroke-dasharray:5.0,5.0;" x1="653" x2="653" y1="118.2959" y2="381.1323"/><text fill="#000000" font-family="Arial" font-size="14" lengthAdjust="spacing" textLength="185" x="132" y="115.3291">KA (Herz-Jesu Krankenhaus)</text><ellipse cx="227.5" cy="50.6973" fill="#E2E2F0" rx="8" ry="8" style="stroke:#181818;stroke-width:0.5;"/><path d="M227.5,58.6973 L227.5,85.6973 M214.5,66.6973 L240.5,66.6973 M227.5,85.6973 L214.5,100.6973 M227.5,85.6973 L240.5,100.6973 " fill="none" style="stroke:#181818;stroke-width:0.5;"/><text fill="#000000" font-family="Arial" font-size="14" lengthAdjust="spacing" textLength="185" x="132" y="393.2642">KA (Herz-Jesu Krankenhaus)</text><ellipse cx="227.5" cy="404.731" fill="#E2E2F0" rx="8" ry="8" style="stroke:#181818;stroke-width:0.5;"/><path d="M227.5,412.731 L227.5,439.731 M214.5,420.731 L240.5,420.731 M227.5,439.731 L214.5,454.731 M227.5,439.731 L240.5,454.731 " fill="none" style="stroke:#181818;stroke-width:0.5;"/><rect fill="#FFFFFF" height="30.0986" rx="5" ry="5" style="stroke:#555555;stroke-width:0.5;" width="58" x="624" y="87.1973"/><text fill="#000000" font-family="Arial" font-size="14" lengthAdjust="spacing" textLength="44" x="631" y="107.3291">Moped</text><rect fill="#FFFFFF" height="30.0986" rx="5" ry="5" style="stroke:#555555;stroke-width:0.5;" width="58" x="624" y="380.1323"/><text fill="#000000" font-family="Arial" font-size="14" lengthAdjust="spacing" textLength="44" x="631" y="400.2642">Moped</text><path d="M479,138.2959 L479,234.2959 A5,5 0 0 0 484,239.2959 L818,239.2959 A5,5 0 0 0 823,234.2959 L823,143.2959 L813,133.2959 L484,133.2959 A5,5 0 0 0 479,138.2959 " fill="#C5F7BA" filter="url(#fbzle98lkzu20)" style="stroke:#8B95A5;stroke-width:1.0;"/><path d="M813,133.2959 L813,140.7959 A2.5,2.5 0 0 0 815.5,143.2959 L823,143.2959 L813,133.2959 " fill="#C5F7BA" style="stroke:#8B95A5;stroke-width:1.0;"/><text fill="#111827" font-family="Arial" font-size="14" lengthAdjust="spacing" textLength="56" x="485" y="151.4277">Zustand:</text><text fill="#111827" font-family="Arial" font-size="14" lengthAdjust="spacing" textLength="250" x="485" y="167.5264">- Aufenthalts-/Besuchsdaten vollst&#228;ndig</text><text fill="#111827" font-family="Arial" font-size="14" lengthAdjust="spacing" textLength="279" x="501" y="183.625">(inklusive Entlassung bei station&#228;ren F&#228;llen)</text><text fill="#111827" font-family="Arial" font-size="14" lengthAdjust="spacing" textLength="177" x="485" y="199.7236">- Hauptdiagnose vorhanden</text><text fill="#111827" font-family="Arial" font-size="14" lengthAdjust="spacing" textLength="323" x="485" y="215.8223">- keine vorl&#228;ufige/finale Abrechnung unbeantwortet</text><text fill="#111827" font-family="Arial" font-size="14" lengthAdjust="spacing" textLength="233" x="485" y="231.9209">- keine finale Abrechnung genehmigt</text><line style="stroke:#111827;stroke-width:2.0;" x1="651" x2="641" y1="268.8364" y2="264.8364"/><line style="stroke:#111827;stroke-width:2.0;" x1="651" x2="641" y1="268.8364" y2="272.8364"/><line style="stroke:#111827;stroke-width:2.0;" x1="227.5" x2="652" y1="268.8364" y2="268.8364"/><text fill="#000000" font-family="Arial" font-size="13" font-weight="bold" lengthAdjust="spacing" textLength="7" x="234.5" y="264.0815">1</text><text fill="#000000" font-family="Arial" font-size="13" lengthAdjust="spacing" textLength="191" x="245.5" y="264.0815">$abrechnen (POST LKFRequest)</text><path d="M5,286.8364 L5,302.8364 A5,5 0 0 0 10,307.8364 L443,307.8364 A5,5 0 0 0 448,302.8364 L448,291.8364 L438,281.8364 L10,281.8364 A5,5 0 0 0 5,286.8364 " fill="url(#gbzle98lkzu200)" filter="url(#fbzle98lkzu20)" style="stroke:#8B95A5;stroke-width:1.0;"/><path d="M438,281.8364 L438,289.3364 A2.5,2.5 0 0 0 440.5,291.8364 L448,291.8364 L438,281.8364 " fill="url(#gbzle98lkzu200)" style="stroke:#8B95A5;stroke-width:1.0;"/><text fill="#111827" font-family="Arial" font-size="14" lengthAdjust="spacing" textLength="422" x="11" y="299.9683">Einzelne Leistungen sind als "nicht abrechnungsrelevant" markiert.</text><path d="M498,325.9351 L498,357.9351 A5,5 0 0 0 503,362.9351 L799,362.9351 A5,5 0 0 0 804,357.9351 L804,330.9351 L794,320.9351 L503,320.9351 A5,5 0 0 0 498,325.9351 " fill="#C5F7BA" filter="url(#fbzle98lkzu20)" style="stroke:#8B95A5;stroke-width:1.0;"/><path d="M794,320.9351 L794,328.4351 A2.5,2.5 0 0 0 796.5,330.9351 L804,330.9351 L794,320.9351 " fill="#C5F7BA" style="stroke:#8B95A5;stroke-width:1.0;"/><text fill="#111827" font-family="Arial" font-size="14" lengthAdjust="spacing" textLength="56" x="504" y="339.0669">Zustand:</text><text fill="#111827" font-family="Arial" font-size="14" lengthAdjust="spacing" textLength="285" x="504" y="355.1655">- vorl&#228;ufige/finale Abrechnung unbeantwortet</text><!--SRC=[bLFBKjj04BphAxP43d1mm800Sw3Af4oe618Na4igbvLsP6rvFUlimoQayZV-4_zOHZ8MAwoyrXThfgUdUwR6JYJEkE5JbceZmBpJIXksSr2zoBvaUJOP6-rHF2FofFm525jmeHSInopdoaAGUIup28PrGr81EVVANMbq7_aKMDmtagku7N4ldu1rZzkJJTa11hK3zYDYxFAr0JY093_ex8YkwC59YGW7S9Rs4fxKqOT2PXC4QrcNOdU1eJFw7d4XIkCbIw2cs-sU7PvIxBuUZJCUef-XmEllCp1AuYImC1Yq0JwZgFx0yu33sSCt3vYjdOwuSJAJCuwkOIcftYl0rbghrmHj3tWhlLbE8x4Pos5Pq3T6BruFfWg-pFPm4shhM2VMlOuez9wKpneUQ-PrQilTKNwSdpGhmzKsDdEf7mC7ZNZRNADKFxBuAxAsD-optMimJvqFO3qR6euJm89xkzSAZylxWgJN8waySzI52BXbyUzvuWXGq14__bb8yztg6OX_m96UBCbFKqvwPYyBPhUZIbL54mY8k7SQ_JG54qNL1UevdGgXDpHVl7KSnNdKONsV0xg2AsSx-vTaAokiu0wGpRLIrgsMAEGuAcNiqXKeR-KSs02TujPwMauAaX6RanfNIqDrLwkbKe1xH7xD_Sm9oSUeBH2XAQWh86KcK5uIHTHgwNCvXlrS8bV0-gc1hC2IsMCAP7EXZGDNrspZne1GJENOLICe3KSHRQfpSK6UpzaRleQIjDtHf_i7TZEykYilrhgzS3x3VZIG-0IAcjo0j8wugSPA8gMBPp7Ah72Crusj0GLpKXYpAJSJ2SQz3IJyRVB_Oxvc_GK0]--></g></svg>