<?xml version="1.0" encoding="us-ascii" standalone="no"?><svg xmlns="http://www.w3.org/2000/svg" xmlns:xlink="http://www.w3.org/1999/xlink" contentStyleType="text/css" height="673px" preserveAspectRatio="none" style="width:804px;height:673px;background:#F5F5F5;" version="1.1" viewBox="0 0 804 673" width="804px" zoomAndPan="magnify"><defs><filter height="300%" id="f1rynegnbn4q3d" width="300%" x="-1" y="-1"><feGaussianBlur result="blurOut" stdDeviation="2.0"/><feColorMatrix in="blurOut" result="blurOut2" type="matrix" values="0 0 0 0 0 0 0 0 0 0 0 0 0 0 0 0 0 0 .4 0"/><feOffset dx="4.0" dy="4.0" in="blurOut2" result="blurOut3"/><feBlend in="SourceGraphic" in2="blurOut3" mode="normal"/></filter><linearGradient id="g1rynegnbn4q3d0" x1="50%" x2="50%" y1="0%" y2="100%"><stop offset="0%" stop-color="#E0E5F0"/><stop offset="100%" stop-color="#D1D9E6"/></linearGradient></defs><g><rect fill="#F5F5F5" height="673" style="stroke:none;stroke-width:1.0;" width="804" x="0" y="0"/><rect fill="#F5E599" height="661.8701" rx="5" ry="5" style="stroke:#181818;stroke-width:0.5;" width="371" x="21" y="6"/><text fill="#000000" font-family="Arial" font-size="14" font-weight="bold" lengthAdjust="spacing" textLength="4" x="24" y="19.1318">&#160;</text><text fill="#000000" font-family="Arial" font-size="14" font-weight="bold" lengthAdjust="spacing" textLength="197" x="108" y="35.2305">KH (Herz-Jesu Krankenhaus)</text><rect fill="#C5F7BA" height="661.8701" rx="5" ry="5" style="stroke:#181818;stroke-width:0.5;" width="333" x="465" y="6"/><text fill="#000000" font-family="Arial" font-size="14" font-weight="bold" lengthAdjust="spacing" textLength="4" x="468" y="19.1318">&#160;</text><text fill="#000000" font-family="Arial" font-size="14" font-weight="bold" lengthAdjust="spacing" textLength="47" x="608" y="35.2305">Moped</text><rect fill="#FFFFFF" height="28" style="stroke:#181818;stroke-width:1.0;" width="10" x="626.5" y="393.1797"/><line style="stroke:#181818;stroke-width:0.5;stroke-dasharray:5.0,5.0;" x1="206.5" x2="206.5" y1="118.2959" y2="588.7715"/><line style="stroke:#181818;stroke-width:0.5;stroke-dasharray:5.0,5.0;" x1="631.5" x2="631.5" y1="118.2959" y2="588.7715"/><text fill="#000000" font-family="Arial" font-size="14" lengthAdjust="spacing" textLength="186" x="110.5" y="115.3291">KH (Herz-Jesu Krankenhaus)</text><ellipse cx="206.5" cy="50.6973" fill="#E2E2F0" rx="8" ry="8" style="stroke:#181818;stroke-width:0.5;"/><path d="M206.5,58.6973 L206.5,85.6973 M193.5,66.6973 L219.5,66.6973 M206.5,85.6973 L193.5,100.6973 M206.5,85.6973 L219.5,100.6973 " fill="none" style="stroke:#181818;stroke-width:0.5;"/><text fill="#000000" font-family="Arial" font-size="14" lengthAdjust="spacing" textLength="186" x="110.5" y="600.9033">KH (Herz-Jesu Krankenhaus)</text><ellipse cx="206.5" cy="612.3701" fill="#E2E2F0" rx="8" ry="8" style="stroke:#181818;stroke-width:0.5;"/><path d="M206.5,620.3701 L206.5,647.3701 M193.5,628.3701 L219.5,628.3701 M206.5,647.3701 L193.5,662.3701 M206.5,647.3701 L219.5,662.3701 " fill="none" style="stroke:#181818;stroke-width:0.5;"/><rect fill="#FFFFFF" height="30.0986" rx="5" ry="5" style="stroke:#555555;stroke-width:0.5;" width="58" x="602.5" y="87.1973"/><text fill="#000000" font-family="Arial" font-size="14" lengthAdjust="spacing" textLength="44" x="609.5" y="107.3291">Moped</text><rect fill="#FFFFFF" height="30.0986" rx="5" ry="5" style="stroke:#555555;stroke-width:0.5;" width="58" x="602.5" y="587.7715"/><text fill="#000000" font-family="Arial" font-size="14" lengthAdjust="spacing" textLength="44" x="609.5" y="607.9033">Moped</text><rect fill="#FFFFFF" height="28" style="stroke:#181818;stroke-width:1.0;" width="10" x="626.5" y="393.1797"/><path d="M472,138.2959 L472,282.2959 A5,5 0 0 0 477,287.2959 L783,287.2959 A5,5 0 0 0 788,282.2959 L788,143.2959 L778,133.2959 L477,133.2959 A5,5 0 0 0 472,138.2959 " fill="#C5F7BA" filter="url(#f1rynegnbn4q3d)" style="stroke:#8B95A5;stroke-width:1.0;"/><path d="M778,133.2959 L778,140.7959 A2.5,2.5 0 0 0 780.5,143.2959 L788,143.2959 L778,133.2959 " fill="#C5F7BA" style="stroke:#8B95A5;stroke-width:1.0;"/><text fill="#111827" font-family="Arial" font-size="14" lengthAdjust="spacing" textLength="56" x="478" y="151.4277">Zustand:</text><text fill="#111827" font-family="Arial" font-size="14" lengthAdjust="spacing" textLength="250" x="478" y="167.5264">- Aufenthalts-/Besuchsdaten vollst&#228;ndig</text><text fill="#111827" font-family="Arial" font-size="14" lengthAdjust="spacing" textLength="279" x="494" y="183.625">(inklusive Entlassung bei station&#228;ren F&#228;llen)</text><text fill="#111827" font-family="Arial" font-size="14" lengthAdjust="spacing" textLength="177" x="478" y="199.7236">- Hauptdiagnose vorhanden</text><text fill="#111827" font-family="Arial" font-size="14" lengthAdjust="spacing" textLength="195" x="478" y="215.8223">G&#252;ltige Abrechnungszust&#228;nde:</text><text fill="#111827" font-family="Arial" font-size="14" lengthAdjust="spacing" textLength="126" x="478" y="231.9209">- Keine Abrechnung</text><text fill="#111827" font-family="Arial" font-size="14" lengthAdjust="spacing" textLength="219" x="478" y="248.0195">- vorl&#228;ufige Abrechnung abgelehnt</text><text fill="#111827" font-family="Arial" font-size="14" lengthAdjust="spacing" textLength="223" x="478" y="264.1182">- vorl&#228;ufige Abrechnung genehmigt</text><text fill="#111827" font-family="Arial" font-size="14" lengthAdjust="spacing" textLength="4" x="478" y="280.2168">&#160;</text><line style="stroke:#111827;stroke-width:2.0;" x1="629.5" x2="619.5" y1="317.1323" y2="313.1323"/><line style="stroke:#111827;stroke-width:2.0;" x1="629.5" x2="619.5" y1="317.1323" y2="321.1323"/><line style="stroke:#111827;stroke-width:2.0;" x1="206.5" x2="630.5" y1="317.1323" y2="317.1323"/><text fill="#000000" font-family="Arial" font-size="13" font-weight="bold" lengthAdjust="spacing" textLength="7" x="213.5" y="312.3774">1</text><text fill="#000000" font-family="Arial" font-size="13" lengthAdjust="spacing" textLength="191" x="224.5" y="312.3774">$abrechnen (POST LKFRequest)</text><path d="M59,335.1323 L59,351.1323 A5,5 0 0 0 64,356.1323 L345,356.1323 A5,5 0 0 0 350,351.1323 L350,340.1323 L340,330.1323 L64,330.1323 A5,5 0 0 0 59,335.1323 " fill="url(#g1rynegnbn4q3d0)" filter="url(#f1rynegnbn4q3d)" style="stroke:#8B95A5;stroke-width:1.0;"/><path d="M340,330.1323 L340,337.6323 A2.5,2.5 0 0 0 342.5,340.1323 L350,340.1323 L340,330.1323 " fill="url(#g1rynegnbn4q3d0)" style="stroke:#8B95A5;stroke-width:1.0;"/><text fill="#111827" font-family="Arial" font-size="14" lengthAdjust="spacing" textLength="270" x="65" y="348.2642">Die Abrechnung ist als "vorl&#228;ufig" markiert.</text><line style="stroke:#111827;stroke-width:2.0;" x1="636.5" x2="678.5" y1="385.1797" y2="385.1797"/><line style="stroke:#111827;stroke-width:2.0;" x1="678.5" x2="678.5" y1="385.1797" y2="398.1797"/><line style="stroke:#111827;stroke-width:2.0;" x1="637.5" x2="678.5" y1="398.1797" y2="398.1797"/><polygon fill="#111827" points="647.5,394.1797,637.5,398.1797,647.5,402.1797,643.5,398.1797" style="stroke:#111827;stroke-width:1.0;"/><text fill="#000000" font-family="Arial" font-size="13" font-weight="bold" lengthAdjust="spacing" textLength="7" x="643.5" y="380.4248">2</text><text fill="#000000" font-family="Arial" font-size="13" lengthAdjust="spacing" textLength="92" x="654.5" y="380.4248">&#9733;&#10022;&#9733;&#10022;&#9733;&#10022;&#9733;&#10022;</text><path d="M482,446.1797 L482,494.1797 A5,5 0 0 0 487,499.1797 L773,499.1797 A5,5 0 0 0 778,494.1797 L778,451.1797 L768,441.1797 L487,441.1797 A5,5 0 0 0 482,446.1797 " fill="url(#g1rynegnbn4q3d0)" filter="url(#f1rynegnbn4q3d)" style="stroke:#8B95A5;stroke-width:1.0;"/><path d="M768,441.1797 L768,448.6797 A2.5,2.5 0 0 0 770.5,451.1797 L778,451.1797 L768,441.1797 " fill="url(#g1rynegnbn4q3d0)" style="stroke:#8B95A5;stroke-width:1.0;"/><text fill="#111827" font-family="Arial" font-size="14" lengthAdjust="spacing" textLength="246" x="488" y="459.3115">durch den neuen LKFRequest wird der</text><text fill="#111827" font-family="Arial" font-size="14" lengthAdjust="spacing" textLength="271" x="488" y="475.4102">vorherige LKFRequest (falls einer existiert)</text><text fill="#111827" font-family="Arial" font-size="14" lengthAdjust="spacing" textLength="157" x="488" y="491.5088">automatisch gecancelled</text><path d="M492,517.4756 L492,565.4756 A5,5 0 0 0 497,570.4756 L763,570.4756 A5,5 0 0 0 768,565.4756 L768,522.4756 L758,512.4756 L497,512.4756 A5,5 0 0 0 492,517.4756 " fill="#C5F7BA" filter="url(#f1rynegnbn4q3d)" style="stroke:#8B95A5;stroke-width:1.0;"/><path d="M758,512.4756 L758,519.9756 A2.5,2.5 0 0 0 760.5,522.4756 L768,522.4756 L758,512.4756 " fill="#C5F7BA" style="stroke:#8B95A5;stroke-width:1.0;"/><text fill="#111827" font-family="Arial" font-size="14" lengthAdjust="spacing" textLength="56" x="498" y="530.6074">Zustand:</text><text fill="#111827" font-family="Arial" font-size="14" lengthAdjust="spacing" textLength="255" x="498" y="546.7061">- vorl&#228;ufige unbeantwortete Abrechnung</text><text fill="#111827" font-family="Arial" font-size="14" lengthAdjust="spacing" textLength="4" x="498" y="562.8047">&#160;</text><!--SRC=[ZLJDSX914BxFKtGH3-I0XaIIa4EgY2QXn2YLn8lbPNQdTtUAPGRd1p2MHz_1WqVAf_36c-H9x5q2p0QY3bKKT7_pzTTVpumTI3NYXWyXqaQWUQLpRM1dhrpChhCy7gH6UoKU44ch-0G8ct6X9rAbaF3SOf1vs6OK6cY6f08JxdDtePLxnuS8jOwHFAzjHzp8EuJco-t9gkm0exH3-Ce0pXutW7lOIlOQEw8fsdXO8483ZgDsYxTMqTjCnWE5raAJOjT1GyVqly-5A1elM08rpMRpUF-8OZShQvpnoBw50hjVHcXogGP12-Vdsm0Vb2X_u8F1eVVusQEA5vtskN4obYEkNAMbLhaU0JR6MgugQDFWZVHoE9N4qfRzOaF763rvR4mPN7kxlmnjgxXAB6eTKEYIb8ygFQwO5wcDxWwIbybXTMSusifaplGqwA0It-OhY_GKQfyKR5kzBjIxQEuQRz1ww1ck1gWoxktkLdYjk5_OQhT9AeyTLI42Rg7sD4-DeH9qYQT_5r9TLtg4uZzmf2Tk9KSH9psZzO3Xgb-gAca20RIuTrhvOOI6iV8EwZ5T5i8lYJvwwxWI9wm17P-WSXdFdMsyEAF6uimAxb31MEUvTVEP4Z9bXP0wtOFSMpb6E5SkvzPw6a-44eZDIQtcCqFxBkQpF4UrI-HTxaTEI9ugRP48JKPLKR7B-U_SoHIX4ncCCqKyziulYc6XgeV5LLjdAKIxy_dC9zLjmACKSyoKUngIei9iA5F7IfSAHnYZOJPEJycK4tZ65rZINk-_lxc5jxsBw-9IMxSR6jZhijUomYoj0teEeBQkN8CXDmE9nZqFgf7tZKMn-n_Vxt_-slncTDJac8md51CO_glCa0blueoUNmKAwTq9nC946a4P0wom6atXGv2kqzD5OWjh3U2Kn1SoTw4yBqEQe2NY56DEZnbDK0Jw_tMAGkUzYf3EvqGRXwuon3NX7m00]--></g></svg>