<?xml version="1.0" encoding="us-ascii" standalone="no"?><svg xmlns="http://www.w3.org/2000/svg" xmlns:xlink="http://www.w3.org/1999/xlink" contentStyleType="text/css" height="466px" preserveAspectRatio="none" style="width:873px;height:466px;background:#F5F5F5;" version="1.1" viewBox="0 0 873 466" width="873px" zoomAndPan="magnify"><defs><filter height="300%" id="fa0dy8p0okh5l" width="300%" x="-1" y="-1"><feGaussianBlur result="blurOut" stdDeviation="2.0"/><feColorMatrix in="blurOut" result="blurOut2" type="matrix" values="0 0 0 0 0 0 0 0 0 0 0 0 0 0 0 0 0 0 .4 0"/><feOffset dx="4.0" dy="4.0" in="blurOut2" result="blurOut3"/><feBlend in="SourceGraphic" in2="blurOut3" mode="normal"/></filter><linearGradient id="ga0dy8p0okh5l0" x1="50%" x2="50%" y1="0%" y2="100%"><stop offset="0%" stop-color="#E0E5F0"/><stop offset="100%" stop-color="#D1D9E6"/></linearGradient></defs><g><rect fill="#F5F5F5" height="466" style="stroke:none;stroke-width:1.0;" width="873" x="0" y="0"/><rect fill="#F5E599" height="454.231" rx="5" ry="5" style="stroke:#181818;stroke-width:0.5;" width="371" x="42" y="6"/><text fill="#000000" font-family="Arial" font-size="14" font-weight="bold" lengthAdjust="spacing" textLength="4" x="45" y="19.1318">&#160;</text><text fill="#000000" font-family="Arial" font-size="14" font-weight="bold" lengthAdjust="spacing" textLength="197" x="129" y="35.2305">KA (Herz-Jesu Krankenhaus)</text><rect fill="#C5F7BA" height="454.231" rx="5" ry="5" style="stroke:#181818;stroke-width:0.5;" width="333" x="486" y="6"/><text fill="#000000" font-family="Arial" font-size="14" font-weight="bold" lengthAdjust="spacing" textLength="4" x="489" y="19.1318">&#160;</text><text fill="#000000" font-family="Arial" font-size="14" font-weight="bold" lengthAdjust="spacing" textLength="47" x="629" y="35.2305">Moped</text><line style="stroke:#181818;stroke-width:0.5;stroke-dasharray:5.0,5.0;" x1="227.5" x2="227.5" y1="118.2959" y2="381.1323"/><line style="stroke:#181818;stroke-width:0.5;stroke-dasharray:5.0,5.0;" x1="652.5" x2="652.5" y1="118.2959" y2="381.1323"/><text fill="#000000" font-family="Arial" font-size="14" lengthAdjust="spacing" textLength="186" x="131.5" y="115.3291">KA (Herz-Jesu Krankenhaus)</text><ellipse cx="227.5" cy="50.6973" fill="#E2E2F0" rx="8" ry="8" style="stroke:#181818;stroke-width:0.5;"/><path d="M227.5,58.6973 L227.5,85.6973 M214.5,66.6973 L240.5,66.6973 M227.5,85.6973 L214.5,100.6973 M227.5,85.6973 L240.5,100.6973 " fill="none" style="stroke:#181818;stroke-width:0.5;"/><text fill="#000000" font-family="Arial" font-size="14" lengthAdjust="spacing" textLength="186" x="131.5" y="393.2642">KA (Herz-Jesu Krankenhaus)</text><ellipse cx="227.5" cy="404.731" fill="#E2E2F0" rx="8" ry="8" style="stroke:#181818;stroke-width:0.5;"/><path d="M227.5,412.731 L227.5,439.731 M214.5,420.731 L240.5,420.731 M227.5,439.731 L214.5,454.731 M227.5,439.731 L240.5,454.731 " fill="none" style="stroke:#181818;stroke-width:0.5;"/><rect fill="#FFFFFF" height="30.0986" rx="5" ry="5" style="stroke:#555555;stroke-width:0.5;" width="58" x="623.5" y="87.1973"/><text fill="#000000" font-family="Arial" font-size="14" lengthAdjust="spacing" textLength="44" x="630.5" y="107.3291">Moped</text><rect fill="#FFFFFF" height="30.0986" rx="5" ry="5" style="stroke:#555555;stroke-width:0.5;" width="58" x="623.5" y="380.1323"/><text fill="#000000" font-family="Arial" font-size="14" lengthAdjust="spacing" textLength="44" x="630.5" y="400.2642">Moped</text><path d="M440,138.2959 L440,234.2959 A5,5 0 0 0 445,239.2959 L856,239.2959 A5,5 0 0 0 861,234.2959 L861,143.2959 L851,133.2959 L445,133.2959 A5,5 0 0 0 440,138.2959 " fill="#C5F7BA" filter="url(#fa0dy8p0okh5l)" style="stroke:#8B95A5;stroke-width:1.0;"/><path d="M851,133.2959 L851,140.7959 A2.5,2.5 0 0 0 853.5,143.2959 L861,143.2959 L851,133.2959 " fill="#C5F7BA" style="stroke:#8B95A5;stroke-width:1.0;"/><text fill="#111827" font-family="Arial" font-size="14" lengthAdjust="spacing" textLength="56" x="446" y="151.4277">Zustand:</text><text fill="#111827" font-family="Arial" font-size="14" lengthAdjust="spacing" textLength="250" x="446" y="167.5264">- Aufenthalts-/Besuchsdaten vollst&#228;ndig</text><text fill="#111827" font-family="Arial" font-size="14" lengthAdjust="spacing" textLength="279" x="462" y="183.625">(inklusive Entlassung bei station&#228;ren F&#228;llen)</text><text fill="#111827" font-family="Arial" font-size="14" lengthAdjust="spacing" textLength="177" x="446" y="199.7236">- Hauptdiagnose vorhanden</text><text fill="#111827" font-family="Arial" font-size="14" lengthAdjust="spacing" textLength="400" x="446" y="215.8223">- Keine Abrechnung mit dem Zustand: Unbeantwortet endg&#252;ltig</text><text fill="#111827" font-family="Arial" font-size="14" lengthAdjust="spacing" textLength="377" x="446" y="231.9209">- Keine Abrechnung mit dem Zustand: Genehmigt endg&#252;ltig</text><line style="stroke:#111827;stroke-width:2.0;" x1="650.5" x2="640.5" y1="268.8364" y2="264.8364"/><line style="stroke:#111827;stroke-width:2.0;" x1="650.5" x2="640.5" y1="268.8364" y2="272.8364"/><line style="stroke:#111827;stroke-width:2.0;" x1="227.5" x2="651.5" y1="268.8364" y2="268.8364"/><text fill="#000000" font-family="Arial" font-size="13" font-weight="bold" lengthAdjust="spacing" textLength="7" x="234.5" y="264.0815">1</text><text fill="#000000" font-family="Arial" font-size="13" lengthAdjust="spacing" textLength="191" x="245.5" y="264.0815">$abrechnen (POST LKFRequest)</text><path d="M5,286.8364 L5,302.8364 A5,5 0 0 0 10,307.8364 L443,307.8364 A5,5 0 0 0 448,302.8364 L448,291.8364 L438,281.8364 L10,281.8364 A5,5 0 0 0 5,286.8364 " fill="url(#ga0dy8p0okh5l0)" filter="url(#fa0dy8p0okh5l)" style="stroke:#8B95A5;stroke-width:1.0;"/><path d="M438,281.8364 L438,289.3364 A2.5,2.5 0 0 0 440.5,291.8364 L448,291.8364 L438,281.8364 " fill="url(#ga0dy8p0okh5l0)" style="stroke:#8B95A5;stroke-width:1.0;"/><text fill="#111827" font-family="Arial" font-size="14" lengthAdjust="spacing" textLength="422" x="11" y="299.9683">Einzelne Leistungen sind als "nicht abrechnungsrelevant" markiert.</text><path d="M490,325.9351 L490,357.9351 A5,5 0 0 0 495,362.9351 L807,362.9351 A5,5 0 0 0 812,357.9351 L812,330.9351 L802,320.9351 L495,320.9351 A5,5 0 0 0 490,325.9351 " fill="#C5F7BA" filter="url(#fa0dy8p0okh5l)" style="stroke:#8B95A5;stroke-width:1.0;"/><path d="M802,320.9351 L802,328.4351 A2.5,2.5 0 0 0 804.5,330.9351 L812,330.9351 L802,320.9351 " fill="#C5F7BA" style="stroke:#8B95A5;stroke-width:1.0;"/><text fill="#111827" font-family="Arial" font-size="14" lengthAdjust="spacing" textLength="56" x="496" y="339.0669">Zustand:</text><text fill="#111827" font-family="Arial" font-size="14" lengthAdjust="spacing" textLength="301" x="496" y="355.1655">- Abrechnung unbeantwortet vorl&#228;ufig/endg&#252;ltig</text><!--SRC=[ZLJBKXf15DtFLtIDMUY2A1fKN5Y5APGAcb0-DgbiUgRlp7JHt2RzG6CgVyDdPCUFvSuWq2EJn6O3zt7kEUVMnOubJhdX4vPe8y1yr4eRjdDGlSXkiZmTvqPx52yLMQVy11Msu48_IinPnfM58FFIPX0CQuUW0ZBkbRlKw3xp2R2uPoHNSNF5dNm6rlxGdApJ3cfGEs0_8yOkNWk00-Xa1wqTqHPTE2uhGWDEasw7TzRH-qAcOmHhMPjYju6WK_ezuaAKmakKW4sxtJuzFA7OtTeQPpn4lqA2WnzJC4hYE93GxpSLFA2eli2BmQ7tyDq3fakb8swSJEMKewj9wbJlLS7MMgjNBzesU2kzMaujiRBbi6pe6QCVNnjJ1JVU7gv2JHFNYUMi8mfT4VDfJUCQUPdQKdUKVSYEwvtXQckRkT1FWO9QlCdNAD5FBFw6hEaD1snt0EQvzGciPqF3SGnOS6_t6ilZyhwWq-qILPuwca80tBBuxpXn12ZeY9_-JQJ-RlGKn1lgY4_QoKuIJdoccmMpcr75ge8924JSEur-ae29eke2zOnEXQfNC5-zTHp5MTHYFPy1ke8hPrlx5oGhBQpW3f3Dj5BMBUOeP1wLD7Rf2fItSWQiZqvnQpqj9m792Cr9ZOkveRxBnLmfm3q27t0_TKBo7BK50ZG5JGMap13AI-eb1j82IvY9TFIFCc4hQkm14o2HZzeuS8p4vOlVoX6LjpHV0K8naNcjiJIej2EAQ8-jytDov8ozuqiO8hux-d9tpww7bxVbFLkt5xet74HzYS-WQF8rIEjeBlLOIQ3qVy1Yb6dX65-JiWOKp4X1p2RSZ2KOzpwWyD-zRDJvcXFaebhCVIRp_IPjVm00]--></g></svg>