<?xml version="1.0" encoding="us-ascii" standalone="no"?><svg xmlns="http://www.w3.org/2000/svg" xmlns:xlink="http://www.w3.org/1999/xlink" contentStyleType="text/css" height="734px" preserveAspectRatio="none" style="width:649px;height:734px;background:#FFFFFF;" version="1.1" viewBox="0 0 649 734" width="649px" zoomAndPan="magnify"><defs/><g><g id="A"><rect fill="#F1F1F1" height="50" rx="12.5" ry="12.5" style="stroke:#181818;stroke-width:0.5;" width="147" x="406.5" y="87"/><line style="stroke:#181818;stroke-width:0.5;" x1="406.5" x2="553.5" y1="113.4883" y2="113.4883"/><text fill="#000000" font-family="sans-serif" font-size="14" lengthAdjust="spacing" textLength="127" x="416.5" y="105.5352">Keine Abrechnung</text></g><g id="B"><rect fill="#F1F1F1" height="50" rx="12.5" ry="12.5" style="stroke:#181818;stroke-width:0.5;" width="283" x="227.5" y="214"/><line style="stroke:#181818;stroke-width:0.5;" x1="227.5" x2="510.5" y1="240.4883" y2="240.4883"/><text fill="#000000" font-family="sans-serif" font-size="14" lengthAdjust="spacing" textLength="263" x="237.5" y="232.5352">vorl&#228;ufige Abrechnung unbeantwortet</text></g><g id="C"><rect fill="#F1F1F1" height="50" rx="12.5" ry="12.5" style="stroke:#181818;stroke-width:0.5;" width="250" x="7" y="341"/><line style="stroke:#181818;stroke-width:0.5;" x1="7" x2="257" y1="367.4883" y2="367.4883"/><text fill="#000000" font-family="sans-serif" font-size="14" lengthAdjust="spacing" textLength="230" x="17" y="359.5352">vol&#228;ufige Abrechnung genehmigt</text></g><g id="D"><rect fill="#F1F1F1" height="50" rx="12.5" ry="12.5" style="stroke:#181818;stroke-width:0.5;" width="245" x="292.5" y="341"/><line style="stroke:#181818;stroke-width:0.5;" x1="292.5" x2="537.5" y1="367.4883" y2="367.4883"/><text fill="#000000" font-family="sans-serif" font-size="14" lengthAdjust="spacing" textLength="225" x="302.5" y="359.5352">vol&#228;ufige Abrechnung abgelehnt</text></g><g id="E"><rect fill="#F1F1F1" height="50" rx="12.5" ry="12.5" style="stroke:#181818;stroke-width:0.5;" width="252" x="289" y="468"/><line style="stroke:#181818;stroke-width:0.5;" x1="289" x2="541" y1="494.4883" y2="494.4883"/><text fill="#000000" font-family="sans-serif" font-size="14" lengthAdjust="spacing" textLength="232" x="299" y="486.5352">finale Abrechnung unbeantwortet</text></g><g id="F"><rect fill="#F1F1F1" height="50" rx="12.5" ry="12.5" style="stroke:#181818;stroke-width:0.5;" width="225" x="151.5" y="595"/><line style="stroke:#181818;stroke-width:0.5;" x1="151.5" x2="376.5" y1="621.4883" y2="621.4883"/><text fill="#000000" font-family="sans-serif" font-size="14" lengthAdjust="spacing" textLength="205" x="161.5" y="613.5352">finale Abrechnung genehmigt</text></g><g id="G"><rect fill="#F1F1F1" height="50" rx="12.5" ry="12.5" style="stroke:#181818;stroke-width:0.5;" width="220" x="412" y="595"/><line style="stroke:#181818;stroke-width:0.5;" x1="412" x2="632" y1="621.4883" y2="621.4883"/><text fill="#000000" font-family="sans-serif" font-size="14" lengthAdjust="spacing" textLength="200" x="422" y="613.5352">finale Abrechnung abgelehnt</text></g><ellipse cx="480" cy="16" fill="#222222" rx="10" ry="10" style="stroke:#222222;stroke-width:1.0;"/><ellipse cx="264" cy="717" fill="none" rx="11" ry="11" style="stroke:#222222;stroke-width:1.0;"/><ellipse cx="264" cy="717" fill="#222222" rx="6" ry="6" style="stroke:#222222;stroke-width:1.0;"/><!--link *start* to A--><g id="link_*start*_A"><path d="M480,26.36 C480,40.29 480,60.95 480,80.65 " fill="none" id="*start*-to-A" style="stroke:#181818;stroke-width:1.0;"/><polygon fill="#181818" points="480,86.65,484,77.65,480,81.65,476,77.65,480,86.65" style="stroke:#181818;stroke-width:1.0;"/></g><!--link A to B--><g id="link_A_B"><path d="M458.33,137.4 C438.78,159.42 414.1344,187.174 394.5944,209.174 " fill="none" id="A-to-B" style="stroke:#181818;stroke-width:1.0;"/><polygon fill="#181818" points="390.61,213.66,399.5773,209.5872,393.9303,209.9216,393.5959,204.2747,390.61,213.66" style="stroke:#181818;stroke-width:1.0;"/><text fill="#000000" font-family="sans-serif" font-size="13" lengthAdjust="spacing" textLength="73" x="432.15" y="180.5684">$abrechnen</text></g><!--link A to E--><g id="link_A_E"><path d="M497.57,137.43 C530.96,187.09 596.68,302.61 555,391 C538.64,425.7 508.9281,448.1152 478.0181,464.6852 " fill="none" id="A-to-E" style="stroke:#181818;stroke-width:1.0;"/><polygon fill="#181818" points="472.73,467.52,482.552,466.7932,477.1367,465.1577,478.7723,459.7424,472.73,467.52" style="stroke:#181818;stroke-width:1.0;"/><text fill="#000000" font-family="sans-serif" font-size="13" lengthAdjust="spacing" textLength="73" x="568.52" y="307.5684">$abrechnen</text></g><!--link B to C--><g id="link_B_C"><path d="M227.12,255.89 C181.07,264.18 138.15,276.39 124,294 C113.59,306.96 114.4023,320.0981 119.3223,335.1181 " fill="none" id="B-to-C" style="stroke:#181818;stroke-width:1.0;"/><polygon fill="#181818" points="121.19,340.82,122.1897,331.022,119.6336,336.0684,114.5871,333.5123,121.19,340.82" style="stroke:#181818;stroke-width:1.0;"/><text fill="#000000" font-family="sans-serif" font-size="13" lengthAdjust="spacing" textLength="85" x="125" y="307.5684">$genehmigen</text></g><!--link C to B--><g id="link_C_B"><path d="M178.14,340.66 C219.87,318.66 275.6726,289.2186 317.4326,267.1986 " fill="none" id="C-to-B" style="stroke:#181818;stroke-width:1.0;"/><polygon fill="#181818" points="322.74,264.4,312.9133,265.0596,318.3172,266.7321,316.6447,272.1361,322.74,264.4" style="stroke:#181818;stroke-width:1.0;"/><text fill="#000000" font-family="sans-serif" font-size="13" lengthAdjust="spacing" textLength="73" x="265.69" y="307.5684">$abrechnen</text></g><!--link B to D--><g id="link_B_D"><path d="M363.23,264.45 C361.06,278.52 360.31,296.27 366,311 C370.24,321.98 373.7477,327.7504 381.7377,336.2004 " fill="none" id="B-to-D" style="stroke:#181818;stroke-width:1.0;"/><polygon fill="#181818" points="385.86,340.56,382.583,331.2723,382.4247,336.927,376.7701,336.7687,385.86,340.56" style="stroke:#181818;stroke-width:1.0;"/><text fill="#000000" font-family="sans-serif" font-size="13" lengthAdjust="spacing" textLength="65" x="367" y="307.5684">$ablehnen</text></g><!--link D to B--><g id="link_D_B"><path d="M431.39,340.66 C438.68,326.62 444.18,308.87 437,294 C431.36,282.33 426.5473,276.1204 416.3873,268.0904 " fill="none" id="D-to-B" style="stroke:#181818;stroke-width:1.0;"/><polygon fill="#181818" points="411.68,264.37,416.2606,273.0888,415.6027,267.4703,421.2212,266.8124,411.68,264.37" style="stroke:#181818;stroke-width:1.0;"/><text fill="#000000" font-family="sans-serif" font-size="13" lengthAdjust="spacing" textLength="73" x="441.36" y="307.5684">$abrechnen</text></g><!--link C to E--><g id="link_C_E"><path d="M187.24,391.4 C237.1,413.42 304.5913,443.2363 354.4113,465.2363 " fill="none" id="C-to-E" style="stroke:#181818;stroke-width:1.0;"/><polygon fill="#181818" points="359.9,467.66,353.2828,460.3653,355.3261,465.6402,350.0512,467.6835,359.9,467.66" style="stroke:#181818;stroke-width:1.0;"/><text fill="#000000" font-family="sans-serif" font-size="13" lengthAdjust="spacing" textLength="73" x="291.44" y="434.5684">$abrechnen</text></g><!--link D to E--><g id="link_D_E"><path d="M415,391.4 C415,413.42 415,439.66 415,461.66 " fill="none" id="D-to-E" style="stroke:#181818;stroke-width:1.0;"/><polygon fill="#181818" points="415,467.66,419,458.66,415,462.66,411,458.66,415,467.66" style="stroke:#181818;stroke-width:1.0;"/><text fill="#000000" font-family="sans-serif" font-size="13" lengthAdjust="spacing" textLength="73" x="416" y="434.5684">$abrechnen</text></g><!--link E to F--><g id="link_E_F"><path d="M355.26,518.47 C339.83,526.48 323.93,536.37 311,548 C296.38,561.15 287.1848,574.5556 278.9148,589.4356 " fill="none" id="E-to-F" style="stroke:#181818;stroke-width:1.0;"/><polygon fill="#181818" points="276,594.68,283.8684,588.7565,278.429,590.3096,276.8758,584.8702,276,594.68" style="stroke:#181818;stroke-width:1.0;"/><text fill="#000000" font-family="sans-serif" font-size="13" lengthAdjust="spacing" textLength="85" x="312" y="561.5684">$genehmigen</text></g><!--link E to G--><g id="link_E_G"><path d="M407.44,518.44 C404.44,533.01 403.45,551.28 412,565 C419.76,577.46 426.1538,584.0857 438.9138,591.5657 " fill="none" id="E-to-G" style="stroke:#181818;stroke-width:1.0;"/><polygon fill="#181818" points="444.09,594.6,438.3486,586.5977,439.7765,592.0714,434.3028,593.4993,444.09,594.6" style="stroke:#181818;stroke-width:1.0;"/><text fill="#000000" font-family="sans-serif" font-size="13" lengthAdjust="spacing" textLength="65" x="413" y="561.5684">$ablehnen</text></g><!--link G to E--><g id="link_G_E"><path d="M511.68,594.82 C504.82,580.34 494.88,562.08 483,548 C473.86,537.17 467.0051,530.682 455.9951,522.162 " fill="none" id="G-to-E" style="stroke:#181818;stroke-width:1.0;"/><polygon fill="#181818" points="451.25,518.49,455.9197,527.1614,455.2043,521.55,460.8157,520.8346,451.25,518.49" style="stroke:#181818;stroke-width:1.0;"/><text fill="#000000" font-family="sans-serif" font-size="13" lengthAdjust="spacing" textLength="73" x="495.77" y="561.5684">$abrechnen</text></g><!--link F to *end*--><g id="link_F_*end*"><path d="M264,645.46 C264,665.04 264,685.49 264,699.8 " fill="none" id="F-to-*end*" style="stroke:#181818;stroke-width:1.0;"/><polygon fill="#181818" points="264,705.8,268,696.8,264,700.8,260,696.8,264,705.8" style="stroke:#181818;stroke-width:1.0;"/></g><!--SRC=[XP113e8m44NtFSM4k3BX0YvCW08BZs1S53EK9ZWajEY5l8aN4rfHIugkcho-tpzJROH1Y0we226fUZmtD92CG6X8c7Qtrwvl7_UXLlBRWO4g56HkNM_Gs4JwIOG24WcRYv9EpdxBefBOOaDEvhDSAnBjdp7oTTaVeLWN_VgIiUFs176y7tybiMSAEzW85q1wmTo7gONP1EVYD-LEdJf6naDlPkjmKSH3CBUmMBGxMdhjPIXUM3YkpPu0]--></g></svg>