<?xml version="1.0" encoding="us-ascii" standalone="no"?><svg xmlns="http://www.w3.org/2000/svg" xmlns:xlink="http://www.w3.org/1999/xlink" contentStyleType="text/css" height="514px" preserveAspectRatio="none" style="width:825px;height:514px;background:#F5F5F5;" version="1.1" viewBox="0 0 825 514" width="825px" zoomAndPan="magnify"><defs><filter height="300%" id="frdtgqvwa105d" width="300%" x="-1" y="-1"><feGaussianBlur result="blurOut" stdDeviation="2.0"/><feColorMatrix in="blurOut" result="blurOut2" type="matrix" values="0 0 0 0 0 0 0 0 0 0 0 0 0 0 0 0 0 0 .4 0"/><feOffset dx="4.0" dy="4.0" in="blurOut2" result="blurOut3"/><feBlend in="SourceGraphic" in2="blurOut3" mode="normal"/></filter><linearGradient id="grdtgqvwa105d0" x1="50%" x2="50%" y1="0%" y2="100%"><stop offset="0%" stop-color="#E0E5F0"/><stop offset="100%" stop-color="#D1D9E6"/></linearGradient></defs><g><rect fill="#F5F5F5" height="514" style="stroke:none;stroke-width:1.0;" width="825" x="0" y="0"/><rect fill="#F5E599" height="502.5269" rx="5" ry="5" style="stroke:#181818;stroke-width:0.5;" width="371" x="42" y="6"/><text fill="#000000" font-family="Arial" font-size="14" font-weight="bold" lengthAdjust="spacing" textLength="4" x="45" y="19.1318">&#160;</text><text fill="#000000" font-family="Arial" font-size="14" font-weight="bold" lengthAdjust="spacing" textLength="197" x="129" y="35.2305">KH (Herz-Jesu Krankenhaus)</text><rect fill="#C5F7BA" height="502.5269" rx="5" ry="5" style="stroke:#181818;stroke-width:0.5;" width="333" x="486" y="6"/><text fill="#000000" font-family="Arial" font-size="14" font-weight="bold" lengthAdjust="spacing" textLength="4" x="489" y="19.1318">&#160;</text><text fill="#000000" font-family="Arial" font-size="14" font-weight="bold" lengthAdjust="spacing" textLength="47" x="629" y="35.2305">Moped</text><line style="stroke:#181818;stroke-width:0.5;stroke-dasharray:5.0,5.0;" x1="227.5" x2="227.5" y1="118.2959" y2="429.4282"/><line style="stroke:#181818;stroke-width:0.5;stroke-dasharray:5.0,5.0;" x1="652.5" x2="652.5" y1="118.2959" y2="429.4282"/><text fill="#000000" font-family="Arial" font-size="14" lengthAdjust="spacing" textLength="186" x="131.5" y="115.3291">KH (Herz-Jesu Krankenhaus)</text><ellipse cx="227.5" cy="50.6973" fill="#E2E2F0" rx="8" ry="8" style="stroke:#181818;stroke-width:0.5;"/><path d="M227.5,58.6973 L227.5,85.6973 M214.5,66.6973 L240.5,66.6973 M227.5,85.6973 L214.5,100.6973 M227.5,85.6973 L240.5,100.6973 " fill="none" style="stroke:#181818;stroke-width:0.5;"/><text fill="#000000" font-family="Arial" font-size="14" lengthAdjust="spacing" textLength="186" x="131.5" y="441.5601">KH (Herz-Jesu Krankenhaus)</text><ellipse cx="227.5" cy="453.0269" fill="#E2E2F0" rx="8" ry="8" style="stroke:#181818;stroke-width:0.5;"/><path d="M227.5,461.0269 L227.5,488.0269 M214.5,469.0269 L240.5,469.0269 M227.5,488.0269 L214.5,503.0269 M227.5,488.0269 L240.5,503.0269 " fill="none" style="stroke:#181818;stroke-width:0.5;"/><rect fill="#FFFFFF" height="30.0986" rx="5" ry="5" style="stroke:#555555;stroke-width:0.5;" width="58" x="623.5" y="87.1973"/><text fill="#000000" font-family="Arial" font-size="14" lengthAdjust="spacing" textLength="44" x="630.5" y="107.3291">Moped</text><rect fill="#FFFFFF" height="30.0986" rx="5" ry="5" style="stroke:#555555;stroke-width:0.5;" width="58" x="623.5" y="428.4282"/><text fill="#000000" font-family="Arial" font-size="14" lengthAdjust="spacing" textLength="44" x="630.5" y="448.5601">Moped</text><path d="M493,138.2959 L493,282.2959 A5,5 0 0 0 498,287.2959 L804,287.2959 A5,5 0 0 0 809,282.2959 L809,143.2959 L799,133.2959 L498,133.2959 A5,5 0 0 0 493,138.2959 " fill="#C5F7BA" filter="url(#frdtgqvwa105d)" style="stroke:#8B95A5;stroke-width:1.0;"/><path d="M799,133.2959 L799,140.7959 A2.5,2.5 0 0 0 801.5,143.2959 L809,143.2959 L799,133.2959 " fill="#C5F7BA" style="stroke:#8B95A5;stroke-width:1.0;"/><text fill="#111827" font-family="Arial" font-size="14" lengthAdjust="spacing" textLength="56" x="499" y="151.4277">Zustand:</text><text fill="#111827" font-family="Arial" font-size="14" lengthAdjust="spacing" textLength="250" x="499" y="167.5264">- Aufenthalts-/Besuchsdaten vollst&#228;ndig</text><text fill="#111827" font-family="Arial" font-size="14" lengthAdjust="spacing" textLength="279" x="515" y="183.625">(inklusive Entlassung bei station&#228;ren F&#228;llen)</text><text fill="#111827" font-family="Arial" font-size="14" lengthAdjust="spacing" textLength="177" x="499" y="199.7236">- Hauptdiagnose vorhanden</text><text fill="#111827" font-family="Arial" font-size="14" lengthAdjust="spacing" textLength="195" x="499" y="215.8223">G&#252;ltige Abrechnungszust&#228;nde:</text><text fill="#111827" font-family="Arial" font-size="14" lengthAdjust="spacing" textLength="126" x="499" y="231.9209">- Keine Abrechnung</text><text fill="#111827" font-family="Arial" font-size="14" lengthAdjust="spacing" textLength="219" x="499" y="248.0195">- vorl&#228;ufige Abrechnung abgelehnt</text><text fill="#111827" font-family="Arial" font-size="14" lengthAdjust="spacing" textLength="223" x="499" y="264.1182">- vorl&#228;ufige Abrechnung genehmigt</text><text fill="#111827" font-family="Arial" font-size="14" lengthAdjust="spacing" textLength="191" x="499" y="280.2168">- finale Abrechnung abgelehnt</text><line style="stroke:#111827;stroke-width:2.0;" x1="650.5" x2="640.5" y1="317.1323" y2="313.1323"/><line style="stroke:#111827;stroke-width:2.0;" x1="650.5" x2="640.5" y1="317.1323" y2="321.1323"/><line style="stroke:#111827;stroke-width:2.0;" x1="227.5" x2="651.5" y1="317.1323" y2="317.1323"/><text fill="#000000" font-family="Arial" font-size="13" font-weight="bold" lengthAdjust="spacing" textLength="7" x="234.5" y="312.3774">1</text><text fill="#000000" font-family="Arial" font-size="13" lengthAdjust="spacing" textLength="191" x="245.5" y="312.3774">$abrechnen (POST LKFRequest)</text><path d="M5,335.1323 L5,351.1323 A5,5 0 0 0 10,356.1323 L443,356.1323 A5,5 0 0 0 448,351.1323 L448,340.1323 L438,330.1323 L10,330.1323 A5,5 0 0 0 5,335.1323 " fill="url(#grdtgqvwa105d0)" filter="url(#frdtgqvwa105d)" style="stroke:#8B95A5;stroke-width:1.0;"/><path d="M438,330.1323 L438,337.6323 A2.5,2.5 0 0 0 440.5,340.1323 L448,340.1323 L438,330.1323 " fill="url(#grdtgqvwa105d0)" style="stroke:#8B95A5;stroke-width:1.0;"/><text fill="#111827" font-family="Arial" font-size="14" lengthAdjust="spacing" textLength="422" x="11" y="348.2642">Einzelne Leistungen sind als "nicht abrechnungsrelevant" markiert.</text><path d="M498,374.231 L498,406.231 A5,5 0 0 0 503,411.231 L799,411.231 A5,5 0 0 0 804,406.231 L804,379.231 L794,369.231 L503,369.231 A5,5 0 0 0 498,374.231 " fill="#C5F7BA" filter="url(#frdtgqvwa105d)" style="stroke:#8B95A5;stroke-width:1.0;"/><path d="M794,369.231 L794,376.731 A2.5,2.5 0 0 0 796.5,379.231 L804,379.231 L794,369.231 " fill="#C5F7BA" style="stroke:#8B95A5;stroke-width:1.0;"/><text fill="#111827" font-family="Arial" font-size="14" lengthAdjust="spacing" textLength="56" x="504" y="387.3628">Zustand:</text><text fill="#111827" font-family="Arial" font-size="14" lengthAdjust="spacing" textLength="285" x="504" y="403.4614">- vorl&#228;ufige/finale Abrechnung unbeantwortet</text><!--SRC=[ZLHDKnf14BtlhvXQSz03KLHKF5Y5APGAcb1gBgbSPdTwTwSOUiXyW26LVyFFo8q_bjv5O5OmoN21xjUlt-kknWubZhdX8vPe8y1yq4eRjdTKlSXkiZmTvaPx52-8h5L-0eGjkD1JYJdBkB8GP5xA389XpP1KGCQzSZSQtIS-0XPtZEGgterub3DWpTFToRhi08FQ0ViPCNRzsW0SGIixQko9fcZ3MOa81t2Hj5kyjOu-5J8T8bZBcXHx20nTqEy15w8qNh84QfhDviNnESKUrwDnnaFqAnJO-p46eoGE0mlTxYx05nJL5tWPS3Xx-Eu1qwNJ0JTEfdBCqTKijQht2h2rrkhLGTi3taglbbDBhCPoN1PqZD7JruEfWflP7gz2kpgk4yjU9nIw9UNZciSrypArvUuaEytEwfNXQckRkTRFWODQVDTSeqG_i_WRibsltsFxFJ2pnaUmdlKDno5WmRqzs0cFo_k2LhjDKddgg0iHSClYjtdY253G4J__NKZztUinYF_0aPwqbPqddFICDmjczuDALKKJ28YuTnhzA04JHTK5wWcT2g5ND5-zTHp5PTHW7Py1ke8hPnk7rsGhBQpW3f1Dj5BMBUOeP1wLClRf2fItSWAiYqvnQpqj9m79YCr9ZOkveRgRnLmfm0CYxt4_TaBo7BK58ZG5TGMCRXU_bPCvi4vY82sGUEpCBvj1gQeFvQ5jiXIYQhMO-wnUndYIWu82tTkG712AaSnBI2QHgpS8oW6MuueYsdFZweecTidUyIMKZEqFFZy-iRl-pKDvxzOTXDFjzwAkn1aeqdq7qZhYfXehYPJ-BrYCCYqSunl3XjfEQ8qn6t4pb63S-q32l_OMU3tSDkKn0QAUQkCWCFO7]--></g></svg>