<?xml version="1.0" encoding="us-ascii" standalone="no"?><svg xmlns="http://www.w3.org/2000/svg" xmlns:xlink="http://www.w3.org/1999/xlink" contentStyleType="text/css" height="466px" preserveAspectRatio="none" style="width:852px;height:466px;background:#F5F5F5;" version="1.1" viewBox="0 0 852 466" width="852px" zoomAndPan="magnify"><defs><filter height="300%" id="f4fwxjlmp3uq9" width="300%" x="-1" y="-1"><feGaussianBlur result="blurOut" stdDeviation="2.0"/><feColorMatrix in="blurOut" result="blurOut2" type="matrix" values="0 0 0 0 0 0 0 0 0 0 0 0 0 0 0 0 0 0 .4 0"/><feOffset dx="4.0" dy="4.0" in="blurOut2" result="blurOut3"/><feBlend in="SourceGraphic" in2="blurOut3" mode="normal"/></filter><linearGradient id="g4fwxjlmp3uq90" x1="50%" x2="50%" y1="0%" y2="100%"><stop offset="0%" stop-color="#E0E5F0"/><stop offset="100%" stop-color="#D1D9E6"/></linearGradient></defs><g><rect fill="#F5F5F5" height="466" style="stroke:none;stroke-width:1.0;" width="852" x="0" y="0"/><rect fill="#F5E599" height="454.231" rx="5" ry="5" style="stroke:#181818;stroke-width:0.5;" width="371" x="21" y="6"/><text fill="#000000" font-family="Arial" font-size="14" font-weight="bold" lengthAdjust="spacing" textLength="4" x="24" y="19.1318">&#160;</text><text fill="#000000" font-family="Arial" font-size="14" font-weight="bold" lengthAdjust="spacing" textLength="197" x="108" y="35.2305">KA (Herz-Jesu Krankenhaus)</text><rect fill="#C5F7BA" height="454.231" rx="5" ry="5" style="stroke:#181818;stroke-width:0.5;" width="333" x="465" y="6"/><text fill="#000000" font-family="Arial" font-size="14" font-weight="bold" lengthAdjust="spacing" textLength="4" x="468" y="19.1318">&#160;</text><text fill="#000000" font-family="Arial" font-size="14" font-weight="bold" lengthAdjust="spacing" textLength="47" x="608" y="35.2305">Moped</text><line style="stroke:#181818;stroke-width:0.5;stroke-dasharray:5.0,5.0;" x1="206.5" x2="206.5" y1="118.2959" y2="381.1323"/><line style="stroke:#181818;stroke-width:0.5;stroke-dasharray:5.0,5.0;" x1="631.5" x2="631.5" y1="118.2959" y2="381.1323"/><text fill="#000000" font-family="Arial" font-size="14" lengthAdjust="spacing" textLength="186" x="110.5" y="115.3291">KA (Herz-Jesu Krankenhaus)</text><ellipse cx="206.5" cy="50.6973" fill="#E2E2F0" rx="8" ry="8" style="stroke:#181818;stroke-width:0.5;"/><path d="M206.5,58.6973 L206.5,85.6973 M193.5,66.6973 L219.5,66.6973 M206.5,85.6973 L193.5,100.6973 M206.5,85.6973 L219.5,100.6973 " fill="none" style="stroke:#181818;stroke-width:0.5;"/><text fill="#000000" font-family="Arial" font-size="14" lengthAdjust="spacing" textLength="186" x="110.5" y="393.2642">KA (Herz-Jesu Krankenhaus)</text><ellipse cx="206.5" cy="404.731" fill="#E2E2F0" rx="8" ry="8" style="stroke:#181818;stroke-width:0.5;"/><path d="M206.5,412.731 L206.5,439.731 M193.5,420.731 L219.5,420.731 M206.5,439.731 L193.5,454.731 M206.5,439.731 L219.5,454.731 " fill="none" style="stroke:#181818;stroke-width:0.5;"/><rect fill="#FFFFFF" height="30.0986" rx="5" ry="5" style="stroke:#555555;stroke-width:0.5;" width="58" x="602.5" y="87.1973"/><text fill="#000000" font-family="Arial" font-size="14" lengthAdjust="spacing" textLength="44" x="609.5" y="107.3291">Moped</text><rect fill="#FFFFFF" height="30.0986" rx="5" ry="5" style="stroke:#555555;stroke-width:0.5;" width="58" x="602.5" y="380.1323"/><text fill="#000000" font-family="Arial" font-size="14" lengthAdjust="spacing" textLength="44" x="609.5" y="400.2642">Moped</text><path d="M419,138.2959 L419,234.2959 A5,5 0 0 0 424,239.2959 L835,239.2959 A5,5 0 0 0 840,234.2959 L840,143.2959 L830,133.2959 L424,133.2959 A5,5 0 0 0 419,138.2959 " fill="#C5F7BA" filter="url(#f4fwxjlmp3uq9)" style="stroke:#8B95A5;stroke-width:1.0;"/><path d="M830,133.2959 L830,140.7959 A2.5,2.5 0 0 0 832.5,143.2959 L840,143.2959 L830,133.2959 " fill="#C5F7BA" style="stroke:#8B95A5;stroke-width:1.0;"/><text fill="#111827" font-family="Arial" font-size="14" lengthAdjust="spacing" textLength="56" x="425" y="151.4277">Zustand:</text><text fill="#111827" font-family="Arial" font-size="14" lengthAdjust="spacing" textLength="250" x="425" y="167.5264">- Aufenthalts-/Besuchsdaten vollst&#228;ndig</text><text fill="#111827" font-family="Arial" font-size="14" lengthAdjust="spacing" textLength="279" x="441" y="183.625">(inklusive Entlassung bei station&#228;ren F&#228;llen)</text><text fill="#111827" font-family="Arial" font-size="14" lengthAdjust="spacing" textLength="177" x="425" y="199.7236">- Hauptdiagnose vorhanden</text><text fill="#111827" font-family="Arial" font-size="14" lengthAdjust="spacing" textLength="400" x="425" y="215.8223">- Keine Abrechnung mit dem Zustand: Unbeantwortet endg&#252;ltig</text><text fill="#111827" font-family="Arial" font-size="14" lengthAdjust="spacing" textLength="377" x="425" y="231.9209">- Keine Abrechnung mit dem Zustand: Genehmigt endg&#252;ltig</text><line style="stroke:#111827;stroke-width:2.0;" x1="629.5" x2="619.5" y1="268.8364" y2="264.8364"/><line style="stroke:#111827;stroke-width:2.0;" x1="629.5" x2="619.5" y1="268.8364" y2="272.8364"/><line style="stroke:#111827;stroke-width:2.0;" x1="206.5" x2="630.5" y1="268.8364" y2="268.8364"/><text fill="#000000" font-family="Arial" font-size="13" font-weight="bold" lengthAdjust="spacing" textLength="7" x="213.5" y="264.0815">1</text><text fill="#000000" font-family="Arial" font-size="13" lengthAdjust="spacing" textLength="191" x="224.5" y="264.0815">$abrechnen (POST LKFRequest)</text><path d="M86,286.8364 L86,302.8364 A5,5 0 0 0 91,307.8364 L319,307.8364 A5,5 0 0 0 324,302.8364 L324,291.8364 L314,281.8364 L91,281.8364 A5,5 0 0 0 86,286.8364 " fill="url(#g4fwxjlmp3uq90)" filter="url(#f4fwxjlmp3uq9)" style="stroke:#8B95A5;stroke-width:1.0;"/><path d="M314,281.8364 L314,289.3364 A2.5,2.5 0 0 0 316.5,291.8364 L324,291.8364 L314,281.8364 " fill="url(#g4fwxjlmp3uq90)" style="stroke:#8B95A5;stroke-width:1.0;"/><text fill="#111827" font-family="Arial" font-size="14" lengthAdjust="spacing" textLength="217" x="92" y="299.9683">Die Abrechnung wird bereitgestellt</text><path d="M469,325.9351 L469,357.9351 A5,5 0 0 0 474,362.9351 L786,362.9351 A5,5 0 0 0 791,357.9351 L791,330.9351 L781,320.9351 L474,320.9351 A5,5 0 0 0 469,325.9351 " fill="#C5F7BA" filter="url(#f4fwxjlmp3uq9)" style="stroke:#8B95A5;stroke-width:1.0;"/><path d="M781,320.9351 L781,328.4351 A2.5,2.5 0 0 0 783.5,330.9351 L791,330.9351 L781,320.9351 " fill="#C5F7BA" style="stroke:#8B95A5;stroke-width:1.0;"/><text fill="#111827" font-family="Arial" font-size="14" lengthAdjust="spacing" textLength="56" x="475" y="339.0669">Zustand:</text><text fill="#111827" font-family="Arial" font-size="14" lengthAdjust="spacing" textLength="301" x="475" y="355.1655">- Abrechnung unbeantwortet vorl&#228;ufig/endg&#252;ltig</text><!--SRC=[ZLJBKXf15DtFLtHX5hgWT5HKN5Y5YKg5c50-DgbiUgRlp7JHt2Rz468gVyDdPCUFvSuWq2EJn6O3zt7kEUVMnOuaJhZXOvPe8y2yrqeRjdDGlSXkiZmTvKPx52yLMQVy11Msu49F9UOiuyf2a7bfCmY6nI6eW8nxvQurkizy3ApLCvAhLdF5lNm65Xyt9-kqWnhK3jZFYB7BrmBW03hPGNj7nA8B9sL5QC1PqktmpZhwKCXqX60jYobs5mWwezz3BaGfl4G9sCHnV7PuIh7xjJNEU8X-XGJxFoPWbCHH8E7gggdW4KNr1LuC3hs7xnumNIeTSkDaAYSSNKrIftgl2hRMMhrwqRR1M-dLScg9bIs7PKFF63rzRKmLt7Xxk0erJLmdbhEEA7H3p2SrZMlaPMfBtL5sd9tKEyFLrZPpgMU1WbgyoTSeqJFM-eQiwGtwRBSFvhdz4Qnd0yDn15XmR_SQorlbVK6dsoMgF7KqXG2uPQs_uxGYG457FFitaVgxrHCGRwWZFcadEqquyPbi5inkXnMh2YOW477lDFfn0YQAgWlKJtGgLBs2-UgjuoZEepRh-GpG5Lmvszw_95bfOGLtWEn9AsNTOev2vb59OvUkG7ahdu1TeLFSMa_BIK0oGdDIus9kgEzwCLSAS8_0-znFd90yHss104r1Km4fCu3oadg9WRJ04cOi7VsZZDcA6dl414ZaL1i7Zf6uVF5REQBobkORG2Z6CgyrbWQLTaGHxR5zSK6EdBDtV0b3n7U7N-uVsAV1zLrvpzRj1UOD-j47MPivbORy1WFIvLGCIhbWmdzjtm3vcb0oIItcFfFvVXFrFm00]--></g></svg>