<?xml version="1.0" encoding="us-ascii" standalone="no"?><svg xmlns="http://www.w3.org/2000/svg" xmlns:xlink="http://www.w3.org/1999/xlink" contentStyleType="text/css" height="466px" preserveAspectRatio="none" style="width:814px;height:466px;background:#F5F5F5;" version="1.1" viewBox="0 0 814 466" width="814px" zoomAndPan="magnify"><defs><filter height="300%" id="fl3xrwu816ky1" width="300%" x="-1" y="-1"><feGaussianBlur result="blurOut" stdDeviation="2.0"/><feColorMatrix in="blurOut" result="blurOut2" type="matrix" values="0 0 0 0 0 0 0 0 0 0 0 0 0 0 0 0 0 0 .4 0"/><feOffset dx="4.0" dy="4.0" in="blurOut2" result="blurOut3"/><feBlend in="SourceGraphic" in2="blurOut3" mode="normal"/></filter><linearGradient id="gl3xrwu816ky10" x1="50%" x2="50%" y1="0%" y2="100%"><stop offset="0%" stop-color="#E0E5F0"/><stop offset="100%" stop-color="#D1D9E6"/></linearGradient></defs><g><rect fill="#F5F5F5" height="466" style="stroke:none;stroke-width:1.0;" width="814" x="0" y="0"/><rect fill="#F5E599" height="454.231" rx="5" ry="5" style="stroke:#181818;stroke-width:0.5;" width="371" x="21" y="6"/><text fill="#000000" font-family="Arial" font-size="14" font-weight="bold" lengthAdjust="spacing" textLength="4" x="24" y="19.1318">&#160;</text><text fill="#000000" font-family="Arial" font-size="14" font-weight="bold" lengthAdjust="spacing" textLength="197" x="108" y="35.2305">KH (Herz-Jesu Krankenhaus)</text><rect fill="#C5F7BA" height="454.231" rx="5" ry="5" style="stroke:#181818;stroke-width:0.5;" width="333" x="465" y="6"/><text fill="#000000" font-family="Arial" font-size="14" font-weight="bold" lengthAdjust="spacing" textLength="4" x="468" y="19.1318">&#160;</text><text fill="#000000" font-family="Arial" font-size="14" font-weight="bold" lengthAdjust="spacing" textLength="47" x="608" y="35.2305">Moped</text><line style="stroke:#181818;stroke-width:0.5;stroke-dasharray:5.0,5.0;" x1="206.5" x2="206.5" y1="118.2959" y2="381.1323"/><line style="stroke:#181818;stroke-width:0.5;stroke-dasharray:5.0,5.0;" x1="631.5" x2="631.5" y1="118.2959" y2="381.1323"/><text fill="#000000" font-family="Arial" font-size="14" lengthAdjust="spacing" textLength="186" x="110.5" y="115.3291">KH (Herz-Jesu Krankenhaus)</text><ellipse cx="206.5" cy="50.6973" fill="#E2E2F0" rx="8" ry="8" style="stroke:#181818;stroke-width:0.5;"/><path d="M206.5,58.6973 L206.5,85.6973 M193.5,66.6973 L219.5,66.6973 M206.5,85.6973 L193.5,100.6973 M206.5,85.6973 L219.5,100.6973 " fill="none" style="stroke:#181818;stroke-width:0.5;"/><text fill="#000000" font-family="Arial" font-size="14" lengthAdjust="spacing" textLength="186" x="110.5" y="393.2642">KH (Herz-Jesu Krankenhaus)</text><ellipse cx="206.5" cy="404.731" fill="#E2E2F0" rx="8" ry="8" style="stroke:#181818;stroke-width:0.5;"/><path d="M206.5,412.731 L206.5,439.731 M193.5,420.731 L219.5,420.731 M206.5,439.731 L193.5,454.731 M206.5,439.731 L219.5,454.731 " fill="none" style="stroke:#181818;stroke-width:0.5;"/><rect fill="#FFFFFF" height="30.0986" rx="5" ry="5" style="stroke:#555555;stroke-width:0.5;" width="58" x="602.5" y="87.1973"/><text fill="#000000" font-family="Arial" font-size="14" lengthAdjust="spacing" textLength="44" x="609.5" y="107.3291">Moped</text><rect fill="#FFFFFF" height="30.0986" rx="5" ry="5" style="stroke:#555555;stroke-width:0.5;" width="58" x="602.5" y="380.1323"/><text fill="#000000" font-family="Arial" font-size="14" lengthAdjust="spacing" textLength="44" x="609.5" y="400.2642">Moped</text><path d="M458,138.2959 L458,234.2959 A5,5 0 0 0 463,239.2959 L797,239.2959 A5,5 0 0 0 802,234.2959 L802,143.2959 L792,133.2959 L463,133.2959 A5,5 0 0 0 458,138.2959 " fill="#C5F7BA" filter="url(#fl3xrwu816ky1)" style="stroke:#8B95A5;stroke-width:1.0;"/><path d="M792,133.2959 L792,140.7959 A2.5,2.5 0 0 0 794.5,143.2959 L802,143.2959 L792,133.2959 " fill="#C5F7BA" style="stroke:#8B95A5;stroke-width:1.0;"/><text fill="#111827" font-family="Arial" font-size="14" lengthAdjust="spacing" textLength="56" x="464" y="151.4277">Zustand:</text><text fill="#111827" font-family="Arial" font-size="14" lengthAdjust="spacing" textLength="250" x="464" y="167.5264">- Aufenthalts-/Besuchsdaten vollst&#228;ndig</text><text fill="#111827" font-family="Arial" font-size="14" lengthAdjust="spacing" textLength="279" x="480" y="183.625">(inklusive Entlassung bei station&#228;ren F&#228;llen)</text><text fill="#111827" font-family="Arial" font-size="14" lengthAdjust="spacing" textLength="177" x="464" y="199.7236">- Hauptdiagnose vorhanden</text><text fill="#111827" font-family="Arial" font-size="14" lengthAdjust="spacing" textLength="323" x="464" y="215.8223">- keine vorl&#228;ufige/finale Abrechnung unbeantwortet</text><text fill="#111827" font-family="Arial" font-size="14" lengthAdjust="spacing" textLength="233" x="464" y="231.9209">- keine finale Abrechnung genehmigt</text><line style="stroke:#111827;stroke-width:2.0;" x1="629.5" x2="619.5" y1="268.8364" y2="264.8364"/><line style="stroke:#111827;stroke-width:2.0;" x1="629.5" x2="619.5" y1="268.8364" y2="272.8364"/><line style="stroke:#111827;stroke-width:2.0;" x1="206.5" x2="630.5" y1="268.8364" y2="268.8364"/><text fill="#000000" font-family="Arial" font-size="13" font-weight="bold" lengthAdjust="spacing" textLength="7" x="213.5" y="264.0815">1</text><text fill="#000000" font-family="Arial" font-size="13" lengthAdjust="spacing" textLength="191" x="224.5" y="264.0815">$abrechnen (POST LKFRequest)</text><path d="M86,286.8364 L86,302.8364 A5,5 0 0 0 91,307.8364 L319,307.8364 A5,5 0 0 0 324,302.8364 L324,291.8364 L314,281.8364 L91,281.8364 A5,5 0 0 0 86,286.8364 " fill="url(#gl3xrwu816ky10)" filter="url(#fl3xrwu816ky1)" style="stroke:#8B95A5;stroke-width:1.0;"/><path d="M314,281.8364 L314,289.3364 A2.5,2.5 0 0 0 316.5,291.8364 L324,291.8364 L314,281.8364 " fill="url(#gl3xrwu816ky10)" style="stroke:#8B95A5;stroke-width:1.0;"/><text fill="#111827" font-family="Arial" font-size="14" lengthAdjust="spacing" textLength="217" x="92" y="299.9683">Die Abrechnung wird bereitgestellt</text><path d="M477,325.9351 L477,357.9351 A5,5 0 0 0 482,362.9351 L778,362.9351 A5,5 0 0 0 783,357.9351 L783,330.9351 L773,320.9351 L482,320.9351 A5,5 0 0 0 477,325.9351 " fill="#C5F7BA" filter="url(#fl3xrwu816ky1)" style="stroke:#8B95A5;stroke-width:1.0;"/><path d="M773,320.9351 L773,328.4351 A2.5,2.5 0 0 0 775.5,330.9351 L783,330.9351 L773,320.9351 " fill="#C5F7BA" style="stroke:#8B95A5;stroke-width:1.0;"/><text fill="#111827" font-family="Arial" font-size="14" lengthAdjust="spacing" textLength="56" x="483" y="339.0669">Zustand:</text><text fill="#111827" font-family="Arial" font-size="14" lengthAdjust="spacing" textLength="285" x="483" y="355.1655">- vorl&#228;ufige/finale Abrechnung unbeantwortet</text><!--SRC=[bLFBKjj04BphAxPC3d1mWI02p84gaq1SSKXSG2wfN5RQaRJbzQoo3qn8vM_y9_wnZ6HiLbXvhI_MJ6zlTq-DdKgikE4pbceZmBpHIXksSz2So3vtUJOjZFOedX1vKly2X2svq7E91SkviX1qdguP1CFYa5H0phroLnhTHpu3rXiQoLMl6t4h7u75hxkRRTa11hK3zYDYxEAb0JY093_exuXO3E2uHeG1dAQ3X2URwbqfioc2jIocsarWw9I-9ro8sdZD4gY9u_Zqy8HgjvjedF4G_Gm5ZhvNO9J4QM3Xyh8By1b5ymUU0WwpXsyUC5ivdN3ZP2OhZgvbAMdE2y3MM9lJ1cq7lDLU3wVLMCToM5yO6gFdBuDfYi_P7gvBNIzk6gktZgZqZfHNBOyRvbLhozrH_Ze_RjyCHzkQp8L-21oqwbsvHgb-OBsloBhEUCHsHs0U- -_1UZOs7AU09VTshnFUg_SBai60fFBCqIj4m2th_Pwd5m4AMkA7FmjfdsjTWVW77Ed9almavQIdUXumkvuqgXgQG434lTFePocOA6esKD_JgX1wJVF5MyTHd4LzDlGve2kvShQ_Vq6sij8AxW3PlLRAkkK2XIoYMiOkRO7oLju3kqIdkBMUXfE2PCJcfCRbmj2zg-L2AS0z8XznNpaXUO7Q0X6Qabu5fCuKwasYYbekV2uBsCybSWLic1h8IgoPFQP0DkVQE72REzku0X3AcInS4q5jE8feKltpS_9ynbxn5PIaxKu-tTwn3-EhctfZhTiBuXcFehUonJkNXX850z8L10QbmXV-5kp_UDkm_W80]--></g></svg>