<?xml version="1.0" encoding="us-ascii" standalone="no"?><svg xmlns="http://www.w3.org/2000/svg" xmlns:xlink="http://www.w3.org/1999/xlink" contentStyleType="text/css" height="625px" preserveAspectRatio="none" style="width:814px;height:625px;background:#F5F5F5;" version="1.1" viewBox="0 0 814 625" width="814px" zoomAndPan="magnify"><defs><filter height="300%" id="f10k78iwqvyw7l" width="300%" x="-1" y="-1"><feGaussianBlur result="blurOut" stdDeviation="2.0"/><feColorMatrix in="blurOut" result="blurOut2" type="matrix" values="0 0 0 0 0 0 0 0 0 0 0 0 0 0 0 0 0 0 .4 0"/><feOffset dx="4.0" dy="4.0" in="blurOut2" result="blurOut3"/><feBlend in="SourceGraphic" in2="blurOut3" mode="normal"/></filter><linearGradient id="g10k78iwqvyw7l0" x1="50%" x2="50%" y1="0%" y2="100%"><stop offset="0%" stop-color="#E0E5F0"/><stop offset="100%" stop-color="#D1D9E6"/></linearGradient></defs><g><rect fill="#F5F5F5" height="625" style="stroke:none;stroke-width:1.0;" width="814" x="0" y="0"/><rect fill="#F5E599" height="613.5742" rx="5" ry="5" style="stroke:#181818;stroke-width:0.5;" width="371" x="21" y="6"/><text fill="#000000" font-family="Arial" font-size="14" font-weight="bold" lengthAdjust="spacing" textLength="4" x="24" y="19.1318">&#160;</text><text fill="#000000" font-family="Arial" font-size="14" font-weight="bold" lengthAdjust="spacing" textLength="197" x="108" y="35.2305">KH (Herz-Jesu Krankenhaus)</text><rect fill="#C5F7BA" height="613.5742" rx="5" ry="5" style="stroke:#181818;stroke-width:0.5;" width="333" x="465" y="6"/><text fill="#000000" font-family="Arial" font-size="14" font-weight="bold" lengthAdjust="spacing" textLength="4" x="468" y="19.1318">&#160;</text><text fill="#000000" font-family="Arial" font-size="14" font-weight="bold" lengthAdjust="spacing" textLength="47" x="608" y="35.2305">Moped</text><rect fill="#FFFFFF" height="28" style="stroke:#181818;stroke-width:1.0;" width="10" x="626.5" y="360.9824"/><line style="stroke:#181818;stroke-width:0.5;stroke-dasharray:5.0,5.0;" x1="206.5" x2="206.5" y1="118.2959" y2="540.4756"/><line style="stroke:#181818;stroke-width:0.5;stroke-dasharray:5.0,5.0;" x1="631.5" x2="631.5" y1="118.2959" y2="540.4756"/><text fill="#000000" font-family="Arial" font-size="14" lengthAdjust="spacing" textLength="186" x="110.5" y="115.3291">KH (Herz-Jesu Krankenhaus)</text><ellipse cx="206.5" cy="50.6973" fill="#E2E2F0" rx="8" ry="8" style="stroke:#181818;stroke-width:0.5;"/><path d="M206.5,58.6973 L206.5,85.6973 M193.5,66.6973 L219.5,66.6973 M206.5,85.6973 L193.5,100.6973 M206.5,85.6973 L219.5,100.6973 " fill="none" style="stroke:#181818;stroke-width:0.5;"/><text fill="#000000" font-family="Arial" font-size="14" lengthAdjust="spacing" textLength="186" x="110.5" y="552.6074">KH (Herz-Jesu Krankenhaus)</text><ellipse cx="206.5" cy="564.0742" fill="#E2E2F0" rx="8" ry="8" style="stroke:#181818;stroke-width:0.5;"/><path d="M206.5,572.0742 L206.5,599.0742 M193.5,580.0742 L219.5,580.0742 M206.5,599.0742 L193.5,614.0742 M206.5,599.0742 L219.5,614.0742 " fill="none" style="stroke:#181818;stroke-width:0.5;"/><rect fill="#FFFFFF" height="30.0986" rx="5" ry="5" style="stroke:#555555;stroke-width:0.5;" width="58" x="602.5" y="87.1973"/><text fill="#000000" font-family="Arial" font-size="14" lengthAdjust="spacing" textLength="44" x="609.5" y="107.3291">Moped</text><rect fill="#FFFFFF" height="30.0986" rx="5" ry="5" style="stroke:#555555;stroke-width:0.5;" width="58" x="602.5" y="539.4756"/><text fill="#000000" font-family="Arial" font-size="14" lengthAdjust="spacing" textLength="44" x="609.5" y="559.6074">Moped</text><rect fill="#FFFFFF" height="28" style="stroke:#181818;stroke-width:1.0;" width="10" x="626.5" y="360.9824"/><path d="M458,138.2959 L458,250.2959 A5,5 0 0 0 463,255.2959 L797,255.2959 A5,5 0 0 0 802,250.2959 L802,143.2959 L792,133.2959 L463,133.2959 A5,5 0 0 0 458,138.2959 " fill="#C5F7BA" filter="url(#f10k78iwqvyw7l)" style="stroke:#8B95A5;stroke-width:1.0;"/><path d="M792,133.2959 L792,140.7959 A2.5,2.5 0 0 0 794.5,143.2959 L802,143.2959 L792,133.2959 " fill="#C5F7BA" style="stroke:#8B95A5;stroke-width:1.0;"/><text fill="#111827" font-family="Arial" font-size="14" lengthAdjust="spacing" textLength="56" x="464" y="151.4277">Zustand:</text><text fill="#111827" font-family="Arial" font-size="14" lengthAdjust="spacing" textLength="250" x="464" y="167.5264">- Aufenthalts-/Besuchsdaten vollst&#228;ndig</text><text fill="#111827" font-family="Arial" font-size="14" lengthAdjust="spacing" textLength="279" x="480" y="183.625">(inklusive Entlassung bei station&#228;ren F&#228;llen)</text><text fill="#111827" font-family="Arial" font-size="14" lengthAdjust="spacing" textLength="177" x="464" y="199.7236">- Hauptdiagnose vorhanden</text><text fill="#111827" font-family="Arial" font-size="14" lengthAdjust="spacing" textLength="323" x="464" y="215.8223">- keine vorl&#228;ufige/finale Abrechnung unbeantwortet</text><text fill="#111827" font-family="Arial" font-size="14" lengthAdjust="spacing" textLength="233" x="464" y="231.9209">- keine finale Abrechnung genehmigt</text><text fill="#111827" font-family="Arial" font-size="14" lengthAdjust="spacing" textLength="4" x="464" y="248.0195">&#160;</text><line style="stroke:#111827;stroke-width:2.0;" x1="629.5" x2="619.5" y1="284.9351" y2="280.9351"/><line style="stroke:#111827;stroke-width:2.0;" x1="629.5" x2="619.5" y1="284.9351" y2="288.9351"/><line style="stroke:#111827;stroke-width:2.0;" x1="206.5" x2="630.5" y1="284.9351" y2="284.9351"/><text fill="#000000" font-family="Arial" font-size="13" font-weight="bold" lengthAdjust="spacing" textLength="7" x="213.5" y="280.1802">1</text><text fill="#000000" font-family="Arial" font-size="13" lengthAdjust="spacing" textLength="191" x="224.5" y="280.1802">$abrechnen (POST LKFRequest)</text><path d="M73,302.9351 L73,318.9351 A5,5 0 0 0 78,323.9351 L331,323.9351 A5,5 0 0 0 336,318.9351 L336,307.9351 L326,297.9351 L78,297.9351 A5,5 0 0 0 73,302.9351 " fill="url(#g10k78iwqvyw7l0)" filter="url(#f10k78iwqvyw7l)" style="stroke:#8B95A5;stroke-width:1.0;"/><path d="M326,297.9351 L326,305.4351 A2.5,2.5 0 0 0 328.5,307.9351 L336,307.9351 L326,297.9351 " fill="url(#g10k78iwqvyw7l0)" style="stroke:#8B95A5;stroke-width:1.0;"/><text fill="#111827" font-family="Arial" font-size="14" lengthAdjust="spacing" textLength="242" x="79" y="316.0669">Die Abrechnung ist als "final" markiert.</text><line style="stroke:#111827;stroke-width:2.0;" x1="636.5" x2="678.5" y1="352.9824" y2="352.9824"/><line style="stroke:#111827;stroke-width:2.0;" x1="678.5" x2="678.5" y1="352.9824" y2="365.9824"/><line style="stroke:#111827;stroke-width:2.0;" x1="637.5" x2="678.5" y1="365.9824" y2="365.9824"/><polygon fill="#111827" points="647.5,361.9824,637.5,365.9824,647.5,369.9824,643.5,365.9824" style="stroke:#111827;stroke-width:1.0;"/><text fill="#000000" font-family="Arial" font-size="13" font-weight="bold" lengthAdjust="spacing" textLength="7" x="643.5" y="348.2275">2</text><text fill="#000000" font-family="Arial" font-size="13" lengthAdjust="spacing" textLength="92" x="654.5" y="348.2275">&#9733;&#10022;&#9733;&#10022;&#9733;&#10022;&#9733;&#10022;</text><path d="M484,413.9824 L484,461.9824 A5,5 0 0 0 489,466.9824 L771,466.9824 A5,5 0 0 0 776,461.9824 L776,418.9824 L766,408.9824 L489,408.9824 A5,5 0 0 0 484,413.9824 " fill="url(#g10k78iwqvyw7l0)" filter="url(#f10k78iwqvyw7l)" style="stroke:#8B95A5;stroke-width:1.0;"/><path d="M766,408.9824 L766,416.4824 A2.5,2.5 0 0 0 768.5,418.9824 L776,418.9824 L766,408.9824 " fill="url(#g10k78iwqvyw7l0)" style="stroke:#8B95A5;stroke-width:1.0;"/><text fill="#111827" font-family="Arial" font-size="14" lengthAdjust="spacing" textLength="246" x="490" y="427.1143">durch den neuen LKFRequest wird der</text><text fill="#111827" font-family="Arial" font-size="14" lengthAdjust="spacing" textLength="271" x="490" y="443.2129">vorherige LKFRequest (falls einer existiert)</text><text fill="#111827" font-family="Arial" font-size="14" lengthAdjust="spacing" textLength="157" x="490" y="459.3115">automatisch gecancelled</text><path d="M510,485.2783 L510,517.2783 A5,5 0 0 0 515,522.2783 L745,522.2783 A5,5 0 0 0 750,517.2783 L750,490.2783 L740,480.2783 L515,480.2783 A5,5 0 0 0 510,485.2783 " fill="#C5F7BA" filter="url(#f10k78iwqvyw7l)" style="stroke:#8B95A5;stroke-width:1.0;"/><path d="M740,480.2783 L740,487.7783 A2.5,2.5 0 0 0 742.5,490.2783 L750,490.2783 L740,480.2783 " fill="#C5F7BA" style="stroke:#8B95A5;stroke-width:1.0;"/><text fill="#111827" font-family="Arial" font-size="14" lengthAdjust="spacing" textLength="56" x="516" y="498.4102">Zustand:</text><text fill="#111827" font-family="Arial" font-size="14" lengthAdjust="spacing" textLength="219" x="516" y="514.5088">- finale Abrechnung unbeantwortet</text><!--SRC=[ZLJDRjf04BxlKwn83t2W2Kb8GWwHI9iKbQP5INgfUbbxn_OACqlt1sYg7liEFVI8-YAyIPwaOnF8Ej2cYuJicM-__UORpzgXmh4mOiGZRIIOLphNXk_ibOlPnwo8XwdH7kK38caNlm1XCo7rL67A4v5R238Fsmo2uQsGL48YVEukDRhtOWIyrZLAvBNjY1jr1xnrk3rPbHrWK3lWtnZdvqyBW3re9tlD7TcI7JWg4A419r6dBThhw6scuY62jRn5iUkWe1Dw7mWfYy8Bba1DgzKwsJ-csCtQ6cSyiE-XmDxNCPXSuJ0euU9Y6-0Zol817WmElOSl7Z1ULZeGngbOZGMwIadjSZq1RBIrN5NGfi4RwLLpAecLBVl5XgunUlhKc3BuwEt-AhJjn7LYUTO1XTwGyd6bnZNpChLHtK5oc1nLTuQjhNJcNC-22YhnRRwoICzuxJFoRQlVu_KUcBlcMx2Uzut08M0cl6riXTUA-O9sfqDIHUpe528GbjV-pbDZW9A6UFPl8TLrfSSW_mD7Uk9sSXm9qZD-R32_6fIgIff002tXdKO_Yi0mLiwWdj2m47v5zCbR9r2UiYRl-WJGPI9tjhbxJeN5cPN20VA9pdFh5dEKAcM5a3hDGUwjcW2_G9SBQpsr9mB5YSqfZOkveNsNYtcU0pQ8l2Vys4abKjGMYD1aT2eWPOPGp195yiNS9og5tKIXo85t8mDnXWMpnmYeqAas3jnwpoOk1OHif5B7IXUAYXcZPZNFpgZeK_v2BB6ahJxuS7FBt_KlhukXjQuH6jJliTUgmgoiupJkl5OUMkCZOOOAZ7iP74IsDfVdtF_ySV_hz-O_ewz8JSXJGZ49uLkbFKnw4sTqio97e2ibqCcdoaZA65QO28OC2xDrkfH8Pk6FuJ0ZsONAHlaXZAWrbcXJY0NTKjGQ6QX_xlDuhYjhfZy0]--></g></svg>