<?xml version="1.0" encoding="us-ascii" standalone="no"?><svg xmlns="http://www.w3.org/2000/svg" xmlns:xlink="http://www.w3.org/1999/xlink" contentStyleType="text/css" height="754px" preserveAspectRatio="none" style="width:802px;height:754px;background:#F5F5F5;" version="1.1" viewBox="0 0 802 754" width="802px" zoomAndPan="magnify"><defs><filter height="300%" id="f1bdmgwwkz07v1" width="300%" x="-1" y="-1"><feGaussianBlur result="blurOut" stdDeviation="2.0"/><feColorMatrix in="blurOut" result="blurOut2" type="matrix" values="0 0 0 0 0 0 0 0 0 0 0 0 0 0 0 0 0 0 .4 0"/><feOffset dx="4.0" dy="4.0" in="blurOut2" result="blurOut3"/><feBlend in="SourceGraphic" in2="blurOut3" mode="normal"/></filter><linearGradient id="g1bdmgwwkz07v10" x1="50%" x2="50%" y1="0%" y2="100%"><stop offset="0%" stop-color="#E0E5F0"/><stop offset="100%" stop-color="#D1D9E6"/></linearGradient></defs><g><rect fill="#F5F5F5" height="754" style="stroke:none;stroke-width:1.0;" width="802" x="0" y="0"/><rect fill="#F5E599" height="742.3633" rx="5" ry="5" style="stroke:#181818;stroke-width:0.5;" width="371" x="21" y="6"/><text fill="#000000" font-family="Arial" font-size="14" font-weight="bold" lengthAdjust="spacing" textLength="4" x="24" y="19.1318">&#160;</text><text fill="#000000" font-family="Arial" font-size="14" font-weight="bold" lengthAdjust="spacing" textLength="197" x="108" y="35.2305">KH (Herz-Jesu Krankenhaus)</text><rect fill="#C5F7BA" height="742.3633" rx="5" ry="5" style="stroke:#181818;stroke-width:0.5;" width="333" x="434" y="6"/><text fill="#000000" font-family="Arial" font-size="14" font-weight="bold" lengthAdjust="spacing" textLength="4" x="437" y="19.1318">&#160;</text><text fill="#000000" font-family="Arial" font-size="14" font-weight="bold" lengthAdjust="spacing" textLength="47" x="577" y="35.2305">Moped</text><rect fill="#FFFFFF" height="28" style="stroke:#181818;stroke-width:1.0;" width="10" x="595.5" y="441.4756"/><line style="stroke:#181818;stroke-width:0.5;stroke-dasharray:5.0,5.0;" x1="206.5" x2="206.5" y1="118.2959" y2="669.2646"/><line style="stroke:#181818;stroke-width:0.5;stroke-dasharray:5.0,5.0;" x1="600.5" x2="600.5" y1="118.2959" y2="669.2646"/><text fill="#000000" font-family="Arial" font-size="14" lengthAdjust="spacing" textLength="186" x="110.5" y="115.3291">KH (Herz-Jesu Krankenhaus)</text><ellipse cx="206.5" cy="50.6973" fill="#E2E2F0" rx="8" ry="8" style="stroke:#181818;stroke-width:0.5;"/><path d="M206.5,58.6973 L206.5,85.6973 M193.5,66.6973 L219.5,66.6973 M206.5,85.6973 L193.5,100.6973 M206.5,85.6973 L219.5,100.6973 " fill="none" style="stroke:#181818;stroke-width:0.5;"/><text fill="#000000" font-family="Arial" font-size="14" lengthAdjust="spacing" textLength="186" x="110.5" y="681.3965">KH (Herz-Jesu Krankenhaus)</text><ellipse cx="206.5" cy="692.8633" fill="#E2E2F0" rx="8" ry="8" style="stroke:#181818;stroke-width:0.5;"/><path d="M206.5,700.8633 L206.5,727.8633 M193.5,708.8633 L219.5,708.8633 M206.5,727.8633 L193.5,742.8633 M206.5,727.8633 L219.5,742.8633 " fill="none" style="stroke:#181818;stroke-width:0.5;"/><rect fill="#FFFFFF" height="30.0986" rx="5" ry="5" style="stroke:#555555;stroke-width:0.5;" width="58" x="571.5" y="87.1973"/><text fill="#000000" font-family="Arial" font-size="14" lengthAdjust="spacing" textLength="44" x="578.5" y="107.3291">Moped</text><rect fill="#FFFFFF" height="30.0986" rx="5" ry="5" style="stroke:#555555;stroke-width:0.5;" width="58" x="571.5" y="668.2646"/><text fill="#000000" font-family="Arial" font-size="14" lengthAdjust="spacing" textLength="44" x="578.5" y="688.3965">Moped</text><rect fill="#FFFFFF" height="28" style="stroke:#181818;stroke-width:1.0;" width="10" x="595.5" y="441.4756"/><path d="M441,138.2959 L441,282.2959 A5,5 0 0 0 446,287.2959 L752,287.2959 A5,5 0 0 0 757,282.2959 L757,143.2959 L747,133.2959 L446,133.2959 A5,5 0 0 0 441,138.2959 " fill="#C5F7BA" filter="url(#f1bdmgwwkz07v1)" style="stroke:#8B95A5;stroke-width:1.0;"/><path d="M747,133.2959 L747,140.7959 A2.5,2.5 0 0 0 749.5,143.2959 L757,143.2959 L747,133.2959 " fill="#C5F7BA" style="stroke:#8B95A5;stroke-width:1.0;"/><text fill="#111827" font-family="Arial" font-size="14" lengthAdjust="spacing" textLength="56" x="447" y="151.4277">Zustand:</text><text fill="#111827" font-family="Arial" font-size="14" lengthAdjust="spacing" textLength="250" x="447" y="167.5264">- Aufenthalts-/Besuchsdaten vollst&#228;ndig</text><text fill="#111827" font-family="Arial" font-size="14" lengthAdjust="spacing" textLength="279" x="463" y="183.625">(inklusive Entlassung bei station&#228;ren F&#228;llen)</text><text fill="#111827" font-family="Arial" font-size="14" lengthAdjust="spacing" textLength="177" x="447" y="199.7236">- Hauptdiagnose vorhanden</text><text fill="#111827" font-family="Arial" font-size="14" lengthAdjust="spacing" textLength="195" x="447" y="215.8223">G&#252;ltige Abrechnungszust&#228;nde:</text><text fill="#111827" font-family="Arial" font-size="14" lengthAdjust="spacing" textLength="219" x="447" y="231.9209">- vorl&#228;ufige Abrechnung abgelehnt</text><text fill="#111827" font-family="Arial" font-size="14" lengthAdjust="spacing" textLength="223" x="447" y="248.0195">- vorl&#228;ufige Abrechnung genehmigt</text><text fill="#111827" font-family="Arial" font-size="14" lengthAdjust="spacing" textLength="191" x="447" y="264.1182">- finale Abrechnung abgelehnt</text><text fill="#111827" font-family="Arial" font-size="14" lengthAdjust="spacing" textLength="4" x="447" y="280.2168">&#160;</text><line style="stroke:#111827;stroke-width:2.0;" x1="598.5" x2="588.5" y1="317.1323" y2="313.1323"/><line style="stroke:#111827;stroke-width:2.0;" x1="598.5" x2="588.5" y1="317.1323" y2="321.1323"/><line style="stroke:#111827;stroke-width:2.0;" x1="206.5" x2="599.5" y1="317.1323" y2="317.1323"/><text fill="#000000" font-family="Arial" font-size="13" font-weight="bold" lengthAdjust="spacing" textLength="7" x="213.5" y="312.3774">1</text><text fill="#000000" font-family="Arial" font-size="13" lengthAdjust="spacing" textLength="86" x="224.5" y="312.3774">POST $update</text><path d="M87,335.1323 L87,399.1323 A5,5 0 0 0 92,404.1323 L317,404.1323 A5,5 0 0 0 322,399.1323 L322,340.1323 L312,330.1323 L92,330.1323 A5,5 0 0 0 87,335.1323 " fill="url(#g1bdmgwwkz07v10)" filter="url(#f1bdmgwwkz07v1)" style="stroke:#8B95A5;stroke-width:1.0;"/><path d="M312,330.1323 L312,337.6323 A2.5,2.5 0 0 0 314.5,340.1323 L322,340.1323 L312,330.1323 " fill="url(#g1bdmgwwkz07v10)" style="stroke:#8B95A5;stroke-width:1.0;"/><text fill="#111827" font-family="Arial" font-size="14" lengthAdjust="spacing" textLength="188" x="93" y="348.2642">Update-Bundle wird gesendet</text><text fill="#111827" font-family="Arial" font-size="14" lengthAdjust="spacing" textLength="105" x="93" y="364.3628">- ggf. Diagnosen</text><text fill="#111827" font-family="Arial" font-size="14" lengthAdjust="spacing" textLength="107" x="93" y="380.4614">- ggf. Leistungen</text><text fill="#111827" font-family="Arial" font-size="14" lengthAdjust="spacing" textLength="214" x="93" y="396.5601">- ggf. &#196;nderungen zum Aufenthalt</text><line style="stroke:#111827;stroke-width:2.0;" x1="605.5" x2="647.5" y1="433.4756" y2="433.4756"/><line style="stroke:#111827;stroke-width:2.0;" x1="647.5" x2="647.5" y1="433.4756" y2="446.4756"/><line style="stroke:#111827;stroke-width:2.0;" x1="606.5" x2="647.5" y1="446.4756" y2="446.4756"/><polygon fill="#111827" points="616.5,442.4756,606.5,446.4756,616.5,450.4756,612.5,446.4756" style="stroke:#111827;stroke-width:1.0;"/><text fill="#000000" font-family="Arial" font-size="13" font-weight="bold" lengthAdjust="spacing" textLength="7" x="612.5" y="428.7207">2</text><text fill="#000000" font-family="Arial" font-size="13" lengthAdjust="spacing" textLength="92" x="623.5" y="428.7207">&#9733;&#10022;&#9733;&#10022;&#9733;&#10022;&#9733;&#10022;</text><path d="M407,494.4756 L407,542.4756 A5,5 0 0 0 412,547.4756 L785,547.4756 A5,5 0 0 0 790,542.4756 L790,499.4756 L780,489.4756 L412,489.4756 A5,5 0 0 0 407,494.4756 " fill="url(#g1bdmgwwkz07v10)" filter="url(#f1bdmgwwkz07v1)" style="stroke:#8B95A5;stroke-width:1.0;"/><path d="M780,489.4756 L780,496.9756 A2.5,2.5 0 0 0 782.5,499.4756 L790,499.4756 L780,489.4756 " fill="url(#g1bdmgwwkz07v10)" style="stroke:#8B95A5;stroke-width:1.0;"/><text fill="#111827" font-family="Arial" font-size="14" lengthAdjust="spacing" textLength="328" x="413" y="507.6074">durch das Update wird die alte Abrechnung ung&#252;ltig</text><text fill="#111827" font-family="Arial" font-size="14" lengthAdjust="spacing" textLength="362" x="413" y="523.7061">und somit der vorherige LKFRequest (falls einer existiert)</text><text fill="#111827" font-family="Arial" font-size="14" lengthAdjust="spacing" textLength="157" x="413" y="539.8047">automatisch gecancelled</text><path d="M441,565.7715 L441,645.7715 A5,5 0 0 0 446,650.7715 L752,650.7715 A5,5 0 0 0 757,645.7715 L757,570.7715 L747,560.7715 L446,560.7715 A5,5 0 0 0 441,565.7715 " fill="#C5F7BA" filter="url(#f1bdmgwwkz07v1)" style="stroke:#8B95A5;stroke-width:1.0;"/><path d="M747,560.7715 L747,568.2715 A2.5,2.5 0 0 0 749.5,570.7715 L757,570.7715 L747,560.7715 " fill="#C5F7BA" style="stroke:#8B95A5;stroke-width:1.0;"/><text fill="#111827" font-family="Arial" font-size="14" lengthAdjust="spacing" textLength="56" x="447" y="578.9033">Zustand:</text><text fill="#111827" font-family="Arial" font-size="14" lengthAdjust="spacing" textLength="250" x="447" y="595.002">- Aufenthalts-/Besuchsdaten vollst&#228;ndig</text><text fill="#111827" font-family="Arial" font-size="14" lengthAdjust="spacing" textLength="279" x="463" y="611.1006">(inklusive Entlassung bei station&#228;ren F&#228;llen)</text><text fill="#111827" font-family="Arial" font-size="14" lengthAdjust="spacing" textLength="177" x="447" y="627.1992">- Hauptdiagnose vorhanden</text><text fill="#111827" font-family="Arial" font-size="14" lengthAdjust="spacing" textLength="206" x="447" y="643.2979">- ! Keine Abrechnung vorhanden</text><!--SRC=[pLHBKXin4Dth51sJ1IoSO8BvBQY21735a51yDgbiv57FZCgovEW3X5HsoHsoo9BAARBpJJX9McDiQx19PHcvxF9ql-b-xxKarvTwo2qVGCzOWVQrKSR2qcgrc9jbUTOlh0bQF23oTlma25ToOQwbBY3doc6IUNZDQhJGIeiAp7bG_j1e_uuF41fxLdBLM8mubxS8hVN5oJhj1AEDH_Z20FOV2y1LREUhpINH4jku4H6f0LkzxJPlJwCNfSpw6fs35iNE4a5Rz7pAXOZ2OvM4JQlLsbhRfDZvr1fl0xAlAS7Evo5Q9NK_aN1mi0XmgKNr1nyCJht7Jm5rDbPwogsNcHnoxMkIsjLw19WRQxNge7c3vzAJuTGI4rlMuWjxrfhhnyPKmPctQvFGeexJnBZNAmeT4VDXJUEqyZWrf-vLlfvlrDzCHrkRpBwvIHJKuejyPJrp0usF6XQjRWUMEsXlcs_H1UXQhlkeInxSoa9u8vulR6zl4rMUUUf21RY3njDr6Wore4DyytSYzNLYXYZ-0KTyidQ-sUF4PpWRC9oSLgogCWa1neCtEWnwQ1chJg2vegD2w4cP3y5vhiKEQy9Uo57xaYllcY_tILPMEi4zQhWoIZa_kjD25YpIMAPJe8AJLmW7sYlkNA3Xz502LVFIwD6TfVSEHtTAeLwXuXqUXbv8NcZZa0hQahgYPaUZtyhB0c6lPp4hDTLnjs7S32ChWghHNSZh6E2z0XMMsZyDAL1ZEP15XEHIS_L4WSgkQ0vZDDNcxYxvimEdxyylu7aOHWTIxxeTTba5c_kqdQdcjRI2UZcgWh5LKUGluCs3KZq97ADqdlhE8gDlyHgfGd0R1edz2I6QL7FCv_x7z_kVl-P_6MrBUKLy2CK4fa-rYJCHR5Q2e6qovZycBYG2jQnPGz_nL1Wf16S6qjCLRwkfeOqk7tSFp-9Dvpmiqnse7A2CTp3Ua4g9rgzKEsz0Uy5Hqm8pJfSYxGMHQFilzsCJda4tYaaDcQMdxFy0]--></g></svg>