<?xml version="1.0" encoding="us-ascii" standalone="no"?><svg xmlns="http://www.w3.org/2000/svg" xmlns:xlink="http://www.w3.org/1999/xlink" contentStyleType="text/css" height="706px" preserveAspectRatio="none" style="width:821px;height:706px;background:#F5F5F5;" version="1.1" viewBox="0 0 821 706" width="821px" zoomAndPan="magnify"><defs><filter height="300%" id="fb8a82fxsvms1" width="300%" x="-1" y="-1"><feGaussianBlur result="blurOut" stdDeviation="2.0"/><feColorMatrix in="blurOut" result="blurOut2" type="matrix" values="0 0 0 0 0 0 0 0 0 0 0 0 0 0 0 0 0 0 .4 0"/><feOffset dx="4.0" dy="4.0" in="blurOut2" result="blurOut3"/><feBlend in="SourceGraphic" in2="blurOut3" mode="normal"/></filter><linearGradient id="gb8a82fxsvms10" x1="50%" x2="50%" y1="0%" y2="100%"><stop offset="0%" stop-color="#E0E5F0"/><stop offset="100%" stop-color="#D1D9E6"/></linearGradient></defs><g><rect fill="#F5F5F5" height="706" style="stroke:none;stroke-width:1.0;" width="821" x="0" y="0"/><rect fill="#F5E599" height="694.0674" rx="5" ry="5" style="stroke:#181818;stroke-width:0.5;" width="371" x="21" y="6"/><text fill="#000000" font-family="Arial" font-size="14" font-weight="bold" lengthAdjust="spacing" textLength="4" x="24" y="19.1318">&#160;</text><text fill="#000000" font-family="Arial" font-size="14" font-weight="bold" lengthAdjust="spacing" textLength="197" x="108" y="35.2305">KH (Herz-Jesu Krankenhaus)</text><rect fill="#C5F7BA" height="694.0674" rx="5" ry="5" style="stroke:#181818;stroke-width:0.5;" width="333" x="434" y="6"/><text fill="#000000" font-family="Arial" font-size="14" font-weight="bold" lengthAdjust="spacing" textLength="4" x="437" y="19.1318">&#160;</text><text fill="#000000" font-family="Arial" font-size="14" font-weight="bold" lengthAdjust="spacing" textLength="47" x="577" y="35.2305">Moped</text><rect fill="#FFFFFF" height="28" style="stroke:#181818;stroke-width:1.0;" width="10" x="595.5" y="393.1797"/><line style="stroke:#181818;stroke-width:0.5;stroke-dasharray:5.0,5.0;" x1="206.5" x2="206.5" y1="118.2959" y2="620.9688"/><line style="stroke:#181818;stroke-width:0.5;stroke-dasharray:5.0,5.0;" x1="600.5" x2="600.5" y1="118.2959" y2="620.9688"/><text fill="#000000" font-family="Arial" font-size="14" lengthAdjust="spacing" textLength="186" x="110.5" y="115.3291">KH (Herz-Jesu Krankenhaus)</text><ellipse cx="206.5" cy="50.6973" fill="#E2E2F0" rx="8" ry="8" style="stroke:#181818;stroke-width:0.5;"/><path d="M206.5,58.6973 L206.5,85.6973 M193.5,66.6973 L219.5,66.6973 M206.5,85.6973 L193.5,100.6973 M206.5,85.6973 L219.5,100.6973 " fill="none" style="stroke:#181818;stroke-width:0.5;"/><text fill="#000000" font-family="Arial" font-size="14" lengthAdjust="spacing" textLength="186" x="110.5" y="633.1006">KH (Herz-Jesu Krankenhaus)</text><ellipse cx="206.5" cy="644.5674" fill="#E2E2F0" rx="8" ry="8" style="stroke:#181818;stroke-width:0.5;"/><path d="M206.5,652.5674 L206.5,679.5674 M193.5,660.5674 L219.5,660.5674 M206.5,679.5674 L193.5,694.5674 M206.5,679.5674 L219.5,694.5674 " fill="none" style="stroke:#181818;stroke-width:0.5;"/><rect fill="#FFFFFF" height="30.0986" rx="5" ry="5" style="stroke:#555555;stroke-width:0.5;" width="58" x="571.5" y="87.1973"/><text fill="#000000" font-family="Arial" font-size="14" lengthAdjust="spacing" textLength="44" x="578.5" y="107.3291">Moped</text><rect fill="#FFFFFF" height="30.0986" rx="5" ry="5" style="stroke:#555555;stroke-width:0.5;" width="58" x="571.5" y="619.9688"/><text fill="#000000" font-family="Arial" font-size="14" lengthAdjust="spacing" textLength="44" x="578.5" y="640.1006">Moped</text><rect fill="#FFFFFF" height="28" style="stroke:#181818;stroke-width:1.0;" width="10" x="595.5" y="393.1797"/><path d="M388,138.2959 L388,234.2959 A5,5 0 0 0 393,239.2959 L804,239.2959 A5,5 0 0 0 809,234.2959 L809,143.2959 L799,133.2959 L393,133.2959 A5,5 0 0 0 388,138.2959 " fill="#C5F7BA" filter="url(#fb8a82fxsvms1)" style="stroke:#8B95A5;stroke-width:1.0;"/><path d="M799,133.2959 L799,140.7959 A2.5,2.5 0 0 0 801.5,143.2959 L809,143.2959 L799,133.2959 " fill="#C5F7BA" style="stroke:#8B95A5;stroke-width:1.0;"/><text fill="#111827" font-family="Arial" font-size="14" lengthAdjust="spacing" textLength="56" x="394" y="151.4277">Zustand:</text><text fill="#111827" font-family="Arial" font-size="14" lengthAdjust="spacing" textLength="250" x="394" y="167.5264">- Aufenthalts-/Besuchsdaten vollst&#228;ndig</text><text fill="#111827" font-family="Arial" font-size="14" lengthAdjust="spacing" textLength="279" x="410" y="183.625">(inklusive Entlassung bei station&#228;ren F&#228;llen)</text><text fill="#111827" font-family="Arial" font-size="14" lengthAdjust="spacing" textLength="177" x="394" y="199.7236">- Hauptdiagnose vorhanden</text><text fill="#111827" font-family="Arial" font-size="14" lengthAdjust="spacing" textLength="400" x="394" y="215.8223">- Keine Abrechnung mit dem Zustand: Unbeantwortet endg&#252;ltig</text><text fill="#111827" font-family="Arial" font-size="14" lengthAdjust="spacing" textLength="377" x="394" y="231.9209">- Keine Abrechnung mit dem Zustand: Genehmigt endg&#252;ltig</text><line style="stroke:#111827;stroke-width:2.0;" x1="598.5" x2="588.5" y1="268.8364" y2="264.8364"/><line style="stroke:#111827;stroke-width:2.0;" x1="598.5" x2="588.5" y1="268.8364" y2="272.8364"/><line style="stroke:#111827;stroke-width:2.0;" x1="206.5" x2="599.5" y1="268.8364" y2="268.8364"/><text fill="#000000" font-family="Arial" font-size="13" font-weight="bold" lengthAdjust="spacing" textLength="7" x="213.5" y="264.0815">1</text><text fill="#000000" font-family="Arial" font-size="13" lengthAdjust="spacing" textLength="86" x="224.5" y="264.0815">POST $update</text><path d="M87,286.8364 L87,350.8364 A5,5 0 0 0 92,355.8364 L317,355.8364 A5,5 0 0 0 322,350.8364 L322,291.8364 L312,281.8364 L92,281.8364 A5,5 0 0 0 87,286.8364 " fill="url(#gb8a82fxsvms10)" filter="url(#fb8a82fxsvms1)" style="stroke:#8B95A5;stroke-width:1.0;"/><path d="M312,281.8364 L312,289.3364 A2.5,2.5 0 0 0 314.5,291.8364 L322,291.8364 L312,281.8364 " fill="url(#gb8a82fxsvms10)" style="stroke:#8B95A5;stroke-width:1.0;"/><text fill="#111827" font-family="Arial" font-size="14" lengthAdjust="spacing" textLength="188" x="93" y="299.9683">Update-Bundle wird gesendet</text><text fill="#111827" font-family="Arial" font-size="14" lengthAdjust="spacing" textLength="105" x="93" y="316.0669">- ggf. Diagnosen</text><text fill="#111827" font-family="Arial" font-size="14" lengthAdjust="spacing" textLength="107" x="93" y="332.1655">- ggf. Leistungen</text><text fill="#111827" font-family="Arial" font-size="14" lengthAdjust="spacing" textLength="214" x="93" y="348.2642">- ggf. &#196;nderungen zum Aufenthalt</text><line style="stroke:#111827;stroke-width:2.0;" x1="605.5" x2="647.5" y1="385.1797" y2="385.1797"/><line style="stroke:#111827;stroke-width:2.0;" x1="647.5" x2="647.5" y1="385.1797" y2="398.1797"/><line style="stroke:#111827;stroke-width:2.0;" x1="606.5" x2="647.5" y1="398.1797" y2="398.1797"/><polygon fill="#111827" points="616.5,394.1797,606.5,398.1797,616.5,402.1797,612.5,398.1797" style="stroke:#111827;stroke-width:1.0;"/><text fill="#000000" font-family="Arial" font-size="13" font-weight="bold" lengthAdjust="spacing" textLength="7" x="612.5" y="380.4248">2</text><text fill="#000000" font-family="Arial" font-size="13" lengthAdjust="spacing" textLength="92" x="623.5" y="380.4248">&#9733;&#10022;&#9733;&#10022;&#9733;&#10022;&#9733;&#10022;</text><path d="M407,446.1797 L407,494.1797 A5,5 0 0 0 412,499.1797 L785,499.1797 A5,5 0 0 0 790,494.1797 L790,451.1797 L780,441.1797 L412,441.1797 A5,5 0 0 0 407,446.1797 " fill="url(#gb8a82fxsvms10)" filter="url(#fb8a82fxsvms1)" style="stroke:#8B95A5;stroke-width:1.0;"/><path d="M780,441.1797 L780,448.6797 A2.5,2.5 0 0 0 782.5,451.1797 L790,451.1797 L780,441.1797 " fill="url(#gb8a82fxsvms10)" style="stroke:#8B95A5;stroke-width:1.0;"/><text fill="#111827" font-family="Arial" font-size="14" lengthAdjust="spacing" textLength="328" x="413" y="459.3115">durch das Update wird die alte Abrechnung ung&#252;ltig</text><text fill="#111827" font-family="Arial" font-size="14" lengthAdjust="spacing" textLength="362" x="413" y="475.4102">und somit der vorherige LKFRequest (falls einer existiert)</text><text fill="#111827" font-family="Arial" font-size="14" lengthAdjust="spacing" textLength="157" x="413" y="491.5088">automatisch gecancelled</text><path d="M441,517.4756 L441,597.4756 A5,5 0 0 0 446,602.4756 L752,602.4756 A5,5 0 0 0 757,597.4756 L757,522.4756 L747,512.4756 L446,512.4756 A5,5 0 0 0 441,517.4756 " fill="#C5F7BA" filter="url(#fb8a82fxsvms1)" style="stroke:#8B95A5;stroke-width:1.0;"/><path d="M747,512.4756 L747,519.9756 A2.5,2.5 0 0 0 749.5,522.4756 L757,522.4756 L747,512.4756 " fill="#C5F7BA" style="stroke:#8B95A5;stroke-width:1.0;"/><text fill="#111827" font-family="Arial" font-size="14" lengthAdjust="spacing" textLength="56" x="447" y="530.6074">Zustand:</text><text fill="#111827" font-family="Arial" font-size="14" lengthAdjust="spacing" textLength="250" x="447" y="546.7061">- Aufenthalts-/Besuchsdaten vollst&#228;ndig</text><text fill="#111827" font-family="Arial" font-size="14" lengthAdjust="spacing" textLength="279" x="463" y="562.8047">(inklusive Entlassung bei station&#228;ren F&#228;llen)</text><text fill="#111827" font-family="Arial" font-size="14" lengthAdjust="spacing" textLength="177" x="447" y="578.9033">- Hauptdiagnose vorhanden</text><text fill="#111827" font-family="Arial" font-size="14" lengthAdjust="spacing" textLength="206" x="447" y="595.002">- ! Keine Abrechnung vorhanden</text><!--SRC=[pLJBRjD05DtxAoufYtOHQ4hJDbrKIg1jH5g8-jWWDcFFjJsACsFcaOGYTl0FB5XMV0Mx_4c_X6ldDMu2wfAn7CNtUSwvCsC6GkPCio64IdFKhrMcD6pjbYimAo-B1ebMJl9vHDmi7Y_2f8ohiP09n2mpw7dcQLgYXePVb6FCN6RFbBJls12XrjQ2PRND4TVY3g6nlzbPXUt5I6KHlWG0dSS4S1URyMvzYpTu2m-A25-0ex3LPCsbzIOLqK2YCT0WsvL7w8Y- -uppWdXHnKFJQ3IEzWx9ThsKncg7mLSVOFTpZZeJSk1HE3tT570hUVa7vmBxskCdXpAQCUqpRKKaSYPjXLApN8y2riPQhchGki1hxiLmAew5B7j5GbjhDNuiJ6bSQRktC6tgk7JCUhqYqpaXpoiSbvLdhZLsh-Bz-A2QwO-sCfcEcdWCAlPDkWQXca3jeuHDgzU5xIxgk_fRD0vwcia1ofGvixCnl5QSBsosMWILHPQwK05ceFRtEhK09QT3FFataEgwL3do9yGHdgWP7uQCyEIh0SDblqHLbl401CnP9TqmH1q4vGbK8peg5Bqeyy4PooG_3khGTZ5AcxBCclhB3j6AKiEPHGaZbMN6Jkyb5qbGmDYcKv0v8qO8fz9cp1X7mmbH05MpGidflQQyi-bzbg7SeU9TvdBB1KkaCaW5TKfTKPAdXyL9QeSQerGMPOR2qeqoX0Kqk9KX4icnqXOj4Bba-Zkp1EKfoUSeCHsAf99O25J84GGqn_h92Ibo3FttrpVmtEK5Pr-jNZUuBOtr3ctW364iD8S43LL1Io2I97u1R-RSvC9mWS9OWhIoJByL5qTfWZitz0Jt0D5iwZCy3p- -F_pyjVuRq4OK8y93KG57_wiouu0x7QN0QMFCyC-0Su50BIkgqJjNXXY2KJCLTJadr291kEYTNHLtcx6mJRTUPg1GNWDEYAL0RNVAlJQawHjgcc34w1gawNEFst-w0v-jRwELUud-3m00]--></g></svg>