<?xml version="1.0" encoding="us-ascii" standalone="no"?><svg xmlns="http://www.w3.org/2000/svg" xmlns:xlink="http://www.w3.org/1999/xlink" contentStyleType="text/css" height="450px" preserveAspectRatio="none" style="width:1075px;height:450px;background:#F5F5F5;" version="1.1" viewBox="0 0 1075 450" width="1075px" zoomAndPan="magnify"><defs><filter height="300%" id="fhkeei5egg4mk" width="300%" x="-1" y="-1"><feGaussianBlur result="blurOut" stdDeviation="2.0"/><feColorMatrix in="blurOut" result="blurOut2" type="matrix" values="0 0 0 0 0 0 0 0 0 0 0 0 0 0 0 0 0 0 .4 0"/><feOffset dx="4.0" dy="4.0" in="blurOut2" result="blurOut3"/><feBlend in="SourceGraphic" in2="blurOut3" mode="normal"/></filter><linearGradient id="ghkeei5egg4mk0" x1="50%" x2="50%" y1="0%" y2="100%"><stop offset="0%" stop-color="#E0E5F0"/><stop offset="100%" stop-color="#D1D9E6"/></linearGradient></defs><g><rect fill="#F5F5F5" height="450" style="stroke:none;stroke-width:1.0;" width="1075" x="0" y="0"/><rect fill="#F5E599" height="438.1323" rx="5" ry="5" style="stroke:#181818;stroke-width:0.5;" width="106" x="51" y="6"/><text fill="#000000" font-family="Arial" font-size="14" font-weight="bold" lengthAdjust="spacing" textLength="4" x="54" y="19.1318">&#160;</text><text fill="#000000" font-family="Arial" font-size="14" font-weight="bold" lengthAdjust="spacing" textLength="20" x="90" y="35.2305">KA</text><rect fill="#C5F7BA" height="438.1323" rx="5" ry="5" style="stroke:#181818;stroke-width:0.5;" width="165" x="305.5" y="6"/><text fill="#000000" font-family="Arial" font-size="14" font-weight="bold" lengthAdjust="spacing" textLength="4" x="308.5" y="19.1318">&#160;</text><text fill="#000000" font-family="Arial" font-size="14" font-weight="bold" lengthAdjust="spacing" textLength="47" x="364.5" y="35.2305">Moped</text><rect fill="#C0C0C0" height="438.1323" rx="5" ry="5" style="stroke:#181818;stroke-width:0.5;" width="104" x="512.5" y="6"/><text fill="#000000" font-family="Arial" font-size="14" font-weight="bold" lengthAdjust="spacing" textLength="4" x="515.5" y="19.1318">&#160;</text><text fill="#000000" font-family="Arial" font-size="14" font-weight="bold" lengthAdjust="spacing" textLength="18" x="551.5" y="35.2305">SV</text><rect fill="#C0C0C0" height="438.1323" rx="5" ry="5" style="stroke:#181818;stroke-width:0.5;" width="238" x="658.5" y="6"/><text fill="#000000" font-family="Arial" font-size="14" font-weight="bold" lengthAdjust="spacing" textLength="4" x="661.5" y="19.1318">&#160;</text><text fill="#000000" font-family="Arial" font-size="14" font-weight="bold" lengthAdjust="spacing" textLength="220" x="665.5" y="35.2305">LGF (Landesgesundheitsfonds)</text><rect fill="#C0C0C0" height="438.1323" rx="5" ry="5" style="stroke:#181818;stroke-width:0.5;" width="131" x="938.5" y="6"/><text fill="#000000" font-family="Arial" font-size="14" font-weight="bold" lengthAdjust="spacing" textLength="4" x="941.5" y="19.1318">&#160;</text><text fill="#000000" font-family="Arial" font-size="14" font-weight="bold" lengthAdjust="spacing" textLength="37" x="985.5" y="35.2305">Bund</text><line style="stroke:#181818;stroke-width:0.5;stroke-dasharray:5.0,5.0;" x1="103.5" x2="103.5" y1="118.2959" y2="365.0337"/><line style="stroke:#181818;stroke-width:0.5;stroke-dasharray:5.0,5.0;" x1="388" x2="388" y1="118.2959" y2="365.0337"/><line style="stroke:#181818;stroke-width:0.5;stroke-dasharray:5.0,5.0;" x1="564" x2="564" y1="118.2959" y2="365.0337"/><line style="stroke:#181818;stroke-width:0.5;stroke-dasharray:5.0,5.0;" x1="777" x2="777" y1="118.2959" y2="365.0337"/><line style="stroke:#181818;stroke-width:0.5;stroke-dasharray:5.0,5.0;" x1="1003.5" x2="1003.5" y1="118.2959" y2="365.0337"/><text fill="#000000" font-family="Arial" font-size="14" lengthAdjust="spacing" textLength="19" x="91.5" y="115.3291">KA</text><ellipse cx="104" cy="50.6973" fill="#E2E2F0" rx="8" ry="8" style="stroke:#181818;stroke-width:0.5;"/><path d="M104,58.6973 L104,85.6973 M91,66.6973 L117,66.6973 M104,85.6973 L91,100.6973 M104,85.6973 L117,100.6973 " fill="none" style="stroke:#181818;stroke-width:0.5;"/><text fill="#000000" font-family="Arial" font-size="14" lengthAdjust="spacing" textLength="19" x="91.5" y="377.1655">KA</text><ellipse cx="104" cy="388.6323" fill="#E2E2F0" rx="8" ry="8" style="stroke:#181818;stroke-width:0.5;"/><path d="M104,396.6323 L104,423.6323 M91,404.6323 L117,404.6323 M104,423.6323 L91,438.6323 M104,423.6323 L117,438.6323 " fill="none" style="stroke:#181818;stroke-width:0.5;"/><rect fill="#FFFFFF" height="30.0986" rx="5" ry="5" style="stroke:#555555;stroke-width:0.5;" width="58" x="359" y="87.1973"/><text fill="#000000" font-family="Arial" font-size="14" lengthAdjust="spacing" textLength="44" x="366" y="107.3291">Moped</text><rect fill="#FFFFFF" height="30.0986" rx="5" ry="5" style="stroke:#555555;stroke-width:0.5;" width="58" x="359" y="364.0337"/><text fill="#000000" font-family="Arial" font-size="14" lengthAdjust="spacing" textLength="44" x="366" y="384.1655">Moped</text><text fill="#000000" font-family="Arial" font-size="14" lengthAdjust="spacing" textLength="18" x="552.5" y="115.3291">SV</text><ellipse cx="564.5" cy="50.6973" fill="#E2E2F0" rx="8" ry="8" style="stroke:#181818;stroke-width:0.5;"/><path d="M564.5,58.6973 L564.5,85.6973 M551.5,66.6973 L577.5,66.6973 M564.5,85.6973 L551.5,100.6973 M564.5,85.6973 L577.5,100.6973 " fill="none" style="stroke:#181818;stroke-width:0.5;"/><text fill="#000000" font-family="Arial" font-size="14" lengthAdjust="spacing" textLength="18" x="552.5" y="377.1655">SV</text><ellipse cx="564.5" cy="388.6323" fill="#E2E2F0" rx="8" ry="8" style="stroke:#181818;stroke-width:0.5;"/><path d="M564.5,396.6323 L564.5,423.6323 M551.5,404.6323 L577.5,404.6323 M564.5,423.6323 L551.5,438.6323 M564.5,423.6323 L577.5,438.6323 " fill="none" style="stroke:#181818;stroke-width:0.5;"/><text fill="#000000" font-family="Arial" font-size="14" lengthAdjust="spacing" textLength="201" x="674" y="115.3291">LGF (Landesgesundheitsfonds)</text><ellipse cx="777.5" cy="50.6973" fill="#E2E2F0" rx="8" ry="8" style="stroke:#181818;stroke-width:0.5;"/><path d="M777.5,58.6973 L777.5,85.6973 M764.5,66.6973 L790.5,66.6973 M777.5,85.6973 L764.5,100.6973 M777.5,85.6973 L790.5,100.6973 " fill="none" style="stroke:#181818;stroke-width:0.5;"/><text fill="#000000" font-family="Arial" font-size="14" lengthAdjust="spacing" textLength="201" x="674" y="377.1655">LGF (Landesgesundheitsfonds)</text><ellipse cx="777.5" cy="388.6323" fill="#E2E2F0" rx="8" ry="8" style="stroke:#181818;stroke-width:0.5;"/><path d="M777.5,396.6323 L777.5,423.6323 M764.5,404.6323 L790.5,404.6323 M777.5,423.6323 L764.5,438.6323 M777.5,423.6323 L790.5,438.6323 " fill="none" style="stroke:#181818;stroke-width:0.5;"/><text fill="#000000" font-family="Arial" font-size="14" lengthAdjust="spacing" textLength="33" x="984.5" y="115.3291">Bund</text><ellipse cx="1004" cy="50.6973" fill="#E2E2F0" rx="8" ry="8" style="stroke:#181818;stroke-width:0.5;"/><path d="M1004,58.6973 L1004,85.6973 M991,66.6973 L1017,66.6973 M1004,85.6973 L991,100.6973 M1004,85.6973 L1017,100.6973 " fill="none" style="stroke:#181818;stroke-width:0.5;"/><text fill="#000000" font-family="Arial" font-size="14" lengthAdjust="spacing" textLength="33" x="984.5" y="377.1655">Bund</text><ellipse cx="1004" cy="388.6323" fill="#E2E2F0" rx="8" ry="8" style="stroke:#181818;stroke-width:0.5;"/><path d="M1004,396.6323 L1004,423.6323 M991,404.6323 L1017,404.6323 M1004,423.6323 L991,438.6323 M1004,423.6323 L1017,438.6323 " fill="none" style="stroke:#181818;stroke-width:0.5;"/><path d="M393,138.2959 L393,202.2959 A5,5 0 0 0 398,207.2959 L548,207.2959 A5,5 0 0 0 553,202.2959 L553,143.2959 L543,133.2959 L398,133.2959 A5,5 0 0 0 393,138.2959 " fill="#C5F7BA" filter="url(#fhkeei5egg4mk)" style="stroke:#8B95A5;stroke-width:1.0;"/><path d="M543,133.2959 L543,140.7959 A2.5,2.5 0 0 0 545.5,143.2959 L553,143.2959 L543,133.2959 " fill="#C5F7BA" style="stroke:#8B95A5;stroke-width:1.0;"/><text fill="#111827" font-family="Arial" font-size="14" lengthAdjust="spacing" textLength="56" x="399" y="151.4277">Zustand:</text><text fill="#111827" font-family="Arial" font-size="14" lengthAdjust="spacing" textLength="107" x="399" y="167.5264">- Aufnahme- und</text><text fill="#111827" font-family="Arial" font-size="14" lengthAdjust="spacing" textLength="127" x="407" y="183.625">Versicherungsdaten</text><text fill="#111827" font-family="Arial" font-size="14" lengthAdjust="spacing" textLength="67" x="407" y="199.7236">vollst&#228;ndig</text><line style="stroke:#111827;stroke-width:2.0;" x1="386" x2="376" y1="236.6392" y2="232.6392"/><line style="stroke:#111827;stroke-width:2.0;" x1="386" x2="376" y1="236.6392" y2="240.6392"/><line style="stroke:#111827;stroke-width:2.0;" x1="104" x2="387" y1="236.6392" y2="236.6392"/><text fill="#000000" font-family="Arial" font-size="13" font-weight="bold" lengthAdjust="spacing" textLength="7" x="111" y="231.8843">1</text><text fill="#000000" font-family="Arial" font-size="13" lengthAdjust="spacing" textLength="184" x="122" y="231.8843">$anfragen (POST VAERequest)</text><path d="M5,254.6392 L5,270.6392 A5,5 0 0 0 10,275.6392 L196,275.6392 A5,5 0 0 0 201,270.6392 L201,259.6392 L191,249.6392 L10,249.6392 A5,5 0 0 0 5,254.6392 " fill="url(#ghkeei5egg4mk0)" filter="url(#fhkeei5egg4mk)" style="stroke:#8B95A5;stroke-width:1.0;"/><path d="M191,249.6392 L191,257.1392 A2.5,2.5 0 0 0 193.5,259.6392 L201,259.6392 L191,249.6392 " fill="url(#ghkeei5egg4mk0)" style="stroke:#8B95A5;stroke-width:1.0;"/><text fill="#111827" font-family="Arial" font-size="14" lengthAdjust="spacing" textLength="175" x="11" y="267.771">VAE-Anfrage wird gesendet</text><path d="M393,293.7378 L393,341.7378 A5,5 0 0 0 398,346.7378 L554,346.7378 A5,5 0 0 0 559,341.7378 L559,298.7378 L549,288.7378 L398,288.7378 A5,5 0 0 0 393,293.7378 " fill="#C5F7BA" filter="url(#fhkeei5egg4mk)" style="stroke:#8B95A5;stroke-width:1.0;"/><path d="M549,288.7378 L549,296.2378 A2.5,2.5 0 0 0 551.5,298.7378 L559,298.7378 L549,288.7378 " fill="#C5F7BA" style="stroke:#8B95A5;stroke-width:1.0;"/><text fill="#111827" font-family="Arial" font-size="14" lengthAdjust="spacing" textLength="56" x="399" y="306.8696">Zustand:</text><text fill="#111827" font-family="Arial" font-size="14" lengthAdjust="spacing" textLength="141" x="399" y="322.9683">- Unbeantwortete VAE</text><text fill="#111827" font-family="Arial" font-size="14" lengthAdjust="spacing" textLength="50" x="407" y="339.0669">Anfrage</text><!--SRC=[ZPJFSjem4CRlUWgDqqDoO0QJE84SCWCT4cQIj4n8E7Hw4TRQrc0aLv83QQTlqpVfYtLb_idWOIfVpEwddtQ_HJPp8GkcsOBEbEQWFwjSQNhMhXOn-ooBvwbMfUGRHHAvnrEOZ76r53Ab2SiDU9dDDYr1qz27SaXOcTjx9UqNjW0QzBLWUT2ic8YVGCEhvcIzR4yZbGNwYr0wE6m0sX0bxTOP3taFhft2Dw0xwqKisaLVCn7F9HX3GuozU0rryVUOSUuQTnIlcZ0CkvqRZ4rsrbXT0ldj5pZwA43dGiwz5eR39i6RvDKBR0pslOSV9SXutUcOQIjYKJ1fQor5rJeG78srMdNHiS57wUrmQecjBHsteQ-rMXuQKmNttdQseQOJTudrMPSOUi3AYrgFE_8wTTJTPNALNDTt-gEjJMQWLbu7jNYJhuJCr8e6toNThiSHtQ_0NHc8UZqydSKMDsAQ6HeyZW82akFzMnqZglMi2k3r4DBYABcPCQGLUyVfyxXYLZjEO2VJ0rRRFRlACEqeasa3ukdXdfu_CVmlcXGCMfk1i2PHafkB9fRJEzYfVISD6A3sPBMLm1tXNZmKAwsIvM86cf3gCw15cbcg4kVIrhvlfR5Or2rfqNwPI9Oje4KT4F5Jq4R46UXIfeOp2z95trMU6_ltZ-GYhGvpR49mcgsxEqJVqazC9fgbA3yVVvsyqcb_-E8kgB4NwqBKExZn4qoq-cijNGhDAJg3HB0UztygVvCpmEalbRQ0QiIwGZVaFUiV]--></g></svg>