<?xml version="1.0" encoding="us-ascii" standalone="no"?><svg xmlns="http://www.w3.org/2000/svg" xmlns:xlink="http://www.w3.org/1999/xlink" contentStyleType="text/css" height="569px" preserveAspectRatio="none" style="width:916px;height:569px;background:#F5F5F5;" version="1.1" viewBox="0 0 916 569" width="916px" zoomAndPan="magnify"><defs><filter height="300%" id="fyblh3iisvhu7" width="300%" x="-1" y="-1"><feGaussianBlur result="blurOut" stdDeviation="2.0"/><feColorMatrix in="blurOut" result="blurOut2" type="matrix" values="0 0 0 0 0 0 0 0 0 0 0 0 0 0 0 0 0 0 .4 0"/><feOffset dx="4.0" dy="4.0" in="blurOut2" result="blurOut3"/><feBlend in="SourceGraphic" in2="blurOut3" mode="normal"/></filter><linearGradient id="gyblh3iisvhu70" x1="50%" x2="50%" y1="0%" y2="100%"><stop offset="0%" stop-color="#E0E5F0"/><stop offset="100%" stop-color="#D1D9E6"/></linearGradient></defs><g><rect fill="#F5F5F5" height="569" style="stroke:none;stroke-width:1.0;" width="916" x="0" y="0"/><rect fill="#F5E599" height="557.7241" rx="5" ry="5" style="stroke:#181818;stroke-width:0.5;" width="371" x="21" y="6"/><text fill="#000000" font-family="Arial" font-size="14" font-weight="bold" lengthAdjust="spacing" textLength="4" x="24" y="19.1318">&#160;</text><text fill="#000000" font-family="Arial" font-size="14" font-weight="bold" lengthAdjust="spacing" textLength="197" x="108" y="35.2305">KA (Herz-Jesu Krankenhaus)</text><rect fill="#C5F7BA" height="557.7241" rx="5" ry="5" style="stroke:#181818;stroke-width:0.5;" width="333" x="458" y="6"/><text fill="#000000" font-family="Arial" font-size="14" font-weight="bold" lengthAdjust="spacing" textLength="4" x="461" y="19.1318">&#160;</text><text fill="#000000" font-family="Arial" font-size="14" font-weight="bold" lengthAdjust="spacing" textLength="47" x="601" y="35.2305">Moped</text><line style="stroke:#181818;stroke-width:0.5;stroke-dasharray:5.0,5.0;" x1="206.5" x2="206.5" y1="118.2959" y2="484.6255"/><line style="stroke:#181818;stroke-width:0.5;stroke-dasharray:5.0,5.0;" x1="624.5" x2="624.5" y1="118.2959" y2="484.6255"/><text fill="#000000" font-family="Arial" font-size="14" lengthAdjust="spacing" textLength="186" x="110.5" y="115.3291">KA (Herz-Jesu Krankenhaus)</text><ellipse cx="206.5" cy="50.6973" fill="#E2E2F0" rx="8" ry="8" style="stroke:#181818;stroke-width:0.5;"/><path d="M206.5,58.6973 L206.5,85.6973 M193.5,66.6973 L219.5,66.6973 M206.5,85.6973 L193.5,100.6973 M206.5,85.6973 L219.5,100.6973 " fill="none" style="stroke:#181818;stroke-width:0.5;"/><text fill="#000000" font-family="Arial" font-size="14" lengthAdjust="spacing" textLength="186" x="110.5" y="496.7573">KA (Herz-Jesu Krankenhaus)</text><ellipse cx="206.5" cy="508.2241" fill="#E2E2F0" rx="8" ry="8" style="stroke:#181818;stroke-width:0.5;"/><path d="M206.5,516.2241 L206.5,543.2241 M193.5,524.2241 L219.5,524.2241 M206.5,543.2241 L193.5,558.2241 M206.5,543.2241 L219.5,558.2241 " fill="none" style="stroke:#181818;stroke-width:0.5;"/><rect fill="#FFFFFF" height="30.0986" rx="5" ry="5" style="stroke:#555555;stroke-width:0.5;" width="58" x="595.5" y="87.1973"/><text fill="#000000" font-family="Arial" font-size="14" lengthAdjust="spacing" textLength="44" x="602.5" y="107.3291">Moped</text><rect fill="#FFFFFF" height="30.0986" rx="5" ry="5" style="stroke:#555555;stroke-width:0.5;" width="58" x="595.5" y="483.6255"/><text fill="#000000" font-family="Arial" font-size="14" lengthAdjust="spacing" textLength="44" x="602.5" y="503.7573">Moped</text><path d="M629,138.2959 L629,186.2959 A5,5 0 0 0 634,191.2959 L867,191.2959 A5,5 0 0 0 872,186.2959 L872,143.2959 L862,133.2959 L634,133.2959 A5,5 0 0 0 629,138.2959 " fill="#C5F7BA" filter="url(#fyblh3iisvhu7)" style="stroke:#8B95A5;stroke-width:1.0;"/><path d="M862,133.2959 L862,140.7959 A2.5,2.5 0 0 0 864.5,143.2959 L872,143.2959 L862,133.2959 " fill="#C5F7BA" style="stroke:#8B95A5;stroke-width:1.0;"/><text fill="#111827" font-family="Arial" font-size="14" lengthAdjust="spacing" textLength="56" x="635" y="151.4277">Zustand:</text><text fill="#111827" font-family="Arial" font-size="14" lengthAdjust="spacing" textLength="90" x="635" y="167.5264">- VAE bewilligt</text><text fill="#111827" font-family="Arial" font-size="14" lengthAdjust="spacing" textLength="214" x="643" y="183.625">Zeitraum: 01.09.2026-16.09.2026</text><line style="stroke:#111827;stroke-width:2.0;" x1="622.5" x2="612.5" y1="220.5405" y2="216.5405"/><line style="stroke:#111827;stroke-width:2.0;" x1="622.5" x2="612.5" y1="220.5405" y2="224.5405"/><line style="stroke:#111827;stroke-width:2.0;" x1="206.5" x2="623.5" y1="220.5405" y2="220.5405"/><text fill="#000000" font-family="Arial" font-size="13" font-weight="bold" lengthAdjust="spacing" textLength="7" x="213.5" y="215.7856">1</text><text fill="#000000" font-family="Arial" font-size="13" lengthAdjust="spacing" textLength="184" x="224.5" y="215.7856">$anfragen (POST VAERequest)</text><path d="M47,238.5405 L47,302.5405 A5,5 0 0 0 52,307.5405 L358,307.5405 A5,5 0 0 0 363,302.5405 L363,243.5405 L353,233.5405 L52,233.5405 A5,5 0 0 0 47,238.5405 " fill="url(#gyblh3iisvhu70)" filter="url(#fyblh3iisvhu7)" style="stroke:#8B95A5;stroke-width:1.0;"/><path d="M353,233.5405 L353,241.0405 A2.5,2.5 0 0 0 355.5,243.5405 L363,243.5405 L353,233.5405 " fill="url(#gyblh3iisvhu70)" style="stroke:#8B95A5;stroke-width:1.0;"/><text fill="#111827" font-family="Arial" font-size="14" lengthAdjust="spacing" textLength="273" x="53" y="251.6724">Zus&#228;tzliche VAE Anfrage wird gesendet mit</text><text fill="#111827" font-family="Arial" font-size="14" lengthAdjust="spacing" textLength="164" x="53" y="267.771">- Typ "VAE Verl&#228;ngerung"</text><text fill="#111827" font-family="Arial" font-size="14" lengthAdjust="spacing" textLength="255" x="53" y="283.8696">- Referenz auf den initialen VAERequest</text><text fill="#111827" font-family="Arial" font-size="14" lengthAdjust="spacing" textLength="295" x="53" y="299.9683">- Verl&#228;ngerungstage: 16.09.2025 - 21.09.2026</text><path d="M629,325.9351 L629,389.9351 A5,5 0 0 0 634,394.9351 L899,394.9351 A5,5 0 0 0 904,389.9351 L904,330.9351 L894,320.9351 L634,320.9351 A5,5 0 0 0 629,325.9351 " fill="url(#gyblh3iisvhu70)" filter="url(#fyblh3iisvhu7)" style="stroke:#8B95A5;stroke-width:1.0;"/><path d="M894,320.9351 L894,328.4351 A2.5,2.5 0 0 0 896.5,330.9351 L904,330.9351 L894,320.9351 " fill="url(#gyblh3iisvhu70)" style="stroke:#8B95A5;stroke-width:1.0;"/><text fill="#111827" font-family="Arial" font-size="14" lengthAdjust="spacing" textLength="254" x="635" y="339.0669">Moped beh&#228;lt die urspr&#252;ngliche Anfrage</text><text fill="#111827" font-family="Arial" font-size="14" lengthAdjust="spacing" textLength="237" x="635" y="355.1655">inklusive deren Antwort und speichert</text><text fill="#111827" font-family="Arial" font-size="14" lengthAdjust="spacing" textLength="211" x="635" y="371.2642">eine zus&#228;tzliche Anfrage &#252;ber die</text><text fill="#111827" font-family="Arial" font-size="14" lengthAdjust="spacing" textLength="141" x="635" y="387.3628">Verl&#228;ngerungstage ab</text><path d="M629,413.3296 L629,461.3296 A5,5 0 0 0 634,466.3296 L874,466.3296 A5,5 0 0 0 879,461.3296 L879,418.3296 L869,408.3296 L634,408.3296 A5,5 0 0 0 629,413.3296 " fill="#C5F7BA" filter="url(#fyblh3iisvhu7)" style="stroke:#8B95A5;stroke-width:1.0;"/><path d="M869,408.3296 L869,415.8296 A2.5,2.5 0 0 0 871.5,418.3296 L879,418.3296 L869,408.3296 " fill="#C5F7BA" style="stroke:#8B95A5;stroke-width:1.0;"/><text fill="#111827" font-family="Arial" font-size="14" lengthAdjust="spacing" textLength="56" x="635" y="426.4614">Zustand:</text><text fill="#111827" font-family="Arial" font-size="14" lengthAdjust="spacing" textLength="229" x="635" y="442.5601">- Unbeantwortete VAE Anfrage UND</text><text fill="#111827" font-family="Arial" font-size="14" lengthAdjust="spacing" textLength="182" x="635" y="458.6587">- VAE bewilligt (f&#252;r Zeitraum)</text><!--SRC=[ZLJBKjim5DthA-wOBc0H9Wuua2oO2IqjKmQQuRLWkf7ZQqSJHtBr891E_uRFO9SVgsJd8ISkKsKZt-Svv-PAJHWlgAHJY8LCK7uMkP2mrouFKAil7KqoAGnFbX5fv7vUX1hJHCmOpo2bkKBFiqoJ72M4Vj44Ksfo_LLmVKEd2C50Cfe7pH5tR8uG7ZSxwx2z62uqmcy2SBvD0DiOfUtMNX8cFUow25-0qxWNqMXjlH-pqOIZKX1Qswr7wDH-3scIEEAkYeSc3CFJpecrtQsbqT8W-UC3l7mjKEQCJpmA5nTD0GyyAI-u5DZN7dyPvAEAwP1ApKQie5pNA4NbsGhO6Mjvwa6x0k-uLyEfELQoT5p2G4ensnQcD6wqxQnCJHtNZghNaJLziyYB6iTrvSgrm-ueFKwxzKn_jBN9d8iNZq7DtgGhYSKB13yvD9shIzY_H3blVKTbu4fIFa4-faOTD8O7RhymwlKiL3hIjeijG1K4_wuJ4EI9NUANZu7KpxKeCFcFE8jd5AKdCRLuYis0uNfOeYhBU008eKOBRgOnIaBA5PGi6siGgKjPrNeoIbEUz4aB7WSN4EECvJdBDDWkJyYqf6RQXtPusEuTTjgTRYlihgvbBrUO42j9w-pCrkt39yfJIJFai3_ySNVlgjwwpL3wO0b3FAFJqhLUlEbvpaPZB9iFgaoOCPb0XihMHmrJfYsu-zS20XVqQFTlySOpb8PdWVNSOeeI-HoeIUrpn85nfkqJPc-Rtk3u-PcMTOPzMBE9e0MTi87QjdAacbUCuyLRhY5X24QgGYxUULPHMT8Wzhd8ZMBFQ55PWDQkPq9giAi0ga0NApL1zvZCVIbMCYpUxUXS0xAB76Zy0SQcwJxm66c507LTxuURBplZtqyNxtBz3pZODFiB]--></g></svg>