<?xml version="1.0" encoding="us-ascii" standalone="no"?><svg xmlns="http://www.w3.org/2000/svg" xmlns:xlink="http://www.w3.org/1999/xlink" contentStyleType="text/css" height="417px" preserveAspectRatio="none" style="width:866px;height:417px;background:#F5F5F5;" version="1.1" viewBox="0 0 866 417" width="866px" zoomAndPan="magnify"><defs><filter height="300%" id="f3roku06xgy5p" width="300%" x="-1" y="-1"><feGaussianBlur result="blurOut" stdDeviation="2.0"/><feColorMatrix in="blurOut" result="blurOut2" type="matrix" values="0 0 0 0 0 0 0 0 0 0 0 0 0 0 0 0 0 0 .4 0"/><feOffset dx="4.0" dy="4.0" in="blurOut2" result="blurOut3"/><feBlend in="SourceGraphic" in2="blurOut3" mode="normal"/></filter><linearGradient id="g3roku06xgy5p0" x1="50%" x2="50%" y1="0%" y2="100%"><stop offset="0%" stop-color="#E0E5F0"/><stop offset="100%" stop-color="#D1D9E6"/></linearGradient></defs><g><rect fill="#F5F5F5" height="417" style="stroke:none;stroke-width:1.0;" width="866" x="0" y="0"/><rect fill="#C5F7BA" height="405.9351" rx="5" ry="5" style="stroke:#181818;stroke-width:0.5;" width="333" x="21" y="6"/><text fill="#000000" font-family="Arial" font-size="14" font-weight="bold" lengthAdjust="spacing" textLength="4" x="24" y="19.1318">&#160;</text><text fill="#000000" font-family="Arial" font-size="14" font-weight="bold" lengthAdjust="spacing" textLength="47" x="164" y="35.2305">Moped</text><rect fill="#BAC4F7" height="405.9351" rx="5" ry="5" style="stroke:#181818;stroke-width:0.5;" width="352" x="508.5" y="6"/><text fill="#000000" font-family="Arial" font-size="14" font-weight="bold" lengthAdjust="spacing" textLength="4" x="511.5" y="19.1318">&#160;</text><text fill="#000000" font-family="Arial" font-size="14" font-weight="bold" lengthAdjust="spacing" textLength="102" x="627.5" y="35.2305">SV (&#214;GK Wien)</text><line style="stroke:#181818;stroke-width:0.5;stroke-dasharray:5.0,5.0;" x1="187.5" x2="187.5" y1="118.2959" y2="332.8364"/><line style="stroke:#181818;stroke-width:0.5;stroke-dasharray:5.0,5.0;" x1="684" x2="684" y1="118.2959" y2="332.8364"/><rect fill="#FFFFFF" height="30.0986" rx="5" ry="5" style="stroke:#555555;stroke-width:0.5;" width="58" x="158.5" y="87.1973"/><text fill="#000000" font-family="Arial" font-size="14" lengthAdjust="spacing" textLength="44" x="165.5" y="107.3291">Moped</text><rect fill="#FFFFFF" height="30.0986" rx="5" ry="5" style="stroke:#555555;stroke-width:0.5;" width="58" x="158.5" y="331.8364"/><text fill="#000000" font-family="Arial" font-size="14" lengthAdjust="spacing" textLength="44" x="165.5" y="351.9683">Moped</text><text fill="#000000" font-family="Arial" font-size="14" lengthAdjust="spacing" textLength="18" x="672.5" y="115.3291">SV</text><ellipse cx="684.5" cy="50.6973" fill="#E2E2F0" rx="8" ry="8" style="stroke:#181818;stroke-width:0.5;"/><path d="M684.5,58.6973 L684.5,85.6973 M671.5,66.6973 L697.5,66.6973 M684.5,85.6973 L671.5,100.6973 M684.5,85.6973 L697.5,100.6973 " fill="none" style="stroke:#181818;stroke-width:0.5;"/><text fill="#000000" font-family="Arial" font-size="14" lengthAdjust="spacing" textLength="18" x="672.5" y="344.9683">SV</text><ellipse cx="684.5" cy="356.4351" fill="#E2E2F0" rx="8" ry="8" style="stroke:#181818;stroke-width:0.5;"/><path d="M684.5,364.4351 L684.5,391.4351 M671.5,372.4351 L697.5,372.4351 M684.5,391.4351 L671.5,406.4351 M684.5,391.4351 L697.5,406.4351 " fill="none" style="stroke:#181818;stroke-width:0.5;"/><path d="M192,138.2959 L192,170.2959 A5,5 0 0 0 197,175.2959 L300,175.2959 A5,5 0 0 0 305,170.2959 L305,143.2959 L295,133.2959 L197,133.2959 A5,5 0 0 0 192,138.2959 " fill="#C5F7BA" filter="url(#f3roku06xgy5p)" style="stroke:#8B95A5;stroke-width:1.0;"/><path d="M295,133.2959 L295,140.7959 A2.5,2.5 0 0 0 297.5,143.2959 L305,143.2959 L295,133.2959 " fill="#C5F7BA" style="stroke:#8B95A5;stroke-width:1.0;"/><text fill="#111827" font-family="Arial" font-size="14" lengthAdjust="spacing" textLength="56" x="198" y="151.4277">Zustand:</text><text fill="#111827" font-family="Arial" font-size="14" lengthAdjust="spacing" textLength="92" x="198" y="167.5264">- VAE in Arbeit</text><line style="stroke:#111827;stroke-width:2.0;" x1="188.5" x2="198.5" y1="204.4419" y2="200.4419"/><line style="stroke:#111827;stroke-width:2.0;" x1="188.5" x2="198.5" y1="204.4419" y2="208.4419"/><line style="stroke:#111827;stroke-width:2.0;" x1="187.5" x2="683.5" y1="204.4419" y2="204.4419"/><text fill="#000000" font-family="Arial" font-size="13" font-weight="bold" lengthAdjust="spacing" textLength="7" x="204.5" y="199.687">1</text><text fill="#000000" font-family="Arial" font-size="13" lengthAdjust="spacing" textLength="190" x="215.5" y="199.687">$antworten (PUT VAEResponse)</text><path d="M529,222.4419 L529,254.4419 A5,5 0 0 0 534,259.4419 L831,259.4419 A5,5 0 0 0 836,254.4419 L836,227.4419 L826,217.4419 L534,217.4419 A5,5 0 0 0 529,222.4419 " fill="url(#g3roku06xgy5p0)" filter="url(#f3roku06xgy5p)" style="stroke:#8B95A5;stroke-width:1.0;"/><path d="M826,217.4419 L826,224.9419 A2.5,2.5 0 0 0 828.5,227.4419 L836,227.4419 L826,217.4419 " fill="url(#g3roku06xgy5p0)" style="stroke:#8B95A5;stroke-width:1.0;"/><text fill="#111827" font-family="Arial" font-size="14" lengthAdjust="spacing" textLength="286" x="535" y="235.5737">Vorhandene VAE Antwort wird aktualisiert mit</text><text fill="#111827" font-family="Arial" font-size="14" lengthAdjust="spacing" textLength="159" x="535" y="251.6724">- Entscheidung "bewilligt"</text><path d="M192,277.6392 L192,309.6392 A5,5 0 0 0 197,314.6392 L298,314.6392 A5,5 0 0 0 303,309.6392 L303,282.6392 L293,272.6392 L197,272.6392 A5,5 0 0 0 192,277.6392 " fill="#C5F7BA" filter="url(#f3roku06xgy5p)" style="stroke:#8B95A5;stroke-width:1.0;"/><path d="M293,272.6392 L293,280.1392 A2.5,2.5 0 0 0 295.5,282.6392 L303,282.6392 L293,272.6392 " fill="#C5F7BA" style="stroke:#8B95A5;stroke-width:1.0;"/><text fill="#111827" font-family="Arial" font-size="14" lengthAdjust="spacing" textLength="56" x="198" y="290.771">Zustand:</text><text fill="#111827" font-family="Arial" font-size="14" lengthAdjust="spacing" textLength="90" x="198" y="306.8696">- VAE bewilligt</text><!--SRC=[ZLF1Rjf04BtlLunC3ya12HESa1mYaOgcKfKAXOHALIzhxnXMDhlkxhgcgVeR_Q7-M7TjC6j0Aii5pyoRUU-DHcTS55JHDSHICLJlPIuLz0Rr8tgVfKcsLB8KR5kHHkxdLUWLPRBYOWafpJLwcIrC2LGG-aqPfhJCpGSfp6UwHWWcYjCyE5qnvsy8uUXqialRgn7I8FmY00-70d20KJhezrZ8Rl7QLVW6ZEFRY4Pjz6N5aqoWrX3QsBCdQ6o_PvGn9znryTY4OJWUtjZOlBN6g1B9Rv_Wnvy5gfoBp9CmdPugU1Mi_eDRWttlyNk98ccKpgWoFE455QOZAQhVGS7HMklNBJes-2YzMqudiRDbw00JfMHrQ4mTt7ixt8LEJMmJpQmh6tgqp8kEnhPpapfITvMEqkikqbzjPpCFSkCfwCHF-KfYkO7Wcu3_loTP83kZBe1U4gKtCRMCYxsly3G3gY6esmG41RF7kpcFm7m15t__F7w2Bnp5vHa4xE6FKkSeJOnLQ_5kz7pXpQMbaQ9SnwW8gUzDyUNAW4mTqPs2hwKsLB0xqeV5P0fSs8N6o4tTng48iRtxz_SMT0VlhCnAAeC2BcQlBmxoZBgGGkDbCqF-GCU6BAHQsRvepyBrdJGugBXYG3DJqfnhZZQojhFwC1L69olahBHh3MAiU9xpfGay6kTAQC5xx3y0]--></g></svg>