<?xml version="1.0" encoding="us-ascii" standalone="no"?><svg xmlns="http://www.w3.org/2000/svg" xmlns:xlink="http://www.w3.org/1999/xlink" contentStyleType="text/css" height="577px" preserveAspectRatio="none" style="width:876px;height:577px;background:#F5F5F5;" version="1.1" viewBox="0 0 876 577" width="876px" zoomAndPan="magnify"><defs><filter height="300%" id="f1c5mfv1dha7l7" width="300%" x="-1" y="-1"><feGaussianBlur result="blurOut" stdDeviation="2.0"/><feColorMatrix in="blurOut" result="blurOut2" type="matrix" values="0 0 0 0 0 0 0 0 0 0 0 0 0 0 0 0 0 0 .4 0"/><feOffset dx="4.0" dy="4.0" in="blurOut2" result="blurOut3"/><feBlend in="SourceGraphic" in2="blurOut3" mode="normal"/></filter><linearGradient id="g1c5mfv1dha7l70" x1="50%" x2="50%" y1="0%" y2="100%"><stop offset="0%" stop-color="#E0E5F0"/><stop offset="100%" stop-color="#D1D9E6"/></linearGradient></defs><g><rect fill="#F5F5F5" height="577" style="stroke:none;stroke-width:1.0;" width="876" x="0" y="0"/><rect fill="#C5F7BA" height="565.2783" rx="5" ry="5" style="stroke:#181818;stroke-width:0.5;" width="333" x="21" y="6"/><text fill="#000000" font-family="Arial" font-size="14" font-weight="bold" lengthAdjust="spacing" textLength="4" x="24" y="19.1318">&#160;</text><text fill="#000000" font-family="Arial" font-size="14" font-weight="bold" lengthAdjust="spacing" textLength="47" x="164" y="35.2305">Moped</text><rect fill="#BAC4F7" height="565.2783" rx="5" ry="5" style="stroke:#181818;stroke-width:0.5;" width="352" x="518.5" y="6"/><text fill="#000000" font-family="Arial" font-size="14" font-weight="bold" lengthAdjust="spacing" textLength="4" x="521.5" y="19.1318">&#160;</text><text fill="#000000" font-family="Arial" font-size="14" font-weight="bold" lengthAdjust="spacing" textLength="102" x="637.5" y="35.2305">SV (&#214;GK Wien)</text><rect fill="#FFFFFF" height="28" style="stroke:#181818;stroke-width:1.0;" width="10" x="182.5" y="312.6865"/><line style="stroke:#181818;stroke-width:0.5;stroke-dasharray:5.0,5.0;" x1="187.5" x2="187.5" y1="118.2959" y2="492.1797"/><line style="stroke:#181818;stroke-width:0.5;stroke-dasharray:5.0,5.0;" x1="694" x2="694" y1="118.2959" y2="492.1797"/><rect fill="#FFFFFF" height="30.0986" rx="5" ry="5" style="stroke:#555555;stroke-width:0.5;" width="58" x="158.5" y="87.1973"/><text fill="#000000" font-family="Arial" font-size="14" lengthAdjust="spacing" textLength="44" x="165.5" y="107.3291">Moped</text><rect fill="#FFFFFF" height="30.0986" rx="5" ry="5" style="stroke:#555555;stroke-width:0.5;" width="58" x="158.5" y="491.1797"/><text fill="#000000" font-family="Arial" font-size="14" lengthAdjust="spacing" textLength="44" x="165.5" y="511.3115">Moped</text><text fill="#000000" font-family="Arial" font-size="14" lengthAdjust="spacing" textLength="18" x="682.5" y="115.3291">SV</text><ellipse cx="694.5" cy="50.6973" fill="#E2E2F0" rx="8" ry="8" style="stroke:#181818;stroke-width:0.5;"/><path d="M694.5,58.6973 L694.5,85.6973 M681.5,66.6973 L707.5,66.6973 M694.5,85.6973 L681.5,100.6973 M694.5,85.6973 L707.5,100.6973 " fill="none" style="stroke:#181818;stroke-width:0.5;"/><text fill="#000000" font-family="Arial" font-size="14" lengthAdjust="spacing" textLength="18" x="682.5" y="504.3115">SV</text><ellipse cx="694.5" cy="515.7783" fill="#E2E2F0" rx="8" ry="8" style="stroke:#181818;stroke-width:0.5;"/><path d="M694.5,523.7783 L694.5,550.7783 M681.5,531.7783 L707.5,531.7783 M694.5,550.7783 L681.5,565.7783 M694.5,550.7783 L707.5,565.7783 " fill="none" style="stroke:#181818;stroke-width:0.5;"/><rect fill="#FFFFFF" height="28" style="stroke:#181818;stroke-width:1.0;" width="10" x="182.5" y="312.6865"/><path d="M192,138.2959 L192,186.2959 A5,5 0 0 0 197,191.2959 L349,191.2959 A5,5 0 0 0 354,186.2959 L354,143.2959 L344,133.2959 L197,133.2959 A5,5 0 0 0 192,138.2959 " fill="#C5F7BA" filter="url(#f1c5mfv1dha7l7)" style="stroke:#8B95A5;stroke-width:1.0;"/><path d="M344,133.2959 L344,140.7959 A2.5,2.5 0 0 0 346.5,143.2959 L354,143.2959 L344,133.2959 " fill="#C5F7BA" style="stroke:#8B95A5;stroke-width:1.0;"/><text fill="#111827" font-family="Arial" font-size="14" lengthAdjust="spacing" textLength="56" x="198" y="151.4277">Zustand:</text><text fill="#111827" font-family="Arial" font-size="14" lengthAdjust="spacing" textLength="141" x="198" y="167.5264">- Unbeantwortete VAE</text><text fill="#111827" font-family="Arial" font-size="14" lengthAdjust="spacing" textLength="50" x="206" y="183.625">Anfrage</text><line style="stroke:#111827;stroke-width:2.0;" x1="188.5" x2="198.5" y1="220.5405" y2="216.5405"/><line style="stroke:#111827;stroke-width:2.0;" x1="188.5" x2="198.5" y1="220.5405" y2="224.5405"/><line style="stroke:#111827;stroke-width:2.0;" x1="187.5" x2="693.5" y1="220.5405" y2="220.5405"/><text fill="#000000" font-family="Arial" font-size="13" font-weight="bold" lengthAdjust="spacing" textLength="7" x="204.5" y="215.7856">1</text><text fill="#000000" font-family="Arial" font-size="13" lengthAdjust="spacing" textLength="200" x="215.5" y="215.7856">$antworten (POST VAEResponse)</text><path d="M552,238.5405 L552,270.5405 A5,5 0 0 0 557,275.5405 L828,275.5405 A5,5 0 0 0 833,270.5405 L833,243.5405 L823,233.5405 L557,233.5405 A5,5 0 0 0 552,238.5405 " fill="url(#g1c5mfv1dha7l70)" filter="url(#f1c5mfv1dha7l7)" style="stroke:#8B95A5;stroke-width:1.0;"/><path d="M823,233.5405 L823,241.0405 A2.5,2.5 0 0 0 825.5,243.5405 L833,243.5405 L823,233.5405 " fill="url(#g1c5mfv1dha7l70)" style="stroke:#8B95A5;stroke-width:1.0;"/><text fill="#111827" font-family="Arial" font-size="14" lengthAdjust="spacing" textLength="195" x="558" y="251.6724">VAE Antwort wird gesendet mit</text><text fill="#111827" font-family="Arial" font-size="14" lengthAdjust="spacing" textLength="260" x="558" y="267.771">- Entscheidung "nicht leistungszust&#228;ndig"</text><line style="stroke:#111827;stroke-width:2.0;" x1="192.5" x2="234.5" y1="304.6865" y2="304.6865"/><line style="stroke:#111827;stroke-width:2.0;" x1="234.5" x2="234.5" y1="304.6865" y2="317.6865"/><line style="stroke:#111827;stroke-width:2.0;" x1="193.5" x2="234.5" y1="317.6865" y2="317.6865"/><polygon fill="#111827" points="203.5,313.6865,193.5,317.6865,203.5,321.6865,199.5,317.6865" style="stroke:#111827;stroke-width:1.0;"/><text fill="#000000" font-family="Arial" font-size="13" font-weight="bold" lengthAdjust="spacing" textLength="7" x="199.5" y="299.9316">2</text><text fill="#000000" font-family="Arial" font-size="13" lengthAdjust="spacing" textLength="92" x="210.5" y="299.9316">&#9733;&#10022;&#9733;&#10022;&#9733;&#10022;&#9733;&#10022;</text><path d="M192,365.6865 L192,413.6865 A5,5 0 0 0 197,418.6865 L444,418.6865 A5,5 0 0 0 449,413.6865 L449,370.6865 L439,360.6865 L197,360.6865 A5,5 0 0 0 192,365.6865 " fill="url(#g1c5mfv1dha7l70)" filter="url(#f1c5mfv1dha7l7)" style="stroke:#8B95A5;stroke-width:1.0;"/><path d="M439,360.6865 L439,368.1865 A2.5,2.5 0 0 0 441.5,370.6865 L449,370.6865 L439,360.6865 " fill="url(#g1c5mfv1dha7l70)" style="stroke:#8B95A5;stroke-width:1.0;"/><text fill="#111827" font-family="Arial" font-size="14" lengthAdjust="spacing" textLength="192" x="198" y="378.8184">durch negative Response wird</text><text fill="#111827" font-family="Arial" font-size="14" lengthAdjust="spacing" textLength="186" x="198" y="394.917">der VAERequest automatisch</text><text fill="#111827" font-family="Arial" font-size="14" lengthAdjust="spacing" textLength="236" x="198" y="411.0156">gecancelled (Claim.status=cancelled)</text><path d="M192,436.9824 L192,468.9824 A5,5 0 0 0 197,473.9824 L311,473.9824 A5,5 0 0 0 316,468.9824 L316,441.9824 L306,431.9824 L197,431.9824 A5,5 0 0 0 192,436.9824 " fill="#C5F7BA" filter="url(#f1c5mfv1dha7l7)" style="stroke:#8B95A5;stroke-width:1.0;"/><path d="M306,431.9824 L306,439.4824 A2.5,2.5 0 0 0 308.5,441.9824 L316,441.9824 L306,431.9824 " fill="#C5F7BA" style="stroke:#8B95A5;stroke-width:1.0;"/><text fill="#111827" font-family="Arial" font-size="14" lengthAdjust="spacing" textLength="56" x="198" y="450.1143">Zustand:</text><text fill="#111827" font-family="Arial" font-size="14" lengthAdjust="spacing" textLength="103" x="198" y="466.2129">- VAE abgelehnt</text><!--SRC=[ZLFDJXin4BxxAKQR7k2GYWN2drGaG2cLAcX489MgNhphsOsLZRsrlOHIzTXNg7heiUgBy2OyISURFo-9r3XI5CzyC_DztyHs95N93Hz3eer0Sw4BRQ2rKnzcbrcUZdAZAoLcYApZFm723hdG4wboo7XXCSZCoen20t7OL636gyAzrSfTyp52T6OaBwBrYBvyH8ZtroURj0ECqWxX6mCuVoa0Tx2JxRHR8XR7UE0HeG57oN67TnRHsw5CHmgjXPXYDu6W8xhtk11UkEyIi8dZ-6Zta6BzXJNELCY-XmJVVItH55AD0WdTxZh0dHBr3vmP77gFNofKwLHfZnidKrbovHgIElLv0LXPQtsQe5M3LzBpvJGISrjsVS6PCNhoqfWwkFHsTnvQDt6HcCxQez0bCIyR6XUTfwaLTNlPVdRGh0nNszZCkNu853JYwtnbYNw0wBE2_vyhNQBO01T1A-raXmadnkNILxZg0RSGrMqYXahGuttOZ41_05jFFo_VmqU9Qdi30lJmzpFlA4yTgQLwFxe_2ERoocbLZHCqZDNlpSXyw41ddkXSmQVAEgx42Ml3dKgGP4oqSKZemLdNhrTbXkTOT_LD6ADHxTDJwd42h-Pm1Lkz3_rRNtE3jjJAulPigBv7JuzHYfhLS9X88o17IqtHmLWwcjvLpgP3bAAYnKPAfaIrG6aTtUqZiNpweuJCeu09oMXFYJp_-l7y- -_gDoDtv3qd6bSz9Z2yhLZ2H6NI8IZCEQ4GvaAcRAdQJENHaxOElBbZ0X9dO3ccd9vvKT3VP-kYu7BycbnrbNspY6y7l3TPXhUB9paME5HkMViF]--></g></svg>