<?xml version="1.0" encoding="us-ascii" standalone="no"?><svg xmlns="http://www.w3.org/2000/svg" xmlns:xlink="http://www.w3.org/1999/xlink" contentStyleType="text/css" height="466px" preserveAspectRatio="none" style="width:876px;height:466px;background:#F5F5F5;" version="1.1" viewBox="0 0 876 466" width="876px" zoomAndPan="magnify"><defs><filter height="300%" id="fuagisxzbmuz1" width="300%" x="-1" y="-1"><feGaussianBlur result="blurOut" stdDeviation="2.0"/><feColorMatrix in="blurOut" result="blurOut2" type="matrix" values="0 0 0 0 0 0 0 0 0 0 0 0 0 0 0 0 0 0 .4 0"/><feOffset dx="4.0" dy="4.0" in="blurOut2" result="blurOut3"/><feBlend in="SourceGraphic" in2="blurOut3" mode="normal"/></filter><linearGradient id="guagisxzbmuz10" x1="50%" x2="50%" y1="0%" y2="100%"><stop offset="0%" stop-color="#E0E5F0"/><stop offset="100%" stop-color="#D1D9E6"/></linearGradient></defs><g><rect fill="#F5F5F5" height="466" style="stroke:none;stroke-width:1.0;" width="876" x="0" y="0"/><rect fill="#C5F7BA" height="454.231" rx="5" ry="5" style="stroke:#181818;stroke-width:0.5;" width="333" x="21" y="6"/><text fill="#000000" font-family="Arial" font-size="14" font-weight="bold" lengthAdjust="spacing" textLength="4" x="24" y="19.1318">&#160;</text><text fill="#000000" font-family="Arial" font-size="14" font-weight="bold" lengthAdjust="spacing" textLength="47" x="164" y="35.2305">Moped</text><rect fill="#BAC4F7" height="454.231" rx="5" ry="5" style="stroke:#181818;stroke-width:0.5;" width="352" x="518.5" y="6"/><text fill="#000000" font-family="Arial" font-size="14" font-weight="bold" lengthAdjust="spacing" textLength="4" x="521.5" y="19.1318">&#160;</text><text fill="#000000" font-family="Arial" font-size="14" font-weight="bold" lengthAdjust="spacing" textLength="102" x="637.5" y="35.2305">SV (&#214;GK Wien)</text><line style="stroke:#181818;stroke-width:0.5;stroke-dasharray:5.0,5.0;" x1="187.5" x2="187.5" y1="118.2959" y2="381.1323"/><line style="stroke:#181818;stroke-width:0.5;stroke-dasharray:5.0,5.0;" x1="694" x2="694" y1="118.2959" y2="381.1323"/><rect fill="#FFFFFF" height="30.0986" rx="5" ry="5" style="stroke:#555555;stroke-width:0.5;" width="58" x="158.5" y="87.1973"/><text fill="#000000" font-family="Arial" font-size="14" lengthAdjust="spacing" textLength="44" x="165.5" y="107.3291">Moped</text><rect fill="#FFFFFF" height="30.0986" rx="5" ry="5" style="stroke:#555555;stroke-width:0.5;" width="58" x="158.5" y="380.1323"/><text fill="#000000" font-family="Arial" font-size="14" lengthAdjust="spacing" textLength="44" x="165.5" y="400.2642">Moped</text><text fill="#000000" font-family="Arial" font-size="14" lengthAdjust="spacing" textLength="18" x="682.5" y="115.3291">SV</text><ellipse cx="694.5" cy="50.6973" fill="#E2E2F0" rx="8" ry="8" style="stroke:#181818;stroke-width:0.5;"/><path d="M694.5,58.6973 L694.5,85.6973 M681.5,66.6973 L707.5,66.6973 M694.5,85.6973 L681.5,100.6973 M694.5,85.6973 L707.5,100.6973 " fill="none" style="stroke:#181818;stroke-width:0.5;"/><text fill="#000000" font-family="Arial" font-size="14" lengthAdjust="spacing" textLength="18" x="682.5" y="393.2642">SV</text><ellipse cx="694.5" cy="404.731" fill="#E2E2F0" rx="8" ry="8" style="stroke:#181818;stroke-width:0.5;"/><path d="M694.5,412.731 L694.5,439.731 M681.5,420.731 L707.5,420.731 M694.5,439.731 L681.5,454.731 M694.5,439.731 L707.5,454.731 " fill="none" style="stroke:#181818;stroke-width:0.5;"/><path d="M192,138.2959 L192,186.2959 A5,5 0 0 0 197,191.2959 L349,191.2959 A5,5 0 0 0 354,186.2959 L354,143.2959 L344,133.2959 L197,133.2959 A5,5 0 0 0 192,138.2959 " fill="#C5F7BA" filter="url(#fuagisxzbmuz1)" style="stroke:#8B95A5;stroke-width:1.0;"/><path d="M344,133.2959 L344,140.7959 A2.5,2.5 0 0 0 346.5,143.2959 L354,143.2959 L344,133.2959 " fill="#C5F7BA" style="stroke:#8B95A5;stroke-width:1.0;"/><text fill="#111827" font-family="Arial" font-size="14" lengthAdjust="spacing" textLength="56" x="198" y="151.4277">Zustand:</text><text fill="#111827" font-family="Arial" font-size="14" lengthAdjust="spacing" textLength="141" x="198" y="167.5264">- Unbeantwortete VAE</text><text fill="#111827" font-family="Arial" font-size="14" lengthAdjust="spacing" textLength="50" x="206" y="183.625">Anfrage</text><line style="stroke:#111827;stroke-width:2.0;" x1="188.5" x2="198.5" y1="220.5405" y2="216.5405"/><line style="stroke:#111827;stroke-width:2.0;" x1="188.5" x2="198.5" y1="220.5405" y2="224.5405"/><line style="stroke:#111827;stroke-width:2.0;" x1="187.5" x2="693.5" y1="220.5405" y2="220.5405"/><text fill="#000000" font-family="Arial" font-size="13" font-weight="bold" lengthAdjust="spacing" textLength="7" x="204.5" y="215.7856">1</text><text fill="#000000" font-family="Arial" font-size="13" lengthAdjust="spacing" textLength="200" x="215.5" y="215.7856">$antworten (POST VAEResponse)</text><path d="M585,238.5405 L585,286.5405 A5,5 0 0 0 590,291.5405 L796,291.5405 A5,5 0 0 0 801,286.5405 L801,243.5405 L791,233.5405 L590,233.5405 A5,5 0 0 0 585,238.5405 " fill="url(#guagisxzbmuz10)" filter="url(#fuagisxzbmuz1)" style="stroke:#8B95A5;stroke-width:1.0;"/><path d="M791,233.5405 L791,241.0405 A2.5,2.5 0 0 0 793.5,243.5405 L801,243.5405 L791,233.5405 " fill="url(#guagisxzbmuz10)" style="stroke:#8B95A5;stroke-width:1.0;"/><text fill="#111827" font-family="Arial" font-size="14" lengthAdjust="spacing" textLength="195" x="591" y="251.6724">VAE Antwort wird gesendet mit</text><text fill="#111827" font-family="Arial" font-size="14" lengthAdjust="spacing" textLength="159" x="591" y="267.771">- Entscheidung "bewilligt"</text><text fill="#111827" font-family="Arial" font-size="14" lengthAdjust="spacing" textLength="157" x="591" y="283.8696">- End-Datum 16.09.2026</text><path d="M192,309.8364 L192,357.8364 A5,5 0 0 0 197,362.8364 L375,362.8364 A5,5 0 0 0 380,357.8364 L380,314.8364 L370,304.8364 L197,304.8364 A5,5 0 0 0 192,309.8364 " fill="#C5F7BA" filter="url(#fuagisxzbmuz1)" style="stroke:#8B95A5;stroke-width:1.0;"/><path d="M370,304.8364 L370,312.3364 A2.5,2.5 0 0 0 372.5,314.8364 L380,314.8364 L370,304.8364 " fill="#C5F7BA" style="stroke:#8B95A5;stroke-width:1.0;"/><text fill="#111827" font-family="Arial" font-size="14" lengthAdjust="spacing" textLength="56" x="198" y="322.9683">Zustand:</text><text fill="#111827" font-family="Arial" font-size="14" lengthAdjust="spacing" textLength="90" x="198" y="339.0669">- VAE bewilligt</text><text fill="#111827" font-family="Arial" font-size="14" lengthAdjust="spacing" textLength="159" x="206" y="355.1655">Zeitraum: bis 16.09.2026</text><!--SRC=[ZLDTRzem57tthxWAUsWVg0Wj57YeH3VMILCtL5ecLNjnufjWaTYPxGosQNzZVsX_R7RuSY3IC2_atkDpppbNraik2gfe3f5K3DLRcKa5hKvrY3vqQRnCbIm5soAIdljv2BsWJAwuI26XcKQlixsc12e8VLA62IqpyruAyudc2C5OSPe5pOWP_uaGtZGtwx8zZ906uHS1k3ysW1ti9PrsYuLiY7s7y0COHCCUxUshpmiUBmLg3Q6jFNc61lPxIXbpnXsBfoOCmq7trjPc-sYCAf7yzWL- -56WohXOUXOcaoR0Ys3L7zm6x6UFtqeKySRfb2h3OrvGOMgMUjKv0foijJfrq6d09-tTScgDNInTTs6ib5mT1rCL3zbsTwMcYVl6PjQrBJrOvKNDuvvvqpfnTvtS9FtwJN-rjStSoxNde5PlofL4SWt1Lm7_Fu-oG7O6Be1Mt4jk8seL5uTSuN4AL4DGqGG41REFTqtEKp2RmyNVFmyVuGj7SNc60lloRn8NAOsDjMllkzcpkJUObaQACezG4L8zECNJXG6PEAKx2w-bDbIm4Md3YuZG-bX9PT2Yv-E9swz854snOdKaXDXHxRixop62DpkuW8lfvzcpk_E4kf12u-LsgFoEJXwnBKjMmM755OCKjIL50patTlf461qlaBFIRZQ8SCMpZAScg5gi_OwQCeUmVzKPNdKxtRudw1nlRlgU4wolL-H6qJ8VGSHr8-y_]--></g></svg>