<?xml version="1.0" encoding="us-ascii" standalone="no"?><svg xmlns="http://www.w3.org/2000/svg" xmlns:xlink="http://www.w3.org/1999/xlink" contentStyleType="text/css" height="553px" preserveAspectRatio="none" style="width:876px;height:553px;background:#F5F5F5;" version="1.1" viewBox="0 0 876 553" width="876px" zoomAndPan="magnify"><defs><filter height="300%" id="f1wqdgw5kg078r" width="300%" x="-1" y="-1"><feGaussianBlur result="blurOut" stdDeviation="2.0"/><feColorMatrix in="blurOut" result="blurOut2" type="matrix" values="0 0 0 0 0 0 0 0 0 0 0 0 0 0 0 0 0 0 .4 0"/><feOffset dx="4.0" dy="4.0" in="blurOut2" result="blurOut3"/><feBlend in="SourceGraphic" in2="blurOut3" mode="normal"/></filter><linearGradient id="g1wqdgw5kg078r0" x1="50%" x2="50%" y1="0%" y2="100%"><stop offset="0%" stop-color="#E0E5F0"/><stop offset="100%" stop-color="#D1D9E6"/></linearGradient></defs><g><rect fill="#F5F5F5" height="553" style="stroke:none;stroke-width:1.0;" width="876" x="0" y="0"/><rect fill="#C5F7BA" height="541.6255" rx="5" ry="5" style="stroke:#181818;stroke-width:0.5;" width="333" x="21" y="6"/><text fill="#000000" font-family="Arial" font-size="14" font-weight="bold" lengthAdjust="spacing" textLength="4" x="24" y="19.1318">&#160;</text><text fill="#000000" font-family="Arial" font-size="14" font-weight="bold" lengthAdjust="spacing" textLength="47" x="164" y="35.2305">Moped</text><rect fill="#BAC4F7" height="541.6255" rx="5" ry="5" style="stroke:#181818;stroke-width:0.5;" width="352" x="518.5" y="6"/><text fill="#000000" font-family="Arial" font-size="14" font-weight="bold" lengthAdjust="spacing" textLength="4" x="521.5" y="19.1318">&#160;</text><text fill="#000000" font-family="Arial" font-size="14" font-weight="bold" lengthAdjust="spacing" textLength="102" x="637.5" y="35.2305">SV (&#214;GK Wien)</text><line style="stroke:#181818;stroke-width:0.5;stroke-dasharray:5.0,5.0;" x1="187.5" x2="187.5" y1="118.2959" y2="468.5269"/><line style="stroke:#181818;stroke-width:0.5;stroke-dasharray:5.0,5.0;" x1="694" x2="694" y1="118.2959" y2="468.5269"/><rect fill="#FFFFFF" height="30.0986" rx="5" ry="5" style="stroke:#555555;stroke-width:0.5;" width="58" x="158.5" y="87.1973"/><text fill="#000000" font-family="Arial" font-size="14" lengthAdjust="spacing" textLength="44" x="165.5" y="107.3291">Moped</text><rect fill="#FFFFFF" height="30.0986" rx="5" ry="5" style="stroke:#555555;stroke-width:0.5;" width="58" x="158.5" y="467.5269"/><text fill="#000000" font-family="Arial" font-size="14" lengthAdjust="spacing" textLength="44" x="165.5" y="487.6587">Moped</text><text fill="#000000" font-family="Arial" font-size="14" lengthAdjust="spacing" textLength="18" x="682.5" y="115.3291">SV</text><ellipse cx="694.5" cy="50.6973" fill="#E2E2F0" rx="8" ry="8" style="stroke:#181818;stroke-width:0.5;"/><path d="M694.5,58.6973 L694.5,85.6973 M681.5,66.6973 L707.5,66.6973 M694.5,85.6973 L681.5,100.6973 M694.5,85.6973 L707.5,100.6973 " fill="none" style="stroke:#181818;stroke-width:0.5;"/><text fill="#000000" font-family="Arial" font-size="14" lengthAdjust="spacing" textLength="18" x="682.5" y="480.6587">SV</text><ellipse cx="694.5" cy="492.1255" fill="#E2E2F0" rx="8" ry="8" style="stroke:#181818;stroke-width:0.5;"/><path d="M694.5,500.1255 L694.5,527.1255 M681.5,508.1255 L707.5,508.1255 M694.5,527.1255 L681.5,542.1255 M694.5,527.1255 L707.5,542.1255 " fill="none" style="stroke:#181818;stroke-width:0.5;"/><path d="M192,138.2959 L192,218.2959 A5,5 0 0 0 197,223.2959 L461,223.2959 A5,5 0 0 0 466,218.2959 L466,143.2959 L456,133.2959 L197,133.2959 A5,5 0 0 0 192,138.2959 " fill="#C5F7BA" filter="url(#f1wqdgw5kg078r)" style="stroke:#8B95A5;stroke-width:1.0;"/><path d="M456,133.2959 L456,140.7959 A2.5,2.5 0 0 0 458.5,143.2959 L466,143.2959 L456,133.2959 " fill="#C5F7BA" style="stroke:#8B95A5;stroke-width:1.0;"/><text fill="#111827" font-family="Arial" font-size="14" lengthAdjust="spacing" textLength="56" x="198" y="151.4277">Zustand:</text><text fill="#111827" font-family="Arial" font-size="14" lengthAdjust="spacing" textLength="253" x="198" y="167.5264">- VAE bewilligt (befristet bis 16.09.2026)</text><text fill="#111827" font-family="Arial" font-size="14" lengthAdjust="spacing" textLength="195" x="198" y="183.625">- Unbeantwortete VAE Anfrage</text><text fill="#111827" font-family="Arial" font-size="14" lengthAdjust="spacing" textLength="156" x="206" y="199.7236">Mit Verl&#228;ngerungstagen:</text><text fill="#111827" font-family="Arial" font-size="14" lengthAdjust="spacing" textLength="157" x="206" y="215.8223">16.09.2026 - 21.09.2026</text><line style="stroke:#111827;stroke-width:2.0;" x1="188.5" x2="198.5" y1="252.7378" y2="248.7378"/><line style="stroke:#111827;stroke-width:2.0;" x1="188.5" x2="198.5" y1="252.7378" y2="256.7378"/><line style="stroke:#111827;stroke-width:2.0;" x1="187.5" x2="693.5" y1="252.7378" y2="252.7378"/><text fill="#000000" font-family="Arial" font-size="13" font-weight="bold" lengthAdjust="spacing" textLength="7" x="204.5" y="247.9829">1</text><text fill="#000000" font-family="Arial" font-size="13" lengthAdjust="spacing" textLength="200" x="215.5" y="247.9829">$antworten (POST VAEResponse)</text><path d="M585,270.7378 L585,334.7378 A5,5 0 0 0 590,339.7378 L796,339.7378 A5,5 0 0 0 801,334.7378 L801,275.7378 L791,265.7378 L590,265.7378 A5,5 0 0 0 585,270.7378 " fill="url(#g1wqdgw5kg078r0)" filter="url(#f1wqdgw5kg078r)" style="stroke:#8B95A5;stroke-width:1.0;"/><path d="M791,265.7378 L791,273.2378 A2.5,2.5 0 0 0 793.5,275.7378 L801,275.7378 L791,265.7378 " fill="url(#g1wqdgw5kg078r0)" style="stroke:#8B95A5;stroke-width:1.0;"/><text fill="#111827" font-family="Arial" font-size="14" lengthAdjust="spacing" textLength="195" x="591" y="283.8696">VAE Antwort wird gesendet mit</text><text fill="#111827" font-family="Arial" font-size="14" lengthAdjust="spacing" textLength="159" x="591" y="299.9683">- Entscheidung "bewilligt"</text><text fill="#111827" font-family="Arial" font-size="14" lengthAdjust="spacing" textLength="164" x="591" y="316.0669">- Start-Datum 16-09-2026</text><text fill="#111827" font-family="Arial" font-size="14" lengthAdjust="spacing" textLength="170" x="591" y="332.1655">- End-Datum = 21-09.2026</text><path d="M192,358.1323 L192,390.1323 A5,5 0 0 0 197,395.1323 L420,395.1323 A5,5 0 0 0 425,390.1323 L425,363.1323 L415,353.1323 L197,353.1323 A5,5 0 0 0 192,358.1323 " fill="url(#g1wqdgw5kg078r0)" filter="url(#f1wqdgw5kg078r)" style="stroke:#8B95A5;stroke-width:1.0;"/><path d="M415,353.1323 L415,360.6323 A2.5,2.5 0 0 0 417.5,363.1323 L425,363.1323 L415,353.1323 " fill="url(#g1wqdgw5kg078r0)" style="stroke:#8B95A5;stroke-width:1.0;"/><text fill="#111827" font-family="Arial" font-size="14" lengthAdjust="spacing" textLength="164" x="198" y="371.2642">Moped beh&#228;lt die g&#252;ltigen</text><text fill="#111827" font-family="Arial" font-size="14" lengthAdjust="spacing" textLength="212" x="198" y="387.3628">&#220;bernahmen f&#252;r beide Zeitr&#228;ume</text><path d="M192,413.3296 L192,445.3296 A5,5 0 0 0 197,450.3296 L302,450.3296 A5,5 0 0 0 307,445.3296 L307,418.3296 L297,408.3296 L197,408.3296 A5,5 0 0 0 192,413.3296 " fill="#C5F7BA" filter="url(#f1wqdgw5kg078r)" style="stroke:#8B95A5;stroke-width:1.0;"/><path d="M297,408.3296 L297,415.8296 A2.5,2.5 0 0 0 299.5,418.3296 L307,418.3296 L297,408.3296 " fill="#C5F7BA" style="stroke:#8B95A5;stroke-width:1.0;"/><text fill="#111827" font-family="Arial" font-size="14" lengthAdjust="spacing" textLength="56" x="198" y="426.4614">Zustand:</text><text fill="#111827" font-family="Arial" font-size="14" lengthAdjust="spacing" textLength="90" x="198" y="442.5601">- VAE bewilligt</text><!--SRC=[dLDDRzD04BtxLumS3kt1LPmsQHE9IYc48g52rBH1ghYilMDd5NlNhDUaWFWRd3ZsP_JcFyRO-LedaQXONx8pRsRUUvFDvq9cJBCK0gKvwZSgKAfQxVeu-JRBmdciLI7v2X5rgyz2v3F6rKB862AMv6XbLcLQeWRVRienOaLYtYbfFh8KmHrgmHBtC68YVY3uPuUJJTeMHYg3yDC1kDeLW6tiHcslnNtUnrw5i0su2FfTrjr4xsOYd4lCS_0fTci9kg3xc75U2Q-wM6nytx_ed5Diih76w0ATNpR1zzypr8cGSql2Q7G8S2zv_GDN1jlUuzS2PRXKEcRQY51aJ9g6f6vzTW1xQwrF4xHly5vwlPn6OcrBfoeOQgqMkyRKmQstdNNeqCHDOZdhb4BNn3nhQDnqNgRsr9r6Pr6lMMcljh6PA_LeAMZ43_dg1EeHt2yI_drkL8Ry1JWNMc4tEWyOCSwsliBD65WERjt6TL1oUhoFBoCmcS9H-Vlw0tmMA8zVG80U_bbKESf2GsgflXezcLfpMM6KBD80jUFKxqsBU6P0HHNHjOA78ZTCye7ZmNGuWW0N8ab4RE0em4YBtA21GD0IUYVj_acdtUaT4_HU1aYA5qfJ7klAeOmqYv4OtGW3KteIvPECKASofWanoW5GRji6FEZuwqjDkkBeEAJ4kxmaYWDujHuXuMZyQN9NpRd5F5Con-EL9lKDA_NEaa8DXuNG76BCgIcnJuKXnYDfyd26WXCVS3SoNKfD3EtGUyjCaH8_hzttQafL3L-5NnDNRv_hhglEyXyKuAnyIWnmWH2NpuaH91-SyW-jGh9PIfUeVDQ44npX0ONHvLEHejNvFnQshVuB]--></g></svg>