<?xml version="1.0" encoding="us-ascii" standalone="no"?><svg xmlns="http://www.w3.org/2000/svg" xmlns:xlink="http://www.w3.org/1999/xlink" contentStyleType="text/css" height="450px" preserveAspectRatio="none" style="width:1061px;height:450px;background:#F5F5F5;" version="1.1" viewBox="0 0 1061 450" width="1061px" zoomAndPan="magnify"><defs><filter height="300%" id="ffnolhznx980b" width="300%" x="-1" y="-1"><feGaussianBlur result="blurOut" stdDeviation="2.0"/><feColorMatrix in="blurOut" result="blurOut2" type="matrix" values="0 0 0 0 0 0 0 0 0 0 0 0 0 0 0 0 0 0 .4 0"/><feOffset dx="4.0" dy="4.0" in="blurOut2" result="blurOut3"/><feBlend in="SourceGraphic" in2="blurOut3" mode="normal"/></filter><linearGradient id="gfnolhznx980b0" x1="50%" x2="50%" y1="0%" y2="100%"><stop offset="0%" stop-color="#E0E5F0"/><stop offset="100%" stop-color="#D1D9E6"/></linearGradient></defs><g><rect fill="#F5F5F5" height="450" style="stroke:none;stroke-width:1.0;" width="1061" x="0" y="0"/><rect fill="#C0C0C0" height="438.1323" rx="5" ry="5" style="stroke:#181818;stroke-width:0.5;" width="106" x="21" y="6"/><text fill="#000000" font-family="Arial" font-size="14" font-weight="bold" lengthAdjust="spacing" textLength="4" x="24" y="19.1318">&#160;</text><text fill="#000000" font-family="Arial" font-size="14" font-weight="bold" lengthAdjust="spacing" textLength="20" x="60" y="35.2305">KH</text><rect fill="#C5F7BA" height="438.1323" rx="5" ry="5" style="stroke:#181818;stroke-width:0.5;" width="165" x="169" y="6"/><text fill="#000000" font-family="Arial" font-size="14" font-weight="bold" lengthAdjust="spacing" textLength="4" x="172" y="19.1318">&#160;</text><text fill="#000000" font-family="Arial" font-size="14" font-weight="bold" lengthAdjust="spacing" textLength="47" x="228" y="35.2305">Moped</text><rect fill="#BAC4F7" height="438.1323" rx="5" ry="5" style="stroke:#181818;stroke-width:0.5;" width="104" x="498.5" y="6"/><text fill="#000000" font-family="Arial" font-size="14" font-weight="bold" lengthAdjust="spacing" textLength="4" x="501.5" y="19.1318">&#160;</text><text fill="#000000" font-family="Arial" font-size="14" font-weight="bold" lengthAdjust="spacing" textLength="18" x="537.5" y="35.2305">SV</text><rect fill="#C0C0C0" height="438.1323" rx="5" ry="5" style="stroke:#181818;stroke-width:0.5;" width="238" x="644.5" y="6"/><text fill="#000000" font-family="Arial" font-size="14" font-weight="bold" lengthAdjust="spacing" textLength="4" x="647.5" y="19.1318">&#160;</text><text fill="#000000" font-family="Arial" font-size="14" font-weight="bold" lengthAdjust="spacing" textLength="220" x="651.5" y="35.2305">LGF (Landesgesundheitsfonds)</text><rect fill="#C0C0C0" height="438.1323" rx="5" ry="5" style="stroke:#181818;stroke-width:0.5;" width="131" x="924.5" y="6"/><text fill="#000000" font-family="Arial" font-size="14" font-weight="bold" lengthAdjust="spacing" textLength="4" x="927.5" y="19.1318">&#160;</text><text fill="#000000" font-family="Arial" font-size="14" font-weight="bold" lengthAdjust="spacing" textLength="37" x="971.5" y="35.2305">Bund</text><line style="stroke:#181818;stroke-width:0.5;stroke-dasharray:5.0,5.0;" x1="73.5" x2="73.5" y1="118.2959" y2="365.0337"/><line style="stroke:#181818;stroke-width:0.5;stroke-dasharray:5.0,5.0;" x1="251.5" x2="251.5" y1="118.2959" y2="365.0337"/><line style="stroke:#181818;stroke-width:0.5;stroke-dasharray:5.0,5.0;" x1="550" x2="550" y1="118.2959" y2="365.0337"/><line style="stroke:#181818;stroke-width:0.5;stroke-dasharray:5.0,5.0;" x1="763" x2="763" y1="118.2959" y2="365.0337"/><line style="stroke:#181818;stroke-width:0.5;stroke-dasharray:5.0,5.0;" x1="989.5" x2="989.5" y1="118.2959" y2="365.0337"/><text fill="#000000" font-family="Arial" font-size="14" lengthAdjust="spacing" textLength="19" x="61.5" y="115.3291">KH</text><ellipse cx="74" cy="50.6973" fill="#E2E2F0" rx="8" ry="8" style="stroke:#181818;stroke-width:0.5;"/><path d="M74,58.6973 L74,85.6973 M61,66.6973 L87,66.6973 M74,85.6973 L61,100.6973 M74,85.6973 L87,100.6973 " fill="none" style="stroke:#181818;stroke-width:0.5;"/><text fill="#000000" font-family="Arial" font-size="14" lengthAdjust="spacing" textLength="19" x="61.5" y="377.1655">KH</text><ellipse cx="74" cy="388.6323" fill="#E2E2F0" rx="8" ry="8" style="stroke:#181818;stroke-width:0.5;"/><path d="M74,396.6323 L74,423.6323 M61,404.6323 L87,404.6323 M74,423.6323 L61,438.6323 M74,423.6323 L87,438.6323 " fill="none" style="stroke:#181818;stroke-width:0.5;"/><rect fill="#FFFFFF" height="30.0986" rx="5" ry="5" style="stroke:#555555;stroke-width:0.5;" width="58" x="222.5" y="87.1973"/><text fill="#000000" font-family="Arial" font-size="14" lengthAdjust="spacing" textLength="44" x="229.5" y="107.3291">Moped</text><rect fill="#FFFFFF" height="30.0986" rx="5" ry="5" style="stroke:#555555;stroke-width:0.5;" width="58" x="222.5" y="364.0337"/><text fill="#000000" font-family="Arial" font-size="14" lengthAdjust="spacing" textLength="44" x="229.5" y="384.1655">Moped</text><text fill="#000000" font-family="Arial" font-size="14" lengthAdjust="spacing" textLength="18" x="538.5" y="115.3291">SV</text><ellipse cx="550.5" cy="50.6973" fill="#E2E2F0" rx="8" ry="8" style="stroke:#181818;stroke-width:0.5;"/><path d="M550.5,58.6973 L550.5,85.6973 M537.5,66.6973 L563.5,66.6973 M550.5,85.6973 L537.5,100.6973 M550.5,85.6973 L563.5,100.6973 " fill="none" style="stroke:#181818;stroke-width:0.5;"/><text fill="#000000" font-family="Arial" font-size="14" lengthAdjust="spacing" textLength="18" x="538.5" y="377.1655">SV</text><ellipse cx="550.5" cy="388.6323" fill="#E2E2F0" rx="8" ry="8" style="stroke:#181818;stroke-width:0.5;"/><path d="M550.5,396.6323 L550.5,423.6323 M537.5,404.6323 L563.5,404.6323 M550.5,423.6323 L537.5,438.6323 M550.5,423.6323 L563.5,438.6323 " fill="none" style="stroke:#181818;stroke-width:0.5;"/><text fill="#000000" font-family="Arial" font-size="14" lengthAdjust="spacing" textLength="201" x="660" y="115.3291">LGF (Landesgesundheitsfonds)</text><ellipse cx="763.5" cy="50.6973" fill="#E2E2F0" rx="8" ry="8" style="stroke:#181818;stroke-width:0.5;"/><path d="M763.5,58.6973 L763.5,85.6973 M750.5,66.6973 L776.5,66.6973 M763.5,85.6973 L750.5,100.6973 M763.5,85.6973 L776.5,100.6973 " fill="none" style="stroke:#181818;stroke-width:0.5;"/><text fill="#000000" font-family="Arial" font-size="14" lengthAdjust="spacing" textLength="201" x="660" y="377.1655">LGF (Landesgesundheitsfonds)</text><ellipse cx="763.5" cy="388.6323" fill="#E2E2F0" rx="8" ry="8" style="stroke:#181818;stroke-width:0.5;"/><path d="M763.5,396.6323 L763.5,423.6323 M750.5,404.6323 L776.5,404.6323 M763.5,423.6323 L750.5,438.6323 M763.5,423.6323 L776.5,438.6323 " fill="none" style="stroke:#181818;stroke-width:0.5;"/><text fill="#000000" font-family="Arial" font-size="14" lengthAdjust="spacing" textLength="33" x="970.5" y="115.3291">Bund</text><ellipse cx="990" cy="50.6973" fill="#E2E2F0" rx="8" ry="8" style="stroke:#181818;stroke-width:0.5;"/><path d="M990,58.6973 L990,85.6973 M977,66.6973 L1003,66.6973 M990,85.6973 L977,100.6973 M990,85.6973 L1003,100.6973 " fill="none" style="stroke:#181818;stroke-width:0.5;"/><text fill="#000000" font-family="Arial" font-size="14" lengthAdjust="spacing" textLength="33" x="970.5" y="377.1655">Bund</text><ellipse cx="990" cy="388.6323" fill="#E2E2F0" rx="8" ry="8" style="stroke:#181818;stroke-width:0.5;"/><path d="M990,396.6323 L990,423.6323 M977,404.6323 L1003,404.6323 M990,423.6323 L977,438.6323 M990,423.6323 L1003,438.6323 " fill="none" style="stroke:#181818;stroke-width:0.5;"/><path d="M256,138.2959 L256,186.2959 A5,5 0 0 0 261,191.2959 L467,191.2959 A5,5 0 0 0 472,186.2959 L472,143.2959 L462,133.2959 L261,133.2959 A5,5 0 0 0 256,138.2959 " fill="#C5F7BA" filter="url(#ffnolhznx980b)" style="stroke:#8B95A5;stroke-width:1.0;"/><path d="M462,133.2959 L462,140.7959 A2.5,2.5 0 0 0 464.5,143.2959 L472,143.2959 L462,133.2959 " fill="#C5F7BA" style="stroke:#8B95A5;stroke-width:1.0;"/><text fill="#111827" font-family="Arial" font-size="14" lengthAdjust="spacing" textLength="56" x="262" y="151.4277">Zustand:</text><text fill="#111827" font-family="Arial" font-size="14" lengthAdjust="spacing" textLength="195" x="262" y="167.5264">- Unbeantwortete VAE Anfrage</text><text fill="#111827" font-family="Arial" font-size="14" lengthAdjust="spacing" textLength="92" x="262" y="183.625">- VAE in Arbeit</text><line style="stroke:#111827;stroke-width:2.0;" x1="252.5" x2="262.5" y1="220.5405" y2="216.5405"/><line style="stroke:#111827;stroke-width:2.0;" x1="252.5" x2="262.5" y1="220.5405" y2="224.5405"/><line style="stroke:#111827;stroke-width:2.0;" x1="251.5" x2="549.5" y1="220.5405" y2="220.5405"/><text fill="#000000" font-family="Arial" font-size="13" font-weight="bold" lengthAdjust="spacing" textLength="7" x="268.5" y="215.7856">1</text><text fill="#000000" font-family="Arial" font-size="13" lengthAdjust="spacing" textLength="200" x="279.5" y="215.7856">$antworten (POST VAEResponse)</text><path d="M452,238.5405 L452,254.5405 A5,5 0 0 0 457,259.5405 L640,259.5405 A5,5 0 0 0 645,254.5405 L645,243.5405 L635,233.5405 L457,233.5405 A5,5 0 0 0 452,238.5405 " fill="url(#gfnolhznx980b0)" filter="url(#ffnolhznx980b)" style="stroke:#8B95A5;stroke-width:1.0;"/><path d="M635,233.5405 L635,241.0405 A2.5,2.5 0 0 0 637.5,243.5405 L645,243.5405 L635,233.5405 " fill="url(#gfnolhznx980b0)" style="stroke:#8B95A5;stroke-width:1.0;"/><text fill="#111827" font-family="Arial" font-size="14" lengthAdjust="spacing" textLength="172" x="458" y="251.6724">VAE Antwort wird gesendet</text><path d="M256,277.6392 L256,341.6392 A5,5 0 0 0 261,346.6392 L484,346.6392 A5,5 0 0 0 489,341.6392 L489,282.6392 L479,272.6392 L261,272.6392 A5,5 0 0 0 256,277.6392 " fill="#C5F7BA" filter="url(#ffnolhznx980b)" style="stroke:#8B95A5;stroke-width:1.0;"/><path d="M479,272.6392 L479,280.1392 A2.5,2.5 0 0 0 481.5,282.6392 L489,282.6392 L479,272.6392 " fill="#C5F7BA" style="stroke:#8B95A5;stroke-width:1.0;"/><text fill="#111827" font-family="Arial" font-size="14" lengthAdjust="spacing" textLength="56" x="262" y="290.771">Zustand:</text><text fill="#111827" font-family="Arial" font-size="14" lengthAdjust="spacing" textLength="212" x="262" y="306.8696">- VAE bewilligt (ggf. mit Zeitraum)</text><text fill="#111827" font-family="Arial" font-size="14" lengthAdjust="spacing" textLength="103" x="262" y="322.9683">- VAE abgelehnt</text><text fill="#111827" font-family="Arial" font-size="14" lengthAdjust="spacing" textLength="92" x="262" y="339.0669">- VAE in Arbeit</text><!--SRC=[ZLHDRzf04BtxLun83t2WmWG7aaCaKf4W9MbHI7A8UbcpOxF2xBgxwq9QzRztrdojWuiwljWpRzxCUslRB8JCcMPBY9NcgB-eJ6auwvGHc4ELpHQfLeNaMqGIkSj3c3dZQYLa2WdB37gLRPkMg27qIJachCZihPBsAriYD8PQiAnHZvYANmXXhxvONTl3I6KHVWS0Dny5O0UZfDC-uo6_n0k7y0qOn9SHY_RPvxcOBIGQ0o7bdZn10tgUCCwTSCVYRHE6uQ3RfznqRutL1GP__0N7xpdgJCY59s4qgWEyI5xUuDPWttlyKQ2SRPHEcBPY9d8cRKLILCO7mD6nbb457HjyLDuTJgMmiwNh6ePQgzL7OyhamTlkBbKtSL_Op3gdr1rjdbSqxfatfIDrvqalkQXs-aTREPaRjVOKLF9rlWP1hDRG-2vX5_TZE4G3pcOTTz5qDhFKI6Lce74_RWGeENr_wsEACXvLZhoQScnHqeyPiUK7n-5nKdAM7ITefwzLBlgwUqb_lncL7SlqjORYuUuMcW-CtaMJeY5hvoYiIPJafbMdqk4TsQc-amRS4FQaZoN0ZN0t7XKhh9B5CaOT1ELlG8jqRa4bpgMTVM-5iRJKLT265naZURXIsYAXNuSZ6Cf4inIfw9w4f9SmfhNB6Ouo2CYgzlKrCLx1frspXERas_JPzJoXoPKqsDfie7wYSpVOS9TeM0dDWImXJlIP_sTbnnFZIcIPI2qqqpJv34jXuOsMrAnOjhOO5gUOuLpQVolv2m00]--></g></svg>