<?xml version="1.0" encoding="us-ascii" standalone="no"?><svg xmlns="http://www.w3.org/2000/svg" xmlns:xlink="http://www.w3.org/1999/xlink" contentStyleType="text/css" height="434px" preserveAspectRatio="none" style="width:876px;height:434px;background:#F5F5F5;" version="1.1" viewBox="0 0 876 434" width="876px" zoomAndPan="magnify"><defs><filter height="300%" id="fx4b7psa3x416" width="300%" x="-1" y="-1"><feGaussianBlur result="blurOut" stdDeviation="2.0"/><feColorMatrix in="blurOut" result="blurOut2" type="matrix" values="0 0 0 0 0 0 0 0 0 0 0 0 0 0 0 0 0 0 .4 0"/><feOffset dx="4.0" dy="4.0" in="blurOut2" result="blurOut3"/><feBlend in="SourceGraphic" in2="blurOut3" mode="normal"/></filter><linearGradient id="gx4b7psa3x4160" x1="50%" x2="50%" y1="0%" y2="100%"><stop offset="0%" stop-color="#E0E5F0"/><stop offset="100%" stop-color="#D1D9E6"/></linearGradient></defs><g><rect fill="#F5F5F5" height="434" style="stroke:none;stroke-width:1.0;" width="876" x="0" y="0"/><rect fill="#C5F7BA" height="422.0337" rx="5" ry="5" style="stroke:#181818;stroke-width:0.5;" width="333" x="21" y="6"/><text fill="#000000" font-family="Arial" font-size="14" font-weight="bold" lengthAdjust="spacing" textLength="4" x="24" y="19.1318">&#160;</text><text fill="#000000" font-family="Arial" font-size="14" font-weight="bold" lengthAdjust="spacing" textLength="47" x="164" y="35.2305">Moped</text><rect fill="#BAC4F7" height="422.0337" rx="5" ry="5" style="stroke:#181818;stroke-width:0.5;" width="352" x="518.5" y="6"/><text fill="#000000" font-family="Arial" font-size="14" font-weight="bold" lengthAdjust="spacing" textLength="4" x="521.5" y="19.1318">&#160;</text><text fill="#000000" font-family="Arial" font-size="14" font-weight="bold" lengthAdjust="spacing" textLength="102" x="637.5" y="35.2305">SV (&#214;GK Wien)</text><line style="stroke:#181818;stroke-width:0.5;stroke-dasharray:5.0,5.0;" x1="187.5" x2="187.5" y1="118.2959" y2="348.9351"/><line style="stroke:#181818;stroke-width:0.5;stroke-dasharray:5.0,5.0;" x1="694" x2="694" y1="118.2959" y2="348.9351"/><rect fill="#FFFFFF" height="30.0986" rx="5" ry="5" style="stroke:#555555;stroke-width:0.5;" width="58" x="158.5" y="87.1973"/><text fill="#000000" font-family="Arial" font-size="14" lengthAdjust="spacing" textLength="44" x="165.5" y="107.3291">Moped</text><rect fill="#FFFFFF" height="30.0986" rx="5" ry="5" style="stroke:#555555;stroke-width:0.5;" width="58" x="158.5" y="347.9351"/><text fill="#000000" font-family="Arial" font-size="14" lengthAdjust="spacing" textLength="44" x="165.5" y="368.0669">Moped</text><text fill="#000000" font-family="Arial" font-size="14" lengthAdjust="spacing" textLength="18" x="682.5" y="115.3291">SV</text><ellipse cx="694.5" cy="50.6973" fill="#E2E2F0" rx="8" ry="8" style="stroke:#181818;stroke-width:0.5;"/><path d="M694.5,58.6973 L694.5,85.6973 M681.5,66.6973 L707.5,66.6973 M694.5,85.6973 L681.5,100.6973 M694.5,85.6973 L707.5,100.6973 " fill="none" style="stroke:#181818;stroke-width:0.5;"/><text fill="#000000" font-family="Arial" font-size="14" lengthAdjust="spacing" textLength="18" x="682.5" y="361.0669">SV</text><ellipse cx="694.5" cy="372.5337" fill="#E2E2F0" rx="8" ry="8" style="stroke:#181818;stroke-width:0.5;"/><path d="M694.5,380.5337 L694.5,407.5337 M681.5,388.5337 L707.5,388.5337 M694.5,407.5337 L681.5,422.5337 M694.5,407.5337 L707.5,422.5337 " fill="none" style="stroke:#181818;stroke-width:0.5;"/><path d="M192,138.2959 L192,186.2959 A5,5 0 0 0 197,191.2959 L349,191.2959 A5,5 0 0 0 354,186.2959 L354,143.2959 L344,133.2959 L197,133.2959 A5,5 0 0 0 192,138.2959 " fill="#C5F7BA" filter="url(#fx4b7psa3x416)" style="stroke:#8B95A5;stroke-width:1.0;"/><path d="M344,133.2959 L344,140.7959 A2.5,2.5 0 0 0 346.5,143.2959 L354,143.2959 L344,133.2959 " fill="#C5F7BA" style="stroke:#8B95A5;stroke-width:1.0;"/><text fill="#111827" font-family="Arial" font-size="14" lengthAdjust="spacing" textLength="56" x="198" y="151.4277">Zustand:</text><text fill="#111827" font-family="Arial" font-size="14" lengthAdjust="spacing" textLength="141" x="198" y="167.5264">- Unbeantwortete VAE</text><text fill="#111827" font-family="Arial" font-size="14" lengthAdjust="spacing" textLength="50" x="206" y="183.625">Anfrage</text><line style="stroke:#111827;stroke-width:2.0;" x1="188.5" x2="198.5" y1="220.5405" y2="216.5405"/><line style="stroke:#111827;stroke-width:2.0;" x1="188.5" x2="198.5" y1="220.5405" y2="224.5405"/><line style="stroke:#111827;stroke-width:2.0;" x1="187.5" x2="693.5" y1="220.5405" y2="220.5405"/><text fill="#000000" font-family="Arial" font-size="13" font-weight="bold" lengthAdjust="spacing" textLength="7" x="204.5" y="215.7856">1</text><text fill="#000000" font-family="Arial" font-size="13" lengthAdjust="spacing" textLength="200" x="215.5" y="215.7856">$antworten (POST VAEResponse)</text><path d="M585,238.5405 L585,270.5405 A5,5 0 0 0 590,275.5405 L796,275.5405 A5,5 0 0 0 801,270.5405 L801,243.5405 L791,233.5405 L590,233.5405 A5,5 0 0 0 585,238.5405 " fill="url(#gx4b7psa3x4160)" filter="url(#fx4b7psa3x416)" style="stroke:#8B95A5;stroke-width:1.0;"/><path d="M791,233.5405 L791,241.0405 A2.5,2.5 0 0 0 793.5,243.5405 L801,243.5405 L791,233.5405 " fill="url(#gx4b7psa3x4160)" style="stroke:#8B95A5;stroke-width:1.0;"/><text fill="#111827" font-family="Arial" font-size="14" lengthAdjust="spacing" textLength="195" x="591" y="251.6724">VAE Antwort wird gesendet mit</text><text fill="#111827" font-family="Arial" font-size="14" lengthAdjust="spacing" textLength="159" x="591" y="267.771">- Entscheidung "bewilligt"</text><path d="M192,293.7378 L192,325.7378 A5,5 0 0 0 197,330.7378 L298,330.7378 A5,5 0 0 0 303,325.7378 L303,298.7378 L293,288.7378 L197,288.7378 A5,5 0 0 0 192,293.7378 " fill="#C5F7BA" filter="url(#fx4b7psa3x416)" style="stroke:#8B95A5;stroke-width:1.0;"/><path d="M293,288.7378 L293,296.2378 A2.5,2.5 0 0 0 295.5,298.7378 L303,298.7378 L293,288.7378 " fill="#C5F7BA" style="stroke:#8B95A5;stroke-width:1.0;"/><text fill="#111827" font-family="Arial" font-size="14" lengthAdjust="spacing" textLength="56" x="198" y="306.8696">Zustand:</text><text fill="#111827" font-family="Arial" font-size="14" lengthAdjust="spacing" textLength="90" x="198" y="322.9683">- VAE bewilligt</text><!--SRC=[ZLF1Rjf04BtlLunC3ya12HESa1mYaOgcKfKMXOHALIzhxzYiCBlkxhgchVeR_Q7-M7SDc3LOAiC5pxnvC- -DLg-uAAYYQuYbOgZUobmgw0tg8FfGfSagKx8KR8T88_Vp47f9cQouo22bkKQlicjJ0XM4FYd3b9QvUIU5-KZN2C54SPe7tOWv_uaGZhgBxRKzZ906uHS1U3WMW0ECqa6_nq9sYzSEuHimZcyZ6ZNPboLFLWArXj3cdZr1O_izeumvuOx5soOCm_7mnkRcZJL6bKX- -mk-_r6WohbOUHAcqox0gs3r7zmPx7kFtqeKoLRfZ2h34rvGOLgIeZgE02TdhQCDEZNufBm_JgkmjsNe6YPAoUhOc3fvy7QuJtLDR0hRMLSszMWtBreQ6-PjwKJTLJfAhzkT_cbRbtcG6qz1Az_bAudb1eAl0luVJx90TWOkW5uIfJSnjHiN1r_XQGPKGr3J10G5iuztSzu2ymLS_Ftp-04-SnINPonW7_ueTOxIn5Yrjj-DdY-ykRGqKfJh61KXzNjJF5iQaAbRTA_WIwaD5UoEzE5Ln6XbL58PjEZ5PEhEAr95CwnP7GaXTbJ__jvotC6RFLp0nUpJ_CNrFACkfD1ukHiglwDRZzYI9QlXK77584DjIT70cXixVIgCJfR8MMaF6yHOyJpdcGcyoUU8S6EQvaFlFm00]--></g></svg>