<?xml version="1.0" encoding="us-ascii" standalone="no"?><svg xmlns="http://www.w3.org/2000/svg" xmlns:xlink="http://www.w3.org/1999/xlink" contentStyleType="text/css" height="417px" preserveAspectRatio="none" style="width:876px;height:417px;background:#F5F5F5;" version="1.1" viewBox="0 0 876 417" width="876px" zoomAndPan="magnify"><defs><filter height="300%" id="f1k9kwpr0tcuix" width="300%" x="-1" y="-1"><feGaussianBlur result="blurOut" stdDeviation="2.0"/><feColorMatrix in="blurOut" result="blurOut2" type="matrix" values="0 0 0 0 0 0 0 0 0 0 0 0 0 0 0 0 0 0 .4 0"/><feOffset dx="4.0" dy="4.0" in="blurOut2" result="blurOut3"/><feBlend in="SourceGraphic" in2="blurOut3" mode="normal"/></filter><linearGradient id="g1k9kwpr0tcuix0" x1="50%" x2="50%" y1="0%" y2="100%"><stop offset="0%" stop-color="#E0E5F0"/><stop offset="100%" stop-color="#D1D9E6"/></linearGradient></defs><g><rect fill="#F5F5F5" height="417" style="stroke:none;stroke-width:1.0;" width="876" x="0" y="0"/><rect fill="#C5F7BA" height="405.9351" rx="5" ry="5" style="stroke:#181818;stroke-width:0.5;" width="333" x="21" y="6"/><text fill="#000000" font-family="Arial" font-size="14" font-weight="bold" lengthAdjust="spacing" textLength="4" x="24" y="19.1318">&#160;</text><text fill="#000000" font-family="Arial" font-size="14" font-weight="bold" lengthAdjust="spacing" textLength="47" x="164" y="35.2305">Moped</text><rect fill="#BAC4F7" height="405.9351" rx="5" ry="5" style="stroke:#181818;stroke-width:0.5;" width="352" x="518.5" y="6"/><text fill="#000000" font-family="Arial" font-size="14" font-weight="bold" lengthAdjust="spacing" textLength="4" x="521.5" y="19.1318">&#160;</text><text fill="#000000" font-family="Arial" font-size="14" font-weight="bold" lengthAdjust="spacing" textLength="102" x="637.5" y="35.2305">SV (&#214;GK Wien)</text><line style="stroke:#181818;stroke-width:0.5;stroke-dasharray:5.0,5.0;" x1="187.5" x2="187.5" y1="118.2959" y2="332.8364"/><line style="stroke:#181818;stroke-width:0.5;stroke-dasharray:5.0,5.0;" x1="694" x2="694" y1="118.2959" y2="332.8364"/><rect fill="#FFFFFF" height="30.0986" rx="5" ry="5" style="stroke:#555555;stroke-width:0.5;" width="58" x="158.5" y="87.1973"/><text fill="#000000" font-family="Arial" font-size="14" lengthAdjust="spacing" textLength="44" x="165.5" y="107.3291">Moped</text><rect fill="#FFFFFF" height="30.0986" rx="5" ry="5" style="stroke:#555555;stroke-width:0.5;" width="58" x="158.5" y="331.8364"/><text fill="#000000" font-family="Arial" font-size="14" lengthAdjust="spacing" textLength="44" x="165.5" y="351.9683">Moped</text><text fill="#000000" font-family="Arial" font-size="14" lengthAdjust="spacing" textLength="18" x="682.5" y="115.3291">SV</text><ellipse cx="694.5" cy="50.6973" fill="#E2E2F0" rx="8" ry="8" style="stroke:#181818;stroke-width:0.5;"/><path d="M694.5,58.6973 L694.5,85.6973 M681.5,66.6973 L707.5,66.6973 M694.5,85.6973 L681.5,100.6973 M694.5,85.6973 L707.5,100.6973 " fill="none" style="stroke:#181818;stroke-width:0.5;"/><text fill="#000000" font-family="Arial" font-size="14" lengthAdjust="spacing" textLength="18" x="682.5" y="344.9683">SV</text><ellipse cx="694.5" cy="356.4351" fill="#E2E2F0" rx="8" ry="8" style="stroke:#181818;stroke-width:0.5;"/><path d="M694.5,364.4351 L694.5,391.4351 M681.5,372.4351 L707.5,372.4351 M694.5,391.4351 L681.5,406.4351 M694.5,391.4351 L707.5,406.4351 " fill="none" style="stroke:#181818;stroke-width:0.5;"/><path d="M192,138.2959 L192,170.2959 A5,5 0 0 0 197,175.2959 L403,175.2959 A5,5 0 0 0 408,170.2959 L408,143.2959 L398,133.2959 L197,133.2959 A5,5 0 0 0 192,138.2959 " fill="#C5F7BA" filter="url(#f1k9kwpr0tcuix)" style="stroke:#8B95A5;stroke-width:1.0;"/><path d="M398,133.2959 L398,140.7959 A2.5,2.5 0 0 0 400.5,143.2959 L408,143.2959 L398,133.2959 " fill="#C5F7BA" style="stroke:#8B95A5;stroke-width:1.0;"/><text fill="#111827" font-family="Arial" font-size="14" lengthAdjust="spacing" textLength="56" x="198" y="151.4277">Zustand:</text><text fill="#111827" font-family="Arial" font-size="14" lengthAdjust="spacing" textLength="195" x="198" y="167.5264">- Unbeantwortete VAE Anfrage</text><line style="stroke:#111827;stroke-width:2.0;" x1="188.5" x2="198.5" y1="204.4419" y2="200.4419"/><line style="stroke:#111827;stroke-width:2.0;" x1="188.5" x2="198.5" y1="204.4419" y2="208.4419"/><line style="stroke:#111827;stroke-width:2.0;" x1="187.5" x2="693.5" y1="204.4419" y2="204.4419"/><text fill="#000000" font-family="Arial" font-size="13" font-weight="bold" lengthAdjust="spacing" textLength="7" x="204.5" y="199.687">1</text><text fill="#000000" font-family="Arial" font-size="13" lengthAdjust="spacing" textLength="200" x="215.5" y="199.687">$antworten (POST VAEResponse)</text><path d="M582,222.4419 L582,254.4419 A5,5 0 0 0 587,259.4419 L799,259.4419 A5,5 0 0 0 804,254.4419 L804,227.4419 L794,217.4419 L587,217.4419 A5,5 0 0 0 582,222.4419 " fill="url(#g1k9kwpr0tcuix0)" filter="url(#f1k9kwpr0tcuix)" style="stroke:#8B95A5;stroke-width:1.0;"/><path d="M794,217.4419 L794,224.9419 A2.5,2.5 0 0 0 796.5,227.4419 L804,227.4419 L794,217.4419 " fill="url(#g1k9kwpr0tcuix0)" style="stroke:#8B95A5;stroke-width:1.0;"/><text fill="#111827" font-family="Arial" font-size="14" lengthAdjust="spacing" textLength="195" x="588" y="235.5737">VAE Antwort wird gesendet mit</text><text fill="#111827" font-family="Arial" font-size="14" lengthAdjust="spacing" textLength="201" x="588" y="251.6724">- Entscheidung "in Bearbeitung"</text><path d="M192,277.6392 L192,309.6392 A5,5 0 0 0 197,314.6392 L300,314.6392 A5,5 0 0 0 305,309.6392 L305,282.6392 L295,272.6392 L197,272.6392 A5,5 0 0 0 192,277.6392 " fill="#C5F7BA" filter="url(#f1k9kwpr0tcuix)" style="stroke:#8B95A5;stroke-width:1.0;"/><path d="M295,272.6392 L295,280.1392 A2.5,2.5 0 0 0 297.5,282.6392 L305,282.6392 L295,272.6392 " fill="#C5F7BA" style="stroke:#8B95A5;stroke-width:1.0;"/><text fill="#111827" font-family="Arial" font-size="14" lengthAdjust="spacing" textLength="56" x="198" y="290.771">Zustand:</text><text fill="#111827" font-family="Arial" font-size="14" lengthAdjust="spacing" textLength="92" x="198" y="306.8696">- VAE in Arbeit</text><!--SRC=[ZLDDRnen4BtxLuoM7f834alOXEGG2IgQIbLQ518YLRrurxDW0UEjxIsqLVz6_r3_MEpbomj8nNjPpxnvC- -DR6QI2gxv0bAb1UhtQguqD5hLOMQVvTbiebL9OeF84_y523FbGYqbJI3dSuD1PbEc2JN48Qd0d9Tp-q6H_SmN255FIpwFJYD6yXT2t3cTh8yTO4XPXDyCe7ye05kOvArcGyJY5gyz8ZIWczucFDb5dwSocn4Q0x6BFGM2kku-v49uuPubc2QEusxxniL6EskiBf7z2GVy-BD0FPSq2oGC1gS0BoIg7zmO77gFtqkaRArqoBMLcImusPgaf3e7WAErLgSEEZRuABrTJYsnjQNj2tfQg-MXCLLmxsrx6phLSPTOzxfoeGStUL7Jk6DUfuxKNUMT_BfU6Qwsjfc-MWKAQl5Jlh9KhI3wHl3_ywWA56VW8cXaINwJSZTniVSL7eV03KGLJSIGX7kyg_C668tXuj_VXq_mAf4kpnZ0FVnExXtbcNLgNRrlFHe7VNbf5PMB53LZrNlJSZAre78_w5R1rz9OJkAEDU65KdGobafRTEXnRm0zoZMVOCNfAHXpZPhtzuxX3jvjmGGNmo-ZPr_nXAPGPF1otL7zG3yRMtDLQ5XABM22nd6YXOMqhlM0hCccA4NfjXf9WZvodQAqxXu5tS-HuNivXbvLlwzz0m00]--></g></svg>