<?xml version="1.0" encoding="us-ascii" standalone="no"?><svg xmlns="http://www.w3.org/2000/svg" xmlns:xlink="http://www.w3.org/1999/xlink" contentStyleType="text/css" height="657px" preserveAspectRatio="none" style="width:804px;height:657px;background:#F5F5F5;" version="1.1" viewBox="0 0 804 657" width="804px" zoomAndPan="magnify"><defs><filter height="300%" id="f16pryldumtziv" width="300%" x="-1" y="-1"><feGaussianBlur result="blurOut" stdDeviation="2.0"/><feColorMatrix in="blurOut" result="blurOut2" type="matrix" values="0 0 0 0 0 0 0 0 0 0 0 0 0 0 0 0 0 0 .4 0"/><feOffset dx="4.0" dy="4.0" in="blurOut2" result="blurOut3"/><feBlend in="SourceGraphic" in2="blurOut3" mode="normal"/></filter><linearGradient id="g16pryldumtziv0" x1="50%" x2="50%" y1="0%" y2="100%"><stop offset="0%" stop-color="#E0E5F0"/><stop offset="100%" stop-color="#D1D9E6"/></linearGradient></defs><g><rect fill="#F5F5F5" height="657" style="stroke:none;stroke-width:1.0;" width="804" x="0" y="0"/><rect fill="#F5E599" height="645.7715" rx="5" ry="5" style="stroke:#181818;stroke-width:0.5;" width="371" x="21" y="6"/><text fill="#000000" font-family="Arial" font-size="14" font-weight="bold" lengthAdjust="spacing" textLength="4" x="24" y="19.1318">&#160;</text><text fill="#000000" font-family="Arial" font-size="14" font-weight="bold" lengthAdjust="spacing" textLength="197" x="108" y="35.2305">KH (Herz-Jesu Krankenhaus)</text><rect fill="#C5F7BA" height="645.7715" rx="5" ry="5" style="stroke:#181818;stroke-width:0.5;" width="333" x="465" y="6"/><text fill="#000000" font-family="Arial" font-size="14" font-weight="bold" lengthAdjust="spacing" textLength="4" x="468" y="19.1318">&#160;</text><text fill="#000000" font-family="Arial" font-size="14" font-weight="bold" lengthAdjust="spacing" textLength="47" x="608" y="35.2305">Moped</text><rect fill="#FFFFFF" height="28" style="stroke:#181818;stroke-width:1.0;" width="10" x="626.5" y="393.1797"/><line style="stroke:#181818;stroke-width:0.5;stroke-dasharray:5.0,5.0;" x1="206.5" x2="206.5" y1="118.2959" y2="572.6729"/><line style="stroke:#181818;stroke-width:0.5;stroke-dasharray:5.0,5.0;" x1="631.5" x2="631.5" y1="118.2959" y2="572.6729"/><text fill="#000000" font-family="Arial" font-size="14" lengthAdjust="spacing" textLength="186" x="110.5" y="115.3291">KH (Herz-Jesu Krankenhaus)</text><ellipse cx="206.5" cy="50.6973" fill="#E2E2F0" rx="8" ry="8" style="stroke:#181818;stroke-width:0.5;"/><path d="M206.5,58.6973 L206.5,85.6973 M193.5,66.6973 L219.5,66.6973 M206.5,85.6973 L193.5,100.6973 M206.5,85.6973 L219.5,100.6973 " fill="none" style="stroke:#181818;stroke-width:0.5;"/><text fill="#000000" font-family="Arial" font-size="14" lengthAdjust="spacing" textLength="186" x="110.5" y="584.8047">KH (Herz-Jesu Krankenhaus)</text><ellipse cx="206.5" cy="596.2715" fill="#E2E2F0" rx="8" ry="8" style="stroke:#181818;stroke-width:0.5;"/><path d="M206.5,604.2715 L206.5,631.2715 M193.5,612.2715 L219.5,612.2715 M206.5,631.2715 L193.5,646.2715 M206.5,631.2715 L219.5,646.2715 " fill="none" style="stroke:#181818;stroke-width:0.5;"/><rect fill="#FFFFFF" height="30.0986" rx="5" ry="5" style="stroke:#555555;stroke-width:0.5;" width="58" x="602.5" y="87.1973"/><text fill="#000000" font-family="Arial" font-size="14" lengthAdjust="spacing" textLength="44" x="609.5" y="107.3291">Moped</text><rect fill="#FFFFFF" height="30.0986" rx="5" ry="5" style="stroke:#555555;stroke-width:0.5;" width="58" x="602.5" y="571.6729"/><text fill="#000000" font-family="Arial" font-size="14" lengthAdjust="spacing" textLength="44" x="609.5" y="591.8047">Moped</text><rect fill="#FFFFFF" height="28" style="stroke:#181818;stroke-width:1.0;" width="10" x="626.5" y="393.1797"/><path d="M472,138.2959 L472,282.2959 A5,5 0 0 0 477,287.2959 L783,287.2959 A5,5 0 0 0 788,282.2959 L788,143.2959 L778,133.2959 L477,133.2959 A5,5 0 0 0 472,138.2959 " fill="#C5F7BA" filter="url(#f16pryldumtziv)" style="stroke:#8B95A5;stroke-width:1.0;"/><path d="M778,133.2959 L778,140.7959 A2.5,2.5 0 0 0 780.5,143.2959 L788,143.2959 L778,133.2959 " fill="#C5F7BA" style="stroke:#8B95A5;stroke-width:1.0;"/><text fill="#111827" font-family="Arial" font-size="14" lengthAdjust="spacing" textLength="56" x="478" y="151.4277">Zustand:</text><text fill="#111827" font-family="Arial" font-size="14" lengthAdjust="spacing" textLength="250" x="478" y="167.5264">- Aufenthalts-/Besuchsdaten vollst&#228;ndig</text><text fill="#111827" font-family="Arial" font-size="14" lengthAdjust="spacing" textLength="279" x="494" y="183.625">(inklusive Entlassung bei station&#228;ren F&#228;llen)</text><text fill="#111827" font-family="Arial" font-size="14" lengthAdjust="spacing" textLength="177" x="478" y="199.7236">- Hauptdiagnose vorhanden</text><text fill="#111827" font-family="Arial" font-size="14" lengthAdjust="spacing" textLength="195" x="478" y="215.8223">G&#252;ltige Abrechnungszust&#228;nde:</text><text fill="#111827" font-family="Arial" font-size="14" lengthAdjust="spacing" textLength="126" x="478" y="231.9209">- Keine Abrechnung</text><text fill="#111827" font-family="Arial" font-size="14" lengthAdjust="spacing" textLength="219" x="478" y="248.0195">- vorl&#228;ufige Abrechnung abgelehnt</text><text fill="#111827" font-family="Arial" font-size="14" lengthAdjust="spacing" textLength="223" x="478" y="264.1182">- vorl&#228;ufige Abrechnung genehmigt</text><text fill="#111827" font-family="Arial" font-size="14" lengthAdjust="spacing" textLength="191" x="478" y="280.2168">- finale Abrechnung abgelehnt</text><line style="stroke:#111827;stroke-width:2.0;" x1="629.5" x2="619.5" y1="317.1323" y2="313.1323"/><line style="stroke:#111827;stroke-width:2.0;" x1="629.5" x2="619.5" y1="317.1323" y2="321.1323"/><line style="stroke:#111827;stroke-width:2.0;" x1="206.5" x2="630.5" y1="317.1323" y2="317.1323"/><text fill="#000000" font-family="Arial" font-size="13" font-weight="bold" lengthAdjust="spacing" textLength="7" x="213.5" y="312.3774">1</text><text fill="#000000" font-family="Arial" font-size="13" lengthAdjust="spacing" textLength="191" x="224.5" y="312.3774">$abrechnen (POST LKFRequest)</text><path d="M53,335.1323 L53,351.1323 A5,5 0 0 0 58,356.1323 L351,356.1323 A5,5 0 0 0 356,351.1323 L356,340.1323 L346,330.1323 L58,330.1323 A5,5 0 0 0 53,335.1323 " fill="url(#g16pryldumtziv0)" filter="url(#f16pryldumtziv)" style="stroke:#8B95A5;stroke-width:1.0;"/><path d="M346,330.1323 L346,337.6323 A2.5,2.5 0 0 0 348.5,340.1323 L356,340.1323 L346,330.1323 " fill="url(#g16pryldumtziv0)" style="stroke:#8B95A5;stroke-width:1.0;"/><text fill="#111827" font-family="Arial" font-size="14" lengthAdjust="spacing" textLength="282" x="59" y="348.2642">Die Abrechnung ist als "final" markiert.</text><line style="stroke:#111827;stroke-width:2.0;" x1="636.5" x2="678.5" y1="385.1797" y2="385.1797"/><line style="stroke:#111827;stroke-width:2.0;" x1="678.5" x2="678.5" y1="385.1797" y2="398.1797"/><line style="stroke:#111827;stroke-width:2.0;" x1="637.5" x2="678.5" y1="398.1797" y2="398.1797"/><polygon fill="#111827" points="647.5,394.1797,637.5,398.1797,647.5,402.1797,643.5,398.1797" style="stroke:#111827;stroke-width:1.0;"/><text fill="#000000" font-family="Arial" font-size="13" font-weight="bold" lengthAdjust="spacing" textLength="7" x="643.5" y="380.4248">2</text><text fill="#000000" font-family="Arial" font-size="13" lengthAdjust="spacing" textLength="92" x="654.5" y="380.4248">&#9733;&#10022;&#9733;&#10022;&#9733;&#10022;&#9733;&#10022;</text><path d="M484,446.1797 L484,494.1797 A5,5 0 0 0 489,499.1797 L771,499.1797 A5,5 0 0 0 776,494.1797 L776,451.1797 L766,441.1797 L489,441.1797 A5,5 0 0 0 484,446.1797 " fill="url(#g16pryldumtziv0)" filter="url(#f16pryldumtziv)" style="stroke:#8B95A5;stroke-width:1.0;"/><path d="M766,441.1797 L766,448.6797 A2.5,2.5 0 0 0 768.5,451.1797 L776,451.1797 L766,441.1797 " fill="url(#g16pryldumtziv0)" style="stroke:#8B95A5;stroke-width:1.0;"/><text fill="#111827" font-family="Arial" font-size="14" lengthAdjust="spacing" textLength="246" x="490" y="459.3115">durch den neuen LKFRequest wird der</text><text fill="#111827" font-family="Arial" font-size="14" lengthAdjust="spacing" textLength="271" x="490" y="475.4102">vorherige LKFRequest (falls einer existiert)</text><text fill="#111827" font-family="Arial" font-size="14" lengthAdjust="spacing" textLength="157" x="490" y="491.5088">automatisch gecancelled</text><path d="M510,517.4756 L510,549.4756 A5,5 0 0 0 515,554.4756 L745,554.4756 A5,5 0 0 0 750,549.4756 L750,522.4756 L740,512.4756 L515,512.4756 A5,5 0 0 0 510,517.4756 " fill="#C5F7BA" filter="url(#f16pryldumtziv)" style="stroke:#8B95A5;stroke-width:1.0;"/><path d="M740,512.4756 L740,519.9756 A2.5,2.5 0 0 0 742.5,522.4756 L750,522.4756 L740,512.4756 " fill="#C5F7BA" style="stroke:#8B95A5;stroke-width:1.0;"/><text fill="#111827" font-family="Arial" font-size="14" lengthAdjust="spacing" textLength="56" x="516" y="530.6074">Zustand:</text><text fill="#111827" font-family="Arial" font-size="14" lengthAdjust="spacing" textLength="219" x="516" y="546.7061">- finale Abrechnung unbeantwortet</text><!--SRC=[ZLJDRXen4BxxAIpI0pdGXgGa8OT8f4s2IjEY9BrKlNZNixiMngR-0Pggnxv33psYFaLll4cUfECbW3UGjaP2CFFvcs- -iMq7GesOOKEQQCF1lD9I6xgpLovYrrcM3dAZlU8FYAmLFX725ephYL0vpPYq46KUjXa5XZPZKWuPyz9TQENUiI7GMiS89clR4JVY3cZpvVPaLNQ4KTe1_KeeFNlS0En1AzjhxF0cRyDXGCG672Vj5ckjehU5I0SAhALDZ5r73HtZ_pxZF3GUM28rpMRpUFy8OpShQvpnGBx50hjVHc2aK8EeXVFpRO0FYfS_uC7Ws7lux46bYqxxp3YHYX5Jhj9IgroF01jZBLSLj6dmHdevd4fYQSj-sD0nHayU6rC6rzxkBqFRAguIYre76Bf4vQDAZolcHMgZkuFiPNPOtHcFjZAPCpsDEgZ4j_bA4ZsbjK-ARbkzBgrtmTmrte3rj6UO6e0gcBUxM-6rSB-WrMwZL9Owh884pDBQqpmr0ehZ9Px-NKXrNUaHyF_0ePwqbHqb3FMCrWEcL_rILKaJ2S35lDFA3nCmX9HtK8_niY1-IVJHMySKFo4Dsl4PA5SmwMpZnHasbXQMCmUAZhMKrirdYekS125rl0VIMp46UgwSPDPw74y2WYAR4rhDPmRtNSndKeBQHV8kyoF71SkLje24fi2geCZb_BTq8WVQIGoaXK8UU-SNnI2ewa6uQkiiXd2tdCzyLjr6MPA3X4Avfo4vA2Y68W-GJ2Wcdo085WQx2C59DqvFqR4J-emjeDXOlV_-vfQ-xLrSXnjltMxiRgzBNeiAiR2Eubj1QyYRUmWDr-YGcO40uvv7rN0mZKMn-n_Vxt_-slmcU0x56AU2AC8X_bSPCE7Uf0M-pOegm4Sf4aidmd3C61B602Pu56Nh-AoXrc2xeJ15xK7bRdcKXZXSYxGvf0pVEHmkZzJ_wu1jEkvL0dY09zeuY5p_0m00]--></g></svg>