<?xml version="1.0" encoding="us-ascii" standalone="no"?><svg xmlns="http://www.w3.org/2000/svg" xmlns:xlink="http://www.w3.org/1999/xlink" contentStyleType="text/css" height="1761px" preserveAspectRatio="none" style="width:1432px;height:1761px;background:#F5F5F5;" version="1.1" viewBox="0 0 1432 1761" width="1432px" zoomAndPan="magnify"><defs><linearGradient id="gk54b7htfq8vn0" x1="50%" x2="50%" y1="0%" y2="100%"><stop offset="0%" stop-color="#E0E5F0"/><stop offset="100%" stop-color="#D1D9E6"/></linearGradient><filter height="300%" id="fk54b7htfq8vn" width="300%" x="-1" y="-1"><feGaussianBlur result="blurOut" stdDeviation="2.0"/><feColorMatrix in="blurOut" result="blurOut2" type="matrix" values="0 0 0 0 0 0 0 0 0 0 0 0 0 0 0 0 0 0 .4 0"/><feOffset dx="4.0" dy="4.0" in="blurOut2" result="blurOut3"/><feBlend in="SourceGraphic" in2="blurOut3" mode="normal"/></filter></defs><g><rect fill="#F5F5F5" height="1761" style="stroke:none;stroke-width:1.0;" width="1432" x="0" y="0"/><rect fill="#F5E599" height="1749.8213" rx="5" ry="5" style="stroke:#181818;stroke-width:0.5;" width="218" x="55" y="6"/><text fill="#000000" font-family="Arial" font-size="14" font-weight="bold" lengthAdjust="spacing" textLength="4" x="58" y="19.1318">&#160;</text><text fill="#000000" font-family="Arial" font-size="14" font-weight="bold" lengthAdjust="spacing" textLength="196" x="66" y="35.2305">KH (Herz Jesu Krankenhaus)</text><rect fill="#C5F7BA" height="1749.8213" rx="5" ry="5" style="stroke:#181818;stroke-width:0.5;" width="109" x="390.5" y="6"/><text fill="#000000" font-family="Arial" font-size="14" font-weight="bold" lengthAdjust="spacing" textLength="4" x="393.5" y="19.1318">&#160;</text><text fill="#000000" font-family="Arial" font-size="14" font-weight="bold" lengthAdjust="spacing" textLength="47" x="421.5" y="35.2305">Moped</text><rect fill="#BAC4F7" height="1749.8213" rx="5" ry="5" style="stroke:#181818;stroke-width:0.5;" width="118" x="825" y="6"/><text fill="#000000" font-family="Arial" font-size="14" font-weight="bold" lengthAdjust="spacing" textLength="4" x="828" y="19.1318">&#160;</text><text fill="#000000" font-family="Arial" font-size="14" font-weight="bold" lengthAdjust="spacing" textLength="80" x="844" y="35.2305">SV (&#214;GK,...)</text><rect fill="#F7D0BA" height="1749.8213" rx="5" ry="5" style="stroke:#181818;stroke-width:0.5;" width="238" x="985" y="6"/><text fill="#000000" font-family="Arial" font-size="14" font-weight="bold" lengthAdjust="spacing" textLength="4" x="988" y="19.1318">&#160;</text><text fill="#000000" font-family="Arial" font-size="14" font-weight="bold" lengthAdjust="spacing" textLength="220" x="992" y="35.2305">LGF (Landesgesundheitsfonds)</text><rect fill="#FCB3B3" height="1749.8213" rx="5" ry="5" style="stroke:#181818;stroke-width:0.5;" width="107" x="1265" y="6"/><text fill="#000000" font-family="Arial" font-size="14" font-weight="bold" lengthAdjust="spacing" textLength="4" x="1268" y="19.1318">&#160;</text><text fill="#000000" font-family="Arial" font-size="14" font-weight="bold" lengthAdjust="spacing" textLength="37" x="1300" y="35.2305">Bund</text><rect fill="none" height="270.4854" rx="5" ry="5" style="stroke:#111827;stroke-width:1.0;" width="1242" x="14" y="823.4126"/><line style="stroke:#181818;stroke-width:0.5;stroke-dasharray:5.0,5.0;" x1="163.5" x2="163.5" y1="118.2959" y2="1676.7227"/><line style="stroke:#181818;stroke-width:0.5;stroke-dasharray:5.0,5.0;" x1="445" x2="445" y1="118.2959" y2="1676.7227"/><line style="stroke:#181818;stroke-width:0.5;stroke-dasharray:5.0,5.0;" x1="883.5" x2="883.5" y1="118.2959" y2="1676.7227"/><line style="stroke:#181818;stroke-width:0.5;stroke-dasharray:5.0,5.0;" x1="1103.5" x2="1103.5" y1="118.2959" y2="1676.7227"/><line style="stroke:#181818;stroke-width:0.5;stroke-dasharray:5.0,5.0;" x1="1318" x2="1318" y1="118.2959" y2="1676.7227"/><text fill="#000000" font-family="Arial" font-size="14" lengthAdjust="spacing" textLength="19" x="151.5" y="115.3291">KH</text><ellipse cx="164" cy="50.6973" fill="#E2E2F0" rx="8" ry="8" style="stroke:#181818;stroke-width:0.5;"/><path d="M164,58.6973 L164,85.6973 M151,66.6973 L177,66.6973 M164,85.6973 L151,100.6973 M164,85.6973 L177,100.6973 " fill="none" style="stroke:#181818;stroke-width:0.5;"/><text fill="#000000" font-family="Arial" font-size="14" lengthAdjust="spacing" textLength="19" x="151.5" y="1688.8545">KH</text><ellipse cx="164" cy="1700.3213" fill="#E2E2F0" rx="8" ry="8" style="stroke:#181818;stroke-width:0.5;"/><path d="M164,1708.3213 L164,1735.3213 M151,1716.3213 L177,1716.3213 M164,1735.3213 L151,1750.3213 M164,1735.3213 L177,1750.3213 " fill="none" style="stroke:#181818;stroke-width:0.5;"/><rect fill="#FFFFFF" height="30.0986" rx="5" ry="5" style="stroke:#555555;stroke-width:0.5;" width="58" x="416" y="87.1973"/><text fill="#000000" font-family="Arial" font-size="14" lengthAdjust="spacing" textLength="44" x="423" y="107.3291">Moped</text><rect fill="#FFFFFF" height="30.0986" rx="5" ry="5" style="stroke:#555555;stroke-width:0.5;" width="58" x="416" y="1675.7227"/><text fill="#000000" font-family="Arial" font-size="14" lengthAdjust="spacing" textLength="44" x="423" y="1695.8545">Moped</text><text fill="#000000" font-family="Arial" font-size="14" lengthAdjust="spacing" textLength="63" x="849.5" y="115.3291">SV (&#214;GK)</text><ellipse cx="884" cy="50.6973" fill="#E2E2F0" rx="8" ry="8" style="stroke:#181818;stroke-width:0.5;"/><path d="M884,58.6973 L884,85.6973 M871,66.6973 L897,66.6973 M884,85.6973 L871,100.6973 M884,85.6973 L897,100.6973 " fill="none" style="stroke:#181818;stroke-width:0.5;"/><text fill="#000000" font-family="Arial" font-size="14" lengthAdjust="spacing" textLength="63" x="849.5" y="1688.8545">SV (&#214;GK)</text><ellipse cx="884" cy="1700.3213" fill="#E2E2F0" rx="8" ry="8" style="stroke:#181818;stroke-width:0.5;"/><path d="M884,1708.3213 L884,1735.3213 M871,1716.3213 L897,1716.3213 M884,1735.3213 L871,1750.3213 M884,1735.3213 L897,1750.3213 " fill="none" style="stroke:#181818;stroke-width:0.5;"/><text fill="#000000" font-family="Arial" font-size="14" lengthAdjust="spacing" textLength="201" x="1000.5" y="115.3291">LGF (Landesgesundheitsfonds)</text><ellipse cx="1104" cy="50.6973" fill="#E2E2F0" rx="8" ry="8" style="stroke:#181818;stroke-width:0.5;"/><path d="M1104,58.6973 L1104,85.6973 M1091,66.6973 L1117,66.6973 M1104,85.6973 L1091,100.6973 M1104,85.6973 L1117,100.6973 " fill="none" style="stroke:#181818;stroke-width:0.5;"/><text fill="#000000" font-family="Arial" font-size="14" lengthAdjust="spacing" textLength="201" x="1000.5" y="1688.8545">LGF (Landesgesundheitsfonds)</text><ellipse cx="1104" cy="1700.3213" fill="#E2E2F0" rx="8" ry="8" style="stroke:#181818;stroke-width:0.5;"/><path d="M1104,1708.3213 L1104,1735.3213 M1091,1716.3213 L1117,1716.3213 M1104,1735.3213 L1091,1750.3213 M1104,1735.3213 L1117,1750.3213 " fill="none" style="stroke:#181818;stroke-width:0.5;"/><text fill="#000000" font-family="Arial" font-size="14" lengthAdjust="spacing" textLength="33" x="1299" y="115.3291">Bund</text><ellipse cx="1318.5" cy="50.6973" fill="#E2E2F0" rx="8" ry="8" style="stroke:#181818;stroke-width:0.5;"/><path d="M1318.5,58.6973 L1318.5,85.6973 M1305.5,66.6973 L1331.5,66.6973 M1318.5,85.6973 L1305.5,100.6973 M1318.5,85.6973 L1331.5,100.6973 " fill="none" style="stroke:#181818;stroke-width:0.5;"/><text fill="#000000" font-family="Arial" font-size="14" lengthAdjust="spacing" textLength="33" x="1299" y="1688.8545">Bund</text><ellipse cx="1318.5" cy="1700.3213" fill="#E2E2F0" rx="8" ry="8" style="stroke:#181818;stroke-width:0.5;"/><path d="M1318.5,1708.3213 L1318.5,1735.3213 M1305.5,1716.3213 L1331.5,1716.3213 M1318.5,1735.3213 L1305.5,1750.3213 M1318.5,1735.3213 L1331.5,1750.3213 " fill="none" style="stroke:#181818;stroke-width:0.5;"/><line style="stroke:#111827;stroke-width:2.0;" x1="443" x2="433" y1="149.2446" y2="145.2446"/><line style="stroke:#111827;stroke-width:2.0;" x1="443" x2="433" y1="149.2446" y2="153.2446"/><line style="stroke:#111827;stroke-width:2.0;" x1="164" x2="444" y1="149.2446" y2="149.2446"/><text fill="#000000" font-family="Arial" font-size="13" font-weight="bold" lengthAdjust="spacing" textLength="7" x="171" y="144.4897">1</text><text fill="#000000" font-family="Arial" font-size="13" lengthAdjust="spacing" textLength="4" x="178" y="144.4897">&#160;</text><a href="OperationDefinition-MOPED.Patient.Aufnehmen.html" target="_top" title="OperationDefinition-MOPED.Patient.Aufnehmen.html" xlink:actuate="onRequest" xlink:href="OperationDefinition-MOPED.Patient.Aufnehmen.html" xlink:show="new" xlink:title="OperationDefinition-MOPED.Patient.Aufnehmen.html" xlink:type="simple"><text fill="#0000EE" font-family="Arial" font-size="13" lengthAdjust="spacing" textLength="71" x="182" y="144.4897">$aufnehmen</text></a><path d="M19,167.2446 L19,215.2446 A5,5 0 0 0 24,220.2446 L301,220.2446 A5,5 0 0 0 306,215.2446 L306,172.2446 L296,162.2446 L24,162.2446 A5,5 0 0 0 19,167.2446 " fill="url(#gk54b7htfq8vn0)" filter="url(#fk54b7htfq8vn)" style="stroke:#8B95A5;stroke-width:1.0;"/><path d="M296,162.2446 L296,169.7446 A2.5,2.5 0 0 0 298.5,172.2446 L306,172.2446 L296,162.2446 " fill="url(#gk54b7htfq8vn0)" style="stroke:#8B95A5;stroke-width:1.0;"/><text fill="#111827" font-family="Arial" font-size="14" lengthAdjust="spacing" textLength="223" x="25" y="180.3765">Patientin Amanda Ambulant kommt</text><text fill="#111827" font-family="Arial" font-size="14" lengthAdjust="spacing" textLength="258" x="29" y="196.4751">in die Unfallambulanz und die &#214;GK Wien</text><text fill="#111827" font-family="Arial" font-size="14" lengthAdjust="spacing" textLength="259" x="25" y="212.5737">wird als zust&#228;ndige Versicherung gesetzt</text><line style="stroke:#111827;stroke-width:2.0;" x1="443" x2="433" y1="249.4893" y2="245.4893"/><line style="stroke:#111827;stroke-width:2.0;" x1="443" x2="433" y1="249.4893" y2="253.4893"/><line style="stroke:#111827;stroke-width:2.0;" x1="164" x2="444" y1="249.4893" y2="249.4893"/><text fill="#000000" font-family="Arial" font-size="13" font-weight="bold" lengthAdjust="spacing" textLength="7" x="171" y="244.7344">2</text><text fill="#000000" font-family="Arial" font-size="13" lengthAdjust="spacing" textLength="4" x="178" y="244.7344">&#160;</text><a href="OperationDefinition-MOPED.VAERequest.Anfragen.html" target="_top" title="OperationDefinition-MOPED.VAERequest.Anfragen.html" xlink:actuate="onRequest" xlink:href="OperationDefinition-MOPED.VAERequest.Anfragen.html" xlink:show="new" xlink:title="OperationDefinition-MOPED.VAERequest.Anfragen.html" xlink:type="simple"><text fill="#0000EE" font-family="Arial" font-size="13" lengthAdjust="spacing" textLength="57" x="182" y="244.7344">$anfragen</text></a><path d="M5,267.4893 L5,283.4893 A5,5 0 0 0 10,288.4893 L316,288.4893 A5,5 0 0 0 321,283.4893 L321,272.4893 L311,262.4893 L10,262.4893 A5,5 0 0 0 5,267.4893 " fill="url(#gk54b7htfq8vn0)" filter="url(#fk54b7htfq8vn)" style="stroke:#8B95A5;stroke-width:1.0;"/><path d="M311,262.4893 L311,269.9893 A2.5,2.5 0 0 0 313.5,272.4893 L321,272.4893 L311,262.4893 " fill="url(#gk54b7htfq8vn0)" style="stroke:#8B95A5;stroke-width:1.0;"/><text fill="#111827" font-family="Arial" font-size="14" lengthAdjust="spacing" textLength="295" x="11" y="280.6211">Anfrage auf Versicherungsanspruchserkl&#228;rung</text><line style="stroke:#111827;stroke-width:2.0;" x1="446" x2="456" y1="332.4854" y2="328.4854"/><line style="stroke:#111827;stroke-width:2.0;" x1="446" x2="456" y1="332.4854" y2="336.4854"/><line style="stroke:#111827;stroke-width:2.0;" x1="445" x2="883" y1="332.4854" y2="332.4854"/><text fill="#000000" font-family="Arial" font-size="13" font-weight="bold" lengthAdjust="spacing" textLength="14" x="462" y="312.7817">3a</text><text fill="#000000" font-family="Arial" font-size="13" lengthAdjust="spacing" textLength="280" x="480" y="312.7817">GET Claim?status=active&amp;use=preauthorization</text><text fill="#000000" font-family="Arial" font-size="13" lengthAdjust="spacing" textLength="284" x="462" y="327.7305">&amp;_has:ClaimResponse:request:status:not=active</text><path d="M783,350.4854 L783,382.4854 A5,5 0 0 0 788,387.4854 L976,387.4854 A5,5 0 0 0 981,382.4854 L981,355.4854 L971,345.4854 L788,345.4854 A5,5 0 0 0 783,350.4854 " fill="url(#gk54b7htfq8vn0)" filter="url(#fk54b7htfq8vn)" style="stroke:#8B95A5;stroke-width:1.0;"/><path d="M971,345.4854 L971,352.9854 A2.5,2.5 0 0 0 973.5,355.4854 L981,355.4854 L971,345.4854 " fill="url(#gk54b7htfq8vn0)" style="stroke:#8B95A5;stroke-width:1.0;"/><text fill="#111827" font-family="Arial" font-size="14" lengthAdjust="spacing" textLength="173" x="789" y="363.6172">alle offenen VAEs abfragen</text><text fill="#111827" font-family="Arial" font-size="14" lengthAdjust="spacing" textLength="136" x="789" y="379.7158">und intern bearbeiten</text><line style="stroke:#111827;stroke-width:2.0;" x1="446" x2="456" y1="416.6313" y2="412.6313"/><line style="stroke:#111827;stroke-width:2.0;" x1="446" x2="456" y1="416.6313" y2="420.6313"/><line style="stroke:#111827;stroke-width:2.0;" x1="445" x2="883" y1="416.6313" y2="416.6313"/><text fill="#000000" font-family="Arial" font-size="13" font-weight="bold" lengthAdjust="spacing" textLength="15" x="462" y="411.8765">3b</text><text fill="#000000" font-family="Arial" font-size="13" lengthAdjust="spacing" textLength="4" x="477" y="411.8765">&#160;</text><a href="OperationDefinition-MOPED.Auf.Request.Antworten.html" target="_top" title="OperationDefinition-MOPED.Auf.Request.Antworten.html" xlink:actuate="onRequest" xlink:href="OperationDefinition-MOPED.Auf.Request.Antworten.html" xlink:show="new" xlink:title="OperationDefinition-MOPED.Auf.Request.Antworten.html" xlink:type="simple"><text fill="#0000EE" font-family="Arial" font-size="13" lengthAdjust="spacing" textLength="63" x="481" y="411.8765">$antworten</text></a><text fill="#000000" font-family="Arial" font-size="13" lengthAdjust="spacing" textLength="64" x="548" y="411.8765">(Status 00)</text><path d="M793,434.6313 L793,466.6313 A5,5 0 0 0 798,471.6313 L967,471.6313 A5,5 0 0 0 972,466.6313 L972,439.6313 L962,429.6313 L798,429.6313 A5,5 0 0 0 793,434.6313 " fill="url(#gk54b7htfq8vn0)" filter="url(#fk54b7htfq8vn)" style="stroke:#8B95A5;stroke-width:1.0;"/><path d="M962,429.6313 L962,437.1313 A2.5,2.5 0 0 0 964.5,439.6313 L972,439.6313 L962,429.6313 " fill="url(#gk54b7htfq8vn0)" style="stroke:#8B95A5;stroke-width:1.0;"/><text fill="#111827" font-family="Arial" font-size="14" lengthAdjust="spacing" textLength="154" x="799" y="447.7632">Fall&#252;bernahme best&#228;tigt</text><text fill="#111827" font-family="Arial" font-size="14" lengthAdjust="spacing" textLength="70" x="799" y="463.8618">(Status 00)</text><line style="stroke:#111827;stroke-width:2.0;" x1="443" x2="433" y1="500.7773" y2="496.7773"/><line style="stroke:#111827;stroke-width:2.0;" x1="443" x2="433" y1="500.7773" y2="504.7773"/><line style="stroke:#111827;stroke-width:2.0;" x1="164" x2="444" y1="500.7773" y2="500.7773"/><text fill="#000000" font-family="Arial" font-size="13" font-weight="bold" lengthAdjust="spacing" textLength="14" x="171" y="496.0225">4a</text><text fill="#000000" font-family="Arial" font-size="13" lengthAdjust="spacing" textLength="146" x="189" y="496.0225">GET Composition?id={id}</text><path d="M40,518.7773 L40,550.7773 A5,5 0 0 0 45,555.7773 L280,555.7773 A5,5 0 0 0 285,550.7773 L285,523.7773 L275,513.7773 L45,513.7773 A5,5 0 0 0 40,518.7773 " fill="url(#gk54b7htfq8vn0)" filter="url(#fk54b7htfq8vn)" style="stroke:#8B95A5;stroke-width:1.0;"/><path d="M275,513.7773 L275,521.2773 A2.5,2.5 0 0 0 277.5,523.7773 L285,523.7773 L275,513.7773 " fill="url(#gk54b7htfq8vn0)" style="stroke:#8B95A5;stroke-width:1.0;"/><text fill="#111827" font-family="Arial" font-size="14" lengthAdjust="spacing" textLength="220" x="46" y="531.9092">aktuellen Stand des Falls abfragen</text><text fill="#111827" font-family="Arial" font-size="14" lengthAdjust="spacing" textLength="132" x="46" y="548.0078">(inkl. best&#228;tigte VAE)</text><line style="stroke:#111827;stroke-width:2.0;" x1="443" x2="433" y1="584.9233" y2="580.9233"/><line style="stroke:#111827;stroke-width:2.0;" x1="443" x2="433" y1="584.9233" y2="588.9233"/><line style="stroke:#111827;stroke-width:2.0;" x1="164" x2="444" y1="584.9233" y2="584.9233"/><text fill="#000000" font-family="Arial" font-size="13" font-weight="bold" lengthAdjust="spacing" textLength="15" x="171" y="580.1685">4b</text><text fill="#000000" font-family="Arial" font-size="13" lengthAdjust="spacing" textLength="4" x="186" y="580.1685">&#160;</text><a href="OperationDefinition-MOPED.Daten.Update.html" target="_top" title="OperationDefinition-MOPED.Daten.Update.html" xlink:actuate="onRequest" xlink:href="OperationDefinition-MOPED.Daten.Update.html" xlink:show="new" xlink:title="OperationDefinition-MOPED.Daten.Update.html" xlink:type="simple"><text fill="#0000EE" font-family="Arial" font-size="13" lengthAdjust="spacing" textLength="46" x="190" y="580.1685">$update</text></a><path d="M58,602.9233 L58,634.9233 A5,5 0 0 0 63,639.9233 L262,639.9233 A5,5 0 0 0 267,634.9233 L267,607.9233 L257,597.9233 L63,597.9233 A5,5 0 0 0 58,602.9233 " fill="url(#gk54b7htfq8vn0)" filter="url(#fk54b7htfq8vn)" style="stroke:#8B95A5;stroke-width:1.0;"/><path d="M257,597.9233 L257,605.4233 A2.5,2.5 0 0 0 259.5,607.9233 L267,607.9233 L257,597.9233 " fill="url(#gk54b7htfq8vn0)" style="stroke:#8B95A5;stroke-width:1.0;"/><text fill="#111827" font-family="Arial" font-size="14" lengthAdjust="spacing" textLength="180" x="64" y="616.0552">Kontakt mit der Abteilung f&#252;r</text><text fill="#111827" font-family="Arial" font-size="14" lengthAdjust="spacing" textLength="135" x="64" y="632.1538">Radiologie (R&#246;ntgen)</text><line style="stroke:#111827;stroke-width:2.0;" x1="443" x2="433" y1="669.0693" y2="665.0693"/><line style="stroke:#111827;stroke-width:2.0;" x1="443" x2="433" y1="669.0693" y2="673.0693"/><line style="stroke:#111827;stroke-width:2.0;" x1="164" x2="444" y1="669.0693" y2="669.0693"/><text fill="#000000" font-family="Arial" font-size="13" font-weight="bold" lengthAdjust="spacing" textLength="7" x="171" y="664.3145">5</text><text fill="#000000" font-family="Arial" font-size="13" lengthAdjust="spacing" textLength="4" x="178" y="664.3145">&#160;</text><a href="OperationDefinition-MOPED.Daten.Update.html" target="_top" title="OperationDefinition-MOPED.Daten.Update.html" xlink:actuate="onRequest" xlink:href="OperationDefinition-MOPED.Daten.Update.html" xlink:show="new" xlink:title="OperationDefinition-MOPED.Daten.Update.html" xlink:type="simple"><text fill="#0000EE" font-family="Arial" font-size="13" lengthAdjust="spacing" textLength="46" x="182" y="664.3145">$update</text></a><path d="M10,687.0693 L10,719.0693 A5,5 0 0 0 15,724.0693 L310,724.0693 A5,5 0 0 0 315,719.0693 L315,692.0693 L305,682.0693 L15,682.0693 A5,5 0 0 0 10,687.0693 " fill="url(#gk54b7htfq8vn0)" filter="url(#fk54b7htfq8vn)" style="stroke:#8B95A5;stroke-width:1.0;"/><path d="M305,682.0693 L305,689.5693 A2.5,2.5 0 0 0 307.5,692.0693 L315,692.0693 L305,682.0693 " fill="url(#gk54b7htfq8vn0)" style="stroke:#8B95A5;stroke-width:1.0;"/><text fill="#111827" font-family="Arial" font-size="14" lengthAdjust="spacing" textLength="276" x="16" y="700.2012">Diagnose &#8222;gebrochenes Schl&#252;sselbein" und</text><text fill="#111827" font-family="Arial" font-size="14" lengthAdjust="spacing" textLength="248" x="16" y="716.2998">eine erbrachte Leistung werden erfasst</text><line style="stroke:#111827;stroke-width:2.0;" x1="443" x2="433" y1="753.2153" y2="749.2153"/><line style="stroke:#111827;stroke-width:2.0;" x1="443" x2="433" y1="753.2153" y2="757.2153"/><line style="stroke:#111827;stroke-width:2.0;" x1="164" x2="444" y1="753.2153" y2="753.2153"/><text fill="#000000" font-family="Arial" font-size="13" font-weight="bold" lengthAdjust="spacing" textLength="7" x="171" y="748.4604">6</text><text fill="#000000" font-family="Arial" font-size="13" lengthAdjust="spacing" textLength="4" x="178" y="748.4604">&#160;</text><a href="OperationDefinition-MOPED.Daten.Update.html" target="_top" title="OperationDefinition-MOPED.Daten.Update.html" xlink:actuate="onRequest" xlink:href="OperationDefinition-MOPED.Daten.Update.html" xlink:show="new" xlink:title="OperationDefinition-MOPED.Daten.Update.html" xlink:type="simple"><text fill="#0000EE" font-family="Arial" font-size="13" lengthAdjust="spacing" textLength="46" x="182" y="748.4604">$update</text></a><path d="M16,771.2153 L16,803.2153 A5,5 0 0 0 21,808.2153 L303,808.2153 A5,5 0 0 0 308,803.2153 L308,776.2153 L298,766.2153 L21,766.2153 A5,5 0 0 0 16,771.2153 " fill="url(#gk54b7htfq8vn0)" filter="url(#fk54b7htfq8vn)" style="stroke:#8B95A5;stroke-width:1.0;"/><path d="M298,766.2153 L298,773.7153 A2.5,2.5 0 0 0 300.5,776.2153 L308,776.2153 L298,766.2153 " fill="url(#gk54b7htfq8vn0)" style="stroke:#8B95A5;stroke-width:1.0;"/><text fill="#111827" font-family="Arial" font-size="14" lengthAdjust="spacing" textLength="263" x="22" y="784.3472">Restliche Falldaten f&#252;r Amanda Ambulant</text><text fill="#111827" font-family="Arial" font-size="14" lengthAdjust="spacing" textLength="99" x="26" y="800.4458">werden erg&#228;nzt</text><path d="M19,823.4126 L90,823.4126 L90,831.5112 L80,841.5112 L14,841.5112 L14,828.4126 A5,5 0 0 1 19,823.4126 " fill="#F3F4F6" style="stroke:#111827;stroke-width:1.5;"/><rect fill="none" height="270.4854" rx="5" ry="5" style="stroke:#111827;stroke-width:1.0;" width="1242" x="14" y="823.4126"/><text fill="#000000" font-family="Arial" font-size="14" font-weight="bold" lengthAdjust="spacing" textLength="31" x="29" y="837.5444">loop</text><text fill="#000000" font-family="Arial" font-size="14" font-weight="bold" lengthAdjust="spacing" textLength="5" x="105" y="838.5444">[</text><a href="OperationDefinition-MOPED.Encounter.Abrechnen.html" target="_top" title="OperationDefinition-MOPED.Encounter.Abrechnen.html" xlink:actuate="onRequest" xlink:href="OperationDefinition-MOPED.Encounter.Abrechnen.html" xlink:show="new" xlink:title="OperationDefinition-MOPED.Encounter.Abrechnen.html" xlink:type="simple"><text fill="#0000EE" font-family="Arial" font-size="14" font-weight="bold" lengthAdjust="spacing" textLength="81" x="110" y="838.5444">$abrechnen</text></a><text fill="#000000" font-family="Arial" font-size="14" font-weight="bold" lengthAdjust="spacing" textLength="4" x="195" y="838.5444">/</text><a href="OperationDefinition-MOPED.Abrechnung.Genehmigen.html" target="_top" title="OperationDefinition-MOPED.Abrechnung.Genehmigen.html" xlink:actuate="onRequest" xlink:href="OperationDefinition-MOPED.Abrechnung.Genehmigen.html" xlink:show="new" xlink:title="OperationDefinition-MOPED.Abrechnung.Genehmigen.html" xlink:type="simple"><text fill="#0000EE" font-family="Arial" font-size="14" font-weight="bold" lengthAdjust="spacing" textLength="93" x="203" y="838.5444">$genehmigen</text></a><text fill="#000000" font-family="Arial" font-size="14" font-weight="bold" lengthAdjust="spacing" textLength="76" x="300" y="838.5444">(vorl&#228;ufig)]</text><line style="stroke:#111827;stroke-width:2.0;" x1="443" x2="433" y1="863.5586" y2="859.5586"/><line style="stroke:#111827;stroke-width:2.0;" x1="443" x2="433" y1="863.5586" y2="867.5586"/><line style="stroke:#111827;stroke-width:2.0;" x1="164" x2="444" y1="863.5586" y2="863.5586"/><text fill="#000000" font-family="Arial" font-size="13" font-weight="bold" lengthAdjust="spacing" textLength="7" x="171" y="858.8037">7</text><text fill="#000000" font-family="Arial" font-size="13" lengthAdjust="spacing" textLength="4" x="178" y="858.8037">&#160;</text><a href="OperationDefinition-MOPED.Encounter.Abrechnen.html" target="_top" title="OperationDefinition-MOPED.Encounter.Abrechnen.html" xlink:actuate="onRequest" xlink:href="OperationDefinition-MOPED.Encounter.Abrechnen.html" xlink:show="new" xlink:title="OperationDefinition-MOPED.Encounter.Abrechnen.html" xlink:type="simple"><text fill="#0000EE" font-family="Arial" font-size="13" lengthAdjust="spacing" textLength="67" x="182" y="858.8037">$abrechnen</text></a><path d="M24,881.5586 L24,897.5586 A5,5 0 0 0 29,902.5586 L296,902.5586 A5,5 0 0 0 301,897.5586 L301,886.5586 L291,876.5586 L29,876.5586 A5,5 0 0 0 24,881.5586 " fill="url(#gk54b7htfq8vn0)" filter="url(#fk54b7htfq8vn)" style="stroke:#8B95A5;stroke-width:1.0;"/><path d="M291,876.5586 L291,884.0586 A2.5,2.5 0 0 0 293.5,886.5586 L301,886.5586 L291,876.5586 " fill="url(#gk54b7htfq8vn0)" style="stroke:#8B95A5;stroke-width:1.0;"/><text fill="#111827" font-family="Arial" font-size="14" lengthAdjust="spacing" textLength="256" x="30" y="894.6904">Abrechnung aller Leistungen eingereicht</text><line style="stroke:#111827;stroke-width:2.0;" x1="446" x2="456" y1="946.5547" y2="942.5547"/><line style="stroke:#111827;stroke-width:2.0;" x1="446" x2="456" y1="946.5547" y2="950.5547"/><line style="stroke:#111827;stroke-width:2.0;" x1="445" x2="1103" y1="946.5547" y2="946.5547"/><text fill="#000000" font-family="Arial" font-size="13" font-weight="bold" lengthAdjust="spacing" textLength="14" x="462" y="926.8511">8a</text><text fill="#000000" font-family="Arial" font-size="13" lengthAdjust="spacing" textLength="219" x="480" y="926.8511">GET Claim?status=active&amp;use=claim</text><text fill="#000000" font-family="Arial" font-size="13" lengthAdjust="spacing" textLength="284" x="462" y="941.7998">&amp;_has:ClaimResponse:request:status:not=active</text><path d="M961,964.5547 L961,996.5547 A5,5 0 0 0 966,1001.5547 L1238,1001.5547 A5,5 0 0 0 1243,996.5547 L1243,969.5547 L1233,959.5547 L966,959.5547 A5,5 0 0 0 961,964.5547 " fill="url(#gk54b7htfq8vn0)" filter="url(#fk54b7htfq8vn)" style="stroke:#8B95A5;stroke-width:1.0;"/><path d="M1233,959.5547 L1233,967.0547 A2.5,2.5 0 0 0 1235.5,969.5547 L1243,969.5547 L1233,959.5547 " fill="url(#gk54b7htfq8vn0)" style="stroke:#8B95A5;stroke-width:1.0;"/><text fill="#111827" font-family="Arial" font-size="14" lengthAdjust="spacing" textLength="257" x="967" y="977.6865">unbeantwortete Abrechnungen abfragen</text><text fill="#111827" font-family="Arial" font-size="14" lengthAdjust="spacing" textLength="136" x="967" y="993.7852">und intern bearbeiten</text><line style="stroke:#111827;stroke-width:2.0;" x1="446" x2="456" y1="1030.7007" y2="1026.7007"/><line style="stroke:#111827;stroke-width:2.0;" x1="446" x2="456" y1="1030.7007" y2="1034.7007"/><line style="stroke:#111827;stroke-width:2.0;" x1="445" x2="1103" y1="1030.7007" y2="1030.7007"/><text fill="#000000" font-family="Arial" font-size="13" font-weight="bold" lengthAdjust="spacing" textLength="15" x="462" y="1025.9458">8b</text><text fill="#000000" font-family="Arial" font-size="13" lengthAdjust="spacing" textLength="4" x="477" y="1025.9458">&#160;</text><a href="OperationDefinition-MOPED.Abrechnung.Genehmigen.html" target="_top" title="OperationDefinition-MOPED.Abrechnung.Genehmigen.html" xlink:actuate="onRequest" xlink:href="OperationDefinition-MOPED.Abrechnung.Genehmigen.html" xlink:show="new" xlink:title="OperationDefinition-MOPED.Abrechnung.Genehmigen.html" xlink:type="simple"><text fill="#0000EE" font-family="Arial" font-size="13" lengthAdjust="spacing" textLength="77" x="481" y="1025.9458">$genehmigen</text></a><path d="M1019,1048.7007 L1019,1080.7007 A5,5 0 0 0 1024,1085.7007 L1181,1085.7007 A5,5 0 0 0 1186,1080.7007 L1186,1053.7007 L1176,1043.7007 L1024,1043.7007 A5,5 0 0 0 1019,1048.7007 " fill="url(#gk54b7htfq8vn0)" filter="url(#fk54b7htfq8vn)" style="stroke:#8B95A5;stroke-width:1.0;"/><path d="M1176,1043.7007 L1176,1051.2007 A2.5,2.5 0 0 0 1178.5,1053.7007 L1186,1053.7007 L1176,1043.7007 " fill="url(#gk54b7htfq8vn0)" style="stroke:#8B95A5;stroke-width:1.0;"/><text fill="#111827" font-family="Arial" font-size="14" lengthAdjust="spacing" textLength="142" x="1025" y="1061.8325">Alle Posten genehmigt</text><text fill="#111827" font-family="Arial" font-size="14" lengthAdjust="spacing" textLength="126" x="1025" y="1077.9312">(keine &#196;nderungen)</text><line style="stroke:#111827;stroke-width:2.0;" x1="443" x2="433" y1="1121.8467" y2="1117.8467"/><line style="stroke:#111827;stroke-width:2.0;" x1="443" x2="433" y1="1121.8467" y2="1125.8467"/><line style="stroke:#111827;stroke-width:2.0;" x1="164" x2="444" y1="1121.8467" y2="1121.8467"/><text fill="#000000" font-family="Arial" font-size="13" font-weight="bold" lengthAdjust="spacing" textLength="14" x="171" y="1117.0918">9a</text><text fill="#000000" font-family="Arial" font-size="13" lengthAdjust="spacing" textLength="146" x="189" y="1117.0918">GET Composition?id={id}</text><path d="M40,1139.8467 L40,1171.8467 A5,5 0 0 0 45,1176.8467 L280,1176.8467 A5,5 0 0 0 285,1171.8467 L285,1144.8467 L275,1134.8467 L45,1134.8467 A5,5 0 0 0 40,1139.8467 " fill="url(#gk54b7htfq8vn0)" filter="url(#fk54b7htfq8vn)" style="stroke:#8B95A5;stroke-width:1.0;"/><path d="M275,1134.8467 L275,1142.3467 A2.5,2.5 0 0 0 277.5,1144.8467 L285,1144.8467 L275,1134.8467 " fill="url(#gk54b7htfq8vn0)" style="stroke:#8B95A5;stroke-width:1.0;"/><text fill="#111827" font-family="Arial" font-size="14" lengthAdjust="spacing" textLength="220" x="46" y="1152.9785">aktuellen Stand des Falls abfragen</text><text fill="#111827" font-family="Arial" font-size="14" lengthAdjust="spacing" textLength="182" x="46" y="1169.0771">(inkl. best&#228;tigte Abrechnung)</text><line style="stroke:#111827;stroke-width:2.0;" x1="443" x2="433" y1="1205.9927" y2="1201.9927"/><line style="stroke:#111827;stroke-width:2.0;" x1="443" x2="433" y1="1205.9927" y2="1209.9927"/><line style="stroke:#111827;stroke-width:2.0;" x1="164" x2="444" y1="1205.9927" y2="1205.9927"/><text fill="#000000" font-family="Arial" font-size="13" font-weight="bold" lengthAdjust="spacing" textLength="15" x="171" y="1201.2378">9b</text><text fill="#000000" font-family="Arial" font-size="13" lengthAdjust="spacing" textLength="24" x="194" y="1201.2378">final</text><a href="OperationDefinition-MOPED.Encounter.Abrechnen.html" target="_top" title="OperationDefinition-MOPED.Encounter.Abrechnen.html" xlink:actuate="onRequest" xlink:href="OperationDefinition-MOPED.Encounter.Abrechnen.html" xlink:show="new" xlink:title="OperationDefinition-MOPED.Encounter.Abrechnen.html" xlink:type="simple"><text fill="#0000EE" font-family="Arial" font-size="13" lengthAdjust="spacing" textLength="67" x="222" y="1201.2378">$abrechnen</text></a><path d="M42,1223.9927 L42,1239.9927 A5,5 0 0 0 47,1244.9927 L277,1244.9927 A5,5 0 0 0 282,1239.9927 L282,1228.9927 L272,1218.9927 L47,1218.9927 A5,5 0 0 0 42,1223.9927 " fill="url(#gk54b7htfq8vn0)" filter="url(#fk54b7htfq8vn)" style="stroke:#8B95A5;stroke-width:1.0;"/><path d="M272,1218.9927 L272,1226.4927 A2.5,2.5 0 0 0 274.5,1228.9927 L282,1228.9927 L272,1218.9927 " fill="url(#gk54b7htfq8vn0)" style="stroke:#8B95A5;stroke-width:1.0;"/><text fill="#111827" font-family="Arial" font-size="14" lengthAdjust="spacing" textLength="219" x="48" y="1237.1245">Finale Abrechnung seitens des KH</text><line style="stroke:#111827;stroke-width:2.0;" x1="446" x2="456" y1="1288.9888" y2="1284.9888"/><line style="stroke:#111827;stroke-width:2.0;" x1="446" x2="456" y1="1288.9888" y2="1292.9888"/><line style="stroke:#111827;stroke-width:2.0;" x1="445" x2="1103" y1="1288.9888" y2="1288.9888"/><text fill="#000000" font-family="Arial" font-size="13" font-weight="bold" lengthAdjust="spacing" textLength="21" x="462" y="1269.2852">10a</text><text fill="#000000" font-family="Arial" font-size="13" lengthAdjust="spacing" textLength="317" x="487" y="1269.2852">GET Claim?status=active&amp;use=claim&amp;endgueltig=true</text><text fill="#000000" font-family="Arial" font-size="13" lengthAdjust="spacing" textLength="284" x="462" y="1284.2339">&amp;_has:ClaimResponse:request:status:not=active</text><path d="M961,1306.9888 L961,1338.9888 A5,5 0 0 0 966,1343.9888 L1238,1343.9888 A5,5 0 0 0 1243,1338.9888 L1243,1311.9888 L1233,1301.9888 L966,1301.9888 A5,5 0 0 0 961,1306.9888 " fill="url(#gk54b7htfq8vn0)" filter="url(#fk54b7htfq8vn)" style="stroke:#8B95A5;stroke-width:1.0;"/><path d="M1233,1301.9888 L1233,1309.4888 A2.5,2.5 0 0 0 1235.5,1311.9888 L1243,1311.9888 L1233,1301.9888 " fill="url(#gk54b7htfq8vn0)" style="stroke:#8B95A5;stroke-width:1.0;"/><text fill="#111827" font-family="Arial" font-size="14" lengthAdjust="spacing" textLength="257" x="967" y="1320.1206">unbeantwortete Abrechnungen abfragen</text><text fill="#111827" font-family="Arial" font-size="14" lengthAdjust="spacing" textLength="136" x="967" y="1336.2192">und intern bearbeiten</text><line style="stroke:#111827;stroke-width:2.0;" x1="446" x2="456" y1="1373.1348" y2="1369.1348"/><line style="stroke:#111827;stroke-width:2.0;" x1="446" x2="456" y1="1373.1348" y2="1377.1348"/><line style="stroke:#111827;stroke-width:2.0;" x1="445" x2="1103" y1="1373.1348" y2="1373.1348"/><text fill="#000000" font-family="Arial" font-size="13" font-weight="bold" lengthAdjust="spacing" textLength="22" x="462" y="1368.3799">10b</text><text fill="#000000" font-family="Arial" font-size="13" lengthAdjust="spacing" textLength="24" x="488" y="1368.3799">final</text><a href="OperationDefinition-MOPED.Abrechnung.Genehmigen.html" target="_top" title="OperationDefinition-MOPED.Abrechnung.Genehmigen.html" xlink:actuate="onRequest" xlink:href="OperationDefinition-MOPED.Abrechnung.Genehmigen.html" xlink:show="new" xlink:title="OperationDefinition-MOPED.Abrechnung.Genehmigen.html" xlink:type="simple"><text fill="#0000EE" font-family="Arial" font-size="13" lengthAdjust="spacing" textLength="77" x="516" y="1368.3799">$genehmigen</text></a><path d="M1009,1391.1348 L1009,1423.1348 A5,5 0 0 0 1014,1428.1348 L1190,1428.1348 A5,5 0 0 0 1195,1423.1348 L1195,1396.1348 L1185,1386.1348 L1014,1386.1348 A5,5 0 0 0 1009,1391.1348 " fill="url(#gk54b7htfq8vn0)" filter="url(#fk54b7htfq8vn)" style="stroke:#8B95A5;stroke-width:1.0;"/><path d="M1185,1386.1348 L1185,1393.6348 A2.5,2.5 0 0 0 1187.5,1396.1348 L1195,1396.1348 L1185,1386.1348 " fill="url(#gk54b7htfq8vn0)" style="stroke:#8B95A5;stroke-width:1.0;"/><text fill="#111827" font-family="Arial" font-size="14" lengthAdjust="spacing" textLength="157" x="1015" y="1404.2666">Endg&#252;ltige Entscheidung</text><text fill="#111827" font-family="Arial" font-size="14" lengthAdjust="spacing" textLength="101" x="1015" y="1420.3652">zur Abrechnung</text><path d="M997,1446.332 L997,1478.332 A5,5 0 0 0 1002,1483.332 L1203,1483.332 A5,5 0 0 0 1208,1478.332 L1208,1451.332 L1198,1441.332 L1002,1441.332 A5,5 0 0 0 997,1446.332 " fill="url(#gk54b7htfq8vn0)" filter="url(#fk54b7htfq8vn)" style="stroke:#8B95A5;stroke-width:1.0;"/><path d="M1198,1441.332 L1198,1448.832 A2.5,2.5 0 0 0 1200.5,1451.332 L1208,1451.332 L1198,1441.332 " fill="url(#gk54b7htfq8vn0)" style="stroke:#8B95A5;stroke-width:1.0;"/><text fill="#111827" font-family="Arial" font-size="14" lengthAdjust="spacing" textLength="182" x="1003" y="1459.4639">Kosteninformationen werden</text><text fill="#111827" font-family="Arial" font-size="14" lengthAdjust="spacing" textLength="135" x="1003" y="1475.5625">im Datensatz erg&#228;nzt</text><line style="stroke:#111827;stroke-width:2.0;" x1="446" x2="456" y1="1512.478" y2="1508.478"/><line style="stroke:#111827;stroke-width:2.0;" x1="446" x2="456" y1="1512.478" y2="1516.478"/><line style="stroke:#111827;stroke-width:2.0;" x1="445" x2="883" y1="1512.478" y2="1512.478"/><text fill="#000000" font-family="Arial" font-size="13" font-weight="bold" lengthAdjust="spacing" textLength="14" x="462" y="1507.7231">11</text><text fill="#000000" font-family="Arial" font-size="13" lengthAdjust="spacing" textLength="375" x="480" y="1507.7231">GET ClaimResponse?status=active&amp;use=claim&amp;endgueltig=true</text><path d="M788,1530.478 L788,1546.478 A5,5 0 0 0 793,1551.478 L972,1551.478 A5,5 0 0 0 977,1546.478 L977,1535.478 L967,1525.478 L793,1525.478 A5,5 0 0 0 788,1530.478 " fill="url(#gk54b7htfq8vn0)" filter="url(#fk54b7htfq8vn)" style="stroke:#8B95A5;stroke-width:1.0;"/><path d="M967,1525.478 L967,1532.978 A2.5,2.5 0 0 0 969.5,1535.478 L977,1535.478 L967,1525.478 " fill="url(#gk54b7htfq8vn0)" style="stroke:#8B95A5;stroke-width:1.0;"/><text fill="#111827" font-family="Arial" font-size="14" lengthAdjust="spacing" textLength="168" x="794" y="1543.6099">Kosteninformation abrufen</text><line style="stroke:#111827;stroke-width:2.0;" x1="446" x2="456" y1="1580.5254" y2="1576.5254"/><line style="stroke:#111827;stroke-width:2.0;" x1="446" x2="456" y1="1580.5254" y2="1584.5254"/><line style="stroke:#111827;stroke-width:2.0;" x1="445" x2="1317.5" y1="1580.5254" y2="1580.5254"/><text fill="#000000" font-family="Arial" font-size="13" font-weight="bold" lengthAdjust="spacing" textLength="14" x="462" y="1575.7705">12</text><text fill="#000000" font-family="Arial" font-size="13" lengthAdjust="spacing" textLength="178" x="484" y="1575.7705">GET Composition?status=final</text><path d="M1213,1598.5254 L1213,1614.5254 A5,5 0 0 0 1218,1619.5254 L1415,1619.5254 A5,5 0 0 0 1420,1614.5254 L1420,1603.5254 L1410,1593.5254 L1218,1593.5254 A5,5 0 0 0 1213,1598.5254 " fill="url(#gk54b7htfq8vn0)" filter="url(#fk54b7htfq8vn)" style="stroke:#8B95A5;stroke-width:1.0;"/><path d="M1410,1593.5254 L1410,1601.0254 A2.5,2.5 0 0 0 1412.5,1603.5254 L1420,1603.5254 L1410,1593.5254 " fill="url(#gk54b7htfq8vn0)" style="stroke:#8B95A5;stroke-width:1.0;"/><text fill="#111827" font-family="Arial" font-size="14" lengthAdjust="spacing" textLength="186" x="1219" y="1611.6572">Zugriff auf finale Composition</text><path d="M337,1637.624 L337,1653.624 A5,5 0 0 0 342,1658.624 L544,1658.624 A5,5 0 0 0 549,1653.624 L549,1642.624 L539,1632.624 L342,1632.624 A5,5 0 0 0 337,1637.624 " fill="url(#gk54b7htfq8vn0)" filter="url(#fk54b7htfq8vn)" style="stroke:#8B95A5;stroke-width:1.0;"/><path d="M539,1632.624 L539,1640.124 A2.5,2.5 0 0 0 541.5,1642.624 L549,1642.624 L539,1632.624 " fill="url(#gk54b7htfq8vn0)" style="stroke:#8B95A5;stroke-width:1.0;"/><text fill="#111827" font-family="Arial" font-size="14" lengthAdjust="spacing" textLength="191" x="343" y="1650.7559">Fall f&#252;r Moped abgeschlossen</text><!--SRC=[lLVTRjis5BxtKnouGn43gsidSPCOJGftSHBC_GdYDWFM1GCb7Sc4PT8ZgQPpKM0NUuPTxghFiAlU-Kts93kaP9colJf3YoaNaSZ3m-_xpWzfFUPYoXIRG21LXEexcKe5zrhkgUdbB0l7YPAPY0gBk6F_F0izOf6yvIA1cAKQlPbYcHAeeEqxZJ1cMMhEf30ls0IXtbESfVND5aC-GsZlRvwimlPiX3G8xsi0JrS9O0ixSUl1lQWT7U4ZQ-4BS1WSTLYd77qruk5OeDRGfh4hZz0XVL-oABB4hHSFJRlTFjmzeB5XAOrH6TO- -00lVfsYIhaOUnJw_Kq6hqNaNh0GsDSUVybGX3dJIwOC3_cK2LEXr77FYi5QMDrJDLeNU6rw4PpAn4AMNRkWfvIyNHN63IwrtLqCRTgndCZtsgEXSq8-hN0iFUTJQ-psultuKNMb7zfAP9xATnw3olWcNMk1V0VrdmJ0u09sBb3Du7lK6GmK4sCK8vRf1a3TLWvsZeu810iDhIThfg4-kAZNK4HKXkyyL-vvBgSO5U-qFkp41m6ZzTEbrF3yqdbnffiT3QzXP_x7-U3RPhFPA5nHLU_71oKKCh5E5fQD3OwUdP_1pZD6gQWJOYUY4NAZOocY1Rk3gENGvIwjlVNvkNN_IXoUaY4icSTXi1VibRxTh7LkNpmdjS75WvCJagJxE3XfFtuOdC2RDo-fYfZXKfnYp0MtRm-UlxpidpOlQHY5QVQoME1eWg8vCfCKlc6BxvkRsWlRHkHRjE7gGh622-XDY1AZVq6MsZ2CvMHYW0ZGNCGHNWkgrPJbqpEmWEsmLHT-81zaUiiLiKWrp39jvXz5n1E4QrIQXoDK6MKV2OPcPd9QEQlThQokU_qhsnKq4HEnOicIL_6vHgkm0o9U0Q2Pq5ELXIEDQfpEFzgnsl2w1BF779hp_YluBcLyyaGRPZ9zJ57YR_5-fl5ugf1bPYGLdpcunFl-poEcksx15Ugf51gxAaVSpHrqgNaNJZoam-ikoPNILnoZ80c9gGOMvAJ8iHMP2uDAG81C1PHeA2fuWwtgKIuqb_APMwcCfr_nVNC3EqE755gjnWh4Cy8u_nGG2aOvH4XiS0rFR7Pugy2Fwhudf9nCfNQGdl3e-3sFFgn4YurDXgI30F9cymgrsxIYnGwT6sdJsnsjN8tAfjlLE6MM_UjfHFyB4JBtiPP20-hF10mct10W1Rt084zj4iVpJme8qHMBEFNDXAfWvsh-bp04j8AdynNXd7AM2AaH_lxjpmG39IcZgTN3C1nHSBJ6bB93r5rT4ZQqXokgGB5mH6wU8TV6Ohz5QlU2PcAcjQc4xD5NH4jbO59RT2wEraJaigrs6TjWIam9zGng3gcKqy_Yw8kGJa8gYsOlK1YEn3AX5z-Kq0y_NnQv9MdIF4VR7FcohIJbWAsBjr9HfyXYdZHgjdjxaXribUnkK9tVbGvMudCjGfKXj4hHGOuAIL_ZLjA9L48wtDx1GZl-dzjM5I9jsQLSewvKj12QM48cZ5kxs1hmExIoEyPi4zQUxRENKjjCNDYw1ZPsfJB_tLv97VI6FNxzmZZwFthPabkbXHpbgW0fmTAlaMbLj6VMhRyvtRzjTBJ3FRYe-H5gj-wOM_T9m8HK86R7zcV25noHNvvdLGQvdDlLl7EghK3j4_Fv9yiSwTreQe4yiheIlbccVALNbmvSSd8HIpLneB1iZRIOAjQrNytCh6oLuDy5skrgT1OwtpLAAwV-6XoIMcLqJwdPE-for_p-jbOTnQPEQS-pNTk57xD4yJXsrxCuJq5lBT2zTxc2jd45b9yV-Gy85j15aWu-IUUUgFq3]--></g></svg>