<?xml version="1.0" encoding="us-ascii" standalone="no"?><svg xmlns="http://www.w3.org/2000/svg" xmlns:xlink="http://www.w3.org/1999/xlink" contentStyleType="text/css" height="1728px" preserveAspectRatio="none" style="width:1369px;height:1728px;background:#F5F5F5;" version="1.1" viewBox="0 0 1369 1728" width="1369px" zoomAndPan="magnify"><defs><linearGradient id="gu6rpnaocur5y0" x1="50%" x2="50%" y1="0%" y2="100%"><stop offset="0%" stop-color="#E0E5F0"/><stop offset="100%" stop-color="#D1D9E6"/></linearGradient><filter height="300%" id="fu6rpnaocur5y" width="300%" x="-1" y="-1"><feGaussianBlur result="blurOut" stdDeviation="2.0"/><feColorMatrix in="blurOut" result="blurOut2" type="matrix" values="0 0 0 0 0 0 0 0 0 0 0 0 0 0 0 0 0 0 .4 0"/><feOffset dx="4.0" dy="4.0" in="blurOut2" result="blurOut3"/><feBlend in="SourceGraphic" in2="blurOut3" mode="normal"/></filter></defs><g><rect fill="#F5F5F5" height="1728" style="stroke:none;stroke-width:1.0;" width="1369" x="0" y="0"/><rect fill="#F5E599" height="1716.4741" rx="5" ry="5" style="stroke:#181818;stroke-width:0.5;" width="218" x="83" y="6"/><text fill="#000000" font-family="Arial" font-size="14" font-weight="bold" lengthAdjust="spacing" textLength="4" x="86" y="19.1318">&#160;</text><text fill="#000000" font-family="Arial" font-size="14" font-weight="bold" lengthAdjust="spacing" textLength="196" x="94" y="35.2305">KA (Herz Jesu Krankenhaus)</text><rect fill="#C5F7BA" height="1716.4741" rx="5" ry="5" style="stroke:#181818;stroke-width:0.5;" width="109" x="418.5" y="6"/><text fill="#000000" font-family="Arial" font-size="14" font-weight="bold" lengthAdjust="spacing" textLength="4" x="421.5" y="19.1318">&#160;</text><text fill="#000000" font-family="Arial" font-size="14" font-weight="bold" lengthAdjust="spacing" textLength="47" x="449.5" y="35.2305">Moped</text><rect fill="#BAC4F7" height="1716.4741" rx="5" ry="5" style="stroke:#181818;stroke-width:0.5;" width="118" x="762" y="6"/><text fill="#000000" font-family="Arial" font-size="14" font-weight="bold" lengthAdjust="spacing" textLength="4" x="765" y="19.1318">&#160;</text><text fill="#000000" font-family="Arial" font-size="14" font-weight="bold" lengthAdjust="spacing" textLength="80" x="781" y="35.2305">SV (&#214;GK,...)</text><rect fill="#F7D0BA" height="1716.4741" rx="5" ry="5" style="stroke:#181818;stroke-width:0.5;" width="238" x="922" y="6"/><text fill="#000000" font-family="Arial" font-size="14" font-weight="bold" lengthAdjust="spacing" textLength="4" x="925" y="19.1318">&#160;</text><text fill="#000000" font-family="Arial" font-size="14" font-weight="bold" lengthAdjust="spacing" textLength="220" x="929" y="35.2305">LGF (Landesgesundheitsfonds)</text><rect fill="#FCB3B3" height="1716.4741" rx="5" ry="5" style="stroke:#181818;stroke-width:0.5;" width="107" x="1202" y="6"/><text fill="#000000" font-family="Arial" font-size="14" font-weight="bold" lengthAdjust="spacing" textLength="4" x="1205" y="19.1318">&#160;</text><text fill="#000000" font-family="Arial" font-size="14" font-weight="bold" lengthAdjust="spacing" textLength="37" x="1237" y="35.2305">Bund</text><rect fill="none" height="270.4854" rx="5" ry="5" style="stroke:#111827;stroke-width:1.0;" width="1151" x="42" y="775.1167"/><line style="stroke:#181818;stroke-width:0.5;stroke-dasharray:5.0,5.0;" x1="191.5" x2="191.5" y1="118.2959" y2="1643.3755"/><line style="stroke:#181818;stroke-width:0.5;stroke-dasharray:5.0,5.0;" x1="473" x2="473" y1="118.2959" y2="1643.3755"/><line style="stroke:#181818;stroke-width:0.5;stroke-dasharray:5.0,5.0;" x1="820.5" x2="820.5" y1="118.2959" y2="1643.3755"/><line style="stroke:#181818;stroke-width:0.5;stroke-dasharray:5.0,5.0;" x1="1040.5" x2="1040.5" y1="118.2959" y2="1643.3755"/><line style="stroke:#181818;stroke-width:0.5;stroke-dasharray:5.0,5.0;" x1="1255" x2="1255" y1="118.2959" y2="1643.3755"/><text fill="#000000" font-family="Arial" font-size="14" lengthAdjust="spacing" textLength="19" x="179.5" y="115.3291">KA</text><ellipse cx="192" cy="50.6973" fill="#E2E2F0" rx="8" ry="8" style="stroke:#181818;stroke-width:0.5;"/><path d="M192,58.6973 L192,85.6973 M179,66.6973 L205,66.6973 M192,85.6973 L179,100.6973 M192,85.6973 L205,100.6973 " fill="none" style="stroke:#181818;stroke-width:0.5;"/><text fill="#000000" font-family="Arial" font-size="14" lengthAdjust="spacing" textLength="19" x="179.5" y="1655.5073">KA</text><ellipse cx="192" cy="1666.9741" fill="#E2E2F0" rx="8" ry="8" style="stroke:#181818;stroke-width:0.5;"/><path d="M192,1674.9741 L192,1701.9741 M179,1682.9741 L205,1682.9741 M192,1701.9741 L179,1716.9741 M192,1701.9741 L205,1716.9741 " fill="none" style="stroke:#181818;stroke-width:0.5;"/><rect fill="#FFFFFF" height="30.0986" rx="5" ry="5" style="stroke:#555555;stroke-width:0.5;" width="58" x="444" y="87.1973"/><text fill="#000000" font-family="Arial" font-size="14" lengthAdjust="spacing" textLength="44" x="451" y="107.3291">Moped</text><rect fill="#FFFFFF" height="30.0986" rx="5" ry="5" style="stroke:#555555;stroke-width:0.5;" width="58" x="444" y="1642.3755"/><text fill="#000000" font-family="Arial" font-size="14" lengthAdjust="spacing" textLength="44" x="451" y="1662.5073">Moped</text><text fill="#000000" font-family="Arial" font-size="14" lengthAdjust="spacing" textLength="63" x="786.5" y="115.3291">SV (&#214;GK)</text><ellipse cx="821" cy="50.6973" fill="#E2E2F0" rx="8" ry="8" style="stroke:#181818;stroke-width:0.5;"/><path d="M821,58.6973 L821,85.6973 M808,66.6973 L834,66.6973 M821,85.6973 L808,100.6973 M821,85.6973 L834,100.6973 " fill="none" style="stroke:#181818;stroke-width:0.5;"/><text fill="#000000" font-family="Arial" font-size="14" lengthAdjust="spacing" textLength="63" x="786.5" y="1655.5073">SV (&#214;GK)</text><ellipse cx="821" cy="1666.9741" fill="#E2E2F0" rx="8" ry="8" style="stroke:#181818;stroke-width:0.5;"/><path d="M821,1674.9741 L821,1701.9741 M808,1682.9741 L834,1682.9741 M821,1701.9741 L808,1716.9741 M821,1701.9741 L834,1716.9741 " fill="none" style="stroke:#181818;stroke-width:0.5;"/><text fill="#000000" font-family="Arial" font-size="14" lengthAdjust="spacing" textLength="201" x="937.5" y="115.3291">LGF (Landesgesundheitsfonds)</text><ellipse cx="1041" cy="50.6973" fill="#E2E2F0" rx="8" ry="8" style="stroke:#181818;stroke-width:0.5;"/><path d="M1041,58.6973 L1041,85.6973 M1028,66.6973 L1054,66.6973 M1041,85.6973 L1028,100.6973 M1041,85.6973 L1054,100.6973 " fill="none" style="stroke:#181818;stroke-width:0.5;"/><text fill="#000000" font-family="Arial" font-size="14" lengthAdjust="spacing" textLength="201" x="937.5" y="1655.5073">LGF (Landesgesundheitsfonds)</text><ellipse cx="1041" cy="1666.9741" fill="#E2E2F0" rx="8" ry="8" style="stroke:#181818;stroke-width:0.5;"/><path d="M1041,1674.9741 L1041,1701.9741 M1028,1682.9741 L1054,1682.9741 M1041,1701.9741 L1028,1716.9741 M1041,1701.9741 L1054,1716.9741 " fill="none" style="stroke:#181818;stroke-width:0.5;"/><text fill="#000000" font-family="Arial" font-size="14" lengthAdjust="spacing" textLength="33" x="1236" y="115.3291">Bund</text><ellipse cx="1255.5" cy="50.6973" fill="#E2E2F0" rx="8" ry="8" style="stroke:#181818;stroke-width:0.5;"/><path d="M1255.5,58.6973 L1255.5,85.6973 M1242.5,66.6973 L1268.5,66.6973 M1255.5,85.6973 L1242.5,100.6973 M1255.5,85.6973 L1268.5,100.6973 " fill="none" style="stroke:#181818;stroke-width:0.5;"/><text fill="#000000" font-family="Arial" font-size="14" lengthAdjust="spacing" textLength="33" x="1236" y="1655.5073">Bund</text><ellipse cx="1255.5" cy="1666.9741" fill="#E2E2F0" rx="8" ry="8" style="stroke:#181818;stroke-width:0.5;"/><path d="M1255.5,1674.9741 L1255.5,1701.9741 M1242.5,1682.9741 L1268.5,1682.9741 M1255.5,1701.9741 L1242.5,1716.9741 M1255.5,1701.9741 L1268.5,1716.9741 " fill="none" style="stroke:#181818;stroke-width:0.5;"/><line style="stroke:#111827;stroke-width:2.0;" x1="471" x2="461" y1="149.2446" y2="145.2446"/><line style="stroke:#111827;stroke-width:2.0;" x1="471" x2="461" y1="149.2446" y2="153.2446"/><line style="stroke:#111827;stroke-width:2.0;" x1="192" x2="472" y1="149.2446" y2="149.2446"/><text fill="#000000" font-family="Arial" font-size="13" font-weight="bold" lengthAdjust="spacing" textLength="7" x="199" y="144.4897">1</text><text fill="#000000" font-family="Arial" font-size="13" lengthAdjust="spacing" textLength="4" x="206" y="144.4897">&#160;</text><a href="OperationDefinition-MOPED.Patient.Aufnehmen.html" target="_top" title="OperationDefinition-MOPED.Patient.Aufnehmen.html" xlink:actuate="onRequest" xlink:href="OperationDefinition-MOPED.Patient.Aufnehmen.html" xlink:show="new" xlink:title="OperationDefinition-MOPED.Patient.Aufnehmen.html" xlink:type="simple"><text fill="#0000EE" font-family="Arial" font-size="13" lengthAdjust="spacing" textLength="71" x="210" y="144.4897">$aufnehmen</text></a><path d="M25,167.2446 L25,215.2446 A5,5 0 0 0 30,220.2446 L351,220.2446 A5,5 0 0 0 356,215.2446 L356,172.2446 L346,162.2446 L30,162.2446 A5,5 0 0 0 25,167.2446 " fill="url(#gu6rpnaocur5y0)" filter="url(#fu6rpnaocur5y)" style="stroke:#8B95A5;stroke-width:1.0;"/><path d="M346,162.2446 L346,169.7446 A2.5,2.5 0 0 0 348.5,172.2446 L356,172.2446 L346,162.2446 " fill="url(#gu6rpnaocur5y0)" style="stroke:#8B95A5;stroke-width:1.0;"/><text fill="#111827" font-family="Arial" font-size="14" lengthAdjust="spacing" textLength="306" x="31" y="180.3765">Susi Sonnenschein wird station&#228;r aufgenommen</text><text fill="#111827" font-family="Arial" font-size="14" lengthAdjust="spacing" textLength="170" x="35" y="196.4751">und die &#214;GK Wien wird als</text><text fill="#111827" font-family="Arial" font-size="14" lengthAdjust="spacing" textLength="207" x="31" y="212.5737">zust&#228;ndige Versicherung gesetzt</text><line style="stroke:#111827;stroke-width:2.0;" x1="471" x2="461" y1="249.4893" y2="245.4893"/><line style="stroke:#111827;stroke-width:2.0;" x1="471" x2="461" y1="249.4893" y2="253.4893"/><line style="stroke:#111827;stroke-width:2.0;" x1="192" x2="472" y1="249.4893" y2="249.4893"/><text fill="#000000" font-family="Arial" font-size="13" font-weight="bold" lengthAdjust="spacing" textLength="7" x="199" y="244.7344">2</text><text fill="#000000" font-family="Arial" font-size="13" lengthAdjust="spacing" textLength="4" x="206" y="244.7344">&#160;</text><a href="OperationDefinition-MOPED.VAERequest.Anfragen.html" target="_top" title="OperationDefinition-MOPED.VAERequest.Anfragen.html" xlink:actuate="onRequest" xlink:href="OperationDefinition-MOPED.VAERequest.Anfragen.html" xlink:show="new" xlink:title="OperationDefinition-MOPED.VAERequest.Anfragen.html" xlink:type="simple"><text fill="#0000EE" font-family="Arial" font-size="13" lengthAdjust="spacing" textLength="57" x="210" y="244.7344">$anfragen</text></a><path d="M32,267.4893 L32,283.4893 A5,5 0 0 0 37,288.4893 L343,288.4893 A5,5 0 0 0 348,283.4893 L348,272.4893 L338,262.4893 L37,262.4893 A5,5 0 0 0 32,267.4893 " fill="url(#gu6rpnaocur5y0)" filter="url(#fu6rpnaocur5y)" style="stroke:#8B95A5;stroke-width:1.0;"/><path d="M338,262.4893 L338,269.9893 A2.5,2.5 0 0 0 340.5,272.4893 L348,272.4893 L338,262.4893 " fill="url(#gu6rpnaocur5y0)" style="stroke:#8B95A5;stroke-width:1.0;"/><text fill="#111827" font-family="Arial" font-size="14" lengthAdjust="spacing" textLength="295" x="38" y="280.6211">Anfrage auf Versicherungsanspruchserkl&#228;rung</text><line style="stroke:#111827;stroke-width:2.0;" x1="474" x2="484" y1="332.4854" y2="328.4854"/><line style="stroke:#111827;stroke-width:2.0;" x1="474" x2="484" y1="332.4854" y2="336.4854"/><line style="stroke:#111827;stroke-width:2.0;" x1="473" x2="820" y1="332.4854" y2="332.4854"/><text fill="#000000" font-family="Arial" font-size="13" font-weight="bold" lengthAdjust="spacing" textLength="14" x="490" y="312.7817">3a</text><text fill="#000000" font-family="Arial" font-size="13" lengthAdjust="spacing" textLength="280" x="508" y="312.7817">GET Claim?status=active&amp;use=preauthorization</text><text fill="#000000" font-family="Arial" font-size="13" lengthAdjust="spacing" textLength="284" x="490" y="327.7305">&amp;_has:ClaimResponse:request:status:not=active</text><path d="M720,350.4854 L720,382.4854 A5,5 0 0 0 725,387.4854 L913,387.4854 A5,5 0 0 0 918,382.4854 L918,355.4854 L908,345.4854 L725,345.4854 A5,5 0 0 0 720,350.4854 " fill="url(#gu6rpnaocur5y0)" filter="url(#fu6rpnaocur5y)" style="stroke:#8B95A5;stroke-width:1.0;"/><path d="M908,345.4854 L908,352.9854 A2.5,2.5 0 0 0 910.5,355.4854 L918,355.4854 L908,345.4854 " fill="url(#gu6rpnaocur5y0)" style="stroke:#8B95A5;stroke-width:1.0;"/><text fill="#111827" font-family="Arial" font-size="14" lengthAdjust="spacing" textLength="173" x="726" y="363.6172">alle offenen VAEs abfragen</text><text fill="#111827" font-family="Arial" font-size="14" lengthAdjust="spacing" textLength="136" x="726" y="379.7158">und intern bearbeiten</text><line style="stroke:#111827;stroke-width:2.0;" x1="474" x2="484" y1="416.6313" y2="412.6313"/><line style="stroke:#111827;stroke-width:2.0;" x1="474" x2="484" y1="416.6313" y2="420.6313"/><line style="stroke:#111827;stroke-width:2.0;" x1="473" x2="820" y1="416.6313" y2="416.6313"/><text fill="#000000" font-family="Arial" font-size="13" font-weight="bold" lengthAdjust="spacing" textLength="15" x="490" y="411.8765">3b</text><text fill="#000000" font-family="Arial" font-size="13" lengthAdjust="spacing" textLength="4" x="505" y="411.8765">&#160;</text><a href="OperationDefinition-MOPED.Auf.Request.Antworten.html" target="_top" title="OperationDefinition-MOPED.Auf.Request.Antworten.html" xlink:actuate="onRequest" xlink:href="OperationDefinition-MOPED.Auf.Request.Antworten.html" xlink:show="new" xlink:title="OperationDefinition-MOPED.Auf.Request.Antworten.html" xlink:type="simple"><text fill="#0000EE" font-family="Arial" font-size="13" lengthAdjust="spacing" textLength="63" x="509" y="411.8765">$antworten</text></a><text fill="#000000" font-family="Arial" font-size="13" lengthAdjust="spacing" textLength="64" x="576" y="411.8765">(Status 00)</text><path d="M730,434.6313 L730,466.6313 A5,5 0 0 0 735,471.6313 L904,471.6313 A5,5 0 0 0 909,466.6313 L909,439.6313 L899,429.6313 L735,429.6313 A5,5 0 0 0 730,434.6313 " fill="url(#gu6rpnaocur5y0)" filter="url(#fu6rpnaocur5y)" style="stroke:#8B95A5;stroke-width:1.0;"/><path d="M899,429.6313 L899,437.1313 A2.5,2.5 0 0 0 901.5,439.6313 L909,439.6313 L899,429.6313 " fill="url(#gu6rpnaocur5y0)" style="stroke:#8B95A5;stroke-width:1.0;"/><text fill="#111827" font-family="Arial" font-size="14" lengthAdjust="spacing" textLength="154" x="736" y="447.7632">Fall&#252;bernahme best&#228;tigt</text><text fill="#111827" font-family="Arial" font-size="14" lengthAdjust="spacing" textLength="70" x="736" y="463.8618">(Status 00)</text><line style="stroke:#111827;stroke-width:2.0;" x1="471" x2="461" y1="500.7773" y2="496.7773"/><line style="stroke:#111827;stroke-width:2.0;" x1="471" x2="461" y1="500.7773" y2="504.7773"/><line style="stroke:#111827;stroke-width:2.0;" x1="192" x2="472" y1="500.7773" y2="500.7773"/><text fill="#000000" font-family="Arial" font-size="13" font-weight="bold" lengthAdjust="spacing" textLength="14" x="199" y="496.0225">4a</text><text fill="#000000" font-family="Arial" font-size="13" lengthAdjust="spacing" textLength="146" x="217" y="496.0225">GET Composition?id={id}</text><path d="M68,518.7773 L68,550.7773 A5,5 0 0 0 73,555.7773 L308,555.7773 A5,5 0 0 0 313,550.7773 L313,523.7773 L303,513.7773 L73,513.7773 A5,5 0 0 0 68,518.7773 " fill="url(#gu6rpnaocur5y0)" filter="url(#fu6rpnaocur5y)" style="stroke:#8B95A5;stroke-width:1.0;"/><path d="M303,513.7773 L303,521.2773 A2.5,2.5 0 0 0 305.5,523.7773 L313,523.7773 L303,513.7773 " fill="url(#gu6rpnaocur5y0)" style="stroke:#8B95A5;stroke-width:1.0;"/><text fill="#111827" font-family="Arial" font-size="14" lengthAdjust="spacing" textLength="220" x="74" y="531.9092">aktuellen Stand des Falls abfragen</text><text fill="#111827" font-family="Arial" font-size="14" lengthAdjust="spacing" textLength="132" x="74" y="548.0078">(inkl. best&#228;tigte VAE)</text><line style="stroke:#111827;stroke-width:2.0;" x1="471" x2="461" y1="584.9233" y2="580.9233"/><line style="stroke:#111827;stroke-width:2.0;" x1="471" x2="461" y1="584.9233" y2="588.9233"/><line style="stroke:#111827;stroke-width:2.0;" x1="192" x2="472" y1="584.9233" y2="584.9233"/><text fill="#000000" font-family="Arial" font-size="13" font-weight="bold" lengthAdjust="spacing" textLength="15" x="199" y="580.1685">4b</text><text fill="#000000" font-family="Arial" font-size="13" lengthAdjust="spacing" textLength="4" x="214" y="580.1685">&#160;</text><a href="OperationDefinition-MOPED.Daten.Update.html" target="_top" title="OperationDefinition-MOPED.Daten.Update.html" xlink:actuate="onRequest" xlink:href="OperationDefinition-MOPED.Daten.Update.html" xlink:show="new" xlink:title="OperationDefinition-MOPED.Daten.Update.html" xlink:type="simple"><text fill="#0000EE" font-family="Arial" font-size="13" lengthAdjust="spacing" textLength="46" x="218" y="580.1685">$update</text></a><path d="M55,602.9233 L55,618.9233 A5,5 0 0 0 60,623.9233 L321,623.9233 A5,5 0 0 0 326,618.9233 L326,607.9233 L316,597.9233 L60,597.9233 A5,5 0 0 0 55,602.9233 " fill="url(#gu6rpnaocur5y0)" filter="url(#fu6rpnaocur5y)" style="stroke:#8B95A5;stroke-width:1.0;"/><path d="M316,597.9233 L316,605.4233 A2.5,2.5 0 0 0 318.5,607.9233 L326,607.9233 L316,597.9233 " fill="url(#gu6rpnaocur5y0)" style="stroke:#8B95A5;stroke-width:1.0;"/><text fill="#111827" font-family="Arial" font-size="14" lengthAdjust="spacing" textLength="250" x="61" y="616.0552">Verlegung auf Abteilung Innere Medizin</text><line style="stroke:#111827;stroke-width:2.0;" x1="471" x2="461" y1="652.9707" y2="648.9707"/><line style="stroke:#111827;stroke-width:2.0;" x1="471" x2="461" y1="652.9707" y2="656.9707"/><line style="stroke:#111827;stroke-width:2.0;" x1="192" x2="472" y1="652.9707" y2="652.9707"/><text fill="#000000" font-family="Arial" font-size="13" font-weight="bold" lengthAdjust="spacing" textLength="7" x="199" y="648.2158">5</text><text fill="#000000" font-family="Arial" font-size="13" lengthAdjust="spacing" textLength="4" x="206" y="648.2158">&#160;</text><a href="OperationDefinition-MOPED.Daten.Update.html" target="_top" title="OperationDefinition-MOPED.Daten.Update.html" xlink:actuate="onRequest" xlink:href="OperationDefinition-MOPED.Daten.Update.html" xlink:show="new" xlink:title="OperationDefinition-MOPED.Daten.Update.html" xlink:type="simple"><text fill="#0000EE" font-family="Arial" font-size="13" lengthAdjust="spacing" textLength="46" x="210" y="648.2158">$update</text></a><path d="M5,670.9707 L5,686.9707 A5,5 0 0 0 10,691.9707 L371,691.9707 A5,5 0 0 0 376,686.9707 L376,675.9707 L366,665.9707 L10,665.9707 A5,5 0 0 0 5,670.9707 " fill="url(#gu6rpnaocur5y0)" filter="url(#fu6rpnaocur5y)" style="stroke:#8B95A5;stroke-width:1.0;"/><path d="M366,665.9707 L366,673.4707 A2.5,2.5 0 0 0 368.5,675.9707 L376,675.9707 L366,665.9707 " fill="url(#gu6rpnaocur5y0)" style="stroke:#8B95A5;stroke-width:1.0;"/><text fill="#111827" font-family="Arial" font-size="14" lengthAdjust="spacing" textLength="350" x="11" y="684.1025">Diagnose "Herzinsuffizienz" und Leistung "EKG" erfasst</text><line style="stroke:#111827;stroke-width:2.0;" x1="471" x2="461" y1="721.0181" y2="717.0181"/><line style="stroke:#111827;stroke-width:2.0;" x1="471" x2="461" y1="721.0181" y2="725.0181"/><line style="stroke:#111827;stroke-width:2.0;" x1="192" x2="472" y1="721.0181" y2="721.0181"/><text fill="#000000" font-family="Arial" font-size="13" font-weight="bold" lengthAdjust="spacing" textLength="7" x="199" y="716.2632">6</text><text fill="#000000" font-family="Arial" font-size="13" lengthAdjust="spacing" textLength="4" x="206" y="716.2632">&#160;</text><a href="OperationDefinition-MOPED.Patient.Entlassen.html" target="_top" title="OperationDefinition-MOPED.Patient.Entlassen.html" xlink:actuate="onRequest" xlink:href="OperationDefinition-MOPED.Patient.Entlassen.html" xlink:show="new" xlink:title="OperationDefinition-MOPED.Patient.Entlassen.html" xlink:type="simple"><text fill="#0000EE" font-family="Arial" font-size="13" lengthAdjust="spacing" textLength="63" x="210" y="716.2632">$entlassen</text></a><path d="M72,739.0181 L72,755.0181 A5,5 0 0 0 77,760.0181 L304,760.0181 A5,5 0 0 0 309,755.0181 L309,744.0181 L299,734.0181 L77,734.0181 A5,5 0 0 0 72,739.0181 " fill="url(#gu6rpnaocur5y0)" filter="url(#fu6rpnaocur5y)" style="stroke:#8B95A5;stroke-width:1.0;"/><path d="M299,734.0181 L299,741.5181 A2.5,2.5 0 0 0 301.5,744.0181 L309,744.0181 L299,734.0181 " fill="url(#gu6rpnaocur5y0)" style="stroke:#8B95A5;stroke-width:1.0;"/><text fill="#111827" font-family="Arial" font-size="14" lengthAdjust="spacing" textLength="216" x="78" y="752.1499">Susi Sonnenschein wird entlassen</text><path d="M47,775.1167 L118,775.1167 L118,783.2153 L108,793.2153 L42,793.2153 L42,780.1167 A5,5 0 0 1 47,775.1167 " fill="#F3F4F6" style="stroke:#111827;stroke-width:1.5;"/><rect fill="none" height="270.4854" rx="5" ry="5" style="stroke:#111827;stroke-width:1.0;" width="1151" x="42" y="775.1167"/><text fill="#000000" font-family="Arial" font-size="14" font-weight="bold" lengthAdjust="spacing" textLength="31" x="57" y="789.2485">loop</text><text fill="#000000" font-family="Arial" font-size="14" font-weight="bold" lengthAdjust="spacing" textLength="5" x="133" y="790.2485">[</text><a href="OperationDefinition-MOPED.Encounter.Abrechnen.html" target="_top" title="OperationDefinition-MOPED.Encounter.Abrechnen.html" xlink:actuate="onRequest" xlink:href="OperationDefinition-MOPED.Encounter.Abrechnen.html" xlink:show="new" xlink:title="OperationDefinition-MOPED.Encounter.Abrechnen.html" xlink:type="simple"><text fill="#0000EE" font-family="Arial" font-size="14" font-weight="bold" lengthAdjust="spacing" textLength="81" x="138" y="790.2485">$abrechnen</text></a><text fill="#000000" font-family="Arial" font-size="14" font-weight="bold" lengthAdjust="spacing" textLength="4" x="223" y="790.2485">/</text><a href="OperationDefinition-MOPED.Abrechnung.Genehmigen.html" target="_top" title="OperationDefinition-MOPED.Abrechnung.Genehmigen.html" xlink:actuate="onRequest" xlink:href="OperationDefinition-MOPED.Abrechnung.Genehmigen.html" xlink:show="new" xlink:title="OperationDefinition-MOPED.Abrechnung.Genehmigen.html" xlink:type="simple"><text fill="#0000EE" font-family="Arial" font-size="14" font-weight="bold" lengthAdjust="spacing" textLength="93" x="231" y="790.2485">$genehmigen</text></a><text fill="#000000" font-family="Arial" font-size="14" font-weight="bold" lengthAdjust="spacing" textLength="76" x="328" y="790.2485">(vorl&#228;ufig)]</text><line style="stroke:#111827;stroke-width:2.0;" x1="471" x2="461" y1="815.2627" y2="811.2627"/><line style="stroke:#111827;stroke-width:2.0;" x1="471" x2="461" y1="815.2627" y2="819.2627"/><line style="stroke:#111827;stroke-width:2.0;" x1="192" x2="472" y1="815.2627" y2="815.2627"/><text fill="#000000" font-family="Arial" font-size="13" font-weight="bold" lengthAdjust="spacing" textLength="7" x="199" y="810.5078">7</text><text fill="#000000" font-family="Arial" font-size="13" lengthAdjust="spacing" textLength="4" x="206" y="810.5078">&#160;</text><a href="OperationDefinition-MOPED.Encounter.Abrechnen.html" target="_top" title="OperationDefinition-MOPED.Encounter.Abrechnen.html" xlink:actuate="onRequest" xlink:href="OperationDefinition-MOPED.Encounter.Abrechnen.html" xlink:show="new" xlink:title="OperationDefinition-MOPED.Encounter.Abrechnen.html" xlink:type="simple"><text fill="#0000EE" font-family="Arial" font-size="13" lengthAdjust="spacing" textLength="67" x="210" y="810.5078">$abrechnen</text></a><path d="M52,833.2627 L52,849.2627 A5,5 0 0 0 57,854.2627 L324,854.2627 A5,5 0 0 0 329,849.2627 L329,838.2627 L319,828.2627 L57,828.2627 A5,5 0 0 0 52,833.2627 " fill="url(#gu6rpnaocur5y0)" filter="url(#fu6rpnaocur5y)" style="stroke:#8B95A5;stroke-width:1.0;"/><path d="M319,828.2627 L319,835.7627 A2.5,2.5 0 0 0 321.5,838.2627 L329,838.2627 L319,828.2627 " fill="url(#gu6rpnaocur5y0)" style="stroke:#8B95A5;stroke-width:1.0;"/><text fill="#111827" font-family="Arial" font-size="14" lengthAdjust="spacing" textLength="256" x="58" y="846.3945">Abrechnung aller Leistungen eingereicht</text><line style="stroke:#111827;stroke-width:2.0;" x1="474" x2="484" y1="898.2588" y2="894.2588"/><line style="stroke:#111827;stroke-width:2.0;" x1="474" x2="484" y1="898.2588" y2="902.2588"/><line style="stroke:#111827;stroke-width:2.0;" x1="473" x2="1040" y1="898.2588" y2="898.2588"/><text fill="#000000" font-family="Arial" font-size="13" font-weight="bold" lengthAdjust="spacing" textLength="14" x="490" y="878.5552">8a</text><text fill="#000000" font-family="Arial" font-size="13" lengthAdjust="spacing" textLength="219" x="508" y="878.5552">GET Claim?status=active&amp;use=claim</text><text fill="#000000" font-family="Arial" font-size="13" lengthAdjust="spacing" textLength="284" x="490" y="893.5039">&amp;_has:ClaimResponse:request:status:not=active</text><path d="M898,916.2588 L898,948.2588 A5,5 0 0 0 903,953.2588 L1175,953.2588 A5,5 0 0 0 1180,948.2588 L1180,921.2588 L1170,911.2588 L903,911.2588 A5,5 0 0 0 898,916.2588 " fill="url(#gu6rpnaocur5y0)" filter="url(#fu6rpnaocur5y)" style="stroke:#8B95A5;stroke-width:1.0;"/><path d="M1170,911.2588 L1170,918.7588 A2.5,2.5 0 0 0 1172.5,921.2588 L1180,921.2588 L1170,911.2588 " fill="url(#gu6rpnaocur5y0)" style="stroke:#8B95A5;stroke-width:1.0;"/><text fill="#111827" font-family="Arial" font-size="14" lengthAdjust="spacing" textLength="257" x="904" y="929.3906">unbeantwortete Abrechnungen abfragen</text><text fill="#111827" font-family="Arial" font-size="14" lengthAdjust="spacing" textLength="136" x="904" y="945.4893">und intern bearbeiten</text><line style="stroke:#111827;stroke-width:2.0;" x1="474" x2="484" y1="982.4048" y2="978.4048"/><line style="stroke:#111827;stroke-width:2.0;" x1="474" x2="484" y1="982.4048" y2="986.4048"/><line style="stroke:#111827;stroke-width:2.0;" x1="473" x2="1040" y1="982.4048" y2="982.4048"/><text fill="#000000" font-family="Arial" font-size="13" font-weight="bold" lengthAdjust="spacing" textLength="15" x="490" y="977.6499">8b</text><text fill="#000000" font-family="Arial" font-size="13" lengthAdjust="spacing" textLength="4" x="505" y="977.6499">&#160;</text><a href="OperationDefinition-MOPED.Abrechnung.Genehmigen.html" target="_top" title="OperationDefinition-MOPED.Abrechnung.Genehmigen.html" xlink:actuate="onRequest" xlink:href="OperationDefinition-MOPED.Abrechnung.Genehmigen.html" xlink:show="new" xlink:title="OperationDefinition-MOPED.Abrechnung.Genehmigen.html" xlink:type="simple"><text fill="#0000EE" font-family="Arial" font-size="13" lengthAdjust="spacing" textLength="77" x="509" y="977.6499">$genehmigen</text></a><path d="M956,1000.4048 L956,1032.4048 A5,5 0 0 0 961,1037.4048 L1118,1037.4048 A5,5 0 0 0 1123,1032.4048 L1123,1005.4048 L1113,995.4048 L961,995.4048 A5,5 0 0 0 956,1000.4048 " fill="url(#gu6rpnaocur5y0)" filter="url(#fu6rpnaocur5y)" style="stroke:#8B95A5;stroke-width:1.0;"/><path d="M1113,995.4048 L1113,1002.9048 A2.5,2.5 0 0 0 1115.5,1005.4048 L1123,1005.4048 L1113,995.4048 " fill="url(#gu6rpnaocur5y0)" style="stroke:#8B95A5;stroke-width:1.0;"/><text fill="#111827" font-family="Arial" font-size="14" lengthAdjust="spacing" textLength="142" x="962" y="1013.5366">Alle Posten genehmigt</text><text fill="#111827" font-family="Arial" font-size="14" lengthAdjust="spacing" textLength="126" x="962" y="1029.6353">(keine &#196;nderungen)</text><line style="stroke:#111827;stroke-width:2.0;" x1="471" x2="461" y1="1073.5508" y2="1069.5508"/><line style="stroke:#111827;stroke-width:2.0;" x1="471" x2="461" y1="1073.5508" y2="1077.5508"/><line style="stroke:#111827;stroke-width:2.0;" x1="192" x2="472" y1="1073.5508" y2="1073.5508"/><text fill="#000000" font-family="Arial" font-size="13" font-weight="bold" lengthAdjust="spacing" textLength="14" x="199" y="1068.7959">9a</text><text fill="#000000" font-family="Arial" font-size="13" lengthAdjust="spacing" textLength="146" x="217" y="1068.7959">GET Composition?id={id}</text><path d="M68,1091.5508 L68,1123.5508 A5,5 0 0 0 73,1128.5508 L308,1128.5508 A5,5 0 0 0 313,1123.5508 L313,1096.5508 L303,1086.5508 L73,1086.5508 A5,5 0 0 0 68,1091.5508 " fill="url(#gu6rpnaocur5y0)" filter="url(#fu6rpnaocur5y)" style="stroke:#8B95A5;stroke-width:1.0;"/><path d="M303,1086.5508 L303,1094.0508 A2.5,2.5 0 0 0 305.5,1096.5508 L313,1096.5508 L303,1086.5508 " fill="url(#gu6rpnaocur5y0)" style="stroke:#8B95A5;stroke-width:1.0;"/><text fill="#111827" font-family="Arial" font-size="14" lengthAdjust="spacing" textLength="220" x="74" y="1104.6826">aktuellen Stand des Falls abfragen</text><text fill="#111827" font-family="Arial" font-size="14" lengthAdjust="spacing" textLength="182" x="74" y="1120.7813">(inkl. best&#228;tigte Abrechnung)</text><line style="stroke:#111827;stroke-width:2.0;" x1="471" x2="461" y1="1157.6968" y2="1153.6968"/><line style="stroke:#111827;stroke-width:2.0;" x1="471" x2="461" y1="1157.6968" y2="1161.6968"/><line style="stroke:#111827;stroke-width:2.0;" x1="192" x2="472" y1="1157.6968" y2="1157.6968"/><text fill="#000000" font-family="Arial" font-size="13" font-weight="bold" lengthAdjust="spacing" textLength="15" x="199" y="1152.9419">9b</text><text fill="#000000" font-family="Arial" font-size="13" lengthAdjust="spacing" textLength="24" x="222" y="1152.9419">final</text><a href="OperationDefinition-MOPED.Encounter.Abrechnen.html" target="_top" title="OperationDefinition-MOPED.Encounter.Abrechnen.html" xlink:actuate="onRequest" xlink:href="OperationDefinition-MOPED.Encounter.Abrechnen.html" xlink:show="new" xlink:title="OperationDefinition-MOPED.Encounter.Abrechnen.html" xlink:type="simple"><text fill="#0000EE" font-family="Arial" font-size="13" lengthAdjust="spacing" textLength="67" x="250" y="1152.9419">$abrechnen</text></a><path d="M70,1175.6968 L70,1191.6968 A5,5 0 0 0 75,1196.6968 L305,1196.6968 A5,5 0 0 0 310,1191.6968 L310,1180.6968 L300,1170.6968 L75,1170.6968 A5,5 0 0 0 70,1175.6968 " fill="url(#gu6rpnaocur5y0)" filter="url(#fu6rpnaocur5y)" style="stroke:#8B95A5;stroke-width:1.0;"/><path d="M300,1170.6968 L300,1178.1968 A2.5,2.5 0 0 0 302.5,1180.6968 L310,1180.6968 L300,1170.6968 " fill="url(#gu6rpnaocur5y0)" style="stroke:#8B95A5;stroke-width:1.0;"/><text fill="#111827" font-family="Arial" font-size="14" lengthAdjust="spacing" textLength="219" x="76" y="1188.8286">Finale Abrechnung seitens der KA</text><line style="stroke:#111827;stroke-width:2.0;" x1="474" x2="484" y1="1240.6929" y2="1236.6929"/><line style="stroke:#111827;stroke-width:2.0;" x1="474" x2="484" y1="1240.6929" y2="1244.6929"/><line style="stroke:#111827;stroke-width:2.0;" x1="473" x2="1040" y1="1240.6929" y2="1240.6929"/><text fill="#000000" font-family="Arial" font-size="13" font-weight="bold" lengthAdjust="spacing" textLength="21" x="490" y="1220.9893">10a</text><text fill="#000000" font-family="Arial" font-size="13" lengthAdjust="spacing" textLength="317" x="515" y="1220.9893">GET Claim?status=active&amp;use=claim&amp;endgueltig=true</text><text fill="#000000" font-family="Arial" font-size="13" lengthAdjust="spacing" textLength="284" x="490" y="1235.938">&amp;_has:ClaimResponse:request:status:not=active</text><path d="M898,1258.6929 L898,1290.6929 A5,5 0 0 0 903,1295.6929 L1175,1295.6929 A5,5 0 0 0 1180,1290.6929 L1180,1263.6929 L1170,1253.6929 L903,1253.6929 A5,5 0 0 0 898,1258.6929 " fill="url(#gu6rpnaocur5y0)" filter="url(#fu6rpnaocur5y)" style="stroke:#8B95A5;stroke-width:1.0;"/><path d="M1170,1253.6929 L1170,1261.1929 A2.5,2.5 0 0 0 1172.5,1263.6929 L1180,1263.6929 L1170,1253.6929 " fill="url(#gu6rpnaocur5y0)" style="stroke:#8B95A5;stroke-width:1.0;"/><text fill="#111827" font-family="Arial" font-size="14" lengthAdjust="spacing" textLength="257" x="904" y="1271.8247">unbeantwortete Abrechnungen abfragen</text><text fill="#111827" font-family="Arial" font-size="14" lengthAdjust="spacing" textLength="136" x="904" y="1287.9233">und intern bearbeiten</text><line style="stroke:#111827;stroke-width:2.0;" x1="474" x2="484" y1="1324.8389" y2="1320.8389"/><line style="stroke:#111827;stroke-width:2.0;" x1="474" x2="484" y1="1324.8389" y2="1328.8389"/><line style="stroke:#111827;stroke-width:2.0;" x1="473" x2="1040" y1="1324.8389" y2="1324.8389"/><text fill="#000000" font-family="Arial" font-size="13" font-weight="bold" lengthAdjust="spacing" textLength="22" x="490" y="1320.084">10b</text><text fill="#000000" font-family="Arial" font-size="13" lengthAdjust="spacing" textLength="24" x="516" y="1320.084">final</text><a href="OperationDefinition-MOPED.Abrechnung.Genehmigen.html" target="_top" title="OperationDefinition-MOPED.Abrechnung.Genehmigen.html" xlink:actuate="onRequest" xlink:href="OperationDefinition-MOPED.Abrechnung.Genehmigen.html" xlink:show="new" xlink:title="OperationDefinition-MOPED.Abrechnung.Genehmigen.html" xlink:type="simple"><text fill="#0000EE" font-family="Arial" font-size="13" lengthAdjust="spacing" textLength="77" x="544" y="1320.084">$genehmigen</text></a><path d="M946,1342.8389 L946,1374.8389 A5,5 0 0 0 951,1379.8389 L1127,1379.8389 A5,5 0 0 0 1132,1374.8389 L1132,1347.8389 L1122,1337.8389 L951,1337.8389 A5,5 0 0 0 946,1342.8389 " fill="url(#gu6rpnaocur5y0)" filter="url(#fu6rpnaocur5y)" style="stroke:#8B95A5;stroke-width:1.0;"/><path d="M1122,1337.8389 L1122,1345.3389 A2.5,2.5 0 0 0 1124.5,1347.8389 L1132,1347.8389 L1122,1337.8389 " fill="url(#gu6rpnaocur5y0)" style="stroke:#8B95A5;stroke-width:1.0;"/><text fill="#111827" font-family="Arial" font-size="14" lengthAdjust="spacing" textLength="157" x="952" y="1355.9707">Endg&#252;ltige Entscheidung</text><text fill="#111827" font-family="Arial" font-size="14" lengthAdjust="spacing" textLength="101" x="952" y="1372.0693">zur Abrechnung</text><path d="M934,1398.0361 L934,1430.0361 A5,5 0 0 0 939,1435.0361 L1140,1435.0361 A5,5 0 0 0 1145,1430.0361 L1145,1403.0361 L1135,1393.0361 L939,1393.0361 A5,5 0 0 0 934,1398.0361 " fill="url(#gu6rpnaocur5y0)" filter="url(#fu6rpnaocur5y)" style="stroke:#8B95A5;stroke-width:1.0;"/><path d="M1135,1393.0361 L1135,1400.5361 A2.5,2.5 0 0 0 1137.5,1403.0361 L1145,1403.0361 L1135,1393.0361 " fill="url(#gu6rpnaocur5y0)" style="stroke:#8B95A5;stroke-width:1.0;"/><text fill="#111827" font-family="Arial" font-size="14" lengthAdjust="spacing" textLength="182" x="940" y="1411.168">Kosteninformationen werden</text><text fill="#111827" font-family="Arial" font-size="14" lengthAdjust="spacing" textLength="135" x="940" y="1427.2666">im Datensatz erg&#228;nzt</text><line style="stroke:#111827;stroke-width:2.0;" x1="474" x2="484" y1="1479.1309" y2="1475.1309"/><line style="stroke:#111827;stroke-width:2.0;" x1="474" x2="484" y1="1479.1309" y2="1483.1309"/><line style="stroke:#111827;stroke-width:2.0;" x1="473" x2="820" y1="1479.1309" y2="1479.1309"/><text fill="#000000" font-family="Arial" font-size="13" font-weight="bold" lengthAdjust="spacing" textLength="14" x="490" y="1459.4272">11</text><text fill="#000000" font-family="Arial" font-size="13" lengthAdjust="spacing" textLength="277" x="508" y="1459.4272">GET ClaimResponse?status=active&amp;use=claim</text><text fill="#000000" font-family="Arial" font-size="13" lengthAdjust="spacing" textLength="98" x="490" y="1474.376">&amp;endgueltig=true</text><path d="M725,1497.1309 L725,1513.1309 A5,5 0 0 0 730,1518.1309 L909,1518.1309 A5,5 0 0 0 914,1513.1309 L914,1502.1309 L904,1492.1309 L730,1492.1309 A5,5 0 0 0 725,1497.1309 " fill="url(#gu6rpnaocur5y0)" filter="url(#fu6rpnaocur5y)" style="stroke:#8B95A5;stroke-width:1.0;"/><path d="M904,1492.1309 L904,1499.6309 A2.5,2.5 0 0 0 906.5,1502.1309 L914,1502.1309 L904,1492.1309 " fill="url(#gu6rpnaocur5y0)" style="stroke:#8B95A5;stroke-width:1.0;"/><text fill="#111827" font-family="Arial" font-size="14" lengthAdjust="spacing" textLength="168" x="731" y="1510.2627">Kosteninformation abrufen</text><line style="stroke:#111827;stroke-width:2.0;" x1="474" x2="484" y1="1547.1782" y2="1543.1782"/><line style="stroke:#111827;stroke-width:2.0;" x1="474" x2="484" y1="1547.1782" y2="1551.1782"/><line style="stroke:#111827;stroke-width:2.0;" x1="473" x2="1254.5" y1="1547.1782" y2="1547.1782"/><text fill="#000000" font-family="Arial" font-size="13" font-weight="bold" lengthAdjust="spacing" textLength="14" x="490" y="1542.4233">12</text><text fill="#000000" font-family="Arial" font-size="13" lengthAdjust="spacing" textLength="178" x="512" y="1542.4233">GET Composition?status=final</text><path d="M1150,1565.1782 L1150,1581.1782 A5,5 0 0 0 1155,1586.1782 L1352,1586.1782 A5,5 0 0 0 1357,1581.1782 L1357,1570.1782 L1347,1560.1782 L1155,1560.1782 A5,5 0 0 0 1150,1565.1782 " fill="url(#gu6rpnaocur5y0)" filter="url(#fu6rpnaocur5y)" style="stroke:#8B95A5;stroke-width:1.0;"/><path d="M1347,1560.1782 L1347,1567.6782 A2.5,2.5 0 0 0 1349.5,1570.1782 L1357,1570.1782 L1347,1560.1782 " fill="url(#gu6rpnaocur5y0)" style="stroke:#8B95A5;stroke-width:1.0;"/><text fill="#111827" font-family="Arial" font-size="14" lengthAdjust="spacing" textLength="186" x="1156" y="1578.3101">Zugriff auf finale Composition</text><path d="M365,1604.2769 L365,1620.2769 A5,5 0 0 0 370,1625.2769 L572,1625.2769 A5,5 0 0 0 577,1620.2769 L577,1609.2769 L567,1599.2769 L370,1599.2769 A5,5 0 0 0 365,1604.2769 " fill="url(#gu6rpnaocur5y0)" filter="url(#fu6rpnaocur5y)" style="stroke:#8B95A5;stroke-width:1.0;"/><path d="M567,1599.2769 L567,1606.7769 A2.5,2.5 0 0 0 569.5,1609.2769 L577,1609.2769 L567,1599.2769 " fill="url(#gu6rpnaocur5y0)" style="stroke:#8B95A5;stroke-width:1.0;"/><text fill="#111827" font-family="Arial" font-size="14" lengthAdjust="spacing" textLength="191" x="371" y="1617.4087">Fall f&#252;r Moped abgeschlossen</text><!--SRC=[lLPTRXit47xVKmoK8h20Mf5iAxQ5s84IotQhE36Yn0MQ6WLNExiYj29LaXkd2lBMC_G4EORVTB4EkIk9AwcMYWIL7xmav-VxFWw7r4Cknaon4OHIHQXUobGgU5Htlq0lLbb_c2YPYQYmY9lspxFG0nR9EouIY5cgqLift9H01Gq_Q8Gnor9pBeLvpKO8bRRYBAsij-Zn2KBZOFrY6RPd8wH1-1m0l5WcW7LinlNTHr4ZEiQdri8Nu2WyRhBcVFRTWFU70hM61iszzGWTqVYQHP4bRgDuQ1gDnj7U8Strvj8ObM7mnGTu-USOLSh5qAFGwQmpU2yYzu65mBxs-4U6efyplMRAy3uVCs5Ab9hkjsImigtkLpPQ5NXbUROvfOMPB7lMeQsKl5iMnaqkjDsRJQtBE5_8S-tJr0KX7vSupYFdIolizkE3-6dPqz_Qqiwya9yy1gNvTRe6eVm4bTy4GFSITYvHJU1dr1bq5HD350EMwIf0nPuSR1uV4mZMD-HFran3fNjP2L14T0m_UQ7SxqgECIg-oR_VZ0z3HlxZXTHmTUsYEDFrWNeti3Fz-wBxOwrMgnQXw5GVn8TpA6HYWymigsi2lReuXvrNZ4fH9yHEH0FaHiTIH3DsXr7TeSj3MdiRyo6_VoKEByWG5ipZVhWVxizZkrKRt7vuGRgNkwUdf4ZhMNZQUFOaF8KF7zxG8MA6It66CHVSVkrUlRdkdDMkQHg5gRMpME1WXA8sCACKVc2pyUrjuBg8_8XsjrhGopI7dXG2XUuJ3m5tN4MWZKim_Qg0V1CKSaJUG6mipeWZM57X5ygMEz0f1bgUPDfClug89mWtg3Idc2gZgYEXq4nCGIZdixUHpqsxyzQs0qsKAAnOic1K38dGwnAXmix2BY7GJEYnole3ZMgO4Z6Q2uBUpHpDFdDmBZhlu6NA-EYvrI3J9xG__2C-pZIUZ1Mop0oauXE7bmW__dt0TCivl4Kzba9ZI-MGMtc05WbU1F6WzcvQf5bAepX64X-8gWOMvgmeiDMP2uDAG8XCXLHYA4fumutoKAdK5lgPEwcC9s0nlhs5dPv32lLwTGdYEM6SteU4Wb7v41AxlOOdXX1wNb3QrmDFIJaQI-qmFUVHoMSUVLdQBpOq6P8G0YYShItKBcj9Z1swCjAQbnwjNjLIqirod35B__quel-52faRh1GH5KwAYQrRMqRjq21FxUWdEYSAuGeZFk6YHBhv7TEVSPO8gUaHOLil5pgBOqg8Ob9nv-yLScqidagdUr41L37JkdosdcxTAph2fEG-BmoSZRVj5NE784Yb73-Oj2FwT8LHLTVQeSB-G2pgSJQcUdpoS5NdbiI_Te6shV55MqZc4xQiFqf59psBUL8DRDlrz3dSgCzsK5tSfGuqn-TEk9fl5vKoYPPG1L5JCiwJhf8vfAFD3QXlv_zprob3f9GjgY9gAaK7e8K5PCAuiGcj0D-Y4ssvP-kmjcsRl9QQKiFCrlMV8Te7vFGl-vPqqAlstlHFmV7_qOaMt4eDwJXN1KW9bdwFIYkZFRTX_UJqSBQxentkxcNWxr2ZlcLjFIO14rA1c9tOz_qtt73VNcTb1hcSczNSkjIMe7Q8-VJUCaVwDgx3HLPNzwnHljBBhbrNd5p4KeqSAFigGdfM2-jC9zQrVitCX7frGk-ZYG7_Acyqohipq_cX3h2qKKltzWeYKbjbzD88xFjoaJX_WgqSa2Al4zkBR7rRy6kMA1x7xcgCyohqVEafu7bG6dU689xUg-Bnpq9w3FO7gSplZ7y0]--></g></svg>