<?xml version="1.0" encoding="us-ascii" standalone="no"?><svg xmlns="http://www.w3.org/2000/svg" xmlns:xlink="http://www.w3.org/1999/xlink" contentStyleType="text/css" height="1254px" preserveAspectRatio="none" style="width:1179px;height:1254px;background:#F5F5F5;" version="1.1" viewBox="0 0 1179 1254" width="1179px" zoomAndPan="magnify"><defs><linearGradient id="g8cadnu1vudqk0" x1="50%" x2="50%" y1="0%" y2="100%"><stop offset="0%" stop-color="#E0E5F0"/><stop offset="100%" stop-color="#D1D9E6"/></linearGradient><filter height="300%" id="f8cadnu1vudqk" width="300%" x="-1" y="-1"><feGaussianBlur result="blurOut" stdDeviation="2.0"/><feColorMatrix in="blurOut" result="blurOut2" type="matrix" values="0 0 0 0 0 0 0 0 0 0 0 0 0 0 0 0 0 0 .4 0"/><feOffset dx="4.0" dy="4.0" in="blurOut2" result="blurOut3"/><feBlend in="SourceGraphic" in2="blurOut3" mode="normal"/></filter></defs><g><rect fill="#F5F5F5" height="1254" style="stroke:none;stroke-width:1.0;" width="1179" x="0" y="0"/><rect fill="#F5E599" height="1242.8467" rx="5" ry="5" style="stroke:#181818;stroke-width:0.5;" width="218" x="83" y="6"/><text fill="#000000" font-family="Arial" font-size="14" font-weight="bold" lengthAdjust="spacing" textLength="4" x="86" y="19.1318">&#160;</text><text fill="#000000" font-family="Arial" font-size="14" font-weight="bold" lengthAdjust="spacing" textLength="196" x="94" y="35.2305">KA (Herz Jesu Krankenhaus)</text><rect fill="#C5F7BA" height="1242.8467" rx="5" ry="5" style="stroke:#181818;stroke-width:0.5;" width="109" x="418.5" y="6"/><text fill="#000000" font-family="Arial" font-size="14" font-weight="bold" lengthAdjust="spacing" textLength="4" x="421.5" y="19.1318">&#160;</text><text fill="#000000" font-family="Arial" font-size="14" font-weight="bold" lengthAdjust="spacing" textLength="47" x="449.5" y="35.2305">Moped</text><rect fill="#C0C0C0" height="1242.8467" rx="5" ry="5" style="stroke:#181818;stroke-width:0.5;" width="118" x="569.5" y="6"/><text fill="#000000" font-family="Arial" font-size="14" font-weight="bold" lengthAdjust="spacing" textLength="4" x="572.5" y="19.1318">&#160;</text><text fill="#000000" font-family="Arial" font-size="14" font-weight="bold" lengthAdjust="spacing" textLength="80" x="588.5" y="35.2305">SV (&#214;GK,...)</text><rect fill="#F7D0BA" height="1242.8467" rx="5" ry="5" style="stroke:#181818;stroke-width:0.5;" width="238" x="732" y="6"/><text fill="#000000" font-family="Arial" font-size="14" font-weight="bold" lengthAdjust="spacing" textLength="4" x="735" y="19.1318">&#160;</text><text fill="#000000" font-family="Arial" font-size="14" font-weight="bold" lengthAdjust="spacing" textLength="220" x="739" y="35.2305">LGF (Landesgesundheitsfonds)</text><rect fill="#FCB3B3" height="1242.8467" rx="5" ry="5" style="stroke:#181818;stroke-width:0.5;" width="107" x="1012" y="6"/><text fill="#000000" font-family="Arial" font-size="14" font-weight="bold" lengthAdjust="spacing" textLength="4" x="1015" y="19.1318">&#160;</text><text fill="#000000" font-family="Arial" font-size="14" font-weight="bold" lengthAdjust="spacing" textLength="37" x="1047" y="35.2305">Bund</text><rect fill="none" height="270.4854" rx="5" ry="5" style="stroke:#111827;stroke-width:1.0;" width="959" x="42" y="439.6826"/><line style="stroke:#181818;stroke-width:0.5;stroke-dasharray:5.0,5.0;" x1="191.5" x2="191.5" y1="118.2959" y2="1169.748"/><line style="stroke:#181818;stroke-width:0.5;stroke-dasharray:5.0,5.0;" x1="473" x2="473" y1="118.2959" y2="1169.748"/><line style="stroke:#181818;stroke-width:0.5;stroke-dasharray:5.0,5.0;" x1="628" x2="628" y1="118.2959" y2="1169.748"/><line style="stroke:#181818;stroke-width:0.5;stroke-dasharray:5.0,5.0;" x1="850.5" x2="850.5" y1="118.2959" y2="1169.748"/><line style="stroke:#181818;stroke-width:0.5;stroke-dasharray:5.0,5.0;" x1="1065" x2="1065" y1="118.2959" y2="1169.748"/><text fill="#000000" font-family="Arial" font-size="14" lengthAdjust="spacing" textLength="18" x="180" y="115.3291">KA</text><ellipse cx="192" cy="50.6973" fill="#E2E2F0" rx="8" ry="8" style="stroke:#181818;stroke-width:0.5;"/><path d="M192,58.6973 L192,85.6973 M179,66.6973 L205,66.6973 M192,85.6973 L179,100.6973 M192,85.6973 L205,100.6973 " fill="none" style="stroke:#181818;stroke-width:0.5;"/><text fill="#000000" font-family="Arial" font-size="14" lengthAdjust="spacing" textLength="18" x="180" y="1181.8799">KA</text><ellipse cx="192" cy="1193.3467" fill="#E2E2F0" rx="8" ry="8" style="stroke:#181818;stroke-width:0.5;"/><path d="M192,1201.3467 L192,1228.3467 M179,1209.3467 L205,1209.3467 M192,1228.3467 L179,1243.3467 M192,1228.3467 L205,1243.3467 " fill="none" style="stroke:#181818;stroke-width:0.5;"/><rect fill="#FFFFFF" height="30.0986" rx="5" ry="5" style="stroke:#555555;stroke-width:0.5;" width="58" x="444" y="87.1973"/><text fill="#000000" font-family="Arial" font-size="14" lengthAdjust="spacing" textLength="44" x="451" y="107.3291">Moped</text><rect fill="#FFFFFF" height="30.0986" rx="5" ry="5" style="stroke:#555555;stroke-width:0.5;" width="58" x="444" y="1168.748"/><text fill="#000000" font-family="Arial" font-size="14" lengthAdjust="spacing" textLength="44" x="451" y="1188.8799">Moped</text><text fill="#000000" font-family="Arial" font-size="14" lengthAdjust="spacing" textLength="63" x="594" y="115.3291">SV (&#214;GK)</text><ellipse cx="628.5" cy="50.6973" fill="#E2E2F0" rx="8" ry="8" style="stroke:#181818;stroke-width:0.5;"/><path d="M628.5,58.6973 L628.5,85.6973 M615.5,66.6973 L641.5,66.6973 M628.5,85.6973 L615.5,100.6973 M628.5,85.6973 L641.5,100.6973 " fill="none" style="stroke:#181818;stroke-width:0.5;"/><text fill="#000000" font-family="Arial" font-size="14" lengthAdjust="spacing" textLength="63" x="594" y="1181.8799">SV (&#214;GK)</text><ellipse cx="628.5" cy="1193.3467" fill="#E2E2F0" rx="8" ry="8" style="stroke:#181818;stroke-width:0.5;"/><path d="M628.5,1201.3467 L628.5,1228.3467 M615.5,1209.3467 L641.5,1209.3467 M628.5,1228.3467 L615.5,1243.3467 M628.5,1228.3467 L641.5,1243.3467 " fill="none" style="stroke:#181818;stroke-width:0.5;"/><text fill="#000000" font-family="Arial" font-size="14" lengthAdjust="spacing" textLength="201" x="747.5" y="115.3291">LGF (Landesgesundheitsfonds)</text><ellipse cx="851" cy="50.6973" fill="#E2E2F0" rx="8" ry="8" style="stroke:#181818;stroke-width:0.5;"/><path d="M851,58.6973 L851,85.6973 M838,66.6973 L864,66.6973 M851,85.6973 L838,100.6973 M851,85.6973 L864,100.6973 " fill="none" style="stroke:#181818;stroke-width:0.5;"/><text fill="#000000" font-family="Arial" font-size="14" lengthAdjust="spacing" textLength="201" x="747.5" y="1181.8799">LGF (Landesgesundheitsfonds)</text><ellipse cx="851" cy="1193.3467" fill="#E2E2F0" rx="8" ry="8" style="stroke:#181818;stroke-width:0.5;"/><path d="M851,1201.3467 L851,1228.3467 M838,1209.3467 L864,1209.3467 M851,1228.3467 L838,1243.3467 M851,1228.3467 L864,1243.3467 " fill="none" style="stroke:#181818;stroke-width:0.5;"/><text fill="#000000" font-family="Arial" font-size="14" lengthAdjust="spacing" textLength="33" x="1046" y="115.3291">Bund</text><ellipse cx="1065.5" cy="50.6973" fill="#E2E2F0" rx="8" ry="8" style="stroke:#181818;stroke-width:0.5;"/><path d="M1065.5,58.6973 L1065.5,85.6973 M1052.5,66.6973 L1078.5,66.6973 M1065.5,85.6973 L1052.5,100.6973 M1065.5,85.6973 L1078.5,100.6973 " fill="none" style="stroke:#181818;stroke-width:0.5;"/><text fill="#000000" font-family="Arial" font-size="14" lengthAdjust="spacing" textLength="33" x="1046" y="1181.8799">Bund</text><ellipse cx="1065.5" cy="1193.3467" fill="#E2E2F0" rx="8" ry="8" style="stroke:#181818;stroke-width:0.5;"/><path d="M1065.5,1201.3467 L1065.5,1228.3467 M1052.5,1209.3467 L1078.5,1209.3467 M1065.5,1228.3467 L1052.5,1243.3467 M1065.5,1228.3467 L1078.5,1243.3467 " fill="none" style="stroke:#181818;stroke-width:0.5;"/><line style="stroke:#111827;stroke-width:2.0;" x1="471" x2="461" y1="149.2446" y2="145.2446"/><line style="stroke:#111827;stroke-width:2.0;" x1="471" x2="461" y1="149.2446" y2="153.2446"/><line style="stroke:#111827;stroke-width:2.0;" x1="192" x2="472" y1="149.2446" y2="149.2446"/><text fill="#000000" font-family="Arial" font-size="13" font-weight="bold" lengthAdjust="spacing" textLength="7" x="199" y="144.4897">1</text><text fill="#000000" font-family="Arial" font-size="13" lengthAdjust="spacing" textLength="4" x="206" y="144.4897">&#160;</text><a href="OperationDefinition-MOPED.Patient.Aufnehmen.html" target="_top" title="OperationDefinition-MOPED.Patient.Aufnehmen.html" xlink:actuate="onRequest" xlink:href="OperationDefinition-MOPED.Patient.Aufnehmen.html" xlink:show="new" xlink:title="OperationDefinition-MOPED.Patient.Aufnehmen.html" xlink:type="simple"><text fill="#0000EE" font-family="Arial" font-size="13" lengthAdjust="spacing" textLength="71" x="210" y="144.4897">$aufnehmen</text></a><path d="M28,167.2446 L28,215.2446 A5,5 0 0 0 33,220.2446 L347,220.2446 A5,5 0 0 0 352,215.2446 L352,172.2446 L342,162.2446 L33,162.2446 A5,5 0 0 0 28,167.2446 " fill="url(#g8cadnu1vudqk0)" filter="url(#f8cadnu1vudqk)" style="stroke:#8B95A5;stroke-width:1.0;"/><path d="M342,162.2446 L342,169.7446 A2.5,2.5 0 0 0 344.5,172.2446 L352,172.2446 L342,162.2446 " fill="url(#g8cadnu1vudqk0)" style="stroke:#8B95A5;stroke-width:1.0;"/><text fill="#111827" font-family="Arial" font-size="14" lengthAdjust="spacing" textLength="303" x="34" y="180.3765">Sven Selbstzahler wird station&#228;r aufgenommen,</text><text fill="#111827" font-family="Arial" font-size="14" lengthAdjust="spacing" textLength="223" x="38" y="196.4751">eine Selbstzahler-Coverage erfasst</text><text fill="#111827" font-family="Arial" font-size="14" lengthAdjust="spacing" textLength="273" x="34" y="212.5737">und keine zust&#228;ndige Versicherung gesetzt</text><line style="stroke:#111827;stroke-width:2.0;" x1="471" x2="461" y1="249.4893" y2="245.4893"/><line style="stroke:#111827;stroke-width:2.0;" x1="471" x2="461" y1="249.4893" y2="253.4893"/><line style="stroke:#111827;stroke-width:2.0;" x1="192" x2="472" y1="249.4893" y2="249.4893"/><text fill="#000000" font-family="Arial" font-size="13" font-weight="bold" lengthAdjust="spacing" textLength="7" x="199" y="244.7344">2</text><text fill="#000000" font-family="Arial" font-size="13" lengthAdjust="spacing" textLength="4" x="206" y="244.7344">&#160;</text><a href="OperationDefinition-MOPED.Daten.Update.html" target="_top" title="OperationDefinition-MOPED.Daten.Update.html" xlink:actuate="onRequest" xlink:href="OperationDefinition-MOPED.Daten.Update.html" xlink:show="new" xlink:title="OperationDefinition-MOPED.Daten.Update.html" xlink:type="simple"><text fill="#0000EE" font-family="Arial" font-size="13" lengthAdjust="spacing" textLength="46" x="210" y="244.7344">$update</text></a><path d="M55,267.4893 L55,283.4893 A5,5 0 0 0 60,288.4893 L321,288.4893 A5,5 0 0 0 326,283.4893 L326,272.4893 L316,262.4893 L60,262.4893 A5,5 0 0 0 55,267.4893 " fill="url(#g8cadnu1vudqk0)" filter="url(#f8cadnu1vudqk)" style="stroke:#8B95A5;stroke-width:1.0;"/><path d="M316,262.4893 L316,269.9893 A2.5,2.5 0 0 0 318.5,272.4893 L326,272.4893 L316,262.4893 " fill="url(#g8cadnu1vudqk0)" style="stroke:#8B95A5;stroke-width:1.0;"/><text fill="#111827" font-family="Arial" font-size="14" lengthAdjust="spacing" textLength="250" x="61" y="280.6211">Verlegung auf Abteilung Innere Medizin</text><line style="stroke:#111827;stroke-width:2.0;" x1="471" x2="461" y1="317.5366" y2="313.5366"/><line style="stroke:#111827;stroke-width:2.0;" x1="471" x2="461" y1="317.5366" y2="321.5366"/><line style="stroke:#111827;stroke-width:2.0;" x1="192" x2="472" y1="317.5366" y2="317.5366"/><text fill="#000000" font-family="Arial" font-size="13" font-weight="bold" lengthAdjust="spacing" textLength="7" x="199" y="312.7817">3</text><text fill="#000000" font-family="Arial" font-size="13" lengthAdjust="spacing" textLength="4" x="206" y="312.7817">&#160;</text><a href="OperationDefinition-MOPED.Daten.Update.html" target="_top" title="OperationDefinition-MOPED.Daten.Update.html" xlink:actuate="onRequest" xlink:href="OperationDefinition-MOPED.Daten.Update.html" xlink:show="new" xlink:title="OperationDefinition-MOPED.Daten.Update.html" xlink:type="simple"><text fill="#0000EE" font-family="Arial" font-size="13" lengthAdjust="spacing" textLength="46" x="210" y="312.7817">$update</text></a><path d="M5,335.5366 L5,351.5366 A5,5 0 0 0 10,356.5366 L371,356.5366 A5,5 0 0 0 376,351.5366 L376,340.5366 L366,330.5366 L10,330.5366 A5,5 0 0 0 5,335.5366 " fill="url(#g8cadnu1vudqk0)" filter="url(#f8cadnu1vudqk)" style="stroke:#8B95A5;stroke-width:1.0;"/><path d="M366,330.5366 L366,338.0366 A2.5,2.5 0 0 0 368.5,340.5366 L376,340.5366 L366,330.5366 " fill="url(#g8cadnu1vudqk0)" style="stroke:#8B95A5;stroke-width:1.0;"/><text fill="#111827" font-family="Arial" font-size="14" lengthAdjust="spacing" textLength="350" x="11" y="348.6685">Diagnose "Herzinsuffizienz" und Leistung "EKG" erfasst</text><line style="stroke:#111827;stroke-width:2.0;" x1="471" x2="461" y1="385.584" y2="381.584"/><line style="stroke:#111827;stroke-width:2.0;" x1="471" x2="461" y1="385.584" y2="389.584"/><line style="stroke:#111827;stroke-width:2.0;" x1="192" x2="472" y1="385.584" y2="385.584"/><text fill="#000000" font-family="Arial" font-size="13" font-weight="bold" lengthAdjust="spacing" textLength="7" x="199" y="380.8291">4</text><text fill="#000000" font-family="Arial" font-size="13" lengthAdjust="spacing" textLength="4" x="206" y="380.8291">&#160;</text><a href="OperationDefinition-MOPED.Patient.Entlassen.html" target="_top" title="OperationDefinition-MOPED.Patient.Entlassen.html" xlink:actuate="onRequest" xlink:href="OperationDefinition-MOPED.Patient.Entlassen.html" xlink:show="new" xlink:title="OperationDefinition-MOPED.Patient.Entlassen.html" xlink:type="simple"><text fill="#0000EE" font-family="Arial" font-size="13" lengthAdjust="spacing" textLength="63" x="210" y="380.8291">$entlassen</text></a><path d="M75,403.584 L75,419.584 A5,5 0 0 0 80,424.584 L300,424.584 A5,5 0 0 0 305,419.584 L305,408.584 L295,398.584 L80,398.584 A5,5 0 0 0 75,403.584 " fill="url(#g8cadnu1vudqk0)" filter="url(#f8cadnu1vudqk)" style="stroke:#8B95A5;stroke-width:1.0;"/><path d="M295,398.584 L295,406.084 A2.5,2.5 0 0 0 297.5,408.584 L305,408.584 L295,398.584 " fill="url(#g8cadnu1vudqk0)" style="stroke:#8B95A5;stroke-width:1.0;"/><text fill="#111827" font-family="Arial" font-size="14" lengthAdjust="spacing" textLength="209" x="81" y="416.7158">Sven Selbstzahler wird entlassen</text><path d="M47,439.6826 L118,439.6826 L118,447.7813 L108,457.7813 L42,457.7813 L42,444.6826 A5,5 0 0 1 47,439.6826 " fill="#F3F4F6" style="stroke:#111827;stroke-width:1.5;"/><rect fill="none" height="270.4854" rx="5" ry="5" style="stroke:#111827;stroke-width:1.0;" width="959" x="42" y="439.6826"/><text fill="#000000" font-family="Arial" font-size="14" font-weight="bold" lengthAdjust="spacing" textLength="31" x="57" y="453.8145">loop</text><text fill="#000000" font-family="Arial" font-size="14" font-weight="bold" lengthAdjust="spacing" textLength="5" x="133" y="454.8145">[</text><a href="OperationDefinition-MOPED.Encounter.Abrechnen.html" target="_top" title="OperationDefinition-MOPED.Encounter.Abrechnen.html" xlink:actuate="onRequest" xlink:href="OperationDefinition-MOPED.Encounter.Abrechnen.html" xlink:show="new" xlink:title="OperationDefinition-MOPED.Encounter.Abrechnen.html" xlink:type="simple"><text fill="#0000EE" font-family="Arial" font-size="14" font-weight="bold" lengthAdjust="spacing" textLength="81" x="138" y="454.8145">$abrechnen</text></a><text fill="#000000" font-family="Arial" font-size="14" font-weight="bold" lengthAdjust="spacing" textLength="4" x="223" y="454.8145">/</text><a href="OperationDefinition-MOPED.Abrechnung.Genehmigen.html" target="_top" title="OperationDefinition-MOPED.Abrechnung.Genehmigen.html" xlink:actuate="onRequest" xlink:href="OperationDefinition-MOPED.Abrechnung.Genehmigen.html" xlink:show="new" xlink:title="OperationDefinition-MOPED.Abrechnung.Genehmigen.html" xlink:type="simple"><text fill="#0000EE" font-family="Arial" font-size="14" font-weight="bold" lengthAdjust="spacing" textLength="93" x="231" y="454.8145">$genehmigen</text></a><text fill="#000000" font-family="Arial" font-size="14" font-weight="bold" lengthAdjust="spacing" textLength="76" x="328" y="454.8145">(vorl&#228;ufig)]</text><line style="stroke:#111827;stroke-width:2.0;" x1="471" x2="461" y1="479.8286" y2="475.8286"/><line style="stroke:#111827;stroke-width:2.0;" x1="471" x2="461" y1="479.8286" y2="483.8286"/><line style="stroke:#111827;stroke-width:2.0;" x1="192" x2="472" y1="479.8286" y2="479.8286"/><text fill="#000000" font-family="Arial" font-size="13" font-weight="bold" lengthAdjust="spacing" textLength="7" x="199" y="475.0737">5</text><text fill="#000000" font-family="Arial" font-size="13" lengthAdjust="spacing" textLength="4" x="206" y="475.0737">&#160;</text><a href="OperationDefinition-MOPED.Encounter.Abrechnen.html" target="_top" title="OperationDefinition-MOPED.Encounter.Abrechnen.html" xlink:actuate="onRequest" xlink:href="OperationDefinition-MOPED.Encounter.Abrechnen.html" xlink:show="new" xlink:title="OperationDefinition-MOPED.Encounter.Abrechnen.html" xlink:type="simple"><text fill="#0000EE" font-family="Arial" font-size="13" lengthAdjust="spacing" textLength="67" x="210" y="475.0737">$abrechnen</text></a><path d="M52,497.8286 L52,513.8286 A5,5 0 0 0 57,518.8286 L324,518.8286 A5,5 0 0 0 329,513.8286 L329,502.8286 L319,492.8286 L57,492.8286 A5,5 0 0 0 52,497.8286 " fill="url(#g8cadnu1vudqk0)" filter="url(#f8cadnu1vudqk)" style="stroke:#8B95A5;stroke-width:1.0;"/><path d="M319,492.8286 L319,500.3286 A2.5,2.5 0 0 0 321.5,502.8286 L329,502.8286 L319,492.8286 " fill="url(#g8cadnu1vudqk0)" style="stroke:#8B95A5;stroke-width:1.0;"/><text fill="#111827" font-family="Arial" font-size="14" lengthAdjust="spacing" textLength="256" x="58" y="510.9604">Abrechnung aller Leistungen eingereicht</text><line style="stroke:#111827;stroke-width:2.0;" x1="474" x2="484" y1="562.8247" y2="558.8247"/><line style="stroke:#111827;stroke-width:2.0;" x1="474" x2="484" y1="562.8247" y2="566.8247"/><line style="stroke:#111827;stroke-width:2.0;" x1="473" x2="850" y1="562.8247" y2="562.8247"/><text fill="#000000" font-family="Arial" font-size="13" font-weight="bold" lengthAdjust="spacing" textLength="14" x="490" y="543.1211">6a</text><text fill="#000000" font-family="Arial" font-size="13" lengthAdjust="spacing" textLength="219" x="508" y="543.1211">GET Claim?status=active&amp;use=claim</text><text fill="#000000" font-family="Arial" font-size="13" lengthAdjust="spacing" textLength="284" x="490" y="558.0698">&amp;_has:ClaimResponse:request:status:not=active</text><path d="M710,580.8247 L710,612.8247 A5,5 0 0 0 715,617.8247 L983,617.8247 A5,5 0 0 0 988,612.8247 L988,585.8247 L978,575.8247 L715,575.8247 A5,5 0 0 0 710,580.8247 " fill="url(#g8cadnu1vudqk0)" filter="url(#f8cadnu1vudqk)" style="stroke:#8B95A5;stroke-width:1.0;"/><path d="M978,575.8247 L978,583.3247 A2.5,2.5 0 0 0 980.5,585.8247 L988,585.8247 L978,575.8247 " fill="url(#g8cadnu1vudqk0)" style="stroke:#8B95A5;stroke-width:1.0;"/><text fill="#111827" font-family="Arial" font-size="14" lengthAdjust="spacing" textLength="257" x="716" y="593.9565">unbeantwortete Abrechnungen abfragen</text><text fill="#111827" font-family="Arial" font-size="14" lengthAdjust="spacing" textLength="136" x="716" y="610.0552">und intern bearbeiten</text><line style="stroke:#111827;stroke-width:2.0;" x1="474" x2="484" y1="646.9707" y2="642.9707"/><line style="stroke:#111827;stroke-width:2.0;" x1="474" x2="484" y1="646.9707" y2="650.9707"/><line style="stroke:#111827;stroke-width:2.0;" x1="473" x2="850" y1="646.9707" y2="646.9707"/><text fill="#000000" font-family="Arial" font-size="13" font-weight="bold" lengthAdjust="spacing" textLength="15" x="490" y="642.2158">6b</text><text fill="#000000" font-family="Arial" font-size="13" lengthAdjust="spacing" textLength="4" x="505" y="642.2158">&#160;</text><a href="OperationDefinition-MOPED.Abrechnung.Genehmigen.html" target="_top" title="OperationDefinition-MOPED.Abrechnung.Genehmigen.html" xlink:actuate="onRequest" xlink:href="OperationDefinition-MOPED.Abrechnung.Genehmigen.html" xlink:show="new" xlink:title="OperationDefinition-MOPED.Abrechnung.Genehmigen.html" xlink:type="simple"><text fill="#0000EE" font-family="Arial" font-size="13" lengthAdjust="spacing" textLength="77" x="509" y="642.2158">$genehmigen</text></a><path d="M768,664.9707 L768,696.9707 A5,5 0 0 0 773,701.9707 L926,701.9707 A5,5 0 0 0 931,696.9707 L931,669.9707 L921,659.9707 L773,659.9707 A5,5 0 0 0 768,664.9707 " fill="url(#g8cadnu1vudqk0)" filter="url(#f8cadnu1vudqk)" style="stroke:#8B95A5;stroke-width:1.0;"/><path d="M921,659.9707 L921,667.4707 A2.5,2.5 0 0 0 923.5,669.9707 L931,669.9707 L921,659.9707 " fill="url(#g8cadnu1vudqk0)" style="stroke:#8B95A5;stroke-width:1.0;"/><text fill="#111827" font-family="Arial" font-size="14" lengthAdjust="spacing" textLength="142" x="774" y="678.1025">Alle Posten genehmigt</text><text fill="#111827" font-family="Arial" font-size="14" lengthAdjust="spacing" textLength="126" x="774" y="694.2012">(keine &#196;nderungen)</text><line style="stroke:#111827;stroke-width:2.0;" x1="471" x2="461" y1="738.1167" y2="734.1167"/><line style="stroke:#111827;stroke-width:2.0;" x1="471" x2="461" y1="738.1167" y2="742.1167"/><line style="stroke:#111827;stroke-width:2.0;" x1="192" x2="472" y1="738.1167" y2="738.1167"/><text fill="#000000" font-family="Arial" font-size="13" font-weight="bold" lengthAdjust="spacing" textLength="14" x="199" y="733.3618">7a</text><text fill="#000000" font-family="Arial" font-size="13" lengthAdjust="spacing" textLength="146" x="217" y="733.3618">GET Composition?id={id}</text><path d="M70,756.1167 L70,788.1167 A5,5 0 0 0 75,793.1167 L306,793.1167 A5,5 0 0 0 311,788.1167 L311,761.1167 L301,751.1167 L75,751.1167 A5,5 0 0 0 70,756.1167 " fill="url(#g8cadnu1vudqk0)" filter="url(#f8cadnu1vudqk)" style="stroke:#8B95A5;stroke-width:1.0;"/><path d="M301,751.1167 L301,758.6167 A2.5,2.5 0 0 0 303.5,761.1167 L311,761.1167 L301,751.1167 " fill="url(#g8cadnu1vudqk0)" style="stroke:#8B95A5;stroke-width:1.0;"/><text fill="#111827" font-family="Arial" font-size="14" lengthAdjust="spacing" textLength="220" x="76" y="769.2485">aktuellen Stand des Falls abfragen</text><text fill="#111827" font-family="Arial" font-size="14" lengthAdjust="spacing" textLength="182" x="76" y="785.3472">(inkl. best&#228;tigte Abrechnung)</text><line style="stroke:#111827;stroke-width:2.0;" x1="471" x2="461" y1="822.2627" y2="818.2627"/><line style="stroke:#111827;stroke-width:2.0;" x1="471" x2="461" y1="822.2627" y2="826.2627"/><line style="stroke:#111827;stroke-width:2.0;" x1="192" x2="472" y1="822.2627" y2="822.2627"/><text fill="#000000" font-family="Arial" font-size="13" font-weight="bold" lengthAdjust="spacing" textLength="15" x="199" y="817.5078">7b</text><text fill="#000000" font-family="Arial" font-size="13" lengthAdjust="spacing" textLength="24" x="222" y="817.5078">final</text><a href="OperationDefinition-MOPED.Encounter.Abrechnen.html" target="_top" title="OperationDefinition-MOPED.Encounter.Abrechnen.html" xlink:actuate="onRequest" xlink:href="OperationDefinition-MOPED.Encounter.Abrechnen.html" xlink:show="new" xlink:title="OperationDefinition-MOPED.Encounter.Abrechnen.html" xlink:type="simple"><text fill="#0000EE" font-family="Arial" font-size="13" lengthAdjust="spacing" textLength="67" x="250" y="817.5078">$abrechnen</text></a><path d="M72,840.2627 L72,856.2627 A5,5 0 0 0 77,861.2627 L304,861.2627 A5,5 0 0 0 309,856.2627 L309,845.2627 L299,835.2627 L77,835.2627 A5,5 0 0 0 72,840.2627 " fill="url(#g8cadnu1vudqk0)" filter="url(#f8cadnu1vudqk)" style="stroke:#8B95A5;stroke-width:1.0;"/><path d="M299,835.2627 L299,842.7627 A2.5,2.5 0 0 0 301.5,845.2627 L309,845.2627 L299,835.2627 " fill="url(#g8cadnu1vudqk0)" style="stroke:#8B95A5;stroke-width:1.0;"/><text fill="#111827" font-family="Arial" font-size="14" lengthAdjust="spacing" textLength="216" x="78" y="853.3945">Finale Abrechnung seitens der KA</text><line style="stroke:#111827;stroke-width:2.0;" x1="474" x2="484" y1="905.2588" y2="901.2588"/><line style="stroke:#111827;stroke-width:2.0;" x1="474" x2="484" y1="905.2588" y2="909.2588"/><line style="stroke:#111827;stroke-width:2.0;" x1="473" x2="850" y1="905.2588" y2="905.2588"/><text fill="#000000" font-family="Arial" font-size="13" font-weight="bold" lengthAdjust="spacing" textLength="14" x="490" y="885.5552">8a</text><text fill="#000000" font-family="Arial" font-size="13" lengthAdjust="spacing" textLength="282" x="508" y="885.5552">GET Claim?status=active&amp;use=claim&amp;final=true</text><text fill="#000000" font-family="Arial" font-size="13" lengthAdjust="spacing" textLength="284" x="490" y="900.5039">&amp;_has:ClaimResponse:request:status:not=active</text><path d="M710,923.2588 L710,955.2588 A5,5 0 0 0 715,960.2588 L983,960.2588 A5,5 0 0 0 988,955.2588 L988,928.2588 L978,918.2588 L715,918.2588 A5,5 0 0 0 710,923.2588 " fill="url(#g8cadnu1vudqk0)" filter="url(#f8cadnu1vudqk)" style="stroke:#8B95A5;stroke-width:1.0;"/><path d="M978,918.2588 L978,925.7588 A2.5,2.5 0 0 0 980.5,928.2588 L988,928.2588 L978,918.2588 " fill="url(#g8cadnu1vudqk0)" style="stroke:#8B95A5;stroke-width:1.0;"/><text fill="#111827" font-family="Arial" font-size="14" lengthAdjust="spacing" textLength="257" x="716" y="936.3906">unbeantwortete Abrechnungen abfragen</text><text fill="#111827" font-family="Arial" font-size="14" lengthAdjust="spacing" textLength="136" x="716" y="952.4893">und intern bearbeiten</text><line style="stroke:#111827;stroke-width:2.0;" x1="474" x2="484" y1="989.4048" y2="985.4048"/><line style="stroke:#111827;stroke-width:2.0;" x1="474" x2="484" y1="989.4048" y2="993.4048"/><line style="stroke:#111827;stroke-width:2.0;" x1="473" x2="850" y1="989.4048" y2="989.4048"/><text fill="#000000" font-family="Arial" font-size="13" font-weight="bold" lengthAdjust="spacing" textLength="15" x="490" y="984.6499">8b</text><text fill="#000000" font-family="Arial" font-size="13" lengthAdjust="spacing" textLength="24" x="509" y="984.6499">final</text><a href="OperationDefinition-MOPED.Abrechnung.Genehmigen.html" target="_top" title="OperationDefinition-MOPED.Abrechnung.Genehmigen.html" xlink:actuate="onRequest" xlink:href="OperationDefinition-MOPED.Abrechnung.Genehmigen.html" xlink:show="new" xlink:title="OperationDefinition-MOPED.Abrechnung.Genehmigen.html" xlink:type="simple"><text fill="#0000EE" font-family="Arial" font-size="13" lengthAdjust="spacing" textLength="77" x="537" y="984.6499">$genehmigen</text></a><path d="M758,1007.4048 L758,1039.4048 A5,5 0 0 0 763,1044.4048 L935,1044.4048 A5,5 0 0 0 940,1039.4048 L940,1012.4048 L930,1002.4048 L763,1002.4048 A5,5 0 0 0 758,1007.4048 " fill="url(#g8cadnu1vudqk0)" filter="url(#f8cadnu1vudqk)" style="stroke:#8B95A5;stroke-width:1.0;"/><path d="M930,1002.4048 L930,1009.9048 A2.5,2.5 0 0 0 932.5,1012.4048 L940,1012.4048 L930,1002.4048 " fill="url(#g8cadnu1vudqk0)" style="stroke:#8B95A5;stroke-width:1.0;"/><text fill="#111827" font-family="Arial" font-size="14" lengthAdjust="spacing" textLength="157" x="764" y="1020.5366">Endg&#252;ltige Entscheidung</text><text fill="#111827" font-family="Arial" font-size="14" lengthAdjust="spacing" textLength="101" x="764" y="1036.6353">zur Abrechnung</text><line style="stroke:#111827;stroke-width:2.0;" x1="474" x2="484" y1="1073.5508" y2="1069.5508"/><line style="stroke:#111827;stroke-width:2.0;" x1="474" x2="484" y1="1073.5508" y2="1077.5508"/><line style="stroke:#111827;stroke-width:2.0;" x1="473" x2="1064.5" y1="1073.5508" y2="1073.5508"/><text fill="#000000" font-family="Arial" font-size="13" font-weight="bold" lengthAdjust="spacing" textLength="7" x="490" y="1068.7959">9</text><text fill="#000000" font-family="Arial" font-size="13" lengthAdjust="spacing" textLength="178" x="505" y="1068.7959">GET Composition?status=final</text><path d="M960,1091.5508 L960,1107.5508 A5,5 0 0 0 965,1112.5508 L1162,1112.5508 A5,5 0 0 0 1167,1107.5508 L1167,1096.5508 L1157,1086.5508 L965,1086.5508 A5,5 0 0 0 960,1091.5508 " fill="url(#g8cadnu1vudqk0)" filter="url(#f8cadnu1vudqk)" style="stroke:#8B95A5;stroke-width:1.0;"/><path d="M1157,1086.5508 L1157,1094.0508 A2.5,2.5 0 0 0 1159.5,1096.5508 L1167,1096.5508 L1157,1086.5508 " fill="url(#g8cadnu1vudqk0)" style="stroke:#8B95A5;stroke-width:1.0;"/><text fill="#111827" font-family="Arial" font-size="14" lengthAdjust="spacing" textLength="186" x="966" y="1104.6826">Zugriff auf finale Composition</text><path d="M365,1130.6494 L365,1146.6494 A5,5 0 0 0 370,1151.6494 L572,1151.6494 A5,5 0 0 0 577,1146.6494 L577,1135.6494 L567,1125.6494 L370,1125.6494 A5,5 0 0 0 365,1130.6494 " fill="url(#g8cadnu1vudqk0)" filter="url(#f8cadnu1vudqk)" style="stroke:#8B95A5;stroke-width:1.0;"/><path d="M567,1125.6494 L567,1133.1494 A2.5,2.5 0 0 0 569.5,1135.6494 L577,1135.6494 L567,1125.6494 " fill="url(#g8cadnu1vudqk0)" style="stroke:#8B95A5;stroke-width:1.0;"/><text fill="#111827" font-family="Arial" font-size="14" lengthAdjust="spacing" textLength="191" x="371" y="1143.7813">Fall f&#252;r Moped abgeschlossen</text><!--SRC=[hLRTRjis5BxNKn3k4DX0uyP9d1-ZIU4aZhivQOscxSMQOA2a8ucmJ7eabMGkUhTds1FaCNhd5ziXPScKuoKU4Fd24db-llET7rAD69zGISV45p84UIfI8SchBVjuQh5BWr4iHSR3kKJKDZz7GYKq57UCnoIYgG9dPwucEKZISes64D4irUU2wmzq3AJMbOocjTKILsmAfBMxUhCAsv7XGWFvxX5oiXm0R44xsjfy5RR2GzWp4Yu11_vXcxRBrSy92qOSb28jNFla17I0tqCQXYPmOyL1qsgr3hRtSUsgf4RB3BmVBi3tVqr0feoFd11wlLK2NtXeNs1EiCiz_9a13_98XrHg5h09vReIKji-ImAFqcgVgj1ZWXzj5ycfR1IqR1k5hfJYRfaOkxZWThjOMkMntCXzxU1I7v5FAZ6MblEjHz7jHBlHNbNJJMqbCoVYtecWihwALyyNzwHspGaPT4dzFSWf-GrKHWQIyX7mX6QgGKZDT0wq3myH10qqwgCqLQGswDOyu26suRrZoZwNOWBX_1trWtQqxrFKdooe9fT3QyMAhZPqzPNKP__q1w-RpMQZCBLbVYKK53562id62aCN_NDIlw1OYYh6w7YO0DCg4ZmiejiFjoowtAIHDpQVqllFmCa92f95v57Wx_WxfMsxQuoR5yV8eBjvV8oCTDxwnwstR_nZyktRHsmYgfdWPn0npipRvkN7OU-iESHbuBhPpI8EoHXuCz7ZbFn2Y- -R6yzE4N4B9biTSdKBd5n1wYizfKcAgtTCXaHfws3s80dgni356BLVOpHWcjPLs3mrncWC16H4bTBacfjWHbPocYazU-0Xm_sl81KB4f0PbY4o1tggvn7c0Mu_6-0PrHZKbqc8__FOClk1WNse18REKeYD9mo0T7qDB3LVltAST40k8MHJnYlkTrxG_HcZCHSApm7JFOohB8hG8V1fZHXsBe0fRV3KUeD-hQ2k0cTtxNJtk4vHlKmt5D_hfhjKy3ml5MBofDSU3t0CQP3DhYyXIFYYp8hlcnlovaaRSqqaeDa7KvfO7uMLk5n0C_LR8TFPGnQnkE6Prd48QZzBq7fGhTrg-XRu24qDJKM-m7P0Z2M4bQoj9ew34j8UjPZwlS_aDALi_CuqKgQEiCdPBMna2eu2itxDD_v8gEfOeK-W9e8hw4Xpz2dToPKwcBgvuX92zDZ1Al81f-MTa1fmOu4O8L8_CXt9yqvaXW5EK5pwEAamouzW-yzIkMx6La7j8eLaA1Iw9eMilkRrV4JC_ZQN0GkyOGQVsmFx3fzYF17AGdh7mgFlBFonr7Dqf3D0LrZX6gSptgaKESVqAOUFEbu-qYPoOSQIHXWkSusAwvmJWZpGz2Mgh0hst9XrdUF5n-H68MmZuRdvELYph3Ois2DpC_k_5VQ2rLL1dhFuF8bhrzSIq1uFuzdFL9i31kUWmlE5XOREQpxDfCklPuxM4jXXdjtbofeJQ_4whengX_oUnP95aJrHeZn_ZgxdoACFMteaclsKyqiFzV7C2v9Ks47xBm00]--></g></svg>