<?xml version="1.0" encoding="us-ascii" standalone="no"?><svg xmlns="http://www.w3.org/2000/svg" xmlns:xlink="http://www.w3.org/1999/xlink" contentStyleType="text/css" height="1761px" preserveAspectRatio="none" style="width:1397px;height:1761px;background:#F5F5F5;" version="1.1" viewBox="0 0 1397 1761" width="1397px" zoomAndPan="magnify"><defs><linearGradient id="g1kac8645chzfs0" x1="50%" x2="50%" y1="0%" y2="100%"><stop offset="0%" stop-color="#E0E5F0"/><stop offset="100%" stop-color="#D1D9E6"/></linearGradient><filter height="300%" id="f1kac8645chzfs" width="300%" x="-1" y="-1"><feGaussianBlur result="blurOut" stdDeviation="2.0"/><feColorMatrix in="blurOut" result="blurOut2" type="matrix" values="0 0 0 0 0 0 0 0 0 0 0 0 0 0 0 0 0 0 .4 0"/><feOffset dx="4.0" dy="4.0" in="blurOut2" result="blurOut3"/><feBlend in="SourceGraphic" in2="blurOut3" mode="normal"/></filter></defs><g><rect fill="#F5F5F5" height="1761" style="stroke:none;stroke-width:1.0;" width="1397" x="0" y="0"/><rect fill="#F5E599" height="1749.8213" rx="5" ry="5" style="stroke:#181818;stroke-width:0.5;" width="218" x="55" y="6"/><text fill="#000000" font-family="Arial" font-size="14" font-weight="bold" lengthAdjust="spacing" textLength="4" x="58" y="19.1318">&#160;</text><text fill="#000000" font-family="Arial" font-size="14" font-weight="bold" lengthAdjust="spacing" textLength="196" x="66" y="35.2305">KA (Herz Jesu Krankenhaus)</text><rect fill="#C5F7BA" height="1749.8213" rx="5" ry="5" style="stroke:#181818;stroke-width:0.5;" width="109" x="390.5" y="6"/><text fill="#000000" font-family="Arial" font-size="14" font-weight="bold" lengthAdjust="spacing" textLength="4" x="393.5" y="19.1318">&#160;</text><text fill="#000000" font-family="Arial" font-size="14" font-weight="bold" lengthAdjust="spacing" textLength="47" x="421.5" y="35.2305">Moped</text><rect fill="#BAC4F7" height="1749.8213" rx="5" ry="5" style="stroke:#181818;stroke-width:0.5;" width="118" x="790" y="6"/><text fill="#000000" font-family="Arial" font-size="14" font-weight="bold" lengthAdjust="spacing" textLength="4" x="793" y="19.1318">&#160;</text><text fill="#000000" font-family="Arial" font-size="14" font-weight="bold" lengthAdjust="spacing" textLength="80" x="809" y="35.2305">SV (&#214;GK,...)</text><rect fill="#F7D0BA" height="1749.8213" rx="5" ry="5" style="stroke:#181818;stroke-width:0.5;" width="238" x="950" y="6"/><text fill="#000000" font-family="Arial" font-size="14" font-weight="bold" lengthAdjust="spacing" textLength="4" x="953" y="19.1318">&#160;</text><text fill="#000000" font-family="Arial" font-size="14" font-weight="bold" lengthAdjust="spacing" textLength="220" x="957" y="35.2305">LGF (Landesgesundheitsfonds)</text><rect fill="#FCB3B3" height="1749.8213" rx="5" ry="5" style="stroke:#181818;stroke-width:0.5;" width="107" x="1230" y="6"/><text fill="#000000" font-family="Arial" font-size="14" font-weight="bold" lengthAdjust="spacing" textLength="4" x="1233" y="19.1318">&#160;</text><text fill="#000000" font-family="Arial" font-size="14" font-weight="bold" lengthAdjust="spacing" textLength="37" x="1265" y="35.2305">Bund</text><rect fill="none" height="270.4854" rx="5" ry="5" style="stroke:#111827;stroke-width:1.0;" width="1205" x="14" y="823.4126"/><line style="stroke:#181818;stroke-width:0.5;stroke-dasharray:5.0,5.0;" x1="163.5" x2="163.5" y1="118.2959" y2="1676.7227"/><line style="stroke:#181818;stroke-width:0.5;stroke-dasharray:5.0,5.0;" x1="445" x2="445" y1="118.2959" y2="1676.7227"/><line style="stroke:#181818;stroke-width:0.5;stroke-dasharray:5.0,5.0;" x1="848.5" x2="848.5" y1="118.2959" y2="1676.7227"/><line style="stroke:#181818;stroke-width:0.5;stroke-dasharray:5.0,5.0;" x1="1068.5" x2="1068.5" y1="118.2959" y2="1676.7227"/><line style="stroke:#181818;stroke-width:0.5;stroke-dasharray:5.0,5.0;" x1="1283" x2="1283" y1="118.2959" y2="1676.7227"/><text fill="#000000" font-family="Arial" font-size="14" lengthAdjust="spacing" textLength="18" x="152" y="115.3291">KA</text><ellipse cx="164" cy="50.6973" fill="#E2E2F0" rx="8" ry="8" style="stroke:#181818;stroke-width:0.5;"/><path d="M164,58.6973 L164,85.6973 M151,66.6973 L177,66.6973 M164,85.6973 L151,100.6973 M164,85.6973 L177,100.6973 " fill="none" style="stroke:#181818;stroke-width:0.5;"/><text fill="#000000" font-family="Arial" font-size="14" lengthAdjust="spacing" textLength="18" x="152" y="1688.8545">KA</text><ellipse cx="164" cy="1700.3213" fill="#E2E2F0" rx="8" ry="8" style="stroke:#181818;stroke-width:0.5;"/><path d="M164,1708.3213 L164,1735.3213 M151,1716.3213 L177,1716.3213 M164,1735.3213 L151,1750.3213 M164,1735.3213 L177,1750.3213 " fill="none" style="stroke:#181818;stroke-width:0.5;"/><rect fill="#FFFFFF" height="30.0986" rx="5" ry="5" style="stroke:#555555;stroke-width:0.5;" width="58" x="416" y="87.1973"/><text fill="#000000" font-family="Arial" font-size="14" lengthAdjust="spacing" textLength="44" x="423" y="107.3291">Moped</text><rect fill="#FFFFFF" height="30.0986" rx="5" ry="5" style="stroke:#555555;stroke-width:0.5;" width="58" x="416" y="1675.7227"/><text fill="#000000" font-family="Arial" font-size="14" lengthAdjust="spacing" textLength="44" x="423" y="1695.8545">Moped</text><text fill="#000000" font-family="Arial" font-size="14" lengthAdjust="spacing" textLength="63" x="814.5" y="115.3291">SV (&#214;GK)</text><ellipse cx="849" cy="50.6973" fill="#E2E2F0" rx="8" ry="8" style="stroke:#181818;stroke-width:0.5;"/><path d="M849,58.6973 L849,85.6973 M836,66.6973 L862,66.6973 M849,85.6973 L836,100.6973 M849,85.6973 L862,100.6973 " fill="none" style="stroke:#181818;stroke-width:0.5;"/><text fill="#000000" font-family="Arial" font-size="14" lengthAdjust="spacing" textLength="63" x="814.5" y="1688.8545">SV (&#214;GK)</text><ellipse cx="849" cy="1700.3213" fill="#E2E2F0" rx="8" ry="8" style="stroke:#181818;stroke-width:0.5;"/><path d="M849,1708.3213 L849,1735.3213 M836,1716.3213 L862,1716.3213 M849,1735.3213 L836,1750.3213 M849,1735.3213 L862,1750.3213 " fill="none" style="stroke:#181818;stroke-width:0.5;"/><text fill="#000000" font-family="Arial" font-size="14" lengthAdjust="spacing" textLength="201" x="965.5" y="115.3291">LGF (Landesgesundheitsfonds)</text><ellipse cx="1069" cy="50.6973" fill="#E2E2F0" rx="8" ry="8" style="stroke:#181818;stroke-width:0.5;"/><path d="M1069,58.6973 L1069,85.6973 M1056,66.6973 L1082,66.6973 M1069,85.6973 L1056,100.6973 M1069,85.6973 L1082,100.6973 " fill="none" style="stroke:#181818;stroke-width:0.5;"/><text fill="#000000" font-family="Arial" font-size="14" lengthAdjust="spacing" textLength="201" x="965.5" y="1688.8545">LGF (Landesgesundheitsfonds)</text><ellipse cx="1069" cy="1700.3213" fill="#E2E2F0" rx="8" ry="8" style="stroke:#181818;stroke-width:0.5;"/><path d="M1069,1708.3213 L1069,1735.3213 M1056,1716.3213 L1082,1716.3213 M1069,1735.3213 L1056,1750.3213 M1069,1735.3213 L1082,1750.3213 " fill="none" style="stroke:#181818;stroke-width:0.5;"/><text fill="#000000" font-family="Arial" font-size="14" lengthAdjust="spacing" textLength="33" x="1264" y="115.3291">Bund</text><ellipse cx="1283.5" cy="50.6973" fill="#E2E2F0" rx="8" ry="8" style="stroke:#181818;stroke-width:0.5;"/><path d="M1283.5,58.6973 L1283.5,85.6973 M1270.5,66.6973 L1296.5,66.6973 M1283.5,85.6973 L1270.5,100.6973 M1283.5,85.6973 L1296.5,100.6973 " fill="none" style="stroke:#181818;stroke-width:0.5;"/><text fill="#000000" font-family="Arial" font-size="14" lengthAdjust="spacing" textLength="33" x="1264" y="1688.8545">Bund</text><ellipse cx="1283.5" cy="1700.3213" fill="#E2E2F0" rx="8" ry="8" style="stroke:#181818;stroke-width:0.5;"/><path d="M1283.5,1708.3213 L1283.5,1735.3213 M1270.5,1716.3213 L1296.5,1716.3213 M1283.5,1735.3213 L1270.5,1750.3213 M1283.5,1735.3213 L1296.5,1750.3213 " fill="none" style="stroke:#181818;stroke-width:0.5;"/><line style="stroke:#111827;stroke-width:2.0;" x1="443" x2="433" y1="149.2446" y2="145.2446"/><line style="stroke:#111827;stroke-width:2.0;" x1="443" x2="433" y1="149.2446" y2="153.2446"/><line style="stroke:#111827;stroke-width:2.0;" x1="164" x2="444" y1="149.2446" y2="149.2446"/><text fill="#000000" font-family="Arial" font-size="13" font-weight="bold" lengthAdjust="spacing" textLength="7" x="171" y="144.4897">1</text><text fill="#000000" font-family="Arial" font-size="13" lengthAdjust="spacing" textLength="4" x="178" y="144.4897">&#160;</text><a href="OperationDefinition-MOPED.Patient.Aufnehmen.html" target="_top" title="OperationDefinition-MOPED.Patient.Aufnehmen.html" xlink:actuate="onRequest" xlink:href="OperationDefinition-MOPED.Patient.Aufnehmen.html" xlink:show="new" xlink:title="OperationDefinition-MOPED.Patient.Aufnehmen.html" xlink:type="simple"><text fill="#0000EE" font-family="Arial" font-size="13" lengthAdjust="spacing" textLength="71" x="182" y="144.4897">$aufnehmen</text></a><path d="M21,167.2446 L21,215.2446 A5,5 0 0 0 26,220.2446 L299,220.2446 A5,5 0 0 0 304,215.2446 L304,172.2446 L294,162.2446 L26,162.2446 A5,5 0 0 0 21,167.2446 " fill="url(#g1kac8645chzfs0)" filter="url(#f1kac8645chzfs)" style="stroke:#8B95A5;stroke-width:1.0;"/><path d="M294,162.2446 L294,169.7446 A2.5,2.5 0 0 0 296.5,172.2446 L304,172.2446 L294,162.2446 " fill="url(#g1kac8645chzfs0)" style="stroke:#8B95A5;stroke-width:1.0;"/><text fill="#111827" font-family="Arial" font-size="14" lengthAdjust="spacing" textLength="223" x="27" y="180.3765">Patientin Amanda Ambulant kommt</text><text fill="#111827" font-family="Arial" font-size="14" lengthAdjust="spacing" textLength="258" x="31" y="196.4751">in die Unfallambulanz und die &#214;GK Wien</text><text fill="#111827" font-family="Arial" font-size="14" lengthAdjust="spacing" textLength="259" x="27" y="212.5737">wird als zust&#228;ndige Versicherung gesetzt</text><line style="stroke:#111827;stroke-width:2.0;" x1="443" x2="433" y1="249.4893" y2="245.4893"/><line style="stroke:#111827;stroke-width:2.0;" x1="443" x2="433" y1="249.4893" y2="253.4893"/><line style="stroke:#111827;stroke-width:2.0;" x1="164" x2="444" y1="249.4893" y2="249.4893"/><text fill="#000000" font-family="Arial" font-size="13" font-weight="bold" lengthAdjust="spacing" textLength="7" x="171" y="244.7344">2</text><text fill="#000000" font-family="Arial" font-size="13" lengthAdjust="spacing" textLength="4" x="178" y="244.7344">&#160;</text><a href="OperationDefinition-MOPED.VAERequest.Anfragen.html" target="_top" title="OperationDefinition-MOPED.VAERequest.Anfragen.html" xlink:actuate="onRequest" xlink:href="OperationDefinition-MOPED.VAERequest.Anfragen.html" xlink:show="new" xlink:title="OperationDefinition-MOPED.VAERequest.Anfragen.html" xlink:type="simple"><text fill="#0000EE" font-family="Arial" font-size="13" lengthAdjust="spacing" textLength="57" x="182" y="244.7344">$anfragen</text></a><path d="M5,267.4893 L5,283.4893 A5,5 0 0 0 10,288.4893 L316,288.4893 A5,5 0 0 0 321,283.4893 L321,272.4893 L311,262.4893 L10,262.4893 A5,5 0 0 0 5,267.4893 " fill="url(#g1kac8645chzfs0)" filter="url(#f1kac8645chzfs)" style="stroke:#8B95A5;stroke-width:1.0;"/><path d="M311,262.4893 L311,269.9893 A2.5,2.5 0 0 0 313.5,272.4893 L321,272.4893 L311,262.4893 " fill="url(#g1kac8645chzfs0)" style="stroke:#8B95A5;stroke-width:1.0;"/><text fill="#111827" font-family="Arial" font-size="14" lengthAdjust="spacing" textLength="295" x="11" y="280.6211">Anfrage auf Versicherungsanspruchserkl&#228;rung</text><line style="stroke:#111827;stroke-width:2.0;" x1="446" x2="456" y1="332.4854" y2="328.4854"/><line style="stroke:#111827;stroke-width:2.0;" x1="446" x2="456" y1="332.4854" y2="336.4854"/><line style="stroke:#111827;stroke-width:2.0;" x1="445" x2="848" y1="332.4854" y2="332.4854"/><text fill="#000000" font-family="Arial" font-size="13" font-weight="bold" lengthAdjust="spacing" textLength="14" x="462" y="312.7817">3a</text><text fill="#000000" font-family="Arial" font-size="13" lengthAdjust="spacing" textLength="280" x="480" y="312.7817">GET Claim?status=active&amp;use=preauthorization</text><text fill="#000000" font-family="Arial" font-size="13" lengthAdjust="spacing" textLength="284" x="462" y="327.7305">&amp;_has:ClaimResponse:request:status:not=active</text><path d="M750,350.4854 L750,382.4854 A5,5 0 0 0 755,387.4854 L939,387.4854 A5,5 0 0 0 944,382.4854 L944,355.4854 L934,345.4854 L755,345.4854 A5,5 0 0 0 750,350.4854 " fill="url(#g1kac8645chzfs0)" filter="url(#f1kac8645chzfs)" style="stroke:#8B95A5;stroke-width:1.0;"/><path d="M934,345.4854 L934,352.9854 A2.5,2.5 0 0 0 936.5,355.4854 L944,355.4854 L934,345.4854 " fill="url(#g1kac8645chzfs0)" style="stroke:#8B95A5;stroke-width:1.0;"/><text fill="#111827" font-family="Arial" font-size="14" lengthAdjust="spacing" textLength="173" x="756" y="363.6172">alle offenen VAEs abfragen</text><text fill="#111827" font-family="Arial" font-size="14" lengthAdjust="spacing" textLength="136" x="756" y="379.7158">und intern bearbeiten</text><line style="stroke:#111827;stroke-width:2.0;" x1="446" x2="456" y1="416.6313" y2="412.6313"/><line style="stroke:#111827;stroke-width:2.0;" x1="446" x2="456" y1="416.6313" y2="420.6313"/><line style="stroke:#111827;stroke-width:2.0;" x1="445" x2="848" y1="416.6313" y2="416.6313"/><text fill="#000000" font-family="Arial" font-size="13" font-weight="bold" lengthAdjust="spacing" textLength="15" x="462" y="411.8765">3b</text><text fill="#000000" font-family="Arial" font-size="13" lengthAdjust="spacing" textLength="4" x="477" y="411.8765">&#160;</text><a href="OperationDefinition-MOPED.Auf.Request.Antworten.html" target="_top" title="OperationDefinition-MOPED.Auf.Request.Antworten.html" xlink:actuate="onRequest" xlink:href="OperationDefinition-MOPED.Auf.Request.Antworten.html" xlink:show="new" xlink:title="OperationDefinition-MOPED.Auf.Request.Antworten.html" xlink:type="simple"><text fill="#0000EE" font-family="Arial" font-size="13" lengthAdjust="spacing" textLength="63" x="481" y="411.8765">$antworten</text></a><text fill="#000000" font-family="Arial" font-size="13" lengthAdjust="spacing" textLength="64" x="548" y="411.8765">(Status 00)</text><path d="M760,434.6313 L760,466.6313 A5,5 0 0 0 765,471.6313 L930,471.6313 A5,5 0 0 0 935,466.6313 L935,439.6313 L925,429.6313 L765,429.6313 A5,5 0 0 0 760,434.6313 " fill="url(#g1kac8645chzfs0)" filter="url(#f1kac8645chzfs)" style="stroke:#8B95A5;stroke-width:1.0;"/><path d="M925,429.6313 L925,437.1313 A2.5,2.5 0 0 0 927.5,439.6313 L935,439.6313 L925,429.6313 " fill="url(#g1kac8645chzfs0)" style="stroke:#8B95A5;stroke-width:1.0;"/><text fill="#111827" font-family="Arial" font-size="14" lengthAdjust="spacing" textLength="154" x="766" y="447.7632">Fall&#252;bernahme best&#228;tigt</text><text fill="#111827" font-family="Arial" font-size="14" lengthAdjust="spacing" textLength="70" x="766" y="463.8618">(Status 00)</text><line style="stroke:#111827;stroke-width:2.0;" x1="443" x2="433" y1="500.7773" y2="496.7773"/><line style="stroke:#111827;stroke-width:2.0;" x1="443" x2="433" y1="500.7773" y2="504.7773"/><line style="stroke:#111827;stroke-width:2.0;" x1="164" x2="444" y1="500.7773" y2="500.7773"/><text fill="#000000" font-family="Arial" font-size="13" font-weight="bold" lengthAdjust="spacing" textLength="14" x="171" y="496.0225">4a</text><text fill="#000000" font-family="Arial" font-size="13" lengthAdjust="spacing" textLength="146" x="189" y="496.0225">GET Composition?id={id}</text><path d="M42,518.7773 L42,550.7773 A5,5 0 0 0 47,555.7773 L278,555.7773 A5,5 0 0 0 283,550.7773 L283,523.7773 L273,513.7773 L47,513.7773 A5,5 0 0 0 42,518.7773 " fill="url(#g1kac8645chzfs0)" filter="url(#f1kac8645chzfs)" style="stroke:#8B95A5;stroke-width:1.0;"/><path d="M273,513.7773 L273,521.2773 A2.5,2.5 0 0 0 275.5,523.7773 L283,523.7773 L273,513.7773 " fill="url(#g1kac8645chzfs0)" style="stroke:#8B95A5;stroke-width:1.0;"/><text fill="#111827" font-family="Arial" font-size="14" lengthAdjust="spacing" textLength="220" x="48" y="531.9092">aktuellen Stand des Falls abfragen</text><text fill="#111827" font-family="Arial" font-size="14" lengthAdjust="spacing" textLength="132" x="48" y="548.0078">(inkl. best&#228;tigte VAE)</text><line style="stroke:#111827;stroke-width:2.0;" x1="443" x2="433" y1="584.9233" y2="580.9233"/><line style="stroke:#111827;stroke-width:2.0;" x1="443" x2="433" y1="584.9233" y2="588.9233"/><line style="stroke:#111827;stroke-width:2.0;" x1="164" x2="444" y1="584.9233" y2="584.9233"/><text fill="#000000" font-family="Arial" font-size="13" font-weight="bold" lengthAdjust="spacing" textLength="15" x="171" y="580.1685">4b</text><text fill="#000000" font-family="Arial" font-size="13" lengthAdjust="spacing" textLength="4" x="186" y="580.1685">&#160;</text><a href="OperationDefinition-MOPED.Daten.Update.html" target="_top" title="OperationDefinition-MOPED.Daten.Update.html" xlink:actuate="onRequest" xlink:href="OperationDefinition-MOPED.Daten.Update.html" xlink:show="new" xlink:title="OperationDefinition-MOPED.Daten.Update.html" xlink:type="simple"><text fill="#0000EE" font-family="Arial" font-size="13" lengthAdjust="spacing" textLength="46" x="190" y="580.1685">$update</text></a><path d="M60,602.9233 L60,634.9233 A5,5 0 0 0 65,639.9233 L260,639.9233 A5,5 0 0 0 265,634.9233 L265,607.9233 L255,597.9233 L65,597.9233 A5,5 0 0 0 60,602.9233 " fill="url(#g1kac8645chzfs0)" filter="url(#f1kac8645chzfs)" style="stroke:#8B95A5;stroke-width:1.0;"/><path d="M255,597.9233 L255,605.4233 A2.5,2.5 0 0 0 257.5,607.9233 L265,607.9233 L255,597.9233 " fill="url(#g1kac8645chzfs0)" style="stroke:#8B95A5;stroke-width:1.0;"/><text fill="#111827" font-family="Arial" font-size="14" lengthAdjust="spacing" textLength="180" x="66" y="616.0552">Kontakt mit der Abteilung f&#252;r</text><text fill="#111827" font-family="Arial" font-size="14" lengthAdjust="spacing" textLength="135" x="66" y="632.1538">Radiologie (R&#246;ntgen)</text><line style="stroke:#111827;stroke-width:2.0;" x1="443" x2="433" y1="669.0693" y2="665.0693"/><line style="stroke:#111827;stroke-width:2.0;" x1="443" x2="433" y1="669.0693" y2="673.0693"/><line style="stroke:#111827;stroke-width:2.0;" x1="164" x2="444" y1="669.0693" y2="669.0693"/><text fill="#000000" font-family="Arial" font-size="13" font-weight="bold" lengthAdjust="spacing" textLength="7" x="171" y="664.3145">5</text><text fill="#000000" font-family="Arial" font-size="13" lengthAdjust="spacing" textLength="4" x="178" y="664.3145">&#160;</text><a href="OperationDefinition-MOPED.Daten.Update.html" target="_top" title="OperationDefinition-MOPED.Daten.Update.html" xlink:actuate="onRequest" xlink:href="OperationDefinition-MOPED.Daten.Update.html" xlink:show="new" xlink:title="OperationDefinition-MOPED.Daten.Update.html" xlink:type="simple"><text fill="#0000EE" font-family="Arial" font-size="13" lengthAdjust="spacing" textLength="46" x="182" y="664.3145">$update</text></a><path d="M12,687.0693 L12,719.0693 A5,5 0 0 0 17,724.0693 L308,724.0693 A5,5 0 0 0 313,719.0693 L313,692.0693 L303,682.0693 L17,682.0693 A5,5 0 0 0 12,687.0693 " fill="url(#g1kac8645chzfs0)" filter="url(#f1kac8645chzfs)" style="stroke:#8B95A5;stroke-width:1.0;"/><path d="M303,682.0693 L303,689.5693 A2.5,2.5 0 0 0 305.5,692.0693 L313,692.0693 L303,682.0693 " fill="url(#g1kac8645chzfs0)" style="stroke:#8B95A5;stroke-width:1.0;"/><text fill="#111827" font-family="Arial" font-size="14" lengthAdjust="spacing" textLength="276" x="18" y="700.2012">Diagnose &#8222;gebrochenes Schl&#252;sselbein" und</text><text fill="#111827" font-family="Arial" font-size="14" lengthAdjust="spacing" textLength="248" x="18" y="716.2998">eine erbrachte Leistung werden erfasst</text><line style="stroke:#111827;stroke-width:2.0;" x1="443" x2="433" y1="753.2153" y2="749.2153"/><line style="stroke:#111827;stroke-width:2.0;" x1="443" x2="433" y1="753.2153" y2="757.2153"/><line style="stroke:#111827;stroke-width:2.0;" x1="164" x2="444" y1="753.2153" y2="753.2153"/><text fill="#000000" font-family="Arial" font-size="13" font-weight="bold" lengthAdjust="spacing" textLength="7" x="171" y="748.4604">6</text><text fill="#000000" font-family="Arial" font-size="13" lengthAdjust="spacing" textLength="4" x="178" y="748.4604">&#160;</text><a href="OperationDefinition-MOPED.Daten.Update.html" target="_top" title="OperationDefinition-MOPED.Daten.Update.html" xlink:actuate="onRequest" xlink:href="OperationDefinition-MOPED.Daten.Update.html" xlink:show="new" xlink:title="OperationDefinition-MOPED.Daten.Update.html" xlink:type="simple"><text fill="#0000EE" font-family="Arial" font-size="13" lengthAdjust="spacing" textLength="46" x="182" y="748.4604">$update</text></a><path d="M18,771.2153 L18,803.2153 A5,5 0 0 0 23,808.2153 L301,808.2153 A5,5 0 0 0 306,803.2153 L306,776.2153 L296,766.2153 L23,766.2153 A5,5 0 0 0 18,771.2153 " fill="url(#g1kac8645chzfs0)" filter="url(#f1kac8645chzfs)" style="stroke:#8B95A5;stroke-width:1.0;"/><path d="M296,766.2153 L296,773.7153 A2.5,2.5 0 0 0 298.5,776.2153 L306,776.2153 L296,766.2153 " fill="url(#g1kac8645chzfs0)" style="stroke:#8B95A5;stroke-width:1.0;"/><text fill="#111827" font-family="Arial" font-size="14" lengthAdjust="spacing" textLength="263" x="24" y="784.3472">Restliche Falldaten f&#252;r Amanda Ambulant</text><text fill="#111827" font-family="Arial" font-size="14" lengthAdjust="spacing" textLength="99" x="28" y="800.4458">werden erg&#228;nzt</text><path d="M19,823.4126 L90,823.4126 L90,831.5112 L80,841.5112 L14,841.5112 L14,828.4126 A5,5 0 0 1 19,823.4126 " fill="#F3F4F6" style="stroke:#111827;stroke-width:1.5;"/><rect fill="none" height="270.4854" rx="5" ry="5" style="stroke:#111827;stroke-width:1.0;" width="1205" x="14" y="823.4126"/><text fill="#000000" font-family="Arial" font-size="14" font-weight="bold" lengthAdjust="spacing" textLength="31" x="29" y="837.5444">loop</text><text fill="#000000" font-family="Arial" font-size="14" font-weight="bold" lengthAdjust="spacing" textLength="5" x="105" y="838.5444">[</text><a href="OperationDefinition-MOPED.Encounter.Abrechnen.html" target="_top" title="OperationDefinition-MOPED.Encounter.Abrechnen.html" xlink:actuate="onRequest" xlink:href="OperationDefinition-MOPED.Encounter.Abrechnen.html" xlink:show="new" xlink:title="OperationDefinition-MOPED.Encounter.Abrechnen.html" xlink:type="simple"><text fill="#0000EE" font-family="Arial" font-size="14" font-weight="bold" lengthAdjust="spacing" textLength="81" x="110" y="838.5444">$abrechnen</text></a><text fill="#000000" font-family="Arial" font-size="14" font-weight="bold" lengthAdjust="spacing" textLength="4" x="195" y="838.5444">/</text><a href="OperationDefinition-MOPED.Abrechnung.Genehmigen.html" target="_top" title="OperationDefinition-MOPED.Abrechnung.Genehmigen.html" xlink:actuate="onRequest" xlink:href="OperationDefinition-MOPED.Abrechnung.Genehmigen.html" xlink:show="new" xlink:title="OperationDefinition-MOPED.Abrechnung.Genehmigen.html" xlink:type="simple"><text fill="#0000EE" font-family="Arial" font-size="14" font-weight="bold" lengthAdjust="spacing" textLength="93" x="203" y="838.5444">$genehmigen</text></a><text fill="#000000" font-family="Arial" font-size="14" font-weight="bold" lengthAdjust="spacing" textLength="76" x="300" y="838.5444">(vorl&#228;ufig)]</text><line style="stroke:#111827;stroke-width:2.0;" x1="443" x2="433" y1="863.5586" y2="859.5586"/><line style="stroke:#111827;stroke-width:2.0;" x1="443" x2="433" y1="863.5586" y2="867.5586"/><line style="stroke:#111827;stroke-width:2.0;" x1="164" x2="444" y1="863.5586" y2="863.5586"/><text fill="#000000" font-family="Arial" font-size="13" font-weight="bold" lengthAdjust="spacing" textLength="7" x="171" y="858.8037">7</text><text fill="#000000" font-family="Arial" font-size="13" lengthAdjust="spacing" textLength="4" x="178" y="858.8037">&#160;</text><a href="OperationDefinition-MOPED.Encounter.Abrechnen.html" target="_top" title="OperationDefinition-MOPED.Encounter.Abrechnen.html" xlink:actuate="onRequest" xlink:href="OperationDefinition-MOPED.Encounter.Abrechnen.html" xlink:show="new" xlink:title="OperationDefinition-MOPED.Encounter.Abrechnen.html" xlink:type="simple"><text fill="#0000EE" font-family="Arial" font-size="13" lengthAdjust="spacing" textLength="67" x="182" y="858.8037">$abrechnen</text></a><path d="M24,881.5586 L24,897.5586 A5,5 0 0 0 29,902.5586 L296,902.5586 A5,5 0 0 0 301,897.5586 L301,886.5586 L291,876.5586 L29,876.5586 A5,5 0 0 0 24,881.5586 " fill="url(#g1kac8645chzfs0)" filter="url(#f1kac8645chzfs)" style="stroke:#8B95A5;stroke-width:1.0;"/><path d="M291,876.5586 L291,884.0586 A2.5,2.5 0 0 0 293.5,886.5586 L301,886.5586 L291,876.5586 " fill="url(#g1kac8645chzfs0)" style="stroke:#8B95A5;stroke-width:1.0;"/><text fill="#111827" font-family="Arial" font-size="14" lengthAdjust="spacing" textLength="256" x="30" y="894.6904">Abrechnung aller Leistungen eingereicht</text><line style="stroke:#111827;stroke-width:2.0;" x1="446" x2="456" y1="946.5547" y2="942.5547"/><line style="stroke:#111827;stroke-width:2.0;" x1="446" x2="456" y1="946.5547" y2="950.5547"/><line style="stroke:#111827;stroke-width:2.0;" x1="445" x2="1068" y1="946.5547" y2="946.5547"/><text fill="#000000" font-family="Arial" font-size="13" font-weight="bold" lengthAdjust="spacing" textLength="14" x="462" y="926.8511">8a</text><text fill="#000000" font-family="Arial" font-size="13" lengthAdjust="spacing" textLength="219" x="480" y="926.8511">GET Claim?status=active&amp;use=claim</text><text fill="#000000" font-family="Arial" font-size="13" lengthAdjust="spacing" textLength="284" x="462" y="941.7998">&amp;_has:ClaimResponse:request:status:not=active</text><path d="M928,964.5547 L928,996.5547 A5,5 0 0 0 933,1001.5547 L1201,1001.5547 A5,5 0 0 0 1206,996.5547 L1206,969.5547 L1196,959.5547 L933,959.5547 A5,5 0 0 0 928,964.5547 " fill="url(#g1kac8645chzfs0)" filter="url(#f1kac8645chzfs)" style="stroke:#8B95A5;stroke-width:1.0;"/><path d="M1196,959.5547 L1196,967.0547 A2.5,2.5 0 0 0 1198.5,969.5547 L1206,969.5547 L1196,959.5547 " fill="url(#g1kac8645chzfs0)" style="stroke:#8B95A5;stroke-width:1.0;"/><text fill="#111827" font-family="Arial" font-size="14" lengthAdjust="spacing" textLength="257" x="934" y="977.6865">unbeantwortete Abrechnungen abfragen</text><text fill="#111827" font-family="Arial" font-size="14" lengthAdjust="spacing" textLength="136" x="934" y="993.7852">und intern bearbeiten</text><line style="stroke:#111827;stroke-width:2.0;" x1="446" x2="456" y1="1030.7007" y2="1026.7007"/><line style="stroke:#111827;stroke-width:2.0;" x1="446" x2="456" y1="1030.7007" y2="1034.7007"/><line style="stroke:#111827;stroke-width:2.0;" x1="445" x2="1068" y1="1030.7007" y2="1030.7007"/><text fill="#000000" font-family="Arial" font-size="13" font-weight="bold" lengthAdjust="spacing" textLength="15" x="462" y="1025.9458">8b</text><text fill="#000000" font-family="Arial" font-size="13" lengthAdjust="spacing" textLength="4" x="477" y="1025.9458">&#160;</text><a href="OperationDefinition-MOPED.Abrechnung.Genehmigen.html" target="_top" title="OperationDefinition-MOPED.Abrechnung.Genehmigen.html" xlink:actuate="onRequest" xlink:href="OperationDefinition-MOPED.Abrechnung.Genehmigen.html" xlink:show="new" xlink:title="OperationDefinition-MOPED.Abrechnung.Genehmigen.html" xlink:type="simple"><text fill="#0000EE" font-family="Arial" font-size="13" lengthAdjust="spacing" textLength="77" x="481" y="1025.9458">$genehmigen</text></a><path d="M986,1048.7007 L986,1080.7007 A5,5 0 0 0 991,1085.7007 L1144,1085.7007 A5,5 0 0 0 1149,1080.7007 L1149,1053.7007 L1139,1043.7007 L991,1043.7007 A5,5 0 0 0 986,1048.7007 " fill="url(#g1kac8645chzfs0)" filter="url(#f1kac8645chzfs)" style="stroke:#8B95A5;stroke-width:1.0;"/><path d="M1139,1043.7007 L1139,1051.2007 A2.5,2.5 0 0 0 1141.5,1053.7007 L1149,1053.7007 L1139,1043.7007 " fill="url(#g1kac8645chzfs0)" style="stroke:#8B95A5;stroke-width:1.0;"/><text fill="#111827" font-family="Arial" font-size="14" lengthAdjust="spacing" textLength="142" x="992" y="1061.8325">Alle Posten genehmigt</text><text fill="#111827" font-family="Arial" font-size="14" lengthAdjust="spacing" textLength="126" x="992" y="1077.9312">(keine &#196;nderungen)</text><line style="stroke:#111827;stroke-width:2.0;" x1="443" x2="433" y1="1121.8467" y2="1117.8467"/><line style="stroke:#111827;stroke-width:2.0;" x1="443" x2="433" y1="1121.8467" y2="1125.8467"/><line style="stroke:#111827;stroke-width:2.0;" x1="164" x2="444" y1="1121.8467" y2="1121.8467"/><text fill="#000000" font-family="Arial" font-size="13" font-weight="bold" lengthAdjust="spacing" textLength="14" x="171" y="1117.0918">9a</text><text fill="#000000" font-family="Arial" font-size="13" lengthAdjust="spacing" textLength="146" x="189" y="1117.0918">GET Composition?id={id}</text><path d="M42,1139.8467 L42,1171.8467 A5,5 0 0 0 47,1176.8467 L278,1176.8467 A5,5 0 0 0 283,1171.8467 L283,1144.8467 L273,1134.8467 L47,1134.8467 A5,5 0 0 0 42,1139.8467 " fill="url(#g1kac8645chzfs0)" filter="url(#f1kac8645chzfs)" style="stroke:#8B95A5;stroke-width:1.0;"/><path d="M273,1134.8467 L273,1142.3467 A2.5,2.5 0 0 0 275.5,1144.8467 L283,1144.8467 L273,1134.8467 " fill="url(#g1kac8645chzfs0)" style="stroke:#8B95A5;stroke-width:1.0;"/><text fill="#111827" font-family="Arial" font-size="14" lengthAdjust="spacing" textLength="220" x="48" y="1152.9785">aktuellen Stand des Falls abfragen</text><text fill="#111827" font-family="Arial" font-size="14" lengthAdjust="spacing" textLength="182" x="48" y="1169.0771">(inkl. best&#228;tigte Abrechnung)</text><line style="stroke:#111827;stroke-width:2.0;" x1="443" x2="433" y1="1205.9927" y2="1201.9927"/><line style="stroke:#111827;stroke-width:2.0;" x1="443" x2="433" y1="1205.9927" y2="1209.9927"/><line style="stroke:#111827;stroke-width:2.0;" x1="164" x2="444" y1="1205.9927" y2="1205.9927"/><text fill="#000000" font-family="Arial" font-size="13" font-weight="bold" lengthAdjust="spacing" textLength="15" x="171" y="1201.2378">9b</text><text fill="#000000" font-family="Arial" font-size="13" lengthAdjust="spacing" textLength="24" x="194" y="1201.2378">final</text><a href="OperationDefinition-MOPED.Encounter.Abrechnen.html" target="_top" title="OperationDefinition-MOPED.Encounter.Abrechnen.html" xlink:actuate="onRequest" xlink:href="OperationDefinition-MOPED.Encounter.Abrechnen.html" xlink:show="new" xlink:title="OperationDefinition-MOPED.Encounter.Abrechnen.html" xlink:type="simple"><text fill="#0000EE" font-family="Arial" font-size="13" lengthAdjust="spacing" textLength="67" x="222" y="1201.2378">$abrechnen</text></a><path d="M44,1223.9927 L44,1239.9927 A5,5 0 0 0 49,1244.9927 L276,1244.9927 A5,5 0 0 0 281,1239.9927 L281,1228.9927 L271,1218.9927 L49,1218.9927 A5,5 0 0 0 44,1223.9927 " fill="url(#g1kac8645chzfs0)" filter="url(#f1kac8645chzfs)" style="stroke:#8B95A5;stroke-width:1.0;"/><path d="M271,1218.9927 L271,1226.4927 A2.5,2.5 0 0 0 273.5,1228.9927 L281,1228.9927 L271,1218.9927 " fill="url(#g1kac8645chzfs0)" style="stroke:#8B95A5;stroke-width:1.0;"/><text fill="#111827" font-family="Arial" font-size="14" lengthAdjust="spacing" textLength="216" x="50" y="1237.1245">Finale Abrechnung seitens der KA</text><line style="stroke:#111827;stroke-width:2.0;" x1="446" x2="456" y1="1288.9888" y2="1284.9888"/><line style="stroke:#111827;stroke-width:2.0;" x1="446" x2="456" y1="1288.9888" y2="1292.9888"/><line style="stroke:#111827;stroke-width:2.0;" x1="445" x2="1068" y1="1288.9888" y2="1288.9888"/><text fill="#000000" font-family="Arial" font-size="13" font-weight="bold" lengthAdjust="spacing" textLength="21" x="462" y="1269.2852">10a</text><text fill="#000000" font-family="Arial" font-size="13" lengthAdjust="spacing" textLength="282" x="487" y="1269.2852">GET Claim?status=active&amp;use=claim&amp;final=true</text><text fill="#000000" font-family="Arial" font-size="13" lengthAdjust="spacing" textLength="284" x="462" y="1284.2339">&amp;_has:ClaimResponse:request:status:not=active</text><path d="M928,1306.9888 L928,1338.9888 A5,5 0 0 0 933,1343.9888 L1201,1343.9888 A5,5 0 0 0 1206,1338.9888 L1206,1311.9888 L1196,1301.9888 L933,1301.9888 A5,5 0 0 0 928,1306.9888 " fill="url(#g1kac8645chzfs0)" filter="url(#f1kac8645chzfs)" style="stroke:#8B95A5;stroke-width:1.0;"/><path d="M1196,1301.9888 L1196,1309.4888 A2.5,2.5 0 0 0 1198.5,1311.9888 L1206,1311.9888 L1196,1301.9888 " fill="url(#g1kac8645chzfs0)" style="stroke:#8B95A5;stroke-width:1.0;"/><text fill="#111827" font-family="Arial" font-size="14" lengthAdjust="spacing" textLength="257" x="934" y="1320.1206">unbeantwortete Abrechnungen abfragen</text><text fill="#111827" font-family="Arial" font-size="14" lengthAdjust="spacing" textLength="136" x="934" y="1336.2192">und intern bearbeiten</text><line style="stroke:#111827;stroke-width:2.0;" x1="446" x2="456" y1="1373.1348" y2="1369.1348"/><line style="stroke:#111827;stroke-width:2.0;" x1="446" x2="456" y1="1373.1348" y2="1377.1348"/><line style="stroke:#111827;stroke-width:2.0;" x1="445" x2="1068" y1="1373.1348" y2="1373.1348"/><text fill="#000000" font-family="Arial" font-size="13" font-weight="bold" lengthAdjust="spacing" textLength="22" x="462" y="1368.3799">10b</text><text fill="#000000" font-family="Arial" font-size="13" lengthAdjust="spacing" textLength="24" x="488" y="1368.3799">final</text><a href="OperationDefinition-MOPED.Abrechnung.Genehmigen.html" target="_top" title="OperationDefinition-MOPED.Abrechnung.Genehmigen.html" xlink:actuate="onRequest" xlink:href="OperationDefinition-MOPED.Abrechnung.Genehmigen.html" xlink:show="new" xlink:title="OperationDefinition-MOPED.Abrechnung.Genehmigen.html" xlink:type="simple"><text fill="#0000EE" font-family="Arial" font-size="13" lengthAdjust="spacing" textLength="77" x="516" y="1368.3799">$genehmigen</text></a><path d="M976,1391.1348 L976,1423.1348 A5,5 0 0 0 981,1428.1348 L1153,1428.1348 A5,5 0 0 0 1158,1423.1348 L1158,1396.1348 L1148,1386.1348 L981,1386.1348 A5,5 0 0 0 976,1391.1348 " fill="url(#g1kac8645chzfs0)" filter="url(#f1kac8645chzfs)" style="stroke:#8B95A5;stroke-width:1.0;"/><path d="M1148,1386.1348 L1148,1393.6348 A2.5,2.5 0 0 0 1150.5,1396.1348 L1158,1396.1348 L1148,1386.1348 " fill="url(#g1kac8645chzfs0)" style="stroke:#8B95A5;stroke-width:1.0;"/><text fill="#111827" font-family="Arial" font-size="14" lengthAdjust="spacing" textLength="157" x="982" y="1404.2666">Endg&#252;ltige Entscheidung</text><text fill="#111827" font-family="Arial" font-size="14" lengthAdjust="spacing" textLength="101" x="982" y="1420.3652">zur Abrechnung</text><path d="M964,1446.332 L964,1478.332 A5,5 0 0 0 969,1483.332 L1166,1483.332 A5,5 0 0 0 1171,1478.332 L1171,1451.332 L1161,1441.332 L969,1441.332 A5,5 0 0 0 964,1446.332 " fill="url(#g1kac8645chzfs0)" filter="url(#f1kac8645chzfs)" style="stroke:#8B95A5;stroke-width:1.0;"/><path d="M1161,1441.332 L1161,1448.832 A2.5,2.5 0 0 0 1163.5,1451.332 L1171,1451.332 L1161,1441.332 " fill="url(#g1kac8645chzfs0)" style="stroke:#8B95A5;stroke-width:1.0;"/><text fill="#111827" font-family="Arial" font-size="14" lengthAdjust="spacing" textLength="182" x="970" y="1459.4639">Kosteninformationen werden</text><text fill="#111827" font-family="Arial" font-size="14" lengthAdjust="spacing" textLength="135" x="970" y="1475.5625">im Datensatz erg&#228;nzt</text><line style="stroke:#111827;stroke-width:2.0;" x1="446" x2="456" y1="1512.478" y2="1508.478"/><line style="stroke:#111827;stroke-width:2.0;" x1="446" x2="456" y1="1512.478" y2="1516.478"/><line style="stroke:#111827;stroke-width:2.0;" x1="445" x2="848" y1="1512.478" y2="1512.478"/><text fill="#000000" font-family="Arial" font-size="13" font-weight="bold" lengthAdjust="spacing" textLength="14" x="462" y="1507.7231">11</text><text fill="#000000" font-family="Arial" font-size="13" lengthAdjust="spacing" textLength="340" x="480" y="1507.7231">GET ClaimResponse?status=active&amp;use=claim&amp;final=true</text><path d="M753,1530.478 L753,1546.478 A5,5 0 0 0 758,1551.478 L937,1551.478 A5,5 0 0 0 942,1546.478 L942,1535.478 L932,1525.478 L758,1525.478 A5,5 0 0 0 753,1530.478 " fill="url(#g1kac8645chzfs0)" filter="url(#f1kac8645chzfs)" style="stroke:#8B95A5;stroke-width:1.0;"/><path d="M932,1525.478 L932,1532.978 A2.5,2.5 0 0 0 934.5,1535.478 L942,1535.478 L932,1525.478 " fill="url(#g1kac8645chzfs0)" style="stroke:#8B95A5;stroke-width:1.0;"/><text fill="#111827" font-family="Arial" font-size="14" lengthAdjust="spacing" textLength="168" x="759" y="1543.6099">Kosteninformation abrufen</text><line style="stroke:#111827;stroke-width:2.0;" x1="446" x2="456" y1="1580.5254" y2="1576.5254"/><line style="stroke:#111827;stroke-width:2.0;" x1="446" x2="456" y1="1580.5254" y2="1584.5254"/><line style="stroke:#111827;stroke-width:2.0;" x1="445" x2="1282.5" y1="1580.5254" y2="1580.5254"/><text fill="#000000" font-family="Arial" font-size="13" font-weight="bold" lengthAdjust="spacing" textLength="14" x="462" y="1575.7705">12</text><text fill="#000000" font-family="Arial" font-size="13" lengthAdjust="spacing" textLength="178" x="484" y="1575.7705">GET Composition?status=final</text><path d="M1178,1598.5254 L1178,1614.5254 A5,5 0 0 0 1183,1619.5254 L1380,1619.5254 A5,5 0 0 0 1385,1614.5254 L1385,1603.5254 L1375,1593.5254 L1183,1593.5254 A5,5 0 0 0 1178,1598.5254 " fill="url(#g1kac8645chzfs0)" filter="url(#f1kac8645chzfs)" style="stroke:#8B95A5;stroke-width:1.0;"/><path d="M1375,1593.5254 L1375,1601.0254 A2.5,2.5 0 0 0 1377.5,1603.5254 L1385,1603.5254 L1375,1593.5254 " fill="url(#g1kac8645chzfs0)" style="stroke:#8B95A5;stroke-width:1.0;"/><text fill="#111827" font-family="Arial" font-size="14" lengthAdjust="spacing" textLength="186" x="1184" y="1611.6572">Zugriff auf finale Composition</text><path d="M337,1637.624 L337,1653.624 A5,5 0 0 0 342,1658.624 L544,1658.624 A5,5 0 0 0 549,1653.624 L549,1642.624 L539,1632.624 L342,1632.624 A5,5 0 0 0 337,1637.624 " fill="url(#g1kac8645chzfs0)" filter="url(#f1kac8645chzfs)" style="stroke:#8B95A5;stroke-width:1.0;"/><path d="M539,1632.624 L539,1640.124 A2.5,2.5 0 0 0 541.5,1642.624 L549,1642.624 L539,1632.624 " fill="url(#g1kac8645chzfs0)" style="stroke:#8B95A5;stroke-width:1.0;"/><text fill="#111827" font-family="Arial" font-size="14" lengthAdjust="spacing" textLength="191" x="343" y="1650.7559">Fall f&#252;r Moped abgeschlossen</text><!--SRC=[lLVDRXit4BxhAGYb22oWKIJRYcqXTg34ieCgFuQLk40Ze-3kpgu8hOOgoRLJ1G5ww3Fqs5EUeQVSz2PzaWwvqeehgP7R1bqVl4iEXzzyC_EHqYE14wxuc0LIHQ2UoLGgTg_XdefUpl9mb2YPOJItY5lspxFGGnx9Mu49YtcgmPkPBrC8YZLzfn74F4lDcKJpYe-1LJjAyBIwsQ8lfi2Q-vidox0z6vG6s8SAOqzN0u06jEB6WtjHCpg2HzR29-0mE6hnLZ7wPYZ24OBMh4bZbrv0X_HzmQF81cwzU6YQpURXxW6DzGjgZCgWyj47-Fpd2QXKuCWBeTlTPF0M8_S2Su9zxk6d333C8xtWoeXGJ3YQKaWjzwmOhANLFMMZTOBNfXV9AKqiQDcr2pfAoTjLOjpWajlTnT2c7Ok9VAyz6Zedv9DIZ8NdV6ejkhruFtvKNkcdjfIPf_Az5q5fV1ElbK2-PzK1CjRhi9tdeARiEz0PwocE8y0XptIDiQhj76WT7H487XfQJzPSisglKwq0HjI6xprNxdaf9n3Dtsbzs8eF0axh9qkgsSiBvyMPRdRKls8xiz_EUz_Mw_NQt1LrzNvyK40X4-jaOLdRuEZ5-HdRUS6f57L2qM4q165qB35QH7SGDHowtAMrjpw_jEvl0sTFoP0j8u_3O2_OAtoxMUlSldXEAhtEWvCJegJzE3XfFduOdB1txrvJ5t4Z99v2B53OjmSlNrzqJ-iND0newfqiHXYE0Uj3CqxPDtpnVNrTUMLbHDw0JLURpLS8P9qnXSJfNv2bDWqZEHuRmazJaG3s5gbLKvxFJfd5QuSjkUnxSZ70Mw4eXbIpQQRDx1D68W5s1KgBS0WgezeZki1CJHvK7jFkrfYkEjrBgmcQmi9OyMGPrVnpBQYv7QEmIm0qHprHMJZKe4Rfx9CTg_Il2Z1xtA4vxxvXpr8kna-quIRJnvGZSGFtCmt74mKyCqEfnDJ17U3z7uTSjvtz9UY9H0rjbGDkv-lRfDnp7nxG_bMRs4hfAuu10Ha5gXaFyfW6Q1aMQ40X2u2hW8eCi8GssCeTrK5zIPwvbSfuxCs_hw_PJjy1POr6RGNX6K6SVGu81QVw8IGsjKOaL1dU8kQdTDzZKOudKZj4JqHq_4547rTInKSc0s816NcpDGNQxUapiKCdHbhtzWRBLQsqvtOkJhcD_Uqaelzp2ZBtiLO-FL9cmiN6mX0UnJg10P7Q0evddnKRu2MF10bcGlM_Spdx0mt1BC5fVKKqfu8dA3MmFt_vFO50IIfcqdZM3uUK6QqXfTB0gkl80O8zL445YeT3yl82X3OM-IsGp2FDn5nhKyhNewy8bZh0fBRTN1Aj2UQahQeB2Ki1AI6n85L8fPny4KONGpe0gIFgdK11ECHbBI- -gPOVVhaZSakYf7uELXF5Ka-IOi2sn8rK915PB99QnOgsnzZ1LiRk1jNvNP6k0fyJ1rLaq395vpSe87gDMqa7KG7fSBjqXNRyd-fL6I7jsAP28psQYmTDB14Jn6tojGRx3XfsnunjWjgn-deXjIt3XQrLhf5hazclzXhgWDViaUitnT7_86BBo4hYSPHpmeW7ddwDAYk3FRDk_StfocrpevtMzJeLFp_DnXthwhv3Usn_5Fpx8_4_brSPUixZTXhlN64hIBiO9RFFgR7td2uQJR8d8ale0AUPyXbUNTbp9IambchiC44XXmCKO-O4LtCpBTIH-IT_irbEoeBaEoHdvNXV0q8Kgupk8nLx4Lrkc5_JrjfXlfzpxtcsQzliXonH8exTBIpEYyvRo-Xokrn1sxYEoG-B_5S23-Y-I8USf3CEAty1]--></g></svg>