<?xml version="1.0" encoding="us-ascii" standalone="no"?><svg xmlns="http://www.w3.org/2000/svg" xmlns:xlink="http://www.w3.org/1999/xlink" contentStyleType="text/css" height="1728px" preserveAspectRatio="none" style="width:1365px;height:1728px;background:#F5F5F5;" version="1.1" viewBox="0 0 1365 1728" width="1365px" zoomAndPan="magnify"><defs><linearGradient id="gmp01abhwm4wt0" x1="50%" x2="50%" y1="0%" y2="100%"><stop offset="0%" stop-color="#E0E5F0"/><stop offset="100%" stop-color="#D1D9E6"/></linearGradient><filter height="300%" id="fmp01abhwm4wt" width="300%" x="-1" y="-1"><feGaussianBlur result="blurOut" stdDeviation="2.0"/><feColorMatrix in="blurOut" result="blurOut2" type="matrix" values="0 0 0 0 0 0 0 0 0 0 0 0 0 0 0 0 0 0 .4 0"/><feOffset dx="4.0" dy="4.0" in="blurOut2" result="blurOut3"/><feBlend in="SourceGraphic" in2="blurOut3" mode="normal"/></filter></defs><g><rect fill="#F5F5F5" height="1728" style="stroke:none;stroke-width:1.0;" width="1365" x="0" y="0"/><rect fill="#F5E599" height="1716.4741" rx="5" ry="5" style="stroke:#181818;stroke-width:0.5;" width="218" x="83" y="6"/><text fill="#000000" font-family="Arial" font-size="14" font-weight="bold" lengthAdjust="spacing" textLength="4" x="86" y="19.1318">&#160;</text><text fill="#000000" font-family="Arial" font-size="14" font-weight="bold" lengthAdjust="spacing" textLength="196" x="94" y="35.2305">KA (Herz Jesu Krankenhaus)</text><rect fill="#C5F7BA" height="1716.4741" rx="5" ry="5" style="stroke:#181818;stroke-width:0.5;" width="109" x="418.5" y="6"/><text fill="#000000" font-family="Arial" font-size="14" font-weight="bold" lengthAdjust="spacing" textLength="4" x="421.5" y="19.1318">&#160;</text><text fill="#000000" font-family="Arial" font-size="14" font-weight="bold" lengthAdjust="spacing" textLength="47" x="449.5" y="35.2305">Moped</text><rect fill="#BAC4F7" height="1716.4741" rx="5" ry="5" style="stroke:#181818;stroke-width:0.5;" width="118" x="758" y="6"/><text fill="#000000" font-family="Arial" font-size="14" font-weight="bold" lengthAdjust="spacing" textLength="4" x="761" y="19.1318">&#160;</text><text fill="#000000" font-family="Arial" font-size="14" font-weight="bold" lengthAdjust="spacing" textLength="80" x="777" y="35.2305">SV (&#214;GK,...)</text><rect fill="#F7D0BA" height="1716.4741" rx="5" ry="5" style="stroke:#181818;stroke-width:0.5;" width="238" x="918" y="6"/><text fill="#000000" font-family="Arial" font-size="14" font-weight="bold" lengthAdjust="spacing" textLength="4" x="921" y="19.1318">&#160;</text><text fill="#000000" font-family="Arial" font-size="14" font-weight="bold" lengthAdjust="spacing" textLength="220" x="925" y="35.2305">LGF (Landesgesundheitsfonds)</text><rect fill="#FCB3B3" height="1716.4741" rx="5" ry="5" style="stroke:#181818;stroke-width:0.5;" width="107" x="1198" y="6"/><text fill="#000000" font-family="Arial" font-size="14" font-weight="bold" lengthAdjust="spacing" textLength="4" x="1201" y="19.1318">&#160;</text><text fill="#000000" font-family="Arial" font-size="14" font-weight="bold" lengthAdjust="spacing" textLength="37" x="1233" y="35.2305">Bund</text><rect fill="none" height="270.4854" rx="5" ry="5" style="stroke:#111827;stroke-width:1.0;" width="1145" x="42" y="775.1167"/><line style="stroke:#181818;stroke-width:0.5;stroke-dasharray:5.0,5.0;" x1="191.5" x2="191.5" y1="118.2959" y2="1643.3755"/><line style="stroke:#181818;stroke-width:0.5;stroke-dasharray:5.0,5.0;" x1="473" x2="473" y1="118.2959" y2="1643.3755"/><line style="stroke:#181818;stroke-width:0.5;stroke-dasharray:5.0,5.0;" x1="816.5" x2="816.5" y1="118.2959" y2="1643.3755"/><line style="stroke:#181818;stroke-width:0.5;stroke-dasharray:5.0,5.0;" x1="1036.5" x2="1036.5" y1="118.2959" y2="1643.3755"/><line style="stroke:#181818;stroke-width:0.5;stroke-dasharray:5.0,5.0;" x1="1251" x2="1251" y1="118.2959" y2="1643.3755"/><text fill="#000000" font-family="Arial" font-size="14" lengthAdjust="spacing" textLength="18" x="180" y="115.3291">KA</text><ellipse cx="192" cy="50.6973" fill="#E2E2F0" rx="8" ry="8" style="stroke:#181818;stroke-width:0.5;"/><path d="M192,58.6973 L192,85.6973 M179,66.6973 L205,66.6973 M192,85.6973 L179,100.6973 M192,85.6973 L205,100.6973 " fill="none" style="stroke:#181818;stroke-width:0.5;"/><text fill="#000000" font-family="Arial" font-size="14" lengthAdjust="spacing" textLength="18" x="180" y="1655.5073">KA</text><ellipse cx="192" cy="1666.9741" fill="#E2E2F0" rx="8" ry="8" style="stroke:#181818;stroke-width:0.5;"/><path d="M192,1674.9741 L192,1701.9741 M179,1682.9741 L205,1682.9741 M192,1701.9741 L179,1716.9741 M192,1701.9741 L205,1716.9741 " fill="none" style="stroke:#181818;stroke-width:0.5;"/><rect fill="#FFFFFF" height="30.0986" rx="5" ry="5" style="stroke:#555555;stroke-width:0.5;" width="58" x="444" y="87.1973"/><text fill="#000000" font-family="Arial" font-size="14" lengthAdjust="spacing" textLength="44" x="451" y="107.3291">Moped</text><rect fill="#FFFFFF" height="30.0986" rx="5" ry="5" style="stroke:#555555;stroke-width:0.5;" width="58" x="444" y="1642.3755"/><text fill="#000000" font-family="Arial" font-size="14" lengthAdjust="spacing" textLength="44" x="451" y="1662.5073">Moped</text><text fill="#000000" font-family="Arial" font-size="14" lengthAdjust="spacing" textLength="63" x="782.5" y="115.3291">SV (&#214;GK)</text><ellipse cx="817" cy="50.6973" fill="#E2E2F0" rx="8" ry="8" style="stroke:#181818;stroke-width:0.5;"/><path d="M817,58.6973 L817,85.6973 M804,66.6973 L830,66.6973 M817,85.6973 L804,100.6973 M817,85.6973 L830,100.6973 " fill="none" style="stroke:#181818;stroke-width:0.5;"/><text fill="#000000" font-family="Arial" font-size="14" lengthAdjust="spacing" textLength="63" x="782.5" y="1655.5073">SV (&#214;GK)</text><ellipse cx="817" cy="1666.9741" fill="#E2E2F0" rx="8" ry="8" style="stroke:#181818;stroke-width:0.5;"/><path d="M817,1674.9741 L817,1701.9741 M804,1682.9741 L830,1682.9741 M817,1701.9741 L804,1716.9741 M817,1701.9741 L830,1716.9741 " fill="none" style="stroke:#181818;stroke-width:0.5;"/><text fill="#000000" font-family="Arial" font-size="14" lengthAdjust="spacing" textLength="201" x="933.5" y="115.3291">LGF (Landesgesundheitsfonds)</text><ellipse cx="1037" cy="50.6973" fill="#E2E2F0" rx="8" ry="8" style="stroke:#181818;stroke-width:0.5;"/><path d="M1037,58.6973 L1037,85.6973 M1024,66.6973 L1050,66.6973 M1037,85.6973 L1024,100.6973 M1037,85.6973 L1050,100.6973 " fill="none" style="stroke:#181818;stroke-width:0.5;"/><text fill="#000000" font-family="Arial" font-size="14" lengthAdjust="spacing" textLength="201" x="933.5" y="1655.5073">LGF (Landesgesundheitsfonds)</text><ellipse cx="1037" cy="1666.9741" fill="#E2E2F0" rx="8" ry="8" style="stroke:#181818;stroke-width:0.5;"/><path d="M1037,1674.9741 L1037,1701.9741 M1024,1682.9741 L1050,1682.9741 M1037,1701.9741 L1024,1716.9741 M1037,1701.9741 L1050,1716.9741 " fill="none" style="stroke:#181818;stroke-width:0.5;"/><text fill="#000000" font-family="Arial" font-size="14" lengthAdjust="spacing" textLength="33" x="1232" y="115.3291">Bund</text><ellipse cx="1251.5" cy="50.6973" fill="#E2E2F0" rx="8" ry="8" style="stroke:#181818;stroke-width:0.5;"/><path d="M1251.5,58.6973 L1251.5,85.6973 M1238.5,66.6973 L1264.5,66.6973 M1251.5,85.6973 L1238.5,100.6973 M1251.5,85.6973 L1264.5,100.6973 " fill="none" style="stroke:#181818;stroke-width:0.5;"/><text fill="#000000" font-family="Arial" font-size="14" lengthAdjust="spacing" textLength="33" x="1232" y="1655.5073">Bund</text><ellipse cx="1251.5" cy="1666.9741" fill="#E2E2F0" rx="8" ry="8" style="stroke:#181818;stroke-width:0.5;"/><path d="M1251.5,1674.9741 L1251.5,1701.9741 M1238.5,1682.9741 L1264.5,1682.9741 M1251.5,1701.9741 L1238.5,1716.9741 M1251.5,1701.9741 L1264.5,1716.9741 " fill="none" style="stroke:#181818;stroke-width:0.5;"/><line style="stroke:#111827;stroke-width:2.0;" x1="471" x2="461" y1="149.2446" y2="145.2446"/><line style="stroke:#111827;stroke-width:2.0;" x1="471" x2="461" y1="149.2446" y2="153.2446"/><line style="stroke:#111827;stroke-width:2.0;" x1="192" x2="472" y1="149.2446" y2="149.2446"/><text fill="#000000" font-family="Arial" font-size="13" font-weight="bold" lengthAdjust="spacing" textLength="7" x="199" y="144.4897">1</text><text fill="#000000" font-family="Arial" font-size="13" lengthAdjust="spacing" textLength="4" x="206" y="144.4897">&#160;</text><a href="OperationDefinition-MOPED.Patient.Aufnehmen.html" target="_top" title="OperationDefinition-MOPED.Patient.Aufnehmen.html" xlink:actuate="onRequest" xlink:href="OperationDefinition-MOPED.Patient.Aufnehmen.html" xlink:show="new" xlink:title="OperationDefinition-MOPED.Patient.Aufnehmen.html" xlink:type="simple"><text fill="#0000EE" font-family="Arial" font-size="13" lengthAdjust="spacing" textLength="71" x="210" y="144.4897">$aufnehmen</text></a><path d="M27,167.2446 L27,215.2446 A5,5 0 0 0 32,220.2446 L349,220.2446 A5,5 0 0 0 354,215.2446 L354,172.2446 L344,162.2446 L32,162.2446 A5,5 0 0 0 27,167.2446 " fill="url(#gmp01abhwm4wt0)" filter="url(#fmp01abhwm4wt)" style="stroke:#8B95A5;stroke-width:1.0;"/><path d="M344,162.2446 L344,169.7446 A2.5,2.5 0 0 0 346.5,172.2446 L354,172.2446 L344,162.2446 " fill="url(#gmp01abhwm4wt0)" style="stroke:#8B95A5;stroke-width:1.0;"/><text fill="#111827" font-family="Arial" font-size="14" lengthAdjust="spacing" textLength="306" x="33" y="180.3765">Susi Sonnenschein wird station&#228;r aufgenommen</text><text fill="#111827" font-family="Arial" font-size="14" lengthAdjust="spacing" textLength="170" x="37" y="196.4751">und die &#214;GK Wien wird als</text><text fill="#111827" font-family="Arial" font-size="14" lengthAdjust="spacing" textLength="207" x="33" y="212.5737">zust&#228;ndige Versicherung gesetzt</text><line style="stroke:#111827;stroke-width:2.0;" x1="471" x2="461" y1="249.4893" y2="245.4893"/><line style="stroke:#111827;stroke-width:2.0;" x1="471" x2="461" y1="249.4893" y2="253.4893"/><line style="stroke:#111827;stroke-width:2.0;" x1="192" x2="472" y1="249.4893" y2="249.4893"/><text fill="#000000" font-family="Arial" font-size="13" font-weight="bold" lengthAdjust="spacing" textLength="7" x="199" y="244.7344">2</text><text fill="#000000" font-family="Arial" font-size="13" lengthAdjust="spacing" textLength="4" x="206" y="244.7344">&#160;</text><a href="OperationDefinition-MOPED.VAERequest.Anfragen.html" target="_top" title="OperationDefinition-MOPED.VAERequest.Anfragen.html" xlink:actuate="onRequest" xlink:href="OperationDefinition-MOPED.VAERequest.Anfragen.html" xlink:show="new" xlink:title="OperationDefinition-MOPED.VAERequest.Anfragen.html" xlink:type="simple"><text fill="#0000EE" font-family="Arial" font-size="13" lengthAdjust="spacing" textLength="57" x="210" y="244.7344">$anfragen</text></a><path d="M32,267.4893 L32,283.4893 A5,5 0 0 0 37,288.4893 L343,288.4893 A5,5 0 0 0 348,283.4893 L348,272.4893 L338,262.4893 L37,262.4893 A5,5 0 0 0 32,267.4893 " fill="url(#gmp01abhwm4wt0)" filter="url(#fmp01abhwm4wt)" style="stroke:#8B95A5;stroke-width:1.0;"/><path d="M338,262.4893 L338,269.9893 A2.5,2.5 0 0 0 340.5,272.4893 L348,272.4893 L338,262.4893 " fill="url(#gmp01abhwm4wt0)" style="stroke:#8B95A5;stroke-width:1.0;"/><text fill="#111827" font-family="Arial" font-size="14" lengthAdjust="spacing" textLength="295" x="38" y="280.6211">Anfrage auf Versicherungsanspruchserkl&#228;rung</text><line style="stroke:#111827;stroke-width:2.0;" x1="474" x2="484" y1="332.4854" y2="328.4854"/><line style="stroke:#111827;stroke-width:2.0;" x1="474" x2="484" y1="332.4854" y2="336.4854"/><line style="stroke:#111827;stroke-width:2.0;" x1="473" x2="816" y1="332.4854" y2="332.4854"/><text fill="#000000" font-family="Arial" font-size="13" font-weight="bold" lengthAdjust="spacing" textLength="14" x="490" y="312.7817">3a</text><text fill="#000000" font-family="Arial" font-size="13" lengthAdjust="spacing" textLength="280" x="508" y="312.7817">GET Claim?status=active&amp;use=preauthorization</text><text fill="#000000" font-family="Arial" font-size="13" lengthAdjust="spacing" textLength="284" x="490" y="327.7305">&amp;_has:ClaimResponse:request:status:not=active</text><path d="M718,350.4854 L718,382.4854 A5,5 0 0 0 723,387.4854 L907,387.4854 A5,5 0 0 0 912,382.4854 L912,355.4854 L902,345.4854 L723,345.4854 A5,5 0 0 0 718,350.4854 " fill="url(#gmp01abhwm4wt0)" filter="url(#fmp01abhwm4wt)" style="stroke:#8B95A5;stroke-width:1.0;"/><path d="M902,345.4854 L902,352.9854 A2.5,2.5 0 0 0 904.5,355.4854 L912,355.4854 L902,345.4854 " fill="url(#gmp01abhwm4wt0)" style="stroke:#8B95A5;stroke-width:1.0;"/><text fill="#111827" font-family="Arial" font-size="14" lengthAdjust="spacing" textLength="173" x="724" y="363.6172">alle offenen VAEs abfragen</text><text fill="#111827" font-family="Arial" font-size="14" lengthAdjust="spacing" textLength="136" x="724" y="379.7158">und intern bearbeiten</text><line style="stroke:#111827;stroke-width:2.0;" x1="474" x2="484" y1="416.6313" y2="412.6313"/><line style="stroke:#111827;stroke-width:2.0;" x1="474" x2="484" y1="416.6313" y2="420.6313"/><line style="stroke:#111827;stroke-width:2.0;" x1="473" x2="816" y1="416.6313" y2="416.6313"/><text fill="#000000" font-family="Arial" font-size="13" font-weight="bold" lengthAdjust="spacing" textLength="15" x="490" y="411.8765">3b</text><text fill="#000000" font-family="Arial" font-size="13" lengthAdjust="spacing" textLength="4" x="505" y="411.8765">&#160;</text><a href="OperationDefinition-MOPED.Auf.Request.Antworten.html" target="_top" title="OperationDefinition-MOPED.Auf.Request.Antworten.html" xlink:actuate="onRequest" xlink:href="OperationDefinition-MOPED.Auf.Request.Antworten.html" xlink:show="new" xlink:title="OperationDefinition-MOPED.Auf.Request.Antworten.html" xlink:type="simple"><text fill="#0000EE" font-family="Arial" font-size="13" lengthAdjust="spacing" textLength="63" x="509" y="411.8765">$antworten</text></a><text fill="#000000" font-family="Arial" font-size="13" lengthAdjust="spacing" textLength="64" x="576" y="411.8765">(Status 00)</text><path d="M728,434.6313 L728,466.6313 A5,5 0 0 0 733,471.6313 L898,471.6313 A5,5 0 0 0 903,466.6313 L903,439.6313 L893,429.6313 L733,429.6313 A5,5 0 0 0 728,434.6313 " fill="url(#gmp01abhwm4wt0)" filter="url(#fmp01abhwm4wt)" style="stroke:#8B95A5;stroke-width:1.0;"/><path d="M893,429.6313 L893,437.1313 A2.5,2.5 0 0 0 895.5,439.6313 L903,439.6313 L893,429.6313 " fill="url(#gmp01abhwm4wt0)" style="stroke:#8B95A5;stroke-width:1.0;"/><text fill="#111827" font-family="Arial" font-size="14" lengthAdjust="spacing" textLength="154" x="734" y="447.7632">Fall&#252;bernahme best&#228;tigt</text><text fill="#111827" font-family="Arial" font-size="14" lengthAdjust="spacing" textLength="70" x="734" y="463.8618">(Status 00)</text><line style="stroke:#111827;stroke-width:2.0;" x1="471" x2="461" y1="500.7773" y2="496.7773"/><line style="stroke:#111827;stroke-width:2.0;" x1="471" x2="461" y1="500.7773" y2="504.7773"/><line style="stroke:#111827;stroke-width:2.0;" x1="192" x2="472" y1="500.7773" y2="500.7773"/><text fill="#000000" font-family="Arial" font-size="13" font-weight="bold" lengthAdjust="spacing" textLength="14" x="199" y="496.0225">4a</text><text fill="#000000" font-family="Arial" font-size="13" lengthAdjust="spacing" textLength="146" x="217" y="496.0225">GET Composition?id={id}</text><path d="M70,518.7773 L70,550.7773 A5,5 0 0 0 75,555.7773 L306,555.7773 A5,5 0 0 0 311,550.7773 L311,523.7773 L301,513.7773 L75,513.7773 A5,5 0 0 0 70,518.7773 " fill="url(#gmp01abhwm4wt0)" filter="url(#fmp01abhwm4wt)" style="stroke:#8B95A5;stroke-width:1.0;"/><path d="M301,513.7773 L301,521.2773 A2.5,2.5 0 0 0 303.5,523.7773 L311,523.7773 L301,513.7773 " fill="url(#gmp01abhwm4wt0)" style="stroke:#8B95A5;stroke-width:1.0;"/><text fill="#111827" font-family="Arial" font-size="14" lengthAdjust="spacing" textLength="220" x="76" y="531.9092">aktuellen Stand des Falls abfragen</text><text fill="#111827" font-family="Arial" font-size="14" lengthAdjust="spacing" textLength="132" x="76" y="548.0078">(inkl. best&#228;tigte VAE)</text><line style="stroke:#111827;stroke-width:2.0;" x1="471" x2="461" y1="584.9233" y2="580.9233"/><line style="stroke:#111827;stroke-width:2.0;" x1="471" x2="461" y1="584.9233" y2="588.9233"/><line style="stroke:#111827;stroke-width:2.0;" x1="192" x2="472" y1="584.9233" y2="584.9233"/><text fill="#000000" font-family="Arial" font-size="13" font-weight="bold" lengthAdjust="spacing" textLength="15" x="199" y="580.1685">4b</text><text fill="#000000" font-family="Arial" font-size="13" lengthAdjust="spacing" textLength="4" x="214" y="580.1685">&#160;</text><a href="OperationDefinition-MOPED.Daten.Update.html" target="_top" title="OperationDefinition-MOPED.Daten.Update.html" xlink:actuate="onRequest" xlink:href="OperationDefinition-MOPED.Daten.Update.html" xlink:show="new" xlink:title="OperationDefinition-MOPED.Daten.Update.html" xlink:type="simple"><text fill="#0000EE" font-family="Arial" font-size="13" lengthAdjust="spacing" textLength="46" x="218" y="580.1685">$update</text></a><path d="M55,602.9233 L55,618.9233 A5,5 0 0 0 60,623.9233 L321,623.9233 A5,5 0 0 0 326,618.9233 L326,607.9233 L316,597.9233 L60,597.9233 A5,5 0 0 0 55,602.9233 " fill="url(#gmp01abhwm4wt0)" filter="url(#fmp01abhwm4wt)" style="stroke:#8B95A5;stroke-width:1.0;"/><path d="M316,597.9233 L316,605.4233 A2.5,2.5 0 0 0 318.5,607.9233 L326,607.9233 L316,597.9233 " fill="url(#gmp01abhwm4wt0)" style="stroke:#8B95A5;stroke-width:1.0;"/><text fill="#111827" font-family="Arial" font-size="14" lengthAdjust="spacing" textLength="250" x="61" y="616.0552">Verlegung auf Abteilung Innere Medizin</text><line style="stroke:#111827;stroke-width:2.0;" x1="471" x2="461" y1="652.9707" y2="648.9707"/><line style="stroke:#111827;stroke-width:2.0;" x1="471" x2="461" y1="652.9707" y2="656.9707"/><line style="stroke:#111827;stroke-width:2.0;" x1="192" x2="472" y1="652.9707" y2="652.9707"/><text fill="#000000" font-family="Arial" font-size="13" font-weight="bold" lengthAdjust="spacing" textLength="7" x="199" y="648.2158">5</text><text fill="#000000" font-family="Arial" font-size="13" lengthAdjust="spacing" textLength="4" x="206" y="648.2158">&#160;</text><a href="OperationDefinition-MOPED.Daten.Update.html" target="_top" title="OperationDefinition-MOPED.Daten.Update.html" xlink:actuate="onRequest" xlink:href="OperationDefinition-MOPED.Daten.Update.html" xlink:show="new" xlink:title="OperationDefinition-MOPED.Daten.Update.html" xlink:type="simple"><text fill="#0000EE" font-family="Arial" font-size="13" lengthAdjust="spacing" textLength="46" x="210" y="648.2158">$update</text></a><path d="M5,670.9707 L5,686.9707 A5,5 0 0 0 10,691.9707 L371,691.9707 A5,5 0 0 0 376,686.9707 L376,675.9707 L366,665.9707 L10,665.9707 A5,5 0 0 0 5,670.9707 " fill="url(#gmp01abhwm4wt0)" filter="url(#fmp01abhwm4wt)" style="stroke:#8B95A5;stroke-width:1.0;"/><path d="M366,665.9707 L366,673.4707 A2.5,2.5 0 0 0 368.5,675.9707 L376,675.9707 L366,665.9707 " fill="url(#gmp01abhwm4wt0)" style="stroke:#8B95A5;stroke-width:1.0;"/><text fill="#111827" font-family="Arial" font-size="14" lengthAdjust="spacing" textLength="350" x="11" y="684.1025">Diagnose "Herzinsuffizienz" und Leistung "EKG" erfasst</text><line style="stroke:#111827;stroke-width:2.0;" x1="471" x2="461" y1="721.0181" y2="717.0181"/><line style="stroke:#111827;stroke-width:2.0;" x1="471" x2="461" y1="721.0181" y2="725.0181"/><line style="stroke:#111827;stroke-width:2.0;" x1="192" x2="472" y1="721.0181" y2="721.0181"/><text fill="#000000" font-family="Arial" font-size="13" font-weight="bold" lengthAdjust="spacing" textLength="7" x="199" y="716.2632">6</text><text fill="#000000" font-family="Arial" font-size="13" lengthAdjust="spacing" textLength="4" x="206" y="716.2632">&#160;</text><a href="OperationDefinition-MOPED.Patient.Entlassen.html" target="_top" title="OperationDefinition-MOPED.Patient.Entlassen.html" xlink:actuate="onRequest" xlink:href="OperationDefinition-MOPED.Patient.Entlassen.html" xlink:show="new" xlink:title="OperationDefinition-MOPED.Patient.Entlassen.html" xlink:type="simple"><text fill="#0000EE" font-family="Arial" font-size="13" lengthAdjust="spacing" textLength="63" x="210" y="716.2632">$entlassen</text></a><path d="M72,739.0181 L72,755.0181 A5,5 0 0 0 77,760.0181 L304,760.0181 A5,5 0 0 0 309,755.0181 L309,744.0181 L299,734.0181 L77,734.0181 A5,5 0 0 0 72,739.0181 " fill="url(#gmp01abhwm4wt0)" filter="url(#fmp01abhwm4wt)" style="stroke:#8B95A5;stroke-width:1.0;"/><path d="M299,734.0181 L299,741.5181 A2.5,2.5 0 0 0 301.5,744.0181 L309,744.0181 L299,734.0181 " fill="url(#gmp01abhwm4wt0)" style="stroke:#8B95A5;stroke-width:1.0;"/><text fill="#111827" font-family="Arial" font-size="14" lengthAdjust="spacing" textLength="216" x="78" y="752.1499">Susi Sonnenschein wird entlassen</text><path d="M47,775.1167 L118,775.1167 L118,783.2153 L108,793.2153 L42,793.2153 L42,780.1167 A5,5 0 0 1 47,775.1167 " fill="#F3F4F6" style="stroke:#111827;stroke-width:1.5;"/><rect fill="none" height="270.4854" rx="5" ry="5" style="stroke:#111827;stroke-width:1.0;" width="1145" x="42" y="775.1167"/><text fill="#000000" font-family="Arial" font-size="14" font-weight="bold" lengthAdjust="spacing" textLength="31" x="57" y="789.2485">loop</text><text fill="#000000" font-family="Arial" font-size="14" font-weight="bold" lengthAdjust="spacing" textLength="5" x="133" y="790.2485">[</text><a href="OperationDefinition-MOPED.Encounter.Abrechnen.html" target="_top" title="OperationDefinition-MOPED.Encounter.Abrechnen.html" xlink:actuate="onRequest" xlink:href="OperationDefinition-MOPED.Encounter.Abrechnen.html" xlink:show="new" xlink:title="OperationDefinition-MOPED.Encounter.Abrechnen.html" xlink:type="simple"><text fill="#0000EE" font-family="Arial" font-size="14" font-weight="bold" lengthAdjust="spacing" textLength="81" x="138" y="790.2485">$abrechnen</text></a><text fill="#000000" font-family="Arial" font-size="14" font-weight="bold" lengthAdjust="spacing" textLength="4" x="223" y="790.2485">/</text><a href="OperationDefinition-MOPED.Abrechnung.Genehmigen.html" target="_top" title="OperationDefinition-MOPED.Abrechnung.Genehmigen.html" xlink:actuate="onRequest" xlink:href="OperationDefinition-MOPED.Abrechnung.Genehmigen.html" xlink:show="new" xlink:title="OperationDefinition-MOPED.Abrechnung.Genehmigen.html" xlink:type="simple"><text fill="#0000EE" font-family="Arial" font-size="14" font-weight="bold" lengthAdjust="spacing" textLength="93" x="231" y="790.2485">$genehmigen</text></a><text fill="#000000" font-family="Arial" font-size="14" font-weight="bold" lengthAdjust="spacing" textLength="76" x="328" y="790.2485">(vorl&#228;ufig)]</text><line style="stroke:#111827;stroke-width:2.0;" x1="471" x2="461" y1="815.2627" y2="811.2627"/><line style="stroke:#111827;stroke-width:2.0;" x1="471" x2="461" y1="815.2627" y2="819.2627"/><line style="stroke:#111827;stroke-width:2.0;" x1="192" x2="472" y1="815.2627" y2="815.2627"/><text fill="#000000" font-family="Arial" font-size="13" font-weight="bold" lengthAdjust="spacing" textLength="7" x="199" y="810.5078">7</text><text fill="#000000" font-family="Arial" font-size="13" lengthAdjust="spacing" textLength="4" x="206" y="810.5078">&#160;</text><a href="OperationDefinition-MOPED.Encounter.Abrechnen.html" target="_top" title="OperationDefinition-MOPED.Encounter.Abrechnen.html" xlink:actuate="onRequest" xlink:href="OperationDefinition-MOPED.Encounter.Abrechnen.html" xlink:show="new" xlink:title="OperationDefinition-MOPED.Encounter.Abrechnen.html" xlink:type="simple"><text fill="#0000EE" font-family="Arial" font-size="13" lengthAdjust="spacing" textLength="67" x="210" y="810.5078">$abrechnen</text></a><path d="M52,833.2627 L52,849.2627 A5,5 0 0 0 57,854.2627 L324,854.2627 A5,5 0 0 0 329,849.2627 L329,838.2627 L319,828.2627 L57,828.2627 A5,5 0 0 0 52,833.2627 " fill="url(#gmp01abhwm4wt0)" filter="url(#fmp01abhwm4wt)" style="stroke:#8B95A5;stroke-width:1.0;"/><path d="M319,828.2627 L319,835.7627 A2.5,2.5 0 0 0 321.5,838.2627 L329,838.2627 L319,828.2627 " fill="url(#gmp01abhwm4wt0)" style="stroke:#8B95A5;stroke-width:1.0;"/><text fill="#111827" font-family="Arial" font-size="14" lengthAdjust="spacing" textLength="256" x="58" y="846.3945">Abrechnung aller Leistungen eingereicht</text><line style="stroke:#111827;stroke-width:2.0;" x1="474" x2="484" y1="898.2588" y2="894.2588"/><line style="stroke:#111827;stroke-width:2.0;" x1="474" x2="484" y1="898.2588" y2="902.2588"/><line style="stroke:#111827;stroke-width:2.0;" x1="473" x2="1036" y1="898.2588" y2="898.2588"/><text fill="#000000" font-family="Arial" font-size="13" font-weight="bold" lengthAdjust="spacing" textLength="14" x="490" y="878.5552">8a</text><text fill="#000000" font-family="Arial" font-size="13" lengthAdjust="spacing" textLength="219" x="508" y="878.5552">GET Claim?status=active&amp;use=claim</text><text fill="#000000" font-family="Arial" font-size="13" lengthAdjust="spacing" textLength="284" x="490" y="893.5039">&amp;_has:ClaimResponse:request:status:not=active</text><path d="M896,916.2588 L896,948.2588 A5,5 0 0 0 901,953.2588 L1169,953.2588 A5,5 0 0 0 1174,948.2588 L1174,921.2588 L1164,911.2588 L901,911.2588 A5,5 0 0 0 896,916.2588 " fill="url(#gmp01abhwm4wt0)" filter="url(#fmp01abhwm4wt)" style="stroke:#8B95A5;stroke-width:1.0;"/><path d="M1164,911.2588 L1164,918.7588 A2.5,2.5 0 0 0 1166.5,921.2588 L1174,921.2588 L1164,911.2588 " fill="url(#gmp01abhwm4wt0)" style="stroke:#8B95A5;stroke-width:1.0;"/><text fill="#111827" font-family="Arial" font-size="14" lengthAdjust="spacing" textLength="257" x="902" y="929.3906">unbeantwortete Abrechnungen abfragen</text><text fill="#111827" font-family="Arial" font-size="14" lengthAdjust="spacing" textLength="136" x="902" y="945.4893">und intern bearbeiten</text><line style="stroke:#111827;stroke-width:2.0;" x1="474" x2="484" y1="982.4048" y2="978.4048"/><line style="stroke:#111827;stroke-width:2.0;" x1="474" x2="484" y1="982.4048" y2="986.4048"/><line style="stroke:#111827;stroke-width:2.0;" x1="473" x2="1036" y1="982.4048" y2="982.4048"/><text fill="#000000" font-family="Arial" font-size="13" font-weight="bold" lengthAdjust="spacing" textLength="15" x="490" y="977.6499">8b</text><text fill="#000000" font-family="Arial" font-size="13" lengthAdjust="spacing" textLength="4" x="505" y="977.6499">&#160;</text><a href="OperationDefinition-MOPED.Abrechnung.Genehmigen.html" target="_top" title="OperationDefinition-MOPED.Abrechnung.Genehmigen.html" xlink:actuate="onRequest" xlink:href="OperationDefinition-MOPED.Abrechnung.Genehmigen.html" xlink:show="new" xlink:title="OperationDefinition-MOPED.Abrechnung.Genehmigen.html" xlink:type="simple"><text fill="#0000EE" font-family="Arial" font-size="13" lengthAdjust="spacing" textLength="77" x="509" y="977.6499">$genehmigen</text></a><path d="M954,1000.4048 L954,1032.4048 A5,5 0 0 0 959,1037.4048 L1112,1037.4048 A5,5 0 0 0 1117,1032.4048 L1117,1005.4048 L1107,995.4048 L959,995.4048 A5,5 0 0 0 954,1000.4048 " fill="url(#gmp01abhwm4wt0)" filter="url(#fmp01abhwm4wt)" style="stroke:#8B95A5;stroke-width:1.0;"/><path d="M1107,995.4048 L1107,1002.9048 A2.5,2.5 0 0 0 1109.5,1005.4048 L1117,1005.4048 L1107,995.4048 " fill="url(#gmp01abhwm4wt0)" style="stroke:#8B95A5;stroke-width:1.0;"/><text fill="#111827" font-family="Arial" font-size="14" lengthAdjust="spacing" textLength="142" x="960" y="1013.5366">Alle Posten genehmigt</text><text fill="#111827" font-family="Arial" font-size="14" lengthAdjust="spacing" textLength="126" x="960" y="1029.6353">(keine &#196;nderungen)</text><line style="stroke:#111827;stroke-width:2.0;" x1="471" x2="461" y1="1073.5508" y2="1069.5508"/><line style="stroke:#111827;stroke-width:2.0;" x1="471" x2="461" y1="1073.5508" y2="1077.5508"/><line style="stroke:#111827;stroke-width:2.0;" x1="192" x2="472" y1="1073.5508" y2="1073.5508"/><text fill="#000000" font-family="Arial" font-size="13" font-weight="bold" lengthAdjust="spacing" textLength="14" x="199" y="1068.7959">9a</text><text fill="#000000" font-family="Arial" font-size="13" lengthAdjust="spacing" textLength="146" x="217" y="1068.7959">GET Composition?id={id}</text><path d="M70,1091.5508 L70,1123.5508 A5,5 0 0 0 75,1128.5508 L306,1128.5508 A5,5 0 0 0 311,1123.5508 L311,1096.5508 L301,1086.5508 L75,1086.5508 A5,5 0 0 0 70,1091.5508 " fill="url(#gmp01abhwm4wt0)" filter="url(#fmp01abhwm4wt)" style="stroke:#8B95A5;stroke-width:1.0;"/><path d="M301,1086.5508 L301,1094.0508 A2.5,2.5 0 0 0 303.5,1096.5508 L311,1096.5508 L301,1086.5508 " fill="url(#gmp01abhwm4wt0)" style="stroke:#8B95A5;stroke-width:1.0;"/><text fill="#111827" font-family="Arial" font-size="14" lengthAdjust="spacing" textLength="220" x="76" y="1104.6826">aktuellen Stand des Falls abfragen</text><text fill="#111827" font-family="Arial" font-size="14" lengthAdjust="spacing" textLength="182" x="76" y="1120.7813">(inkl. best&#228;tigte Abrechnung)</text><line style="stroke:#111827;stroke-width:2.0;" x1="471" x2="461" y1="1157.6968" y2="1153.6968"/><line style="stroke:#111827;stroke-width:2.0;" x1="471" x2="461" y1="1157.6968" y2="1161.6968"/><line style="stroke:#111827;stroke-width:2.0;" x1="192" x2="472" y1="1157.6968" y2="1157.6968"/><text fill="#000000" font-family="Arial" font-size="13" font-weight="bold" lengthAdjust="spacing" textLength="15" x="199" y="1152.9419">9b</text><text fill="#000000" font-family="Arial" font-size="13" lengthAdjust="spacing" textLength="24" x="222" y="1152.9419">final</text><a href="OperationDefinition-MOPED.Encounter.Abrechnen.html" target="_top" title="OperationDefinition-MOPED.Encounter.Abrechnen.html" xlink:actuate="onRequest" xlink:href="OperationDefinition-MOPED.Encounter.Abrechnen.html" xlink:show="new" xlink:title="OperationDefinition-MOPED.Encounter.Abrechnen.html" xlink:type="simple"><text fill="#0000EE" font-family="Arial" font-size="13" lengthAdjust="spacing" textLength="67" x="250" y="1152.9419">$abrechnen</text></a><path d="M72,1175.6968 L72,1191.6968 A5,5 0 0 0 77,1196.6968 L304,1196.6968 A5,5 0 0 0 309,1191.6968 L309,1180.6968 L299,1170.6968 L77,1170.6968 A5,5 0 0 0 72,1175.6968 " fill="url(#gmp01abhwm4wt0)" filter="url(#fmp01abhwm4wt)" style="stroke:#8B95A5;stroke-width:1.0;"/><path d="M299,1170.6968 L299,1178.1968 A2.5,2.5 0 0 0 301.5,1180.6968 L309,1180.6968 L299,1170.6968 " fill="url(#gmp01abhwm4wt0)" style="stroke:#8B95A5;stroke-width:1.0;"/><text fill="#111827" font-family="Arial" font-size="14" lengthAdjust="spacing" textLength="216" x="78" y="1188.8286">Finale Abrechnung seitens der KA</text><line style="stroke:#111827;stroke-width:2.0;" x1="474" x2="484" y1="1240.6929" y2="1236.6929"/><line style="stroke:#111827;stroke-width:2.0;" x1="474" x2="484" y1="1240.6929" y2="1244.6929"/><line style="stroke:#111827;stroke-width:2.0;" x1="473" x2="1036" y1="1240.6929" y2="1240.6929"/><text fill="#000000" font-family="Arial" font-size="13" font-weight="bold" lengthAdjust="spacing" textLength="21" x="490" y="1220.9893">10a</text><text fill="#000000" font-family="Arial" font-size="13" lengthAdjust="spacing" textLength="282" x="515" y="1220.9893">GET Claim?status=active&amp;use=claim&amp;final=true</text><text fill="#000000" font-family="Arial" font-size="13" lengthAdjust="spacing" textLength="284" x="490" y="1235.938">&amp;_has:ClaimResponse:request:status:not=active</text><path d="M896,1258.6929 L896,1290.6929 A5,5 0 0 0 901,1295.6929 L1169,1295.6929 A5,5 0 0 0 1174,1290.6929 L1174,1263.6929 L1164,1253.6929 L901,1253.6929 A5,5 0 0 0 896,1258.6929 " fill="url(#gmp01abhwm4wt0)" filter="url(#fmp01abhwm4wt)" style="stroke:#8B95A5;stroke-width:1.0;"/><path d="M1164,1253.6929 L1164,1261.1929 A2.5,2.5 0 0 0 1166.5,1263.6929 L1174,1263.6929 L1164,1253.6929 " fill="url(#gmp01abhwm4wt0)" style="stroke:#8B95A5;stroke-width:1.0;"/><text fill="#111827" font-family="Arial" font-size="14" lengthAdjust="spacing" textLength="257" x="902" y="1271.8247">unbeantwortete Abrechnungen abfragen</text><text fill="#111827" font-family="Arial" font-size="14" lengthAdjust="spacing" textLength="136" x="902" y="1287.9233">und intern bearbeiten</text><line style="stroke:#111827;stroke-width:2.0;" x1="474" x2="484" y1="1324.8389" y2="1320.8389"/><line style="stroke:#111827;stroke-width:2.0;" x1="474" x2="484" y1="1324.8389" y2="1328.8389"/><line style="stroke:#111827;stroke-width:2.0;" x1="473" x2="1036" y1="1324.8389" y2="1324.8389"/><text fill="#000000" font-family="Arial" font-size="13" font-weight="bold" lengthAdjust="spacing" textLength="22" x="490" y="1320.084">10b</text><text fill="#000000" font-family="Arial" font-size="13" lengthAdjust="spacing" textLength="24" x="516" y="1320.084">final</text><a href="OperationDefinition-MOPED.Abrechnung.Genehmigen.html" target="_top" title="OperationDefinition-MOPED.Abrechnung.Genehmigen.html" xlink:actuate="onRequest" xlink:href="OperationDefinition-MOPED.Abrechnung.Genehmigen.html" xlink:show="new" xlink:title="OperationDefinition-MOPED.Abrechnung.Genehmigen.html" xlink:type="simple"><text fill="#0000EE" font-family="Arial" font-size="13" lengthAdjust="spacing" textLength="77" x="544" y="1320.084">$genehmigen</text></a><path d="M944,1342.8389 L944,1374.8389 A5,5 0 0 0 949,1379.8389 L1121,1379.8389 A5,5 0 0 0 1126,1374.8389 L1126,1347.8389 L1116,1337.8389 L949,1337.8389 A5,5 0 0 0 944,1342.8389 " fill="url(#gmp01abhwm4wt0)" filter="url(#fmp01abhwm4wt)" style="stroke:#8B95A5;stroke-width:1.0;"/><path d="M1116,1337.8389 L1116,1345.3389 A2.5,2.5 0 0 0 1118.5,1347.8389 L1126,1347.8389 L1116,1337.8389 " fill="url(#gmp01abhwm4wt0)" style="stroke:#8B95A5;stroke-width:1.0;"/><text fill="#111827" font-family="Arial" font-size="14" lengthAdjust="spacing" textLength="157" x="950" y="1355.9707">Endg&#252;ltige Entscheidung</text><text fill="#111827" font-family="Arial" font-size="14" lengthAdjust="spacing" textLength="101" x="950" y="1372.0693">zur Abrechnung</text><path d="M932,1398.0361 L932,1430.0361 A5,5 0 0 0 937,1435.0361 L1134,1435.0361 A5,5 0 0 0 1139,1430.0361 L1139,1403.0361 L1129,1393.0361 L937,1393.0361 A5,5 0 0 0 932,1398.0361 " fill="url(#gmp01abhwm4wt0)" filter="url(#fmp01abhwm4wt)" style="stroke:#8B95A5;stroke-width:1.0;"/><path d="M1129,1393.0361 L1129,1400.5361 A2.5,2.5 0 0 0 1131.5,1403.0361 L1139,1403.0361 L1129,1393.0361 " fill="url(#gmp01abhwm4wt0)" style="stroke:#8B95A5;stroke-width:1.0;"/><text fill="#111827" font-family="Arial" font-size="14" lengthAdjust="spacing" textLength="182" x="938" y="1411.168">Kosteninformationen werden</text><text fill="#111827" font-family="Arial" font-size="14" lengthAdjust="spacing" textLength="135" x="938" y="1427.2666">im Datensatz erg&#228;nzt</text><line style="stroke:#111827;stroke-width:2.0;" x1="474" x2="484" y1="1479.1309" y2="1475.1309"/><line style="stroke:#111827;stroke-width:2.0;" x1="474" x2="484" y1="1479.1309" y2="1483.1309"/><line style="stroke:#111827;stroke-width:2.0;" x1="473" x2="816" y1="1479.1309" y2="1479.1309"/><text fill="#000000" font-family="Arial" font-size="13" font-weight="bold" lengthAdjust="spacing" textLength="14" x="490" y="1459.4272">11</text><text fill="#000000" font-family="Arial" font-size="13" lengthAdjust="spacing" textLength="277" x="508" y="1459.4272">GET ClaimResponse?status=active&amp;use=claim</text><text fill="#000000" font-family="Arial" font-size="13" lengthAdjust="spacing" textLength="63" x="490" y="1474.376">&amp;final=true</text><path d="M721,1497.1309 L721,1513.1309 A5,5 0 0 0 726,1518.1309 L905,1518.1309 A5,5 0 0 0 910,1513.1309 L910,1502.1309 L900,1492.1309 L726,1492.1309 A5,5 0 0 0 721,1497.1309 " fill="url(#gmp01abhwm4wt0)" filter="url(#fmp01abhwm4wt)" style="stroke:#8B95A5;stroke-width:1.0;"/><path d="M900,1492.1309 L900,1499.6309 A2.5,2.5 0 0 0 902.5,1502.1309 L910,1502.1309 L900,1492.1309 " fill="url(#gmp01abhwm4wt0)" style="stroke:#8B95A5;stroke-width:1.0;"/><text fill="#111827" font-family="Arial" font-size="14" lengthAdjust="spacing" textLength="168" x="727" y="1510.2627">Kosteninformation abrufen</text><line style="stroke:#111827;stroke-width:2.0;" x1="474" x2="484" y1="1547.1782" y2="1543.1782"/><line style="stroke:#111827;stroke-width:2.0;" x1="474" x2="484" y1="1547.1782" y2="1551.1782"/><line style="stroke:#111827;stroke-width:2.0;" x1="473" x2="1250.5" y1="1547.1782" y2="1547.1782"/><text fill="#000000" font-family="Arial" font-size="13" font-weight="bold" lengthAdjust="spacing" textLength="14" x="490" y="1542.4233">12</text><text fill="#000000" font-family="Arial" font-size="13" lengthAdjust="spacing" textLength="178" x="512" y="1542.4233">GET Composition?status=final</text><path d="M1146,1565.1782 L1146,1581.1782 A5,5 0 0 0 1151,1586.1782 L1348,1586.1782 A5,5 0 0 0 1353,1581.1782 L1353,1570.1782 L1343,1560.1782 L1151,1560.1782 A5,5 0 0 0 1146,1565.1782 " fill="url(#gmp01abhwm4wt0)" filter="url(#fmp01abhwm4wt)" style="stroke:#8B95A5;stroke-width:1.0;"/><path d="M1343,1560.1782 L1343,1567.6782 A2.5,2.5 0 0 0 1345.5,1570.1782 L1353,1570.1782 L1343,1560.1782 " fill="url(#gmp01abhwm4wt0)" style="stroke:#8B95A5;stroke-width:1.0;"/><text fill="#111827" font-family="Arial" font-size="14" lengthAdjust="spacing" textLength="186" x="1152" y="1578.3101">Zugriff auf finale Composition</text><path d="M365,1604.2769 L365,1620.2769 A5,5 0 0 0 370,1625.2769 L572,1625.2769 A5,5 0 0 0 577,1620.2769 L577,1609.2769 L567,1599.2769 L370,1599.2769 A5,5 0 0 0 365,1604.2769 " fill="url(#gmp01abhwm4wt0)" filter="url(#fmp01abhwm4wt)" style="stroke:#8B95A5;stroke-width:1.0;"/><path d="M567,1599.2769 L567,1606.7769 A2.5,2.5 0 0 0 569.5,1609.2769 L577,1609.2769 L567,1599.2769 " fill="url(#gmp01abhwm4wt0)" style="stroke:#8B95A5;stroke-width:1.0;"/><text fill="#111827" font-family="Arial" font-size="14" lengthAdjust="spacing" textLength="191" x="371" y="1617.4087">Fall f&#252;r Moped abgeschlossen</text><!--SRC=[lLPTRXit47xNAGPA4LX0eqYs5Tj2x429PQTLd1XHuWADZOAhdLqHMf4AoRLJ1Ndh6Ng272DlkbY7tDMAAwcMsWQL7xmav-URZpF3qICk9aonCGHIXQXUo4GgUD1mlufUdBB1A5Oo5M4k4RNidoUXXooKTrp44B54etUIgoc12fg-qH0ZbYRcJ0hpceqHgXt5ML9TBz7dKuJc_lh3CcnFHaY3yBa2y7mv06nWAseyUX0smoDyOYLy0Ww3enPh5RllXdmm4gWrD6dlhHVG8QqlMHZQmAqL3qspsJpSFQ2zVa6DKIbMllW0N_u-GPLmCV92w7RN2RmNeVl0d62VU_oOeXXaaLuoPVY0JvWmfP1QxhSai7AjxbSMMYLuvNX-EQM3EIsxLg6ZbBnR9iPjBhZTdM-jyrWSPBxsQEkSa4zACHQMiwELwFQY_UX9MTE_sjBDF9UVl0XA- -juhGJo4rIl1K2l0pilKKtXPzGfz1GJ8nH3bkeQGDLM3hQEZWW46nZI9scceThhL2ieGYh3JvufzxkG4mppRz8VjAA3W97-P44rN5mwAqvqlQ7-5UpC_Zpl_LYlrskvAQhg_UYWW48YriXSihR6qAlpCzXvnIWLTKpHYN28tEX8Yd0UtK7OSEWoarRUshnFxsy3X-Sa28l8eq6m5-mLjjsfDMu_F2EzpgEJ4sAa_JGuQJvz79p0Xmzlg8YOuLASOiG5jr-FBjvSTa_hbxIDmjGxQIHmE4PH7vfn0Z-m-VhcfkAwYBn5UrjjwAUQGryAWK8FA0u1Tro5e8rpCFkgW7HZ579CsXICXHbo1Cif_4BECdagOhWMqrIRsLSHyXZX2fNcP56bb7D44vgfoSF9ejdT6CrLf_lMDWDD0Ob8iNWHJxwaS5wNmidbBEWI0is4dgXqCDIeHWc5HNkLIl-gGBF779ppxZjuaJ0-VcOPIFKntGw_nOUfnkE9GfQQeLHywl1UYuU_3PbkE_ctg2TIQ6oh374xqsyJsxaD3sd_gasC9RIA8YJcWIBLm88ig6jXIUR2e18G85C1fHUA4jfW8tcK0lK5U-PEAkFHbwzlRc2dxu12er5RGdX646VV0aB1A7K8YRrSmsDpBJmbA5tglaUZ74-aTf2UyV3uCm-_B5qM6vaKYGO1PCxc5MhdrATYXnwBfEuvHqjMhUHpCncdp0R_VXBI_vo3r2rM4eYI9i7OvgnDeKvWa2TszHDLY4Aum91FkIZ5tFgExayvYuNKD3xOfik5JgE87AAOLbtflKAkZSLJxVREgu0gObgNw-h9rbsYAqn2waLQu7ozRPSe52gLHCh9lKwxOa2F5-LqlHCe70p58XldQyh6n_VdT2P9yTVFqJOqlcW9SR5Xa_fMAghoDE9nhM8RhiVFmKP-jeFgx2vrdmAVAszLN1UbE94MKmPHGp9EanwH0jBXvkOpiFl_jEEK4PB7DYKHTPIy_EbWWPWWRcf0Ax2tw49RtjWwg1tR8I-b9jSmbxMzPuHsRfpzOKT81xncdqk_18x-XowqYApKZ8uoJe1uOCdtoB8os3DhrdTEuxAz6qsmhKJ5lvzcOykyUkZG7jk1_jy_QlyvlShGCnutqxXrXYqXxOemddrBZ9rLg16wjXPQGkqOeto6bpLxBYMvYAGQEqns248QeWNfyZ6uRg-PcL9xZcaScXhmt-vcitmfSvBlAVh5zImzqIjGY6ILqanHiMFamcKsQwqKHExHcVSiMzqs_9h6YaUHUmUZBEqyNNhsFGrouse6ejatbS_uBA2fRp1CPFP0_0K0]--></g></svg>