<?xml version="1.0" encoding="us-ascii" standalone="no"?><svg xmlns="http://www.w3.org/2000/svg" xmlns:xlink="http://www.w3.org/1999/xlink" contentStyleType="text/css" height="1254px" preserveAspectRatio="none" style="width:1218px;height:1254px;background:#F5F5F5;" version="1.1" viewBox="0 0 1218 1254" width="1218px" zoomAndPan="magnify"><defs><linearGradient id="gvfesu367sgdf0" x1="50%" x2="50%" y1="0%" y2="100%"><stop offset="0%" stop-color="#E0E5F0"/><stop offset="100%" stop-color="#D1D9E6"/></linearGradient><filter height="300%" id="fvfesu367sgdf" width="300%" x="-1" y="-1"><feGaussianBlur result="blurOut" stdDeviation="2.0"/><feColorMatrix in="blurOut" result="blurOut2" type="matrix" values="0 0 0 0 0 0 0 0 0 0 0 0 0 0 0 0 0 0 .4 0"/><feOffset dx="4.0" dy="4.0" in="blurOut2" result="blurOut3"/><feBlend in="SourceGraphic" in2="blurOut3" mode="normal"/></filter></defs><g><rect fill="#F5F5F5" height="1254" style="stroke:none;stroke-width:1.0;" width="1218" x="0" y="0"/><rect fill="#F5E599" height="1242.8467" rx="5" ry="5" style="stroke:#181818;stroke-width:0.5;" width="218" x="83" y="6"/><text fill="#000000" font-family="Arial" font-size="14" font-weight="bold" lengthAdjust="spacing" textLength="4" x="86" y="19.1318">&#160;</text><text fill="#000000" font-family="Arial" font-size="14" font-weight="bold" lengthAdjust="spacing" textLength="196" x="94" y="35.2305">KA (Herz Jesu Krankenhaus)</text><rect fill="#C5F7BA" height="1242.8467" rx="5" ry="5" style="stroke:#181818;stroke-width:0.5;" width="109" x="418.5" y="6"/><text fill="#000000" font-family="Arial" font-size="14" font-weight="bold" lengthAdjust="spacing" textLength="4" x="421.5" y="19.1318">&#160;</text><text fill="#000000" font-family="Arial" font-size="14" font-weight="bold" lengthAdjust="spacing" textLength="47" x="449.5" y="35.2305">Moped</text><rect fill="#C0C0C0" height="1242.8467" rx="5" ry="5" style="stroke:#181818;stroke-width:0.5;" width="118" x="569.5" y="6"/><text fill="#000000" font-family="Arial" font-size="14" font-weight="bold" lengthAdjust="spacing" textLength="4" x="572.5" y="19.1318">&#160;</text><text fill="#000000" font-family="Arial" font-size="14" font-weight="bold" lengthAdjust="spacing" textLength="80" x="588.5" y="35.2305">SV (&#214;GK,...)</text><rect fill="#F7D0BA" height="1242.8467" rx="5" ry="5" style="stroke:#181818;stroke-width:0.5;" width="238" x="771" y="6"/><text fill="#000000" font-family="Arial" font-size="14" font-weight="bold" lengthAdjust="spacing" textLength="4" x="774" y="19.1318">&#160;</text><text fill="#000000" font-family="Arial" font-size="14" font-weight="bold" lengthAdjust="spacing" textLength="220" x="778" y="35.2305">LGF (Landesgesundheitsfonds)</text><rect fill="#FCB3B3" height="1242.8467" rx="5" ry="5" style="stroke:#181818;stroke-width:0.5;" width="107" x="1051" y="6"/><text fill="#000000" font-family="Arial" font-size="14" font-weight="bold" lengthAdjust="spacing" textLength="4" x="1054" y="19.1318">&#160;</text><text fill="#000000" font-family="Arial" font-size="14" font-weight="bold" lengthAdjust="spacing" textLength="37" x="1086" y="35.2305">Bund</text><rect fill="none" height="270.4854" rx="5" ry="5" style="stroke:#111827;stroke-width:1.0;" width="1000" x="42" y="439.6826"/><line style="stroke:#181818;stroke-width:0.5;stroke-dasharray:5.0,5.0;" x1="191.5" x2="191.5" y1="118.2959" y2="1169.748"/><line style="stroke:#181818;stroke-width:0.5;stroke-dasharray:5.0,5.0;" x1="473" x2="473" y1="118.2959" y2="1169.748"/><line style="stroke:#181818;stroke-width:0.5;stroke-dasharray:5.0,5.0;" x1="628" x2="628" y1="118.2959" y2="1169.748"/><line style="stroke:#181818;stroke-width:0.5;stroke-dasharray:5.0,5.0;" x1="889.5" x2="889.5" y1="118.2959" y2="1169.748"/><line style="stroke:#181818;stroke-width:0.5;stroke-dasharray:5.0,5.0;" x1="1104" x2="1104" y1="118.2959" y2="1169.748"/><text fill="#000000" font-family="Arial" font-size="14" lengthAdjust="spacing" textLength="19" x="179.5" y="115.3291">KA</text><ellipse cx="192" cy="50.6973" fill="#E2E2F0" rx="8" ry="8" style="stroke:#181818;stroke-width:0.5;"/><path d="M192,58.6973 L192,85.6973 M179,66.6973 L205,66.6973 M192,85.6973 L179,100.6973 M192,85.6973 L205,100.6973 " fill="none" style="stroke:#181818;stroke-width:0.5;"/><text fill="#000000" font-family="Arial" font-size="14" lengthAdjust="spacing" textLength="19" x="179.5" y="1181.8799">KA</text><ellipse cx="192" cy="1193.3467" fill="#E2E2F0" rx="8" ry="8" style="stroke:#181818;stroke-width:0.5;"/><path d="M192,1201.3467 L192,1228.3467 M179,1209.3467 L205,1209.3467 M192,1228.3467 L179,1243.3467 M192,1228.3467 L205,1243.3467 " fill="none" style="stroke:#181818;stroke-width:0.5;"/><rect fill="#FFFFFF" height="30.0986" rx="5" ry="5" style="stroke:#555555;stroke-width:0.5;" width="58" x="444" y="87.1973"/><text fill="#000000" font-family="Arial" font-size="14" lengthAdjust="spacing" textLength="44" x="451" y="107.3291">Moped</text><rect fill="#FFFFFF" height="30.0986" rx="5" ry="5" style="stroke:#555555;stroke-width:0.5;" width="58" x="444" y="1168.748"/><text fill="#000000" font-family="Arial" font-size="14" lengthAdjust="spacing" textLength="44" x="451" y="1188.8799">Moped</text><text fill="#000000" font-family="Arial" font-size="14" lengthAdjust="spacing" textLength="63" x="594" y="115.3291">SV (&#214;GK)</text><ellipse cx="628.5" cy="50.6973" fill="#E2E2F0" rx="8" ry="8" style="stroke:#181818;stroke-width:0.5;"/><path d="M628.5,58.6973 L628.5,85.6973 M615.5,66.6973 L641.5,66.6973 M628.5,85.6973 L615.5,100.6973 M628.5,85.6973 L641.5,100.6973 " fill="none" style="stroke:#181818;stroke-width:0.5;"/><text fill="#000000" font-family="Arial" font-size="14" lengthAdjust="spacing" textLength="63" x="594" y="1181.8799">SV (&#214;GK)</text><ellipse cx="628.5" cy="1193.3467" fill="#E2E2F0" rx="8" ry="8" style="stroke:#181818;stroke-width:0.5;"/><path d="M628.5,1201.3467 L628.5,1228.3467 M615.5,1209.3467 L641.5,1209.3467 M628.5,1228.3467 L615.5,1243.3467 M628.5,1228.3467 L641.5,1243.3467 " fill="none" style="stroke:#181818;stroke-width:0.5;"/><text fill="#000000" font-family="Arial" font-size="14" lengthAdjust="spacing" textLength="201" x="786.5" y="115.3291">LGF (Landesgesundheitsfonds)</text><ellipse cx="890" cy="50.6973" fill="#E2E2F0" rx="8" ry="8" style="stroke:#181818;stroke-width:0.5;"/><path d="M890,58.6973 L890,85.6973 M877,66.6973 L903,66.6973 M890,85.6973 L877,100.6973 M890,85.6973 L903,100.6973 " fill="none" style="stroke:#181818;stroke-width:0.5;"/><text fill="#000000" font-family="Arial" font-size="14" lengthAdjust="spacing" textLength="201" x="786.5" y="1181.8799">LGF (Landesgesundheitsfonds)</text><ellipse cx="890" cy="1193.3467" fill="#E2E2F0" rx="8" ry="8" style="stroke:#181818;stroke-width:0.5;"/><path d="M890,1201.3467 L890,1228.3467 M877,1209.3467 L903,1209.3467 M890,1228.3467 L877,1243.3467 M890,1228.3467 L903,1243.3467 " fill="none" style="stroke:#181818;stroke-width:0.5;"/><text fill="#000000" font-family="Arial" font-size="14" lengthAdjust="spacing" textLength="33" x="1085" y="115.3291">Bund</text><ellipse cx="1104.5" cy="50.6973" fill="#E2E2F0" rx="8" ry="8" style="stroke:#181818;stroke-width:0.5;"/><path d="M1104.5,58.6973 L1104.5,85.6973 M1091.5,66.6973 L1117.5,66.6973 M1104.5,85.6973 L1091.5,100.6973 M1104.5,85.6973 L1117.5,100.6973 " fill="none" style="stroke:#181818;stroke-width:0.5;"/><text fill="#000000" font-family="Arial" font-size="14" lengthAdjust="spacing" textLength="33" x="1085" y="1181.8799">Bund</text><ellipse cx="1104.5" cy="1193.3467" fill="#E2E2F0" rx="8" ry="8" style="stroke:#181818;stroke-width:0.5;"/><path d="M1104.5,1201.3467 L1104.5,1228.3467 M1091.5,1209.3467 L1117.5,1209.3467 M1104.5,1228.3467 L1091.5,1243.3467 M1104.5,1228.3467 L1117.5,1243.3467 " fill="none" style="stroke:#181818;stroke-width:0.5;"/><line style="stroke:#111827;stroke-width:2.0;" x1="471" x2="461" y1="149.2446" y2="145.2446"/><line style="stroke:#111827;stroke-width:2.0;" x1="471" x2="461" y1="149.2446" y2="153.2446"/><line style="stroke:#111827;stroke-width:2.0;" x1="192" x2="472" y1="149.2446" y2="149.2446"/><text fill="#000000" font-family="Arial" font-size="13" font-weight="bold" lengthAdjust="spacing" textLength="7" x="199" y="144.4897">1</text><text fill="#000000" font-family="Arial" font-size="13" lengthAdjust="spacing" textLength="4" x="206" y="144.4897">&#160;</text><a href="OperationDefinition-MOPED.Patient.Aufnehmen.html" target="_top" title="OperationDefinition-MOPED.Patient.Aufnehmen.html" xlink:actuate="onRequest" xlink:href="OperationDefinition-MOPED.Patient.Aufnehmen.html" xlink:show="new" xlink:title="OperationDefinition-MOPED.Patient.Aufnehmen.html" xlink:type="simple"><text fill="#0000EE" font-family="Arial" font-size="13" lengthAdjust="spacing" textLength="71" x="210" y="144.4897">$aufnehmen</text></a><path d="M26,167.2446 L26,215.2446 A5,5 0 0 0 31,220.2446 L349,220.2446 A5,5 0 0 0 354,215.2446 L354,172.2446 L344,162.2446 L31,162.2446 A5,5 0 0 0 26,167.2446 " fill="url(#gvfesu367sgdf0)" filter="url(#fvfesu367sgdf)" style="stroke:#8B95A5;stroke-width:1.0;"/><path d="M344,162.2446 L344,169.7446 A2.5,2.5 0 0 0 346.5,172.2446 L354,172.2446 L344,162.2446 " fill="url(#gvfesu367sgdf0)" style="stroke:#8B95A5;stroke-width:1.0;"/><text fill="#111827" font-family="Arial" font-size="14" lengthAdjust="spacing" textLength="303" x="32" y="180.3765">Sven Selbstzahler wird station&#228;r aufgenommen,</text><text fill="#111827" font-family="Arial" font-size="14" lengthAdjust="spacing" textLength="223" x="36" y="196.4751">eine Selbstzahler-Coverage erfasst</text><text fill="#111827" font-family="Arial" font-size="14" lengthAdjust="spacing" textLength="273" x="32" y="212.5737">und keine zust&#228;ndige Versicherung gesetzt</text><line style="stroke:#111827;stroke-width:2.0;" x1="471" x2="461" y1="249.4893" y2="245.4893"/><line style="stroke:#111827;stroke-width:2.0;" x1="471" x2="461" y1="249.4893" y2="253.4893"/><line style="stroke:#111827;stroke-width:2.0;" x1="192" x2="472" y1="249.4893" y2="249.4893"/><text fill="#000000" font-family="Arial" font-size="13" font-weight="bold" lengthAdjust="spacing" textLength="7" x="199" y="244.7344">2</text><text fill="#000000" font-family="Arial" font-size="13" lengthAdjust="spacing" textLength="4" x="206" y="244.7344">&#160;</text><a href="OperationDefinition-MOPED.Daten.Update.html" target="_top" title="OperationDefinition-MOPED.Daten.Update.html" xlink:actuate="onRequest" xlink:href="OperationDefinition-MOPED.Daten.Update.html" xlink:show="new" xlink:title="OperationDefinition-MOPED.Daten.Update.html" xlink:type="simple"><text fill="#0000EE" font-family="Arial" font-size="13" lengthAdjust="spacing" textLength="46" x="210" y="244.7344">$update</text></a><path d="M55,267.4893 L55,283.4893 A5,5 0 0 0 60,288.4893 L321,288.4893 A5,5 0 0 0 326,283.4893 L326,272.4893 L316,262.4893 L60,262.4893 A5,5 0 0 0 55,267.4893 " fill="url(#gvfesu367sgdf0)" filter="url(#fvfesu367sgdf)" style="stroke:#8B95A5;stroke-width:1.0;"/><path d="M316,262.4893 L316,269.9893 A2.5,2.5 0 0 0 318.5,272.4893 L326,272.4893 L316,262.4893 " fill="url(#gvfesu367sgdf0)" style="stroke:#8B95A5;stroke-width:1.0;"/><text fill="#111827" font-family="Arial" font-size="14" lengthAdjust="spacing" textLength="250" x="61" y="280.6211">Verlegung auf Abteilung Innere Medizin</text><line style="stroke:#111827;stroke-width:2.0;" x1="471" x2="461" y1="317.5366" y2="313.5366"/><line style="stroke:#111827;stroke-width:2.0;" x1="471" x2="461" y1="317.5366" y2="321.5366"/><line style="stroke:#111827;stroke-width:2.0;" x1="192" x2="472" y1="317.5366" y2="317.5366"/><text fill="#000000" font-family="Arial" font-size="13" font-weight="bold" lengthAdjust="spacing" textLength="7" x="199" y="312.7817">3</text><text fill="#000000" font-family="Arial" font-size="13" lengthAdjust="spacing" textLength="4" x="206" y="312.7817">&#160;</text><a href="OperationDefinition-MOPED.Daten.Update.html" target="_top" title="OperationDefinition-MOPED.Daten.Update.html" xlink:actuate="onRequest" xlink:href="OperationDefinition-MOPED.Daten.Update.html" xlink:show="new" xlink:title="OperationDefinition-MOPED.Daten.Update.html" xlink:type="simple"><text fill="#0000EE" font-family="Arial" font-size="13" lengthAdjust="spacing" textLength="46" x="210" y="312.7817">$update</text></a><path d="M5,335.5366 L5,351.5366 A5,5 0 0 0 10,356.5366 L371,356.5366 A5,5 0 0 0 376,351.5366 L376,340.5366 L366,330.5366 L10,330.5366 A5,5 0 0 0 5,335.5366 " fill="url(#gvfesu367sgdf0)" filter="url(#fvfesu367sgdf)" style="stroke:#8B95A5;stroke-width:1.0;"/><path d="M366,330.5366 L366,338.0366 A2.5,2.5 0 0 0 368.5,340.5366 L376,340.5366 L366,330.5366 " fill="url(#gvfesu367sgdf0)" style="stroke:#8B95A5;stroke-width:1.0;"/><text fill="#111827" font-family="Arial" font-size="14" lengthAdjust="spacing" textLength="350" x="11" y="348.6685">Diagnose "Herzinsuffizienz" und Leistung "EKG" erfasst</text><line style="stroke:#111827;stroke-width:2.0;" x1="471" x2="461" y1="385.584" y2="381.584"/><line style="stroke:#111827;stroke-width:2.0;" x1="471" x2="461" y1="385.584" y2="389.584"/><line style="stroke:#111827;stroke-width:2.0;" x1="192" x2="472" y1="385.584" y2="385.584"/><text fill="#000000" font-family="Arial" font-size="13" font-weight="bold" lengthAdjust="spacing" textLength="7" x="199" y="380.8291">4</text><text fill="#000000" font-family="Arial" font-size="13" lengthAdjust="spacing" textLength="4" x="206" y="380.8291">&#160;</text><a href="OperationDefinition-MOPED.Patient.Entlassen.html" target="_top" title="OperationDefinition-MOPED.Patient.Entlassen.html" xlink:actuate="onRequest" xlink:href="OperationDefinition-MOPED.Patient.Entlassen.html" xlink:show="new" xlink:title="OperationDefinition-MOPED.Patient.Entlassen.html" xlink:type="simple"><text fill="#0000EE" font-family="Arial" font-size="13" lengthAdjust="spacing" textLength="63" x="210" y="380.8291">$entlassen</text></a><path d="M75,403.584 L75,419.584 A5,5 0 0 0 80,424.584 L300,424.584 A5,5 0 0 0 305,419.584 L305,408.584 L295,398.584 L80,398.584 A5,5 0 0 0 75,403.584 " fill="url(#gvfesu367sgdf0)" filter="url(#fvfesu367sgdf)" style="stroke:#8B95A5;stroke-width:1.0;"/><path d="M295,398.584 L295,406.084 A2.5,2.5 0 0 0 297.5,408.584 L305,408.584 L295,398.584 " fill="url(#gvfesu367sgdf0)" style="stroke:#8B95A5;stroke-width:1.0;"/><text fill="#111827" font-family="Arial" font-size="14" lengthAdjust="spacing" textLength="209" x="81" y="416.7158">Sven Selbstzahler wird entlassen</text><path d="M47,439.6826 L118,439.6826 L118,447.7813 L108,457.7813 L42,457.7813 L42,444.6826 A5,5 0 0 1 47,439.6826 " fill="#F3F4F6" style="stroke:#111827;stroke-width:1.5;"/><rect fill="none" height="270.4854" rx="5" ry="5" style="stroke:#111827;stroke-width:1.0;" width="1000" x="42" y="439.6826"/><text fill="#000000" font-family="Arial" font-size="14" font-weight="bold" lengthAdjust="spacing" textLength="31" x="57" y="453.8145">loop</text><text fill="#000000" font-family="Arial" font-size="14" font-weight="bold" lengthAdjust="spacing" textLength="5" x="133" y="454.8145">[</text><a href="OperationDefinition-MOPED.Encounter.Abrechnen.html" target="_top" title="OperationDefinition-MOPED.Encounter.Abrechnen.html" xlink:actuate="onRequest" xlink:href="OperationDefinition-MOPED.Encounter.Abrechnen.html" xlink:show="new" xlink:title="OperationDefinition-MOPED.Encounter.Abrechnen.html" xlink:type="simple"><text fill="#0000EE" font-family="Arial" font-size="14" font-weight="bold" lengthAdjust="spacing" textLength="81" x="138" y="454.8145">$abrechnen</text></a><text fill="#000000" font-family="Arial" font-size="14" font-weight="bold" lengthAdjust="spacing" textLength="4" x="223" y="454.8145">/</text><a href="OperationDefinition-MOPED.Abrechnung.Genehmigen.html" target="_top" title="OperationDefinition-MOPED.Abrechnung.Genehmigen.html" xlink:actuate="onRequest" xlink:href="OperationDefinition-MOPED.Abrechnung.Genehmigen.html" xlink:show="new" xlink:title="OperationDefinition-MOPED.Abrechnung.Genehmigen.html" xlink:type="simple"><text fill="#0000EE" font-family="Arial" font-size="14" font-weight="bold" lengthAdjust="spacing" textLength="93" x="231" y="454.8145">$genehmigen</text></a><text fill="#000000" font-family="Arial" font-size="14" font-weight="bold" lengthAdjust="spacing" textLength="76" x="328" y="454.8145">(vorl&#228;ufig)]</text><line style="stroke:#111827;stroke-width:2.0;" x1="471" x2="461" y1="479.8286" y2="475.8286"/><line style="stroke:#111827;stroke-width:2.0;" x1="471" x2="461" y1="479.8286" y2="483.8286"/><line style="stroke:#111827;stroke-width:2.0;" x1="192" x2="472" y1="479.8286" y2="479.8286"/><text fill="#000000" font-family="Arial" font-size="13" font-weight="bold" lengthAdjust="spacing" textLength="7" x="199" y="475.0737">5</text><text fill="#000000" font-family="Arial" font-size="13" lengthAdjust="spacing" textLength="4" x="206" y="475.0737">&#160;</text><a href="OperationDefinition-MOPED.Encounter.Abrechnen.html" target="_top" title="OperationDefinition-MOPED.Encounter.Abrechnen.html" xlink:actuate="onRequest" xlink:href="OperationDefinition-MOPED.Encounter.Abrechnen.html" xlink:show="new" xlink:title="OperationDefinition-MOPED.Encounter.Abrechnen.html" xlink:type="simple"><text fill="#0000EE" font-family="Arial" font-size="13" lengthAdjust="spacing" textLength="67" x="210" y="475.0737">$abrechnen</text></a><path d="M52,497.8286 L52,513.8286 A5,5 0 0 0 57,518.8286 L324,518.8286 A5,5 0 0 0 329,513.8286 L329,502.8286 L319,492.8286 L57,492.8286 A5,5 0 0 0 52,497.8286 " fill="url(#gvfesu367sgdf0)" filter="url(#fvfesu367sgdf)" style="stroke:#8B95A5;stroke-width:1.0;"/><path d="M319,492.8286 L319,500.3286 A2.5,2.5 0 0 0 321.5,502.8286 L329,502.8286 L319,492.8286 " fill="url(#gvfesu367sgdf0)" style="stroke:#8B95A5;stroke-width:1.0;"/><text fill="#111827" font-family="Arial" font-size="14" lengthAdjust="spacing" textLength="256" x="58" y="510.9604">Abrechnung aller Leistungen eingereicht</text><line style="stroke:#111827;stroke-width:2.0;" x1="474" x2="484" y1="562.8247" y2="558.8247"/><line style="stroke:#111827;stroke-width:2.0;" x1="474" x2="484" y1="562.8247" y2="566.8247"/><line style="stroke:#111827;stroke-width:2.0;" x1="473" x2="889" y1="562.8247" y2="562.8247"/><text fill="#000000" font-family="Arial" font-size="13" font-weight="bold" lengthAdjust="spacing" textLength="14" x="490" y="543.1211">6a</text><text fill="#000000" font-family="Arial" font-size="13" lengthAdjust="spacing" textLength="219" x="508" y="543.1211">GET Claim?status=active&amp;use=claim</text><text fill="#000000" font-family="Arial" font-size="13" lengthAdjust="spacing" textLength="284" x="490" y="558.0698">&amp;_has:ClaimResponse:request:status:not=active</text><path d="M747,580.8247 L747,612.8247 A5,5 0 0 0 752,617.8247 L1024,617.8247 A5,5 0 0 0 1029,612.8247 L1029,585.8247 L1019,575.8247 L752,575.8247 A5,5 0 0 0 747,580.8247 " fill="url(#gvfesu367sgdf0)" filter="url(#fvfesu367sgdf)" style="stroke:#8B95A5;stroke-width:1.0;"/><path d="M1019,575.8247 L1019,583.3247 A2.5,2.5 0 0 0 1021.5,585.8247 L1029,585.8247 L1019,575.8247 " fill="url(#gvfesu367sgdf0)" style="stroke:#8B95A5;stroke-width:1.0;"/><text fill="#111827" font-family="Arial" font-size="14" lengthAdjust="spacing" textLength="257" x="753" y="593.9565">unbeantwortete Abrechnungen abfragen</text><text fill="#111827" font-family="Arial" font-size="14" lengthAdjust="spacing" textLength="136" x="753" y="610.0552">und intern bearbeiten</text><line style="stroke:#111827;stroke-width:2.0;" x1="474" x2="484" y1="646.9707" y2="642.9707"/><line style="stroke:#111827;stroke-width:2.0;" x1="474" x2="484" y1="646.9707" y2="650.9707"/><line style="stroke:#111827;stroke-width:2.0;" x1="473" x2="889" y1="646.9707" y2="646.9707"/><text fill="#000000" font-family="Arial" font-size="13" font-weight="bold" lengthAdjust="spacing" textLength="15" x="490" y="642.2158">6b</text><text fill="#000000" font-family="Arial" font-size="13" lengthAdjust="spacing" textLength="4" x="505" y="642.2158">&#160;</text><a href="OperationDefinition-MOPED.Abrechnung.Genehmigen.html" target="_top" title="OperationDefinition-MOPED.Abrechnung.Genehmigen.html" xlink:actuate="onRequest" xlink:href="OperationDefinition-MOPED.Abrechnung.Genehmigen.html" xlink:show="new" xlink:title="OperationDefinition-MOPED.Abrechnung.Genehmigen.html" xlink:type="simple"><text fill="#0000EE" font-family="Arial" font-size="13" lengthAdjust="spacing" textLength="77" x="509" y="642.2158">$genehmigen</text></a><path d="M805,664.9707 L805,696.9707 A5,5 0 0 0 810,701.9707 L967,701.9707 A5,5 0 0 0 972,696.9707 L972,669.9707 L962,659.9707 L810,659.9707 A5,5 0 0 0 805,664.9707 " fill="url(#gvfesu367sgdf0)" filter="url(#fvfesu367sgdf)" style="stroke:#8B95A5;stroke-width:1.0;"/><path d="M962,659.9707 L962,667.4707 A2.5,2.5 0 0 0 964.5,669.9707 L972,669.9707 L962,659.9707 " fill="url(#gvfesu367sgdf0)" style="stroke:#8B95A5;stroke-width:1.0;"/><text fill="#111827" font-family="Arial" font-size="14" lengthAdjust="spacing" textLength="142" x="811" y="678.1025">Alle Posten genehmigt</text><text fill="#111827" font-family="Arial" font-size="14" lengthAdjust="spacing" textLength="126" x="811" y="694.2012">(keine &#196;nderungen)</text><line style="stroke:#111827;stroke-width:2.0;" x1="471" x2="461" y1="738.1167" y2="734.1167"/><line style="stroke:#111827;stroke-width:2.0;" x1="471" x2="461" y1="738.1167" y2="742.1167"/><line style="stroke:#111827;stroke-width:2.0;" x1="192" x2="472" y1="738.1167" y2="738.1167"/><text fill="#000000" font-family="Arial" font-size="13" font-weight="bold" lengthAdjust="spacing" textLength="14" x="199" y="733.3618">7a</text><text fill="#000000" font-family="Arial" font-size="13" lengthAdjust="spacing" textLength="146" x="217" y="733.3618">GET Composition?id={id}</text><path d="M68,756.1167 L68,788.1167 A5,5 0 0 0 73,793.1167 L308,793.1167 A5,5 0 0 0 313,788.1167 L313,761.1167 L303,751.1167 L73,751.1167 A5,5 0 0 0 68,756.1167 " fill="url(#gvfesu367sgdf0)" filter="url(#fvfesu367sgdf)" style="stroke:#8B95A5;stroke-width:1.0;"/><path d="M303,751.1167 L303,758.6167 A2.5,2.5 0 0 0 305.5,761.1167 L313,761.1167 L303,751.1167 " fill="url(#gvfesu367sgdf0)" style="stroke:#8B95A5;stroke-width:1.0;"/><text fill="#111827" font-family="Arial" font-size="14" lengthAdjust="spacing" textLength="220" x="74" y="769.2485">aktuellen Stand des Falls abfragen</text><text fill="#111827" font-family="Arial" font-size="14" lengthAdjust="spacing" textLength="182" x="74" y="785.3472">(inkl. best&#228;tigte Abrechnung)</text><line style="stroke:#111827;stroke-width:2.0;" x1="471" x2="461" y1="822.2627" y2="818.2627"/><line style="stroke:#111827;stroke-width:2.0;" x1="471" x2="461" y1="822.2627" y2="826.2627"/><line style="stroke:#111827;stroke-width:2.0;" x1="192" x2="472" y1="822.2627" y2="822.2627"/><text fill="#000000" font-family="Arial" font-size="13" font-weight="bold" lengthAdjust="spacing" textLength="15" x="199" y="817.5078">7b</text><text fill="#000000" font-family="Arial" font-size="13" lengthAdjust="spacing" textLength="24" x="222" y="817.5078">final</text><a href="OperationDefinition-MOPED.Encounter.Abrechnen.html" target="_top" title="OperationDefinition-MOPED.Encounter.Abrechnen.html" xlink:actuate="onRequest" xlink:href="OperationDefinition-MOPED.Encounter.Abrechnen.html" xlink:show="new" xlink:title="OperationDefinition-MOPED.Encounter.Abrechnen.html" xlink:type="simple"><text fill="#0000EE" font-family="Arial" font-size="13" lengthAdjust="spacing" textLength="67" x="250" y="817.5078">$abrechnen</text></a><path d="M70,840.2627 L70,856.2627 A5,5 0 0 0 75,861.2627 L305,861.2627 A5,5 0 0 0 310,856.2627 L310,845.2627 L300,835.2627 L75,835.2627 A5,5 0 0 0 70,840.2627 " fill="url(#gvfesu367sgdf0)" filter="url(#fvfesu367sgdf)" style="stroke:#8B95A5;stroke-width:1.0;"/><path d="M300,835.2627 L300,842.7627 A2.5,2.5 0 0 0 302.5,845.2627 L310,845.2627 L300,835.2627 " fill="url(#gvfesu367sgdf0)" style="stroke:#8B95A5;stroke-width:1.0;"/><text fill="#111827" font-family="Arial" font-size="14" lengthAdjust="spacing" textLength="219" x="76" y="853.3945">Finale Abrechnung seitens der KA</text><line style="stroke:#111827;stroke-width:2.0;" x1="474" x2="484" y1="905.2588" y2="901.2588"/><line style="stroke:#111827;stroke-width:2.0;" x1="474" x2="484" y1="905.2588" y2="909.2588"/><line style="stroke:#111827;stroke-width:2.0;" x1="473" x2="889" y1="905.2588" y2="905.2588"/><text fill="#000000" font-family="Arial" font-size="13" font-weight="bold" lengthAdjust="spacing" textLength="14" x="490" y="885.5552">8a</text><text fill="#000000" font-family="Arial" font-size="13" lengthAdjust="spacing" textLength="317" x="508" y="885.5552">GET Claim?status=active&amp;use=claim&amp;endgueltig=true</text><text fill="#000000" font-family="Arial" font-size="13" lengthAdjust="spacing" textLength="284" x="490" y="900.5039">&amp;_has:ClaimResponse:request:status:not=active</text><path d="M747,923.2588 L747,955.2588 A5,5 0 0 0 752,960.2588 L1024,960.2588 A5,5 0 0 0 1029,955.2588 L1029,928.2588 L1019,918.2588 L752,918.2588 A5,5 0 0 0 747,923.2588 " fill="url(#gvfesu367sgdf0)" filter="url(#fvfesu367sgdf)" style="stroke:#8B95A5;stroke-width:1.0;"/><path d="M1019,918.2588 L1019,925.7588 A2.5,2.5 0 0 0 1021.5,928.2588 L1029,928.2588 L1019,918.2588 " fill="url(#gvfesu367sgdf0)" style="stroke:#8B95A5;stroke-width:1.0;"/><text fill="#111827" font-family="Arial" font-size="14" lengthAdjust="spacing" textLength="257" x="753" y="936.3906">unbeantwortete Abrechnungen abfragen</text><text fill="#111827" font-family="Arial" font-size="14" lengthAdjust="spacing" textLength="136" x="753" y="952.4893">und intern bearbeiten</text><line style="stroke:#111827;stroke-width:2.0;" x1="474" x2="484" y1="989.4048" y2="985.4048"/><line style="stroke:#111827;stroke-width:2.0;" x1="474" x2="484" y1="989.4048" y2="993.4048"/><line style="stroke:#111827;stroke-width:2.0;" x1="473" x2="889" y1="989.4048" y2="989.4048"/><text fill="#000000" font-family="Arial" font-size="13" font-weight="bold" lengthAdjust="spacing" textLength="15" x="490" y="984.6499">8b</text><text fill="#000000" font-family="Arial" font-size="13" lengthAdjust="spacing" textLength="24" x="509" y="984.6499">final</text><a href="OperationDefinition-MOPED.Abrechnung.Genehmigen.html" target="_top" title="OperationDefinition-MOPED.Abrechnung.Genehmigen.html" xlink:actuate="onRequest" xlink:href="OperationDefinition-MOPED.Abrechnung.Genehmigen.html" xlink:show="new" xlink:title="OperationDefinition-MOPED.Abrechnung.Genehmigen.html" xlink:type="simple"><text fill="#0000EE" font-family="Arial" font-size="13" lengthAdjust="spacing" textLength="77" x="537" y="984.6499">$genehmigen</text></a><path d="M795,1007.4048 L795,1039.4048 A5,5 0 0 0 800,1044.4048 L976,1044.4048 A5,5 0 0 0 981,1039.4048 L981,1012.4048 L971,1002.4048 L800,1002.4048 A5,5 0 0 0 795,1007.4048 " fill="url(#gvfesu367sgdf0)" filter="url(#fvfesu367sgdf)" style="stroke:#8B95A5;stroke-width:1.0;"/><path d="M971,1002.4048 L971,1009.9048 A2.5,2.5 0 0 0 973.5,1012.4048 L981,1012.4048 L971,1002.4048 " fill="url(#gvfesu367sgdf0)" style="stroke:#8B95A5;stroke-width:1.0;"/><text fill="#111827" font-family="Arial" font-size="14" lengthAdjust="spacing" textLength="157" x="801" y="1020.5366">Endg&#252;ltige Entscheidung</text><text fill="#111827" font-family="Arial" font-size="14" lengthAdjust="spacing" textLength="101" x="801" y="1036.6353">zur Abrechnung</text><line style="stroke:#111827;stroke-width:2.0;" x1="474" x2="484" y1="1073.5508" y2="1069.5508"/><line style="stroke:#111827;stroke-width:2.0;" x1="474" x2="484" y1="1073.5508" y2="1077.5508"/><line style="stroke:#111827;stroke-width:2.0;" x1="473" x2="1103.5" y1="1073.5508" y2="1073.5508"/><text fill="#000000" font-family="Arial" font-size="13" font-weight="bold" lengthAdjust="spacing" textLength="7" x="490" y="1068.7959">9</text><text fill="#000000" font-family="Arial" font-size="13" lengthAdjust="spacing" textLength="178" x="505" y="1068.7959">GET Composition?status=final</text><path d="M999,1091.5508 L999,1107.5508 A5,5 0 0 0 1004,1112.5508 L1201,1112.5508 A5,5 0 0 0 1206,1107.5508 L1206,1096.5508 L1196,1086.5508 L1004,1086.5508 A5,5 0 0 0 999,1091.5508 " fill="url(#gvfesu367sgdf0)" filter="url(#fvfesu367sgdf)" style="stroke:#8B95A5;stroke-width:1.0;"/><path d="M1196,1086.5508 L1196,1094.0508 A2.5,2.5 0 0 0 1198.5,1096.5508 L1206,1096.5508 L1196,1086.5508 " fill="url(#gvfesu367sgdf0)" style="stroke:#8B95A5;stroke-width:1.0;"/><text fill="#111827" font-family="Arial" font-size="14" lengthAdjust="spacing" textLength="186" x="1005" y="1104.6826">Zugriff auf finale Composition</text><path d="M365,1130.6494 L365,1146.6494 A5,5 0 0 0 370,1151.6494 L572,1151.6494 A5,5 0 0 0 577,1146.6494 L577,1135.6494 L567,1125.6494 L370,1125.6494 A5,5 0 0 0 365,1130.6494 " fill="url(#gvfesu367sgdf0)" filter="url(#fvfesu367sgdf)" style="stroke:#8B95A5;stroke-width:1.0;"/><path d="M567,1125.6494 L567,1133.1494 A2.5,2.5 0 0 0 569.5,1135.6494 L577,1135.6494 L567,1125.6494 " fill="url(#gvfesu367sgdf0)" style="stroke:#8B95A5;stroke-width:1.0;"/><text fill="#111827" font-family="Arial" font-size="14" lengthAdjust="spacing" textLength="191" x="371" y="1143.7813">Fall f&#252;r Moped abgeschlossen</text><!--SRC=[hLRTRjf85BxtKnpHLHIaXeOav0SrgKX2O9UaHKtRY-r6gx5z32FC39qP9rcgtkqpx1FaCNh7Y-sP0SEOi0ahnLnWpvoVx_lEEMFh0HSZfjWGGgbYL6SobGfURRihq8jT5WrwIcOYdbaaDVlpB7IVnVAEYnuaBDNexSpSb405LJzeZ0dBKdCXXNdFXWYbXk8iBQsskEPZXEhUwiqYRCz6I8FmFG0uNIQ0srXBjhTUnTNu2FUjXI_0ONXKOxNvwgS-ZmO2jOOghNtq21tISvV5iILketXegjNguSu1hLtFfJ4gm-273x3zrmXLoiN0ez1ihZBuB69tWpE1VUtnMuOYcZBjCcLun4TCc0AbchkM31wLrLr5eyS2FzhEYrFOo6NPiGuDfUJTiZ1kSQ7jJhwqAkDyOvfhbvPQX7nKu3YFFDrwn6utsKlsYvv-QGkLEPNt7eF2-YfTWr3UG-aF0T1fmsORrHX-Gvr1Hp4nGD5dcIu3bEpaOEteY42mo90_MJCDfKwx5A28QGpllL3kkf8ZZ6Vtv1_LaeEGaVze8JLSTLqKPxewqFKNs9pyq-gyhbGgvJpKjltDeP293P9RbbS4kcnTmEOberRKFM8duZvoenCfufpTGRpjq4r3MdiRyoc__oGEfsG82-P95Ew6k_FORjS6jpTUa4vxw-I45Ac_3K-gRz-49_3rwmSQ8cQu5EUOSC7jtTRLXsxplDAbPHIcqiWIWVqXYahV35FuXUNFDpU1EqNaBTfgrU7w5WLSOnfgCsRzb5Rlk8f16vTWyg20V7iev92yNmFHGJkrliVMcOt6UWYe4gQr0JApT0RET9nfCtaGCIU3BwWqZ_geCcf4qWxDsCmuJYdkF4lnd1cYzNaKq_-CNUOUYDhx0ZLAbcBFPY8Aq0WDyjG-_Iheh4EumfYFkIYattt1zEUSzOJKz2QmyyE5pfA44g8Oby2gSubS6ukdrEoqIhbs1JXxQnUyAKnAxlE2O_wyRi7d3a4Gf5AEdipQ514TH0PLfH4gZFfYqMZvyyqDl7aonioJ1AYqq3OdzKSUfJTVe32RjrAbauSiuRroO8V74wZsh43hGNLnY-LRu0EMMfdoUg4RWHwr47MoSPvq8CmXxJE7gTNy16SfuyDtTfGoVKnZpczn8zDu7Dbrcf6DF_jCrvtLHzGZAJJMbNtxQLEVUjMfTZFF9OYKiavj528Tc7TI6QID1MJ2oCB4pgIOpIAt6WWWUnNIQKLrVWGyV5RCTMks2ck3H8Ikr9GQSbj3u3QdfyJaR_j5uA2NxUddZy619waSZgHscDxn-FWxZtyiZHqRc0mf5pMveIEQFgmqN505jQ_89ds2f1LImnvDXe3uufKBkQUg02d1qfVej2BQ2nlMJqwVFxOwsk7kj0E_GeThjjO6wTSZ4OZOiVr8-z-jzf9jLY0m5VDvBTTkj2MaJI8- -Mc98zqRJQyQ7bjL2TuuKxxEWNtHpf4TJQkyt68pWHrWBvTrhSFlMK_n975lbsHQHyytyEmfX-j1I2O_rUmJY8Nq_elwgNI7xhy0]--></g></svg>