<?xml version="1.0" encoding="us-ascii" standalone="no"?><svg xmlns="http://www.w3.org/2000/svg" xmlns:xlink="http://www.w3.org/1999/xlink" contentStyleType="text/css" height="450px" preserveAspectRatio="none" style="width:1016px;height:450px;background:#F5F5F5;" version="1.1" viewBox="0 0 1016 450" width="1016px" zoomAndPan="magnify"><defs><filter height="300%" id="faa20irkx3orv" width="300%" x="-1" y="-1"><feGaussianBlur result="blurOut" stdDeviation="2.0"/><feColorMatrix in="blurOut" result="blurOut2" type="matrix" values="0 0 0 0 0 0 0 0 0 0 0 0 0 0 0 0 0 0 .4 0"/><feOffset dx="4.0" dy="4.0" in="blurOut2" result="blurOut3"/><feBlend in="SourceGraphic" in2="blurOut3" mode="normal"/></filter><linearGradient id="gaa20irkx3orv0" x1="50%" x2="50%" y1="0%" y2="100%"><stop offset="0%" stop-color="#E0E5F0"/><stop offset="100%" stop-color="#D1D9E6"/></linearGradient></defs><g><rect fill="#F5F5F5" height="450" style="stroke:none;stroke-width:1.0;" width="1016" x="0" y="0"/><rect fill="#F5E599" height="438.1323" rx="5" ry="5" style="stroke:#181818;stroke-width:0.5;" width="106" x="73" y="6"/><text fill="#000000" font-family="Arial" font-size="14" font-weight="bold" lengthAdjust="spacing" textLength="4" x="76" y="19.1318">&#160;</text><text fill="#000000" font-family="Arial" font-size="14" font-weight="bold" lengthAdjust="spacing" textLength="20" x="112" y="35.2305">KA</text><rect fill="#C5F7BA" height="438.1323" rx="5" ry="5" style="stroke:#181818;stroke-width:0.5;" width="165" x="246.5" y="6"/><text fill="#000000" font-family="Arial" font-size="14" font-weight="bold" lengthAdjust="spacing" textLength="4" x="249.5" y="19.1318">&#160;</text><text fill="#000000" font-family="Arial" font-size="14" font-weight="bold" lengthAdjust="spacing" textLength="47" x="305.5" y="35.2305">Moped</text><rect fill="#C0C0C0" height="438.1323" rx="5" ry="5" style="stroke:#181818;stroke-width:0.5;" width="104" x="453.5" y="6"/><text fill="#000000" font-family="Arial" font-size="14" font-weight="bold" lengthAdjust="spacing" textLength="4" x="456.5" y="19.1318">&#160;</text><text fill="#000000" font-family="Arial" font-size="14" font-weight="bold" lengthAdjust="spacing" textLength="18" x="492.5" y="35.2305">SV</text><rect fill="#C0C0C0" height="438.1323" rx="5" ry="5" style="stroke:#181818;stroke-width:0.5;" width="238" x="599.5" y="6"/><text fill="#000000" font-family="Arial" font-size="14" font-weight="bold" lengthAdjust="spacing" textLength="4" x="602.5" y="19.1318">&#160;</text><text fill="#000000" font-family="Arial" font-size="14" font-weight="bold" lengthAdjust="spacing" textLength="220" x="606.5" y="35.2305">LGF (Landesgesundheitsfonds)</text><rect fill="#C0C0C0" height="438.1323" rx="5" ry="5" style="stroke:#181818;stroke-width:0.5;" width="131" x="879.5" y="6"/><text fill="#000000" font-family="Arial" font-size="14" font-weight="bold" lengthAdjust="spacing" textLength="4" x="882.5" y="19.1318">&#160;</text><text fill="#000000" font-family="Arial" font-size="14" font-weight="bold" lengthAdjust="spacing" textLength="37" x="926.5" y="35.2305">Bund</text><line style="stroke:#181818;stroke-width:0.5;stroke-dasharray:5.0,5.0;" x1="125.5" x2="125.5" y1="118.2959" y2="365.0337"/><line style="stroke:#181818;stroke-width:0.5;stroke-dasharray:5.0,5.0;" x1="329" x2="329" y1="118.2959" y2="365.0337"/><line style="stroke:#181818;stroke-width:0.5;stroke-dasharray:5.0,5.0;" x1="505" x2="505" y1="118.2959" y2="365.0337"/><line style="stroke:#181818;stroke-width:0.5;stroke-dasharray:5.0,5.0;" x1="718" x2="718" y1="118.2959" y2="365.0337"/><line style="stroke:#181818;stroke-width:0.5;stroke-dasharray:5.0,5.0;" x1="944.5" x2="944.5" y1="118.2959" y2="365.0337"/><text fill="#000000" font-family="Arial" font-size="14" lengthAdjust="spacing" textLength="19" x="113.5" y="115.3291">KA</text><ellipse cx="126" cy="50.6973" fill="#E2E2F0" rx="8" ry="8" style="stroke:#181818;stroke-width:0.5;"/><path d="M126,58.6973 L126,85.6973 M113,66.6973 L139,66.6973 M126,85.6973 L113,100.6973 M126,85.6973 L139,100.6973 " fill="none" style="stroke:#181818;stroke-width:0.5;"/><text fill="#000000" font-family="Arial" font-size="14" lengthAdjust="spacing" textLength="19" x="113.5" y="377.1655">KA</text><ellipse cx="126" cy="388.6323" fill="#E2E2F0" rx="8" ry="8" style="stroke:#181818;stroke-width:0.5;"/><path d="M126,396.6323 L126,423.6323 M113,404.6323 L139,404.6323 M126,423.6323 L113,438.6323 M126,423.6323 L139,438.6323 " fill="none" style="stroke:#181818;stroke-width:0.5;"/><rect fill="#FFFFFF" height="30.0986" rx="5" ry="5" style="stroke:#555555;stroke-width:0.5;" width="58" x="300" y="87.1973"/><text fill="#000000" font-family="Arial" font-size="14" lengthAdjust="spacing" textLength="44" x="307" y="107.3291">Moped</text><rect fill="#FFFFFF" height="30.0986" rx="5" ry="5" style="stroke:#555555;stroke-width:0.5;" width="58" x="300" y="364.0337"/><text fill="#000000" font-family="Arial" font-size="14" lengthAdjust="spacing" textLength="44" x="307" y="384.1655">Moped</text><text fill="#000000" font-family="Arial" font-size="14" lengthAdjust="spacing" textLength="18" x="493.5" y="115.3291">SV</text><ellipse cx="505.5" cy="50.6973" fill="#E2E2F0" rx="8" ry="8" style="stroke:#181818;stroke-width:0.5;"/><path d="M505.5,58.6973 L505.5,85.6973 M492.5,66.6973 L518.5,66.6973 M505.5,85.6973 L492.5,100.6973 M505.5,85.6973 L518.5,100.6973 " fill="none" style="stroke:#181818;stroke-width:0.5;"/><text fill="#000000" font-family="Arial" font-size="14" lengthAdjust="spacing" textLength="18" x="493.5" y="377.1655">SV</text><ellipse cx="505.5" cy="388.6323" fill="#E2E2F0" rx="8" ry="8" style="stroke:#181818;stroke-width:0.5;"/><path d="M505.5,396.6323 L505.5,423.6323 M492.5,404.6323 L518.5,404.6323 M505.5,423.6323 L492.5,438.6323 M505.5,423.6323 L518.5,438.6323 " fill="none" style="stroke:#181818;stroke-width:0.5;"/><text fill="#000000" font-family="Arial" font-size="14" lengthAdjust="spacing" textLength="201" x="615" y="115.3291">LGF (Landesgesundheitsfonds)</text><ellipse cx="718.5" cy="50.6973" fill="#E2E2F0" rx="8" ry="8" style="stroke:#181818;stroke-width:0.5;"/><path d="M718.5,58.6973 L718.5,85.6973 M705.5,66.6973 L731.5,66.6973 M718.5,85.6973 L705.5,100.6973 M718.5,85.6973 L731.5,100.6973 " fill="none" style="stroke:#181818;stroke-width:0.5;"/><text fill="#000000" font-family="Arial" font-size="14" lengthAdjust="spacing" textLength="201" x="615" y="377.1655">LGF (Landesgesundheitsfonds)</text><ellipse cx="718.5" cy="388.6323" fill="#E2E2F0" rx="8" ry="8" style="stroke:#181818;stroke-width:0.5;"/><path d="M718.5,396.6323 L718.5,423.6323 M705.5,404.6323 L731.5,404.6323 M718.5,423.6323 L705.5,438.6323 M718.5,423.6323 L731.5,438.6323 " fill="none" style="stroke:#181818;stroke-width:0.5;"/><text fill="#000000" font-family="Arial" font-size="14" lengthAdjust="spacing" textLength="33" x="925.5" y="115.3291">Bund</text><ellipse cx="945" cy="50.6973" fill="#E2E2F0" rx="8" ry="8" style="stroke:#181818;stroke-width:0.5;"/><path d="M945,58.6973 L945,85.6973 M932,66.6973 L958,66.6973 M945,85.6973 L932,100.6973 M945,85.6973 L958,100.6973 " fill="none" style="stroke:#181818;stroke-width:0.5;"/><text fill="#000000" font-family="Arial" font-size="14" lengthAdjust="spacing" textLength="33" x="925.5" y="377.1655">Bund</text><ellipse cx="945" cy="388.6323" fill="#E2E2F0" rx="8" ry="8" style="stroke:#181818;stroke-width:0.5;"/><path d="M945,396.6323 L945,423.6323 M932,404.6323 L958,404.6323 M945,423.6323 L932,438.6323 M945,423.6323 L958,438.6323 " fill="none" style="stroke:#181818;stroke-width:0.5;"/><path d="M334,138.2959 L334,170.2959 A5,5 0 0 0 339,175.2959 L489,175.2959 A5,5 0 0 0 494,170.2959 L494,143.2959 L484,133.2959 L339,133.2959 A5,5 0 0 0 334,138.2959 " fill="#C5F7BA" filter="url(#faa20irkx3orv)" style="stroke:#8B95A5;stroke-width:1.0;"/><path d="M484,133.2959 L484,140.7959 A2.5,2.5 0 0 0 486.5,143.2959 L494,143.2959 L484,133.2959 " fill="#C5F7BA" style="stroke:#8B95A5;stroke-width:1.0;"/><text fill="#111827" font-family="Arial" font-size="14" lengthAdjust="spacing" textLength="56" x="340" y="151.4277">Zustand:</text><text fill="#111827" font-family="Arial" font-size="14" lengthAdjust="spacing" textLength="139" x="340" y="167.5264">- Moped Fall angelegt</text><line style="stroke:#111827;stroke-width:2.0;" x1="327" x2="317" y1="204.4419" y2="200.4419"/><line style="stroke:#111827;stroke-width:2.0;" x1="327" x2="317" y1="204.4419" y2="208.4419"/><line style="stroke:#111827;stroke-width:2.0;" x1="126" x2="328" y1="204.4419" y2="204.4419"/><text fill="#000000" font-family="Arial" font-size="13" font-weight="bold" lengthAdjust="spacing" textLength="7" x="133" y="199.687">1</text><text fill="#000000" font-family="Arial" font-size="13" lengthAdjust="spacing" textLength="103" x="144" y="199.687">POST $entlassen</text><path d="M5,222.4419 L5,286.4419 A5,5 0 0 0 10,291.4419 L240,291.4419 A5,5 0 0 0 245,286.4419 L245,227.4419 L235,217.4419 L10,217.4419 A5,5 0 0 0 5,222.4419 " fill="url(#gaa20irkx3orv0)" filter="url(#faa20irkx3orv)" style="stroke:#8B95A5;stroke-width:1.0;"/><path d="M235,217.4419 L235,224.9419 A2.5,2.5 0 0 0 237.5,227.4419 L245,227.4419 L235,217.4419 " fill="url(#gaa20irkx3orv0)" style="stroke:#8B95A5;stroke-width:1.0;"/><text fill="#111827" font-family="Arial" font-size="14" lengthAdjust="spacing" textLength="219" x="11" y="235.5737">Entlassungs-Bundle wird gesendet</text><text fill="#111827" font-family="Arial" font-size="14" lengthAdjust="spacing" textLength="152" x="11" y="251.6724">- Aufenthalt (Encounter)</text><text fill="#111827" font-family="Arial" font-size="14" lengthAdjust="spacing" textLength="209" x="11" y="267.771">- Bewegung (TransferEncounter)</text><text fill="#111827" font-family="Arial" font-size="14" lengthAdjust="spacing" textLength="179" x="11" y="283.8696">- Hauptdiagnose (Condition)</text><path d="M334,309.8364 L334,341.8364 A5,5 0 0 0 339,346.8364 L468,346.8364 A5,5 0 0 0 473,341.8364 L473,314.8364 L463,304.8364 L339,304.8364 A5,5 0 0 0 334,309.8364 " fill="#C5F7BA" filter="url(#faa20irkx3orv)" style="stroke:#8B95A5;stroke-width:1.0;"/><path d="M463,304.8364 L463,312.3364 A2.5,2.5 0 0 0 465.5,314.8364 L473,314.8364 L463,304.8364 " fill="#C5F7BA" style="stroke:#8B95A5;stroke-width:1.0;"/><text fill="#111827" font-family="Arial" font-size="14" lengthAdjust="spacing" textLength="56" x="340" y="322.9683">Zustand:</text><text fill="#111827" font-family="Arial" font-size="14" lengthAdjust="spacing" textLength="118" x="340" y="339.0669">- Patient entlassen</text><!--SRC=[ZLHDRzim3BtxLn3f3kaXGDpMQzD3WQP86w3j5YnT3yCkZ4KxGbp9a-Ibsx3_FihvaXCZ67snoSSdlaVRTY5LYGRVOAQD87Ed2stWf5z7P7TLJ1UvqPKIQqIM-2j0s3aAlPGgXmmBIq5btMOK6OX3Ka4PLeMxryfzmZU2pgsHM7JQ4LFvco2-Q2ysnmumIZk2Fn70S5y0zId9-hqJ4Oi1VVI8q82hsI31P9jzcSjqeSXQY3dt9H1qnSyJ5C8Bzop1D74SNvrTScwwjSQPYgA_uO3ZNoMPGgf5864qQWDyLQA-eRN1eVVqeoALhfHEq3YPoXALQqXAwjW37AorZYReqE23ycOvZSB6bZFVS6kCNkuRKoTttfvjKcqdRWkhiyuvzS2JbmsDM-PLwK3TUNQHVMnsXgjjR6QetmC5ZNoRhz5ClqFdku9DF8vX5nt_nL0o6F3Xc3hkup9Qw3oEEn4fmP_V-o557S-w9D5CCLkQP9SpPBPoPpWyJshEkkC8xVHrZwllh-raNFOiqzSMYgU7U-W-8R-ADYVBpiv9Efjf9Unf6vV7Ux9ZVKSD63BswBGrm1_XRm8gh9nMrTkCJ1JLVm4Zyxa3dNcNDlPzgwpZeQwZtjhcUomAG9LJGRchoNnl5F6sUZStt7eDay_J5_X0oXLeBQark_v9VgVHQ9MlL6vxVgA2O2cD05RDREJufDigu-uv5Www8vNo- -d8d79XI4lAkHEwBmQLpSWqocEiIYSavafRWkuTcoUTrEeqcFD_b4xGIHu0TXAs_Vy0]--></g></svg>