<?xml version="1.0" encoding="us-ascii" standalone="no"?><svg xmlns="http://www.w3.org/2000/svg" xmlns:xlink="http://www.w3.org/1999/xlink" contentStyleType="text/css" height="434px" preserveAspectRatio="none" style="width:780px;height:434px;background:#F5F5F5;" version="1.1" viewBox="0 0 780 434" width="780px" zoomAndPan="magnify"><defs><filter height="300%" id="fpn5d2rloqn5w" width="300%" x="-1" y="-1"><feGaussianBlur result="blurOut" stdDeviation="2.0"/><feColorMatrix in="blurOut" result="blurOut2" type="matrix" values="0 0 0 0 0 0 0 0 0 0 0 0 0 0 0 0 0 0 .4 0"/><feOffset dx="4.0" dy="4.0" in="blurOut2" result="blurOut3"/><feBlend in="SourceGraphic" in2="blurOut3" mode="normal"/></filter><linearGradient id="gpn5d2rloqn5w0" x1="50%" x2="50%" y1="0%" y2="100%"><stop offset="0%" stop-color="#E0E5F0"/><stop offset="100%" stop-color="#D1D9E6"/></linearGradient></defs><g><rect fill="#F5F5F5" height="434" style="stroke:none;stroke-width:1.0;" width="780" x="0" y="0"/><rect fill="#F5E599" height="422.0337" rx="5" ry="5" style="stroke:#181818;stroke-width:0.5;" width="371" x="24" y="6"/><text fill="#000000" font-family="Arial" font-size="14" font-weight="bold" lengthAdjust="spacing" textLength="4" x="27" y="19.1318">&#160;</text><text fill="#000000" font-family="Arial" font-size="14" font-weight="bold" lengthAdjust="spacing" textLength="197" x="111" y="35.2305">KA (Herz-Jesu Krankenhaus)</text><rect fill="#C5F7BA" height="422.0337" rx="5" ry="5" style="stroke:#181818;stroke-width:0.5;" width="333" x="437" y="6"/><text fill="#000000" font-family="Arial" font-size="14" font-weight="bold" lengthAdjust="spacing" textLength="4" x="440" y="19.1318">&#160;</text><text fill="#000000" font-family="Arial" font-size="14" font-weight="bold" lengthAdjust="spacing" textLength="47" x="580" y="35.2305">Moped</text><line style="stroke:#181818;stroke-width:0.5;stroke-dasharray:5.0,5.0;" x1="209.5" x2="209.5" y1="118.2959" y2="348.9351"/><line style="stroke:#181818;stroke-width:0.5;stroke-dasharray:5.0,5.0;" x1="603.5" x2="603.5" y1="118.2959" y2="348.9351"/><text fill="#000000" font-family="Arial" font-size="14" lengthAdjust="spacing" textLength="186" x="113.5" y="115.3291">KA (Herz-Jesu Krankenhaus)</text><ellipse cx="209.5" cy="50.6973" fill="#E2E2F0" rx="8" ry="8" style="stroke:#181818;stroke-width:0.5;"/><path d="M209.5,58.6973 L209.5,85.6973 M196.5,66.6973 L222.5,66.6973 M209.5,85.6973 L196.5,100.6973 M209.5,85.6973 L222.5,100.6973 " fill="none" style="stroke:#181818;stroke-width:0.5;"/><text fill="#000000" font-family="Arial" font-size="14" lengthAdjust="spacing" textLength="186" x="113.5" y="361.0669">KA (Herz-Jesu Krankenhaus)</text><ellipse cx="209.5" cy="372.5337" fill="#E2E2F0" rx="8" ry="8" style="stroke:#181818;stroke-width:0.5;"/><path d="M209.5,380.5337 L209.5,407.5337 M196.5,388.5337 L222.5,388.5337 M209.5,407.5337 L196.5,422.5337 M209.5,407.5337 L222.5,422.5337 " fill="none" style="stroke:#181818;stroke-width:0.5;"/><rect fill="#FFFFFF" height="30.0986" rx="5" ry="5" style="stroke:#555555;stroke-width:0.5;" width="58" x="574.5" y="87.1973"/><text fill="#000000" font-family="Arial" font-size="14" lengthAdjust="spacing" textLength="44" x="581.5" y="107.3291">Moped</text><rect fill="#FFFFFF" height="30.0986" rx="5" ry="5" style="stroke:#555555;stroke-width:0.5;" width="58" x="574.5" y="347.9351"/><text fill="#000000" font-family="Arial" font-size="14" lengthAdjust="spacing" textLength="44" x="581.5" y="368.0669">Moped</text><path d="M608,138.2959 L608,170.2959 A5,5 0 0 0 613,175.2959 L763,175.2959 A5,5 0 0 0 768,170.2959 L768,143.2959 L758,133.2959 L613,133.2959 A5,5 0 0 0 608,138.2959 " fill="#C5F7BA" filter="url(#fpn5d2rloqn5w)" style="stroke:#8B95A5;stroke-width:1.0;"/><path d="M758,133.2959 L758,140.7959 A2.5,2.5 0 0 0 760.5,143.2959 L768,143.2959 L758,133.2959 " fill="#C5F7BA" style="stroke:#8B95A5;stroke-width:1.0;"/><text fill="#111827" font-family="Arial" font-size="14" lengthAdjust="spacing" textLength="56" x="614" y="151.4277">Zustand:</text><text fill="#111827" font-family="Arial" font-size="14" lengthAdjust="spacing" textLength="139" x="614" y="167.5264">- Moped Fall angelegt</text><line style="stroke:#111827;stroke-width:2.0;" x1="601.5" x2="591.5" y1="204.4419" y2="200.4419"/><line style="stroke:#111827;stroke-width:2.0;" x1="601.5" x2="591.5" y1="204.4419" y2="208.4419"/><line style="stroke:#111827;stroke-width:2.0;" x1="209.5" x2="602.5" y1="204.4419" y2="204.4419"/><text fill="#000000" font-family="Arial" font-size="13" font-weight="bold" lengthAdjust="spacing" textLength="7" x="216.5" y="199.687">1</text><text fill="#000000" font-family="Arial" font-size="13" lengthAdjust="spacing" textLength="103" x="227.5" y="199.687">POST $entlassen</text><path d="M5,222.4419 L5,270.4419 A5,5 0 0 0 10,275.4419 L406,275.4419 A5,5 0 0 0 411,270.4419 L411,227.4419 L401,217.4419 L10,217.4419 A5,5 0 0 0 5,222.4419 " fill="url(#gpn5d2rloqn5w0)" filter="url(#fpn5d2rloqn5w)" style="stroke:#8B95A5;stroke-width:1.0;"/><path d="M401,217.4419 L401,224.9419 A2.5,2.5 0 0 0 403.5,227.4419 L411,227.4419 L401,217.4419 " fill="url(#gpn5d2rloqn5w0)" style="stroke:#8B95A5;stroke-width:1.0;"/><text fill="#111827" font-family="Arial" font-size="14" lengthAdjust="spacing" textLength="242" x="11" y="235.5737">Entlassungs-Bundle wird gesendet mit</text><text fill="#111827" font-family="Arial" font-size="14" lengthAdjust="spacing" textLength="295" x="11" y="251.6724">- Aufenthalt (Encounter mit Status 'completed')</text><text fill="#111827" font-family="Arial" font-size="14" lengthAdjust="spacing" textLength="385" x="11" y="267.771">- Hauptdiagnose (Condition mit Diagnosetyp Hauptdiagnose)</text><path d="M608,293.7378 L608,325.7378 A5,5 0 0 0 613,330.7378 L742,330.7378 A5,5 0 0 0 747,325.7378 L747,298.7378 L737,288.7378 L613,288.7378 A5,5 0 0 0 608,293.7378 " fill="#C5F7BA" filter="url(#fpn5d2rloqn5w)" style="stroke:#8B95A5;stroke-width:1.0;"/><path d="M737,288.7378 L737,296.2378 A2.5,2.5 0 0 0 739.5,298.7378 L747,298.7378 L737,288.7378 " fill="#C5F7BA" style="stroke:#8B95A5;stroke-width:1.0;"/><text fill="#111827" font-family="Arial" font-size="14" lengthAdjust="spacing" textLength="56" x="614" y="306.8696">Zustand:</text><text fill="#111827" font-family="Arial" font-size="14" lengthAdjust="spacing" textLength="118" x="614" y="322.9683">- Patient entlassen</text><!--SRC=[ZLDDJzj04BtxLun29U0G2GC6mW4fqD2eY3PgwANgPU8TEwiui-v-b03gV-_Q-LedRiNcaioyUVlUcwoPIIvHunmcIWlITwfG6WvEwXEPRHVJMQwLOx52P4dr2H1cYa8zIyuXmy9Gq5cDQIODSKWgA4DNs7l5zWlE2JfzBR7ej2F6yfKWFczlDcK765QMu2q2kDqrG2UKP2VT0n6B7brKY320gqalmMHJVPhATCPa3CI-zYqmTEL_Zr28odZ54gY9u_ZgzDBNnfjeh7OK_Ga53bzAqeNaMM1XC6W3V6THVw5Lm67szCiHfqkd8zHMfh94jWrBINrs07jhhKyJj1_mNdkzd4PZ7SjfDT3NMZtl1bCNjzcUhajjDsuQoxlEVEcJLrusF6wObwqzTsVPUNRHd0nNszZChLe43XhrjboZYLf0voT3staOmj6Gz6ltCna73nfvHZn5PuvRuPtgVL7Iwtcfc5f_YoT00vr_ytGYOk4VyUB_GfhdKPKate7pUj8akvoWrrDk5moFerfLJHC8YD1PnMu-8Hr5zGlKCfzQK5ariQRwuOn55jTHTwNZ7ei2a7CgABSrMpKRHTvqz-R6Zrx3wElu2JuGsmAD8LwngzzK9HGDbdN7kUdU-gqN1CzI2yZ9OmLPc4lhR-kxp3DCiR1mDE3K_p-id_Sz65kqpi1XgkPbGPR4uR773z6LLaZCMHc2epl5Gbgfk1xvkAhRbx89F0uSl2U34LhfPS7Mt6R-Bm00]--></g></svg>