<?xml version="1.0" encoding="us-ascii" standalone="no"?><svg xmlns="http://www.w3.org/2000/svg" xmlns:xlink="http://www.w3.org/1999/xlink" contentStyleType="text/css" height="450px" preserveAspectRatio="none" style="width:780px;height:450px;background:#F5F5F5;" version="1.1" viewBox="0 0 780 450" width="780px" zoomAndPan="magnify"><defs><filter height="300%" id="f10sqn9whcqs6q" width="300%" x="-1" y="-1"><feGaussianBlur result="blurOut" stdDeviation="2.0"/><feColorMatrix in="blurOut" result="blurOut2" type="matrix" values="0 0 0 0 0 0 0 0 0 0 0 0 0 0 0 0 0 0 .4 0"/><feOffset dx="4.0" dy="4.0" in="blurOut2" result="blurOut3"/><feBlend in="SourceGraphic" in2="blurOut3" mode="normal"/></filter><linearGradient id="g10sqn9whcqs6q0" x1="50%" x2="50%" y1="0%" y2="100%"><stop offset="0%" stop-color="#E0E5F0"/><stop offset="100%" stop-color="#D1D9E6"/></linearGradient></defs><g><rect fill="#F5F5F5" height="450" style="stroke:none;stroke-width:1.0;" width="780" x="0" y="0"/><rect fill="#F5E599" height="438.1323" rx="5" ry="5" style="stroke:#181818;stroke-width:0.5;" width="371" x="24" y="6"/><text fill="#000000" font-family="Arial" font-size="14" font-weight="bold" lengthAdjust="spacing" textLength="4" x="27" y="19.1318">&#160;</text><text fill="#000000" font-family="Arial" font-size="14" font-weight="bold" lengthAdjust="spacing" textLength="197" x="111" y="35.2305">KH (Herz-Jesu Krankenhaus)</text><rect fill="#C5F7BA" height="438.1323" rx="5" ry="5" style="stroke:#181818;stroke-width:0.5;" width="333" x="437" y="6"/><text fill="#000000" font-family="Arial" font-size="14" font-weight="bold" lengthAdjust="spacing" textLength="4" x="440" y="19.1318">&#160;</text><text fill="#000000" font-family="Arial" font-size="14" font-weight="bold" lengthAdjust="spacing" textLength="47" x="580" y="35.2305">Moped</text><line style="stroke:#181818;stroke-width:0.5;stroke-dasharray:5.0,5.0;" x1="209.5" x2="209.5" y1="118.2959" y2="365.0337"/><line style="stroke:#181818;stroke-width:0.5;stroke-dasharray:5.0,5.0;" x1="603.5" x2="603.5" y1="118.2959" y2="365.0337"/><text fill="#000000" font-family="Arial" font-size="14" lengthAdjust="spacing" textLength="186" x="113.5" y="115.3291">KH (Herz-Jesu Krankenhaus)</text><ellipse cx="209.5" cy="50.6973" fill="#E2E2F0" rx="8" ry="8" style="stroke:#181818;stroke-width:0.5;"/><path d="M209.5,58.6973 L209.5,85.6973 M196.5,66.6973 L222.5,66.6973 M209.5,85.6973 L196.5,100.6973 M209.5,85.6973 L222.5,100.6973 " fill="none" style="stroke:#181818;stroke-width:0.5;"/><text fill="#000000" font-family="Arial" font-size="14" lengthAdjust="spacing" textLength="186" x="113.5" y="377.1655">KH (Herz-Jesu Krankenhaus)</text><ellipse cx="209.5" cy="388.6323" fill="#E2E2F0" rx="8" ry="8" style="stroke:#181818;stroke-width:0.5;"/><path d="M209.5,396.6323 L209.5,423.6323 M196.5,404.6323 L222.5,404.6323 M209.5,423.6323 L196.5,438.6323 M209.5,423.6323 L222.5,438.6323 " fill="none" style="stroke:#181818;stroke-width:0.5;"/><rect fill="#FFFFFF" height="30.0986" rx="5" ry="5" style="stroke:#555555;stroke-width:0.5;" width="58" x="574.5" y="87.1973"/><text fill="#000000" font-family="Arial" font-size="14" lengthAdjust="spacing" textLength="44" x="581.5" y="107.3291">Moped</text><rect fill="#FFFFFF" height="30.0986" rx="5" ry="5" style="stroke:#555555;stroke-width:0.5;" width="58" x="574.5" y="364.0337"/><text fill="#000000" font-family="Arial" font-size="14" lengthAdjust="spacing" textLength="44" x="581.5" y="384.1655">Moped</text><path d="M608,138.2959 L608,170.2959 A5,5 0 0 0 613,175.2959 L763,175.2959 A5,5 0 0 0 768,170.2959 L768,143.2959 L758,133.2959 L613,133.2959 A5,5 0 0 0 608,138.2959 " fill="#C5F7BA" filter="url(#f10sqn9whcqs6q)" style="stroke:#8B95A5;stroke-width:1.0;"/><path d="M758,133.2959 L758,140.7959 A2.5,2.5 0 0 0 760.5,143.2959 L768,143.2959 L758,133.2959 " fill="#C5F7BA" style="stroke:#8B95A5;stroke-width:1.0;"/><text fill="#111827" font-family="Arial" font-size="14" lengthAdjust="spacing" textLength="56" x="614" y="151.4277">Zustand:</text><text fill="#111827" font-family="Arial" font-size="14" lengthAdjust="spacing" textLength="139" x="614" y="167.5264">- Moped Fall angelegt</text><line style="stroke:#111827;stroke-width:2.0;" x1="601.5" x2="591.5" y1="204.4419" y2="200.4419"/><line style="stroke:#111827;stroke-width:2.0;" x1="601.5" x2="591.5" y1="204.4419" y2="208.4419"/><line style="stroke:#111827;stroke-width:2.0;" x1="209.5" x2="602.5" y1="204.4419" y2="204.4419"/><text fill="#000000" font-family="Arial" font-size="13" font-weight="bold" lengthAdjust="spacing" textLength="7" x="216.5" y="199.687">1</text><text fill="#000000" font-family="Arial" font-size="13" lengthAdjust="spacing" textLength="103" x="227.5" y="199.687">POST $entlassen</text><path d="M5,222.4419 L5,286.4419 A5,5 0 0 0 10,291.4419 L406,291.4419 A5,5 0 0 0 411,286.4419 L411,227.4419 L401,217.4419 L10,217.4419 A5,5 0 0 0 5,222.4419 " fill="url(#g10sqn9whcqs6q0)" filter="url(#f10sqn9whcqs6q)" style="stroke:#8B95A5;stroke-width:1.0;"/><path d="M401,217.4419 L401,224.9419 A2.5,2.5 0 0 0 403.5,227.4419 L411,227.4419 L401,217.4419 " fill="url(#g10sqn9whcqs6q0)" style="stroke:#8B95A5;stroke-width:1.0;"/><text fill="#111827" font-family="Arial" font-size="14" lengthAdjust="spacing" textLength="242" x="11" y="235.5737">Entlassungs-Bundle wird gesendet mit</text><text fill="#111827" font-family="Arial" font-size="14" lengthAdjust="spacing" textLength="295" x="11" y="251.6724">- Aufenthalt (Encounter mit Status 'completed')</text><text fill="#111827" font-family="Arial" font-size="14" lengthAdjust="spacing" textLength="209" x="11" y="267.771">- Bewegung (TransferEncounter)</text><text fill="#111827" font-family="Arial" font-size="14" lengthAdjust="spacing" textLength="385" x="11" y="283.8696">- Hauptdiagnose (Condition mit Diagnosetyp Hauptdiagnose)</text><path d="M608,309.8364 L608,341.8364 A5,5 0 0 0 613,346.8364 L742,346.8364 A5,5 0 0 0 747,341.8364 L747,314.8364 L737,304.8364 L613,304.8364 A5,5 0 0 0 608,309.8364 " fill="#C5F7BA" filter="url(#f10sqn9whcqs6q)" style="stroke:#8B95A5;stroke-width:1.0;"/><path d="M737,304.8364 L737,312.3364 A2.5,2.5 0 0 0 739.5,314.8364 L747,314.8364 L737,304.8364 " fill="#C5F7BA" style="stroke:#8B95A5;stroke-width:1.0;"/><text fill="#111827" font-family="Arial" font-size="14" lengthAdjust="spacing" textLength="56" x="614" y="322.9683">Zustand:</text><text fill="#111827" font-family="Arial" font-size="14" lengthAdjust="spacing" textLength="118" x="614" y="339.0669">- Patient entlassen</text><!--SRC=[ZLDDJzj04BtxLun29S8X4WOCX0CIeQ5H4MtKq4lLoyGxTbPnPjtzQFXG_tlNpjUQk1MRIpBpvkrxRx9cBhb4ZGkOAYr8twf2QJWuhazaTbrCvxbMZiKQaINL9q2O6Ggrb9n3XeMXeBCUqqmQuf1KK8Qki7UAxHTS47HkjCIYquwOo1U2-AozsPGTO5XPWjS8OF3M01rJaXtt3aGi-dHU8S80BgVz19DjzN4cqpcJCH3xshV0qAN_FKOXAkCLIw0cZkFBamjVcsoZiTfHz2SKE7ekIHUIvu65uR0Dy9r5_ONM0OVPqoz7dAwSZb5RcSeIsJOi9VLv0zXRQtsQeFs0zzgRvJGQcrXEge4RhTNoRJ1rSPVjoQRKTkEsiRhhr9S-UULbm-EMUTNQStUQdMNdpSbmjOtD3DHJuA1HRyircgedwFnaQ3lt8-YEIB_qFfDnSA-HvyGpTEQe5TwftXSb_RwNYgdrjtW2DD3vDqyd8XR-4J_zNqZpFAYIn3jmNa-QP1TJz7hAtOBXOLohgca20H4wgzWjfgIZg7w1MkOp2ogh9ZPKFvonoE8gwgrrt65H079E1UMsPgjceyYRxbrV-z4h67-TFC87ObkWCSHhTlMRgeIYuQhkE3UzWTzwGR2KMa1E7Yl8ma9QVzkDopp330iBtI6d_lzX_RplmSIYTGOEKxKe2x8a3eyyVa1BoZqfT1zzu2OZlPsgsYDqfHKISrQ6e7khM4Wh5TUC7zTr-rmsWKU1mVT4D4OhlMhOUT_E_mK0]--></g></svg>