<?xml version="1.0" encoding="us-ascii" standalone="no"?><svg xmlns="http://www.w3.org/2000/svg" xmlns:xlink="http://www.w3.org/1999/xlink" contentStyleType="text/css" height="450px" preserveAspectRatio="none" style="width:777px;height:450px;background:#F5F5F5;" version="1.1" viewBox="0 0 777 450" width="777px" zoomAndPan="magnify"><defs><filter height="300%" id="f12q1jwbaohrff" width="300%" x="-1" y="-1"><feGaussianBlur result="blurOut" stdDeviation="2.0"/><feColorMatrix in="blurOut" result="blurOut2" type="matrix" values="0 0 0 0 0 0 0 0 0 0 0 0 0 0 0 0 0 0 .4 0"/><feOffset dx="4.0" dy="4.0" in="blurOut2" result="blurOut3"/><feBlend in="SourceGraphic" in2="blurOut3" mode="normal"/></filter><linearGradient id="g12q1jwbaohrff0" x1="50%" x2="50%" y1="0%" y2="100%"><stop offset="0%" stop-color="#E0E5F0"/><stop offset="100%" stop-color="#D1D9E6"/></linearGradient></defs><g><rect fill="#F5F5F5" height="450" style="stroke:none;stroke-width:1.0;" width="777" x="0" y="0"/><rect fill="#F5E599" height="438.1323" rx="5" ry="5" style="stroke:#181818;stroke-width:0.5;" width="371" x="21" y="6"/><text fill="#000000" font-family="Arial" font-size="14" font-weight="bold" lengthAdjust="spacing" textLength="4" x="24" y="19.1318">&#160;</text><text fill="#000000" font-family="Arial" font-size="14" font-weight="bold" lengthAdjust="spacing" textLength="197" x="108" y="35.2305">KH (Herz-Jesu Krankenhaus)</text><rect fill="#C5F7BA" height="438.1323" rx="5" ry="5" style="stroke:#181818;stroke-width:0.5;" width="333" x="434" y="6"/><text fill="#000000" font-family="Arial" font-size="14" font-weight="bold" lengthAdjust="spacing" textLength="4" x="437" y="19.1318">&#160;</text><text fill="#000000" font-family="Arial" font-size="14" font-weight="bold" lengthAdjust="spacing" textLength="47" x="577" y="35.2305">Moped</text><line style="stroke:#181818;stroke-width:0.5;stroke-dasharray:5.0,5.0;" x1="206.5" x2="206.5" y1="118.2959" y2="365.0337"/><line style="stroke:#181818;stroke-width:0.5;stroke-dasharray:5.0,5.0;" x1="600.5" x2="600.5" y1="118.2959" y2="365.0337"/><text fill="#000000" font-family="Arial" font-size="14" lengthAdjust="spacing" textLength="186" x="110.5" y="115.3291">KH (Herz-Jesu Krankenhaus)</text><ellipse cx="206.5" cy="50.6973" fill="#E2E2F0" rx="8" ry="8" style="stroke:#181818;stroke-width:0.5;"/><path d="M206.5,58.6973 L206.5,85.6973 M193.5,66.6973 L219.5,66.6973 M206.5,85.6973 L193.5,100.6973 M206.5,85.6973 L219.5,100.6973 " fill="none" style="stroke:#181818;stroke-width:0.5;"/><text fill="#000000" font-family="Arial" font-size="14" lengthAdjust="spacing" textLength="186" x="110.5" y="377.1655">KH (Herz-Jesu Krankenhaus)</text><ellipse cx="206.5" cy="388.6323" fill="#E2E2F0" rx="8" ry="8" style="stroke:#181818;stroke-width:0.5;"/><path d="M206.5,396.6323 L206.5,423.6323 M193.5,404.6323 L219.5,404.6323 M206.5,423.6323 L193.5,438.6323 M206.5,423.6323 L219.5,438.6323 " fill="none" style="stroke:#181818;stroke-width:0.5;"/><rect fill="#FFFFFF" height="30.0986" rx="5" ry="5" style="stroke:#555555;stroke-width:0.5;" width="58" x="571.5" y="87.1973"/><text fill="#000000" font-family="Arial" font-size="14" lengthAdjust="spacing" textLength="44" x="578.5" y="107.3291">Moped</text><rect fill="#FFFFFF" height="30.0986" rx="5" ry="5" style="stroke:#555555;stroke-width:0.5;" width="58" x="571.5" y="364.0337"/><text fill="#000000" font-family="Arial" font-size="14" lengthAdjust="spacing" textLength="44" x="578.5" y="384.1655">Moped</text><path d="M605,138.2959 L605,170.2959 A5,5 0 0 0 610,175.2959 L760,175.2959 A5,5 0 0 0 765,170.2959 L765,143.2959 L755,133.2959 L610,133.2959 A5,5 0 0 0 605,138.2959 " fill="#C5F7BA" filter="url(#f12q1jwbaohrff)" style="stroke:#8B95A5;stroke-width:1.0;"/><path d="M755,133.2959 L755,140.7959 A2.5,2.5 0 0 0 757.5,143.2959 L765,143.2959 L755,133.2959 " fill="#C5F7BA" style="stroke:#8B95A5;stroke-width:1.0;"/><text fill="#111827" font-family="Arial" font-size="14" lengthAdjust="spacing" textLength="56" x="611" y="151.4277">Zustand:</text><text fill="#111827" font-family="Arial" font-size="14" lengthAdjust="spacing" textLength="139" x="611" y="167.5264">- Moped Fall angelegt</text><line style="stroke:#111827;stroke-width:2.0;" x1="598.5" x2="588.5" y1="204.4419" y2="200.4419"/><line style="stroke:#111827;stroke-width:2.0;" x1="598.5" x2="588.5" y1="204.4419" y2="208.4419"/><line style="stroke:#111827;stroke-width:2.0;" x1="206.5" x2="599.5" y1="204.4419" y2="204.4419"/><text fill="#000000" font-family="Arial" font-size="13" font-weight="bold" lengthAdjust="spacing" textLength="7" x="213.5" y="199.687">1</text><text fill="#000000" font-family="Arial" font-size="13" lengthAdjust="spacing" textLength="86" x="224.5" y="199.687">POST $update</text><path d="M45,222.4419 L45,286.4419 A5,5 0 0 0 50,291.4419 L360,291.4419 A5,5 0 0 0 365,286.4419 L365,227.4419 L355,217.4419 L50,217.4419 A5,5 0 0 0 45,222.4419 " fill="url(#g12q1jwbaohrff0)" filter="url(#f12q1jwbaohrff)" style="stroke:#8B95A5;stroke-width:1.0;"/><path d="M355,217.4419 L355,224.9419 A2.5,2.5 0 0 0 357.5,227.4419 L365,227.4419 L355,217.4419 " fill="url(#g12q1jwbaohrff0)" style="stroke:#8B95A5;stroke-width:1.0;"/><text fill="#111827" font-family="Arial" font-size="14" lengthAdjust="spacing" textLength="188" x="51" y="235.5737">Update-Bundle wird gesendet</text><text fill="#111827" font-family="Arial" font-size="14" lengthAdjust="spacing" textLength="299" x="51" y="251.6724">- Aufenthalt (Encounter mit Status 'discharged')</text><text fill="#111827" font-family="Arial" font-size="14" lengthAdjust="spacing" textLength="209" x="51" y="267.771">- Bewegung (TransferEncounter)</text><text fill="#111827" font-family="Arial" font-size="14" lengthAdjust="spacing" textLength="113" x="51" y="283.8696">- OHNE Diagnose</text><path d="M605,309.8364 L605,341.8364 A5,5 0 0 0 610,346.8364 L707,346.8364 A5,5 0 0 0 712,341.8364 L712,314.8364 L702,304.8364 L610,304.8364 A5,5 0 0 0 605,309.8364 " fill="#C5F7BA" filter="url(#f12q1jwbaohrff)" style="stroke:#8B95A5;stroke-width:1.0;"/><path d="M702,304.8364 L702,312.3364 A2.5,2.5 0 0 0 704.5,314.8364 L712,314.8364 L702,304.8364 " fill="#C5F7BA" style="stroke:#8B95A5;stroke-width:1.0;"/><text fill="#111827" font-family="Arial" font-size="14" lengthAdjust="spacing" textLength="56" x="611" y="322.9683">Zustand:</text><text fill="#111827" font-family="Arial" font-size="14" lengthAdjust="spacing" textLength="86" x="611" y="339.0669">- unver&#228;ndert</text><!--SRC=[ZLFRRjf047ttLun8fP0794pY1F8G2LfIr2W9AkIbwilW7PiLPjVTIw6f-ZVza_vOr-Qs1hVAy08pPsRFESFe1HSvAbp2J2f6whtCf8ApTXc1FbGnNgHAMi6sY2GgFXv2pv795HSf99XfyYhRDYL8GUWFPPIWpSoz5EO9bmIDlkAODUeH4_vA45xL5wkqFOoGXk1d030u5a1jYf9swuo5h4VN1S8te3lhHHZjizCvZnU2j8RGvJvxWhhkznWPAuGNKpmsOHXsEpSkDzbROvIbu9TFSFGZ9vLniV0a38TrW1V1oY-qDTZtdhvP4l56wHYLuJ7FKPYAfAYC8y39MikeWauDFYdlbbCfx6pf50rzfUJgs9WoUV2siqlLlRWlRDwwTAcFZdbUqRYVl2cTgBjChfBhQgU_sifc1dBjAQZawtmDPd8DZQy2wk9X1CqHgTVM9z8M7XIA1OavMdrH2syKzqLHh-UeOcpSAsu0QcZyUquZ8C7S4Q__JwGQZp8dzWQSunD7oSqC7P_yi61u79UioZ4U0RH62hkSaGg2yW0LJ-S6P58qx2PziTgWOBT1QqlZ7hCCKAIKKMhAOKLl43ZDhRixrteBu-V95DxPd65HA4VBxrIu4xoKoTR0BJiZM77582Njff1nB_HjGiBCCJFG78hO_IMCQrjo0nE3nceuPrp7SrGfiVCBrp2W5QNMhRuvTIRhXDI-hIW_Zvw6y85ZAgIxn0FNjwYrmb7-yxkuPa_cNm00]--></g></svg>