<?xml version="1.0" encoding="us-ascii" standalone="no"?><svg xmlns="http://www.w3.org/2000/svg" xmlns:xlink="http://www.w3.org/1999/xlink" contentStyleType="text/css" height="721px" preserveAspectRatio="none" style="width:1116px;height:721px;background:#F5F5F5;" version="1.1" viewBox="0 0 1116 721" width="1116px" zoomAndPan="magnify"><defs><linearGradient id="gs74vx3wu36a50" x1="50%" x2="50%" y1="0%" y2="100%"><stop offset="0%" stop-color="#E0E5F0"/><stop offset="100%" stop-color="#D1D9E6"/></linearGradient><filter height="300%" id="fs74vx3wu36a5" width="300%" x="-1" y="-1"><feGaussianBlur result="blurOut" stdDeviation="2.0"/><feColorMatrix in="blurOut" result="blurOut2" type="matrix" values="0 0 0 0 0 0 0 0 0 0 0 0 0 0 0 0 0 0 .4 0"/><feOffset dx="4.0" dy="4.0" in="blurOut2" result="blurOut3"/><feBlend in="SourceGraphic" in2="blurOut3" mode="normal"/></filter></defs><g><rect fill="#F5F5F5" height="721" style="stroke:none;stroke-width:1.0;" width="1116" x="0" y="0"/><rect fill="#F5E599" height="709.519" rx="5" ry="5" style="stroke:#181818;stroke-width:0.5;" width="218" x="41" y="6"/><text fill="#000000" font-family="Arial" font-size="14" font-weight="bold" lengthAdjust="spacing" textLength="4" x="44" y="19.1318">&#160;</text><text fill="#000000" font-family="Arial" font-size="14" font-weight="bold" lengthAdjust="spacing" textLength="196" x="52" y="35.2305">KH (Herz Jesu Krankenhaus)</text><rect fill="#C5F7BA" height="709.519" rx="5" ry="5" style="stroke:#181818;stroke-width:0.5;" width="109" x="301" y="6"/><text fill="#000000" font-family="Arial" font-size="14" font-weight="bold" lengthAdjust="spacing" textLength="4" x="304" y="19.1318">&#160;</text><text fill="#000000" font-family="Arial" font-size="14" font-weight="bold" lengthAdjust="spacing" textLength="47" x="332" y="35.2305">Moped</text><rect fill="#BAC4F7" height="709.519" rx="5" ry="5" style="stroke:#181818;stroke-width:0.5;" width="118" x="563.5" y="6"/><text fill="#000000" font-family="Arial" font-size="14" font-weight="bold" lengthAdjust="spacing" textLength="4" x="566.5" y="19.1318">&#160;</text><text fill="#000000" font-family="Arial" font-size="14" font-weight="bold" lengthAdjust="spacing" textLength="80" x="582.5" y="35.2305">SV (&#214;GK,...)</text><rect fill="#F7D0BA" height="709.519" rx="5" ry="5" style="stroke:#181818;stroke-width:0.5;" width="238" x="723.5" y="6"/><text fill="#000000" font-family="Arial" font-size="14" font-weight="bold" lengthAdjust="spacing" textLength="4" x="726.5" y="19.1318">&#160;</text><text fill="#000000" font-family="Arial" font-size="14" font-weight="bold" lengthAdjust="spacing" textLength="220" x="730.5" y="35.2305">LGF (Landesgesundheitsfonds)</text><rect fill="#FCB3B3" height="709.519" rx="5" ry="5" style="stroke:#181818;stroke-width:0.5;" width="107" x="1003.5" y="6"/><text fill="#000000" font-family="Arial" font-size="14" font-weight="bold" lengthAdjust="spacing" textLength="4" x="1006.5" y="19.1318">&#160;</text><text fill="#000000" font-family="Arial" font-size="14" font-weight="bold" lengthAdjust="spacing" textLength="37" x="1038.5" y="35.2305">Bund</text><line style="stroke:#181818;stroke-width:0.5;stroke-dasharray:5.0,5.0;" x1="149.5" x2="149.5" y1="118.2959" y2="636.4204"/><line style="stroke:#181818;stroke-width:0.5;stroke-dasharray:5.0,5.0;" x1="355.5" x2="355.5" y1="118.2959" y2="636.4204"/><line style="stroke:#181818;stroke-width:0.5;stroke-dasharray:5.0,5.0;" x1="622" x2="622" y1="118.2959" y2="636.4204"/><line style="stroke:#181818;stroke-width:0.5;stroke-dasharray:5.0,5.0;" x1="842" x2="842" y1="118.2959" y2="636.4204"/><line style="stroke:#181818;stroke-width:0.5;stroke-dasharray:5.0,5.0;" x1="1056.5" x2="1056.5" y1="118.2959" y2="636.4204"/><text fill="#000000" font-family="Arial" font-size="14" lengthAdjust="spacing" textLength="19" x="137.5" y="115.3291">KH</text><ellipse cx="150" cy="50.6973" fill="#E2E2F0" rx="8" ry="8" style="stroke:#181818;stroke-width:0.5;"/><path d="M150,58.6973 L150,85.6973 M137,66.6973 L163,66.6973 M150,85.6973 L137,100.6973 M150,85.6973 L163,100.6973 " fill="none" style="stroke:#181818;stroke-width:0.5;"/><text fill="#000000" font-family="Arial" font-size="14" lengthAdjust="spacing" textLength="19" x="137.5" y="648.5522">KH</text><ellipse cx="150" cy="660.019" fill="#E2E2F0" rx="8" ry="8" style="stroke:#181818;stroke-width:0.5;"/><path d="M150,668.019 L150,695.019 M137,676.019 L163,676.019 M150,695.019 L137,710.019 M150,695.019 L163,710.019 " fill="none" style="stroke:#181818;stroke-width:0.5;"/><rect fill="#FFFFFF" height="30.0986" rx="5" ry="5" style="stroke:#555555;stroke-width:0.5;" width="58" x="326.5" y="87.1973"/><text fill="#000000" font-family="Arial" font-size="14" lengthAdjust="spacing" textLength="44" x="333.5" y="107.3291">Moped</text><rect fill="#FFFFFF" height="30.0986" rx="5" ry="5" style="stroke:#555555;stroke-width:0.5;" width="58" x="326.5" y="635.4204"/><text fill="#000000" font-family="Arial" font-size="14" lengthAdjust="spacing" textLength="44" x="333.5" y="655.5522">Moped</text><text fill="#000000" font-family="Arial" font-size="14" lengthAdjust="spacing" textLength="63" x="588" y="115.3291">SV (&#214;GK)</text><ellipse cx="622.5" cy="50.6973" fill="#E2E2F0" rx="8" ry="8" style="stroke:#181818;stroke-width:0.5;"/><path d="M622.5,58.6973 L622.5,85.6973 M609.5,66.6973 L635.5,66.6973 M622.5,85.6973 L609.5,100.6973 M622.5,85.6973 L635.5,100.6973 " fill="none" style="stroke:#181818;stroke-width:0.5;"/><text fill="#000000" font-family="Arial" font-size="14" lengthAdjust="spacing" textLength="63" x="588" y="648.5522">SV (&#214;GK)</text><ellipse cx="622.5" cy="660.019" fill="#E2E2F0" rx="8" ry="8" style="stroke:#181818;stroke-width:0.5;"/><path d="M622.5,668.019 L622.5,695.019 M609.5,676.019 L635.5,676.019 M622.5,695.019 L609.5,710.019 M622.5,695.019 L635.5,710.019 " fill="none" style="stroke:#181818;stroke-width:0.5;"/><text fill="#000000" font-family="Arial" font-size="14" lengthAdjust="spacing" textLength="201" x="739" y="115.3291">LGF (Landesgesundheitsfonds)</text><ellipse cx="842.5" cy="50.6973" fill="#E2E2F0" rx="8" ry="8" style="stroke:#181818;stroke-width:0.5;"/><path d="M842.5,58.6973 L842.5,85.6973 M829.5,66.6973 L855.5,66.6973 M842.5,85.6973 L829.5,100.6973 M842.5,85.6973 L855.5,100.6973 " fill="none" style="stroke:#181818;stroke-width:0.5;"/><text fill="#000000" font-family="Arial" font-size="14" lengthAdjust="spacing" textLength="201" x="739" y="648.5522">LGF (Landesgesundheitsfonds)</text><ellipse cx="842.5" cy="660.019" fill="#E2E2F0" rx="8" ry="8" style="stroke:#181818;stroke-width:0.5;"/><path d="M842.5,668.019 L842.5,695.019 M829.5,676.019 L855.5,676.019 M842.5,695.019 L829.5,710.019 M842.5,695.019 L855.5,710.019 " fill="none" style="stroke:#181818;stroke-width:0.5;"/><text fill="#000000" font-family="Arial" font-size="14" lengthAdjust="spacing" textLength="33" x="1037.5" y="115.3291">Bund</text><ellipse cx="1057" cy="50.6973" fill="#E2E2F0" rx="8" ry="8" style="stroke:#181818;stroke-width:0.5;"/><path d="M1057,58.6973 L1057,85.6973 M1044,66.6973 L1070,66.6973 M1057,85.6973 L1044,100.6973 M1057,85.6973 L1070,100.6973 " fill="none" style="stroke:#181818;stroke-width:0.5;"/><text fill="#000000" font-family="Arial" font-size="14" lengthAdjust="spacing" textLength="33" x="1037.5" y="648.5522">Bund</text><ellipse cx="1057" cy="660.019" fill="#E2E2F0" rx="8" ry="8" style="stroke:#181818;stroke-width:0.5;"/><path d="M1057,668.019 L1057,695.019 M1044,676.019 L1070,676.019 M1057,695.019 L1044,710.019 M1057,695.019 L1070,710.019 " fill="none" style="stroke:#181818;stroke-width:0.5;"/><line style="stroke:#111827;stroke-width:2.0;" x1="353.5" x2="343.5" y1="149.2446" y2="145.2446"/><line style="stroke:#111827;stroke-width:2.0;" x1="353.5" x2="343.5" y1="149.2446" y2="153.2446"/><line style="stroke:#111827;stroke-width:2.0;" x1="150" x2="354.5" y1="149.2446" y2="149.2446"/><text fill="#000000" font-family="Arial" font-size="13" font-weight="bold" lengthAdjust="spacing" textLength="7" x="157" y="144.4897">1</text><text fill="#000000" font-family="Arial" font-size="13" lengthAdjust="spacing" textLength="57" x="168" y="144.4897">$anfragen</text><path d="M35,167.2446 L35,215.2446 A5,5 0 0 0 40,220.2446 L256,220.2446 A5,5 0 0 0 261,215.2446 L261,172.2446 L251,162.2446 L40,162.2446 A5,5 0 0 0 35,167.2446 " fill="url(#gs74vx3wu36a50)" filter="url(#fs74vx3wu36a5)" style="stroke:#8B95A5;stroke-width:1.0;"/><path d="M251,162.2446 L251,169.7446 A2.5,2.5 0 0 0 253.5,172.2446 L261,172.2446 L251,162.2446 " fill="url(#gs74vx3wu36a50)" style="stroke:#8B95A5;stroke-width:1.0;"/><text fill="#111827" font-family="Arial" font-size="14" lengthAdjust="spacing" textLength="99" x="41" y="180.3765">Initiale Anfrage:</text><text fill="#111827" font-family="Arial" font-size="14" lengthAdjust="spacing" textLength="125" x="41" y="196.4751">VAERequestInitial 1</text><text fill="#111827" font-family="Arial" font-size="14" lengthAdjust="spacing" textLength="201" x="45" y="212.5737">KLAS = A + Zeitintervall: ab 1.1.</text><line style="stroke:#111827;stroke-width:2.0;" x1="356.5" x2="366.5" y1="249.4893" y2="245.4893"/><line style="stroke:#111827;stroke-width:2.0;" x1="356.5" x2="366.5" y1="249.4893" y2="253.4893"/><line style="stroke:#111827;stroke-width:2.0;stroke-dasharray:2.0,2.0;" x1="355.5" x2="621.5" y1="249.4893" y2="249.4893"/><text fill="#000000" font-family="Arial" font-size="13" font-weight="bold" lengthAdjust="spacing" textLength="7" x="372.5" y="244.7344">2</text><text fill="#000000" font-family="Arial" font-size="13" lengthAdjust="spacing" textLength="63" x="383.5" y="244.7344">$antworten</text><path d="M499,267.4893 L499,299.4893 A5,5 0 0 0 504,304.4893 L737,304.4893 A5,5 0 0 0 742,299.4893 L742,272.4893 L732,262.4893 L504,262.4893 A5,5 0 0 0 499,267.4893 " fill="url(#gs74vx3wu36a50)" filter="url(#fs74vx3wu36a5)" style="stroke:#8B95A5;stroke-width:1.0;"/><path d="M732,262.4893 L732,269.9893 A2.5,2.5 0 0 0 734.5,272.4893 L742,272.4893 L732,262.4893 " fill="url(#gs74vx3wu36a50)" style="stroke:#8B95A5;stroke-width:1.0;"/><text fill="#111827" font-family="Arial" font-size="14" lengthAdjust="spacing" textLength="103" x="505" y="280.6211">VAEResponse 1</text><text fill="#111827" font-family="Arial" font-size="14" lengthAdjust="spacing" textLength="222" x="505" y="296.7197">VKBEFR = N + Zeitintervall: ab 1.1.</text><line style="stroke:#111827;stroke-width:2.0;" x1="353.5" x2="343.5" y1="333.6353" y2="329.6353"/><line style="stroke:#111827;stroke-width:2.0;" x1="353.5" x2="343.5" y1="333.6353" y2="337.6353"/><line style="stroke:#111827;stroke-width:2.0;" x1="150" x2="354.5" y1="333.6353" y2="333.6353"/><text fill="#000000" font-family="Arial" font-size="13" font-weight="bold" lengthAdjust="spacing" textLength="7" x="157" y="328.8804">3</text><text fill="#000000" font-family="Arial" font-size="13" lengthAdjust="spacing" textLength="57" x="168" y="328.8804">$anfragen</text><path d="M5,351.6353 L5,415.6353 A5,5 0 0 0 10,420.6353 L287,420.6353 A5,5 0 0 0 292,415.6353 L292,356.6353 L282,346.6353 L10,346.6353 A5,5 0 0 0 5,351.6353 " fill="url(#gs74vx3wu36a50)" filter="url(#fs74vx3wu36a5)" style="stroke:#8B95A5;stroke-width:1.0;"/><path d="M282,346.6353 L282,354.1353 A2.5,2.5 0 0 0 284.5,356.6353 L292,356.6353 L282,346.6353 " fill="url(#gs74vx3wu36a50)" style="stroke:#8B95A5;stroke-width:1.0;"/><text fill="#111827" font-family="Arial" font-size="14" lengthAdjust="spacing" textLength="105" x="11" y="364.7671">Klassenwechsel:</text><text fill="#111827" font-family="Arial" font-size="14" lengthAdjust="spacing" textLength="125" x="15" y="380.8657">VAERequestInitial 2</text><text fill="#111827" font-family="Arial" font-size="14" lengthAdjust="spacing" textLength="258" x="15" y="396.9644">KLAS = A + Zeitintervall: von 1.1. bis 3.1.</text><text fill="#111827" font-family="Arial" font-size="14" lengthAdjust="spacing" textLength="201" x="15" y="413.063">KLAS = S + Zeitintervall: ab 3.1.</text><line style="stroke:#111827;stroke-width:2.0;" x1="355.5" x2="397.5" y1="449.9785" y2="449.9785"/><line style="stroke:#111827;stroke-width:2.0;" x1="397.5" x2="397.5" y1="449.9785" y2="462.9785"/><line style="stroke:#111827;stroke-width:2.0;" x1="356.5" x2="397.5" y1="462.9785" y2="462.9785"/><line style="stroke:#111827;stroke-width:2.0;" x1="356.5" x2="366.5" y1="462.9785" y2="458.9785"/><line style="stroke:#111827;stroke-width:2.0;" x1="356.5" x2="366.5" y1="462.9785" y2="466.9785"/><text fill="#000000" font-family="Arial" font-size="13" font-weight="bold" lengthAdjust="spacing" textLength="7" x="362.5" y="445.2236">4</text><text fill="#000000" font-family="Arial" font-size="13" lengthAdjust="spacing" textLength="220" x="373.5" y="445.2236">Moped Operation Logik von $anfragen</text><path d="M141,480.9785 L141,512.9785 A5,5 0 0 0 146,517.9785 L561,517.9785 A5,5 0 0 0 566,512.9785 L566,485.9785 L556,475.9785 L146,475.9785 A5,5 0 0 0 141,480.9785 " fill="url(#gs74vx3wu36a50)" filter="url(#fs74vx3wu36a5)" style="stroke:#8B95A5;stroke-width:1.0;"/><path d="M556,475.9785 L556,483.4785 A2.5,2.5 0 0 0 558.5,485.9785 L566,485.9785 L556,475.9785 " fill="url(#gs74vx3wu36a50)" style="stroke:#8B95A5;stroke-width:1.0;"/><text fill="#111827" font-family="Arial" font-size="14" lengthAdjust="spacing" textLength="400" x="147" y="494.1104">Automatischen Stornierung von VAERequestInitial 1, da es sich</text><text fill="#111827" font-family="Arial" font-size="14" lengthAdjust="spacing" textLength="327" x="151" y="510.209">um eine Anfrage f&#252;r den gleichen Zeitraum handelt.</text><line style="stroke:#111827;stroke-width:2.0;" x1="356.5" x2="366.5" y1="547.1245" y2="543.1245"/><line style="stroke:#111827;stroke-width:2.0;" x1="356.5" x2="366.5" y1="547.1245" y2="551.1245"/><line style="stroke:#111827;stroke-width:2.0;stroke-dasharray:2.0,2.0;" x1="355.5" x2="621.5" y1="547.1245" y2="547.1245"/><text fill="#000000" font-family="Arial" font-size="13" font-weight="bold" lengthAdjust="spacing" textLength="7" x="372.5" y="542.3696">5</text><text fill="#000000" font-family="Arial" font-size="13" lengthAdjust="spacing" textLength="63" x="383.5" y="542.3696">$antworten</text><path d="M469,565.1245 L469,613.1245 A5,5 0 0 0 474,618.1245 L768,618.1245 A5,5 0 0 0 773,613.1245 L773,570.1245 L763,560.1245 L474,560.1245 A5,5 0 0 0 469,565.1245 " fill="url(#gs74vx3wu36a50)" filter="url(#fs74vx3wu36a5)" style="stroke:#8B95A5;stroke-width:1.0;"/><path d="M763,560.1245 L763,567.6245 A2.5,2.5 0 0 0 765.5,570.1245 L773,570.1245 L763,560.1245 " fill="url(#gs74vx3wu36a50)" style="stroke:#8B95A5;stroke-width:1.0;"/><text fill="#111827" font-family="Arial" font-size="14" lengthAdjust="spacing" textLength="103" x="475" y="578.2563">VAEResponse 2</text><text fill="#111827" font-family="Arial" font-size="14" lengthAdjust="spacing" textLength="279" x="475" y="594.355">VKBEFR = N + Zeitintervall: von 1.1. bis 3.1.</text><text fill="#111827" font-family="Arial" font-size="14" lengthAdjust="spacing" textLength="221" x="475" y="610.4536">VKBEFR = S + Zeitintervall: ab 3.1.</text><!--SRC=[bLN1Sjem4BtxAtP83yaqOJ2449XfPg2JXDQGCd7BePEBRA-n1YDHIGvfElsDVarl-R5Ame0Td6IgN9JTjq_lxLf2pYbR4a4M470HeVZ8KoxWe66N8tTP4ivdWcSioX5ns_mL438X4LzHDeEOf18BcRnCC1JW5aaZZ4cMgYlEr0rP8DJwWfAqLetmwIE2UrgTBCikO1XN2BySWC5p0zZ0TjmuEOZSg8jd1b5im7dGRPFsDlereU6SePJWwjXjmT2v_dz2eiWODom5DQxhdZSxEkPlMwD4Xixlei3XpoMAbB9vmSBbPHNW6uli1lC65tkFFp9auThfX0X5GxeaJ9KijUrw1jWRgrrbq7w3zzARuPGIcxOqJK5V2BvwtXWRtFMskGbLdRXDhCzgwT2rLhuiUTmohrDxxbhnQNnMhYoEjZIP0NyeE2Z5g_hg1Fm1QdSCm1l2uH358tn6cO4d29iZIqWcZm1gvkPWkzlL8aYeTBr64marRrXpa4Nw6ZuKgEmQyoL6-LxNX-su4n1Tlzor6iOJosAXrKJ-50wV_bnxn_Lw_IYdqhVwDEvifMY88TaWZog8HjTNS3WY-bEKC-sEHGbI9MFEeesxJjImwjQK1cyuNwjxqJWCD11spkCmQ0MjBRVD6dApAP2GJ76MBG8KZkCDJouknfCUl2Ci5cI6pBanJmA_HzFw7dnYLEb71w6_plVWZatxbxVcHacLPy7LKV16VHy-G1_UmtUjdZA5ufwaQGz806xThJl-z6Htd5fneKhd-TCUM6wvv4oYPPrwWykhMqrxypBjcoQyb4Y9R8LX8b4N6hNx9fglcxZdp1u70PNGCfiTtAyKPq7EU9AhMt-dN_HpHHJLP2C-etDBMwNRLFJrf1OQBCC46VXwg8oYoFIDCrKLOpY6Y01Aa3HCZBni0MXUn7nu43_z5VftWS4iHMf9ZMf1D2un7r-g_dj8pJU6LDMsBVxblZd_0000]--></g></svg>