<?xml version="1.0" encoding="us-ascii" standalone="no"?><svg xmlns="http://www.w3.org/2000/svg" xmlns:xlink="http://www.w3.org/1999/xlink" contentStyleType="text/css" height="527px" preserveAspectRatio="none" style="width:1208px;height:527px;background:#F5F5F5;" version="1.1" viewBox="0 0 1208 527" width="1208px" zoomAndPan="magnify"><defs><linearGradient id="gntglsvn822mv0" x1="50%" x2="50%" y1="0%" y2="100%"><stop offset="0%" stop-color="#E0E5F0"/><stop offset="100%" stop-color="#D1D9E6"/></linearGradient><filter height="300%" id="fntglsvn822mv" width="300%" x="-1" y="-1"><feGaussianBlur result="blurOut" stdDeviation="2.0"/><feColorMatrix in="blurOut" result="blurOut2" type="matrix" values="0 0 0 0 0 0 0 0 0 0 0 0 0 0 0 0 0 0 .4 0"/><feOffset dx="4.0" dy="4.0" in="blurOut2" result="blurOut3"/><feBlend in="SourceGraphic" in2="blurOut3" mode="normal"/></filter></defs><g><rect fill="#F5F5F5" height="527" style="stroke:none;stroke-width:1.0;" width="1208" x="0" y="0"/><rect fill="#F5E599" height="515.7813" rx="5" ry="5" style="stroke:#181818;stroke-width:0.5;" width="144" x="20" y="6"/><text fill="#000000" font-family="Arial" font-size="14" font-weight="bold" lengthAdjust="spacing" textLength="4" x="23" y="19.1318">&#160;</text><text fill="#000000" font-family="Arial" font-size="14" font-weight="bold" lengthAdjust="spacing" textLength="34" x="75" y="35.2305">KA B</text><rect fill="#F5E599" height="515.7813" rx="5" ry="5" style="stroke:#181818;stroke-width:0.5;" width="144" x="385" y="6"/><text fill="#000000" font-family="Arial" font-size="14" font-weight="bold" lengthAdjust="spacing" textLength="4" x="388" y="19.1318">&#160;</text><text fill="#000000" font-family="Arial" font-size="14" font-weight="bold" lengthAdjust="spacing" textLength="34" x="440" y="35.2305">KA A</text><rect fill="#C5F7BA" height="515.7813" rx="5" ry="5" style="stroke:#181818;stroke-width:0.5;" width="109" x="564.5" y="6"/><text fill="#000000" font-family="Arial" font-size="14" font-weight="bold" lengthAdjust="spacing" textLength="4" x="567.5" y="19.1318">&#160;</text><text fill="#000000" font-family="Arial" font-size="14" font-weight="bold" lengthAdjust="spacing" textLength="47" x="595.5" y="35.2305">Moped</text><rect fill="#BAC4F7" height="515.7813" rx="5" ry="5" style="stroke:#181818;stroke-width:0.5;" width="118" x="695.5" y="6"/><text fill="#000000" font-family="Arial" font-size="14" font-weight="bold" lengthAdjust="spacing" textLength="4" x="698.5" y="19.1318">&#160;</text><text fill="#000000" font-family="Arial" font-size="14" font-weight="bold" lengthAdjust="spacing" textLength="80" x="714.5" y="35.2305">SV (&#214;GK,...)</text><rect fill="#F7D0BA" height="515.7813" rx="5" ry="5" style="stroke:#181818;stroke-width:0.5;" width="238" x="835.5" y="6"/><text fill="#000000" font-family="Arial" font-size="14" font-weight="bold" lengthAdjust="spacing" textLength="4" x="838.5" y="19.1318">&#160;</text><text fill="#000000" font-family="Arial" font-size="14" font-weight="bold" lengthAdjust="spacing" textLength="220" x="842.5" y="35.2305">LGF (Landesgesundheitsfonds)</text><rect fill="#FCB3B3" height="515.7813" rx="5" ry="5" style="stroke:#181818;stroke-width:0.5;" width="107" x="1095.5" y="6"/><text fill="#000000" font-family="Arial" font-size="14" font-weight="bold" lengthAdjust="spacing" textLength="4" x="1098.5" y="19.1318">&#160;</text><text fill="#000000" font-family="Arial" font-size="14" font-weight="bold" lengthAdjust="spacing" textLength="37" x="1130.5" y="35.2305">Bund</text><line style="stroke:#181818;stroke-width:0.5;stroke-dasharray:5.0,5.0;" x1="91.5" x2="91.5" y1="118.2959" y2="442.6826"/><line style="stroke:#181818;stroke-width:0.5;stroke-dasharray:5.0,5.0;" x1="456.5" x2="456.5" y1="118.2959" y2="442.6826"/><line style="stroke:#181818;stroke-width:0.5;stroke-dasharray:5.0,5.0;" x1="619" x2="619" y1="118.2959" y2="442.6826"/><line style="stroke:#181818;stroke-width:0.5;stroke-dasharray:5.0,5.0;" x1="754" x2="754" y1="118.2959" y2="442.6826"/><line style="stroke:#181818;stroke-width:0.5;stroke-dasharray:5.0,5.0;" x1="954" x2="954" y1="118.2959" y2="442.6826"/><line style="stroke:#181818;stroke-width:0.5;stroke-dasharray:5.0,5.0;" x1="1148.5" x2="1148.5" y1="118.2959" y2="442.6826"/><text fill="#000000" font-family="Arial" font-size="14" lengthAdjust="spacing" textLength="19" x="79.5" y="115.3291">KA</text><ellipse cx="92" cy="50.6973" fill="#E2E2F0" rx="8" ry="8" style="stroke:#181818;stroke-width:0.5;"/><path d="M92,58.6973 L92,85.6973 M79,66.6973 L105,66.6973 M92,85.6973 L79,100.6973 M92,85.6973 L105,100.6973 " fill="none" style="stroke:#181818;stroke-width:0.5;"/><text fill="#000000" font-family="Arial" font-size="14" lengthAdjust="spacing" textLength="19" x="79.5" y="454.8145">KA</text><ellipse cx="92" cy="466.2813" fill="#E2E2F0" rx="8" ry="8" style="stroke:#181818;stroke-width:0.5;"/><path d="M92,474.2813 L92,501.2813 M79,482.2813 L105,482.2813 M92,501.2813 L79,516.2813 M92,501.2813 L105,516.2813 " fill="none" style="stroke:#181818;stroke-width:0.5;"/><text fill="#000000" font-family="Arial" font-size="14" lengthAdjust="spacing" textLength="19" x="444.5" y="115.3291">KA</text><ellipse cx="457" cy="50.6973" fill="#E2E2F0" rx="8" ry="8" style="stroke:#181818;stroke-width:0.5;"/><path d="M457,58.6973 L457,85.6973 M444,66.6973 L470,66.6973 M457,85.6973 L444,100.6973 M457,85.6973 L470,100.6973 " fill="none" style="stroke:#181818;stroke-width:0.5;"/><text fill="#000000" font-family="Arial" font-size="14" lengthAdjust="spacing" textLength="19" x="444.5" y="454.8145">KA</text><ellipse cx="457" cy="466.2813" fill="#E2E2F0" rx="8" ry="8" style="stroke:#181818;stroke-width:0.5;"/><path d="M457,474.2813 L457,501.2813 M444,482.2813 L470,482.2813 M457,501.2813 L444,516.2813 M457,501.2813 L470,516.2813 " fill="none" style="stroke:#181818;stroke-width:0.5;"/><rect fill="#FFFFFF" height="30.0986" rx="5" ry="5" style="stroke:#555555;stroke-width:0.5;" width="58" x="590" y="87.1973"/><text fill="#000000" font-family="Arial" font-size="14" lengthAdjust="spacing" textLength="44" x="597" y="107.3291">Moped</text><rect fill="#FFFFFF" height="30.0986" rx="5" ry="5" style="stroke:#555555;stroke-width:0.5;" width="58" x="590" y="441.6826"/><text fill="#000000" font-family="Arial" font-size="14" lengthAdjust="spacing" textLength="44" x="597" y="461.8145">Moped</text><text fill="#000000" font-family="Arial" font-size="14" lengthAdjust="spacing" textLength="63" x="720" y="115.3291">SV (&#214;GK)</text><ellipse cx="754.5" cy="50.6973" fill="#E2E2F0" rx="8" ry="8" style="stroke:#181818;stroke-width:0.5;"/><path d="M754.5,58.6973 L754.5,85.6973 M741.5,66.6973 L767.5,66.6973 M754.5,85.6973 L741.5,100.6973 M754.5,85.6973 L767.5,100.6973 " fill="none" style="stroke:#181818;stroke-width:0.5;"/><text fill="#000000" font-family="Arial" font-size="14" lengthAdjust="spacing" textLength="63" x="720" y="454.8145">SV (&#214;GK)</text><ellipse cx="754.5" cy="466.2813" fill="#E2E2F0" rx="8" ry="8" style="stroke:#181818;stroke-width:0.5;"/><path d="M754.5,474.2813 L754.5,501.2813 M741.5,482.2813 L767.5,482.2813 M754.5,501.2813 L741.5,516.2813 M754.5,501.2813 L767.5,516.2813 " fill="none" style="stroke:#181818;stroke-width:0.5;"/><text fill="#000000" font-family="Arial" font-size="14" lengthAdjust="spacing" textLength="201" x="851" y="115.3291">LGF (Landesgesundheitsfonds)</text><ellipse cx="954.5" cy="50.6973" fill="#E2E2F0" rx="8" ry="8" style="stroke:#181818;stroke-width:0.5;"/><path d="M954.5,58.6973 L954.5,85.6973 M941.5,66.6973 L967.5,66.6973 M954.5,85.6973 L941.5,100.6973 M954.5,85.6973 L967.5,100.6973 " fill="none" style="stroke:#181818;stroke-width:0.5;"/><text fill="#000000" font-family="Arial" font-size="14" lengthAdjust="spacing" textLength="201" x="851" y="454.8145">LGF (Landesgesundheitsfonds)</text><ellipse cx="954.5" cy="466.2813" fill="#E2E2F0" rx="8" ry="8" style="stroke:#181818;stroke-width:0.5;"/><path d="M954.5,474.2813 L954.5,501.2813 M941.5,482.2813 L967.5,482.2813 M954.5,501.2813 L941.5,516.2813 M954.5,501.2813 L967.5,516.2813 " fill="none" style="stroke:#181818;stroke-width:0.5;"/><text fill="#000000" font-family="Arial" font-size="14" lengthAdjust="spacing" textLength="33" x="1129.5" y="115.3291">Bund</text><ellipse cx="1149" cy="50.6973" fill="#E2E2F0" rx="8" ry="8" style="stroke:#181818;stroke-width:0.5;"/><path d="M1149,58.6973 L1149,85.6973 M1136,66.6973 L1162,66.6973 M1149,85.6973 L1136,100.6973 M1149,85.6973 L1162,100.6973 " fill="none" style="stroke:#181818;stroke-width:0.5;"/><text fill="#000000" font-family="Arial" font-size="14" lengthAdjust="spacing" textLength="33" x="1129.5" y="454.8145">Bund</text><ellipse cx="1149" cy="466.2813" fill="#E2E2F0" rx="8" ry="8" style="stroke:#181818;stroke-width:0.5;"/><path d="M1149,474.2813 L1149,501.2813 M1136,482.2813 L1162,482.2813 M1149,501.2813 L1136,516.2813 M1149,501.2813 L1162,516.2813 " fill="none" style="stroke:#181818;stroke-width:0.5;"/><line style="stroke:#111827;stroke-width:2.0;" x1="617" x2="607" y1="149.2446" y2="145.2446"/><line style="stroke:#111827;stroke-width:2.0;" x1="617" x2="607" y1="149.2446" y2="153.2446"/><line style="stroke:#111827;stroke-width:2.0;" x1="457" x2="618" y1="149.2446" y2="149.2446"/><text fill="#000000" font-family="Arial" font-size="13" font-weight="bold" lengthAdjust="spacing" textLength="7" x="464" y="144.4897">1</text><text fill="#000000" font-family="Arial" font-size="13" lengthAdjust="spacing" textLength="71" x="475" y="144.4897">$aufnehmen</text><path d="M360,167.2446 L360,183.2446 A5,5 0 0 0 365,188.2446 L546,188.2446 A5,5 0 0 0 551,183.2446 L551,172.2446 L541,162.2446 L365,162.2446 A5,5 0 0 0 360,167.2446 " fill="url(#gntglsvn822mv0)" filter="url(#fntglsvn822mv)" style="stroke:#8B95A5;stroke-width:1.0;"/><path d="M541,162.2446 L541,169.7446 A2.5,2.5 0 0 0 543.5,172.2446 L551,172.2446 L541,162.2446 " fill="url(#gntglsvn822mv0)" style="stroke:#8B95A5;stroke-width:1.0;"/><text fill="#111827" font-family="Arial" font-size="14" lengthAdjust="spacing" textLength="170" x="366" y="180.3765">Patient wird aufgenommen</text><line style="stroke:#111827;stroke-width:2.0;" x1="93" x2="103" y1="217.292" y2="213.292"/><line style="stroke:#111827;stroke-width:2.0;" x1="93" x2="103" y1="217.292" y2="221.292"/><line style="stroke:#111827;stroke-width:2.0;stroke-dasharray:2.0,2.0;" x1="92" x2="456" y1="217.292" y2="217.292"/><text fill="#000000" font-family="Arial" font-size="13" font-weight="bold" lengthAdjust="spacing" textLength="7" x="109" y="212.5371">2</text><text fill="#000000" font-family="Arial" font-size="13" lengthAdjust="spacing" textLength="178" x="120" y="212.5371">Patient wird in die KA B gebracht</text><path d="M319,235.292 L319,251.292 A5,5 0 0 0 324,256.292 L586,256.292 A5,5 0 0 0 591,251.292 L591,240.292 L581,230.292 L324,230.292 A5,5 0 0 0 319,235.292 " fill="url(#gntglsvn822mv0)" filter="url(#fntglsvn822mv)" style="stroke:#8B95A5;stroke-width:1.0;"/><path d="M581,230.292 L581,237.792 A2.5,2.5 0 0 0 583.5,240.292 L591,240.292 L581,230.292 " fill="url(#gntglsvn822mv0)" style="stroke:#8B95A5;stroke-width:1.0;"/><text fill="#111827" font-family="Arial" font-size="14" lengthAdjust="spacing" textLength="251" x="325" y="248.4238">Patient muss f&#252;r Diagnostik in die KA B</text><line style="stroke:#111827;stroke-width:2.0;" x1="455" x2="445" y1="285.3394" y2="281.3394"/><line style="stroke:#111827;stroke-width:2.0;" x1="455" x2="445" y1="285.3394" y2="289.3394"/><line style="stroke:#111827;stroke-width:2.0;stroke-dasharray:2.0,2.0;" x1="92" x2="456" y1="285.3394" y2="285.3394"/><text fill="#000000" font-family="Arial" font-size="13" font-weight="bold" lengthAdjust="spacing" textLength="7" x="99" y="280.5845">3</text><text fill="#000000" font-family="Arial" font-size="13" lengthAdjust="spacing" textLength="221" x="110" y="280.5845">Patient wird zur&#252;ck in die KA A gebracht</text><path d="M5,303.3394 L5,319.3394 A5,5 0 0 0 10,324.3394 L172,324.3394 A5,5 0 0 0 177,319.3394 L177,308.3394 L167,298.3394 L10,298.3394 A5,5 0 0 0 5,303.3394 " fill="url(#gntglsvn822mv0)" filter="url(#fntglsvn822mv)" style="stroke:#8B95A5;stroke-width:1.0;"/><path d="M167,298.3394 L167,305.8394 A2.5,2.5 0 0 0 169.5,308.3394 L177,308.3394 L167,298.3394 " fill="url(#gntglsvn822mv0)" style="stroke:#8B95A5;stroke-width:1.0;"/><text fill="#111827" font-family="Arial" font-size="14" lengthAdjust="spacing" textLength="151" x="11" y="316.4712">Diagnostik durchgef&#252;hrt</text><line style="stroke:#111827;stroke-width:2.0;" x1="617" x2="607" y1="353.3867" y2="349.3867"/><line style="stroke:#111827;stroke-width:2.0;" x1="617" x2="607" y1="353.3867" y2="357.3867"/><line style="stroke:#111827;stroke-width:2.0;" x1="457" x2="618" y1="353.3867" y2="353.3867"/><text fill="#000000" font-family="Arial" font-size="13" font-weight="bold" lengthAdjust="spacing" textLength="7" x="464" y="348.6318">4</text><text fill="#000000" font-family="Arial" font-size="13" lengthAdjust="spacing" textLength="46" x="475" y="348.6318">$update</text><path d="M290,371.3867 L290,419.3867 A5,5 0 0 0 295,424.3867 L615,424.3867 A5,5 0 0 0 620,419.3867 L620,376.3867 L610,366.3867 L295,366.3867 A5,5 0 0 0 290,371.3867 " fill="url(#gntglsvn822mv0)" filter="url(#fntglsvn822mv)" style="stroke:#8B95A5;stroke-width:1.0;"/><path d="M610,366.3867 L610,373.8867 A2.5,2.5 0 0 0 612.5,376.3867 L620,376.3867 L610,366.3867 " fill="url(#gntglsvn822mv0)" style="stroke:#8B95A5;stroke-width:1.0;"/><text fill="#111827" font-family="Arial" font-size="14" lengthAdjust="spacing" textLength="228" x="296" y="384.5186">KA A meldet die Leistung an Moped</text><text fill="#111827" font-family="Arial" font-size="14" lengthAdjust="spacing" textLength="305" x="300" y="400.6172">-&gt; gibt im Procedure statt einer Referenz auf die</text><text fill="#111827" font-family="Arial" font-size="14" lengthAdjust="spacing" textLength="279" x="300" y="416.7158">eigene Abteilung eine Referenz auf KA B an</text><!--SRC=[XLJDKjim4BxxANP23p1Jc9XWGZWmaxH0PW9C1jgUUf6jjQr9BAMIN2YTlaQVXXilrfMT7panHRaukzz-k_ljIcOcv89fLa2iD4VzISsLXhrkTGApyR9abcbLIhv4f97xUGYJCwuUXSmWPNE3dcSPfYLg27rIZYahv_PAINl72eJEK0isxxGZ7iGpGdZIxcoMxM6aiWY_0u3HTWFOnIZj7kxna0_mr25y0SxYGSIYjVLBBfAPH6CW9Dkzrz0P_PyopbtZZiMh9Wp3i-C-sHxMqbXTOl37Bt3yQu5wBkJCQ-7oiWtmLVBg0vS2-zhZZn9bKdSwPTgAH2oOj8sMekfi0NR6MfqcQ5VW7VTgE0t7IfPZ5p3KMZrk2rCPDzeUhqnj6TUEEbUFJDTK-QBHuvgvTkrqrqjFqjDcf3_QncH6wcdLGMDhoTwcQn2h9-Xyb-2VoHX63KF7tHoC1WCgWYMMuYVZ4J03dScu4w3aT0-VtkGQliirV8_hLYsGRmYIAEt7Z0WMcxd1xRHYgQ3jH0_VOF_rx_Nauz7HqS6IYfw8axI_heKWZcI5F6WXkhc-WlqRHdjjCZGqfXo5DQcIt1pKxVLvjwgkfdHun_c_kBT5717Gbow9Ut5lpLrv7Rdxy4XOQPKiYnXr492yXnSNjzDp-C3AL69Ue0pkt0kZVcAb_ZdjlnL86ZuAJNnbcg5KXSEvO8gcSM-1X3JrdcGOQvRazYtAegGbJLzVD7mMB9FAM36ZQE2i9g0Keph5TXtFfNvzIMQhLCFsL5IOHynBdUGPKhvSMx_rSi6PnUqYAze2vnmjS85mWyBOakuEa_NEqI0EBo0JiGLHm5Ih12a5Wh7CMa3X7jDxJ56ZV7R2EHQAGK4A8WnZYsBk-1oo2Qp4OpBu1m00]--></g></svg>