<?xml version="1.0" encoding="us-ascii" standalone="no"?><svg xmlns="http://www.w3.org/2000/svg" xmlns:xlink="http://www.w3.org/1999/xlink" contentStyleType="text/css" height="391px" preserveAspectRatio="none" style="width:1130px;height:391px;background:#F5F5F5;" version="1.1" viewBox="0 0 1130 391" width="1130px" zoomAndPan="magnify"><defs><linearGradient id="g1vkpq45m3zqy70" x1="50%" x2="50%" y1="0%" y2="100%"><stop offset="0%" stop-color="#E0E5F0"/><stop offset="100%" stop-color="#D1D9E6"/></linearGradient><filter height="300%" id="f1vkpq45m3zqy7" width="300%" x="-1" y="-1"><feGaussianBlur result="blurOut" stdDeviation="2.0"/><feColorMatrix in="blurOut" result="blurOut2" type="matrix" values="0 0 0 0 0 0 0 0 0 0 0 0 0 0 0 0 0 0 .4 0"/><feOffset dx="4.0" dy="4.0" in="blurOut2" result="blurOut3"/><feBlend in="SourceGraphic" in2="blurOut3" mode="normal"/></filter></defs><g><rect fill="#F5F5F5" height="391" style="stroke:none;stroke-width:1.0;" width="1130" x="0" y="0"/><rect fill="#F5E599" height="379.6865" rx="5" ry="5" style="stroke:#181818;stroke-width:0.5;" width="218" x="85" y="6"/><text fill="#000000" font-family="Arial" font-size="14" font-weight="bold" lengthAdjust="spacing" textLength="4" x="88" y="19.1318">&#160;</text><text fill="#000000" font-family="Arial" font-size="14" font-weight="bold" lengthAdjust="spacing" textLength="196" x="96" y="35.2305">KH (Herz Jesu Krankenhaus)</text><rect fill="#C5F7BA" height="379.6865" rx="5" ry="5" style="stroke:#181818;stroke-width:0.5;" width="109" x="426.5" y="6"/><text fill="#000000" font-family="Arial" font-size="14" font-weight="bold" lengthAdjust="spacing" textLength="4" x="429.5" y="19.1318">&#160;</text><text fill="#000000" font-family="Arial" font-size="14" font-weight="bold" lengthAdjust="spacing" textLength="47" x="457.5" y="35.2305">Moped</text><rect fill="#BAC4F7" height="379.6865" rx="5" ry="5" style="stroke:#181818;stroke-width:0.5;" width="118" x="577.5" y="6"/><text fill="#000000" font-family="Arial" font-size="14" font-weight="bold" lengthAdjust="spacing" textLength="4" x="580.5" y="19.1318">&#160;</text><text fill="#000000" font-family="Arial" font-size="14" font-weight="bold" lengthAdjust="spacing" textLength="80" x="596.5" y="35.2305">SV (&#214;GK,...)</text><rect fill="#F7D0BA" height="379.6865" rx="5" ry="5" style="stroke:#181818;stroke-width:0.5;" width="238" x="737.5" y="6"/><text fill="#000000" font-family="Arial" font-size="14" font-weight="bold" lengthAdjust="spacing" textLength="4" x="740.5" y="19.1318">&#160;</text><text fill="#000000" font-family="Arial" font-size="14" font-weight="bold" lengthAdjust="spacing" textLength="220" x="744.5" y="35.2305">LGF (Landesgesundheitsfonds)</text><rect fill="#FCB3B3" height="379.6865" rx="5" ry="5" style="stroke:#181818;stroke-width:0.5;" width="107" x="1017.5" y="6"/><text fill="#000000" font-family="Arial" font-size="14" font-weight="bold" lengthAdjust="spacing" textLength="4" x="1020.5" y="19.1318">&#160;</text><text fill="#000000" font-family="Arial" font-size="14" font-weight="bold" lengthAdjust="spacing" textLength="37" x="1052.5" y="35.2305">Bund</text><line style="stroke:#181818;stroke-width:0.5;stroke-dasharray:5.0,5.0;" x1="193.5" x2="193.5" y1="118.2959" y2="306.5879"/><line style="stroke:#181818;stroke-width:0.5;stroke-dasharray:5.0,5.0;" x1="481" x2="481" y1="118.2959" y2="306.5879"/><line style="stroke:#181818;stroke-width:0.5;stroke-dasharray:5.0,5.0;" x1="636" x2="636" y1="118.2959" y2="306.5879"/><line style="stroke:#181818;stroke-width:0.5;stroke-dasharray:5.0,5.0;" x1="856" x2="856" y1="118.2959" y2="306.5879"/><line style="stroke:#181818;stroke-width:0.5;stroke-dasharray:5.0,5.0;" x1="1070.5" x2="1070.5" y1="118.2959" y2="306.5879"/><text fill="#000000" font-family="Arial" font-size="14" lengthAdjust="spacing" textLength="19" x="181.5" y="115.3291">KH</text><ellipse cx="194" cy="50.6973" fill="#E2E2F0" rx="8" ry="8" style="stroke:#181818;stroke-width:0.5;"/><path d="M194,58.6973 L194,85.6973 M181,66.6973 L207,66.6973 M194,85.6973 L181,100.6973 M194,85.6973 L207,100.6973 " fill="none" style="stroke:#181818;stroke-width:0.5;"/><text fill="#000000" font-family="Arial" font-size="14" lengthAdjust="spacing" textLength="19" x="181.5" y="318.7197">KH</text><ellipse cx="194" cy="330.1865" fill="#E2E2F0" rx="8" ry="8" style="stroke:#181818;stroke-width:0.5;"/><path d="M194,338.1865 L194,365.1865 M181,346.1865 L207,346.1865 M194,365.1865 L181,380.1865 M194,365.1865 L207,380.1865 " fill="none" style="stroke:#181818;stroke-width:0.5;"/><rect fill="#FFFFFF" height="30.0986" rx="5" ry="5" style="stroke:#555555;stroke-width:0.5;" width="58" x="452" y="87.1973"/><text fill="#000000" font-family="Arial" font-size="14" lengthAdjust="spacing" textLength="44" x="459" y="107.3291">Moped</text><rect fill="#FFFFFF" height="30.0986" rx="5" ry="5" style="stroke:#555555;stroke-width:0.5;" width="58" x="452" y="305.5879"/><text fill="#000000" font-family="Arial" font-size="14" lengthAdjust="spacing" textLength="44" x="459" y="325.7197">Moped</text><text fill="#000000" font-family="Arial" font-size="14" lengthAdjust="spacing" textLength="63" x="602" y="115.3291">SV (&#214;GK)</text><ellipse cx="636.5" cy="50.6973" fill="#E2E2F0" rx="8" ry="8" style="stroke:#181818;stroke-width:0.5;"/><path d="M636.5,58.6973 L636.5,85.6973 M623.5,66.6973 L649.5,66.6973 M636.5,85.6973 L623.5,100.6973 M636.5,85.6973 L649.5,100.6973 " fill="none" style="stroke:#181818;stroke-width:0.5;"/><text fill="#000000" font-family="Arial" font-size="14" lengthAdjust="spacing" textLength="63" x="602" y="318.7197">SV (&#214;GK)</text><ellipse cx="636.5" cy="330.1865" fill="#E2E2F0" rx="8" ry="8" style="stroke:#181818;stroke-width:0.5;"/><path d="M636.5,338.1865 L636.5,365.1865 M623.5,346.1865 L649.5,346.1865 M636.5,365.1865 L623.5,380.1865 M636.5,365.1865 L649.5,380.1865 " fill="none" style="stroke:#181818;stroke-width:0.5;"/><text fill="#000000" font-family="Arial" font-size="14" lengthAdjust="spacing" textLength="201" x="753" y="115.3291">LGF (Landesgesundheitsfonds)</text><ellipse cx="856.5" cy="50.6973" fill="#E2E2F0" rx="8" ry="8" style="stroke:#181818;stroke-width:0.5;"/><path d="M856.5,58.6973 L856.5,85.6973 M843.5,66.6973 L869.5,66.6973 M856.5,85.6973 L843.5,100.6973 M856.5,85.6973 L869.5,100.6973 " fill="none" style="stroke:#181818;stroke-width:0.5;"/><text fill="#000000" font-family="Arial" font-size="14" lengthAdjust="spacing" textLength="201" x="753" y="318.7197">LGF (Landesgesundheitsfonds)</text><ellipse cx="856.5" cy="330.1865" fill="#E2E2F0" rx="8" ry="8" style="stroke:#181818;stroke-width:0.5;"/><path d="M856.5,338.1865 L856.5,365.1865 M843.5,346.1865 L869.5,346.1865 M856.5,365.1865 L843.5,380.1865 M856.5,365.1865 L869.5,380.1865 " fill="none" style="stroke:#181818;stroke-width:0.5;"/><text fill="#000000" font-family="Arial" font-size="14" lengthAdjust="spacing" textLength="33" x="1051.5" y="115.3291">Bund</text><ellipse cx="1071" cy="50.6973" fill="#E2E2F0" rx="8" ry="8" style="stroke:#181818;stroke-width:0.5;"/><path d="M1071,58.6973 L1071,85.6973 M1058,66.6973 L1084,66.6973 M1071,85.6973 L1058,100.6973 M1071,85.6973 L1084,100.6973 " fill="none" style="stroke:#181818;stroke-width:0.5;"/><text fill="#000000" font-family="Arial" font-size="14" lengthAdjust="spacing" textLength="33" x="1051.5" y="318.7197">Bund</text><ellipse cx="1071" cy="330.1865" fill="#E2E2F0" rx="8" ry="8" style="stroke:#181818;stroke-width:0.5;"/><path d="M1071,338.1865 L1071,365.1865 M1058,346.1865 L1084,346.1865 M1071,365.1865 L1058,380.1865 M1071,365.1865 L1084,380.1865 " fill="none" style="stroke:#181818;stroke-width:0.5;"/><line style="stroke:#111827;stroke-width:2.0;" x1="479" x2="469" y1="149.2446" y2="145.2446"/><line style="stroke:#111827;stroke-width:2.0;" x1="479" x2="469" y1="149.2446" y2="153.2446"/><line style="stroke:#111827;stroke-width:2.0;" x1="194" x2="480" y1="149.2446" y2="149.2446"/><text fill="#000000" font-family="Arial" font-size="13" font-weight="bold" lengthAdjust="spacing" textLength="7" x="201" y="144.4897">1</text><text fill="#000000" font-family="Arial" font-size="13" lengthAdjust="spacing" textLength="71" x="212" y="144.4897">$aufnehmen</text><path d="M5,167.2446 L5,199.2446 A5,5 0 0 0 10,204.2446 L376,204.2446 A5,5 0 0 0 381,199.2446 L381,172.2446 L371,162.2446 L10,162.2446 A5,5 0 0 0 5,167.2446 " fill="url(#g1vkpq45m3zqy70)" filter="url(#f1vkpq45m3zqy7)" style="stroke:#8B95A5;stroke-width:1.0;"/><path d="M371,162.2446 L371,169.7446 A2.5,2.5 0 0 0 373.5,172.2446 L381,172.2446 L371,162.2446 " fill="url(#g1vkpq45m3zqy70)" style="stroke:#8B95A5;stroke-width:1.0;"/><text fill="#111827" font-family="Arial" font-size="14" lengthAdjust="spacing" textLength="179" x="11" y="180.3765">POST Patient, Encounter, ...</text><text fill="#111827" font-family="Arial" font-size="14" lengthAdjust="spacing" textLength="355" x="11" y="196.4751">TransferEncounter mit Referenz auf Aufnahmeabteilung</text><line style="stroke:#111827;stroke-width:2.0;" x1="479" x2="469" y1="233.3906" y2="229.3906"/><line style="stroke:#111827;stroke-width:2.0;" x1="479" x2="469" y1="233.3906" y2="237.3906"/><line style="stroke:#111827;stroke-width:2.0;" x1="194" x2="480" y1="233.3906" y2="233.3906"/><text fill="#000000" font-family="Arial" font-size="13" font-weight="bold" lengthAdjust="spacing" textLength="7" x="201" y="228.6357">2</text><text fill="#000000" font-family="Arial" font-size="13" lengthAdjust="spacing" textLength="159" x="212" y="228.6357">$update - interne Verlegung</text><path d="M18,251.3906 L18,283.3906 A5,5 0 0 0 23,288.3906 L361,288.3906 A5,5 0 0 0 366,283.3906 L366,256.3906 L356,246.3906 L23,246.3906 A5,5 0 0 0 18,251.3906 " fill="url(#g1vkpq45m3zqy70)" filter="url(#f1vkpq45m3zqy7)" style="stroke:#8B95A5;stroke-width:1.0;"/><path d="M356,246.3906 L356,253.8906 A2.5,2.5 0 0 0 358.5,256.3906 L366,256.3906 L356,246.3906 " fill="url(#g1vkpq45m3zqy70)" style="stroke:#8B95A5;stroke-width:1.0;"/><text fill="#111827" font-family="Arial" font-size="14" lengthAdjust="spacing" textLength="319" x="24" y="264.5225">PUT alter TransferEncounter (finished, Enddatum)</text><text fill="#111827" font-family="Arial" font-size="14" lengthAdjust="spacing" textLength="323" x="24" y="280.6211">+ POST neuer TransferEncounter (neue Abteilung)</text><!--SRC=[VLJ1Sjem4BtxAtP83p0D30vn23baXdIIC2L9cK1ooaMsrg31IAui9saw_Ot-K7-iAmD61hVY8dRVldrl9JbR2faopLOGAirHVr69qd3KBPQNxR8iMiwroYNV8EB0_Xn4jc1SlGavXvWb6JgPJPcMgC5tIJd6B4_CZPBcWQqG6aCjMDAeHqp51u9_Mf-iodOmKXc4dnx0rRu1x68GTzj7tES3FBC8Tm3duI1WGHcTBKIqb9Xbu5FiqJ5qJlydZ7DhtB8uQdpVFp_fKsnQZiRe7BrVhi3HZnHr8kJIiN1zNGTuahpOu6R0xkpnUuuoMZkTC6r4958cJSLIKAmzmC6n5giAEXpmGNfxE9N4TYmdjc2ejNhR7qmHtCtsP1kgwrWcrhrw5BebvMd5OycyJXsuwyMdyLcrqZtQoibSgNV7GILUDrSlLE_GU940un4qHwW_u2jcEOmraqkK2vPdBO26VJaO30OaWaM6wWdDCcYCHmqF9QTd-EvG5UjUfSWtUwgFWhWVCgfFTwE6-qd1Ka3hYQRFqFpp-tPytEbqMXigUjMdSR-KGX1BiaMsQeZkRc-WUSVeAcPpSYVv0eN9OYNvrbsVTmjrQqgBjvp_g_kdSRWY8EoSnr7O2tibTv6rv7RZaB3SA9clGjIUDnwrBo_l9nVmYUMnnCKAfVTWlmdg5UtiBs3oRJgZMsi4IdCCrpAY-s9G7mFD2U15pkZyiXXrcO6LCF2854Bv0KGBGw9cHCr2WoB9vTpjcwUSKRys25jCh_UPNZ7EBMfFoDCCM68R7BPinaAAR87SAkH4cAzQLjpdjNo9UNsPJS1mAwi5tby0]--></g></svg>