<?xml version="1.0" encoding="us-ascii" standalone="no"?><svg xmlns="http://www.w3.org/2000/svg" xmlns:xlink="http://www.w3.org/1999/xlink" contentStyleType="text/css" height="291px" preserveAspectRatio="none" style="width:985px;height:291px;background:#F5F5F5;" version="1.1" viewBox="0 0 985 291" width="985px" zoomAndPan="magnify"><defs><linearGradient id="g18ly6oa92p3zu0" x1="50%" x2="50%" y1="0%" y2="100%"><stop offset="0%" stop-color="#E0E5F0"/><stop offset="100%" stop-color="#D1D9E6"/></linearGradient><filter height="300%" id="f18ly6oa92p3zu" width="300%" x="-1" y="-1"><feGaussianBlur result="blurOut" stdDeviation="2.0"/><feColorMatrix in="blurOut" result="blurOut2" type="matrix" values="0 0 0 0 0 0 0 0 0 0 0 0 0 0 0 0 0 0 .4 0"/><feOffset dx="4.0" dy="4.0" in="blurOut2" result="blurOut3"/><feBlend in="SourceGraphic" in2="blurOut3" mode="normal"/></filter></defs><g><rect fill="#F5F5F5" height="291" style="stroke:none;stroke-width:1.0;" width="985" x="0" y="0"/><rect fill="#F5E599" height="279.4419" rx="5" ry="5" style="stroke:#181818;stroke-width:0.5;" width="218" x="21" y="6"/><text fill="#000000" font-family="Arial" font-size="14" font-weight="bold" lengthAdjust="spacing" textLength="4" x="24" y="19.1318">&#160;</text><text fill="#000000" font-family="Arial" font-size="14" font-weight="bold" lengthAdjust="spacing" textLength="196" x="32" y="35.2305">KA (Herz Jesu Krankenhaus)</text><rect fill="#C5F7BA" height="279.4419" rx="5" ry="5" style="stroke:#181818;stroke-width:0.5;" width="109" x="281" y="6"/><text fill="#000000" font-family="Arial" font-size="14" font-weight="bold" lengthAdjust="spacing" textLength="4" x="284" y="19.1318">&#160;</text><text fill="#000000" font-family="Arial" font-size="14" font-weight="bold" lengthAdjust="spacing" textLength="47" x="312" y="35.2305">Moped</text><rect fill="#BAC4F7" height="279.4419" rx="5" ry="5" style="stroke:#181818;stroke-width:0.5;" width="118" x="432" y="6"/><text fill="#000000" font-family="Arial" font-size="14" font-weight="bold" lengthAdjust="spacing" textLength="4" x="435" y="19.1318">&#160;</text><text fill="#000000" font-family="Arial" font-size="14" font-weight="bold" lengthAdjust="spacing" textLength="80" x="451" y="35.2305">SV (&#214;GK,...)</text><rect fill="#F7D0BA" height="279.4419" rx="5" ry="5" style="stroke:#181818;stroke-width:0.5;" width="238" x="592" y="6"/><text fill="#000000" font-family="Arial" font-size="14" font-weight="bold" lengthAdjust="spacing" textLength="4" x="595" y="19.1318">&#160;</text><text fill="#000000" font-family="Arial" font-size="14" font-weight="bold" lengthAdjust="spacing" textLength="220" x="599" y="35.2305">LGF (Landesgesundheitsfonds)</text><rect fill="#FCB3B3" height="279.4419" rx="5" ry="5" style="stroke:#181818;stroke-width:0.5;" width="107" x="872" y="6"/><text fill="#000000" font-family="Arial" font-size="14" font-weight="bold" lengthAdjust="spacing" textLength="4" x="875" y="19.1318">&#160;</text><text fill="#000000" font-family="Arial" font-size="14" font-weight="bold" lengthAdjust="spacing" textLength="37" x="907" y="35.2305">Bund</text><line style="stroke:#181818;stroke-width:0.5;stroke-dasharray:5.0,5.0;" x1="129.5" x2="129.5" y1="118.2959" y2="206.3433"/><line style="stroke:#181818;stroke-width:0.5;stroke-dasharray:5.0,5.0;" x1="335.5" x2="335.5" y1="118.2959" y2="206.3433"/><line style="stroke:#181818;stroke-width:0.5;stroke-dasharray:5.0,5.0;" x1="490.5" x2="490.5" y1="118.2959" y2="206.3433"/><line style="stroke:#181818;stroke-width:0.5;stroke-dasharray:5.0,5.0;" x1="710.5" x2="710.5" y1="118.2959" y2="206.3433"/><line style="stroke:#181818;stroke-width:0.5;stroke-dasharray:5.0,5.0;" x1="925" x2="925" y1="118.2959" y2="206.3433"/><text fill="#000000" font-family="Arial" font-size="14" lengthAdjust="spacing" textLength="19" x="117.5" y="115.3291">KA</text><ellipse cx="130" cy="50.6973" fill="#E2E2F0" rx="8" ry="8" style="stroke:#181818;stroke-width:0.5;"/><path d="M130,58.6973 L130,85.6973 M117,66.6973 L143,66.6973 M130,85.6973 L117,100.6973 M130,85.6973 L143,100.6973 " fill="none" style="stroke:#181818;stroke-width:0.5;"/><text fill="#000000" font-family="Arial" font-size="14" lengthAdjust="spacing" textLength="19" x="117.5" y="218.4751">KA</text><ellipse cx="130" cy="229.9419" fill="#E2E2F0" rx="8" ry="8" style="stroke:#181818;stroke-width:0.5;"/><path d="M130,237.9419 L130,264.9419 M117,245.9419 L143,245.9419 M130,264.9419 L117,279.9419 M130,264.9419 L143,279.9419 " fill="none" style="stroke:#181818;stroke-width:0.5;"/><rect fill="#FFFFFF" height="30.0986" rx="5" ry="5" style="stroke:#555555;stroke-width:0.5;" width="58" x="306.5" y="87.1973"/><text fill="#000000" font-family="Arial" font-size="14" lengthAdjust="spacing" textLength="44" x="313.5" y="107.3291">Moped</text><rect fill="#FFFFFF" height="30.0986" rx="5" ry="5" style="stroke:#555555;stroke-width:0.5;" width="58" x="306.5" y="205.3433"/><text fill="#000000" font-family="Arial" font-size="14" lengthAdjust="spacing" textLength="44" x="313.5" y="225.4751">Moped</text><text fill="#000000" font-family="Arial" font-size="14" lengthAdjust="spacing" textLength="63" x="456.5" y="115.3291">SV (&#214;GK)</text><ellipse cx="491" cy="50.6973" fill="#E2E2F0" rx="8" ry="8" style="stroke:#181818;stroke-width:0.5;"/><path d="M491,58.6973 L491,85.6973 M478,66.6973 L504,66.6973 M491,85.6973 L478,100.6973 M491,85.6973 L504,100.6973 " fill="none" style="stroke:#181818;stroke-width:0.5;"/><text fill="#000000" font-family="Arial" font-size="14" lengthAdjust="spacing" textLength="63" x="456.5" y="218.4751">SV (&#214;GK)</text><ellipse cx="491" cy="229.9419" fill="#E2E2F0" rx="8" ry="8" style="stroke:#181818;stroke-width:0.5;"/><path d="M491,237.9419 L491,264.9419 M478,245.9419 L504,245.9419 M491,264.9419 L478,279.9419 M491,264.9419 L504,279.9419 " fill="none" style="stroke:#181818;stroke-width:0.5;"/><text fill="#000000" font-family="Arial" font-size="14" lengthAdjust="spacing" textLength="201" x="607.5" y="115.3291">LGF (Landesgesundheitsfonds)</text><ellipse cx="711" cy="50.6973" fill="#E2E2F0" rx="8" ry="8" style="stroke:#181818;stroke-width:0.5;"/><path d="M711,58.6973 L711,85.6973 M698,66.6973 L724,66.6973 M711,85.6973 L698,100.6973 M711,85.6973 L724,100.6973 " fill="none" style="stroke:#181818;stroke-width:0.5;"/><text fill="#000000" font-family="Arial" font-size="14" lengthAdjust="spacing" textLength="201" x="607.5" y="218.4751">LGF (Landesgesundheitsfonds)</text><ellipse cx="711" cy="229.9419" fill="#E2E2F0" rx="8" ry="8" style="stroke:#181818;stroke-width:0.5;"/><path d="M711,237.9419 L711,264.9419 M698,245.9419 L724,245.9419 M711,264.9419 L698,279.9419 M711,264.9419 L724,279.9419 " fill="none" style="stroke:#181818;stroke-width:0.5;"/><text fill="#000000" font-family="Arial" font-size="14" lengthAdjust="spacing" textLength="33" x="906" y="115.3291">Bund</text><ellipse cx="925.5" cy="50.6973" fill="#E2E2F0" rx="8" ry="8" style="stroke:#181818;stroke-width:0.5;"/><path d="M925.5,58.6973 L925.5,85.6973 M912.5,66.6973 L938.5,66.6973 M925.5,85.6973 L912.5,100.6973 M925.5,85.6973 L938.5,100.6973 " fill="none" style="stroke:#181818;stroke-width:0.5;"/><text fill="#000000" font-family="Arial" font-size="14" lengthAdjust="spacing" textLength="33" x="906" y="218.4751">Bund</text><ellipse cx="925.5" cy="229.9419" fill="#E2E2F0" rx="8" ry="8" style="stroke:#181818;stroke-width:0.5;"/><path d="M925.5,237.9419 L925.5,264.9419 M912.5,245.9419 L938.5,245.9419 M925.5,264.9419 L912.5,279.9419 M925.5,264.9419 L938.5,279.9419 " fill="none" style="stroke:#181818;stroke-width:0.5;"/><line style="stroke:#111827;stroke-width:2.0;" x1="333.5" x2="323.5" y1="149.2446" y2="145.2446"/><line style="stroke:#111827;stroke-width:2.0;" x1="333.5" x2="323.5" y1="149.2446" y2="153.2446"/><line style="stroke:#111827;stroke-width:2.0;" x1="130" x2="334.5" y1="149.2446" y2="149.2446"/><text fill="#000000" font-family="Arial" font-size="13" font-weight="bold" lengthAdjust="spacing" textLength="7" x="137" y="144.4897">1</text><text fill="#000000" font-family="Arial" font-size="13" lengthAdjust="spacing" textLength="71" x="148" y="144.4897">$aufnehmen</text><path d="M33,167.2446 L33,183.2446 A5,5 0 0 0 38,188.2446 L219,188.2446 A5,5 0 0 0 224,183.2446 L224,172.2446 L214,162.2446 L38,162.2446 A5,5 0 0 0 33,167.2446 " fill="url(#g18ly6oa92p3zu0)" filter="url(#f18ly6oa92p3zu)" style="stroke:#8B95A5;stroke-width:1.0;"/><path d="M214,162.2446 L214,169.7446 A2.5,2.5 0 0 0 216.5,172.2446 L224,172.2446 L214,162.2446 " fill="url(#g18ly6oa92p3zu0)" style="stroke:#8B95A5;stroke-width:1.0;"/><text fill="#111827" font-family="Arial" font-size="14" lengthAdjust="spacing" textLength="170" x="39" y="180.3765">Patient wird aufgenommen</text><!--SRC=[VLJ1Sjem4BtxAtQS7c2cOJ3W03ba9dGIc99acDBsr8jihK23aLp9BYIT_aP_g3zMoM0ZWzlrHTvz-xJloRBUS94IHROGIKLHVP29L73LBSBJfog9DoibSq6F21RQnq7eDQ5onyKA64aqEfLZcnAe8719AJAI9zcZ5DaBsIBuzugJn6z6BFaRGZ1eBjR7TZ12PWW_FO39kG3iOiYwrrSqe6EyiGZNW54q3abOPJ-lURmHg3K49lV94JGoxmj2gHLkMPnfWY0OzOOcjwoioLIEtYztmDbhYYhXOkD8U7Xe0dmHj5ZWqM3NU_oUeuWFIXT4PJpcAH5PJL9On1dWubYBg8Ck3RuebuTJAvIsz6p3lL9oTsvCaJnvsojJJJjMXSDUVPEQcidJciQA-L2wKDTd0tPJxtIFjdOo4xbt5DJoJRvwaTo3_qq0p6VGcg5wWu-eSvWh8ZOerYJNRG3VtXmCnsCp18apqs_GH8C_d_aU2cgkuTwXAk9PfaYFQzCVXsmO4TEVdgo6vqN1Ka2RYPPVeVNdztJ-ljFfj8zKvbOFsB0QnK0iIObiDn0zJH-XzKJCfwXNHfsWQ-IPPbBGKjsGTelf3fGMRpd_r_TFuJ0nG3WfPt7KZ_eLTr6rv7RXa90yaoBVHgWypxXxVNTdxBc5ToHd0jTR5DwB_Il87sZTlpMVRCRHUBZZol3bR8L2RYtiBm00]--></g></svg>