<?xml version="1.0" encoding="us-ascii" standalone="no"?><svg xmlns="http://www.w3.org/2000/svg" xmlns:xlink="http://www.w3.org/1999/xlink" contentStyleType="text/css" height="557px" preserveAspectRatio="none" style="width:1117px;height:557px;background:#F5F5F5;" version="1.1" viewBox="0 0 1117 557" width="1117px" zoomAndPan="magnify"><defs><linearGradient id="g16dfm4b7cw5060" x1="50%" x2="50%" y1="0%" y2="100%"><stop offset="0%" stop-color="#E0E5F0"/><stop offset="100%" stop-color="#D1D9E6"/></linearGradient><filter height="300%" id="f16dfm4b7cw506" width="300%" x="-1" y="-1"><feGaussianBlur result="blurOut" stdDeviation="2.0"/><feColorMatrix in="blurOut" result="blurOut2" type="matrix" values="0 0 0 0 0 0 0 0 0 0 0 0 0 0 0 0 0 0 .4 0"/><feOffset dx="4.0" dy="4.0" in="blurOut2" result="blurOut3"/><feBlend in="SourceGraphic" in2="blurOut3" mode="normal"/></filter></defs><g><rect fill="#F5F5F5" height="557" style="stroke:none;stroke-width:1.0;" width="1117" x="0" y="0"/><rect fill="#F5E599" height="545.3257" rx="5" ry="5" style="stroke:#181818;stroke-width:0.5;" width="218" x="153" y="6"/><text fill="#000000" font-family="Arial" font-size="14" font-weight="bold" lengthAdjust="spacing" textLength="4" x="156" y="19.1318">&#160;</text><text fill="#000000" font-family="Arial" font-size="14" font-weight="bold" lengthAdjust="spacing" textLength="196" x="164" y="35.2305">KA (Herz Jesu Krankenhaus)</text><rect fill="#C5F7BA" height="545.3257" rx="5" ry="5" style="stroke:#181818;stroke-width:0.5;" width="109" x="413" y="6"/><text fill="#000000" font-family="Arial" font-size="14" font-weight="bold" lengthAdjust="spacing" textLength="4" x="416" y="19.1318">&#160;</text><text fill="#000000" font-family="Arial" font-size="14" font-weight="bold" lengthAdjust="spacing" textLength="47" x="444" y="35.2305">Moped</text><rect fill="#BAC4F7" height="545.3257" rx="5" ry="5" style="stroke:#181818;stroke-width:0.5;" width="118" x="564" y="6"/><text fill="#000000" font-family="Arial" font-size="14" font-weight="bold" lengthAdjust="spacing" textLength="4" x="567" y="19.1318">&#160;</text><text fill="#000000" font-family="Arial" font-size="14" font-weight="bold" lengthAdjust="spacing" textLength="80" x="583" y="35.2305">SV (&#214;GK,...)</text><rect fill="#F7D0BA" height="545.3257" rx="5" ry="5" style="stroke:#181818;stroke-width:0.5;" width="238" x="724" y="6"/><text fill="#000000" font-family="Arial" font-size="14" font-weight="bold" lengthAdjust="spacing" textLength="4" x="727" y="19.1318">&#160;</text><text fill="#000000" font-family="Arial" font-size="14" font-weight="bold" lengthAdjust="spacing" textLength="220" x="731" y="35.2305">LGF (Landesgesundheitsfonds)</text><rect fill="#FCB3B3" height="545.3257" rx="5" ry="5" style="stroke:#181818;stroke-width:0.5;" width="107" x="1004" y="6"/><text fill="#000000" font-family="Arial" font-size="14" font-weight="bold" lengthAdjust="spacing" textLength="4" x="1007" y="19.1318">&#160;</text><text fill="#000000" font-family="Arial" font-size="14" font-weight="bold" lengthAdjust="spacing" textLength="37" x="1039" y="35.2305">Bund</text><rect fill="none" height="219.6865" rx="5" ry="5" style="stroke:#111827;stroke-width:1.0;" width="478.5" x="48" y="235.5405"/><line style="stroke:#181818;stroke-width:0.5;stroke-dasharray:5.0,5.0;" x1="261.5" x2="261.5" y1="118.2959" y2="472.2271"/><line style="stroke:#181818;stroke-width:0.5;stroke-dasharray:5.0,5.0;" x1="467.5" x2="467.5" y1="118.2959" y2="472.2271"/><line style="stroke:#181818;stroke-width:0.5;stroke-dasharray:5.0,5.0;" x1="622.5" x2="622.5" y1="118.2959" y2="472.2271"/><line style="stroke:#181818;stroke-width:0.5;stroke-dasharray:5.0,5.0;" x1="842.5" x2="842.5" y1="118.2959" y2="472.2271"/><line style="stroke:#181818;stroke-width:0.5;stroke-dasharray:5.0,5.0;" x1="1057" x2="1057" y1="118.2959" y2="472.2271"/><text fill="#000000" font-family="Arial" font-size="14" lengthAdjust="spacing" textLength="19" x="249.5" y="115.3291">KA</text><ellipse cx="262" cy="50.6973" fill="#E2E2F0" rx="8" ry="8" style="stroke:#181818;stroke-width:0.5;"/><path d="M262,58.6973 L262,85.6973 M249,66.6973 L275,66.6973 M262,85.6973 L249,100.6973 M262,85.6973 L275,100.6973 " fill="none" style="stroke:#181818;stroke-width:0.5;"/><text fill="#000000" font-family="Arial" font-size="14" lengthAdjust="spacing" textLength="19" x="249.5" y="484.3589">KA</text><ellipse cx="262" cy="495.8257" fill="#E2E2F0" rx="8" ry="8" style="stroke:#181818;stroke-width:0.5;"/><path d="M262,503.8257 L262,530.8257 M249,511.8257 L275,511.8257 M262,530.8257 L249,545.8257 M262,530.8257 L275,545.8257 " fill="none" style="stroke:#181818;stroke-width:0.5;"/><rect fill="#FFFFFF" height="30.0986" rx="5" ry="5" style="stroke:#555555;stroke-width:0.5;" width="58" x="438.5" y="87.1973"/><text fill="#000000" font-family="Arial" font-size="14" lengthAdjust="spacing" textLength="44" x="445.5" y="107.3291">Moped</text><rect fill="#FFFFFF" height="30.0986" rx="5" ry="5" style="stroke:#555555;stroke-width:0.5;" width="58" x="438.5" y="471.2271"/><text fill="#000000" font-family="Arial" font-size="14" lengthAdjust="spacing" textLength="44" x="445.5" y="491.3589">Moped</text><text fill="#000000" font-family="Arial" font-size="14" lengthAdjust="spacing" textLength="63" x="588.5" y="115.3291">SV (&#214;GK)</text><ellipse cx="623" cy="50.6973" fill="#E2E2F0" rx="8" ry="8" style="stroke:#181818;stroke-width:0.5;"/><path d="M623,58.6973 L623,85.6973 M610,66.6973 L636,66.6973 M623,85.6973 L610,100.6973 M623,85.6973 L636,100.6973 " fill="none" style="stroke:#181818;stroke-width:0.5;"/><text fill="#000000" font-family="Arial" font-size="14" lengthAdjust="spacing" textLength="63" x="588.5" y="484.3589">SV (&#214;GK)</text><ellipse cx="623" cy="495.8257" fill="#E2E2F0" rx="8" ry="8" style="stroke:#181818;stroke-width:0.5;"/><path d="M623,503.8257 L623,530.8257 M610,511.8257 L636,511.8257 M623,530.8257 L610,545.8257 M623,530.8257 L636,545.8257 " fill="none" style="stroke:#181818;stroke-width:0.5;"/><text fill="#000000" font-family="Arial" font-size="14" lengthAdjust="spacing" textLength="201" x="739.5" y="115.3291">LGF (Landesgesundheitsfonds)</text><ellipse cx="843" cy="50.6973" fill="#E2E2F0" rx="8" ry="8" style="stroke:#181818;stroke-width:0.5;"/><path d="M843,58.6973 L843,85.6973 M830,66.6973 L856,66.6973 M843,85.6973 L830,100.6973 M843,85.6973 L856,100.6973 " fill="none" style="stroke:#181818;stroke-width:0.5;"/><text fill="#000000" font-family="Arial" font-size="14" lengthAdjust="spacing" textLength="201" x="739.5" y="484.3589">LGF (Landesgesundheitsfonds)</text><ellipse cx="843" cy="495.8257" fill="#E2E2F0" rx="8" ry="8" style="stroke:#181818;stroke-width:0.5;"/><path d="M843,503.8257 L843,530.8257 M830,511.8257 L856,511.8257 M843,530.8257 L830,545.8257 M843,530.8257 L856,545.8257 " fill="none" style="stroke:#181818;stroke-width:0.5;"/><text fill="#000000" font-family="Arial" font-size="14" lengthAdjust="spacing" textLength="33" x="1038" y="115.3291">Bund</text><ellipse cx="1057.5" cy="50.6973" fill="#E2E2F0" rx="8" ry="8" style="stroke:#181818;stroke-width:0.5;"/><path d="M1057.5,58.6973 L1057.5,85.6973 M1044.5,66.6973 L1070.5,66.6973 M1057.5,85.6973 L1044.5,100.6973 M1057.5,85.6973 L1070.5,100.6973 " fill="none" style="stroke:#181818;stroke-width:0.5;"/><text fill="#000000" font-family="Arial" font-size="14" lengthAdjust="spacing" textLength="33" x="1038" y="484.3589">Bund</text><ellipse cx="1057.5" cy="495.8257" fill="#E2E2F0" rx="8" ry="8" style="stroke:#181818;stroke-width:0.5;"/><path d="M1057.5,503.8257 L1057.5,530.8257 M1044.5,511.8257 L1070.5,511.8257 M1057.5,530.8257 L1044.5,545.8257 M1057.5,530.8257 L1070.5,545.8257 " fill="none" style="stroke:#181818;stroke-width:0.5;"/><line style="stroke:#111827;stroke-width:2.0;" x1="465.5" x2="455.5" y1="149.2446" y2="145.2446"/><line style="stroke:#111827;stroke-width:2.0;" x1="465.5" x2="455.5" y1="149.2446" y2="153.2446"/><line style="stroke:#111827;stroke-width:2.0;" x1="262" x2="466.5" y1="149.2446" y2="149.2446"/><text fill="#000000" font-family="Arial" font-size="13" font-weight="bold" lengthAdjust="spacing" textLength="7" x="269" y="144.4897">1</text><text fill="#000000" font-family="Arial" font-size="13" lengthAdjust="spacing" textLength="71" x="280" y="144.4897">$aufnehmen</text><path d="M5,167.2446 L5,215.2446 A5,5 0 0 0 10,220.2446 L511,220.2446 A5,5 0 0 0 516,215.2446 L516,172.2446 L506,162.2446 L10,162.2446 A5,5 0 0 0 5,167.2446 " fill="url(#g16dfm4b7cw5060)" filter="url(#f16dfm4b7cw506)" style="stroke:#8B95A5;stroke-width:1.0;"/><path d="M506,162.2446 L506,169.7446 A2.5,2.5 0 0 0 508.5,172.2446 L516,172.2446 L506,162.2446 " fill="url(#g16dfm4b7cw5060)" style="stroke:#8B95A5;stroke-width:1.0;"/><text fill="#111827" font-family="Arial" font-size="14" lengthAdjust="spacing" textLength="482" x="11" y="180.3765">Patient:in wird am 2025-07-20 auf Abteilung &#8222;Innere Medizin&#8220; aufgenommen</text><text fill="#111827" font-family="Arial" font-size="14" lengthAdjust="spacing" textLength="205" x="11" y="196.4751">&#8594; Encounter status: in-progress</text><text fill="#111827" font-family="Arial" font-size="14" lengthAdjust="spacing" textLength="294" x="11" y="212.5737">TransferEncounter Abteilung: "Innere Medizin"</text><path d="M53,235.5405 L124,235.5405 L124,243.6392 L114,253.6392 L48,253.6392 L48,240.5405 A5,5 0 0 1 53,235.5405 " fill="#F3F4F6" style="stroke:#111827;stroke-width:1.5;"/><rect fill="none" height="219.6865" rx="5" ry="5" style="stroke:#111827;stroke-width:1.0;" width="478.5" x="48" y="235.5405"/><text fill="#000000" font-family="Arial" font-size="14" font-weight="bold" lengthAdjust="spacing" textLength="31" x="63" y="249.6724">loop</text><text fill="#000000" font-family="Arial" font-size="14" font-weight="bold" lengthAdjust="spacing" textLength="158" x="139" y="250.6724">[Beurlaubungs-Zyklus]</text><line style="stroke:#111827;stroke-width:2.0;" x1="465.5" x2="455.5" y1="275.6865" y2="271.6865"/><line style="stroke:#111827;stroke-width:2.0;" x1="465.5" x2="455.5" y1="275.6865" y2="279.6865"/><line style="stroke:#111827;stroke-width:2.0;" x1="262" x2="466.5" y1="275.6865" y2="275.6865"/><text fill="#000000" font-family="Arial" font-size="13" font-weight="bold" lengthAdjust="spacing" textLength="7" x="269" y="270.9316">2</text><text fill="#000000" font-family="Arial" font-size="13" lengthAdjust="spacing" textLength="46" x="280" y="270.9316">$update</text><path d="M58,293.6865 L58,341.6865 A5,5 0 0 0 63,346.6865 L458,346.6865 A5,5 0 0 0 463,341.6865 L463,298.6865 L453,288.6865 L63,288.6865 A5,5 0 0 0 58,293.6865 " fill="url(#g16dfm4b7cw5060)" filter="url(#f16dfm4b7cw506)" style="stroke:#8B95A5;stroke-width:1.0;"/><path d="M453,288.6865 L453,296.1865 A2.5,2.5 0 0 0 455.5,298.6865 L463,298.6865 L453,288.6865 " fill="url(#g16dfm4b7cw5060)" style="stroke:#8B95A5;stroke-width:1.0;"/><text fill="#111827" font-family="Arial" font-size="14" lengthAdjust="spacing" textLength="231" x="64" y="306.8184">Patient:in am 2025-07-22 auf Urlaub</text><text fill="#111827" font-family="Arial" font-size="14" lengthAdjust="spacing" textLength="181" x="64" y="322.917">&#8594; Encounter status: on-hold</text><text fill="#111827" font-family="Arial" font-size="14" lengthAdjust="spacing" textLength="384" x="64" y="339.0156">Verlegung auf TransferEncounter mit Funktionscode 100000</text><line style="stroke:#111827;stroke-width:2.0;" x1="465.5" x2="455.5" y1="375.9312" y2="371.9312"/><line style="stroke:#111827;stroke-width:2.0;" x1="465.5" x2="455.5" y1="375.9312" y2="379.9312"/><line style="stroke:#111827;stroke-width:2.0;" x1="262" x2="466.5" y1="375.9312" y2="375.9312"/><text fill="#000000" font-family="Arial" font-size="13" font-weight="bold" lengthAdjust="spacing" textLength="7" x="269" y="371.1763">3</text><text fill="#000000" font-family="Arial" font-size="13" lengthAdjust="spacing" textLength="46" x="280" y="371.1763">$update</text><path d="M103,393.9312 L103,441.9312 A5,5 0 0 0 108,446.9312 L413,446.9312 A5,5 0 0 0 418,441.9312 L418,398.9312 L408,388.9312 L108,388.9312 A5,5 0 0 0 103,393.9312 " fill="url(#g16dfm4b7cw5060)" filter="url(#f16dfm4b7cw506)" style="stroke:#8B95A5;stroke-width:1.0;"/><path d="M408,388.9312 L408,396.4312 A2.5,2.5 0 0 0 410.5,398.9312 L418,398.9312 L408,388.9312 " fill="url(#g16dfm4b7cw5060)" style="stroke:#8B95A5;stroke-width:1.0;"/><text fill="#111827" font-family="Arial" font-size="14" lengthAdjust="spacing" textLength="243" x="109" y="407.063">Patient:in kehrt am 2025-07-24 zur&#252;ck</text><text fill="#111827" font-family="Arial" font-size="14" lengthAdjust="spacing" textLength="205" x="109" y="423.1616">&#8594; Encounter status: in-progress</text><text fill="#111827" font-family="Arial" font-size="14" lengthAdjust="spacing" textLength="294" x="109" y="439.2603">TransferEncounter Abteilung: &#8222;Innere Medizin&#8220;</text><!--SRC=[hLHBRjim4Dth50EbYmIe0_yKnruKY8iaRXq7HlDP5DbGuiWc99CgFqtYea1MFK0NNHKzINUvIKvIKlv9iL9qKNeZpxnvdFSuf4eOpuWaCmY5f2ZVYbH8sAddorERB8cIYHI6qoKY3jolW51JGiKjunE8IQgma5cMIOuI6aLIYZ4ngJuHN9-J6O9_91b9_Mh41PiZDDhLoNBR1GmN6k6B1z1_BW3h6CJrsWvjq2uUE4JHWCEm6v1W7RsSiYZXg1GqREn3GT2X_Jycb3hXZgNGJQFHE6nsREnYROsM1hslnGO7zndAbF6a8E7uk0fmnMd-WKk3YzxZ9uCyMYWT4wbPn3B2TKbIaAzdWArZpLSPj6tmLdfrEAN4ofQcApYIKjm-DoOFRhnjha9LEwuJYxrQDdHgEyzA6jVCYzIMkbRSZW_AbSMZBPrCNzmL59JYLRvweRW3_uO330UmEq0vX_Ue30mbuGdoAJ5g3y1tDmU3RjSsGI9jwosQAF270zz3Jkqrl2jGvMiaCgJBRriV1N4d9BO-srWDet7EaaEhYIwkOVVnn-dmzVx-_jwIojxgTjnPjs8XZcI5tAiWEZizWTqpOaTHJQmwJgV8j8e5fojr7LhFkrjGEhpZ_5lTYyAXRu6mKAv7OIjihRdph2Dt7mKIOhJWPXQYzBpXeFRcpMZSWrV4n1odC-JUkNiJn6TqtlVim6g6NFSOXricBU7C7dSpgDKxjMOTR1KSXHfPQkmSF3tyUiVjhKSO8MLpnfyUVZh81BcOMMg06_xqxJiSyyXEdROxA4sqKJrWl9P9CP5kpYpeqWw5Yb5kWEjDUk2Nz_0zBnKYWpuQcH8JMeogVRnFKgCyPyn6eiaeiTBow8iYY_gQkRwhdFRbtWMlJKLA7U3Qla0uSLQumcqLCwRXnF14Cy5L9AYzgCid-HyxBJIQu5JgKhjjc1lv-3jA_e_FLQVffiZx0m00]--></g></svg>