<?xml version="1.0" encoding="us-ascii" standalone="no"?><svg xmlns="http://www.w3.org/2000/svg" xmlns:xlink="http://www.w3.org/1999/xlink" contentStyleType="text/css" height="307px" preserveAspectRatio="none" style="width:1018px;height:307px;background:#F5F5F5;" version="1.1" viewBox="0 0 1018 307" width="1018px" zoomAndPan="magnify"><defs><linearGradient id="gsqxqcqmtxhr30" x1="50%" x2="50%" y1="0%" y2="100%"><stop offset="0%" stop-color="#E0E5F0"/><stop offset="100%" stop-color="#D1D9E6"/></linearGradient><filter height="300%" id="fsqxqcqmtxhr3" width="300%" x="-1" y="-1"><feGaussianBlur result="blurOut" stdDeviation="2.0"/><feColorMatrix in="blurOut" result="blurOut2" type="matrix" values="0 0 0 0 0 0 0 0 0 0 0 0 0 0 0 0 0 0 .4 0"/><feOffset dx="4.0" dy="4.0" in="blurOut2" result="blurOut3"/><feBlend in="SourceGraphic" in2="blurOut3" mode="normal"/></filter></defs><g><rect fill="#F5F5F5" height="307" style="stroke:none;stroke-width:1.0;" width="1018" x="0" y="0"/><rect fill="#F5E599" height="295.5405" rx="5" ry="5" style="stroke:#181818;stroke-width:0.5;" width="218" x="54" y="6"/><text fill="#000000" font-family="Arial" font-size="14" font-weight="bold" lengthAdjust="spacing" textLength="4" x="57" y="19.1318">&#160;</text><text fill="#000000" font-family="Arial" font-size="14" font-weight="bold" lengthAdjust="spacing" textLength="196" x="65" y="35.2305">KH (Herz Jesu Krankenhaus)</text><rect fill="#C5F7BA" height="295.5405" rx="5" ry="5" style="stroke:#181818;stroke-width:0.5;" width="109" x="314" y="6"/><text fill="#000000" font-family="Arial" font-size="14" font-weight="bold" lengthAdjust="spacing" textLength="4" x="317" y="19.1318">&#160;</text><text fill="#000000" font-family="Arial" font-size="14" font-weight="bold" lengthAdjust="spacing" textLength="47" x="345" y="35.2305">Moped</text><rect fill="#BAC4F7" height="295.5405" rx="5" ry="5" style="stroke:#181818;stroke-width:0.5;" width="118" x="465" y="6"/><text fill="#000000" font-family="Arial" font-size="14" font-weight="bold" lengthAdjust="spacing" textLength="4" x="468" y="19.1318">&#160;</text><text fill="#000000" font-family="Arial" font-size="14" font-weight="bold" lengthAdjust="spacing" textLength="80" x="484" y="35.2305">SV (&#214;GK,...)</text><rect fill="#F7D0BA" height="295.5405" rx="5" ry="5" style="stroke:#181818;stroke-width:0.5;" width="238" x="625" y="6"/><text fill="#000000" font-family="Arial" font-size="14" font-weight="bold" lengthAdjust="spacing" textLength="4" x="628" y="19.1318">&#160;</text><text fill="#000000" font-family="Arial" font-size="14" font-weight="bold" lengthAdjust="spacing" textLength="220" x="632" y="35.2305">LGF (Landesgesundheitsfonds)</text><rect fill="#FCB3B3" height="295.5405" rx="5" ry="5" style="stroke:#181818;stroke-width:0.5;" width="107" x="905" y="6"/><text fill="#000000" font-family="Arial" font-size="14" font-weight="bold" lengthAdjust="spacing" textLength="4" x="908" y="19.1318">&#160;</text><text fill="#000000" font-family="Arial" font-size="14" font-weight="bold" lengthAdjust="spacing" textLength="37" x="940" y="35.2305">Bund</text><line style="stroke:#181818;stroke-width:0.5;stroke-dasharray:5.0,5.0;" x1="162.5" x2="162.5" y1="118.2959" y2="222.4419"/><line style="stroke:#181818;stroke-width:0.5;stroke-dasharray:5.0,5.0;" x1="368.5" x2="368.5" y1="118.2959" y2="222.4419"/><line style="stroke:#181818;stroke-width:0.5;stroke-dasharray:5.0,5.0;" x1="523.5" x2="523.5" y1="118.2959" y2="222.4419"/><line style="stroke:#181818;stroke-width:0.5;stroke-dasharray:5.0,5.0;" x1="743.5" x2="743.5" y1="118.2959" y2="222.4419"/><line style="stroke:#181818;stroke-width:0.5;stroke-dasharray:5.0,5.0;" x1="958" x2="958" y1="118.2959" y2="222.4419"/><text fill="#000000" font-family="Arial" font-size="14" lengthAdjust="spacing" textLength="19" x="150.5" y="115.3291">KH</text><ellipse cx="163" cy="50.6973" fill="#E2E2F0" rx="8" ry="8" style="stroke:#181818;stroke-width:0.5;"/><path d="M163,58.6973 L163,85.6973 M150,66.6973 L176,66.6973 M163,85.6973 L150,100.6973 M163,85.6973 L176,100.6973 " fill="none" style="stroke:#181818;stroke-width:0.5;"/><text fill="#000000" font-family="Arial" font-size="14" lengthAdjust="spacing" textLength="19" x="150.5" y="234.5737">KH</text><ellipse cx="163" cy="246.0405" fill="#E2E2F0" rx="8" ry="8" style="stroke:#181818;stroke-width:0.5;"/><path d="M163,254.0405 L163,281.0405 M150,262.0405 L176,262.0405 M163,281.0405 L150,296.0405 M163,281.0405 L176,296.0405 " fill="none" style="stroke:#181818;stroke-width:0.5;"/><rect fill="#FFFFFF" height="30.0986" rx="5" ry="5" style="stroke:#555555;stroke-width:0.5;" width="58" x="339.5" y="87.1973"/><text fill="#000000" font-family="Arial" font-size="14" lengthAdjust="spacing" textLength="44" x="346.5" y="107.3291">Moped</text><rect fill="#FFFFFF" height="30.0986" rx="5" ry="5" style="stroke:#555555;stroke-width:0.5;" width="58" x="339.5" y="221.4419"/><text fill="#000000" font-family="Arial" font-size="14" lengthAdjust="spacing" textLength="44" x="346.5" y="241.5737">Moped</text><text fill="#000000" font-family="Arial" font-size="14" lengthAdjust="spacing" textLength="63" x="489.5" y="115.3291">SV (&#214;GK)</text><ellipse cx="524" cy="50.6973" fill="#E2E2F0" rx="8" ry="8" style="stroke:#181818;stroke-width:0.5;"/><path d="M524,58.6973 L524,85.6973 M511,66.6973 L537,66.6973 M524,85.6973 L511,100.6973 M524,85.6973 L537,100.6973 " fill="none" style="stroke:#181818;stroke-width:0.5;"/><text fill="#000000" font-family="Arial" font-size="14" lengthAdjust="spacing" textLength="63" x="489.5" y="234.5737">SV (&#214;GK)</text><ellipse cx="524" cy="246.0405" fill="#E2E2F0" rx="8" ry="8" style="stroke:#181818;stroke-width:0.5;"/><path d="M524,254.0405 L524,281.0405 M511,262.0405 L537,262.0405 M524,281.0405 L511,296.0405 M524,281.0405 L537,296.0405 " fill="none" style="stroke:#181818;stroke-width:0.5;"/><text fill="#000000" font-family="Arial" font-size="14" lengthAdjust="spacing" textLength="201" x="640.5" y="115.3291">LGF (Landesgesundheitsfonds)</text><ellipse cx="744" cy="50.6973" fill="#E2E2F0" rx="8" ry="8" style="stroke:#181818;stroke-width:0.5;"/><path d="M744,58.6973 L744,85.6973 M731,66.6973 L757,66.6973 M744,85.6973 L731,100.6973 M744,85.6973 L757,100.6973 " fill="none" style="stroke:#181818;stroke-width:0.5;"/><text fill="#000000" font-family="Arial" font-size="14" lengthAdjust="spacing" textLength="201" x="640.5" y="234.5737">LGF (Landesgesundheitsfonds)</text><ellipse cx="744" cy="246.0405" fill="#E2E2F0" rx="8" ry="8" style="stroke:#181818;stroke-width:0.5;"/><path d="M744,254.0405 L744,281.0405 M731,262.0405 L757,262.0405 M744,281.0405 L731,296.0405 M744,281.0405 L757,296.0405 " fill="none" style="stroke:#181818;stroke-width:0.5;"/><text fill="#000000" font-family="Arial" font-size="14" lengthAdjust="spacing" textLength="33" x="939" y="115.3291">Bund</text><ellipse cx="958.5" cy="50.6973" fill="#E2E2F0" rx="8" ry="8" style="stroke:#181818;stroke-width:0.5;"/><path d="M958.5,58.6973 L958.5,85.6973 M945.5,66.6973 L971.5,66.6973 M958.5,85.6973 L945.5,100.6973 M958.5,85.6973 L971.5,100.6973 " fill="none" style="stroke:#181818;stroke-width:0.5;"/><text fill="#000000" font-family="Arial" font-size="14" lengthAdjust="spacing" textLength="33" x="939" y="234.5737">Bund</text><ellipse cx="958.5" cy="246.0405" fill="#E2E2F0" rx="8" ry="8" style="stroke:#181818;stroke-width:0.5;"/><path d="M958.5,254.0405 L958.5,281.0405 M945.5,262.0405 L971.5,262.0405 M958.5,281.0405 L945.5,296.0405 M958.5,281.0405 L971.5,296.0405 " fill="none" style="stroke:#181818;stroke-width:0.5;"/><line style="stroke:#111827;stroke-width:2.0;" x1="366.5" x2="356.5" y1="149.2446" y2="145.2446"/><line style="stroke:#111827;stroke-width:2.0;" x1="366.5" x2="356.5" y1="149.2446" y2="153.2446"/><line style="stroke:#111827;stroke-width:2.0;" x1="163" x2="367.5" y1="149.2446" y2="149.2446"/><text fill="#000000" font-family="Arial" font-size="13" font-weight="bold" lengthAdjust="spacing" textLength="7" x="170" y="144.4897">1</text><text fill="#000000" font-family="Arial" font-size="13" lengthAdjust="spacing" textLength="63" x="181" y="144.4897">$entlassen</text><path d="M5,167.2446 L5,199.2446 A5,5 0 0 0 10,204.2446 L314,204.2446 A5,5 0 0 0 319,199.2446 L319,172.2446 L309,162.2446 L10,162.2446 A5,5 0 0 0 5,167.2446 " fill="url(#gsqxqcqmtxhr30)" filter="url(#fsqxqcqmtxhr3)" style="stroke:#8B95A5;stroke-width:1.0;"/><path d="M309,162.2446 L309,169.7446 A2.5,2.5 0 0 0 311.5,172.2446 L319,172.2446 L309,162.2446 " fill="url(#gsqxqcqmtxhr30)" style="stroke:#8B95A5;stroke-width:1.0;"/><text fill="#111827" font-family="Arial" font-size="14" lengthAdjust="spacing" textLength="285" x="11" y="180.3765">Patient wird entlassen und im gleichen Aufruf</text><text fill="#111827" font-family="Arial" font-size="14" lengthAdjust="spacing" textLength="193" x="11" y="196.4751">die Hauptdiagnose mitgeliefert</text><!--SRC=[VLJHRjem57tFLrobUoZIYaXf2lIX4amjQ9GAZMrFVN7YQx08TcOxA-kqtzWFxSTc1mWEP3ClpZtddjnp7AFNNEH4aGqaKb5K7sGc5LnqoXNe8qhIzLB9Gj0zWyNkvp7qYb3voiKI6CaqUiY-JGbK4FcY51afClCeXNac6uHmg3Z9mcR6WhyXH3VDO7riZoEaGVWP08nE3M07OzQvkg0H7U2jO_W1z9D1JEAg-dd5qxL0hI6ojK-UeRvzdXDAdN6duaqJHL7_kcThYoeQemeCVla3Jdxag38krfw5XuScmXT1omtk0_Qpnsy5YdJdT4wKuIdFYJ0rIt6vJWXdnrgkEkayu3FuS3Wru13BjMiOAYLVJuCfYyTihm-bfZTMmEvTNLiQsydpciTAUGUTkUko6tPRx_IFjdOo8xdr7DJgJRa6YTn2-280fXEudA1wWu-e2vWg8jOeLgJGBO3GtHoC1mCx14cDxRTieY6SJi801RNNSEj9bMicSwJxlUrFOzPBYEtFZr73R5wgbDHceSLNkFppUpnztswtMtifUwjlMAyQnLASo87PQX1w6Z_2vHEndw9UMdU2hf0RpQIW1tSzsYcdsqawljFyNzy_ZSF84k7edAL9D-bMsYNgnDt64o65aQBO9AY2O3gvkh-VpU_W7GgJ4QrH1C_kFq5-HvVzdVrW3RSOl795eIA1q-ORM6R8qvLz7XPC5GpWHL2EC255RYWdIo4rmeQR9MOS6IeJ_0K0]--></g></svg>