<?xml version="1.0" encoding="us-ascii" standalone="no"?><svg xmlns="http://www.w3.org/2000/svg" xmlns:xlink="http://www.w3.org/1999/xlink" contentStyleType="text/css" height="527px" preserveAspectRatio="none" style="width:1039px;height:527px;background:#F5F5F5;" version="1.1" viewBox="0 0 1039 527" width="1039px" zoomAndPan="magnify"><defs><linearGradient id="g1pv9m8r00y8jh0" x1="50%" x2="50%" y1="0%" y2="100%"><stop offset="0%" stop-color="#E0E5F0"/><stop offset="100%" stop-color="#D1D9E6"/></linearGradient><filter height="300%" id="f1pv9m8r00y8jh" width="300%" x="-1" y="-1"><feGaussianBlur result="blurOut" stdDeviation="2.0"/><feColorMatrix in="blurOut" result="blurOut2" type="matrix" values="0 0 0 0 0 0 0 0 0 0 0 0 0 0 0 0 0 0 .4 0"/><feOffset dx="4.0" dy="4.0" in="blurOut2" result="blurOut3"/><feBlend in="SourceGraphic" in2="blurOut3" mode="normal"/></filter></defs><g><rect fill="#F5F5F5" height="527" style="stroke:none;stroke-width:1.0;" width="1039" x="0" y="0"/><rect fill="#F5E599" height="515.7813" rx="5" ry="5" style="stroke:#181818;stroke-width:0.5;" width="218" x="75" y="6"/><text fill="#000000" font-family="Arial" font-size="14" font-weight="bold" lengthAdjust="spacing" textLength="4" x="78" y="19.1318">&#160;</text><text fill="#000000" font-family="Arial" font-size="14" font-weight="bold" lengthAdjust="spacing" textLength="196" x="86" y="35.2305">KA (Herz Jesu Krankenhaus)</text><rect fill="#C5F7BA" height="515.7813" rx="5" ry="5" style="stroke:#181818;stroke-width:0.5;" width="109" x="335" y="6"/><text fill="#000000" font-family="Arial" font-size="14" font-weight="bold" lengthAdjust="spacing" textLength="4" x="338" y="19.1318">&#160;</text><text fill="#000000" font-family="Arial" font-size="14" font-weight="bold" lengthAdjust="spacing" textLength="47" x="366" y="35.2305">Moped</text><rect fill="#BAC4F7" height="515.7813" rx="5" ry="5" style="stroke:#181818;stroke-width:0.5;" width="118" x="486" y="6"/><text fill="#000000" font-family="Arial" font-size="14" font-weight="bold" lengthAdjust="spacing" textLength="4" x="489" y="19.1318">&#160;</text><text fill="#000000" font-family="Arial" font-size="14" font-weight="bold" lengthAdjust="spacing" textLength="80" x="505" y="35.2305">SV (&#214;GK,...)</text><rect fill="#F7D0BA" height="515.7813" rx="5" ry="5" style="stroke:#181818;stroke-width:0.5;" width="238" x="646" y="6"/><text fill="#000000" font-family="Arial" font-size="14" font-weight="bold" lengthAdjust="spacing" textLength="4" x="649" y="19.1318">&#160;</text><text fill="#000000" font-family="Arial" font-size="14" font-weight="bold" lengthAdjust="spacing" textLength="220" x="653" y="35.2305">LGF (Landesgesundheitsfonds)</text><rect fill="#FCB3B3" height="515.7813" rx="5" ry="5" style="stroke:#181818;stroke-width:0.5;" width="107" x="926" y="6"/><text fill="#000000" font-family="Arial" font-size="14" font-weight="bold" lengthAdjust="spacing" textLength="4" x="929" y="19.1318">&#160;</text><text fill="#000000" font-family="Arial" font-size="14" font-weight="bold" lengthAdjust="spacing" textLength="37" x="961" y="35.2305">Bund</text><line style="stroke:#181818;stroke-width:0.5;stroke-dasharray:5.0,5.0;" x1="183.5" x2="183.5" y1="118.2959" y2="442.6826"/><line style="stroke:#181818;stroke-width:0.5;stroke-dasharray:5.0,5.0;" x1="389.5" x2="389.5" y1="118.2959" y2="442.6826"/><line style="stroke:#181818;stroke-width:0.5;stroke-dasharray:5.0,5.0;" x1="544.5" x2="544.5" y1="118.2959" y2="442.6826"/><line style="stroke:#181818;stroke-width:0.5;stroke-dasharray:5.0,5.0;" x1="764.5" x2="764.5" y1="118.2959" y2="442.6826"/><line style="stroke:#181818;stroke-width:0.5;stroke-dasharray:5.0,5.0;" x1="979" x2="979" y1="118.2959" y2="442.6826"/><text fill="#000000" font-family="Arial" font-size="14" lengthAdjust="spacing" textLength="19" x="171.5" y="115.3291">KA</text><ellipse cx="184" cy="50.6973" fill="#E2E2F0" rx="8" ry="8" style="stroke:#181818;stroke-width:0.5;"/><path d="M184,58.6973 L184,85.6973 M171,66.6973 L197,66.6973 M184,85.6973 L171,100.6973 M184,85.6973 L197,100.6973 " fill="none" style="stroke:#181818;stroke-width:0.5;"/><text fill="#000000" font-family="Arial" font-size="14" lengthAdjust="spacing" textLength="19" x="171.5" y="454.8145">KA</text><ellipse cx="184" cy="466.2813" fill="#E2E2F0" rx="8" ry="8" style="stroke:#181818;stroke-width:0.5;"/><path d="M184,474.2813 L184,501.2813 M171,482.2813 L197,482.2813 M184,501.2813 L171,516.2813 M184,501.2813 L197,516.2813 " fill="none" style="stroke:#181818;stroke-width:0.5;"/><rect fill="#FFFFFF" height="30.0986" rx="5" ry="5" style="stroke:#555555;stroke-width:0.5;" width="58" x="360.5" y="87.1973"/><text fill="#000000" font-family="Arial" font-size="14" lengthAdjust="spacing" textLength="44" x="367.5" y="107.3291">Moped</text><rect fill="#FFFFFF" height="30.0986" rx="5" ry="5" style="stroke:#555555;stroke-width:0.5;" width="58" x="360.5" y="441.6826"/><text fill="#000000" font-family="Arial" font-size="14" lengthAdjust="spacing" textLength="44" x="367.5" y="461.8145">Moped</text><text fill="#000000" font-family="Arial" font-size="14" lengthAdjust="spacing" textLength="63" x="510.5" y="115.3291">SV (&#214;GK)</text><ellipse cx="545" cy="50.6973" fill="#E2E2F0" rx="8" ry="8" style="stroke:#181818;stroke-width:0.5;"/><path d="M545,58.6973 L545,85.6973 M532,66.6973 L558,66.6973 M545,85.6973 L532,100.6973 M545,85.6973 L558,100.6973 " fill="none" style="stroke:#181818;stroke-width:0.5;"/><text fill="#000000" font-family="Arial" font-size="14" lengthAdjust="spacing" textLength="63" x="510.5" y="454.8145">SV (&#214;GK)</text><ellipse cx="545" cy="466.2813" fill="#E2E2F0" rx="8" ry="8" style="stroke:#181818;stroke-width:0.5;"/><path d="M545,474.2813 L545,501.2813 M532,482.2813 L558,482.2813 M545,501.2813 L532,516.2813 M545,501.2813 L558,516.2813 " fill="none" style="stroke:#181818;stroke-width:0.5;"/><text fill="#000000" font-family="Arial" font-size="14" lengthAdjust="spacing" textLength="201" x="661.5" y="115.3291">LGF (Landesgesundheitsfonds)</text><ellipse cx="765" cy="50.6973" fill="#E2E2F0" rx="8" ry="8" style="stroke:#181818;stroke-width:0.5;"/><path d="M765,58.6973 L765,85.6973 M752,66.6973 L778,66.6973 M765,85.6973 L752,100.6973 M765,85.6973 L778,100.6973 " fill="none" style="stroke:#181818;stroke-width:0.5;"/><text fill="#000000" font-family="Arial" font-size="14" lengthAdjust="spacing" textLength="201" x="661.5" y="454.8145">LGF (Landesgesundheitsfonds)</text><ellipse cx="765" cy="466.2813" fill="#E2E2F0" rx="8" ry="8" style="stroke:#181818;stroke-width:0.5;"/><path d="M765,474.2813 L765,501.2813 M752,482.2813 L778,482.2813 M765,501.2813 L752,516.2813 M765,501.2813 L778,516.2813 " fill="none" style="stroke:#181818;stroke-width:0.5;"/><text fill="#000000" font-family="Arial" font-size="14" lengthAdjust="spacing" textLength="33" x="960" y="115.3291">Bund</text><ellipse cx="979.5" cy="50.6973" fill="#E2E2F0" rx="8" ry="8" style="stroke:#181818;stroke-width:0.5;"/><path d="M979.5,58.6973 L979.5,85.6973 M966.5,66.6973 L992.5,66.6973 M979.5,85.6973 L966.5,100.6973 M979.5,85.6973 L992.5,100.6973 " fill="none" style="stroke:#181818;stroke-width:0.5;"/><text fill="#000000" font-family="Arial" font-size="14" lengthAdjust="spacing" textLength="33" x="960" y="454.8145">Bund</text><ellipse cx="979.5" cy="466.2813" fill="#E2E2F0" rx="8" ry="8" style="stroke:#181818;stroke-width:0.5;"/><path d="M979.5,474.2813 L979.5,501.2813 M966.5,482.2813 L992.5,482.2813 M979.5,501.2813 L966.5,516.2813 M979.5,501.2813 L992.5,516.2813 " fill="none" style="stroke:#181818;stroke-width:0.5;"/><line style="stroke:#111827;stroke-width:2.0;" x1="387.5" x2="377.5" y1="149.2446" y2="145.2446"/><line style="stroke:#111827;stroke-width:2.0;" x1="387.5" x2="377.5" y1="149.2446" y2="153.2446"/><line style="stroke:#111827;stroke-width:2.0;" x1="184" x2="388.5" y1="149.2446" y2="149.2446"/><text fill="#000000" font-family="Arial" font-size="13" font-weight="bold" lengthAdjust="spacing" textLength="7" x="191" y="144.4897">1</text><text fill="#000000" font-family="Arial" font-size="13" lengthAdjust="spacing" textLength="71" x="202" y="144.4897">$aufnehmen</text><path d="M73,167.2446 L73,199.2446 A5,5 0 0 0 78,204.2446 L286,204.2446 A5,5 0 0 0 291,199.2446 L291,172.2446 L281,162.2446 L78,162.2446 A5,5 0 0 0 73,167.2446 " fill="url(#g1pv9m8r00y8jh0)" filter="url(#f1pv9m8r00y8jh)" style="stroke:#8B95A5;stroke-width:1.0;"/><path d="M281,162.2446 L281,169.7446 A2.5,2.5 0 0 0 283.5,172.2446 L291,172.2446 L281,162.2446 " fill="url(#g1pv9m8r00y8jh0)" style="stroke:#8B95A5;stroke-width:1.0;"/><text fill="#111827" font-family="Arial" font-size="14" lengthAdjust="spacing" textLength="185" x="79" y="180.3765">Patient:in wird aufgenommen</text><text fill="#111827" font-family="Arial" font-size="14" lengthAdjust="spacing" textLength="197" x="79" y="196.4751">(Encounter status: in-progress)</text><line style="stroke:#111827;stroke-width:2.0;" x1="387.5" x2="377.5" y1="233.3906" y2="229.3906"/><line style="stroke:#111827;stroke-width:2.0;" x1="387.5" x2="377.5" y1="233.3906" y2="237.3906"/><line style="stroke:#111827;stroke-width:2.0;" x1="184" x2="388.5" y1="233.3906" y2="233.3906"/><text fill="#000000" font-family="Arial" font-size="13" font-weight="bold" lengthAdjust="spacing" textLength="7" x="191" y="228.6357">2</text><text fill="#000000" font-family="Arial" font-size="13" lengthAdjust="spacing" textLength="46" x="202" y="228.6357">$update</text><path d="M5,251.3906 L5,283.3906 A5,5 0 0 0 10,288.3906 L355,288.3906 A5,5 0 0 0 360,283.3906 L360,256.3906 L350,246.3906 L10,246.3906 A5,5 0 0 0 5,251.3906 " fill="url(#g1pv9m8r00y8jh0)" filter="url(#f1pv9m8r00y8jh)" style="stroke:#8B95A5;stroke-width:1.0;"/><path d="M350,246.3906 L350,253.8906 A2.5,2.5 0 0 0 352.5,256.3906 L360,256.3906 L350,246.3906 " fill="url(#g1pv9m8r00y8jh0)" style="stroke:#8B95A5;stroke-width:1.0;"/><text fill="#111827" font-family="Arial" font-size="14" lengthAdjust="spacing" textLength="268" x="11" y="264.5225">Encounter-Status auf "discharged" gesetzt</text><text fill="#111827" font-family="Arial" font-size="14" lengthAdjust="spacing" textLength="334" x="11" y="280.6211">(noch ohne Hauptdiagnose aka "Entlassungs-Aviso")</text><line style="stroke:#111827;stroke-width:2.0;" x1="387.5" x2="377.5" y1="317.5366" y2="313.5366"/><line style="stroke:#111827;stroke-width:2.0;" x1="387.5" x2="377.5" y1="317.5366" y2="321.5366"/><line style="stroke:#111827;stroke-width:2.0;" x1="184" x2="388.5" y1="317.5366" y2="317.5366"/><text fill="#000000" font-family="Arial" font-size="13" font-weight="bold" lengthAdjust="spacing" textLength="7" x="191" y="312.7817">3</text><text fill="#000000" font-family="Arial" font-size="13" lengthAdjust="spacing" textLength="46" x="202" y="312.7817">$update</text><path d="M41,335.5366 L41,351.5366 A5,5 0 0 0 46,356.5366 L319,356.5366 A5,5 0 0 0 324,351.5366 L324,340.5366 L314,330.5366 L46,330.5366 A5,5 0 0 0 41,335.5366 " fill="url(#g1pv9m8r00y8jh0)" filter="url(#f1pv9m8r00y8jh)" style="stroke:#8B95A5;stroke-width:1.0;"/><path d="M314,330.5366 L314,338.0366 A2.5,2.5 0 0 0 316.5,340.5366 L324,340.5366 L314,330.5366 " fill="url(#g1pv9m8r00y8jh0)" style="stroke:#8B95A5;stroke-width:1.0;"/><text fill="#111827" font-family="Arial" font-size="14" lengthAdjust="spacing" textLength="262" x="47" y="348.6685">Hauptdiagnose &#8222;Herzinsuffizienz&#8220; erg&#228;nzt</text><line style="stroke:#111827;stroke-width:2.0;" x1="387.5" x2="377.5" y1="385.584" y2="381.584"/><line style="stroke:#111827;stroke-width:2.0;" x1="387.5" x2="377.5" y1="385.584" y2="389.584"/><line style="stroke:#111827;stroke-width:2.0;" x1="184" x2="388.5" y1="385.584" y2="385.584"/><text fill="#000000" font-family="Arial" font-size="13" font-weight="bold" lengthAdjust="spacing" textLength="7" x="191" y="380.8291">4</text><text fill="#000000" font-family="Arial" font-size="13" lengthAdjust="spacing" textLength="63" x="202" y="380.8291">$entlassen</text><path d="M25,403.584 L25,419.584 A5,5 0 0 0 30,424.584 L335,424.584 A5,5 0 0 0 340,419.584 L340,408.584 L330,398.584 L30,398.584 A5,5 0 0 0 25,403.584 " fill="url(#g1pv9m8r00y8jh0)" filter="url(#f1pv9m8r00y8jh)" style="stroke:#8B95A5;stroke-width:1.0;"/><path d="M330,398.584 L330,406.084 A2.5,2.5 0 0 0 332.5,408.584 L340,408.584 L330,398.584 " fill="url(#g1pv9m8r00y8jh0)" style="stroke:#8B95A5;stroke-width:1.0;"/><text fill="#111827" font-family="Arial" font-size="14" lengthAdjust="spacing" textLength="294" x="31" y="416.7158">Encounter-Status final auf "completed" gesetzt</text><!--SRC=[VLJ1Rjf04BtxAqPE3o2L2488WKEaf2919ObGQNlAPV6ExHLcrjrTDobLfNn5JrLF_PFyIRwaQmDc3MwNopBpvisyjxlM2q4fKsm9SwaugdSoaGgEsiNoz2xBWaMaP4PyWmXx-Sz1w9Xn-IWeWf0b6ftCfamHAkYuf1n3bYNcMfAvPqi4_r89blZrY9bO8NHEwvFLiHqCIOFmtGEusXU0RUo5xTOHx_01dkK8ru3p-Q37UcNqOoo21Q7MqB6n3uwWS_j_oZZFXUSipZITJkVyf6zZiz8QepBqVhW3Zh-bg1912qV2Q5G7-4IysE36ODTx_98X1MkbKwQC24JAo5GazOgr1pWurc9LGOS67wItXrD9R6qvoGikbPAF-yOKmPst9zjGNSSoiUxLjQ4REtbQqLWohrC7whhXQNXMhNIFjd8oL_B9KL29r_dgpUKJ-0y4C1b3Oung1UzHPp1HZ1P8CSjq4y3FNmxs1WCx10kChRTefi6VZ7qFYTjd-EHG5UjEfiWtUriVzCB-dDdwT6Srt4qBbW9QJpJx38sNdpUJjyV7nyqDbNtLfs6_7CL2Sf8jibb3T7jp3OrRPg-YZgmwuZ4AeqD9VAkkpzl5T6lA79zp_g_kdyBXoW9XfpmCvjrvj-GkiZbvld58M6OaPSivAi-RZ5iN5tVJ8RnXMKWOBv6y-_oR8BzYxltGNbWZaCnG43mAPGcpC4AIIui4UA36Y09xWun5QyDCfeSWg9Kg6IbxPvfkXopbpE0UVLdUcXNbEJ_uNEWWPYgoXmNM3pGhKpGZ6SGWO_l6nonB3HSi8gaHs8A1FoAJC6tDYtJhyglGqgzf3tlzgpolpx_pcob8Ps4eLbRuwlNv5w2ANlxGohXqkEvsuDU1e50GIzQo0hbC4pIEAkyl]--></g></svg>