<?xml version="1.0" encoding="us-ascii" standalone="no"?><svg xmlns="http://www.w3.org/2000/svg" xmlns:xlink="http://www.w3.org/1999/xlink" contentStyleType="text/css" height="434px" preserveAspectRatio="none" style="width:999px;height:434px;background:#F5F5F5;" version="1.1" viewBox="0 0 999 434" width="999px" zoomAndPan="magnify"><defs><filter height="300%" id="f6hrip7y24ybo" width="300%" x="-1" y="-1"><feGaussianBlur result="blurOut" stdDeviation="2.0"/><feColorMatrix in="blurOut" result="blurOut2" type="matrix" values="0 0 0 0 0 0 0 0 0 0 0 0 0 0 0 0 0 0 .4 0"/><feOffset dx="4.0" dy="4.0" in="blurOut2" result="blurOut3"/><feBlend in="SourceGraphic" in2="blurOut3" mode="normal"/></filter><linearGradient id="g6hrip7y24ybo0" x1="50%" x2="50%" y1="0%" y2="100%"><stop offset="0%" stop-color="#E0E5F0"/><stop offset="100%" stop-color="#D1D9E6"/></linearGradient></defs><g><rect fill="#F5F5F5" height="434" style="stroke:none;stroke-width:1.0;" width="999" x="0" y="0"/><rect fill="#F5E599" height="422.0337" rx="5" ry="5" style="stroke:#181818;stroke-width:0.5;" width="371" x="21" y="6"/><text fill="#000000" font-family="Arial" font-size="14" font-weight="bold" lengthAdjust="spacing" textLength="4" x="24" y="19.1318">&#160;</text><text fill="#000000" font-family="Arial" font-size="14" font-weight="bold" lengthAdjust="spacing" textLength="197" x="108" y="35.2305">KH (Herz-Jesu Krankenhaus)</text><rect fill="#C5F7BA" height="422.0337" rx="5" ry="5" style="stroke:#181818;stroke-width:0.5;" width="333" x="472" y="6"/><text fill="#000000" font-family="Arial" font-size="14" font-weight="bold" lengthAdjust="spacing" textLength="4" x="475" y="19.1318">&#160;</text><text fill="#000000" font-family="Arial" font-size="14" font-weight="bold" lengthAdjust="spacing" textLength="47" x="615" y="35.2305">Moped</text><line style="stroke:#181818;stroke-width:0.5;stroke-dasharray:5.0,5.0;" x1="206.5" x2="206.5" y1="118.2959" y2="348.9351"/><line style="stroke:#181818;stroke-width:0.5;stroke-dasharray:5.0,5.0;" x1="638.5" x2="638.5" y1="118.2959" y2="348.9351"/><text fill="#000000" font-family="Arial" font-size="14" lengthAdjust="spacing" textLength="186" x="110.5" y="115.3291">KH (Herz-Jesu Krankenhaus)</text><ellipse cx="206.5" cy="50.6973" fill="#E2E2F0" rx="8" ry="8" style="stroke:#181818;stroke-width:0.5;"/><path d="M206.5,58.6973 L206.5,85.6973 M193.5,66.6973 L219.5,66.6973 M206.5,85.6973 L193.5,100.6973 M206.5,85.6973 L219.5,100.6973 " fill="none" style="stroke:#181818;stroke-width:0.5;"/><text fill="#000000" font-family="Arial" font-size="14" lengthAdjust="spacing" textLength="186" x="110.5" y="361.0669">KH (Herz-Jesu Krankenhaus)</text><ellipse cx="206.5" cy="372.5337" fill="#E2E2F0" rx="8" ry="8" style="stroke:#181818;stroke-width:0.5;"/><path d="M206.5,380.5337 L206.5,407.5337 M193.5,388.5337 L219.5,388.5337 M206.5,407.5337 L193.5,422.5337 M206.5,407.5337 L219.5,422.5337 " fill="none" style="stroke:#181818;stroke-width:0.5;"/><rect fill="#FFFFFF" height="30.0986" rx="5" ry="5" style="stroke:#555555;stroke-width:0.5;" width="58" x="609.5" y="87.1973"/><text fill="#000000" font-family="Arial" font-size="14" lengthAdjust="spacing" textLength="44" x="616.5" y="107.3291">Moped</text><rect fill="#FFFFFF" height="30.0986" rx="5" ry="5" style="stroke:#555555;stroke-width:0.5;" width="58" x="609.5" y="347.9351"/><text fill="#000000" font-family="Arial" font-size="14" lengthAdjust="spacing" textLength="44" x="616.5" y="368.0669">Moped</text><path d="M643,138.2959 L643,202.2959 A5,5 0 0 0 648,207.2959 L982,207.2959 A5,5 0 0 0 987,202.2959 L987,143.2959 L977,133.2959 L648,133.2959 A5,5 0 0 0 643,138.2959 " fill="#C5F7BA" filter="url(#f6hrip7y24ybo)" style="stroke:#8B95A5;stroke-width:1.0;"/><path d="M977,133.2959 L977,140.7959 A2.5,2.5 0 0 0 979.5,143.2959 L987,143.2959 L977,133.2959 " fill="#C5F7BA" style="stroke:#8B95A5;stroke-width:1.0;"/><text fill="#111827" font-family="Arial" font-size="14" lengthAdjust="spacing" textLength="56" x="649" y="151.4277">Zustand:</text><text fill="#111827" font-family="Arial" font-size="14" lengthAdjust="spacing" textLength="139" x="649" y="167.5264">- Moped Fall angelegt</text><text fill="#111827" font-family="Arial" font-size="14" lengthAdjust="spacing" textLength="323" x="649" y="183.625">- keine vorl&#228;ufige/finale Abrechnung unbeantwortet</text><text fill="#111827" font-family="Arial" font-size="14" lengthAdjust="spacing" textLength="233" x="649" y="199.7236">- keine finale Abrechnung genehmigt</text><line style="stroke:#111827;stroke-width:2.0;" x1="636.5" x2="626.5" y1="236.6392" y2="232.6392"/><line style="stroke:#111827;stroke-width:2.0;" x1="636.5" x2="626.5" y1="236.6392" y2="240.6392"/><line style="stroke:#111827;stroke-width:2.0;" x1="206.5" x2="637.5" y1="236.6392" y2="236.6392"/><text fill="#000000" font-family="Arial" font-size="13" font-weight="bold" lengthAdjust="spacing" textLength="7" x="213.5" y="231.8843">1</text><text fill="#000000" font-family="Arial" font-size="13" lengthAdjust="spacing" textLength="198" x="224.5" y="231.8843">$einmelden (POST Questionnaire)</text><path d="M66,254.6392 L66,270.6392 A5,5 0 0 0 71,275.6392 L338,275.6392 A5,5 0 0 0 343,270.6392 L343,259.6392 L333,249.6392 L71,249.6392 A5,5 0 0 0 66,254.6392 " fill="url(#g6hrip7y24ybo0)" filter="url(#f6hrip7y24ybo)" style="stroke:#8B95A5;stroke-width:1.0;"/><path d="M333,249.6392 L333,257.1392 A2.5,2.5 0 0 0 335.5,259.6392 L343,259.6392 L333,249.6392 " fill="url(#g6hrip7y24ybo0)" style="stroke:#8B95A5;stroke-width:1.0;"/><text fill="#111827" font-family="Arial" font-size="14" lengthAdjust="spacing" textLength="256" x="72" y="267.771">Stroke Unit Questionnaire wird gesendet</text><path d="M643,293.7378 L643,325.7378 A5,5 0 0 0 648,330.7378 L745,330.7378 A5,5 0 0 0 750,325.7378 L750,298.7378 L740,288.7378 L648,288.7378 A5,5 0 0 0 643,293.7378 " fill="#C5F7BA" filter="url(#f6hrip7y24ybo)" style="stroke:#8B95A5;stroke-width:1.0;"/><path d="M740,288.7378 L740,296.2378 A2.5,2.5 0 0 0 742.5,298.7378 L750,298.7378 L740,288.7378 " fill="#C5F7BA" style="stroke:#8B95A5;stroke-width:1.0;"/><text fill="#111827" font-family="Arial" font-size="14" lengthAdjust="spacing" textLength="56" x="649" y="306.8696">Zustand:</text><text fill="#111827" font-family="Arial" font-size="14" lengthAdjust="spacing" textLength="86" x="649" y="322.9683">- unver&#228;ndert</text><!--SRC=[ZLDDJzj04BtxLwnC3t286WSC2GUaK46Z8jgqWKlLozexjbTsPjtz82bL_mt_X3_MNUThdRWLaqioysRclJTPLNAigQHpaWZ9G7uGbP3agDz4e7PLcfQv50RP6f75xkCXL46PM73CIKOh1LvbtIOH98dyeGmoQYfzAr1_fdCWuLXoMeNTY1b_1XATTHVRj3qC2WtaTq38zRu0w4ESzNj7B68ZE7S8tu1XCefflCq-53mj4PGYaSrzymGDxUyfPSm9TrCyDb4K3GSNDZVRMgEbWU2FJt3ogmPPSImz2JStNO17PCqNM1liUmy_3M2wKZgbKlEKrnHrIrBSn1xWuAnDj4671X-KDyTf5JQs35p3M4gns3UcIUwy7MnINHktXTMkKvlwQ9dNBOtRoQlIWRhJx2mxRtVwfsrTvbeiFGMjV9UlGIAM9Fo1f2lk9kHu0lAvzmcK8NUIOWbOKADEEk6XUryGZqQMAasrtM87K4N2Vyy90q1c7_7o_qJQSIzgO6_0MJvfd5qarFAfTmSczzE6LJF68n1GemMQUG8o29eNA7bUQ28orx4PzTqeJP5T1hqrZrjQLOHY3XNascPBS7_s9o6hrnUJyHpUPnnf1MISI4WBDFOo1XEmJ1P2QjZr7E9oG2ZctCvrB1sd8B1czgwkBALByiwspQ5YWEHu-cNsGBuQK9eBHCebdAnLY2TmbmXcMeeIo2DotGQI1PVCxb9s2VYhtkI2GJl_zSKzSw_tBm00]--></g></svg>