<?xml version="1.0" encoding="us-ascii" standalone="no"?><svg xmlns="http://www.w3.org/2000/svg" xmlns:xlink="http://www.w3.org/1999/xlink" contentStyleType="text/css" height="530px" preserveAspectRatio="none" style="width:1076px;height:530px;background:#F5F5F5;" version="1.1" viewBox="0 0 1076 530" width="1076px" zoomAndPan="magnify"><defs><filter height="300%" id="f1eopa6xz63p2s" width="300%" x="-1" y="-1"><feGaussianBlur result="blurOut" stdDeviation="2.0"/><feColorMatrix in="blurOut" result="blurOut2" type="matrix" values="0 0 0 0 0 0 0 0 0 0 0 0 0 0 0 0 0 0 .4 0"/><feOffset dx="4.0" dy="4.0" in="blurOut2" result="blurOut3"/><feBlend in="SourceGraphic" in2="blurOut3" mode="normal"/></filter><linearGradient id="g1eopa6xz63p2s0" x1="50%" x2="50%" y1="0%" y2="100%"><stop offset="0%" stop-color="#E0E5F0"/><stop offset="100%" stop-color="#D1D9E6"/></linearGradient></defs><g><rect fill="#F5F5F5" height="530" style="stroke:none;stroke-width:1.0;" width="1076" x="0" y="0"/><rect fill="#F5E599" height="518.6255" rx="5" ry="5" style="stroke:#181818;stroke-width:0.5;" width="106" x="130" y="6"/><text fill="#000000" font-family="Arial" font-size="14" font-weight="bold" lengthAdjust="spacing" textLength="4" x="133" y="19.1318">&#160;</text><text fill="#000000" font-family="Arial" font-size="14" font-weight="bold" lengthAdjust="spacing" textLength="20" x="169" y="35.2305">KH</text><rect fill="#C5F7BA" height="518.6255" rx="5" ry="5" style="stroke:#181818;stroke-width:0.5;" width="165" x="306.5" y="6"/><text fill="#000000" font-family="Arial" font-size="14" font-weight="bold" lengthAdjust="spacing" textLength="4" x="309.5" y="19.1318">&#160;</text><text fill="#000000" font-family="Arial" font-size="14" font-weight="bold" lengthAdjust="spacing" textLength="47" x="365.5" y="35.2305">Moped</text><rect fill="#C0C0C0" height="518.6255" rx="5" ry="5" style="stroke:#181818;stroke-width:0.5;" width="104" x="513.5" y="6"/><text fill="#000000" font-family="Arial" font-size="14" font-weight="bold" lengthAdjust="spacing" textLength="4" x="516.5" y="19.1318">&#160;</text><text fill="#000000" font-family="Arial" font-size="14" font-weight="bold" lengthAdjust="spacing" textLength="18" x="552.5" y="35.2305">SV</text><rect fill="#C0C0C0" height="518.6255" rx="5" ry="5" style="stroke:#181818;stroke-width:0.5;" width="238" x="659.5" y="6"/><text fill="#000000" font-family="Arial" font-size="14" font-weight="bold" lengthAdjust="spacing" textLength="4" x="662.5" y="19.1318">&#160;</text><text fill="#000000" font-family="Arial" font-size="14" font-weight="bold" lengthAdjust="spacing" textLength="220" x="666.5" y="35.2305">LGF (Landesgesundheitsfonds)</text><rect fill="#C0C0C0" height="518.6255" rx="5" ry="5" style="stroke:#181818;stroke-width:0.5;" width="131" x="939.5" y="6"/><text fill="#000000" font-family="Arial" font-size="14" font-weight="bold" lengthAdjust="spacing" textLength="4" x="942.5" y="19.1318">&#160;</text><text fill="#000000" font-family="Arial" font-size="14" font-weight="bold" lengthAdjust="spacing" textLength="37" x="986.5" y="35.2305">Bund</text><line style="stroke:#181818;stroke-width:0.5;stroke-dasharray:5.0,5.0;" x1="182.5" x2="182.5" y1="118.2959" y2="445.5269"/><line style="stroke:#181818;stroke-width:0.5;stroke-dasharray:5.0,5.0;" x1="389" x2="389" y1="118.2959" y2="445.5269"/><line style="stroke:#181818;stroke-width:0.5;stroke-dasharray:5.0,5.0;" x1="565" x2="565" y1="118.2959" y2="445.5269"/><line style="stroke:#181818;stroke-width:0.5;stroke-dasharray:5.0,5.0;" x1="778" x2="778" y1="118.2959" y2="445.5269"/><line style="stroke:#181818;stroke-width:0.5;stroke-dasharray:5.0,5.0;" x1="1004.5" x2="1004.5" y1="118.2959" y2="445.5269"/><text fill="#000000" font-family="Arial" font-size="14" lengthAdjust="spacing" textLength="19" x="170.5" y="115.3291">KH</text><ellipse cx="183" cy="50.6973" fill="#E2E2F0" rx="8" ry="8" style="stroke:#181818;stroke-width:0.5;"/><path d="M183,58.6973 L183,85.6973 M170,66.6973 L196,66.6973 M183,85.6973 L170,100.6973 M183,85.6973 L196,100.6973 " fill="none" style="stroke:#181818;stroke-width:0.5;"/><text fill="#000000" font-family="Arial" font-size="14" lengthAdjust="spacing" textLength="19" x="170.5" y="457.6587">KH</text><ellipse cx="183" cy="469.1255" fill="#E2E2F0" rx="8" ry="8" style="stroke:#181818;stroke-width:0.5;"/><path d="M183,477.1255 L183,504.1255 M170,485.1255 L196,485.1255 M183,504.1255 L170,519.1255 M183,504.1255 L196,519.1255 " fill="none" style="stroke:#181818;stroke-width:0.5;"/><rect fill="#FFFFFF" height="30.0986" rx="5" ry="5" style="stroke:#555555;stroke-width:0.5;" width="58" x="360" y="87.1973"/><text fill="#000000" font-family="Arial" font-size="14" lengthAdjust="spacing" textLength="44" x="367" y="107.3291">Moped</text><rect fill="#FFFFFF" height="30.0986" rx="5" ry="5" style="stroke:#555555;stroke-width:0.5;" width="58" x="360" y="444.5269"/><text fill="#000000" font-family="Arial" font-size="14" lengthAdjust="spacing" textLength="44" x="367" y="464.6587">Moped</text><text fill="#000000" font-family="Arial" font-size="14" lengthAdjust="spacing" textLength="18" x="553.5" y="115.3291">SV</text><ellipse cx="565.5" cy="50.6973" fill="#E2E2F0" rx="8" ry="8" style="stroke:#181818;stroke-width:0.5;"/><path d="M565.5,58.6973 L565.5,85.6973 M552.5,66.6973 L578.5,66.6973 M565.5,85.6973 L552.5,100.6973 M565.5,85.6973 L578.5,100.6973 " fill="none" style="stroke:#181818;stroke-width:0.5;"/><text fill="#000000" font-family="Arial" font-size="14" lengthAdjust="spacing" textLength="18" x="553.5" y="457.6587">SV</text><ellipse cx="565.5" cy="469.1255" fill="#E2E2F0" rx="8" ry="8" style="stroke:#181818;stroke-width:0.5;"/><path d="M565.5,477.1255 L565.5,504.1255 M552.5,485.1255 L578.5,485.1255 M565.5,504.1255 L552.5,519.1255 M565.5,504.1255 L578.5,519.1255 " fill="none" style="stroke:#181818;stroke-width:0.5;"/><text fill="#000000" font-family="Arial" font-size="14" lengthAdjust="spacing" textLength="201" x="675" y="115.3291">LGF (Landesgesundheitsfonds)</text><ellipse cx="778.5" cy="50.6973" fill="#E2E2F0" rx="8" ry="8" style="stroke:#181818;stroke-width:0.5;"/><path d="M778.5,58.6973 L778.5,85.6973 M765.5,66.6973 L791.5,66.6973 M778.5,85.6973 L765.5,100.6973 M778.5,85.6973 L791.5,100.6973 " fill="none" style="stroke:#181818;stroke-width:0.5;"/><text fill="#000000" font-family="Arial" font-size="14" lengthAdjust="spacing" textLength="201" x="675" y="457.6587">LGF (Landesgesundheitsfonds)</text><ellipse cx="778.5" cy="469.1255" fill="#E2E2F0" rx="8" ry="8" style="stroke:#181818;stroke-width:0.5;"/><path d="M778.5,477.1255 L778.5,504.1255 M765.5,485.1255 L791.5,485.1255 M778.5,504.1255 L765.5,519.1255 M778.5,504.1255 L791.5,519.1255 " fill="none" style="stroke:#181818;stroke-width:0.5;"/><text fill="#000000" font-family="Arial" font-size="14" lengthAdjust="spacing" textLength="33" x="985.5" y="115.3291">Bund</text><ellipse cx="1005" cy="50.6973" fill="#E2E2F0" rx="8" ry="8" style="stroke:#181818;stroke-width:0.5;"/><path d="M1005,58.6973 L1005,85.6973 M992,66.6973 L1018,66.6973 M1005,85.6973 L992,100.6973 M1005,85.6973 L1018,100.6973 " fill="none" style="stroke:#181818;stroke-width:0.5;"/><text fill="#000000" font-family="Arial" font-size="14" lengthAdjust="spacing" textLength="33" x="985.5" y="457.6587">Bund</text><ellipse cx="1005" cy="469.1255" fill="#E2E2F0" rx="8" ry="8" style="stroke:#181818;stroke-width:0.5;"/><path d="M1005,477.1255 L1005,504.1255 M992,485.1255 L1018,485.1255 M1005,504.1255 L992,519.1255 M1005,504.1255 L1018,519.1255 " fill="none" style="stroke:#181818;stroke-width:0.5;"/><path d="M394,138.2959 L394,218.2959 A5,5 0 0 0 399,223.2959 L733,223.2959 A5,5 0 0 0 738,218.2959 L738,143.2959 L728,133.2959 L399,133.2959 A5,5 0 0 0 394,138.2959 " fill="#C5F7BA" filter="url(#f1eopa6xz63p2s)" style="stroke:#8B95A5;stroke-width:1.0;"/><path d="M728,133.2959 L728,140.7959 A2.5,2.5 0 0 0 730.5,143.2959 L738,143.2959 L728,133.2959 " fill="#C5F7BA" style="stroke:#8B95A5;stroke-width:1.0;"/><text fill="#111827" font-family="Arial" font-size="14" lengthAdjust="spacing" textLength="56" x="400" y="151.4277">Zustand:</text><text fill="#111827" font-family="Arial" font-size="14" lengthAdjust="spacing" textLength="154" x="400" y="167.5264">- Moped Fall angelegt &#10003;</text><text fill="#111827" font-family="Arial" font-size="14" lengthAdjust="spacing" textLength="216" x="400" y="183.625">- Aufnahmedaten vollst&#228;ndig &#10003; &#183; x</text><text fill="#111827" font-family="Arial" font-size="14" lengthAdjust="spacing" textLength="323" x="400" y="199.7236">- keine vorl&#228;ufige/finale Abrechnung unbeantwortet</text><text fill="#111827" font-family="Arial" font-size="14" lengthAdjust="spacing" textLength="233" x="400" y="215.8223">- keine finale Abrechnung genehmigt</text><line style="stroke:#111827;stroke-width:2.0;" x1="387" x2="377" y1="252.7378" y2="248.7378"/><line style="stroke:#111827;stroke-width:2.0;" x1="387" x2="377" y1="252.7378" y2="256.7378"/><line style="stroke:#111827;stroke-width:2.0;" x1="183" x2="388" y1="252.7378" y2="252.7378"/><text fill="#000000" font-family="Arial" font-size="13" font-weight="bold" lengthAdjust="spacing" textLength="7" x="190" y="247.9829">1</text><text fill="#000000" font-family="Arial" font-size="13" lengthAdjust="spacing" textLength="106" x="201" y="247.9829">POST $einmelden</text><path d="M5,270.7378 L5,350.7378 A5,5 0 0 0 10,355.7378 L354,355.7378 A5,5 0 0 0 359,350.7378 L359,275.7378 L349,265.7378 L10,265.7378 A5,5 0 0 0 5,270.7378 " fill="url(#g1eopa6xz63p2s0)" filter="url(#f1eopa6xz63p2s)" style="stroke:#8B95A5;stroke-width:1.0;"/><path d="M349,265.7378 L349,273.2378 A2.5,2.5 0 0 0 351.5,275.7378 L359,275.7378 L349,265.7378 " fill="url(#g1eopa6xz63p2s0)" style="stroke:#8B95A5;stroke-width:1.0;"/><text fill="#111827" font-family="Arial" font-size="14" lengthAdjust="spacing" textLength="333" x="11" y="283.8696">Einmelden-Bundle sendet die Intensivdokumentation</text><text fill="#111827" font-family="Arial" font-size="14" lengthAdjust="spacing" textLength="176" x="11" y="299.9683">oder eine Registermeldung:</text><text fill="#111827" font-family="Arial" font-size="14" lengthAdjust="spacing" textLength="54" x="11" y="316.0669">- TISS-A</text><text fill="#111827" font-family="Arial" font-size="14" lengthAdjust="spacing" textLength="53" x="11" y="332.1655">- SAPS3</text><text fill="#111827" font-family="Arial" font-size="14" lengthAdjust="spacing" textLength="192" x="11" y="348.2642">- Stroke-Unit Registermeldung</text><path d="M394,374.231 L394,422.231 A5,5 0 0 0 399,427.231 L626,427.231 A5,5 0 0 0 631,422.231 L631,379.231 L621,369.231 L399,369.231 A5,5 0 0 0 394,374.231 " fill="#C5F7BA" filter="url(#f1eopa6xz63p2s)" style="stroke:#8B95A5;stroke-width:1.0;"/><path d="M621,369.231 L621,376.731 A2.5,2.5 0 0 0 623.5,379.231 L631,379.231 L621,369.231 " fill="#C5F7BA" style="stroke:#8B95A5;stroke-width:1.0;"/><text fill="#111827" font-family="Arial" font-size="14" lengthAdjust="spacing" textLength="56" x="400" y="387.3628">Zustand:</text><text fill="#111827" font-family="Arial" font-size="14" lengthAdjust="spacing" textLength="154" x="400" y="403.4614">- Moped Fall angelegt &#10003;</text><text fill="#111827" font-family="Arial" font-size="14" lengthAdjust="spacing" textLength="216" x="400" y="419.5601">- Aufnahmedaten vollst&#228;ndig &#10003; &#183; x</text><!--SRC=[jLIzRjim4Dxr58JJeHsCMacKn1a2E4N-aAOreYH3qOKoJn8XwUYIbEEsw5DqxPXtwDwyIP-aHyMM9LlmrjDW-UwxZ_Tz96KoYLEkUS4YfGNeTofNckqCgl3CgiedMQ9LYMA1Y0FtD10cvK8zIanOp7C3ZSgYJIDevZT91SIypEsvGlk15y1w8orvtkj6XF8RC7-_kzWUku51PO5zznWxNHS00mZYGNz7-6881mxHDE0e6WOygBDtgPna2COmdtAt3K57z7_CXN327KjZ6j_tZtOFAHVMrbXTWlUZEU3brodeN6BMa71srWMuHr6zmCBWflVmfGISl2WTSstbH4uvsfQae8ermCQsLj46RHgyKLvkJgkmj6NNDOoqLe_hnbJ9bRUxorJNYdNXPQqzIbtGvDEMnfhvfRIXRY_UZm_QdSsjRUtCgPet5BJoNRvwaPgptcTaoxY-PAlekHi3mN18Y_E9fJugSyDwrvSz3r3GzPjlKbHnewOWsYbYcmJnOSI9RReodDsCAywgOmjj-B36DN1FFHcL7Kluq47n_kASlNxFwIYQ10mvcuAq9bOep9ikBeTtPDlwjXfmIjYjqrO0juHxQL3nqYeiYmYqvrLV0IsJr38LEvUMzdqgZQMXZht-mkPpdkUCOm8v99Rz_VMJAgCoHfuM8BW5P3ELvyO-Fw6GYGEmFx_Pd50PkAivKpf_VYfZcS3RM2BFWOqY3PCKIpf79KP0-_Iej0LRzspY4a182vdOIewRtlFelFHFJcZuOpR-6DwnLzHRG2u05_hK3DofyiwM-RvpX8WDaO1bGWAxGf9Wv4oeh2m0BRTIeQVeCBDgb5j8fB6W7G4Dudovkmh3_eXUmj4ut7E_LgiC-lSexJg-CUx_jxnUwny0]--></g></svg>