<?xml version="1.0" encoding="us-ascii" standalone="no"?><svg xmlns="http://www.w3.org/2000/svg" xmlns:xlink="http://www.w3.org/1999/xlink" contentStyleType="text/css" height="503px" preserveAspectRatio="none" style="width:815px;height:503px;background:#F5F5F5;" version="1.1" viewBox="0 0 815 503" width="815px" zoomAndPan="magnify"><defs><filter height="300%" id="f1mbyp6ahe5ymp" width="300%" x="-1" y="-1"><feGaussianBlur result="blurOut" stdDeviation="2.0"/><feColorMatrix in="blurOut" result="blurOut2" type="matrix" values="0 0 0 0 0 0 0 0 0 0 0 0 0 0 0 0 0 0 .4 0"/><feOffset dx="4.0" dy="4.0" in="blurOut2" result="blurOut3"/><feBlend in="SourceGraphic" in2="blurOut3" mode="normal"/></filter><linearGradient id="g1mbyp6ahe5ymp0" x1="50%" x2="50%" y1="0%" y2="100%"><stop offset="0%" stop-color="#E0E5F0"/><stop offset="100%" stop-color="#D1D9E6"/></linearGradient></defs><g><rect fill="#F5F5F5" height="503" style="stroke:none;stroke-width:1.0;" width="815" x="0" y="0"/><rect fill="#F5E599" height="491.0811" rx="5" ry="5" style="stroke:#181818;stroke-width:0.5;" width="371" x="21" y="6"/><text fill="#000000" font-family="Arial" font-size="14" font-weight="bold" lengthAdjust="spacing" textLength="4" x="24" y="19.1318">&#160;</text><text fill="#000000" font-family="Arial" font-size="14" font-weight="bold" lengthAdjust="spacing" textLength="197" x="108" y="35.2305">KH (Herz-Jesu Krankenhaus)</text><rect fill="#C5F7BA" height="491.0811" rx="5" ry="5" style="stroke:#181818;stroke-width:0.5;" width="333" x="472" y="6"/><text fill="#000000" font-family="Arial" font-size="14" font-weight="bold" lengthAdjust="spacing" textLength="4" x="475" y="19.1318">&#160;</text><text fill="#000000" font-family="Arial" font-size="14" font-weight="bold" lengthAdjust="spacing" textLength="47" x="615" y="35.2305">Moped</text><rect fill="none" height="87.2446" rx="5" ry="5" style="stroke:#111827;stroke-width:1.0;" width="628.5" x="69" y="258.5405"/><line style="stroke:#181818;stroke-width:0.5;stroke-dasharray:5.0,5.0;" x1="206.5" x2="206.5" y1="118.2959" y2="417.9824"/><line style="stroke:#181818;stroke-width:0.5;stroke-dasharray:5.0,5.0;" x1="638.5" x2="638.5" y1="118.2959" y2="417.9824"/><text fill="#000000" font-family="Arial" font-size="14" lengthAdjust="spacing" textLength="186" x="110.5" y="115.3291">KH (Herz-Jesu Krankenhaus)</text><ellipse cx="206.5" cy="50.6973" fill="#E2E2F0" rx="8" ry="8" style="stroke:#181818;stroke-width:0.5;"/><path d="M206.5,58.6973 L206.5,85.6973 M193.5,66.6973 L219.5,66.6973 M206.5,85.6973 L193.5,100.6973 M206.5,85.6973 L219.5,100.6973 " fill="none" style="stroke:#181818;stroke-width:0.5;"/><text fill="#000000" font-family="Arial" font-size="14" lengthAdjust="spacing" textLength="186" x="110.5" y="430.1143">KH (Herz-Jesu Krankenhaus)</text><ellipse cx="206.5" cy="441.5811" fill="#E2E2F0" rx="8" ry="8" style="stroke:#181818;stroke-width:0.5;"/><path d="M206.5,449.5811 L206.5,476.5811 M193.5,457.5811 L219.5,457.5811 M206.5,476.5811 L193.5,491.5811 M206.5,476.5811 L219.5,491.5811 " fill="none" style="stroke:#181818;stroke-width:0.5;"/><rect fill="#FFFFFF" height="30.0986" rx="5" ry="5" style="stroke:#555555;stroke-width:0.5;" width="58" x="609.5" y="87.1973"/><text fill="#000000" font-family="Arial" font-size="14" lengthAdjust="spacing" textLength="44" x="616.5" y="107.3291">Moped</text><rect fill="#FFFFFF" height="30.0986" rx="5" ry="5" style="stroke:#555555;stroke-width:0.5;" width="58" x="609.5" y="416.9824"/><text fill="#000000" font-family="Arial" font-size="14" lengthAdjust="spacing" textLength="44" x="616.5" y="437.1143">Moped</text><path d="M643,138.2959 L643,170.2959 A5,5 0 0 0 648,175.2959 L798,175.2959 A5,5 0 0 0 803,170.2959 L803,143.2959 L793,133.2959 L648,133.2959 A5,5 0 0 0 643,138.2959 " fill="#C5F7BA" filter="url(#f1mbyp6ahe5ymp)" style="stroke:#8B95A5;stroke-width:1.0;"/><path d="M793,133.2959 L793,140.7959 A2.5,2.5 0 0 0 795.5,143.2959 L803,143.2959 L793,133.2959 " fill="#C5F7BA" style="stroke:#8B95A5;stroke-width:1.0;"/><text fill="#111827" font-family="Arial" font-size="14" lengthAdjust="spacing" textLength="56" x="649" y="151.4277">Zustand:</text><text fill="#111827" font-family="Arial" font-size="14" lengthAdjust="spacing" textLength="139" x="649" y="167.5264">- Moped Fall angelegt</text><line style="stroke:#111827;stroke-width:2.0;" x1="636.5" x2="626.5" y1="204.4419" y2="200.4419"/><line style="stroke:#111827;stroke-width:2.0;" x1="636.5" x2="626.5" y1="204.4419" y2="208.4419"/><line style="stroke:#111827;stroke-width:2.0;" x1="206.5" x2="637.5" y1="204.4419" y2="204.4419"/><text fill="#000000" font-family="Arial" font-size="13" font-weight="bold" lengthAdjust="spacing" textLength="7" x="213.5" y="199.687">1</text><text fill="#000000" font-family="Arial" font-size="13" lengthAdjust="spacing" textLength="198" x="224.5" y="199.687">$einmelden (POST Questionnaire)</text><path d="M79,222.4419 L79,238.4419 A5,5 0 0 0 84,243.4419 L325,243.4419 A5,5 0 0 0 330,238.4419 L330,227.4419 L320,217.4419 L84,217.4419 A5,5 0 0 0 79,222.4419 " fill="url(#g1mbyp6ahe5ymp0)" filter="url(#f1mbyp6ahe5ymp)" style="stroke:#8B95A5;stroke-width:1.0;"/><path d="M320,217.4419 L320,224.9419 A2.5,2.5 0 0 0 322.5,227.4419 L330,227.4419 L320,217.4419 " fill="url(#g1mbyp6ahe5ymp0)" style="stroke:#8B95A5;stroke-width:1.0;"/><text fill="#111827" font-family="Arial" font-size="14" lengthAdjust="spacing" textLength="230" x="85" y="235.5737">SAPS3 Questionnaire wird gesendet</text><path d="M74,258.5405 L145,258.5405 L145,266.6392 L135,276.6392 L69,276.6392 L69,263.5405 A5,5 0 0 1 74,258.5405 " fill="#F3F4F6" style="stroke:#111827;stroke-width:1.5;"/><rect fill="none" height="87.2446" rx="5" ry="5" style="stroke:#111827;stroke-width:1.0;" width="628.5" x="69" y="258.5405"/><text fill="#000000" font-family="Arial" font-size="14" font-weight="bold" lengthAdjust="spacing" textLength="31" x="84" y="272.6724">loop</text><text fill="#000000" font-family="Arial" font-size="14" font-weight="bold" lengthAdjust="spacing" textLength="57" x="160" y="273.6724">[t&#228;glich]</text><line style="stroke:#111827;stroke-width:2.0;" x1="636.5" x2="626.5" y1="298.6865" y2="294.6865"/><line style="stroke:#111827;stroke-width:2.0;" x1="636.5" x2="626.5" y1="298.6865" y2="302.6865"/><line style="stroke:#111827;stroke-width:2.0;" x1="206.5" x2="637.5" y1="298.6865" y2="298.6865"/><text fill="#000000" font-family="Arial" font-size="13" font-weight="bold" lengthAdjust="spacing" textLength="7" x="213.5" y="293.9316">2</text><text fill="#000000" font-family="Arial" font-size="13" lengthAdjust="spacing" textLength="198" x="224.5" y="293.9316">$einmelden (POST Questionnaire)</text><path d="M79,316.6865 L79,332.6865 A5,5 0 0 0 84,337.6865 L326,337.6865 A5,5 0 0 0 331,332.6865 L331,321.6865 L321,311.6865 L84,311.6865 A5,5 0 0 0 79,316.6865 " fill="url(#g1mbyp6ahe5ymp0)" filter="url(#f1mbyp6ahe5ymp)" style="stroke:#8B95A5;stroke-width:1.0;"/><path d="M321,311.6865 L321,319.1865 A2.5,2.5 0 0 0 323.5,321.6865 L331,321.6865 L321,311.6865 " fill="url(#g1mbyp6ahe5ymp0)" style="stroke:#8B95A5;stroke-width:1.0;"/><text fill="#111827" font-family="Arial" font-size="14" lengthAdjust="spacing" textLength="231" x="85" y="329.8184">TISS-A Questionnaire wird gesendet</text><path d="M643,362.7852 L643,394.7852 A5,5 0 0 0 648,399.7852 L745,399.7852 A5,5 0 0 0 750,394.7852 L750,367.7852 L740,357.7852 L648,357.7852 A5,5 0 0 0 643,362.7852 " fill="#C5F7BA" filter="url(#f1mbyp6ahe5ymp)" style="stroke:#8B95A5;stroke-width:1.0;"/><path d="M740,357.7852 L740,365.2852 A2.5,2.5 0 0 0 742.5,367.7852 L750,367.7852 L740,357.7852 " fill="#C5F7BA" style="stroke:#8B95A5;stroke-width:1.0;"/><text fill="#111827" font-family="Arial" font-size="14" lengthAdjust="spacing" textLength="56" x="649" y="375.917">Zustand:</text><text fill="#111827" font-family="Arial" font-size="14" lengthAdjust="spacing" textLength="86" x="649" y="392.0156">- unver&#228;ndert</text><!--SRC=[ZLJTJjim5BxtKno5NS15fQObq7A1L2PODyHMbkvcseqRdwHMKpkpdRKmxMru4ruCE_rpsWpLkKdEt_TpvEWP5mLLT0uJgHYgZpAN2axQrI5wbwN9B5Eo56nTaKRkyIhqb3Avu2A3bEOQlSowJGbK4Ff36QQqpCsT5EOhdIC40yLf7ZHNnFmP8JnlJjPfUpL26eI_1E1cNm2sCKhRhHCMiZvUk0hVWDwa7z5e6nrFUJ8Jg3M4DlRT4zIptoFAc1FkfdXimZ3iTIvjBDvQOrI9v9zFSFXKeCgvc7aIRc-R2du8LhtWsc3VU_nTeaXMIaTK6PxmWWfJanHLPw_WOAtLgHST6doGtYodbjZOqd4D0wNaOj-OAhZpjhC9DI5k4okihWrziioBciRjv5NgG5qtFKylwft-QckRkP5BJq4jtkGhcSWb1By4D9tx8PmEKJstlg0kuLvHCKCnfQK-QomFtFt2gD-tL6bYB8eTG3K4_vyJ41JCNkBb-qJgvq4Mo8weitoIABsSKCkds2qO7aOLgsgCHu2MHefoFa55I7K15S-c1cJg6ZQJVfRQKC6kI6jDuuxcEL2HOOwPgOQvNaAivjRrjMszWW_8nHnpXW9EHz_YCJoMg0sNGb2ky6oD9l-WCup4Wr7ShPV0WYi66Mex7dsGNCe2pEjBblDaIgg57GqAK8C567-EuzRWNMI0BRPxSV247ETMAIpGwulx6tWAtW00]--></g></svg>