<?xml version="1.0" encoding="us-ascii" standalone="no"?><svg xmlns="http://www.w3.org/2000/svg" xmlns:xlink="http://www.w3.org/1999/xlink" contentStyleType="text/css" height="401px" preserveAspectRatio="none" style="width:815px;height:401px;background:#F5F5F5;" version="1.1" viewBox="0 0 815 401" width="815px" zoomAndPan="magnify"><defs><filter height="300%" id="f1rcw7ogqfe5uk" width="300%" x="-1" y="-1"><feGaussianBlur result="blurOut" stdDeviation="2.0"/><feColorMatrix in="blurOut" result="blurOut2" type="matrix" values="0 0 0 0 0 0 0 0 0 0 0 0 0 0 0 0 0 0 .4 0"/><feOffset dx="4.0" dy="4.0" in="blurOut2" result="blurOut3"/><feBlend in="SourceGraphic" in2="blurOut3" mode="normal"/></filter><linearGradient id="g1rcw7ogqfe5uk0" x1="50%" x2="50%" y1="0%" y2="100%"><stop offset="0%" stop-color="#E0E5F0"/><stop offset="100%" stop-color="#D1D9E6"/></linearGradient></defs><g><rect fill="#F5F5F5" height="401" style="stroke:none;stroke-width:1.0;" width="815" x="0" y="0"/><rect fill="#F5E599" height="389.8364" rx="5" ry="5" style="stroke:#181818;stroke-width:0.5;" width="371" x="21" y="6"/><text fill="#000000" font-family="Arial" font-size="14" font-weight="bold" lengthAdjust="spacing" textLength="4" x="24" y="19.1318">&#160;</text><text fill="#000000" font-family="Arial" font-size="14" font-weight="bold" lengthAdjust="spacing" textLength="197" x="108" y="35.2305">KH (Herz-Jesu Krankenhaus)</text><rect fill="#C5F7BA" height="389.8364" rx="5" ry="5" style="stroke:#181818;stroke-width:0.5;" width="333" x="472" y="6"/><text fill="#000000" font-family="Arial" font-size="14" font-weight="bold" lengthAdjust="spacing" textLength="4" x="475" y="19.1318">&#160;</text><text fill="#000000" font-family="Arial" font-size="14" font-weight="bold" lengthAdjust="spacing" textLength="47" x="615" y="35.2305">Moped</text><line style="stroke:#181818;stroke-width:0.5;stroke-dasharray:5.0,5.0;" x1="206.5" x2="206.5" y1="118.2959" y2="316.7378"/><line style="stroke:#181818;stroke-width:0.5;stroke-dasharray:5.0,5.0;" x1="638.5" x2="638.5" y1="118.2959" y2="316.7378"/><text fill="#000000" font-family="Arial" font-size="14" lengthAdjust="spacing" textLength="186" x="110.5" y="115.3291">KH (Herz-Jesu Krankenhaus)</text><ellipse cx="206.5" cy="50.6973" fill="#E2E2F0" rx="8" ry="8" style="stroke:#181818;stroke-width:0.5;"/><path d="M206.5,58.6973 L206.5,85.6973 M193.5,66.6973 L219.5,66.6973 M206.5,85.6973 L193.5,100.6973 M206.5,85.6973 L219.5,100.6973 " fill="none" style="stroke:#181818;stroke-width:0.5;"/><text fill="#000000" font-family="Arial" font-size="14" lengthAdjust="spacing" textLength="186" x="110.5" y="328.8696">KH (Herz-Jesu Krankenhaus)</text><ellipse cx="206.5" cy="340.3364" fill="#E2E2F0" rx="8" ry="8" style="stroke:#181818;stroke-width:0.5;"/><path d="M206.5,348.3364 L206.5,375.3364 M193.5,356.3364 L219.5,356.3364 M206.5,375.3364 L193.5,390.3364 M206.5,375.3364 L219.5,390.3364 " fill="none" style="stroke:#181818;stroke-width:0.5;"/><rect fill="#FFFFFF" height="30.0986" rx="5" ry="5" style="stroke:#555555;stroke-width:0.5;" width="58" x="609.5" y="87.1973"/><text fill="#000000" font-family="Arial" font-size="14" lengthAdjust="spacing" textLength="44" x="616.5" y="107.3291">Moped</text><rect fill="#FFFFFF" height="30.0986" rx="5" ry="5" style="stroke:#555555;stroke-width:0.5;" width="58" x="609.5" y="315.7378"/><text fill="#000000" font-family="Arial" font-size="14" lengthAdjust="spacing" textLength="44" x="616.5" y="335.8696">Moped</text><path d="M643,138.2959 L643,170.2959 A5,5 0 0 0 648,175.2959 L798,175.2959 A5,5 0 0 0 803,170.2959 L803,143.2959 L793,133.2959 L648,133.2959 A5,5 0 0 0 643,138.2959 " fill="#C5F7BA" filter="url(#f1rcw7ogqfe5uk)" style="stroke:#8B95A5;stroke-width:1.0;"/><path d="M793,133.2959 L793,140.7959 A2.5,2.5 0 0 0 795.5,143.2959 L803,143.2959 L793,133.2959 " fill="#C5F7BA" style="stroke:#8B95A5;stroke-width:1.0;"/><text fill="#111827" font-family="Arial" font-size="14" lengthAdjust="spacing" textLength="56" x="649" y="151.4277">Zustand:</text><text fill="#111827" font-family="Arial" font-size="14" lengthAdjust="spacing" textLength="139" x="649" y="167.5264">- Moped Fall angelegt</text><line style="stroke:#111827;stroke-width:2.0;" x1="636.5" x2="626.5" y1="204.4419" y2="200.4419"/><line style="stroke:#111827;stroke-width:2.0;" x1="636.5" x2="626.5" y1="204.4419" y2="208.4419"/><line style="stroke:#111827;stroke-width:2.0;" x1="206.5" x2="637.5" y1="204.4419" y2="204.4419"/><text fill="#000000" font-family="Arial" font-size="13" font-weight="bold" lengthAdjust="spacing" textLength="7" x="213.5" y="199.687">1</text><text fill="#000000" font-family="Arial" font-size="13" lengthAdjust="spacing" textLength="198" x="224.5" y="199.687">$einmelden (POST Questionnaire)</text><path d="M66,222.4419 L66,238.4419 A5,5 0 0 0 71,243.4419 L338,243.4419 A5,5 0 0 0 343,238.4419 L343,227.4419 L333,217.4419 L71,217.4419 A5,5 0 0 0 66,222.4419 " fill="url(#g1rcw7ogqfe5uk0)" filter="url(#f1rcw7ogqfe5uk)" style="stroke:#8B95A5;stroke-width:1.0;"/><path d="M333,217.4419 L333,224.9419 A2.5,2.5 0 0 0 335.5,227.4419 L343,227.4419 L333,217.4419 " fill="url(#g1rcw7ogqfe5uk0)" style="stroke:#8B95A5;stroke-width:1.0;"/><text fill="#111827" font-family="Arial" font-size="14" lengthAdjust="spacing" textLength="256" x="72" y="235.5737">Stroke Unit Questionnaire wird gesendet</text><path d="M643,261.5405 L643,293.5405 A5,5 0 0 0 648,298.5405 L745,298.5405 A5,5 0 0 0 750,293.5405 L750,266.5405 L740,256.5405 L648,256.5405 A5,5 0 0 0 643,261.5405 " fill="#C5F7BA" filter="url(#f1rcw7ogqfe5uk)" style="stroke:#8B95A5;stroke-width:1.0;"/><path d="M740,256.5405 L740,264.0405 A2.5,2.5 0 0 0 742.5,266.5405 L750,266.5405 L740,256.5405 " fill="#C5F7BA" style="stroke:#8B95A5;stroke-width:1.0;"/><text fill="#111827" font-family="Arial" font-size="14" lengthAdjust="spacing" textLength="56" x="649" y="274.6724">Zustand:</text><text fill="#111827" font-family="Arial" font-size="14" lengthAdjust="spacing" textLength="86" x="649" y="290.771">- unver&#228;ndert</text><!--SRC=[ZLFBRjj03BplLn1A3yd1WEL4YPr3WAH8QZH8wzR9fUXbhQNaXMIkkeywJT6_wP_qnxgINojRBK9VB798pWonff1KSSqNC5DQe7whIgNXgDy4CxigJujSAqTYZSYI-XSWp9mBjPIKGyPBWq5btQO9DSJXK84PTwMzKsG_y0L2TAqbBwDkn5I-8CHdtSKsxG13oYByP00t-mAmZqdMxns9M8pml4Q41WndeuGds-pZNAO5eJ4G-zpdGD3GVq-u4BNmUah09exZuU32vwPRQwnso7w51CS_AjIbf2AGS7lR1NWYqVp1jS6Xz_ZD8QKhfHEkhKnbnScs92LDx04Epjf46tHey45vSvnMOMFBe6wurbejzurfaZjl1vjKryPjORNhrAVUUUPLI-DsygfqeEuqEylEsvtXQLkNkL7FWO9MlijNDbFF47qbw8hxCHoFKR_qtgDnSAyv5KXpxin99pogtnScev6dobFhj_W1t43qxpaHGnB-4J__dqWx7bI5uXKupoTDieiPztogtO7XOTAmQiO411XtLf5Rp50prhn0BVEv1PNL7PjHNvondCGbwwrvtF6o14uvbfZRPbhTovWNtRkwygsNy0ObBR0KI70y-JXzX4yEZPMAY4kD9-jjwZlMZh6frQf0U29fsq1OIYqWH-ENOBZgLMmT-Vb_VjVFCUZz2m00]--></g></svg>