<?xml version="1.0" encoding="us-ascii" standalone="no"?><svg xmlns="http://www.w3.org/2000/svg" xmlns:xlink="http://www.w3.org/1999/xlink" contentStyleType="text/css" height="535px" preserveAspectRatio="none" style="width:999px;height:535px;background:#F5F5F5;" version="1.1" viewBox="0 0 999 535" width="999px" zoomAndPan="magnify"><defs><filter height="300%" id="f18ajsyf78y49l" width="300%" x="-1" y="-1"><feGaussianBlur result="blurOut" stdDeviation="2.0"/><feColorMatrix in="blurOut" result="blurOut2" type="matrix" values="0 0 0 0 0 0 0 0 0 0 0 0 0 0 0 0 0 0 .4 0"/><feOffset dx="4.0" dy="4.0" in="blurOut2" result="blurOut3"/><feBlend in="SourceGraphic" in2="blurOut3" mode="normal"/></filter><linearGradient id="g18ajsyf78y49l0" x1="50%" x2="50%" y1="0%" y2="100%"><stop offset="0%" stop-color="#E0E5F0"/><stop offset="100%" stop-color="#D1D9E6"/></linearGradient></defs><g><rect fill="#F5F5F5" height="535" style="stroke:none;stroke-width:1.0;" width="999" x="0" y="0"/><rect fill="#F5E599" height="523.2783" rx="5" ry="5" style="stroke:#181818;stroke-width:0.5;" width="371" x="21" y="6"/><text fill="#000000" font-family="Arial" font-size="14" font-weight="bold" lengthAdjust="spacing" textLength="4" x="24" y="19.1318">&#160;</text><text fill="#000000" font-family="Arial" font-size="14" font-weight="bold" lengthAdjust="spacing" textLength="197" x="108" y="35.2305">KH (Herz-Jesu Krankenhaus)</text><rect fill="#C5F7BA" height="523.2783" rx="5" ry="5" style="stroke:#181818;stroke-width:0.5;" width="333" x="472" y="6"/><text fill="#000000" font-family="Arial" font-size="14" font-weight="bold" lengthAdjust="spacing" textLength="4" x="475" y="19.1318">&#160;</text><text fill="#000000" font-family="Arial" font-size="14" font-weight="bold" lengthAdjust="spacing" textLength="47" x="615" y="35.2305">Moped</text><rect fill="none" height="87.2446" rx="5" ry="5" style="stroke:#111827;stroke-width:1.0;" width="628.5" x="69" y="290.7378"/><line style="stroke:#181818;stroke-width:0.5;stroke-dasharray:5.0,5.0;" x1="206.5" x2="206.5" y1="118.2959" y2="450.1797"/><line style="stroke:#181818;stroke-width:0.5;stroke-dasharray:5.0,5.0;" x1="638.5" x2="638.5" y1="118.2959" y2="450.1797"/><text fill="#000000" font-family="Arial" font-size="14" lengthAdjust="spacing" textLength="186" x="110.5" y="115.3291">KH (Herz-Jesu Krankenhaus)</text><ellipse cx="206.5" cy="50.6973" fill="#E2E2F0" rx="8" ry="8" style="stroke:#181818;stroke-width:0.5;"/><path d="M206.5,58.6973 L206.5,85.6973 M193.5,66.6973 L219.5,66.6973 M206.5,85.6973 L193.5,100.6973 M206.5,85.6973 L219.5,100.6973 " fill="none" style="stroke:#181818;stroke-width:0.5;"/><text fill="#000000" font-family="Arial" font-size="14" lengthAdjust="spacing" textLength="186" x="110.5" y="462.3115">KH (Herz-Jesu Krankenhaus)</text><ellipse cx="206.5" cy="473.7783" fill="#E2E2F0" rx="8" ry="8" style="stroke:#181818;stroke-width:0.5;"/><path d="M206.5,481.7783 L206.5,508.7783 M193.5,489.7783 L219.5,489.7783 M206.5,508.7783 L193.5,523.7783 M206.5,508.7783 L219.5,523.7783 " fill="none" style="stroke:#181818;stroke-width:0.5;"/><rect fill="#FFFFFF" height="30.0986" rx="5" ry="5" style="stroke:#555555;stroke-width:0.5;" width="58" x="609.5" y="87.1973"/><text fill="#000000" font-family="Arial" font-size="14" lengthAdjust="spacing" textLength="44" x="616.5" y="107.3291">Moped</text><rect fill="#FFFFFF" height="30.0986" rx="5" ry="5" style="stroke:#555555;stroke-width:0.5;" width="58" x="609.5" y="449.1797"/><text fill="#000000" font-family="Arial" font-size="14" lengthAdjust="spacing" textLength="44" x="616.5" y="469.3115">Moped</text><path d="M643,138.2959 L643,202.2959 A5,5 0 0 0 648,207.2959 L982,207.2959 A5,5 0 0 0 987,202.2959 L987,143.2959 L977,133.2959 L648,133.2959 A5,5 0 0 0 643,138.2959 " fill="#C5F7BA" filter="url(#f18ajsyf78y49l)" style="stroke:#8B95A5;stroke-width:1.0;"/><path d="M977,133.2959 L977,140.7959 A2.5,2.5 0 0 0 979.5,143.2959 L987,143.2959 L977,133.2959 " fill="#C5F7BA" style="stroke:#8B95A5;stroke-width:1.0;"/><text fill="#111827" font-family="Arial" font-size="14" lengthAdjust="spacing" textLength="56" x="649" y="151.4277">Zustand:</text><text fill="#111827" font-family="Arial" font-size="14" lengthAdjust="spacing" textLength="139" x="649" y="167.5264">- Moped Fall angelegt</text><text fill="#111827" font-family="Arial" font-size="14" lengthAdjust="spacing" textLength="323" x="649" y="183.625">- keine vorl&#228;ufige/finale Abrechnung unbeantwortet</text><text fill="#111827" font-family="Arial" font-size="14" lengthAdjust="spacing" textLength="233" x="649" y="199.7236">- keine finale Abrechnung genehmigt</text><line style="stroke:#111827;stroke-width:2.0;" x1="636.5" x2="626.5" y1="236.6392" y2="232.6392"/><line style="stroke:#111827;stroke-width:2.0;" x1="636.5" x2="626.5" y1="236.6392" y2="240.6392"/><line style="stroke:#111827;stroke-width:2.0;" x1="206.5" x2="637.5" y1="236.6392" y2="236.6392"/><text fill="#000000" font-family="Arial" font-size="13" font-weight="bold" lengthAdjust="spacing" textLength="7" x="213.5" y="231.8843">1</text><text fill="#000000" font-family="Arial" font-size="13" lengthAdjust="spacing" textLength="198" x="224.5" y="231.8843">$einmelden (POST Questionnaire)</text><path d="M79,254.6392 L79,270.6392 A5,5 0 0 0 84,275.6392 L325,275.6392 A5,5 0 0 0 330,270.6392 L330,259.6392 L320,249.6392 L84,249.6392 A5,5 0 0 0 79,254.6392 " fill="url(#g18ajsyf78y49l0)" filter="url(#f18ajsyf78y49l)" style="stroke:#8B95A5;stroke-width:1.0;"/><path d="M320,249.6392 L320,257.1392 A2.5,2.5 0 0 0 322.5,259.6392 L330,259.6392 L320,249.6392 " fill="url(#g18ajsyf78y49l0)" style="stroke:#8B95A5;stroke-width:1.0;"/><text fill="#111827" font-family="Arial" font-size="14" lengthAdjust="spacing" textLength="230" x="85" y="267.771">SAPS3 Questionnaire wird gesendet</text><path d="M74,290.7378 L145,290.7378 L145,298.8364 L135,308.8364 L69,308.8364 L69,295.7378 A5,5 0 0 1 74,290.7378 " fill="#F3F4F6" style="stroke:#111827;stroke-width:1.5;"/><rect fill="none" height="87.2446" rx="5" ry="5" style="stroke:#111827;stroke-width:1.0;" width="628.5" x="69" y="290.7378"/><text fill="#000000" font-family="Arial" font-size="14" font-weight="bold" lengthAdjust="spacing" textLength="31" x="84" y="304.8696">loop</text><text fill="#000000" font-family="Arial" font-size="14" font-weight="bold" lengthAdjust="spacing" textLength="57" x="160" y="305.8696">[t&#228;glich]</text><line style="stroke:#111827;stroke-width:2.0;" x1="636.5" x2="626.5" y1="330.8838" y2="326.8838"/><line style="stroke:#111827;stroke-width:2.0;" x1="636.5" x2="626.5" y1="330.8838" y2="334.8838"/><line style="stroke:#111827;stroke-width:2.0;" x1="206.5" x2="637.5" y1="330.8838" y2="330.8838"/><text fill="#000000" font-family="Arial" font-size="13" font-weight="bold" lengthAdjust="spacing" textLength="7" x="213.5" y="326.1289">2</text><text fill="#000000" font-family="Arial" font-size="13" lengthAdjust="spacing" textLength="198" x="224.5" y="326.1289">$einmelden (POST Questionnaire)</text><path d="M79,348.8838 L79,364.8838 A5,5 0 0 0 84,369.8838 L326,369.8838 A5,5 0 0 0 331,364.8838 L331,353.8838 L321,343.8838 L84,343.8838 A5,5 0 0 0 79,348.8838 " fill="url(#g18ajsyf78y49l0)" filter="url(#f18ajsyf78y49l)" style="stroke:#8B95A5;stroke-width:1.0;"/><path d="M321,343.8838 L321,351.3838 A2.5,2.5 0 0 0 323.5,353.8838 L331,353.8838 L321,343.8838 " fill="url(#g18ajsyf78y49l0)" style="stroke:#8B95A5;stroke-width:1.0;"/><text fill="#111827" font-family="Arial" font-size="14" lengthAdjust="spacing" textLength="231" x="85" y="362.0156">TISS-A Questionnaire wird gesendet</text><path d="M643,394.9824 L643,426.9824 A5,5 0 0 0 648,431.9824 L745,431.9824 A5,5 0 0 0 750,426.9824 L750,399.9824 L740,389.9824 L648,389.9824 A5,5 0 0 0 643,394.9824 " fill="#C5F7BA" filter="url(#f18ajsyf78y49l)" style="stroke:#8B95A5;stroke-width:1.0;"/><path d="M740,389.9824 L740,397.4824 A2.5,2.5 0 0 0 742.5,399.9824 L750,399.9824 L740,389.9824 " fill="#C5F7BA" style="stroke:#8B95A5;stroke-width:1.0;"/><text fill="#111827" font-family="Arial" font-size="14" lengthAdjust="spacing" textLength="56" x="649" y="408.1143">Zustand:</text><text fill="#111827" font-family="Arial" font-size="14" lengthAdjust="spacing" textLength="86" x="649" y="424.2129">- unver&#228;ndert</text><!--SRC=[ZLHDKzim4BthL-o47k2GAGOCX0CpeGEbPMZJcbuwlSZMsjR4MRcoH81E_mt_X3zMoUH39Yw3Sd5st-vxRzToCvLKSyrda2ejK7zGbTAmjTiUrgopF9iMMbaI2qGU-r-0Q4ekr5nI0Jcl6WmoYp9Dg24AcmhCkQtCXIBpXSyG1cCjUJNeHoJo0I4ww4zsPGSOKWRX3mCuUsa0Tp7ETuTR8X8ZFFI8S037wIZcyIfwKyfiIjWq4BdOzy3GiVi_uK9uuxvBe2QAekEz8nTBLgCnsYBx6mgylAzHLvAcWONpypx03nBj0ou67CuUVrkaxDdfX6iZCrbpCXrBSNjU03RMsfukQ7F06-dbSZg9vLZsVC5OQpL_EPWsk9xjtZBKnxXAF7Fjkz17fxpkU5nrVavjkDlF3_B3RcMusivcpjHTuA0JxvihIzKT37uHz9shIzY-HFqm_8oDXIlDQOfKSjlizC87_dvXF1evgJmpZiKru0qC_jzdm924kyHthmlfdcjLetW3pkd9ulmevKvFlLumN4zQLMsRG02tHf6TfQWPQo-WbaLfGEM-ODdffsqC9t72XWiP5xogW5E15HR6HQVet_LRfQkdHvlB0j_dadY5C4urPYLPjnXBAJeXSwKDhcisSGKIbZFf-dgHNXDZRfR3qrCdwGJUkR8PLW89jYTVanluPh4nKX5ngN5duKBTeby4IyQJPByBWRdKmh4qhZs699LIDPYdnwAIMSdQ5-7Df00TMe2RJqao7B_A3B3YzW-Udh6tRS6I8tfwz5-PmC4_]--></g></svg>