<?xml version="1.0" encoding="us-ascii" standalone="no"?><svg xmlns="http://www.w3.org/2000/svg" xmlns:xlink="http://www.w3.org/1999/xlink" contentStyleType="text/css" height="498px" preserveAspectRatio="none" style="width:1076px;height:498px;background:#F5F5F5;" version="1.1" viewBox="0 0 1076 498" width="1076px" zoomAndPan="magnify"><defs><filter height="300%" id="f2uzau5vzl0jg" width="300%" x="-1" y="-1"><feGaussianBlur result="blurOut" stdDeviation="2.0"/><feColorMatrix in="blurOut" result="blurOut2" type="matrix" values="0 0 0 0 0 0 0 0 0 0 0 0 0 0 0 0 0 0 .4 0"/><feOffset dx="4.0" dy="4.0" in="blurOut2" result="blurOut3"/><feBlend in="SourceGraphic" in2="blurOut3" mode="normal"/></filter><linearGradient id="g2uzau5vzl0jg0" x1="50%" x2="50%" y1="0%" y2="100%"><stop offset="0%" stop-color="#E0E5F0"/><stop offset="100%" stop-color="#D1D9E6"/></linearGradient></defs><g><rect fill="#F5F5F5" height="498" style="stroke:none;stroke-width:1.0;" width="1076" x="0" y="0"/><rect fill="#F5E599" height="486.4282" rx="5" ry="5" style="stroke:#181818;stroke-width:0.5;" width="106" x="130" y="6"/><text fill="#000000" font-family="Arial" font-size="14" font-weight="bold" lengthAdjust="spacing" textLength="4" x="133" y="19.1318">&#160;</text><text fill="#000000" font-family="Arial" font-size="14" font-weight="bold" lengthAdjust="spacing" textLength="20" x="169" y="35.2305">KH</text><rect fill="#C5F7BA" height="486.4282" rx="5" ry="5" style="stroke:#181818;stroke-width:0.5;" width="165" x="306.5" y="6"/><text fill="#000000" font-family="Arial" font-size="14" font-weight="bold" lengthAdjust="spacing" textLength="4" x="309.5" y="19.1318">&#160;</text><text fill="#000000" font-family="Arial" font-size="14" font-weight="bold" lengthAdjust="spacing" textLength="47" x="365.5" y="35.2305">Moped</text><rect fill="#C0C0C0" height="486.4282" rx="5" ry="5" style="stroke:#181818;stroke-width:0.5;" width="104" x="513.5" y="6"/><text fill="#000000" font-family="Arial" font-size="14" font-weight="bold" lengthAdjust="spacing" textLength="4" x="516.5" y="19.1318">&#160;</text><text fill="#000000" font-family="Arial" font-size="14" font-weight="bold" lengthAdjust="spacing" textLength="18" x="552.5" y="35.2305">SV</text><rect fill="#C0C0C0" height="486.4282" rx="5" ry="5" style="stroke:#181818;stroke-width:0.5;" width="238" x="659.5" y="6"/><text fill="#000000" font-family="Arial" font-size="14" font-weight="bold" lengthAdjust="spacing" textLength="4" x="662.5" y="19.1318">&#160;</text><text fill="#000000" font-family="Arial" font-size="14" font-weight="bold" lengthAdjust="spacing" textLength="220" x="666.5" y="35.2305">LGF (Landesgesundheitsfonds)</text><rect fill="#C0C0C0" height="486.4282" rx="5" ry="5" style="stroke:#181818;stroke-width:0.5;" width="131" x="939.5" y="6"/><text fill="#000000" font-family="Arial" font-size="14" font-weight="bold" lengthAdjust="spacing" textLength="4" x="942.5" y="19.1318">&#160;</text><text fill="#000000" font-family="Arial" font-size="14" font-weight="bold" lengthAdjust="spacing" textLength="37" x="986.5" y="35.2305">Bund</text><line style="stroke:#181818;stroke-width:0.5;stroke-dasharray:5.0,5.0;" x1="182.5" x2="182.5" y1="118.2959" y2="413.3296"/><line style="stroke:#181818;stroke-width:0.5;stroke-dasharray:5.0,5.0;" x1="389" x2="389" y1="118.2959" y2="413.3296"/><line style="stroke:#181818;stroke-width:0.5;stroke-dasharray:5.0,5.0;" x1="565" x2="565" y1="118.2959" y2="413.3296"/><line style="stroke:#181818;stroke-width:0.5;stroke-dasharray:5.0,5.0;" x1="778" x2="778" y1="118.2959" y2="413.3296"/><line style="stroke:#181818;stroke-width:0.5;stroke-dasharray:5.0,5.0;" x1="1004.5" x2="1004.5" y1="118.2959" y2="413.3296"/><text fill="#000000" font-family="Arial" font-size="14" lengthAdjust="spacing" textLength="19" x="170.5" y="115.3291">KH</text><ellipse cx="183" cy="50.6973" fill="#E2E2F0" rx="8" ry="8" style="stroke:#181818;stroke-width:0.5;"/><path d="M183,58.6973 L183,85.6973 M170,66.6973 L196,66.6973 M183,85.6973 L170,100.6973 M183,85.6973 L196,100.6973 " fill="none" style="stroke:#181818;stroke-width:0.5;"/><text fill="#000000" font-family="Arial" font-size="14" lengthAdjust="spacing" textLength="19" x="170.5" y="425.4614">KH</text><ellipse cx="183" cy="436.9282" fill="#E2E2F0" rx="8" ry="8" style="stroke:#181818;stroke-width:0.5;"/><path d="M183,444.9282 L183,471.9282 M170,452.9282 L196,452.9282 M183,471.9282 L170,486.9282 M183,471.9282 L196,486.9282 " fill="none" style="stroke:#181818;stroke-width:0.5;"/><rect fill="#FFFFFF" height="30.0986" rx="5" ry="5" style="stroke:#555555;stroke-width:0.5;" width="58" x="360" y="87.1973"/><text fill="#000000" font-family="Arial" font-size="14" lengthAdjust="spacing" textLength="44" x="367" y="107.3291">Moped</text><rect fill="#FFFFFF" height="30.0986" rx="5" ry="5" style="stroke:#555555;stroke-width:0.5;" width="58" x="360" y="412.3296"/><text fill="#000000" font-family="Arial" font-size="14" lengthAdjust="spacing" textLength="44" x="367" y="432.4614">Moped</text><text fill="#000000" font-family="Arial" font-size="14" lengthAdjust="spacing" textLength="18" x="553.5" y="115.3291">SV</text><ellipse cx="565.5" cy="50.6973" fill="#E2E2F0" rx="8" ry="8" style="stroke:#181818;stroke-width:0.5;"/><path d="M565.5,58.6973 L565.5,85.6973 M552.5,66.6973 L578.5,66.6973 M565.5,85.6973 L552.5,100.6973 M565.5,85.6973 L578.5,100.6973 " fill="none" style="stroke:#181818;stroke-width:0.5;"/><text fill="#000000" font-family="Arial" font-size="14" lengthAdjust="spacing" textLength="18" x="553.5" y="425.4614">SV</text><ellipse cx="565.5" cy="436.9282" fill="#E2E2F0" rx="8" ry="8" style="stroke:#181818;stroke-width:0.5;"/><path d="M565.5,444.9282 L565.5,471.9282 M552.5,452.9282 L578.5,452.9282 M565.5,471.9282 L552.5,486.9282 M565.5,471.9282 L578.5,486.9282 " fill="none" style="stroke:#181818;stroke-width:0.5;"/><text fill="#000000" font-family="Arial" font-size="14" lengthAdjust="spacing" textLength="201" x="675" y="115.3291">LGF (Landesgesundheitsfonds)</text><ellipse cx="778.5" cy="50.6973" fill="#E2E2F0" rx="8" ry="8" style="stroke:#181818;stroke-width:0.5;"/><path d="M778.5,58.6973 L778.5,85.6973 M765.5,66.6973 L791.5,66.6973 M778.5,85.6973 L765.5,100.6973 M778.5,85.6973 L791.5,100.6973 " fill="none" style="stroke:#181818;stroke-width:0.5;"/><text fill="#000000" font-family="Arial" font-size="14" lengthAdjust="spacing" textLength="201" x="675" y="425.4614">LGF (Landesgesundheitsfonds)</text><ellipse cx="778.5" cy="436.9282" fill="#E2E2F0" rx="8" ry="8" style="stroke:#181818;stroke-width:0.5;"/><path d="M778.5,444.9282 L778.5,471.9282 M765.5,452.9282 L791.5,452.9282 M778.5,471.9282 L765.5,486.9282 M778.5,471.9282 L791.5,486.9282 " fill="none" style="stroke:#181818;stroke-width:0.5;"/><text fill="#000000" font-family="Arial" font-size="14" lengthAdjust="spacing" textLength="33" x="985.5" y="115.3291">Bund</text><ellipse cx="1005" cy="50.6973" fill="#E2E2F0" rx="8" ry="8" style="stroke:#181818;stroke-width:0.5;"/><path d="M1005,58.6973 L1005,85.6973 M992,66.6973 L1018,66.6973 M1005,85.6973 L992,100.6973 M1005,85.6973 L1018,100.6973 " fill="none" style="stroke:#181818;stroke-width:0.5;"/><text fill="#000000" font-family="Arial" font-size="14" lengthAdjust="spacing" textLength="33" x="985.5" y="425.4614">Bund</text><ellipse cx="1005" cy="436.9282" fill="#E2E2F0" rx="8" ry="8" style="stroke:#181818;stroke-width:0.5;"/><path d="M1005,444.9282 L1005,471.9282 M992,452.9282 L1018,452.9282 M1005,471.9282 L992,486.9282 M1005,471.9282 L1018,486.9282 " fill="none" style="stroke:#181818;stroke-width:0.5;"/><path d="M394,138.2959 L394,186.2959 A5,5 0 0 0 399,191.2959 L626,191.2959 A5,5 0 0 0 631,186.2959 L631,143.2959 L621,133.2959 L399,133.2959 A5,5 0 0 0 394,138.2959 " fill="#C5F7BA" filter="url(#f2uzau5vzl0jg)" style="stroke:#8B95A5;stroke-width:1.0;"/><path d="M621,133.2959 L621,140.7959 A2.5,2.5 0 0 0 623.5,143.2959 L631,143.2959 L621,133.2959 " fill="#C5F7BA" style="stroke:#8B95A5;stroke-width:1.0;"/><text fill="#111827" font-family="Arial" font-size="14" lengthAdjust="spacing" textLength="56" x="400" y="151.4277">Zustand:</text><text fill="#111827" font-family="Arial" font-size="14" lengthAdjust="spacing" textLength="154" x="400" y="167.5264">- Moped Fall angelegt &#10003;</text><text fill="#111827" font-family="Arial" font-size="14" lengthAdjust="spacing" textLength="216" x="400" y="183.625">- Aufnahmedaten vollst&#228;ndig &#10003; &#183; x</text><line style="stroke:#111827;stroke-width:2.0;" x1="387" x2="377" y1="220.5405" y2="216.5405"/><line style="stroke:#111827;stroke-width:2.0;" x1="387" x2="377" y1="220.5405" y2="224.5405"/><line style="stroke:#111827;stroke-width:2.0;" x1="183" x2="388" y1="220.5405" y2="220.5405"/><text fill="#000000" font-family="Arial" font-size="13" font-weight="bold" lengthAdjust="spacing" textLength="7" x="190" y="215.7856">1</text><text fill="#000000" font-family="Arial" font-size="13" lengthAdjust="spacing" textLength="106" x="201" y="215.7856">POST $einmelden</text><path d="M5,238.5405 L5,318.5405 A5,5 0 0 0 10,323.5405 L354,323.5405 A5,5 0 0 0 359,318.5405 L359,243.5405 L349,233.5405 L10,233.5405 A5,5 0 0 0 5,238.5405 " fill="url(#g2uzau5vzl0jg0)" filter="url(#f2uzau5vzl0jg)" style="stroke:#8B95A5;stroke-width:1.0;"/><path d="M349,233.5405 L349,241.0405 A2.5,2.5 0 0 0 351.5,243.5405 L359,243.5405 L349,233.5405 " fill="url(#g2uzau5vzl0jg0)" style="stroke:#8B95A5;stroke-width:1.0;"/><text fill="#111827" font-family="Arial" font-size="14" lengthAdjust="spacing" textLength="333" x="11" y="251.6724">Einmelden-Bundle sendet die Intensivdokumentation</text><text fill="#111827" font-family="Arial" font-size="14" lengthAdjust="spacing" textLength="176" x="11" y="267.771">oder eine Registermeldung:</text><text fill="#111827" font-family="Arial" font-size="14" lengthAdjust="spacing" textLength="54" x="11" y="283.8696">- TISS-A</text><text fill="#111827" font-family="Arial" font-size="14" lengthAdjust="spacing" textLength="53" x="11" y="299.9683">- SAPS3</text><text fill="#111827" font-family="Arial" font-size="14" lengthAdjust="spacing" textLength="192" x="11" y="316.0669">- Stroke-Unit Registermeldung</text><path d="M394,342.0337 L394,390.0337 A5,5 0 0 0 399,395.0337 L626,395.0337 A5,5 0 0 0 631,390.0337 L631,347.0337 L621,337.0337 L399,337.0337 A5,5 0 0 0 394,342.0337 " fill="#C5F7BA" filter="url(#f2uzau5vzl0jg)" style="stroke:#8B95A5;stroke-width:1.0;"/><path d="M621,337.0337 L621,344.5337 A2.5,2.5 0 0 0 623.5,347.0337 L631,347.0337 L621,337.0337 " fill="#C5F7BA" style="stroke:#8B95A5;stroke-width:1.0;"/><text fill="#111827" font-family="Arial" font-size="14" lengthAdjust="spacing" textLength="56" x="400" y="355.1655">Zustand:</text><text fill="#111827" font-family="Arial" font-size="14" lengthAdjust="spacing" textLength="154" x="400" y="371.2642">- Moped Fall angelegt &#10003;</text><text fill="#111827" font-family="Arial" font-size="14" lengthAdjust="spacing" textLength="216" x="400" y="387.3628">- Aufnahmedaten vollst&#228;ndig &#10003; &#183; x</text><!--SRC=[lLIzRjim4Dxr50UdGpiOi98eiJC4i8ly8KbhH4w6eWjjdcH2qj4bgSHjqQVesh7lqBrzapv9IVcFiWMFFGscxxxxxkuxKJeJD6EA5J2MYgDwAtEfuA1JMQ0tKJR9KYLBuaj44hd7G-Wfu_95K0e9opLwaMMQ8bGG-gGS4rRcvbAIUSSAX5PV2PQtcX6n-88G7ZS7wsrx6986uMi0CDWU03iO9Pts0Gzv3qySmXUWE-v5B5fxHrCnoGYrXj3w7ho1klR_a77k1dSiNZTX67OFJwqlNajZL8d1Dx_1wyypLBcWp1lXug89y4YyEk1IO5zx_5GYJHQJ3faoOY9cZ4njfAYoBS3EMYkhWtO5tWclbbCBh6GvT0bzfUJBjZ2LSwFjuShLL74TMDGwiguhs_ciDkEQUH7QcUueEKvEwfd-QckR6SYvDq7DtwHhC9PpQ7qaMDdjDMoivMuCHhsUBSucnkRPCDFGkhrk1KZSNh_vBaLbztA6lEwoR9CeEHqpopRR20xtmugpojX36pzjSNNSi-xCXXrB_DH0SNTr2Q_lc7qLTOhQAZj5ONGYYUitJLmExyZsvUqLO62nUxkj0Aw4EtXKh3IIocACAWYghu0IwTI0J9nAA_a-bDhOfiw2zbBcIvRdm2Z575C3Vtzyjv5-cH2R5iYPGO9dcUVQ_Fb9NAGE0Bz_mRmgwwe4WTrh-_pS5Zc3uVju1AzGK84vHrhs8P_HRJ-uMFdRhlCSxIssyXZW0k66R2ajdhdCoWB9C2Ca1TA-T83k2_20gT06bICeANNzZsxYkDstXxW_Z8_Shr4om_OZ2REDzzhzZzBy0m00]--></g></svg>