<?xml version="1.0" encoding="us-ascii" standalone="no"?><svg xmlns="http://www.w3.org/2000/svg" xmlns:xlink="http://www.w3.org/1999/xlink" contentStyleType="text/css" height="450px" preserveAspectRatio="none" style="width:974px;height:450px;background:#F5F5F5;" version="1.1" viewBox="0 0 974 450" width="974px" zoomAndPan="magnify"><defs><filter height="300%" id="ftdi1fffo0zfa" width="300%" x="-1" y="-1"><feGaussianBlur result="blurOut" stdDeviation="2.0"/><feColorMatrix in="blurOut" result="blurOut2" type="matrix" values="0 0 0 0 0 0 0 0 0 0 0 0 0 0 0 0 0 0 .4 0"/><feOffset dx="4.0" dy="4.0" in="blurOut2" result="blurOut3"/><feBlend in="SourceGraphic" in2="blurOut3" mode="normal"/></filter><linearGradient id="gtdi1fffo0zfa0" x1="50%" x2="50%" y1="0%" y2="100%"><stop offset="0%" stop-color="#E0E5F0"/><stop offset="100%" stop-color="#D1D9E6"/></linearGradient></defs><g><rect fill="#F5F5F5" height="450" style="stroke:none;stroke-width:1.0;" width="974" x="0" y="0"/><rect fill="#F5E599" height="438.1323" rx="5" ry="5" style="stroke:#181818;stroke-width:0.5;" width="371" x="34" y="6"/><text fill="#000000" font-family="Arial" font-size="14" font-weight="bold" lengthAdjust="spacing" textLength="4" x="37" y="19.1318">&#160;</text><text fill="#000000" font-family="Arial" font-size="14" font-weight="bold" lengthAdjust="spacing" textLength="197" x="121" y="35.2305">KH (Herz-Jesu Krankenhaus)</text><rect fill="#C5F7BA" height="438.1323" rx="5" ry="5" style="stroke:#181818;stroke-width:0.5;" width="333" x="447" y="6"/><text fill="#000000" font-family="Arial" font-size="14" font-weight="bold" lengthAdjust="spacing" textLength="4" x="450" y="19.1318">&#160;</text><text fill="#000000" font-family="Arial" font-size="14" font-weight="bold" lengthAdjust="spacing" textLength="47" x="590" y="35.2305">Moped</text><line style="stroke:#181818;stroke-width:0.5;stroke-dasharray:5.0,5.0;" x1="219.5" x2="219.5" y1="118.2959" y2="365.0337"/><line style="stroke:#181818;stroke-width:0.5;stroke-dasharray:5.0,5.0;" x1="613.5" x2="613.5" y1="118.2959" y2="365.0337"/><text fill="#000000" font-family="Arial" font-size="14" lengthAdjust="spacing" textLength="186" x="123.5" y="115.3291">KH (Herz-Jesu Krankenhaus)</text><ellipse cx="219.5" cy="50.6973" fill="#E2E2F0" rx="8" ry="8" style="stroke:#181818;stroke-width:0.5;"/><path d="M219.5,58.6973 L219.5,85.6973 M206.5,66.6973 L232.5,66.6973 M219.5,85.6973 L206.5,100.6973 M219.5,85.6973 L232.5,100.6973 " fill="none" style="stroke:#181818;stroke-width:0.5;"/><text fill="#000000" font-family="Arial" font-size="14" lengthAdjust="spacing" textLength="186" x="123.5" y="377.1655">KH (Herz-Jesu Krankenhaus)</text><ellipse cx="219.5" cy="388.6323" fill="#E2E2F0" rx="8" ry="8" style="stroke:#181818;stroke-width:0.5;"/><path d="M219.5,396.6323 L219.5,423.6323 M206.5,404.6323 L232.5,404.6323 M219.5,423.6323 L206.5,438.6323 M219.5,423.6323 L232.5,438.6323 " fill="none" style="stroke:#181818;stroke-width:0.5;"/><rect fill="#FFFFFF" height="30.0986" rx="5" ry="5" style="stroke:#555555;stroke-width:0.5;" width="58" x="584.5" y="87.1973"/><text fill="#000000" font-family="Arial" font-size="14" lengthAdjust="spacing" textLength="44" x="591.5" y="107.3291">Moped</text><rect fill="#FFFFFF" height="30.0986" rx="5" ry="5" style="stroke:#555555;stroke-width:0.5;" width="58" x="584.5" y="364.0337"/><text fill="#000000" font-family="Arial" font-size="14" lengthAdjust="spacing" textLength="44" x="591.5" y="384.1655">Moped</text><path d="M618,138.2959 L618,202.2959 A5,5 0 0 0 623,207.2959 L957,207.2959 A5,5 0 0 0 962,202.2959 L962,143.2959 L952,133.2959 L623,133.2959 A5,5 0 0 0 618,138.2959 " fill="#C5F7BA" filter="url(#ftdi1fffo0zfa)" style="stroke:#8B95A5;stroke-width:1.0;"/><path d="M952,133.2959 L952,140.7959 A2.5,2.5 0 0 0 954.5,143.2959 L962,143.2959 L952,133.2959 " fill="#C5F7BA" style="stroke:#8B95A5;stroke-width:1.0;"/><text fill="#111827" font-family="Arial" font-size="14" lengthAdjust="spacing" textLength="56" x="624" y="151.4277">Zustand:</text><text fill="#111827" font-family="Arial" font-size="14" lengthAdjust="spacing" textLength="139" x="624" y="167.5264">- Moped Fall angelegt</text><text fill="#111827" font-family="Arial" font-size="14" lengthAdjust="spacing" textLength="323" x="624" y="183.625">- keine vorl&#228;ufige/finale Abrechnung unbeantwortet</text><text fill="#111827" font-family="Arial" font-size="14" lengthAdjust="spacing" textLength="233" x="624" y="199.7236">- keine finale Abrechnung genehmigt</text><line style="stroke:#111827;stroke-width:2.0;" x1="611.5" x2="601.5" y1="236.6392" y2="232.6392"/><line style="stroke:#111827;stroke-width:2.0;" x1="611.5" x2="601.5" y1="236.6392" y2="240.6392"/><line style="stroke:#111827;stroke-width:2.0;" x1="219.5" x2="612.5" y1="236.6392" y2="236.6392"/><text fill="#000000" font-family="Arial" font-size="13" font-weight="bold" lengthAdjust="spacing" textLength="7" x="226.5" y="231.8843">1</text><text fill="#000000" font-family="Arial" font-size="13" lengthAdjust="spacing" textLength="152" x="237.5" y="231.8843">$update (POST Condition)</text><path d="M5,254.6392 L5,286.6392 A5,5 0 0 0 10,291.6392 L427,291.6392 A5,5 0 0 0 432,286.6392 L432,259.6392 L422,249.6392 L10,249.6392 A5,5 0 0 0 5,254.6392 " fill="url(#gtdi1fffo0zfa0)" filter="url(#ftdi1fffo0zfa)" style="stroke:#8B95A5;stroke-width:1.0;"/><path d="M422,249.6392 L422,257.1392 A2.5,2.5 0 0 0 424.5,259.6392 L432,259.6392 L422,249.6392 " fill="url(#gtdi1fffo0zfa0)" style="stroke:#8B95A5;stroke-width:1.0;"/><text fill="#111827" font-family="Arial" font-size="14" lengthAdjust="spacing" textLength="176" x="11" y="267.771">Condition wird gesendet mit</text><text fill="#111827" font-family="Arial" font-size="14" lengthAdjust="spacing" textLength="406" x="11" y="283.8696">- Typ: Aufnahmediagnose, Zusatzdiagnose oder Hauptdiagnose</text><path d="M618,309.8364 L618,341.8364 A5,5 0 0 0 623,346.8364 L815,346.8364 A5,5 0 0 0 820,341.8364 L820,314.8364 L810,304.8364 L623,304.8364 A5,5 0 0 0 618,309.8364 " fill="#C5F7BA" filter="url(#ftdi1fffo0zfa)" style="stroke:#8B95A5;stroke-width:1.0;"/><path d="M810,304.8364 L810,312.3364 A2.5,2.5 0 0 0 812.5,314.8364 L820,314.8364 L810,304.8364 " fill="#C5F7BA" style="stroke:#8B95A5;stroke-width:1.0;"/><text fill="#111827" font-family="Arial" font-size="14" lengthAdjust="spacing" textLength="56" x="624" y="322.9683">Zustand:</text><text fill="#111827" font-family="Arial" font-size="14" lengthAdjust="spacing" textLength="181" x="624" y="339.0669">- Aufnahmedaten vollst&#228;ndig</text><!--SRC=[ZLFRJjj047ttLun27q1gL0mO4XwG0e96HRHHeIzLNyRUiRsAC-kkTmaNzM_u4twiQvFBEd4hrY_sp9apPyvugwda4ZNE85PQaBvGXTAmiz-Se5fdCPbcMbaM2qGQrO-7g78KQYuvWnIBYhpCeampQGXzKa4fsi9SAJPVSKRG6sc9HQyRSIkV2CAZxcHRjeTXPGYU0u3ppG5edw9qlxyZGZ6aunhX6p28Xn56g-XTBfCfKrL1w6BVlO46xdk2GjI3rooUcZ0C1mSdBdQxiiPeIy4VN-3uiIHTI9vw8rnUTW5-i6XUQ66mxptzjiJ9swGJr4OciaGshP6Yvcm0jjRQd3Pes-2jz78vhSJIbeEwOAIrccyQqmJNtXuiGrqTLuctNeSkzDafBriphfZVKblJ7QP7wN6xqbzjQpFdwi6Re1NlyZM8rGFqVZ5qdUinx8v9F_M_K6NXMYDFYNEqrLudl5VVBug6GoSL4-EwE0AieFTldbv0BDmbVlY_aFQvKIM9T-2SdYHAJs9qUihrWk5cqgXgQ3m10LgZsCvYqa7Gt40jizo0IkkA9TLFMnbaSHhq5pgki2W0EQE2CkEYKwf_zdkbYzSNcygCFgMIiI0OnPgIdAtRZEMOd9AvqeRMDTkuZ9ZocNIyjSfQKn0uC_jdPqxIANomfK2dStVoxVOEBXGBQQJYlOLyTK_r2e9L0kPI2qTQEJOoC9Drxxl7yXH6DcNCPoGaPgmg-WXkJZHFoszGxi-1CThIB4EUfFUOjUhW1BEpfoWgy_hYX6Lhehy0]--></g></svg>