<?xml version="1.0" encoding="us-ascii" standalone="no"?><svg xmlns="http://www.w3.org/2000/svg" xmlns:xlink="http://www.w3.org/1999/xlink" contentStyleType="text/css" height="417px" preserveAspectRatio="none" style="width:812px;height:417px;background:#F5F5F5;" version="1.1" viewBox="0 0 812 417" width="812px" zoomAndPan="magnify"><defs><filter height="300%" id="f1m5sdpb3cbfbt" width="300%" x="-1" y="-1"><feGaussianBlur result="blurOut" stdDeviation="2.0"/><feColorMatrix in="blurOut" result="blurOut2" type="matrix" values="0 0 0 0 0 0 0 0 0 0 0 0 0 0 0 0 0 0 .4 0"/><feOffset dx="4.0" dy="4.0" in="blurOut2" result="blurOut3"/><feBlend in="SourceGraphic" in2="blurOut3" mode="normal"/></filter><linearGradient id="g1m5sdpb3cbfbt0" x1="50%" x2="50%" y1="0%" y2="100%"><stop offset="0%" stop-color="#E0E5F0"/><stop offset="100%" stop-color="#D1D9E6"/></linearGradient></defs><g><rect fill="#F5F5F5" height="417" style="stroke:none;stroke-width:1.0;" width="812" x="0" y="0"/><rect fill="#F5E599" height="405.9351" rx="5" ry="5" style="stroke:#181818;stroke-width:0.5;" width="371" x="21" y="6"/><text fill="#000000" font-family="Arial" font-size="14" font-weight="bold" lengthAdjust="spacing" textLength="4" x="24" y="19.1318">&#160;</text><text fill="#000000" font-family="Arial" font-size="14" font-weight="bold" lengthAdjust="spacing" textLength="197" x="108" y="35.2305">KH (Herz-Jesu Krankenhaus)</text><rect fill="#C5F7BA" height="405.9351" rx="5" ry="5" style="stroke:#181818;stroke-width:0.5;" width="333" x="469" y="6"/><text fill="#000000" font-family="Arial" font-size="14" font-weight="bold" lengthAdjust="spacing" textLength="4" x="472" y="19.1318">&#160;</text><text fill="#000000" font-family="Arial" font-size="14" font-weight="bold" lengthAdjust="spacing" textLength="47" x="612" y="35.2305">Moped</text><line style="stroke:#181818;stroke-width:0.5;stroke-dasharray:5.0,5.0;" x1="206.5" x2="206.5" y1="118.2959" y2="332.8364"/><line style="stroke:#181818;stroke-width:0.5;stroke-dasharray:5.0,5.0;" x1="635.5" x2="635.5" y1="118.2959" y2="332.8364"/><text fill="#000000" font-family="Arial" font-size="14" lengthAdjust="spacing" textLength="186" x="110.5" y="115.3291">KH (Herz-Jesu Krankenhaus)</text><ellipse cx="206.5" cy="50.6973" fill="#E2E2F0" rx="8" ry="8" style="stroke:#181818;stroke-width:0.5;"/><path d="M206.5,58.6973 L206.5,85.6973 M193.5,66.6973 L219.5,66.6973 M206.5,85.6973 L193.5,100.6973 M206.5,85.6973 L219.5,100.6973 " fill="none" style="stroke:#181818;stroke-width:0.5;"/><text fill="#000000" font-family="Arial" font-size="14" lengthAdjust="spacing" textLength="186" x="110.5" y="344.9683">KH (Herz-Jesu Krankenhaus)</text><ellipse cx="206.5" cy="356.4351" fill="#E2E2F0" rx="8" ry="8" style="stroke:#181818;stroke-width:0.5;"/><path d="M206.5,364.4351 L206.5,391.4351 M193.5,372.4351 L219.5,372.4351 M206.5,391.4351 L193.5,406.4351 M206.5,391.4351 L219.5,406.4351 " fill="none" style="stroke:#181818;stroke-width:0.5;"/><rect fill="#FFFFFF" height="30.0986" rx="5" ry="5" style="stroke:#555555;stroke-width:0.5;" width="58" x="606.5" y="87.1973"/><text fill="#000000" font-family="Arial" font-size="14" lengthAdjust="spacing" textLength="44" x="613.5" y="107.3291">Moped</text><rect fill="#FFFFFF" height="30.0986" rx="5" ry="5" style="stroke:#555555;stroke-width:0.5;" width="58" x="606.5" y="331.8364"/><text fill="#000000" font-family="Arial" font-size="14" lengthAdjust="spacing" textLength="44" x="613.5" y="351.9683">Moped</text><path d="M640,138.2959 L640,170.2959 A5,5 0 0 0 645,175.2959 L795,175.2959 A5,5 0 0 0 800,170.2959 L800,143.2959 L790,133.2959 L645,133.2959 A5,5 0 0 0 640,138.2959 " fill="#C5F7BA" filter="url(#f1m5sdpb3cbfbt)" style="stroke:#8B95A5;stroke-width:1.0;"/><path d="M790,133.2959 L790,140.7959 A2.5,2.5 0 0 0 792.5,143.2959 L800,143.2959 L790,133.2959 " fill="#C5F7BA" style="stroke:#8B95A5;stroke-width:1.0;"/><text fill="#111827" font-family="Arial" font-size="14" lengthAdjust="spacing" textLength="56" x="646" y="151.4277">Zustand:</text><text fill="#111827" font-family="Arial" font-size="14" lengthAdjust="spacing" textLength="139" x="646" y="167.5264">- Moped Fall angelegt</text><line style="stroke:#111827;stroke-width:2.0;" x1="633.5" x2="623.5" y1="204.4419" y2="200.4419"/><line style="stroke:#111827;stroke-width:2.0;" x1="633.5" x2="623.5" y1="204.4419" y2="208.4419"/><line style="stroke:#111827;stroke-width:2.0;" x1="206.5" x2="634.5" y1="204.4419" y2="204.4419"/><text fill="#000000" font-family="Arial" font-size="13" font-weight="bold" lengthAdjust="spacing" textLength="7" x="213.5" y="199.687">1</text><text fill="#000000" font-family="Arial" font-size="13" lengthAdjust="spacing" textLength="195" x="224.5" y="199.687">$update (PUT TransferEncounter)</text><path d="M77,222.4419 L77,254.4419 A5,5 0 0 0 82,259.4419 L328,259.4419 A5,5 0 0 0 333,254.4419 L333,227.4419 L323,217.4419 L82,217.4419 A5,5 0 0 0 77,222.4419 " fill="url(#g1m5sdpb3cbfbt0)" filter="url(#f1m5sdpb3cbfbt)" style="stroke:#8B95A5;stroke-width:1.0;"/><path d="M323,217.4419 L323,224.9419 A2.5,2.5 0 0 0 325.5,227.4419 L333,227.4419 L323,217.4419 " fill="url(#g1m5sdpb3cbfbt0)" style="stroke:#8B95A5;stroke-width:1.0;"/><text fill="#111827" font-family="Arial" font-size="14" lengthAdjust="spacing" textLength="235" x="83" y="235.5737">TransferEncounter wird gesendet mit</text><text fill="#111827" font-family="Arial" font-size="14" lengthAdjust="spacing" textLength="140" x="83" y="251.6724">- aktualisierten Details</text><path d="M640,277.6392 L640,309.6392 A5,5 0 0 0 645,314.6392 L742,314.6392 A5,5 0 0 0 747,309.6392 L747,282.6392 L737,272.6392 L645,272.6392 A5,5 0 0 0 640,277.6392 " fill="#C5F7BA" filter="url(#f1m5sdpb3cbfbt)" style="stroke:#8B95A5;stroke-width:1.0;"/><path d="M737,272.6392 L737,280.1392 A2.5,2.5 0 0 0 739.5,282.6392 L747,282.6392 L737,272.6392 " fill="#C5F7BA" style="stroke:#8B95A5;stroke-width:1.0;"/><text fill="#111827" font-family="Arial" font-size="14" lengthAdjust="spacing" textLength="56" x="646" y="290.771">Zustand:</text><text fill="#111827" font-family="Arial" font-size="14" lengthAdjust="spacing" textLength="86" x="646" y="306.8696">- unver&#228;ndert</text><!--SRC=[ZLFBRjj03BplLn1A3yd1WEL4YPr3WAHrQZH8OJJEfUY5rbBomlAkke_QJT2_wP_qnxgINojRBK9VB78ud26nPYvaYHeNC5MQatwl2gNXf5i7C_igflDSAoVv1f4brIz0c1bojHGoXmmBGq5bqwObQOX3KauPkiBUAsa_uu8WkjK2YwWTyIHU2EABzc9JTe2HoXAyCe2xGmFKfIJhTavup0TqMI721VIdWmIJNNOo4-bSaZ4G-zoNm53VVu-HyyfunHAeYUEutxlokQVTQgnsn7w50aS_IzA5aFF0md3O1dYMlFv3cmM7kwVlZcIwTZf6RKKgIfIsOIcfum1mTDOwcg3Z1H-LjyTf5BPhwLKDjrghvU5YwkH-jxrjgctYhh2UTUvJ7xtoik5nnxmk7RaxpowoosPdUDh6PUxKAd3GoBVjbKtL2g9l4jhYOGId8z8ldKza73neb7EICtJch1KULU-Bai70IyNK-YcU00r4_-Q964dk7_7g_qAQyQXAuc_0UJrfabrDqUifzmU6nt6jggO9131qLactc99ch7w1MkGp2oghEhPKNvsnAFarwsnqt6DH0CgS2ifjpLRrCkPDTsvkVEirl7CbHyztEdwUmCJRDndfeKpzZItfiyqqzOEgZR4Z02o5vf2JyUHaOI6i7uvpwx0GHf2s9E43MHI52UQ_nO6JVkQVtzKJ3QJ_1G00]--></g></svg>