<?xml version="1.0" encoding="us-ascii" standalone="no"?><svg xmlns="http://www.w3.org/2000/svg" xmlns:xlink="http://www.w3.org/1999/xlink" contentStyleType="text/css" height="593px" preserveAspectRatio="none" style="width:987px;height:593px;background:#F5F5F5;" version="1.1" viewBox="0 0 987 593" width="987px" zoomAndPan="magnify"><defs><filter height="300%" id="fqnvpx87bvz55" width="300%" x="-1" y="-1"><feGaussianBlur result="blurOut" stdDeviation="2.0"/><feColorMatrix in="blurOut" result="blurOut2" type="matrix" values="0 0 0 0 0 0 0 0 0 0 0 0 0 0 0 0 0 0 .4 0"/><feOffset dx="4.0" dy="4.0" in="blurOut2" result="blurOut3"/><feBlend in="SourceGraphic" in2="blurOut3" mode="normal"/></filter><linearGradient id="gqnvpx87bvz550" x1="50%" x2="50%" y1="0%" y2="100%"><stop offset="0%" stop-color="#E0E5F0"/><stop offset="100%" stop-color="#D1D9E6"/></linearGradient></defs><g><rect fill="#F5F5F5" height="593" style="stroke:none;stroke-width:1.0;" width="987" x="0" y="0"/><rect fill="#F5E599" height="581.377" rx="5" ry="5" style="stroke:#181818;stroke-width:0.5;" width="371" x="21" y="6"/><text fill="#000000" font-family="Arial" font-size="14" font-weight="bold" lengthAdjust="spacing" textLength="4" x="24" y="19.1318">&#160;</text><text fill="#000000" font-family="Arial" font-size="14" font-weight="bold" lengthAdjust="spacing" textLength="197" x="108" y="35.2305">KH (Herz-Jesu Krankenhaus)</text><rect fill="#C5F7BA" height="581.377" rx="5" ry="5" style="stroke:#181818;stroke-width:0.5;" width="333" x="460" y="6"/><text fill="#000000" font-family="Arial" font-size="14" font-weight="bold" lengthAdjust="spacing" textLength="4" x="463" y="19.1318">&#160;</text><text fill="#000000" font-family="Arial" font-size="14" font-weight="bold" lengthAdjust="spacing" textLength="47" x="603" y="35.2305">Moped</text><rect fill="#FFFFFF" height="28" style="stroke:#181818;stroke-width:1.0;" width="10" x="621.5" y="328.7852"/><line style="stroke:#181818;stroke-width:0.5;stroke-dasharray:5.0,5.0;" x1="206.5" x2="206.5" y1="118.2959" y2="508.2783"/><line style="stroke:#181818;stroke-width:0.5;stroke-dasharray:5.0,5.0;" x1="626.5" x2="626.5" y1="118.2959" y2="508.2783"/><text fill="#000000" font-family="Arial" font-size="14" lengthAdjust="spacing" textLength="186" x="110.5" y="115.3291">KH (Herz-Jesu Krankenhaus)</text><ellipse cx="206.5" cy="50.6973" fill="#E2E2F0" rx="8" ry="8" style="stroke:#181818;stroke-width:0.5;"/><path d="M206.5,58.6973 L206.5,85.6973 M193.5,66.6973 L219.5,66.6973 M206.5,85.6973 L193.5,100.6973 M206.5,85.6973 L219.5,100.6973 " fill="none" style="stroke:#181818;stroke-width:0.5;"/><text fill="#000000" font-family="Arial" font-size="14" lengthAdjust="spacing" textLength="186" x="110.5" y="520.4102">KH (Herz-Jesu Krankenhaus)</text><ellipse cx="206.5" cy="531.877" fill="#E2E2F0" rx="8" ry="8" style="stroke:#181818;stroke-width:0.5;"/><path d="M206.5,539.877 L206.5,566.877 M193.5,547.877 L219.5,547.877 M206.5,566.877 L193.5,581.877 M206.5,566.877 L219.5,581.877 " fill="none" style="stroke:#181818;stroke-width:0.5;"/><rect fill="#FFFFFF" height="30.0986" rx="5" ry="5" style="stroke:#555555;stroke-width:0.5;" width="58" x="597.5" y="87.1973"/><text fill="#000000" font-family="Arial" font-size="14" lengthAdjust="spacing" textLength="44" x="604.5" y="107.3291">Moped</text><rect fill="#FFFFFF" height="30.0986" rx="5" ry="5" style="stroke:#555555;stroke-width:0.5;" width="58" x="597.5" y="507.2783"/><text fill="#000000" font-family="Arial" font-size="14" lengthAdjust="spacing" textLength="44" x="604.5" y="527.4102">Moped</text><rect fill="#FFFFFF" height="28" style="stroke:#181818;stroke-width:1.0;" width="10" x="621.5" y="328.7852"/><path d="M631,138.2959 L631,202.2959 A5,5 0 0 0 636,207.2959 L970,207.2959 A5,5 0 0 0 975,202.2959 L975,143.2959 L965,133.2959 L636,133.2959 A5,5 0 0 0 631,138.2959 " fill="#C5F7BA" filter="url(#fqnvpx87bvz55)" style="stroke:#8B95A5;stroke-width:1.0;"/><path d="M965,133.2959 L965,140.7959 A2.5,2.5 0 0 0 967.5,143.2959 L975,143.2959 L965,133.2959 " fill="#C5F7BA" style="stroke:#8B95A5;stroke-width:1.0;"/><text fill="#111827" font-family="Arial" font-size="14" lengthAdjust="spacing" textLength="56" x="637" y="151.4277">Zustand:</text><text fill="#111827" font-family="Arial" font-size="14" lengthAdjust="spacing" textLength="139" x="637" y="167.5264">- Moped Fall angelegt</text><text fill="#111827" font-family="Arial" font-size="14" lengthAdjust="spacing" textLength="323" x="637" y="183.625">- keine vorl&#228;ufige/finale Abrechnung unbeantwortet</text><text fill="#111827" font-family="Arial" font-size="14" lengthAdjust="spacing" textLength="233" x="637" y="199.7236">- keine finale Abrechnung genehmigt</text><line style="stroke:#111827;stroke-width:2.0;" x1="624.5" x2="614.5" y1="236.6392" y2="232.6392"/><line style="stroke:#111827;stroke-width:2.0;" x1="624.5" x2="614.5" y1="236.6392" y2="240.6392"/><line style="stroke:#111827;stroke-width:2.0;" x1="206.5" x2="625.5" y1="236.6392" y2="236.6392"/><text fill="#000000" font-family="Arial" font-size="13" font-weight="bold" lengthAdjust="spacing" textLength="7" x="213.5" y="231.8843">1</text><text fill="#000000" font-family="Arial" font-size="13" lengthAdjust="spacing" textLength="186" x="224.5" y="231.8843">$update (PUT MopedEncounter)</text><path d="M82,254.6392 L82,286.6392 A5,5 0 0 0 87,291.6392 L323,291.6392 A5,5 0 0 0 328,286.6392 L328,259.6392 L318,249.6392 L87,249.6392 A5,5 0 0 0 82,254.6392 " fill="url(#gqnvpx87bvz550)" filter="url(#fqnvpx87bvz55)" style="stroke:#8B95A5;stroke-width:1.0;"/><path d="M318,249.6392 L318,257.1392 A2.5,2.5 0 0 0 320.5,259.6392 L328,259.6392 L318,249.6392 " fill="url(#gqnvpx87bvz550)" style="stroke:#8B95A5;stroke-width:1.0;"/><text fill="#111827" font-family="Arial" font-size="14" lengthAdjust="spacing" textLength="225" x="88" y="267.771">MopedEncounter wird gesendet mit</text><text fill="#111827" font-family="Arial" font-size="14" lengthAdjust="spacing" textLength="140" x="88" y="283.8696">- aktualisierten Details</text><line style="stroke:#111827;stroke-width:2.0;" x1="631.5" x2="673.5" y1="320.7852" y2="320.7852"/><line style="stroke:#111827;stroke-width:2.0;" x1="673.5" x2="673.5" y1="320.7852" y2="333.7852"/><line style="stroke:#111827;stroke-width:2.0;" x1="632.5" x2="673.5" y1="333.7852" y2="333.7852"/><polygon fill="#111827" points="642.5,329.7852,632.5,333.7852,642.5,337.7852,638.5,333.7852" style="stroke:#111827;stroke-width:1.0;"/><text fill="#000000" font-family="Arial" font-size="13" font-weight="bold" lengthAdjust="spacing" textLength="7" x="638.5" y="316.0303">2</text><text fill="#000000" font-family="Arial" font-size="13" lengthAdjust="spacing" textLength="92" x="649.5" y="316.0303">&#9733;&#10022;&#9733;&#10022;&#9733;&#10022;&#9733;&#10022;</text><path d="M631,381.7852 L631,429.7852 A5,5 0 0 0 636,434.7852 L961,434.7852 A5,5 0 0 0 966,429.7852 L966,386.7852 L956,376.7852 L636,376.7852 A5,5 0 0 0 631,381.7852 " fill="url(#gqnvpx87bvz550)" filter="url(#fqnvpx87bvz55)" style="stroke:#8B95A5;stroke-width:1.0;"/><path d="M956,376.7852 L956,384.2852 A2.5,2.5 0 0 0 958.5,386.7852 L966,386.7852 L956,376.7852 " fill="url(#gqnvpx87bvz550)" style="stroke:#8B95A5;stroke-width:1.0;"/><text fill="#111827" font-family="Arial" font-size="14" lengthAdjust="spacing" textLength="247" x="637" y="394.917">manche ge&#228;nderte Elemente bedingen</text><text fill="#111827" font-family="Arial" font-size="14" lengthAdjust="spacing" textLength="221" x="637" y="411.0156">eine automatische Stornierung von</text><text fill="#111827" font-family="Arial" font-size="14" lengthAdjust="spacing" textLength="314" x="637" y="427.1143">Ressourcen (z.B. LKFRequest oder VAERequest)</text><path d="M631,453.0811 L631,485.0811 A5,5 0 0 0 636,490.0811 L733,490.0811 A5,5 0 0 0 738,485.0811 L738,458.0811 L728,448.0811 L636,448.0811 A5,5 0 0 0 631,453.0811 " fill="#C5F7BA" filter="url(#fqnvpx87bvz55)" style="stroke:#8B95A5;stroke-width:1.0;"/><path d="M728,448.0811 L728,455.5811 A2.5,2.5 0 0 0 730.5,458.0811 L738,458.0811 L728,448.0811 " fill="#C5F7BA" style="stroke:#8B95A5;stroke-width:1.0;"/><text fill="#111827" font-family="Arial" font-size="14" lengthAdjust="spacing" textLength="56" x="637" y="466.2129">Zustand:</text><text fill="#111827" font-family="Arial" font-size="14" lengthAdjust="spacing" textLength="86" x="637" y="482.3115">- unver&#228;ndert</text><!--SRC=[ZPJBKjim58RtUWfDw08MeHW841RCX3QKAQMJuT95fnlPEdOqjgLKbuJIwRBlq4MNJ5-4D-59UkGuYOpJ3ifCnZutVUS_aaqkv8HfLj9OQGxwZIgKfXixrI9cvML9dcdb9AyZqfx_1H5cpBYQ2PdHb1K60a-TfYLe6eL5EQJC5VPCIVkHbK0x0orOqLaVSItkWKRxwvrDx216AWlqEw7qz7a3i0EzTAUxmIFUXmCV4Gfm5FTxhBUqten5aaimXaPekmeQEiBt4UFSD-wh13HH51tj7gBjUYcDrGx8Zn3m_Di4T25a7hGm7AuBk9MyUe1Qu51x-Ef09lDEHqnRaOW9axRHKgzQpm9QOwrMCwWjSCkz64x3iP1broSCj5Qpvy9KnfMskmlJkXsNZlbUUsXwX-IJHe_BodDNgxkzT3yzQ6Q6esrCvbJT1HqqxEjq9R6wevqlagvR5-TqynpqVVSz64SlD9Cvo35pPcjjUCVVB-Zr-uZA4ekxO05cQEVVTJe49CTBVFT_aEQwL1FWBuX3dgIN7iOCUIQh0TFBKKLLbGa027DMILV6e0cfRg0MsTXIbVgCHQdFpbWc-J7frXndh2WeanaKa5cqvk0F-rJful71fIA3rwcGh00wY3KaO-bmCax6W2GpfIsiSjfn6KWObmBhUahFH0YAsJqvGQHZ-ifDE4FEpT7jpPncA1CyE1RqLjs2ce8V0sbwwKneZjKDbWLBI-4XM6uTAuGHW5IIlWNBH662dL65xdpZfry_dtx_QVyJ7BkOUgJB4U4GlhKK9IMJoHYGul71VoFGEooW1EIZCVW3Z12a4iOFfcHM61z_ZGTB8gFNPweakS9Be9nEC7hpVljqctwuEBloNnQ36s5T-camhD-tWcPUD64dKRuQRvNx5m00]--></g></svg>