<?xml version="1.0" encoding="us-ascii" standalone="no"?><svg xmlns="http://www.w3.org/2000/svg" xmlns:xlink="http://www.w3.org/1999/xlink" contentStyleType="text/css" height="417px" preserveAspectRatio="none" style="width:832px;height:417px;background:#F5F5F5;" version="1.1" viewBox="0 0 832 417" width="832px" zoomAndPan="magnify"><defs><filter height="300%" id="fge5hrzumle0m" width="300%" x="-1" y="-1"><feGaussianBlur result="blurOut" stdDeviation="2.0"/><feColorMatrix in="blurOut" result="blurOut2" type="matrix" values="0 0 0 0 0 0 0 0 0 0 0 0 0 0 0 0 0 0 .4 0"/><feOffset dx="4.0" dy="4.0" in="blurOut2" result="blurOut3"/><feBlend in="SourceGraphic" in2="blurOut3" mode="normal"/></filter><linearGradient id="gge5hrzumle0m0" x1="50%" x2="50%" y1="0%" y2="100%"><stop offset="0%" stop-color="#E0E5F0"/><stop offset="100%" stop-color="#D1D9E6"/></linearGradient></defs><g><rect fill="#F5F5F5" height="417" style="stroke:none;stroke-width:1.0;" width="832" x="0" y="0"/><rect fill="#F5E599" height="405.9351" rx="5" ry="5" style="stroke:#181818;stroke-width:0.5;" width="371" x="34" y="6"/><text fill="#000000" font-family="Arial" font-size="14" font-weight="bold" lengthAdjust="spacing" textLength="4" x="37" y="19.1318">&#160;</text><text fill="#000000" font-family="Arial" font-size="14" font-weight="bold" lengthAdjust="spacing" textLength="197" x="121" y="35.2305">KH (Herz-Jesu Krankenhaus)</text><rect fill="#C5F7BA" height="405.9351" rx="5" ry="5" style="stroke:#181818;stroke-width:0.5;" width="333" x="447" y="6"/><text fill="#000000" font-family="Arial" font-size="14" font-weight="bold" lengthAdjust="spacing" textLength="4" x="450" y="19.1318">&#160;</text><text fill="#000000" font-family="Arial" font-size="14" font-weight="bold" lengthAdjust="spacing" textLength="47" x="590" y="35.2305">Moped</text><line style="stroke:#181818;stroke-width:0.5;stroke-dasharray:5.0,5.0;" x1="219.5" x2="219.5" y1="118.2959" y2="332.8364"/><line style="stroke:#181818;stroke-width:0.5;stroke-dasharray:5.0,5.0;" x1="613.5" x2="613.5" y1="118.2959" y2="332.8364"/><text fill="#000000" font-family="Arial" font-size="14" lengthAdjust="spacing" textLength="186" x="123.5" y="115.3291">KH (Herz-Jesu Krankenhaus)</text><ellipse cx="219.5" cy="50.6973" fill="#E2E2F0" rx="8" ry="8" style="stroke:#181818;stroke-width:0.5;"/><path d="M219.5,58.6973 L219.5,85.6973 M206.5,66.6973 L232.5,66.6973 M219.5,85.6973 L206.5,100.6973 M219.5,85.6973 L232.5,100.6973 " fill="none" style="stroke:#181818;stroke-width:0.5;"/><text fill="#000000" font-family="Arial" font-size="14" lengthAdjust="spacing" textLength="186" x="123.5" y="344.9683">KH (Herz-Jesu Krankenhaus)</text><ellipse cx="219.5" cy="356.4351" fill="#E2E2F0" rx="8" ry="8" style="stroke:#181818;stroke-width:0.5;"/><path d="M219.5,364.4351 L219.5,391.4351 M206.5,372.4351 L232.5,372.4351 M219.5,391.4351 L206.5,406.4351 M219.5,391.4351 L232.5,406.4351 " fill="none" style="stroke:#181818;stroke-width:0.5;"/><rect fill="#FFFFFF" height="30.0986" rx="5" ry="5" style="stroke:#555555;stroke-width:0.5;" width="58" x="584.5" y="87.1973"/><text fill="#000000" font-family="Arial" font-size="14" lengthAdjust="spacing" textLength="44" x="591.5" y="107.3291">Moped</text><rect fill="#FFFFFF" height="30.0986" rx="5" ry="5" style="stroke:#555555;stroke-width:0.5;" width="58" x="584.5" y="331.8364"/><text fill="#000000" font-family="Arial" font-size="14" lengthAdjust="spacing" textLength="44" x="591.5" y="351.9683">Moped</text><path d="M618,138.2959 L618,170.2959 A5,5 0 0 0 623,175.2959 L773,175.2959 A5,5 0 0 0 778,170.2959 L778,143.2959 L768,133.2959 L623,133.2959 A5,5 0 0 0 618,138.2959 " fill="#C5F7BA" filter="url(#fge5hrzumle0m)" style="stroke:#8B95A5;stroke-width:1.0;"/><path d="M768,133.2959 L768,140.7959 A2.5,2.5 0 0 0 770.5,143.2959 L778,143.2959 L768,133.2959 " fill="#C5F7BA" style="stroke:#8B95A5;stroke-width:1.0;"/><text fill="#111827" font-family="Arial" font-size="14" lengthAdjust="spacing" textLength="56" x="624" y="151.4277">Zustand:</text><text fill="#111827" font-family="Arial" font-size="14" lengthAdjust="spacing" textLength="139" x="624" y="167.5264">- Moped Fall angelegt</text><line style="stroke:#111827;stroke-width:2.0;" x1="611.5" x2="601.5" y1="204.4419" y2="200.4419"/><line style="stroke:#111827;stroke-width:2.0;" x1="611.5" x2="601.5" y1="204.4419" y2="208.4419"/><line style="stroke:#111827;stroke-width:2.0;" x1="219.5" x2="612.5" y1="204.4419" y2="204.4419"/><text fill="#000000" font-family="Arial" font-size="13" font-weight="bold" lengthAdjust="spacing" textLength="7" x="226.5" y="199.687">1</text><text fill="#000000" font-family="Arial" font-size="13" lengthAdjust="spacing" textLength="152" x="237.5" y="199.687">$update (POST Condition)</text><path d="M5,222.4419 L5,254.4419 A5,5 0 0 0 10,259.4419 L427,259.4419 A5,5 0 0 0 432,254.4419 L432,227.4419 L422,217.4419 L10,217.4419 A5,5 0 0 0 5,222.4419 " fill="url(#gge5hrzumle0m0)" filter="url(#fge5hrzumle0m)" style="stroke:#8B95A5;stroke-width:1.0;"/><path d="M422,217.4419 L422,224.9419 A2.5,2.5 0 0 0 424.5,227.4419 L432,227.4419 L422,217.4419 " fill="url(#gge5hrzumle0m0)" style="stroke:#8B95A5;stroke-width:1.0;"/><text fill="#111827" font-family="Arial" font-size="14" lengthAdjust="spacing" textLength="176" x="11" y="235.5737">Condition wird gesendet mit</text><text fill="#111827" font-family="Arial" font-size="14" lengthAdjust="spacing" textLength="406" x="11" y="251.6724">- Typ: Aufnahmediagnose, Zusatzdiagnose oder Hauptdiagnose</text><path d="M618,277.6392 L618,309.6392 A5,5 0 0 0 623,314.6392 L815,314.6392 A5,5 0 0 0 820,309.6392 L820,282.6392 L810,272.6392 L623,272.6392 A5,5 0 0 0 618,277.6392 " fill="#C5F7BA" filter="url(#fge5hrzumle0m)" style="stroke:#8B95A5;stroke-width:1.0;"/><path d="M810,272.6392 L810,280.1392 A2.5,2.5 0 0 0 812.5,282.6392 L820,282.6392 L810,272.6392 " fill="#C5F7BA" style="stroke:#8B95A5;stroke-width:1.0;"/><text fill="#111827" font-family="Arial" font-size="14" lengthAdjust="spacing" textLength="56" x="624" y="290.771">Zustand:</text><text fill="#111827" font-family="Arial" font-size="14" lengthAdjust="spacing" textLength="181" x="624" y="306.8696">- Aufnahmedaten vollst&#228;ndig</text><!--SRC=[ZLF1Rjf04BtxAqPE3ubK94pY13X48b5Ir2WjAlHIzJ9unsQ5sNLtru5GzM_w9_snhWqsQt2h31Syy-RDUpDQlUGYGuKhc4l5IDtBL2euwvRXwKCLesMYP2xO7X67nSz1w0KokUOYWHXJJKvbtwO4AGXSKaOnvgbvbC9ymXM1Fr8SKxyTCULRWk2glTYKxM24D0G_FO2xOmFKfJ3kTivOm0PqNI3S1VJdWn33EZjRy6WfI6i8REwBOwXlloV8M66yO77K147GxztOtBHUZL4vURzSWUFNZ5JAnTAnyF3G1lWgMFc7zWjsTqy_SXBHpka4bU4Hpr2OXgMmZ2F0oLdBQ89E5tnIhexJA5HhwHKD8wNa-dWnPVAmsrwLQfjO5tQpBctgWrMUDJpMpBlIYRlB-2g-RdQwfsrSvavk70UDVDjUlRdSWFzTG5iyZU5yJ6hR-KWwXoU5OabYWRc-Q8NxnVkYS32mKZ4oTeebG0t-ltbyZmIpZtZpVo7DU9OPiJVWh9ueZ6_cQFLaXmF3ywHKLT8u0ZpCZHJvQaxAyyeNg7YoC23ZegEY-fPhWu8DlSvUnoEcAQ18AAN4b6n5h-TPqvtRMziwX7Tvnj3odKy-JsTmBmNZXajniHyZNwXObLSNOCqLWuIqPIC3AsxijDbhDeHH7WjSh8XnJ8JKz1wi7ZJRwXkalJ2CCSzCbN8alSLKFS4A5l0YqrIRFx-jiEH0z1S0]--></g></svg>