<?xml version="1.0" encoding="us-ascii" standalone="no"?><svg xmlns="http://www.w3.org/2000/svg" xmlns:xlink="http://www.w3.org/1999/xlink" contentStyleType="text/css" height="417px" preserveAspectRatio="none" style="width:819px;height:417px;background:#F5F5F5;" version="1.1" viewBox="0 0 819 417" width="819px" zoomAndPan="magnify"><defs><filter height="300%" id="f1nr4h6r4ih81" width="300%" x="-1" y="-1"><feGaussianBlur result="blurOut" stdDeviation="2.0"/><feColorMatrix in="blurOut" result="blurOut2" type="matrix" values="0 0 0 0 0 0 0 0 0 0 0 0 0 0 0 0 0 0 .4 0"/><feOffset dx="4.0" dy="4.0" in="blurOut2" result="blurOut3"/><feBlend in="SourceGraphic" in2="blurOut3" mode="normal"/></filter><linearGradient id="g1nr4h6r4ih810" x1="50%" x2="50%" y1="0%" y2="100%"><stop offset="0%" stop-color="#E0E5F0"/><stop offset="100%" stop-color="#D1D9E6"/></linearGradient></defs><g><rect fill="#F5F5F5" height="417" style="stroke:none;stroke-width:1.0;" width="819" x="0" y="0"/><rect fill="#F5E599" height="405.9351" rx="5" ry="5" style="stroke:#181818;stroke-width:0.5;" width="371" x="21" y="6"/><text fill="#000000" font-family="Arial" font-size="14" font-weight="bold" lengthAdjust="spacing" textLength="4" x="24" y="19.1318">&#160;</text><text fill="#000000" font-family="Arial" font-size="14" font-weight="bold" lengthAdjust="spacing" textLength="197" x="108" y="35.2305">KH (Herz-Jesu Krankenhaus)</text><rect fill="#C5F7BA" height="405.9351" rx="5" ry="5" style="stroke:#181818;stroke-width:0.5;" width="333" x="434" y="6"/><text fill="#000000" font-family="Arial" font-size="14" font-weight="bold" lengthAdjust="spacing" textLength="4" x="437" y="19.1318">&#160;</text><text fill="#000000" font-family="Arial" font-size="14" font-weight="bold" lengthAdjust="spacing" textLength="47" x="577" y="35.2305">Moped</text><line style="stroke:#181818;stroke-width:0.5;stroke-dasharray:5.0,5.0;" x1="206.5" x2="206.5" y1="118.2959" y2="332.8364"/><line style="stroke:#181818;stroke-width:0.5;stroke-dasharray:5.0,5.0;" x1="600.5" x2="600.5" y1="118.2959" y2="332.8364"/><text fill="#000000" font-family="Arial" font-size="14" lengthAdjust="spacing" textLength="186" x="110.5" y="115.3291">KH (Herz-Jesu Krankenhaus)</text><ellipse cx="206.5" cy="50.6973" fill="#E2E2F0" rx="8" ry="8" style="stroke:#181818;stroke-width:0.5;"/><path d="M206.5,58.6973 L206.5,85.6973 M193.5,66.6973 L219.5,66.6973 M206.5,85.6973 L193.5,100.6973 M206.5,85.6973 L219.5,100.6973 " fill="none" style="stroke:#181818;stroke-width:0.5;"/><text fill="#000000" font-family="Arial" font-size="14" lengthAdjust="spacing" textLength="186" x="110.5" y="344.9683">KH (Herz-Jesu Krankenhaus)</text><ellipse cx="206.5" cy="356.4351" fill="#E2E2F0" rx="8" ry="8" style="stroke:#181818;stroke-width:0.5;"/><path d="M206.5,364.4351 L206.5,391.4351 M193.5,372.4351 L219.5,372.4351 M206.5,391.4351 L193.5,406.4351 M206.5,391.4351 L219.5,406.4351 " fill="none" style="stroke:#181818;stroke-width:0.5;"/><rect fill="#FFFFFF" height="30.0986" rx="5" ry="5" style="stroke:#555555;stroke-width:0.5;" width="58" x="571.5" y="87.1973"/><text fill="#000000" font-family="Arial" font-size="14" lengthAdjust="spacing" textLength="44" x="578.5" y="107.3291">Moped</text><rect fill="#FFFFFF" height="30.0986" rx="5" ry="5" style="stroke:#555555;stroke-width:0.5;" width="58" x="571.5" y="331.8364"/><text fill="#000000" font-family="Arial" font-size="14" lengthAdjust="spacing" textLength="44" x="578.5" y="351.9683">Moped</text><path d="M605,138.2959 L605,170.2959 A5,5 0 0 0 610,175.2959 L760,175.2959 A5,5 0 0 0 765,170.2959 L765,143.2959 L755,133.2959 L610,133.2959 A5,5 0 0 0 605,138.2959 " fill="#C5F7BA" filter="url(#f1nr4h6r4ih81)" style="stroke:#8B95A5;stroke-width:1.0;"/><path d="M755,133.2959 L755,140.7959 A2.5,2.5 0 0 0 757.5,143.2959 L765,143.2959 L755,133.2959 " fill="#C5F7BA" style="stroke:#8B95A5;stroke-width:1.0;"/><text fill="#111827" font-family="Arial" font-size="14" lengthAdjust="spacing" textLength="56" x="611" y="151.4277">Zustand:</text><text fill="#111827" font-family="Arial" font-size="14" lengthAdjust="spacing" textLength="139" x="611" y="167.5264">- Moped Fall angelegt</text><line style="stroke:#111827;stroke-width:2.0;" x1="598.5" x2="588.5" y1="204.4419" y2="200.4419"/><line style="stroke:#111827;stroke-width:2.0;" x1="598.5" x2="588.5" y1="204.4419" y2="208.4419"/><line style="stroke:#111827;stroke-width:2.0;" x1="206.5" x2="599.5" y1="204.4419" y2="204.4419"/><text fill="#000000" font-family="Arial" font-size="13" font-weight="bold" lengthAdjust="spacing" textLength="7" x="213.5" y="199.687">1</text><text fill="#000000" font-family="Arial" font-size="13" lengthAdjust="spacing" textLength="152" x="224.5" y="199.687">$update (POST Condition)</text><path d="M106,222.4419 L106,254.4419 A5,5 0 0 0 111,259.4419 L298,259.4419 A5,5 0 0 0 303,254.4419 L303,227.4419 L293,217.4419 L111,217.4419 A5,5 0 0 0 106,222.4419 " fill="url(#g1nr4h6r4ih810)" filter="url(#f1nr4h6r4ih81)" style="stroke:#8B95A5;stroke-width:1.0;"/><path d="M293,217.4419 L293,224.9419 A2.5,2.5 0 0 0 295.5,227.4419 L303,227.4419 L293,217.4419 " fill="url(#g1nr4h6r4ih810)" style="stroke:#8B95A5;stroke-width:1.0;"/><text fill="#111827" font-family="Arial" font-size="14" lengthAdjust="spacing" textLength="176" x="112" y="235.5737">Condition wird gesendet mit</text><text fill="#111827" font-family="Arial" font-size="14" lengthAdjust="spacing" textLength="164" x="112" y="251.6724">- Typ: Aufnahmediagnose</text><path d="M605,277.6392 L605,309.6392 A5,5 0 0 0 610,314.6392 L802,314.6392 A5,5 0 0 0 807,309.6392 L807,282.6392 L797,272.6392 L610,272.6392 A5,5 0 0 0 605,277.6392 " fill="#C5F7BA" filter="url(#f1nr4h6r4ih81)" style="stroke:#8B95A5;stroke-width:1.0;"/><path d="M797,272.6392 L797,280.1392 A2.5,2.5 0 0 0 799.5,282.6392 L807,282.6392 L797,272.6392 " fill="#C5F7BA" style="stroke:#8B95A5;stroke-width:1.0;"/><text fill="#111827" font-family="Arial" font-size="14" lengthAdjust="spacing" textLength="56" x="611" y="290.771">Zustand:</text><text fill="#111827" font-family="Arial" font-size="14" lengthAdjust="spacing" textLength="181" x="611" y="306.8696">- Aufnahmedaten vollst&#228;ndig</text><!--SRC=[ZLDDRzf04BtlhnWvFIG794pY13X48b5Ir2WjAlHIzJ9unsQ5sNLtro4Vwh_fF-aVwzg0MODRPRZWcJTltflHcgMGEMfSmLnfJlfMPKh3IRSAPlPLZ9UfLeNaMqGIbJyFOHR8rLh851BC37cLRPkMf27qIJabM6JsNadx6LS4mKWBp89sn5Iy4eGNxSMcR0yZbILuOm0tXmQeIr7IxPpma0_eiaJu2-ZF1n56TNQs4F5IaZ4GkjnNpr3VVK-Gyz9uoUAf2SEmtxjokMcz6giBOhzyWUENd7GcvDApS7VN1lWcUVM7jWlsTqy_2vBnnka4jHMno57QXgMeYWF0qLchQ8AE5tnKtXsdKTYjfLSsZBHMwyF5LCdzRdkxLDl4kh2PTUvI7vtolE6nPjwKZjoT9nV9PRFJFstZCZVgsNFGoBVjbStLCmG_9BJ5mnXEnwHVEv_85F2WKIv9Bh0mPwtme7nV50q6JYh6rarn16WW-3TFm4XozuYV_o-a6Oyg9_uEdDCJHydL79sUV7zWU9nKgYeQJm0MLibYDIVDMFK0jKWN5bHIDkoOlXV6ekH3rjdAkCSi0vGfPPJQYgpiPSnvxbnVkzOXV2XoZexlTF9bEeDR9RcmGicpxHZrHEMcM5s0jT0SKZAEZIoiX7NJPY_v44P58d6n8YumbSgzflsyzoYksvqQ2KygoupzyzjDJVT4Vm40]--></g></svg>