<?xml version="1.0" encoding="us-ascii" standalone="no"?><svg xmlns="http://www.w3.org/2000/svg" xmlns:xlink="http://www.w3.org/1999/xlink" contentStyleType="text/css" height="530px" preserveAspectRatio="none" style="width:1099px;height:530px;background:#F5F5F5;" version="1.1" viewBox="0 0 1099 530" width="1099px" zoomAndPan="magnify"><defs><filter height="300%" id="f10o4z6syqhdrj" width="300%" x="-1" y="-1"><feGaussianBlur result="blurOut" stdDeviation="2.0"/><feColorMatrix in="blurOut" result="blurOut2" type="matrix" values="0 0 0 0 0 0 0 0 0 0 0 0 0 0 0 0 0 0 .4 0"/><feOffset dx="4.0" dy="4.0" in="blurOut2" result="blurOut3"/><feBlend in="SourceGraphic" in2="blurOut3" mode="normal"/></filter><linearGradient id="g10o4z6syqhdrj0" x1="50%" x2="50%" y1="0%" y2="100%"><stop offset="0%" stop-color="#E0E5F0"/><stop offset="100%" stop-color="#D1D9E6"/></linearGradient></defs><g><rect fill="#F5F5F5" height="530" style="stroke:none;stroke-width:1.0;" width="1099" x="0" y="0"/><rect fill="#F5E599" height="518.6255" rx="5" ry="5" style="stroke:#181818;stroke-width:0.5;" width="106" x="173" y="6"/><text fill="#000000" font-family="Arial" font-size="14" font-weight="bold" lengthAdjust="spacing" textLength="4" x="176" y="19.1318">&#160;</text><text fill="#000000" font-family="Arial" font-size="14" font-weight="bold" lengthAdjust="spacing" textLength="20" x="212" y="35.2305">KH</text><rect fill="#C5F7BA" height="518.6255" rx="5" ry="5" style="stroke:#181818;stroke-width:0.5;" width="165" x="329.5" y="6"/><text fill="#000000" font-family="Arial" font-size="14" font-weight="bold" lengthAdjust="spacing" textLength="4" x="332.5" y="19.1318">&#160;</text><text fill="#000000" font-family="Arial" font-size="14" font-weight="bold" lengthAdjust="spacing" textLength="47" x="388.5" y="35.2305">Moped</text><rect fill="#C0C0C0" height="518.6255" rx="5" ry="5" style="stroke:#181818;stroke-width:0.5;" width="104" x="536.5" y="6"/><text fill="#000000" font-family="Arial" font-size="14" font-weight="bold" lengthAdjust="spacing" textLength="4" x="539.5" y="19.1318">&#160;</text><text fill="#000000" font-family="Arial" font-size="14" font-weight="bold" lengthAdjust="spacing" textLength="18" x="575.5" y="35.2305">SV</text><rect fill="#C0C0C0" height="518.6255" rx="5" ry="5" style="stroke:#181818;stroke-width:0.5;" width="238" x="682.5" y="6"/><text fill="#000000" font-family="Arial" font-size="14" font-weight="bold" lengthAdjust="spacing" textLength="4" x="685.5" y="19.1318">&#160;</text><text fill="#000000" font-family="Arial" font-size="14" font-weight="bold" lengthAdjust="spacing" textLength="220" x="689.5" y="35.2305">LGF (Landesgesundheitsfonds)</text><rect fill="#C0C0C0" height="518.6255" rx="5" ry="5" style="stroke:#181818;stroke-width:0.5;" width="131" x="962.5" y="6"/><text fill="#000000" font-family="Arial" font-size="14" font-weight="bold" lengthAdjust="spacing" textLength="4" x="965.5" y="19.1318">&#160;</text><text fill="#000000" font-family="Arial" font-size="14" font-weight="bold" lengthAdjust="spacing" textLength="37" x="1009.5" y="35.2305">Bund</text><line style="stroke:#181818;stroke-width:0.5;stroke-dasharray:5.0,5.0;" x1="225.5" x2="225.5" y1="118.2959" y2="445.5269"/><line style="stroke:#181818;stroke-width:0.5;stroke-dasharray:5.0,5.0;" x1="412" x2="412" y1="118.2959" y2="445.5269"/><line style="stroke:#181818;stroke-width:0.5;stroke-dasharray:5.0,5.0;" x1="588" x2="588" y1="118.2959" y2="445.5269"/><line style="stroke:#181818;stroke-width:0.5;stroke-dasharray:5.0,5.0;" x1="801" x2="801" y1="118.2959" y2="445.5269"/><line style="stroke:#181818;stroke-width:0.5;stroke-dasharray:5.0,5.0;" x1="1027.5" x2="1027.5" y1="118.2959" y2="445.5269"/><text fill="#000000" font-family="Arial" font-size="14" lengthAdjust="spacing" textLength="19" x="213.5" y="115.3291">KH</text><ellipse cx="226" cy="50.6973" fill="#E2E2F0" rx="8" ry="8" style="stroke:#181818;stroke-width:0.5;"/><path d="M226,58.6973 L226,85.6973 M213,66.6973 L239,66.6973 M226,85.6973 L213,100.6973 M226,85.6973 L239,100.6973 " fill="none" style="stroke:#181818;stroke-width:0.5;"/><text fill="#000000" font-family="Arial" font-size="14" lengthAdjust="spacing" textLength="19" x="213.5" y="457.6587">KH</text><ellipse cx="226" cy="469.1255" fill="#E2E2F0" rx="8" ry="8" style="stroke:#181818;stroke-width:0.5;"/><path d="M226,477.1255 L226,504.1255 M213,485.1255 L239,485.1255 M226,504.1255 L213,519.1255 M226,504.1255 L239,519.1255 " fill="none" style="stroke:#181818;stroke-width:0.5;"/><rect fill="#FFFFFF" height="30.0986" rx="5" ry="5" style="stroke:#555555;stroke-width:0.5;" width="58" x="383" y="87.1973"/><text fill="#000000" font-family="Arial" font-size="14" lengthAdjust="spacing" textLength="44" x="390" y="107.3291">Moped</text><rect fill="#FFFFFF" height="30.0986" rx="5" ry="5" style="stroke:#555555;stroke-width:0.5;" width="58" x="383" y="444.5269"/><text fill="#000000" font-family="Arial" font-size="14" lengthAdjust="spacing" textLength="44" x="390" y="464.6587">Moped</text><text fill="#000000" font-family="Arial" font-size="14" lengthAdjust="spacing" textLength="18" x="576.5" y="115.3291">SV</text><ellipse cx="588.5" cy="50.6973" fill="#E2E2F0" rx="8" ry="8" style="stroke:#181818;stroke-width:0.5;"/><path d="M588.5,58.6973 L588.5,85.6973 M575.5,66.6973 L601.5,66.6973 M588.5,85.6973 L575.5,100.6973 M588.5,85.6973 L601.5,100.6973 " fill="none" style="stroke:#181818;stroke-width:0.5;"/><text fill="#000000" font-family="Arial" font-size="14" lengthAdjust="spacing" textLength="18" x="576.5" y="457.6587">SV</text><ellipse cx="588.5" cy="469.1255" fill="#E2E2F0" rx="8" ry="8" style="stroke:#181818;stroke-width:0.5;"/><path d="M588.5,477.1255 L588.5,504.1255 M575.5,485.1255 L601.5,485.1255 M588.5,504.1255 L575.5,519.1255 M588.5,504.1255 L601.5,519.1255 " fill="none" style="stroke:#181818;stroke-width:0.5;"/><text fill="#000000" font-family="Arial" font-size="14" lengthAdjust="spacing" textLength="201" x="698" y="115.3291">LGF (Landesgesundheitsfonds)</text><ellipse cx="801.5" cy="50.6973" fill="#E2E2F0" rx="8" ry="8" style="stroke:#181818;stroke-width:0.5;"/><path d="M801.5,58.6973 L801.5,85.6973 M788.5,66.6973 L814.5,66.6973 M801.5,85.6973 L788.5,100.6973 M801.5,85.6973 L814.5,100.6973 " fill="none" style="stroke:#181818;stroke-width:0.5;"/><text fill="#000000" font-family="Arial" font-size="14" lengthAdjust="spacing" textLength="201" x="698" y="457.6587">LGF (Landesgesundheitsfonds)</text><ellipse cx="801.5" cy="469.1255" fill="#E2E2F0" rx="8" ry="8" style="stroke:#181818;stroke-width:0.5;"/><path d="M801.5,477.1255 L801.5,504.1255 M788.5,485.1255 L814.5,485.1255 M801.5,504.1255 L788.5,519.1255 M801.5,504.1255 L814.5,519.1255 " fill="none" style="stroke:#181818;stroke-width:0.5;"/><text fill="#000000" font-family="Arial" font-size="14" lengthAdjust="spacing" textLength="33" x="1008.5" y="115.3291">Bund</text><ellipse cx="1028" cy="50.6973" fill="#E2E2F0" rx="8" ry="8" style="stroke:#181818;stroke-width:0.5;"/><path d="M1028,58.6973 L1028,85.6973 M1015,66.6973 L1041,66.6973 M1028,85.6973 L1015,100.6973 M1028,85.6973 L1041,100.6973 " fill="none" style="stroke:#181818;stroke-width:0.5;"/><text fill="#000000" font-family="Arial" font-size="14" lengthAdjust="spacing" textLength="33" x="1008.5" y="457.6587">Bund</text><ellipse cx="1028" cy="469.1255" fill="#E2E2F0" rx="8" ry="8" style="stroke:#181818;stroke-width:0.5;"/><path d="M1028,477.1255 L1028,504.1255 M1015,485.1255 L1041,485.1255 M1028,504.1255 L1015,519.1255 M1028,504.1255 L1041,519.1255 " fill="none" style="stroke:#181818;stroke-width:0.5;"/><path d="M417,138.2959 L417,186.2959 A5,5 0 0 0 422,191.2959 L649,191.2959 A5,5 0 0 0 654,186.2959 L654,143.2959 L644,133.2959 L422,133.2959 A5,5 0 0 0 417,138.2959 " fill="#C5F7BA" filter="url(#f10o4z6syqhdrj)" style="stroke:#8B95A5;stroke-width:1.0;"/><path d="M644,133.2959 L644,140.7959 A2.5,2.5 0 0 0 646.5,143.2959 L654,143.2959 L644,133.2959 " fill="#C5F7BA" style="stroke:#8B95A5;stroke-width:1.0;"/><text fill="#111827" font-family="Arial" font-size="14" lengthAdjust="spacing" textLength="56" x="423" y="151.4277">Zustand:</text><text fill="#111827" font-family="Arial" font-size="14" lengthAdjust="spacing" textLength="154" x="423" y="167.5264">- Moped Fall angelegt &#10003;</text><text fill="#111827" font-family="Arial" font-size="14" lengthAdjust="spacing" textLength="216" x="423" y="183.625">- Aufnahmedaten vollst&#228;ndig &#10003; &#183; x</text><line style="stroke:#111827;stroke-width:2.0;" x1="410" x2="400" y1="220.5405" y2="216.5405"/><line style="stroke:#111827;stroke-width:2.0;" x1="410" x2="400" y1="220.5405" y2="224.5405"/><line style="stroke:#111827;stroke-width:2.0;" x1="226" x2="411" y1="220.5405" y2="220.5405"/><text fill="#000000" font-family="Arial" font-size="13" font-weight="bold" lengthAdjust="spacing" textLength="7" x="233" y="215.7856">1</text><text fill="#000000" font-family="Arial" font-size="13" lengthAdjust="spacing" textLength="86" x="244" y="215.7856">POST $update</text><path d="M5,238.5405 L5,350.5405 A5,5 0 0 0 10,355.5405 L439,355.5405 A5,5 0 0 0 444,350.5405 L444,243.5405 L434,233.5405 L10,233.5405 A5,5 0 0 0 5,238.5405 " fill="url(#g10o4z6syqhdrj0)" filter="url(#f10o4z6syqhdrj)" style="stroke:#8B95A5;stroke-width:1.0;"/><path d="M434,233.5405 L434,241.0405 A2.5,2.5 0 0 0 436.5,243.5405 L444,243.5405 L434,233.5405 " fill="url(#g10o4z6syqhdrj0)" style="stroke:#8B95A5;stroke-width:1.0;"/><text fill="#111827" font-family="Arial" font-size="14" lengthAdjust="spacing" textLength="375" x="11" y="251.6724">Update-Bundle wird gesendet wobei eine Vielzahl an Daten</text><text fill="#111827" font-family="Arial" font-size="14" lengthAdjust="spacing" textLength="356" x="11" y="267.771">hinzugef&#252;gt, aktualisiert oder gel&#246;scht werden kann. F&#252;r</text><text fill="#111827" font-family="Arial" font-size="14" lengthAdjust="spacing" textLength="244" x="11" y="283.8696">die Patientenversorgung relevant sind:</text><text fill="#111827" font-family="Arial" font-size="14" lengthAdjust="spacing" textLength="73" x="11" y="299.9683">- Aufenthalt</text><text fill="#111827" font-family="Arial" font-size="14" lengthAdjust="spacing" textLength="53" x="11" y="316.0669">- Patient</text><text fill="#111827" font-family="Arial" font-size="14" lengthAdjust="spacing" textLength="418" x="11" y="332.1655">- Bewegungen (station&#228;re Verlegungen oder ambulante Kontakte)</text><text fill="#111827" font-family="Arial" font-size="14" lengthAdjust="spacing" textLength="179" x="11" y="348.2642">- Leistungen und Diagnosen</text><path d="M417,374.231 L417,422.231 A5,5 0 0 0 422,427.231 L649,427.231 A5,5 0 0 0 654,422.231 L654,379.231 L644,369.231 L422,369.231 A5,5 0 0 0 417,374.231 " fill="#C5F7BA" filter="url(#f10o4z6syqhdrj)" style="stroke:#8B95A5;stroke-width:1.0;"/><path d="M644,369.231 L644,376.731 A2.5,2.5 0 0 0 646.5,379.231 L654,379.231 L644,369.231 " fill="#C5F7BA" style="stroke:#8B95A5;stroke-width:1.0;"/><text fill="#111827" font-family="Arial" font-size="14" lengthAdjust="spacing" textLength="56" x="423" y="387.3628">Zustand:</text><text fill="#111827" font-family="Arial" font-size="14" lengthAdjust="spacing" textLength="154" x="423" y="403.4614">- Moped Fall angelegt &#10003;</text><text fill="#111827" font-family="Arial" font-size="14" lengthAdjust="spacing" textLength="216" x="423" y="419.5601">- Aufnahmedaten vollst&#228;ndig &#10003; &#183; x</text><!--SRC=[lLJDJjj04BxxAKQX1v2QAeOQ20SaKWX8G1irmA7gPUCTswjiTjFTDKcf-XIzziWpj1TEpPlqIJhh_Db9b6F75tlccszcljcrxGirP8ODeASDH_DEIsrWfr5OO9TH5lTJetF5PuWayay9OJF6zKYe518cBPOYipIZq41O9kMOi5owjbRkFHiWrCwCOBAs6T4LJmZXsyt1QjibZD8EuLi0q5eT01iO9Otw3Wzv4myzeYp0SQyPiMZXlSj4t5TeBOJa-rWQw9Y-EunpFxXdANKJXk7n_X7vkWjfdCan-5vkyEhh48qKgbyQuU9Y4-1UyU85PmANjSSlEQfuEcc76ITYCMJALKQA2bi1hAsri2feNU2ry7mvbS1SbdsVS6QC7gqAKpYNskxFNPigBWBJMWVakgJEXvKP5ypJqDfq1ydRvB2QMLvjPJCjFIvDKF5lqZNewJ7KFYkOs_KLBAtcRmn6pIOLPx6ZF0ep2xNhgrg0YjFr6wzJ57QhXyYhBcABe-IenuXjk1GSRZi5Pv6nXRRxiCBLyC-YCmfxbkx31egRopRitZ0wYZP5IyfcA9nDjE9sRnENntkoRNbR1MWHTckt1S2Ny2ybAfOxhV913qqG57y18zBCWKwyIdFvFkNMKLCdGNqcSvj92KobA35ryFVd3ugSvObYsG0vSwZWKKjftUHPSP5w0Fpv3UEYhAyI1BJN-kaf5Jc1peVk7RpAXpvnreH-HB_wuBvmrdtF4c4a30VIXLZGmKZtK03wc_uWK3wnpBS4vqNv81FgAKyncRoaxZMmlikP55QWeTdeK1ADdFooCOqwGZgb2lfCgJVGdhmO2BX0kg5Ee28kQiLga-Pqm0tD- -XFa1LJDMXcmcHCElgOPT1R2qVe4uXsbvHpGgl9iw4-wSyq3nHTi44lbqI8S4rNbhh4FKg_GM7T5EMtTYvOgZHDNPBlFwxg7m00]--></g></svg>