<?xml version="1.0" encoding="us-ascii" standalone="no"?><svg xmlns="http://www.w3.org/2000/svg" xmlns:xlink="http://www.w3.org/1999/xlink" contentStyleType="text/css" height="450px" preserveAspectRatio="none" style="width:822px;height:450px;background:#F5F5F5;" version="1.1" viewBox="0 0 822 450" width="822px" zoomAndPan="magnify"><defs><filter height="300%" id="fmiatir7nxvs0" width="300%" x="-1" y="-1"><feGaussianBlur result="blurOut" stdDeviation="2.0"/><feColorMatrix in="blurOut" result="blurOut2" type="matrix" values="0 0 0 0 0 0 0 0 0 0 0 0 0 0 0 0 0 0 .4 0"/><feOffset dx="4.0" dy="4.0" in="blurOut2" result="blurOut3"/><feBlend in="SourceGraphic" in2="blurOut3" mode="normal"/></filter><linearGradient id="gmiatir7nxvs00" x1="50%" x2="50%" y1="0%" y2="100%"><stop offset="0%" stop-color="#E0E5F0"/><stop offset="100%" stop-color="#D1D9E6"/></linearGradient></defs><g><rect fill="#F5F5F5" height="450" style="stroke:none;stroke-width:1.0;" width="822" x="0" y="0"/><rect fill="#F5E599" height="438.1323" rx="5" ry="5" style="stroke:#181818;stroke-width:0.5;" width="371" x="21" y="6"/><text fill="#000000" font-family="Arial" font-size="14" font-weight="bold" lengthAdjust="spacing" textLength="4" x="24" y="19.1318">&#160;</text><text fill="#000000" font-family="Arial" font-size="14" font-weight="bold" lengthAdjust="spacing" textLength="197" x="108" y="35.2305">KH (Herz-Jesu Krankenhaus)</text><rect fill="#C5F7BA" height="438.1323" rx="5" ry="5" style="stroke:#181818;stroke-width:0.5;" width="333" x="479" y="6"/><text fill="#000000" font-family="Arial" font-size="14" font-weight="bold" lengthAdjust="spacing" textLength="4" x="482" y="19.1318">&#160;</text><text fill="#000000" font-family="Arial" font-size="14" font-weight="bold" lengthAdjust="spacing" textLength="47" x="622" y="35.2305">Moped</text><line style="stroke:#181818;stroke-width:0.5;stroke-dasharray:5.0,5.0;" x1="206.5" x2="206.5" y1="118.2959" y2="365.0337"/><line style="stroke:#181818;stroke-width:0.5;stroke-dasharray:5.0,5.0;" x1="645.5" x2="645.5" y1="118.2959" y2="365.0337"/><text fill="#000000" font-family="Arial" font-size="14" lengthAdjust="spacing" textLength="186" x="110.5" y="115.3291">KH (Herz-Jesu Krankenhaus)</text><ellipse cx="206.5" cy="50.6973" fill="#E2E2F0" rx="8" ry="8" style="stroke:#181818;stroke-width:0.5;"/><path d="M206.5,58.6973 L206.5,85.6973 M193.5,66.6973 L219.5,66.6973 M206.5,85.6973 L193.5,100.6973 M206.5,85.6973 L219.5,100.6973 " fill="none" style="stroke:#181818;stroke-width:0.5;"/><text fill="#000000" font-family="Arial" font-size="14" lengthAdjust="spacing" textLength="186" x="110.5" y="377.1655">KH (Herz-Jesu Krankenhaus)</text><ellipse cx="206.5" cy="388.6323" fill="#E2E2F0" rx="8" ry="8" style="stroke:#181818;stroke-width:0.5;"/><path d="M206.5,396.6323 L206.5,423.6323 M193.5,404.6323 L219.5,404.6323 M206.5,423.6323 L193.5,438.6323 M206.5,423.6323 L219.5,438.6323 " fill="none" style="stroke:#181818;stroke-width:0.5;"/><rect fill="#FFFFFF" height="30.0986" rx="5" ry="5" style="stroke:#555555;stroke-width:0.5;" width="58" x="616.5" y="87.1973"/><text fill="#000000" font-family="Arial" font-size="14" lengthAdjust="spacing" textLength="44" x="623.5" y="107.3291">Moped</text><rect fill="#FFFFFF" height="30.0986" rx="5" ry="5" style="stroke:#555555;stroke-width:0.5;" width="58" x="616.5" y="364.0337"/><text fill="#000000" font-family="Arial" font-size="14" lengthAdjust="spacing" textLength="44" x="623.5" y="384.1655">Moped</text><path d="M650,138.2959 L650,170.2959 A5,5 0 0 0 655,175.2959 L805,175.2959 A5,5 0 0 0 810,170.2959 L810,143.2959 L800,133.2959 L655,133.2959 A5,5 0 0 0 650,138.2959 " fill="#C5F7BA" filter="url(#fmiatir7nxvs0)" style="stroke:#8B95A5;stroke-width:1.0;"/><path d="M800,133.2959 L800,140.7959 A2.5,2.5 0 0 0 802.5,143.2959 L810,143.2959 L800,133.2959 " fill="#C5F7BA" style="stroke:#8B95A5;stroke-width:1.0;"/><text fill="#111827" font-family="Arial" font-size="14" lengthAdjust="spacing" textLength="56" x="656" y="151.4277">Zustand:</text><text fill="#111827" font-family="Arial" font-size="14" lengthAdjust="spacing" textLength="139" x="656" y="167.5264">- Moped Fall angelegt</text><line style="stroke:#111827;stroke-width:2.0;" x1="643.5" x2="633.5" y1="204.4419" y2="200.4419"/><line style="stroke:#111827;stroke-width:2.0;" x1="643.5" x2="633.5" y1="204.4419" y2="208.4419"/><line style="stroke:#111827;stroke-width:2.0;" x1="206.5" x2="644.5" y1="204.4419" y2="204.4419"/><text fill="#000000" font-family="Arial" font-size="13" font-weight="bold" lengthAdjust="spacing" textLength="7" x="213.5" y="199.687">1</text><text fill="#000000" font-family="Arial" font-size="13" lengthAdjust="spacing" textLength="205" x="224.5" y="199.687">$update (POST TransferEncounter)</text><path d="M77,222.4419 L77,286.4419 A5,5 0 0 0 82,291.4419 L328,291.4419 A5,5 0 0 0 333,286.4419 L333,227.4419 L323,217.4419 L82,217.4419 A5,5 0 0 0 77,222.4419 " fill="url(#gmiatir7nxvs00)" filter="url(#fmiatir7nxvs0)" style="stroke:#8B95A5;stroke-width:1.0;"/><path d="M323,217.4419 L323,224.9419 A2.5,2.5 0 0 0 325.5,227.4419 L333,227.4419 L323,217.4419 " fill="url(#gmiatir7nxvs00)" style="stroke:#8B95A5;stroke-width:1.0;"/><text fill="#111827" font-family="Arial" font-size="14" lengthAdjust="spacing" textLength="235" x="83" y="235.5737">TransferEncounter wird gesendet mit</text><text fill="#111827" font-family="Arial" font-size="14" lengthAdjust="spacing" textLength="180" x="83" y="251.6724">- Verweis auf Funktionscode</text><text fill="#111827" font-family="Arial" font-size="14" lengthAdjust="spacing" textLength="86" x="83" y="267.771">- Start-Datum</text><text fill="#111827" font-family="Arial" font-size="14" lengthAdjust="spacing" textLength="110" x="83" y="283.8696">- ggf. Abgangsart</text><path d="M650,309.8364 L650,341.8364 A5,5 0 0 0 655,346.8364 L752,346.8364 A5,5 0 0 0 757,341.8364 L757,314.8364 L747,304.8364 L655,304.8364 A5,5 0 0 0 650,309.8364 " fill="#C5F7BA" filter="url(#fmiatir7nxvs0)" style="stroke:#8B95A5;stroke-width:1.0;"/><path d="M747,304.8364 L747,312.3364 A2.5,2.5 0 0 0 749.5,314.8364 L757,314.8364 L747,304.8364 " fill="#C5F7BA" style="stroke:#8B95A5;stroke-width:1.0;"/><text fill="#111827" font-family="Arial" font-size="14" lengthAdjust="spacing" textLength="56" x="656" y="322.9683">Zustand:</text><text fill="#111827" font-family="Arial" font-size="14" lengthAdjust="spacing" textLength="86" x="656" y="339.0669">- unver&#228;ndert</text><!--SRC=[ZLDDRzD04BtlhnYv7Df3K9pMRT93fHGI8gf2H087n6Nj7JihExjcFqXQnB_Xd_37M3jVwyIWJYxnp9itxyreTSv5IHLTGYmLG_L65bB1MRSEeWzLckIPabQmBIADgf-7q0lAv8gB359QQFGgspObK47eap9CgItCM0hpWIuHWg7Yj0ZQ4JF-Z11UjHURiZsCa0RX9m6uFpQ0NOpIRkUCXMo0rnN2Nq0_7aGqscVd2vxa0hM6qEK-UORwxdjA6QkCLooUcZ0C-xqRbvljLsEKHVBB5pXvAb4LNEIUXT6e3V1PiFeFRXVixnw_MnJ9nkcKAiCJNb9X6fQYEeu09sUjemawNV19UNUSHc6tbbxLC5HAheuNKoSFk-tjKcqJzuNDh4kNUkUKbmsFU-PDwSJTPNgLNZSx_TCsBdClrvw3HhvjhoIMQmY-2MYBXmcSJr0zTzwZjl2WgCXHBAZL5wtme7fV60q6JYfDZ9lY2AY6uDyy0K71t2DU_rz8CnvbYUm5EASdYTARc3ezvU70y3YjLTKqdW12hP72BcDKXDGlKF5iOK2cLSUEwglLXWfsIpfR7MDQ5415XWLcfcQhUWbnfZjtTwxr5bxPab77TpxzE9l3tFdNAQgHIDoH3QgBxJZv0wkLaHC0hBXYaA5sx6XWoOsR_WNL2ha6QbCOMv4RBeLE94DNcnbdj_EM6hjqNrcMlePXd3cHskKzZIznQOMJzUTtzOozrhy0]--></g></svg>