<?xml version="1.0" encoding="us-ascii" standalone="no"?><svg xmlns="http://www.w3.org/2000/svg" xmlns:xlink="http://www.w3.org/1999/xlink" contentStyleType="text/css" height="561px" preserveAspectRatio="none" style="width:978px;height:561px;background:#F5F5F5;" version="1.1" viewBox="0 0 978 561" width="978px" zoomAndPan="magnify"><defs><filter height="300%" id="f9umffskynvm1" width="300%" x="-1" y="-1"><feGaussianBlur result="blurOut" stdDeviation="2.0"/><feColorMatrix in="blurOut" result="blurOut2" type="matrix" values="0 0 0 0 0 0 0 0 0 0 0 0 0 0 0 0 0 0 .4 0"/><feOffset dx="4.0" dy="4.0" in="blurOut2" result="blurOut3"/><feBlend in="SourceGraphic" in2="blurOut3" mode="normal"/></filter><linearGradient id="g9umffskynvm10" x1="50%" x2="50%" y1="0%" y2="100%"><stop offset="0%" stop-color="#E0E5F0"/><stop offset="100%" stop-color="#D1D9E6"/></linearGradient></defs><g><rect fill="#F5F5F5" height="561" style="stroke:none;stroke-width:1.0;" width="978" x="0" y="0"/><rect fill="#F5E599" height="549.1797" rx="5" ry="5" style="stroke:#181818;stroke-width:0.5;" width="371" x="21" y="6"/><text fill="#000000" font-family="Arial" font-size="14" font-weight="bold" lengthAdjust="spacing" textLength="4" x="24" y="19.1318">&#160;</text><text fill="#000000" font-family="Arial" font-size="14" font-weight="bold" lengthAdjust="spacing" textLength="197" x="108" y="35.2305">KH (Herz-Jesu Krankenhaus)</text><rect fill="#C5F7BA" height="549.1797" rx="5" ry="5" style="stroke:#181818;stroke-width:0.5;" width="333" x="460" y="6"/><text fill="#000000" font-family="Arial" font-size="14" font-weight="bold" lengthAdjust="spacing" textLength="4" x="463" y="19.1318">&#160;</text><text fill="#000000" font-family="Arial" font-size="14" font-weight="bold" lengthAdjust="spacing" textLength="47" x="603" y="35.2305">Moped</text><rect fill="#FFFFFF" height="28" style="stroke:#181818;stroke-width:1.0;" width="10" x="621.5" y="296.5879"/><line style="stroke:#181818;stroke-width:0.5;stroke-dasharray:5.0,5.0;" x1="206.5" x2="206.5" y1="118.2959" y2="476.0811"/><line style="stroke:#181818;stroke-width:0.5;stroke-dasharray:5.0,5.0;" x1="626.5" x2="626.5" y1="118.2959" y2="476.0811"/><text fill="#000000" font-family="Arial" font-size="14" lengthAdjust="spacing" textLength="186" x="110.5" y="115.3291">KH (Herz-Jesu Krankenhaus)</text><ellipse cx="206.5" cy="50.6973" fill="#E2E2F0" rx="8" ry="8" style="stroke:#181818;stroke-width:0.5;"/><path d="M206.5,58.6973 L206.5,85.6973 M193.5,66.6973 L219.5,66.6973 M206.5,85.6973 L193.5,100.6973 M206.5,85.6973 L219.5,100.6973 " fill="none" style="stroke:#181818;stroke-width:0.5;"/><text fill="#000000" font-family="Arial" font-size="14" lengthAdjust="spacing" textLength="186" x="110.5" y="488.2129">KH (Herz-Jesu Krankenhaus)</text><ellipse cx="206.5" cy="499.6797" fill="#E2E2F0" rx="8" ry="8" style="stroke:#181818;stroke-width:0.5;"/><path d="M206.5,507.6797 L206.5,534.6797 M193.5,515.6797 L219.5,515.6797 M206.5,534.6797 L193.5,549.6797 M206.5,534.6797 L219.5,549.6797 " fill="none" style="stroke:#181818;stroke-width:0.5;"/><rect fill="#FFFFFF" height="30.0986" rx="5" ry="5" style="stroke:#555555;stroke-width:0.5;" width="58" x="597.5" y="87.1973"/><text fill="#000000" font-family="Arial" font-size="14" lengthAdjust="spacing" textLength="44" x="604.5" y="107.3291">Moped</text><rect fill="#FFFFFF" height="30.0986" rx="5" ry="5" style="stroke:#555555;stroke-width:0.5;" width="58" x="597.5" y="475.0811"/><text fill="#000000" font-family="Arial" font-size="14" lengthAdjust="spacing" textLength="44" x="604.5" y="495.2129">Moped</text><rect fill="#FFFFFF" height="28" style="stroke:#181818;stroke-width:1.0;" width="10" x="621.5" y="296.5879"/><path d="M631,138.2959 L631,170.2959 A5,5 0 0 0 636,175.2959 L786,175.2959 A5,5 0 0 0 791,170.2959 L791,143.2959 L781,133.2959 L636,133.2959 A5,5 0 0 0 631,138.2959 " fill="#C5F7BA" filter="url(#f9umffskynvm1)" style="stroke:#8B95A5;stroke-width:1.0;"/><path d="M781,133.2959 L781,140.7959 A2.5,2.5 0 0 0 783.5,143.2959 L791,143.2959 L781,133.2959 " fill="#C5F7BA" style="stroke:#8B95A5;stroke-width:1.0;"/><text fill="#111827" font-family="Arial" font-size="14" lengthAdjust="spacing" textLength="56" x="637" y="151.4277">Zustand:</text><text fill="#111827" font-family="Arial" font-size="14" lengthAdjust="spacing" textLength="139" x="637" y="167.5264">- Moped Fall angelegt</text><line style="stroke:#111827;stroke-width:2.0;" x1="624.5" x2="614.5" y1="204.4419" y2="200.4419"/><line style="stroke:#111827;stroke-width:2.0;" x1="624.5" x2="614.5" y1="204.4419" y2="208.4419"/><line style="stroke:#111827;stroke-width:2.0;" x1="206.5" x2="625.5" y1="204.4419" y2="204.4419"/><text fill="#000000" font-family="Arial" font-size="13" font-weight="bold" lengthAdjust="spacing" textLength="7" x="213.5" y="199.687">1</text><text fill="#000000" font-family="Arial" font-size="13" lengthAdjust="spacing" textLength="186" x="224.5" y="199.687">$update (PUT MopedEncounter)</text><path d="M82,222.4419 L82,254.4419 A5,5 0 0 0 87,259.4419 L323,259.4419 A5,5 0 0 0 328,254.4419 L328,227.4419 L318,217.4419 L87,217.4419 A5,5 0 0 0 82,222.4419 " fill="url(#g9umffskynvm10)" filter="url(#f9umffskynvm1)" style="stroke:#8B95A5;stroke-width:1.0;"/><path d="M318,217.4419 L318,224.9419 A2.5,2.5 0 0 0 320.5,227.4419 L328,227.4419 L318,217.4419 " fill="url(#g9umffskynvm10)" style="stroke:#8B95A5;stroke-width:1.0;"/><text fill="#111827" font-family="Arial" font-size="14" lengthAdjust="spacing" textLength="225" x="88" y="235.5737">MopedEncounter wird gesendet mit</text><text fill="#111827" font-family="Arial" font-size="14" lengthAdjust="spacing" textLength="140" x="88" y="251.6724">- aktualisierten Details</text><line style="stroke:#111827;stroke-width:2.0;" x1="631.5" x2="673.5" y1="288.5879" y2="288.5879"/><line style="stroke:#111827;stroke-width:2.0;" x1="673.5" x2="673.5" y1="288.5879" y2="301.5879"/><line style="stroke:#111827;stroke-width:2.0;" x1="632.5" x2="673.5" y1="301.5879" y2="301.5879"/><polygon fill="#111827" points="642.5,297.5879,632.5,301.5879,642.5,305.5879,638.5,301.5879" style="stroke:#111827;stroke-width:1.0;"/><text fill="#000000" font-family="Arial" font-size="13" font-weight="bold" lengthAdjust="spacing" textLength="7" x="638.5" y="283.833">2</text><text fill="#000000" font-family="Arial" font-size="13" lengthAdjust="spacing" textLength="92" x="649.5" y="283.833">&#9733;&#10022;&#9733;&#10022;&#9733;&#10022;&#9733;&#10022;</text><path d="M631,349.5879 L631,397.5879 A5,5 0 0 0 636,402.5879 L961,402.5879 A5,5 0 0 0 966,397.5879 L966,354.5879 L956,344.5879 L636,344.5879 A5,5 0 0 0 631,349.5879 " fill="url(#g9umffskynvm10)" filter="url(#f9umffskynvm1)" style="stroke:#8B95A5;stroke-width:1.0;"/><path d="M956,344.5879 L956,352.0879 A2.5,2.5 0 0 0 958.5,354.5879 L966,354.5879 L956,344.5879 " fill="url(#g9umffskynvm10)" style="stroke:#8B95A5;stroke-width:1.0;"/><text fill="#111827" font-family="Arial" font-size="14" lengthAdjust="spacing" textLength="247" x="637" y="362.7197">manche ge&#228;nderte Elemente bedingen</text><text fill="#111827" font-family="Arial" font-size="14" lengthAdjust="spacing" textLength="221" x="637" y="378.8184">eine automatische Stornierung von</text><text fill="#111827" font-family="Arial" font-size="14" lengthAdjust="spacing" textLength="314" x="637" y="394.917">Ressourcen (z.B. LKFRequest oder VAERequest)</text><path d="M631,420.8838 L631,452.8838 A5,5 0 0 0 636,457.8838 L733,457.8838 A5,5 0 0 0 738,452.8838 L738,425.8838 L728,415.8838 L636,415.8838 A5,5 0 0 0 631,420.8838 " fill="#C5F7BA" filter="url(#f9umffskynvm1)" style="stroke:#8B95A5;stroke-width:1.0;"/><path d="M728,415.8838 L728,423.3838 A2.5,2.5 0 0 0 730.5,425.8838 L738,425.8838 L728,415.8838 " fill="#C5F7BA" style="stroke:#8B95A5;stroke-width:1.0;"/><text fill="#111827" font-family="Arial" font-size="14" lengthAdjust="spacing" textLength="56" x="637" y="434.0156">Zustand:</text><text fill="#111827" font-family="Arial" font-size="14" lengthAdjust="spacing" textLength="86" x="637" y="450.1143">- unver&#228;ndert</text><!--SRC=[ZLJDJXin4BxxAQpG0no2M210E2116ueAL14_FLIzJDQpYPLTU-iVe5GzzXrwwB7gY_HDU9AEDvl4IxOLZXJ5Cz_CVFED9tOgLGa62ZxIHg1vhNDj-DfMTPXTUY6TZetsIjI8h1S-4S9EGEXxgSOyWznYvAd3Z4B3apYfm0nyxawrSk-XGDuvDXBoJZlYMZuYJtRRdKtQ4KPfX_mhu_paUGEuXRrigxic4j77lO281JWOzNlGMrXl9ZATAhIM9sIxYXeweFiGX0YDXomHcoH93hRtoNQzaCOPZ-nRJF3iIuacbseQjJ0Oj05kbQX-O2rmh3r-zgZIMQT3C4wciWJb6YtrglCCi3BMwZH1gmAlkEV3QJZcico7W6DZzFrpOIhZKjljkQcjui8ngxL3fhV4l6pqkCWySwrqjvFjPdlDo7YqZScSw8UeWuQzJLSsqW-yyqdnjdD-njVFq3nstw7r_Do0cgAQWBSRhV1Es2_izVj45L97LIW1MDxvTvuEGoLeYH_-JwHvBdM9uWKuufFsilqH49zoEM1-EQnOLMaY0WoyqyeN8pICLHjev7ZYkCv2n3pLHsyTA778kZMFKyXp3cgCEOvTbIt4CaPDTu-EAFIGl_Ab0CgtFhozcKKDL4e3TcWswbBw3eDShEdbzz88FaPBQT7nGZeg2rFd8PTMed6e-1jq87CRLIQstLdXfn_Vdtx-NlrcD1vv5oXT3fd0-BRIEIj0fHCa5dz-XLqcxo370eaV7s5uQ4I2OTZm8601Jjg0lwO7e8YZfvTufnMxeiUglKa9lVwuURB9ByvFhy8_WAL2b9T_E1xKzusecHTDmYkIhwQtZFqB]--></g></svg>