<?xml version="1.0" encoding="us-ascii" standalone="no"?><svg xmlns="http://www.w3.org/2000/svg" xmlns:xlink="http://www.w3.org/1999/xlink" contentStyleType="text/css" height="482px" preserveAspectRatio="none" style="width:1006px;height:482px;background:#F5F5F5;" version="1.1" viewBox="0 0 1006 482" width="1006px" zoomAndPan="magnify"><defs><filter height="300%" id="f1au6fe2ymh4w0" width="300%" x="-1" y="-1"><feGaussianBlur result="blurOut" stdDeviation="2.0"/><feColorMatrix in="blurOut" result="blurOut2" type="matrix" values="0 0 0 0 0 0 0 0 0 0 0 0 0 0 0 0 0 0 .4 0"/><feOffset dx="4.0" dy="4.0" in="blurOut2" result="blurOut3"/><feBlend in="SourceGraphic" in2="blurOut3" mode="normal"/></filter><linearGradient id="g1au6fe2ymh4w00" x1="50%" x2="50%" y1="0%" y2="100%"><stop offset="0%" stop-color="#E0E5F0"/><stop offset="100%" stop-color="#D1D9E6"/></linearGradient></defs><g><rect fill="#F5F5F5" height="482" style="stroke:none;stroke-width:1.0;" width="1006" x="0" y="0"/><rect fill="#F5E599" height="470.3296" rx="5" ry="5" style="stroke:#181818;stroke-width:0.5;" width="371" x="21" y="6"/><text fill="#000000" font-family="Arial" font-size="14" font-weight="bold" lengthAdjust="spacing" textLength="4" x="24" y="19.1318">&#160;</text><text fill="#000000" font-family="Arial" font-size="14" font-weight="bold" lengthAdjust="spacing" textLength="197" x="108" y="35.2305">KH (Herz-Jesu Krankenhaus)</text><rect fill="#C5F7BA" height="470.3296" rx="5" ry="5" style="stroke:#181818;stroke-width:0.5;" width="333" x="479" y="6"/><text fill="#000000" font-family="Arial" font-size="14" font-weight="bold" lengthAdjust="spacing" textLength="4" x="482" y="19.1318">&#160;</text><text fill="#000000" font-family="Arial" font-size="14" font-weight="bold" lengthAdjust="spacing" textLength="47" x="622" y="35.2305">Moped</text><line style="stroke:#181818;stroke-width:0.5;stroke-dasharray:5.0,5.0;" x1="206.5" x2="206.5" y1="118.2959" y2="397.231"/><line style="stroke:#181818;stroke-width:0.5;stroke-dasharray:5.0,5.0;" x1="645.5" x2="645.5" y1="118.2959" y2="397.231"/><text fill="#000000" font-family="Arial" font-size="14" lengthAdjust="spacing" textLength="186" x="110.5" y="115.3291">KH (Herz-Jesu Krankenhaus)</text><ellipse cx="206.5" cy="50.6973" fill="#E2E2F0" rx="8" ry="8" style="stroke:#181818;stroke-width:0.5;"/><path d="M206.5,58.6973 L206.5,85.6973 M193.5,66.6973 L219.5,66.6973 M206.5,85.6973 L193.5,100.6973 M206.5,85.6973 L219.5,100.6973 " fill="none" style="stroke:#181818;stroke-width:0.5;"/><text fill="#000000" font-family="Arial" font-size="14" lengthAdjust="spacing" textLength="186" x="110.5" y="409.3628">KH (Herz-Jesu Krankenhaus)</text><ellipse cx="206.5" cy="420.8296" fill="#E2E2F0" rx="8" ry="8" style="stroke:#181818;stroke-width:0.5;"/><path d="M206.5,428.8296 L206.5,455.8296 M193.5,436.8296 L219.5,436.8296 M206.5,455.8296 L193.5,470.8296 M206.5,455.8296 L219.5,470.8296 " fill="none" style="stroke:#181818;stroke-width:0.5;"/><rect fill="#FFFFFF" height="30.0986" rx="5" ry="5" style="stroke:#555555;stroke-width:0.5;" width="58" x="616.5" y="87.1973"/><text fill="#000000" font-family="Arial" font-size="14" lengthAdjust="spacing" textLength="44" x="623.5" y="107.3291">Moped</text><rect fill="#FFFFFF" height="30.0986" rx="5" ry="5" style="stroke:#555555;stroke-width:0.5;" width="58" x="616.5" y="396.231"/><text fill="#000000" font-family="Arial" font-size="14" lengthAdjust="spacing" textLength="44" x="623.5" y="416.3628">Moped</text><path d="M650,138.2959 L650,202.2959 A5,5 0 0 0 655,207.2959 L989,207.2959 A5,5 0 0 0 994,202.2959 L994,143.2959 L984,133.2959 L655,133.2959 A5,5 0 0 0 650,138.2959 " fill="#C5F7BA" filter="url(#f1au6fe2ymh4w0)" style="stroke:#8B95A5;stroke-width:1.0;"/><path d="M984,133.2959 L984,140.7959 A2.5,2.5 0 0 0 986.5,143.2959 L994,143.2959 L984,133.2959 " fill="#C5F7BA" style="stroke:#8B95A5;stroke-width:1.0;"/><text fill="#111827" font-family="Arial" font-size="14" lengthAdjust="spacing" textLength="56" x="656" y="151.4277">Zustand:</text><text fill="#111827" font-family="Arial" font-size="14" lengthAdjust="spacing" textLength="139" x="656" y="167.5264">- Moped Fall angelegt</text><text fill="#111827" font-family="Arial" font-size="14" lengthAdjust="spacing" textLength="323" x="656" y="183.625">- keine vorl&#228;ufige/finale Abrechnung unbeantwortet</text><text fill="#111827" font-family="Arial" font-size="14" lengthAdjust="spacing" textLength="233" x="656" y="199.7236">- keine finale Abrechnung genehmigt</text><line style="stroke:#111827;stroke-width:2.0;" x1="643.5" x2="633.5" y1="236.6392" y2="232.6392"/><line style="stroke:#111827;stroke-width:2.0;" x1="643.5" x2="633.5" y1="236.6392" y2="240.6392"/><line style="stroke:#111827;stroke-width:2.0;" x1="206.5" x2="644.5" y1="236.6392" y2="236.6392"/><text fill="#000000" font-family="Arial" font-size="13" font-weight="bold" lengthAdjust="spacing" textLength="7" x="213.5" y="231.8843">1</text><text fill="#000000" font-family="Arial" font-size="13" lengthAdjust="spacing" textLength="205" x="224.5" y="231.8843">$update (POST TransferEncounter)</text><path d="M77,254.6392 L77,318.6392 A5,5 0 0 0 82,323.6392 L328,323.6392 A5,5 0 0 0 333,318.6392 L333,259.6392 L323,249.6392 L82,249.6392 A5,5 0 0 0 77,254.6392 " fill="url(#g1au6fe2ymh4w00)" filter="url(#f1au6fe2ymh4w0)" style="stroke:#8B95A5;stroke-width:1.0;"/><path d="M323,249.6392 L323,257.1392 A2.5,2.5 0 0 0 325.5,259.6392 L333,259.6392 L323,249.6392 " fill="url(#g1au6fe2ymh4w00)" style="stroke:#8B95A5;stroke-width:1.0;"/><text fill="#111827" font-family="Arial" font-size="14" lengthAdjust="spacing" textLength="235" x="83" y="267.771">TransferEncounter wird gesendet mit</text><text fill="#111827" font-family="Arial" font-size="14" lengthAdjust="spacing" textLength="180" x="83" y="283.8696">- Verweis auf Funktionscode</text><text fill="#111827" font-family="Arial" font-size="14" lengthAdjust="spacing" textLength="86" x="83" y="299.9683">- Start-Datum</text><text fill="#111827" font-family="Arial" font-size="14" lengthAdjust="spacing" textLength="110" x="83" y="316.0669">- ggf. Abgangsart</text><path d="M650,342.0337 L650,374.0337 A5,5 0 0 0 655,379.0337 L752,379.0337 A5,5 0 0 0 757,374.0337 L757,347.0337 L747,337.0337 L655,337.0337 A5,5 0 0 0 650,342.0337 " fill="#C5F7BA" filter="url(#f1au6fe2ymh4w0)" style="stroke:#8B95A5;stroke-width:1.0;"/><path d="M747,337.0337 L747,344.5337 A2.5,2.5 0 0 0 749.5,347.0337 L757,347.0337 L747,337.0337 " fill="#C5F7BA" style="stroke:#8B95A5;stroke-width:1.0;"/><text fill="#111827" font-family="Arial" font-size="14" lengthAdjust="spacing" textLength="56" x="656" y="355.1655">Zustand:</text><text fill="#111827" font-family="Arial" font-size="14" lengthAdjust="spacing" textLength="86" x="656" y="371.2642">- unver&#228;ndert</text><!--SRC=[ZLHDKzim4BtxLsX23_IG5WC6me4PQA5C6TfCGtlez29RAqTZP-NgWr0w_JVy4_vOLoOVCd4xR2xnxjlLUsyjsqfXmmsViLmR0UQThhLXMpjj97PTvKLL6krHB10o2xy8OQTSwBd2aabUMuWgYpQ3O5WQ3nKWkQ_TXKRtYS-03KwDulMW7p5Hzy3I_VvYbtQ4GUs0_KuOEtik07OWapl3BP6A4Hm4H6p0KJxAUBRAtanLKI5OorBAVOa47T7pc0iHX8Sf4PiqJOzs3oatMLdZZ8VaJqpmybS3fbPOHHBEp_i0Nr6qVs1XSEmz_FI0nPFICJTE5QhXw3gIiZQU0JRMsaONj6dmHdcvd4vXQSjkQ3WrHi-V6zCcrzxkBbDz9wuAJsVjKUe3CMyw6bUJdqeRwlRalZpeTiQhxMpcJDz52ZhvFb-JND-nmGzaVN5roROlmTmFFuBrxCfmh02dtDlNlV11k5-GZKP4bHUEJg41tBB1l-SC4a11b_Zk_qIwSQqR42_04PyYauSv9pxDUi7iUjooQiT411BkdKO_oy4aINi3ZIgdZcaPEfQZldlhE8hZPBZWSS7hcd4ieORIKRQ2yBBVQbC_FdYfIdWh5V8Qs6bke9YYfyrup86OpBLniExPn9M0C9qfcXjO1av9GcOEJqw8qZ5xvHl1YUVs-FFaXjsGhrQ2ESU2NXu7vlL2Xhw5i8fa0y3coWWwnD9qS6oc0fTlOEQWBEDUiWkFbLCQRQ45K6tYoCRXU-xyZ9xAKhuXjYM9jvIFEBx4FOz4w_4XV1wYrhy0]--></g></svg>