<?xml version="1.0" encoding="us-ascii" standalone="no"?><svg xmlns="http://www.w3.org/2000/svg" xmlns:xlink="http://www.w3.org/1999/xlink" contentStyleType="text/css" height="450px" preserveAspectRatio="none" style="width:961px;height:450px;background:#F5F5F5;" version="1.1" viewBox="0 0 961 450" width="961px" zoomAndPan="magnify"><defs><filter height="300%" id="fzeeh353b15ii" width="300%" x="-1" y="-1"><feGaussianBlur result="blurOut" stdDeviation="2.0"/><feColorMatrix in="blurOut" result="blurOut2" type="matrix" values="0 0 0 0 0 0 0 0 0 0 0 0 0 0 0 0 0 0 .4 0"/><feOffset dx="4.0" dy="4.0" in="blurOut2" result="blurOut3"/><feBlend in="SourceGraphic" in2="blurOut3" mode="normal"/></filter><linearGradient id="gzeeh353b15ii0" x1="50%" x2="50%" y1="0%" y2="100%"><stop offset="0%" stop-color="#E0E5F0"/><stop offset="100%" stop-color="#D1D9E6"/></linearGradient></defs><g><rect fill="#F5F5F5" height="450" style="stroke:none;stroke-width:1.0;" width="961" x="0" y="0"/><rect fill="#F5E599" height="438.1323" rx="5" ry="5" style="stroke:#181818;stroke-width:0.5;" width="371" x="21" y="6"/><text fill="#000000" font-family="Arial" font-size="14" font-weight="bold" lengthAdjust="spacing" textLength="4" x="24" y="19.1318">&#160;</text><text fill="#000000" font-family="Arial" font-size="14" font-weight="bold" lengthAdjust="spacing" textLength="197" x="108" y="35.2305">KH (Herz-Jesu Krankenhaus)</text><rect fill="#C5F7BA" height="438.1323" rx="5" ry="5" style="stroke:#181818;stroke-width:0.5;" width="333" x="434" y="6"/><text fill="#000000" font-family="Arial" font-size="14" font-weight="bold" lengthAdjust="spacing" textLength="4" x="437" y="19.1318">&#160;</text><text fill="#000000" font-family="Arial" font-size="14" font-weight="bold" lengthAdjust="spacing" textLength="47" x="577" y="35.2305">Moped</text><line style="stroke:#181818;stroke-width:0.5;stroke-dasharray:5.0,5.0;" x1="206.5" x2="206.5" y1="118.2959" y2="365.0337"/><line style="stroke:#181818;stroke-width:0.5;stroke-dasharray:5.0,5.0;" x1="600.5" x2="600.5" y1="118.2959" y2="365.0337"/><text fill="#000000" font-family="Arial" font-size="14" lengthAdjust="spacing" textLength="186" x="110.5" y="115.3291">KH (Herz-Jesu Krankenhaus)</text><ellipse cx="206.5" cy="50.6973" fill="#E2E2F0" rx="8" ry="8" style="stroke:#181818;stroke-width:0.5;"/><path d="M206.5,58.6973 L206.5,85.6973 M193.5,66.6973 L219.5,66.6973 M206.5,85.6973 L193.5,100.6973 M206.5,85.6973 L219.5,100.6973 " fill="none" style="stroke:#181818;stroke-width:0.5;"/><text fill="#000000" font-family="Arial" font-size="14" lengthAdjust="spacing" textLength="186" x="110.5" y="377.1655">KH (Herz-Jesu Krankenhaus)</text><ellipse cx="206.5" cy="388.6323" fill="#E2E2F0" rx="8" ry="8" style="stroke:#181818;stroke-width:0.5;"/><path d="M206.5,396.6323 L206.5,423.6323 M193.5,404.6323 L219.5,404.6323 M206.5,423.6323 L193.5,438.6323 M206.5,423.6323 L219.5,438.6323 " fill="none" style="stroke:#181818;stroke-width:0.5;"/><rect fill="#FFFFFF" height="30.0986" rx="5" ry="5" style="stroke:#555555;stroke-width:0.5;" width="58" x="571.5" y="87.1973"/><text fill="#000000" font-family="Arial" font-size="14" lengthAdjust="spacing" textLength="44" x="578.5" y="107.3291">Moped</text><rect fill="#FFFFFF" height="30.0986" rx="5" ry="5" style="stroke:#555555;stroke-width:0.5;" width="58" x="571.5" y="364.0337"/><text fill="#000000" font-family="Arial" font-size="14" lengthAdjust="spacing" textLength="44" x="578.5" y="384.1655">Moped</text><path d="M605,138.2959 L605,202.2959 A5,5 0 0 0 610,207.2959 L944,207.2959 A5,5 0 0 0 949,202.2959 L949,143.2959 L939,133.2959 L610,133.2959 A5,5 0 0 0 605,138.2959 " fill="#C5F7BA" filter="url(#fzeeh353b15ii)" style="stroke:#8B95A5;stroke-width:1.0;"/><path d="M939,133.2959 L939,140.7959 A2.5,2.5 0 0 0 941.5,143.2959 L949,143.2959 L939,133.2959 " fill="#C5F7BA" style="stroke:#8B95A5;stroke-width:1.0;"/><text fill="#111827" font-family="Arial" font-size="14" lengthAdjust="spacing" textLength="56" x="611" y="151.4277">Zustand:</text><text fill="#111827" font-family="Arial" font-size="14" lengthAdjust="spacing" textLength="139" x="611" y="167.5264">- Moped Fall angelegt</text><text fill="#111827" font-family="Arial" font-size="14" lengthAdjust="spacing" textLength="323" x="611" y="183.625">- keine vorl&#228;ufige/finale Abrechnung unbeantwortet</text><text fill="#111827" font-family="Arial" font-size="14" lengthAdjust="spacing" textLength="233" x="611" y="199.7236">- keine finale Abrechnung genehmigt</text><line style="stroke:#111827;stroke-width:2.0;" x1="598.5" x2="588.5" y1="236.6392" y2="232.6392"/><line style="stroke:#111827;stroke-width:2.0;" x1="598.5" x2="588.5" y1="236.6392" y2="240.6392"/><line style="stroke:#111827;stroke-width:2.0;" x1="206.5" x2="599.5" y1="236.6392" y2="236.6392"/><text fill="#000000" font-family="Arial" font-size="13" font-weight="bold" lengthAdjust="spacing" textLength="7" x="213.5" y="231.8843">1</text><text fill="#000000" font-family="Arial" font-size="13" lengthAdjust="spacing" textLength="157" x="224.5" y="231.8843">$update (POST Procedure)</text><path d="M89,254.6392 L89,286.6392 A5,5 0 0 0 94,291.6392 L316,291.6392 A5,5 0 0 0 321,286.6392 L321,259.6392 L311,249.6392 L94,249.6392 A5,5 0 0 0 89,254.6392 " fill="url(#gzeeh353b15ii0)" filter="url(#fzeeh353b15ii)" style="stroke:#8B95A5;stroke-width:1.0;"/><path d="M311,249.6392 L311,257.1392 A2.5,2.5 0 0 0 313.5,259.6392 L321,259.6392 L311,249.6392 " fill="url(#gzeeh353b15ii0)" style="stroke:#8B95A5;stroke-width:1.0;"/><text fill="#111827" font-family="Arial" font-size="14" lengthAdjust="spacing" textLength="182" x="95" y="267.771">Procedure wird gesendet mit</text><text fill="#111827" font-family="Arial" font-size="14" lengthAdjust="spacing" textLength="211" x="95" y="283.8696">- Leistungserbringer / Fachgebiet</text><path d="M605,309.8364 L605,341.8364 A5,5 0 0 0 610,346.8364 L707,346.8364 A5,5 0 0 0 712,341.8364 L712,314.8364 L702,304.8364 L610,304.8364 A5,5 0 0 0 605,309.8364 " fill="#C5F7BA" filter="url(#fzeeh353b15ii)" style="stroke:#8B95A5;stroke-width:1.0;"/><path d="M702,304.8364 L702,312.3364 A2.5,2.5 0 0 0 704.5,314.8364 L712,314.8364 L702,304.8364 " fill="#C5F7BA" style="stroke:#8B95A5;stroke-width:1.0;"/><text fill="#111827" font-family="Arial" font-size="14" lengthAdjust="spacing" textLength="56" x="611" y="322.9683">Zustand:</text><text fill="#111827" font-family="Arial" font-size="14" lengthAdjust="spacing" textLength="86" x="611" y="339.0669">- unver&#228;ndert</text><!--SRC=[ZLDDKzim4BtxLsX23t38W053me4Pw40pfRIPGY-TNcHhRMlYIEvA8YcT_Xl-2N-iA-TBJjmEyiNUVVlsxLlBJAIgEV8fIpKAmFUwqiZsZfeJcKsMPvC2jLDYYSWJ_mG8KtAXPr8LBEULWI2pB4C5oEAGL43ENMLljRAV-HHOxmebhthTY0Vv32m-xKwsPGSOfIsmtn5Zrzi3m14a-L5_JyHY26SU4HemI8S9JzRHnr9c4mN6i9XYNuE11lGzvaBumJrBe2QEuy7nESKUrjPOT13z2GMEVjM0bLIJO8IRcox0DoMQ5rWQ77eFFnseR37fcAELcQovigsHakPi0NRMsfmsQDVWdVHgEQt4ofPZNt25g6VRnZJ1ZRV7gr1NntLYqUk4GXz8UTsQSSsyIErCTvAVvcVjod2rhSrSwtamGIlUvMkKwZdh_L2iwzoDsFu8yBd_4OnZTyZL15J9dJdeXFVy_O9aE2IfFBFKXGYuORr_y_GYK88kyVp_GjhdNjSWte0ZFLcIdwUSzDIR1RFxSQEgeGa4HDnPhTmq1OoYvWQYB4hBTEuhLbJVdR5SYOkelzHnowkASLL01OMbw0Jyp_waiNfzSRaiu32NYbV0hbA4h5IEDkDK2gHafj72fcONLu22SYg9rwlqcgA8pEnVNfAa2_RErOAJpltnbuT7DaQTWN081qlv-Wdy2g9rWiqa2Y8rn0QMJQNl_GcaiTJC0AP8lmtL7D9GMLb0AY7i_1PFdAAcho_-qWUbVm40]--></g></svg>