<?xml version="1.0" encoding="us-ascii" standalone="no"?><svg xmlns="http://www.w3.org/2000/svg" xmlns:xlink="http://www.w3.org/1999/xlink" contentStyleType="text/css" height="562px" preserveAspectRatio="none" style="width:1099px;height:562px;background:#F5F5F5;" version="1.1" viewBox="0 0 1099 562" width="1099px" zoomAndPan="magnify"><defs><filter height="300%" id="fj921ab1f3hkx" width="300%" x="-1" y="-1"><feGaussianBlur result="blurOut" stdDeviation="2.0"/><feColorMatrix in="blurOut" result="blurOut2" type="matrix" values="0 0 0 0 0 0 0 0 0 0 0 0 0 0 0 0 0 0 .4 0"/><feOffset dx="4.0" dy="4.0" in="blurOut2" result="blurOut3"/><feBlend in="SourceGraphic" in2="blurOut3" mode="normal"/></filter><linearGradient id="gj921ab1f3hkx0" x1="50%" x2="50%" y1="0%" y2="100%"><stop offset="0%" stop-color="#E0E5F0"/><stop offset="100%" stop-color="#D1D9E6"/></linearGradient></defs><g><rect fill="#F5F5F5" height="562" style="stroke:none;stroke-width:1.0;" width="1099" x="0" y="0"/><rect fill="#F5E599" height="550.8228" rx="5" ry="5" style="stroke:#181818;stroke-width:0.5;" width="106" x="173" y="6"/><text fill="#000000" font-family="Arial" font-size="14" font-weight="bold" lengthAdjust="spacing" textLength="4" x="176" y="19.1318">&#160;</text><text fill="#000000" font-family="Arial" font-size="14" font-weight="bold" lengthAdjust="spacing" textLength="20" x="212" y="35.2305">KH</text><rect fill="#C5F7BA" height="550.8228" rx="5" ry="5" style="stroke:#181818;stroke-width:0.5;" width="165" x="329.5" y="6"/><text fill="#000000" font-family="Arial" font-size="14" font-weight="bold" lengthAdjust="spacing" textLength="4" x="332.5" y="19.1318">&#160;</text><text fill="#000000" font-family="Arial" font-size="14" font-weight="bold" lengthAdjust="spacing" textLength="47" x="388.5" y="35.2305">Moped</text><rect fill="#C0C0C0" height="550.8228" rx="5" ry="5" style="stroke:#181818;stroke-width:0.5;" width="104" x="536.5" y="6"/><text fill="#000000" font-family="Arial" font-size="14" font-weight="bold" lengthAdjust="spacing" textLength="4" x="539.5" y="19.1318">&#160;</text><text fill="#000000" font-family="Arial" font-size="14" font-weight="bold" lengthAdjust="spacing" textLength="18" x="575.5" y="35.2305">SV</text><rect fill="#C0C0C0" height="550.8228" rx="5" ry="5" style="stroke:#181818;stroke-width:0.5;" width="238" x="682.5" y="6"/><text fill="#000000" font-family="Arial" font-size="14" font-weight="bold" lengthAdjust="spacing" textLength="4" x="685.5" y="19.1318">&#160;</text><text fill="#000000" font-family="Arial" font-size="14" font-weight="bold" lengthAdjust="spacing" textLength="220" x="689.5" y="35.2305">LGF (Landesgesundheitsfonds)</text><rect fill="#C0C0C0" height="550.8228" rx="5" ry="5" style="stroke:#181818;stroke-width:0.5;" width="131" x="962.5" y="6"/><text fill="#000000" font-family="Arial" font-size="14" font-weight="bold" lengthAdjust="spacing" textLength="4" x="965.5" y="19.1318">&#160;</text><text fill="#000000" font-family="Arial" font-size="14" font-weight="bold" lengthAdjust="spacing" textLength="37" x="1009.5" y="35.2305">Bund</text><line style="stroke:#181818;stroke-width:0.5;stroke-dasharray:5.0,5.0;" x1="225.5" x2="225.5" y1="118.2959" y2="477.7241"/><line style="stroke:#181818;stroke-width:0.5;stroke-dasharray:5.0,5.0;" x1="412" x2="412" y1="118.2959" y2="477.7241"/><line style="stroke:#181818;stroke-width:0.5;stroke-dasharray:5.0,5.0;" x1="588" x2="588" y1="118.2959" y2="477.7241"/><line style="stroke:#181818;stroke-width:0.5;stroke-dasharray:5.0,5.0;" x1="801" x2="801" y1="118.2959" y2="477.7241"/><line style="stroke:#181818;stroke-width:0.5;stroke-dasharray:5.0,5.0;" x1="1027.5" x2="1027.5" y1="118.2959" y2="477.7241"/><text fill="#000000" font-family="Arial" font-size="14" lengthAdjust="spacing" textLength="19" x="213.5" y="115.3291">KH</text><ellipse cx="226" cy="50.6973" fill="#E2E2F0" rx="8" ry="8" style="stroke:#181818;stroke-width:0.5;"/><path d="M226,58.6973 L226,85.6973 M213,66.6973 L239,66.6973 M226,85.6973 L213,100.6973 M226,85.6973 L239,100.6973 " fill="none" style="stroke:#181818;stroke-width:0.5;"/><text fill="#000000" font-family="Arial" font-size="14" lengthAdjust="spacing" textLength="19" x="213.5" y="489.856">KH</text><ellipse cx="226" cy="501.3228" fill="#E2E2F0" rx="8" ry="8" style="stroke:#181818;stroke-width:0.5;"/><path d="M226,509.3228 L226,536.3228 M213,517.3228 L239,517.3228 M226,536.3228 L213,551.3228 M226,536.3228 L239,551.3228 " fill="none" style="stroke:#181818;stroke-width:0.5;"/><rect fill="#FFFFFF" height="30.0986" rx="5" ry="5" style="stroke:#555555;stroke-width:0.5;" width="58" x="383" y="87.1973"/><text fill="#000000" font-family="Arial" font-size="14" lengthAdjust="spacing" textLength="44" x="390" y="107.3291">Moped</text><rect fill="#FFFFFF" height="30.0986" rx="5" ry="5" style="stroke:#555555;stroke-width:0.5;" width="58" x="383" y="476.7241"/><text fill="#000000" font-family="Arial" font-size="14" lengthAdjust="spacing" textLength="44" x="390" y="496.856">Moped</text><text fill="#000000" font-family="Arial" font-size="14" lengthAdjust="spacing" textLength="18" x="576.5" y="115.3291">SV</text><ellipse cx="588.5" cy="50.6973" fill="#E2E2F0" rx="8" ry="8" style="stroke:#181818;stroke-width:0.5;"/><path d="M588.5,58.6973 L588.5,85.6973 M575.5,66.6973 L601.5,66.6973 M588.5,85.6973 L575.5,100.6973 M588.5,85.6973 L601.5,100.6973 " fill="none" style="stroke:#181818;stroke-width:0.5;"/><text fill="#000000" font-family="Arial" font-size="14" lengthAdjust="spacing" textLength="18" x="576.5" y="489.856">SV</text><ellipse cx="588.5" cy="501.3228" fill="#E2E2F0" rx="8" ry="8" style="stroke:#181818;stroke-width:0.5;"/><path d="M588.5,509.3228 L588.5,536.3228 M575.5,517.3228 L601.5,517.3228 M588.5,536.3228 L575.5,551.3228 M588.5,536.3228 L601.5,551.3228 " fill="none" style="stroke:#181818;stroke-width:0.5;"/><text fill="#000000" font-family="Arial" font-size="14" lengthAdjust="spacing" textLength="201" x="698" y="115.3291">LGF (Landesgesundheitsfonds)</text><ellipse cx="801.5" cy="50.6973" fill="#E2E2F0" rx="8" ry="8" style="stroke:#181818;stroke-width:0.5;"/><path d="M801.5,58.6973 L801.5,85.6973 M788.5,66.6973 L814.5,66.6973 M801.5,85.6973 L788.5,100.6973 M801.5,85.6973 L814.5,100.6973 " fill="none" style="stroke:#181818;stroke-width:0.5;"/><text fill="#000000" font-family="Arial" font-size="14" lengthAdjust="spacing" textLength="201" x="698" y="489.856">LGF (Landesgesundheitsfonds)</text><ellipse cx="801.5" cy="501.3228" fill="#E2E2F0" rx="8" ry="8" style="stroke:#181818;stroke-width:0.5;"/><path d="M801.5,509.3228 L801.5,536.3228 M788.5,517.3228 L814.5,517.3228 M801.5,536.3228 L788.5,551.3228 M801.5,536.3228 L814.5,551.3228 " fill="none" style="stroke:#181818;stroke-width:0.5;"/><text fill="#000000" font-family="Arial" font-size="14" lengthAdjust="spacing" textLength="33" x="1008.5" y="115.3291">Bund</text><ellipse cx="1028" cy="50.6973" fill="#E2E2F0" rx="8" ry="8" style="stroke:#181818;stroke-width:0.5;"/><path d="M1028,58.6973 L1028,85.6973 M1015,66.6973 L1041,66.6973 M1028,85.6973 L1015,100.6973 M1028,85.6973 L1041,100.6973 " fill="none" style="stroke:#181818;stroke-width:0.5;"/><text fill="#000000" font-family="Arial" font-size="14" lengthAdjust="spacing" textLength="33" x="1008.5" y="489.856">Bund</text><ellipse cx="1028" cy="501.3228" fill="#E2E2F0" rx="8" ry="8" style="stroke:#181818;stroke-width:0.5;"/><path d="M1028,509.3228 L1028,536.3228 M1015,517.3228 L1041,517.3228 M1028,536.3228 L1015,551.3228 M1028,536.3228 L1041,551.3228 " fill="none" style="stroke:#181818;stroke-width:0.5;"/><path d="M417,138.2959 L417,218.2959 A5,5 0 0 0 422,223.2959 L756,223.2959 A5,5 0 0 0 761,218.2959 L761,143.2959 L751,133.2959 L422,133.2959 A5,5 0 0 0 417,138.2959 " fill="#C5F7BA" filter="url(#fj921ab1f3hkx)" style="stroke:#8B95A5;stroke-width:1.0;"/><path d="M751,133.2959 L751,140.7959 A2.5,2.5 0 0 0 753.5,143.2959 L761,143.2959 L751,133.2959 " fill="#C5F7BA" style="stroke:#8B95A5;stroke-width:1.0;"/><text fill="#111827" font-family="Arial" font-size="14" lengthAdjust="spacing" textLength="56" x="423" y="151.4277">Zustand:</text><text fill="#111827" font-family="Arial" font-size="14" lengthAdjust="spacing" textLength="154" x="423" y="167.5264">- Moped Fall angelegt &#10003;</text><text fill="#111827" font-family="Arial" font-size="14" lengthAdjust="spacing" textLength="216" x="423" y="183.625">- Aufnahmedaten vollst&#228;ndig &#10003; &#183; x</text><text fill="#111827" font-family="Arial" font-size="14" lengthAdjust="spacing" textLength="323" x="423" y="199.7236">- keine vorl&#228;ufige/finale Abrechnung unbeantwortet</text><text fill="#111827" font-family="Arial" font-size="14" lengthAdjust="spacing" textLength="233" x="423" y="215.8223">- keine finale Abrechnung genehmigt</text><line style="stroke:#111827;stroke-width:2.0;" x1="410" x2="400" y1="252.7378" y2="248.7378"/><line style="stroke:#111827;stroke-width:2.0;" x1="410" x2="400" y1="252.7378" y2="256.7378"/><line style="stroke:#111827;stroke-width:2.0;" x1="226" x2="411" y1="252.7378" y2="252.7378"/><text fill="#000000" font-family="Arial" font-size="13" font-weight="bold" lengthAdjust="spacing" textLength="7" x="233" y="247.9829">1</text><text fill="#000000" font-family="Arial" font-size="13" lengthAdjust="spacing" textLength="86" x="244" y="247.9829">POST $update</text><path d="M5,270.7378 L5,382.7378 A5,5 0 0 0 10,387.7378 L439,387.7378 A5,5 0 0 0 444,382.7378 L444,275.7378 L434,265.7378 L10,265.7378 A5,5 0 0 0 5,270.7378 " fill="url(#gj921ab1f3hkx0)" filter="url(#fj921ab1f3hkx)" style="stroke:#8B95A5;stroke-width:1.0;"/><path d="M434,265.7378 L434,273.2378 A2.5,2.5 0 0 0 436.5,275.7378 L444,275.7378 L434,265.7378 " fill="url(#gj921ab1f3hkx0)" style="stroke:#8B95A5;stroke-width:1.0;"/><text fill="#111827" font-family="Arial" font-size="14" lengthAdjust="spacing" textLength="375" x="11" y="283.8696">Update-Bundle wird gesendet wobei eine Vielzahl an Daten</text><text fill="#111827" font-family="Arial" font-size="14" lengthAdjust="spacing" textLength="356" x="11" y="299.9683">hinzugef&#252;gt, aktualisiert oder gel&#246;scht werden kann. F&#252;r</text><text fill="#111827" font-family="Arial" font-size="14" lengthAdjust="spacing" textLength="244" x="11" y="316.0669">die Patientenversorgung relevant sind:</text><text fill="#111827" font-family="Arial" font-size="14" lengthAdjust="spacing" textLength="73" x="11" y="332.1655">- Aufenthalt</text><text fill="#111827" font-family="Arial" font-size="14" lengthAdjust="spacing" textLength="53" x="11" y="348.2642">- Patient</text><text fill="#111827" font-family="Arial" font-size="14" lengthAdjust="spacing" textLength="418" x="11" y="364.3628">- Bewegungen (station&#228;re Verlegungen oder ambulante Kontakte)</text><text fill="#111827" font-family="Arial" font-size="14" lengthAdjust="spacing" textLength="179" x="11" y="380.4614">- Leistungen und Diagnosen</text><path d="M417,406.4282 L417,454.4282 A5,5 0 0 0 422,459.4282 L649,459.4282 A5,5 0 0 0 654,454.4282 L654,411.4282 L644,401.4282 L422,401.4282 A5,5 0 0 0 417,406.4282 " fill="#C5F7BA" filter="url(#fj921ab1f3hkx)" style="stroke:#8B95A5;stroke-width:1.0;"/><path d="M644,401.4282 L644,408.9282 A2.5,2.5 0 0 0 646.5,411.4282 L654,411.4282 L644,401.4282 " fill="#C5F7BA" style="stroke:#8B95A5;stroke-width:1.0;"/><text fill="#111827" font-family="Arial" font-size="14" lengthAdjust="spacing" textLength="56" x="423" y="419.5601">Zustand:</text><text fill="#111827" font-family="Arial" font-size="14" lengthAdjust="spacing" textLength="154" x="423" y="435.6587">- Moped Fall angelegt &#10003;</text><text fill="#111827" font-family="Arial" font-size="14" lengthAdjust="spacing" textLength="216" x="423" y="451.7573">- Aufnahmedaten vollst&#228;ndig &#10003; &#183; x</text><!--SRC=[jLHBRjim4Dth50EdYmIeMpk9apYB07Rp0vAqHfraKNH3YIE9C4sw96MxANgARhlC6TfDLlLDUf8EvPza6zwLsaWpRnxdFGvbUq8Dc65z2BNXQDvfgGtirF8Ls6MMHRt4w4pn6I9k-AU0i2dZUYHK0Z6J5WkPMPbHQA1U9EKOiqowIwtSUzP7gBICOBAo6T4LJmZrmyt9Sji5ZD8EuLi0q5uLW3LinBNg3g_p9XvvHD60ax3PO8r5z3uLKK-XjL2dsCU2e1FwxZ3ElN3FKkYcNg-Vx1zJhBkmnfaCW-_51g-_3j18eNe52HSNcm0FYkSlE3Euw3r-oL15KwKTPfo8n80fLvBKoDSAOErOyrK6hHkybfuVJYanjsNV5xICqQDLO_BWqjlzUMZJZel4TAy32brHvuEInWNpDBMcxY0-Z8_AbSMZBPrCMuyB2ahnJRu6eHv3vRE2-RgvXkMg-1k3ZMQJDcUHepfACmkLc-jAW8hJzHklK-JhJW-GbqF45ZNYuv0Hss1fEDnrSiwyOWjjzt65g-QVHMUKzYpTnmqKjrUNi7lBQ1HjWfQSJL4u6sl5xTucBe_tPDlgjXhG9kpMRdE0tyA_5AXOvhJA-Y6Q8CZ_0aOagGCTUvVczdtAhAEcJeFgpEPB9YKmbQ34nC7VdpyeqyfYnT8-SkPGmL1BQTtaMN6HU03y-GrZGlNGNysXDdBodCKYmRUnK4mYj4A3KQeocgDCXKZdDDB6eLlKhECIL9ZsHU9oERxx8A1vgPwTKVEdqFdGlOTNsS0tD1EdX-X7AdZ8WrNl1L6EXE54Pea57OnqY0BoBHy5oYUMUgbmdiiAKg6UiWJZoKlYNWFhkOn9OGKQyeo6dMZav9UDoC8HqlGhw36bti3bvCL0m0NIpNS25N5HArQRn0invEFGJwOLKvV9IyAaJ7hvimfwQ-C8VG7HxjA9EA7LvDbGd_J7coVoBbW_p2GH8jpGhu2wn3qglqLXtHJbf-5Si4HfKbsmx_-Fm6AlVm00]--></g></svg>