<?xml version="1.0" encoding="us-ascii" standalone="no"?><svg xmlns="http://www.w3.org/2000/svg" xmlns:xlink="http://www.w3.org/1999/xlink" contentStyleType="text/css" height="450px" preserveAspectRatio="none" style="width:996px;height:450px;background:#F5F5F5;" version="1.1" viewBox="0 0 996 450" width="996px" zoomAndPan="magnify"><defs><filter height="300%" id="f111m2wt178xxj" width="300%" x="-1" y="-1"><feGaussianBlur result="blurOut" stdDeviation="2.0"/><feColorMatrix in="blurOut" result="blurOut2" type="matrix" values="0 0 0 0 0 0 0 0 0 0 0 0 0 0 0 0 0 0 .4 0"/><feOffset dx="4.0" dy="4.0" in="blurOut2" result="blurOut3"/><feBlend in="SourceGraphic" in2="blurOut3" mode="normal"/></filter><linearGradient id="g111m2wt178xxj0" x1="50%" x2="50%" y1="0%" y2="100%"><stop offset="0%" stop-color="#E0E5F0"/><stop offset="100%" stop-color="#D1D9E6"/></linearGradient></defs><g><rect fill="#F5F5F5" height="450" style="stroke:none;stroke-width:1.0;" width="996" x="0" y="0"/><rect fill="#F5E599" height="438.1323" rx="5" ry="5" style="stroke:#181818;stroke-width:0.5;" width="371" x="21" y="6"/><text fill="#000000" font-family="Arial" font-size="14" font-weight="bold" lengthAdjust="spacing" textLength="4" x="24" y="19.1318">&#160;</text><text fill="#000000" font-family="Arial" font-size="14" font-weight="bold" lengthAdjust="spacing" textLength="197" x="108" y="35.2305">KH (Herz-Jesu Krankenhaus)</text><rect fill="#C5F7BA" height="438.1323" rx="5" ry="5" style="stroke:#181818;stroke-width:0.5;" width="333" x="469" y="6"/><text fill="#000000" font-family="Arial" font-size="14" font-weight="bold" lengthAdjust="spacing" textLength="4" x="472" y="19.1318">&#160;</text><text fill="#000000" font-family="Arial" font-size="14" font-weight="bold" lengthAdjust="spacing" textLength="47" x="612" y="35.2305">Moped</text><line style="stroke:#181818;stroke-width:0.5;stroke-dasharray:5.0,5.0;" x1="206.5" x2="206.5" y1="118.2959" y2="365.0337"/><line style="stroke:#181818;stroke-width:0.5;stroke-dasharray:5.0,5.0;" x1="635.5" x2="635.5" y1="118.2959" y2="365.0337"/><text fill="#000000" font-family="Arial" font-size="14" lengthAdjust="spacing" textLength="186" x="110.5" y="115.3291">KH (Herz-Jesu Krankenhaus)</text><ellipse cx="206.5" cy="50.6973" fill="#E2E2F0" rx="8" ry="8" style="stroke:#181818;stroke-width:0.5;"/><path d="M206.5,58.6973 L206.5,85.6973 M193.5,66.6973 L219.5,66.6973 M206.5,85.6973 L193.5,100.6973 M206.5,85.6973 L219.5,100.6973 " fill="none" style="stroke:#181818;stroke-width:0.5;"/><text fill="#000000" font-family="Arial" font-size="14" lengthAdjust="spacing" textLength="186" x="110.5" y="377.1655">KH (Herz-Jesu Krankenhaus)</text><ellipse cx="206.5" cy="388.6323" fill="#E2E2F0" rx="8" ry="8" style="stroke:#181818;stroke-width:0.5;"/><path d="M206.5,396.6323 L206.5,423.6323 M193.5,404.6323 L219.5,404.6323 M206.5,423.6323 L193.5,438.6323 M206.5,423.6323 L219.5,438.6323 " fill="none" style="stroke:#181818;stroke-width:0.5;"/><rect fill="#FFFFFF" height="30.0986" rx="5" ry="5" style="stroke:#555555;stroke-width:0.5;" width="58" x="606.5" y="87.1973"/><text fill="#000000" font-family="Arial" font-size="14" lengthAdjust="spacing" textLength="44" x="613.5" y="107.3291">Moped</text><rect fill="#FFFFFF" height="30.0986" rx="5" ry="5" style="stroke:#555555;stroke-width:0.5;" width="58" x="606.5" y="364.0337"/><text fill="#000000" font-family="Arial" font-size="14" lengthAdjust="spacing" textLength="44" x="613.5" y="384.1655">Moped</text><path d="M640,138.2959 L640,202.2959 A5,5 0 0 0 645,207.2959 L979,207.2959 A5,5 0 0 0 984,202.2959 L984,143.2959 L974,133.2959 L645,133.2959 A5,5 0 0 0 640,138.2959 " fill="#C5F7BA" filter="url(#f111m2wt178xxj)" style="stroke:#8B95A5;stroke-width:1.0;"/><path d="M974,133.2959 L974,140.7959 A2.5,2.5 0 0 0 976.5,143.2959 L984,143.2959 L974,133.2959 " fill="#C5F7BA" style="stroke:#8B95A5;stroke-width:1.0;"/><text fill="#111827" font-family="Arial" font-size="14" lengthAdjust="spacing" textLength="56" x="646" y="151.4277">Zustand:</text><text fill="#111827" font-family="Arial" font-size="14" lengthAdjust="spacing" textLength="139" x="646" y="167.5264">- Moped Fall angelegt</text><text fill="#111827" font-family="Arial" font-size="14" lengthAdjust="spacing" textLength="323" x="646" y="183.625">- keine vorl&#228;ufige/finale Abrechnung unbeantwortet</text><text fill="#111827" font-family="Arial" font-size="14" lengthAdjust="spacing" textLength="233" x="646" y="199.7236">- keine finale Abrechnung genehmigt</text><line style="stroke:#111827;stroke-width:2.0;" x1="633.5" x2="623.5" y1="236.6392" y2="232.6392"/><line style="stroke:#111827;stroke-width:2.0;" x1="633.5" x2="623.5" y1="236.6392" y2="240.6392"/><line style="stroke:#111827;stroke-width:2.0;" x1="206.5" x2="634.5" y1="236.6392" y2="236.6392"/><text fill="#000000" font-family="Arial" font-size="13" font-weight="bold" lengthAdjust="spacing" textLength="7" x="213.5" y="231.8843">1</text><text fill="#000000" font-family="Arial" font-size="13" lengthAdjust="spacing" textLength="195" x="224.5" y="231.8843">$update (PUT TransferEncounter)</text><path d="M77,254.6392 L77,286.6392 A5,5 0 0 0 82,291.6392 L328,291.6392 A5,5 0 0 0 333,286.6392 L333,259.6392 L323,249.6392 L82,249.6392 A5,5 0 0 0 77,254.6392 " fill="url(#g111m2wt178xxj0)" filter="url(#f111m2wt178xxj)" style="stroke:#8B95A5;stroke-width:1.0;"/><path d="M323,249.6392 L323,257.1392 A2.5,2.5 0 0 0 325.5,259.6392 L333,259.6392 L323,249.6392 " fill="url(#g111m2wt178xxj0)" style="stroke:#8B95A5;stroke-width:1.0;"/><text fill="#111827" font-family="Arial" font-size="14" lengthAdjust="spacing" textLength="235" x="83" y="267.771">TransferEncounter wird gesendet mit</text><text fill="#111827" font-family="Arial" font-size="14" lengthAdjust="spacing" textLength="140" x="83" y="283.8696">- aktualisierten Details</text><path d="M640,309.8364 L640,341.8364 A5,5 0 0 0 645,346.8364 L742,346.8364 A5,5 0 0 0 747,341.8364 L747,314.8364 L737,304.8364 L645,304.8364 A5,5 0 0 0 640,309.8364 " fill="#C5F7BA" filter="url(#f111m2wt178xxj)" style="stroke:#8B95A5;stroke-width:1.0;"/><path d="M737,304.8364 L737,312.3364 A2.5,2.5 0 0 0 739.5,314.8364 L747,314.8364 L737,304.8364 " fill="#C5F7BA" style="stroke:#8B95A5;stroke-width:1.0;"/><text fill="#111827" font-family="Arial" font-size="14" lengthAdjust="spacing" textLength="56" x="646" y="322.9683">Zustand:</text><text fill="#111827" font-family="Arial" font-size="14" lengthAdjust="spacing" textLength="86" x="646" y="339.0669">- unver&#228;ndert</text><!--SRC=[ZLDDJzj04BtxLwn23t28YWC6mW4fjA5H4LLKu5BrClQEdPMTMNS_253rt_1F-6FTDVbO9sx5-cBFl9bvxurNbu9gK31dgLGSrITPISNs3fiJwKqMih9GqX9V8lB4Fm52pu3BXQ22vL1f33BBCaMeM1msvPY3hSoL9FCDviXw8oMWwdKZRiKpilYuEzcc7M186cI_8yOkjmNW8IRvON-Fnto89nuH6d2M3XD8rj6xcSXAGgrPx6BV0q5dxdiAd7lXlal09exZiy6fYzskhJ7AOlGd93Xvgb5LWif0mdZS1RWdthpWqk3GU_nbaR8tfLDGHcIY1Z8jIKbpjW0xQsrE6xHhy4vwjPnMOcNBm1UCb9ABRMEQuCRRmIhKDN6TU9jrv49V7FEwfN7T-Isre-ueFyvFsfNXQbkRkPIFWO9MlClNA9MFhFUJMDUvdh3z2Qhd_bVKbbqhe19f1bOVTC9x_dvXCXmwgf0PDyKr0Crw_-xJYv2ukyIF_oVIFZUoHluEdEEJ9Vbf2evFlLamkvash9es0O48h95avocgA6fke1B5p32P-ufLgnzM6o1-7lMNFAwWgXXGWHKMnaLBz3_xWrJLwulDHO4VSq5G8Hkb2hCPMRSPIoaw9Wkf36vgTd454ixcmlNrB3sdA79czYyk7ALpzi7M71pF_Udz7RjpjkeSrPWoz-yOL0TB5V81_IQY7G1R2CNT3EsQes5puQb0QInKGWjqt8XzHWEYqi7yzpXZoSryVV5NFw3-5m00]--></g></svg>