<?xml version="1.0" encoding="us-ascii" standalone="no"?><svg xmlns="http://www.w3.org/2000/svg" xmlns:xlink="http://www.w3.org/1999/xlink" contentStyleType="text/css" height="450px" preserveAspectRatio="none" style="width:961px;height:450px;background:#F5F5F5;" version="1.1" viewBox="0 0 961 450" width="961px" zoomAndPan="magnify"><defs><filter height="300%" id="f9bmq2dj6qs47" width="300%" x="-1" y="-1"><feGaussianBlur result="blurOut" stdDeviation="2.0"/><feColorMatrix in="blurOut" result="blurOut2" type="matrix" values="0 0 0 0 0 0 0 0 0 0 0 0 0 0 0 0 0 0 .4 0"/><feOffset dx="4.0" dy="4.0" in="blurOut2" result="blurOut3"/><feBlend in="SourceGraphic" in2="blurOut3" mode="normal"/></filter><linearGradient id="g9bmq2dj6qs470" x1="50%" x2="50%" y1="0%" y2="100%"><stop offset="0%" stop-color="#E0E5F0"/><stop offset="100%" stop-color="#D1D9E6"/></linearGradient></defs><g><rect fill="#F5F5F5" height="450" style="stroke:none;stroke-width:1.0;" width="961" x="0" y="0"/><rect fill="#F5E599" height="438.1323" rx="5" ry="5" style="stroke:#181818;stroke-width:0.5;" width="371" x="21" y="6"/><text fill="#000000" font-family="Arial" font-size="14" font-weight="bold" lengthAdjust="spacing" textLength="4" x="24" y="19.1318">&#160;</text><text fill="#000000" font-family="Arial" font-size="14" font-weight="bold" lengthAdjust="spacing" textLength="197" x="108" y="35.2305">KH (Herz-Jesu Krankenhaus)</text><rect fill="#C5F7BA" height="438.1323" rx="5" ry="5" style="stroke:#181818;stroke-width:0.5;" width="333" x="434" y="6"/><text fill="#000000" font-family="Arial" font-size="14" font-weight="bold" lengthAdjust="spacing" textLength="4" x="437" y="19.1318">&#160;</text><text fill="#000000" font-family="Arial" font-size="14" font-weight="bold" lengthAdjust="spacing" textLength="47" x="577" y="35.2305">Moped</text><line style="stroke:#181818;stroke-width:0.5;stroke-dasharray:5.0,5.0;" x1="206.5" x2="206.5" y1="118.2959" y2="365.0337"/><line style="stroke:#181818;stroke-width:0.5;stroke-dasharray:5.0,5.0;" x1="600.5" x2="600.5" y1="118.2959" y2="365.0337"/><text fill="#000000" font-family="Arial" font-size="14" lengthAdjust="spacing" textLength="186" x="110.5" y="115.3291">KH (Herz-Jesu Krankenhaus)</text><ellipse cx="206.5" cy="50.6973" fill="#E2E2F0" rx="8" ry="8" style="stroke:#181818;stroke-width:0.5;"/><path d="M206.5,58.6973 L206.5,85.6973 M193.5,66.6973 L219.5,66.6973 M206.5,85.6973 L193.5,100.6973 M206.5,85.6973 L219.5,100.6973 " fill="none" style="stroke:#181818;stroke-width:0.5;"/><text fill="#000000" font-family="Arial" font-size="14" lengthAdjust="spacing" textLength="186" x="110.5" y="377.1655">KH (Herz-Jesu Krankenhaus)</text><ellipse cx="206.5" cy="388.6323" fill="#E2E2F0" rx="8" ry="8" style="stroke:#181818;stroke-width:0.5;"/><path d="M206.5,396.6323 L206.5,423.6323 M193.5,404.6323 L219.5,404.6323 M206.5,423.6323 L193.5,438.6323 M206.5,423.6323 L219.5,438.6323 " fill="none" style="stroke:#181818;stroke-width:0.5;"/><rect fill="#FFFFFF" height="30.0986" rx="5" ry="5" style="stroke:#555555;stroke-width:0.5;" width="58" x="571.5" y="87.1973"/><text fill="#000000" font-family="Arial" font-size="14" lengthAdjust="spacing" textLength="44" x="578.5" y="107.3291">Moped</text><rect fill="#FFFFFF" height="30.0986" rx="5" ry="5" style="stroke:#555555;stroke-width:0.5;" width="58" x="571.5" y="364.0337"/><text fill="#000000" font-family="Arial" font-size="14" lengthAdjust="spacing" textLength="44" x="578.5" y="384.1655">Moped</text><path d="M605,138.2959 L605,202.2959 A5,5 0 0 0 610,207.2959 L944,207.2959 A5,5 0 0 0 949,202.2959 L949,143.2959 L939,133.2959 L610,133.2959 A5,5 0 0 0 605,138.2959 " fill="#C5F7BA" filter="url(#f9bmq2dj6qs47)" style="stroke:#8B95A5;stroke-width:1.0;"/><path d="M939,133.2959 L939,140.7959 A2.5,2.5 0 0 0 941.5,143.2959 L949,143.2959 L939,133.2959 " fill="#C5F7BA" style="stroke:#8B95A5;stroke-width:1.0;"/><text fill="#111827" font-family="Arial" font-size="14" lengthAdjust="spacing" textLength="56" x="611" y="151.4277">Zustand:</text><text fill="#111827" font-family="Arial" font-size="14" lengthAdjust="spacing" textLength="139" x="611" y="167.5264">- Moped Fall angelegt</text><text fill="#111827" font-family="Arial" font-size="14" lengthAdjust="spacing" textLength="323" x="611" y="183.625">- keine vorl&#228;ufige/finale Abrechnung unbeantwortet</text><text fill="#111827" font-family="Arial" font-size="14" lengthAdjust="spacing" textLength="233" x="611" y="199.7236">- keine finale Abrechnung genehmigt</text><line style="stroke:#111827;stroke-width:2.0;" x1="598.5" x2="588.5" y1="236.6392" y2="232.6392"/><line style="stroke:#111827;stroke-width:2.0;" x1="598.5" x2="588.5" y1="236.6392" y2="240.6392"/><line style="stroke:#111827;stroke-width:2.0;" x1="206.5" x2="599.5" y1="236.6392" y2="236.6392"/><text fill="#000000" font-family="Arial" font-size="13" font-weight="bold" lengthAdjust="spacing" textLength="7" x="213.5" y="231.8843">1</text><text fill="#000000" font-family="Arial" font-size="13" lengthAdjust="spacing" textLength="152" x="224.5" y="231.8843">$update (POST Condition)</text><path d="M106,254.6392 L106,286.6392 A5,5 0 0 0 111,291.6392 L298,291.6392 A5,5 0 0 0 303,286.6392 L303,259.6392 L293,249.6392 L111,249.6392 A5,5 0 0 0 106,254.6392 " fill="url(#g9bmq2dj6qs470)" filter="url(#f9bmq2dj6qs47)" style="stroke:#8B95A5;stroke-width:1.0;"/><path d="M293,249.6392 L293,257.1392 A2.5,2.5 0 0 0 295.5,259.6392 L303,259.6392 L293,249.6392 " fill="url(#g9bmq2dj6qs470)" style="stroke:#8B95A5;stroke-width:1.0;"/><text fill="#111827" font-family="Arial" font-size="14" lengthAdjust="spacing" textLength="176" x="112" y="267.771">Condition wird gesendet mit</text><text fill="#111827" font-family="Arial" font-size="14" lengthAdjust="spacing" textLength="164" x="112" y="283.8696">- Typ: Aufnahmediagnose</text><path d="M605,309.8364 L605,341.8364 A5,5 0 0 0 610,346.8364 L802,346.8364 A5,5 0 0 0 807,341.8364 L807,314.8364 L797,304.8364 L610,304.8364 A5,5 0 0 0 605,309.8364 " fill="#C5F7BA" filter="url(#f9bmq2dj6qs47)" style="stroke:#8B95A5;stroke-width:1.0;"/><path d="M797,304.8364 L797,312.3364 A2.5,2.5 0 0 0 799.5,314.8364 L807,314.8364 L797,304.8364 " fill="#C5F7BA" style="stroke:#8B95A5;stroke-width:1.0;"/><text fill="#111827" font-family="Arial" font-size="14" lengthAdjust="spacing" textLength="56" x="611" y="322.9683">Zustand:</text><text fill="#111827" font-family="Arial" font-size="14" lengthAdjust="spacing" textLength="181" x="611" y="339.0669">- Aufnahmedaten vollst&#228;ndig</text><!--SRC=[ZLDDRzf04BtxLwn83ya15PCu0GwHI9GKDKgB2hrKlOozOtjbC-kkTmD9rN-JVv8_rhNvMeDRPRZ0p9itRzwmPIQe00KB5ah5KTtAN2fsqgl3A_TLYB94IKDyWuY3wkCWoXIuN0fAM0nvYKvbqwO85VDTKeunc5pVIz9VO86iCrO2yauxOYPUaFaNxSMcR0T3KYFxxJ5sSxW0zZ28UzqJxlCXNbO8ru11E0mWs6NdgOWomh9alirzSnOQsDzJuBnQl69nrFY-F-XVsTniPurM1hq_hi39Su4g5vGvAzpTjG6-4w-_uCPWrtlyPP2YzQPJK5f4eW3IZPM2EWu0HsUjemawDlYel3rEex2rfLyrZ9MIoqDZwkJUs_usrJPnLrZFEhUfJrPvqTXnnxmk7Mrt7b_4byrEzxIDozp8bRD18z_cgnVA5Uly9DOM3nDsEa7rqlsCfM4F2YX3Ii6KPwtmJlM-C1WEhLI8j9rY2Q1adN_pT3maRX_nwlz2cl4e2-Jlm5azKH1VXM3r5Fi3iyTfhQgcSGI0qPBC8aJbUVK3L299DPDnrR1b-c5A3SH7NdSZunxod04bc6EYRJR3wh_-95N-zcfYaU37M13aoCQXmYWbOmzZA4GhP2cLndtFCIv1mdGXB6ybijBaUTRBxlMrbJHY7qp1mUeydNwTpTcj92wqa7IsaI-ViBg0jokmfL3SafQM3JLRY6hs_BaOiR692T85SW49IVjAz_FUuyIktQeXktkUb_hjrKvDzaH_0G00]--></g></svg>